<?xml version="1.0" encoding="utf-8"?>
<!-- Generator: Adobe Illustrator 16.0.0, SVG Export Plug-In . SVG Version: 6.00 Build 0)  -->
<!DOCTYPE svg PUBLIC "-//W3C//DTD SVG 1.1//EN" "http://www.w3.org/Graphics/SVG/1.1/DTD/svg11.dtd">
<svg version="1.1" id="Layer_1" xmlns="http://www.w3.org/2000/svg" xmlns:xlink="http://www.w3.org/1999/xlink" x="0px" y="0px"
	 width="656.4px" height="217.4px" viewBox="86.85 121.85 656.4 217.4" enable-background="new 86.85 121.85 656.4 217.4"
	 xml:space="preserve">
<polygon fill="#C9A86E" points="86.85,152.15 93.1,150.2 94.4,149.75 95.75,149.25 97.05,148.7 98.35,148.1 99.65,147.45 
	100.95,146.75 102.2,146 103.45,145.25 104.7,144.45 105.9,143.65 107.1,142.8 108.25,141.95 109.4,141.05 110.5,140.1 111.6,139.2 
	112.65,138.25 113.7,137.3 114.7,136.35 115.65,135.35 116.55,134.4 117.45,133.45 118.3,132.5 119.15,131.55 119.9,130.6 
	120.65,129.65 121.3,128.75 121.95,127.85 122.55,127 123.1,126.15 123.6,125.35 125.65,121.85 132.9,123.1 136.95,123.75 
	141,124.4 145,124.95 148.9,125.5 152.75,125.95 156.6,126.4 160.35,126.8 164.1,127.15 167.85,127.45 171.5,127.7 175.15,127.9 
	178.8,128.05 182.45,128.15 186.05,128.25 189.7,128.25 193.3,128.25 196.9,128.15 200.55,128.05 204.2,127.9 207.85,127.7 
	211.55,127.45 215.25,127.15 219,126.8 222.75,126.4 226.6,125.95 230.45,125.5 234.4,124.95 238.35,124.4 242.4,123.75 
	246.5,123.1 253.7,121.85 255.75,125.35 256.25,126.15 256.8,127 257.4,127.85 258.05,128.75 258.75,129.65 259.45,130.6 
	260.25,131.55 261.05,132.5 261.9,133.45 262.8,134.4 263.7,135.35 264.7,136.35 265.7,137.3 266.7,138.25 267.75,139.2 
	268.85,140.1 269.95,141.05 271.1,141.95 272.3,142.8 273.45,143.65 274.7,144.45 275.9,145.25 277.15,146 278.4,146.75 
	279.7,147.45 281,148.1 282.3,148.7 283.6,149.25 284.95,149.75 286.25,150.2 292.5,152.15 287.3,163.9 284.95,170.85 283.2,177.75 
	282.05,184.65 281.4,191.45 281.2,198.25 281.4,205 281.85,211.75 282.6,218.4 283.45,225.05 284.45,231.6 285.45,238.1 
	286.35,244.5 287.2,250.85 287.8,257.15 288.1,263.35 288.1,269.5 287.55,275.55 286.5,281.5 284.85,287.35 282.4,293 279.2,298.5 
	275.1,303.8 270.15,308.8 264.2,313.5 257.25,317.95 249.25,322.15 240.15,326.05 229.8,329.75 218.15,333.1 205.2,336.25 
	190.9,339.1 190.75,339.15 190.4,339.2 190,339.25 189.65,339.25 189.35,339.25 189.05,339.2 188.8,339.2 188.6,339.15 
	174.2,336.25 161.2,333.1 149.55,329.75 139.25,326.05 130.1,322.15 122.1,317.95 115.15,313.5 109.25,308.8 104.25,303.8 
	100.2,298.5 96.95,293 94.55,287.35 92.85,281.5 91.8,275.55 91.3,269.5 91.25,263.35 91.55,257.15 92.2,250.85 93,244.5 
	93.95,238.1 94.95,231.6 95.9,225.05 96.8,218.4 97.5,211.75 97.95,205 98.15,198.25 97.95,191.45 97.3,184.65 96.15,177.75 
	94.45,170.85 92.05,163.9 "/>
<path fill="#AE4037" d="M96,156.1c15.45-4.45,28.7-18.3,33.7-27.1c43.55,7.65,75.45,7.65,119,0c5,8.8,18.25,22.65,33.7,27.1
	c-37.5,75.85,61.5,145.25-92.9,173.3c-0.15,0.05-0.3,0.05-0.55,0C34.5,301.35,133.5,231.9,96,156.1L96,156.1z"/>
<path fill="#AE4037" d="M336.15,176.3h38l1,8.95c-2.3-0.5-4.65-0.85-7.1-1.15c-2.45-0.25-5-0.4-7.7-0.4c-0.1,2.2-0.15,4.4-0.2,6.6
	c-0.05,2.2-0.05,4.4-0.05,6.55c0,6.45,0.1,12.15,0.3,17.1c0.2,4.95,0.55,9.35,1,13.2h-12.65c0.4-3.7,0.7-7.8,0.9-12.2
	c0.2-4.4,0.3-9.25,0.3-14.5c0-2.55,0-5.15-0.05-7.8c-0.05-2.65-0.1-5.65-0.25-8.95c-2.55,0-5.05,0.15-7.5,0.4
	c-2.45,0.25-4.85,0.65-7.15,1.15L336.15,176.3L336.15,176.3z M400.45,184.95c-1.15,3.35-2.3,6.75-3.4,10.15
	c-1.1,3.4-2.25,6.95-3.45,10.75h13c-0.85-3.3-1.8-6.65-2.85-10.15C402.75,192.2,401.65,188.6,400.45,184.95L400.45,184.95z
	 M394.35,176.15c1.05,0.05,2.1,0.1,3.15,0.1c1.05,0.05,2.1,0.05,3.2,0.05c1.15,0,2.25,0,3.4-0.05s2.25-0.1,3.4-0.15
	c2.1,8,4.65,16.25,7.55,24.8c2.9,8.55,6.15,17.3,9.851,26.3h-12.7c-0.75-3.2-1.45-5.95-2.05-8.3s-1.1-4.2-1.55-5.45h-16.85
	c-0.65,2.2-1.3,4.45-1.85,6.7c-0.6,2.3-1.1,4.65-1.6,7.05h-11.7c3.9-9.4,7.35-18.3,10.3-26.8
	C389.75,191.9,392.25,183.85,394.35,176.15L394.35,176.15z M438.3,176.3h34.25c-0.35,4.7-0.649,9.1-0.85,13.3
	c-0.2,4.2-0.3,8.2-0.3,12c0,4.8,0.1,9.35,0.3,13.6s0.5,8.25,0.899,12h-12.35c0.3-4.9,0.5-9.5,0.65-13.7
	c0.149-4.25,0.25-8.1,0.25-11.6c0-5.75-0.101-11.5-0.301-17.25c0-0.35,0-0.65,0-0.8H448.2c-0.95,17.65-2.65,29.5-4.95,35.45
	c-2.35,5.95-6.1,8.95-11.3,8.95c-1.05,0-2.05-0.15-3.05-0.4s-2-0.65-3-1.2l-0.301-8.3c0.551,0.2,1.051,0.3,1.5,0.4
	c0.45,0.1,0.851,0.15,1.25,0.15c1.95,0,3.4-0.55,4.45-1.65s1.95-3.1,2.65-6c0.85-3.25,1.55-7.8,2.1-13.6
	c0.601-5.85,0.851-11.85,0.851-18.05c0-0.1,0-0.5-0.051-1.25C438.3,177.55,438.3,176.9,438.3,176.3L438.3,176.3z M483.95,176.3
	h11.899c-0.3,3.6-0.55,7.8-0.649,12.65c-0.15,4.85-0.2,10.4-0.2,16.55v4.15c3.55-4.6,7-9.3,10.35-14.05
	c3.351-4.75,6.7-9.6,9.95-14.5c0-0.3-0.05-0.85-0.05-1.6c-0.05-1.45-0.1-2.55-0.15-3.2h11.7c-0.35,4.05-0.6,8.15-0.8,12.35
	c-0.2,4.2-0.25,8.5-0.25,12.95c0,4.65,0.1,9.1,0.3,13.35s0.5,8.3,0.9,12.25H514.9c0.35-4.65,0.55-9.25,0.699-13.85
	c0.15-4.6,0.25-9.1,0.25-13.6c0-0.65,0-1.65-0.05-2.95c0-1.3-0.05-2.25-0.05-2.95c-3.8,5.05-7.4,10-10.8,14.8
	c-3.4,4.8-6.65,9.45-9.7,13.95c0,0.8,0.05,1.6,0.1,2.35c0.051,0.75,0.051,1.5,0.101,2.25H483.9c0.399-3.75,0.699-7.75,0.949-12
	c0.2-4.25,0.301-8.75,0.301-13.6c0-3.95-0.101-8-0.301-12.15C484.6,185.3,484.35,180.9,483.95,176.3L483.95,176.3z M571.05,176.5
	l1.2,10.05c-1.6-0.75-3.25-1.3-4.95-1.7s-3.45-0.6-5.25-0.6c-4.95,0-8.8,1.6-11.6,4.8c-2.8,3.2-4.2,7.6-4.2,13.2
	c0,5.5,1.25,9.75,3.7,12.7c2.45,2.95,6,4.45,10.55,4.45c1.95,0,3.9-0.35,5.95-1s4.2-1.7,6.45-3.05l-1,9.4
	c-1.851,1.1-3.95,1.9-6.25,2.45c-2.301,0.55-4.801,0.85-7.5,0.85c-7.101,0-12.601-2.2-16.601-6.55s-6-10.45-6-18.2
	c0-8.55,2.4-15.3,7.15-20.25c4.75-4.95,11.25-7.45,19.45-7.45c1.449,0,2.949,0.1,4.399,0.25
	C568.05,175.95,569.55,176.2,571.05,176.5L571.05,176.5z M585.15,176.3H598.8c1.9,6.15,3.851,12.1,5.851,17.9
	c2,5.8,4.1,11.5,6.3,17.15c2.149-5.95,4.2-11.8,6.05-17.65c1.85-5.85,3.6-11.65,5.2-17.4h13.45c0.449,8.1,1.3,16.4,2.5,24.9
	c1.199,8.5,2.85,17.15,4.85,26h-12.05c-0.2-6.95-0.601-13.75-1.2-20.5c-0.6-6.7-1.4-13.35-2.4-19.9c-2.199,5.5-4.35,11.45-6.5,17.95
	c-2.149,6.5-4.449,13.95-6.899,22.45H607c-2.35-8.1-4.7-15.45-6.9-22c-2.25-6.6-4.55-12.8-6.899-18.6c-0.75,5.1-1.4,11-2,17.7
	c-0.601,6.75-1.101,14.35-1.55,22.9H578c1.85-8.8,3.4-17.4,4.55-25.85C583.75,192.85,584.6,184.5,585.15,176.3L585.15,176.3z
	 M669.65,184.95c-1.15,3.35-2.301,6.75-3.4,10.15s-2.25,6.95-3.45,10.75h13c-0.85-3.3-1.8-6.65-2.85-10.15
	S670.8,188.6,669.65,184.95L669.65,184.95z M663.5,176.15c1.05,0.05,2.1,0.1,3.15,0.1c1.05,0.05,2.1,0.05,3.199,0.05
	c1.15,0,2.25,0,3.4-0.05s2.25-0.1,3.4-0.15c2.1,8,4.649,16.25,7.55,24.8c2.899,8.55,6.149,17.3,9.85,26.3h-12.7
	c-0.75-3.2-1.449-5.95-2.05-8.3c-0.6-2.35-1.1-4.2-1.55-5.45H660.9c-0.65,2.2-1.301,4.45-1.851,6.7c-0.6,2.3-1.1,4.65-1.6,7.05
	h-11.7c3.9-9.4,7.35-18.3,10.3-26.8C658.9,191.9,661.4,183.85,663.5,176.15L663.5,176.15z M700.3,176.3h12.4
	c-0.3,3.7-0.5,7.2-0.65,10.45c-0.149,3.3-0.25,6.5-0.3,9.6h19.9c-0.051-4.05-0.15-7.7-0.301-10.95c-0.149-3.25-0.35-6.3-0.6-9.1
	h12.35c-0.35,4.3-0.6,8.6-0.8,12.85s-0.25,8.4-0.25,12.5c0,4.65,0.101,9.1,0.3,13.35c0.2,4.25,0.5,8.3,0.9,12.25h-12.4
	c0.25-3.95,0.4-7.9,0.551-11.75c0.149-3.9,0.199-7.7,0.25-11.5H711.85c0.051,4.9,0.15,9.25,0.301,12.95c0.1,3.7,0.3,7.15,0.449,10.3
	H700.2c0.399-3.75,0.7-7.75,0.95-12c0.199-4.25,0.3-8.75,0.3-13.6c0-3.85-0.101-7.85-0.3-12C700.95,185.4,700.65,181,700.3,176.3
	L700.3,176.3z"/>
<path fill="#D5D7DD" d="M205.55,147.9c4.15,0,7.65,11.05,8.65,25.95c-1.55-0.55-3-1.2-4.35-1.9c-0.7-6.45-2.35-11-4.3-11
	c-2.55,0-4.65,8.05-4.65,18c0,9.95,2.1,18,4.65,18c2.25,0,4.15-6.25,4.55-14.55c1.45,0.55,2.9,1,4.35,1.4
	c-0.1,21-2.75,90.1-8.9,120.3c-6.6-30.95-8.9-102.75-8.9-121.8C196.65,163.35,200.65,147.9,205.55,147.9L205.55,147.9z"/>
<path fill="#CDAA6C" d="M139.6,258.5l0.1,3.55l0.05,0.8l0.1,0.75l0.15,0.75l0.15,0.75l0.2,0.7l0.2,0.7l0.25,0.7l0.3,0.65l0.3,0.65
	l0.35,0.65l0.35,0.6l0.4,0.6l0.4,0.55l0.45,0.55l0.45,0.5l0.5,0.5l0.5,0.45l0.55,0.45l0.55,0.4l0.55,0.4l0.6,0.35l0.6,0.35l0.6,0.3
	l0.65,0.25l0.65,0.25l0.65,0.2l0.65,0.15l0.7,0.15l0.7,0.1l0.7,0.05h0.7h0.7l0.7-0.05l0.7-0.1l0.7-0.15l0.65-0.15l0.65-0.2
	l0.65-0.25l0.65-0.25l0.6-0.3l0.6-0.35l0.6-0.35l0.55-0.4l0.55-0.4l0.55-0.45l0.5-0.45l0.5-0.5l0.45-0.5l0.45-0.55l0.4-0.55l0.4-0.6
	l0.35-0.6l0.35-0.65l0.3-0.65l0.3-0.65l0.25-0.7l0.2-0.7l0.2-0.7l0.15-0.75l0.15-0.75l0.1-0.75l0.05-0.8v-0.8l-0.05-1.25l-0.1-1.25
	l-0.15-1.2l-0.2-1.2l-0.25-1.15l-0.3-1.15l-0.35-1.1l-0.4-1.1l-0.45-1.05l-0.5-1.05l-0.55-1l-0.6-1l-0.65-0.95l-0.65-0.9l-0.7-0.85
	l-0.75-0.85l-0.8-0.8l-0.8-0.75l-0.85-0.7l-0.9-0.65l-0.9-0.6l-0.95-0.55l-0.95-0.5l-1-0.5l-1-0.4l-1.05-0.35l-1.05-0.3l-1.05-0.25
	l-1.1-0.2l-1.1-0.15l-1.15-0.1l-1.15-0.05L144,237.4l-1.15,0.1l-1.1,0.15l-1.1,0.2l-1.05,0.25l-1.05,0.3l-1.05,0.35l-1,0.4l-1,0.5
	l-0.95,0.5l-0.95,0.55l-0.9,0.6l-0.9,0.65l-0.85,0.7l-0.8,0.75l-0.8,0.8l-0.75,0.85l-0.7,0.85l-0.65,0.9l-0.65,0.95l-0.6,1l-0.55,1
	l-0.5,1.05l-0.45,1.05l-0.4,1.1l-0.35,1.1l-0.3,1.15l-0.25,1.15l-0.2,1.2l-0.15,1.2l-0.1,1.25l-0.05,1.25l0.05,1.7l0.1,1.7l0.2,1.65
	l0.25,1.65l0.35,1.6l0.4,1.55l0.5,1.55l0.55,1.5l0.6,1.45l0.7,1.4l0.75,1.4l0.8,1.35l0.85,1.3l0.9,1.25l0.95,1.2l1,1.15l1.05,1.1
	l1.1,1.05l1.15,0.95l1.2,0.9l1.25,0.85l1.3,0.8l1.3,0.7l1.35,0.65l1.4,0.6l1.4,0.5l1.45,0.45l1.5,0.35l1.5,0.3l1.55,0.2l1.55,0.15
	l1.55,0.05l1.55-0.05l1.55-0.15l1.5-0.2l1.5-0.3l1.45-0.35l1.45-0.45l1.4-0.5l1.4-0.6l1.35-0.65l1.3-0.7l1.25-0.8l1.25-0.85l1.2-0.9
	l1.15-0.95l1.1-1.05l1.05-1.1l1-1.15l0.95-1.2l0.9-1.25l0.85-1.3l0.8-1.35l0.75-1.4l0.7-1.45l0.65-1.45l0.55-1.5l0.5-1.55l0.45-1.55
	l0.35-1.6l0.3-1.65l0.2-1.65l0.15-1.7l0.05-1.7l-0.05-3.5l-0.25-3.3l-0.45-3.1l-0.6-2.95l-0.75-2.8l-0.9-2.6l-1.05-2.5l-1.15-2.35
	l-1.3-2.2l-1.4-2.1l-1.45-2l-1.55-1.9l-1.6-1.8l-1.65-1.75l-1.7-1.65l-1.75-1.6l-1.75-1.5l-1.75-1.45L161,218.7l-1.75-1.4l-0.95-0.8
	l-1,0.3l-1.2,0.35l-1.25,0.3l-1.25,0.25l-1.3,0.2l-1.3,0.15l-1.35,0.1l-1.35,0.05h-1.4l-3.95-0.3l-3.75-0.6l-3.5-0.95l-3.3-1.2
	l-3.05-1.5l-2.8-1.75l-2.55-1.95l-2.3-2.15l-2.05-2.35l-1.75-2.5l-1.5-2.65l-1.25-2.75l-1-2.85l-0.7-2.9l-0.45-2.95l-0.2-3l0.05-3
	l0.35-3l0.6-2.95l0.85-2.9l1.1-2.85l1.4-2.75l1.65-2.65l1.9-2.5l2.2-2.35l2.45-2.15l2.7-1.95l2.95-1.7l3.2-1.45l3.45-1.2l3.7-0.9
	l4-0.6l2.9-0.15l3.05,0.2l3.15,0.45l3.25,0.7l3.35,0.95l3.45,1.15l3.55,1.3l3.6,1.45l3.7,1.6l3.75,1.7l3.8,1.75l3.85,1.8l3.85,1.85
	l3.9,1.85l0.3,0.15c-0.25,2-0.4,3.95-0.45,5.95l-2.25-1.05l-3.9-1.85l-3.85-1.85l-3.8-1.8l-3.75-1.75l-3.65-1.65l-3.6-1.55
	l-3.45-1.4l-3.35-1.25l-3.25-1.05l-3.1-0.85l-2.9-0.65l-2.7-0.4l-2.5-0.15l-2.3,0.1l-3.45,0.55l-3.25,0.8l-3,1.05l-2.75,1.25
	l-2.5,1.45l-2.25,1.65l-2.05,1.8l-1.8,1.95l-1.6,2.05l-1.35,2.2l-1.15,2.3l-0.95,2.35l-0.7,2.45l-0.5,2.5l-0.25,2.5l-0.05,2.5
	l0.15,2.5l0.4,2.5l0.6,2.45l0.8,2.35l1.05,2.3l1.25,2.2l1.45,2.05l1.65,1.95l1.9,1.8l2.1,1.6l2.3,1.45l2.55,1.25l2.75,1.05l3,0.8
	l3.25,0.55l3.5,0.25h1.15l1.15-0.05l1.1-0.1l1.1-0.1l1.05-0.15l0.45-0.1l-0.25-0.25l-1.45-1.35l-1.35-1.4l-1.25-1.45l-1.1-1.5
	l-0.95-1.55l-0.8-1.65l-0.6-1.75l-0.3-1.75l-0.1-0.9l-0.05-0.8v-0.8l0.05-0.8l0.05-0.8l0.1-0.8l0.15-0.75l0.15-0.75l0.2-0.75
	l0.25-0.75l0.3-0.7l0.3-0.7l0.35-0.65l0.4-0.65l0.45-0.6l0.5-0.6l0.5-0.55l0.55-0.55l0.6-0.5l0.6-0.45l0.65-0.45l0.7-0.4l0.7-0.35
	l0.75-0.3l0.75-0.3l0.8-0.25l0.8-0.2l0.85-0.15l0.85-0.1l0.9-0.1l0.9-0.05H160l0.7,0.05l0.7,0.05l0.7,0.1l0.7,0.15l0.7,0.15
	l0.65,0.2l0.65,0.25l0.65,0.25l0.65,0.3l0.6,0.3l0.6,0.35l0.6,0.4l0.55,0.4l0.55,0.45l0.5,0.45l0.5,0.5l0.45,0.5l0.45,0.55l0.4,0.55
	l0.4,0.6l0.35,0.6l0.35,0.65l0.3,0.65l0.25,0.65l0.25,0.7l0.2,0.7l0.15,0.75l0.15,0.75l0.1,0.75l0.05,0.75l0.05,0.8v0.8l-0.05,1.05
	l-0.15,1.05l-0.2,1.05l-0.25,1.05l-0.35,1l-0.4,1l-0.45,0.95l-0.5,0.95l-0.55,0.9l-0.6,0.9l-0.65,0.85l-0.7,0.85l-0.75,0.8
	l-0.8,0.75l-0.85,0.75l-0.9,0.7l-0.95,0.65l-0.95,0.6l0.6,0.45l1.8,1.45l1.8,1.55l1.85,1.6l1.85,1.7l1.85,1.8l1.8,1.9l1.75,2
	l1.7,2.1l1.65,2.25l1.55,2.35l1.45,2.5l1.3,2.65l1.2,2.8l1.05,2.95l0.85,3.15l0.7,3.3l0.5,3.5l0.3,3.65l0.05,3.85l-0.1,1.95
	l-0.15,1.95l-0.25,1.9l-0.35,1.9l-0.4,1.85l-0.5,1.8l-0.55,1.8l-0.65,1.75l-0.7,1.7l-0.8,1.65l-0.85,1.6l-0.95,1.55l-1,1.5
	l-1.05,1.45l-1.15,1.4l-1.2,1.35l-1.25,1.3l-1.3,1.2l-1.35,1.15l-1.4,1.1l-1.45,1l-1.5,0.95l-1.55,0.85l-1.6,0.801l-1.65,0.699
	l-1.7,0.601l-1.7,0.5l-1.75,0.45l-1.8,0.35L157,300l-1.85,0.15l-1.85,0.05l-1.85-0.05L149.6,300l-1.8-0.25l-1.8-0.35l-1.75-0.45
	l-1.75-0.5l-1.7-0.601l-1.65-0.699l-1.6-0.801L136,295.5l-1.5-0.95l-1.45-1l-1.4-1.1l-1.35-1.15l-1.3-1.2l-1.25-1.3l-1.2-1.35
	l-1.15-1.4l-1.05-1.45l-1-1.5l-0.95-1.55l-0.85-1.6l-0.8-1.65l-0.7-1.7l-0.55-2.1l-0.55-1.8l-0.5-1.8l-0.4-1.85l-0.3-1.9l-0.25-1.9
	l-0.15-1.95l-0.05-1.95l0.05-1.5l0.1-1.5l0.2-1.45l0.25-1.45l0.3-1.45l0.35-1.4l0.45-1.35l0.5-1.35l0.55-1.3l0.6-1.25l0.65-1.25
	l0.7-1.2l0.75-1.15l0.8-1.1l0.85-1.05l0.9-1.05l0.95-1l1-0.95l1.05-0.9l1.1-0.85l1.15-0.75l1.15-0.7l1.2-0.65l1.25-0.6l1.25-0.55
	l1.3-0.45l1.35-0.4l1.35-0.35l1.4-0.25l1.4-0.2l1.4-0.1l1.45-0.05l1.45,0.05l1.4,0.1l1.4,0.2l1.4,0.25l1.35,0.35l1.35,0.4l1.3,0.45
	l1.25,0.55l1.25,0.6l1.2,0.65l1.15,0.7l1.15,0.75l1.1,0.85l1.05,0.9l1,0.95l0.95,1l0.9,1.05l0.85,1.05l0.8,1.1l0.75,1.15l0.7,1.2
	l0.65,1.25l0.6,1.25l0.55,1.3l0.5,1.35l0.45,1.35l0.35,1.4l0.3,1.4l0.25,1.45l0.15,1.45l0.1,1.5l0.05,1.5v1.05l-0.05,1.05l-0.1,1
	l-0.15,1l-0.2,1l-0.25,0.95l-0.3,0.95l-0.35,0.95l-0.4,0.9l-0.45,0.9l-0.45,0.85l-0.5,0.85l-0.55,0.8l-0.6,0.8l-0.6,0.75l-0.65,0.7
	l-0.65,0.7l-0.7,0.65l-0.75,0.6l-0.75,0.6l-0.8,0.55l-0.8,0.5l-0.85,0.45l-0.85,0.4l-0.9,0.35l-0.9,0.351l-0.95,0.3l-0.95,0.25
	l-0.95,0.2l-1,0.149l-1,0.101l-1,0.05l-1-0.05l-1-0.101l-1-0.149l-0.95-0.2l-0.95-0.25l-0.95-0.3l-0.9-0.351l-0.9-0.399l-0.85-0.4
	l-0.85-0.45l-0.8-0.5l-0.8-0.55l-0.75-0.6l-0.75-0.6l-0.7-0.65l-0.7-0.7l-0.65-0.7l-0.6-0.75l-0.55-0.8l-0.55-0.8l-0.5-0.85
	L136.2,271l-0.45-0.9l-0.4-0.9l-0.35-0.95l-0.3-0.95l-0.25-0.95l-0.2-1l-0.15-1l-0.1-1l-0.1-1.05c-0.05-1.3-0.05-2.55-0.1-3.85
	C134.15,255,139.55,254.6,139.6,258.5L139.6,258.5z M203.5,171.45l3.2,1.4l3.85,1.65l3.85,1.55l3.8,1.4l3.7,1.25l3.65,1.1l3.55,0.9
	l1.75,0.35l0.55-2.1l1.1-3.7l1.2-3.3l1.25-2.9l1.3-2.5l1.4-1.95l0.5-0.55l0.45-0.45l0.45-0.45l0.45-0.4l0.5-0.4l0.5-0.4l0.5-0.35
	l0.55-0.35l0.55-0.3l0.55-0.3l0.55-0.3l0.6-0.25l0.6-0.25l0.6-0.2l0.6-0.2l0.6-0.15l0.65-0.15l0.65-0.1l0.65-0.1l0.65-0.05
	l0.65-0.05h0.65l0.65,0.05l0.65,0.05l0.65,0.1l0.65,0.15l0.65,0.15l0.65,0.2l0.65,0.25l0.65,0.25l0.65,0.3l0.65,0.35l0.7,0.45
	l0.65,0.45l0.6,0.5l0.6,0.55l0.55,0.55l0.5,0.6l0.45,0.6l0.4,0.6l0.35,0.65l0.35,0.65l0.3,0.65l0.25,0.7l0.2,0.7l0.15,0.7l0.1,0.7
	l0.05,0.7l0.05,0.7v0.7l-0.05,0.7l-0.1,0.7l-0.15,0.7l-0.2,0.7l-0.2,0.7l-0.25,0.7l-0.3,0.65l-0.35,0.65l-0.4,0.65l-0.4,0.6
	l-0.45,0.6l-0.5,0.6l-0.55,0.55l-0.6,0.55l-2.8,2.15l-3.05,1.7l-3.2,1.3l-3.35,0.85l-3.45,0.5l-3.55,0.15l-3.65-0.2l-0.3-0.05
	l-0.3,1.3l-0.9,4.55l-0.85,4.85l-0.75,5.1l-0.65,5.3l-0.55,5.45l-0.45,5.55l-0.35,5.6l-0.2,5.65l-0.1,5.65l0.05,5.6l0.2,5.5
	l0.35,5.35l0.55,5.2l0.7,5l0.9,4.75l1.05,4.45l1.25,4.1l1.45,3.7l1.6,3.25l1.8,2.8l1.95,2.3l2.1,1.8l2.25,1.25l2.45,0.75
	c3.05,0.7,3.4,5.95-1.1,5.45l-3.55-1.149l-3.2-1.801l-2.85-2.399l-2.5-2.9l-2.15-3.35l-1.85-3.75l-1.6-4.1l-1.35-4.45l-1.15-4.75
	l-0.95-5l-0.75-5.2l-0.55-5.4l-0.4-5.55l-0.2-5.65l-0.05-5.75l0.1-5.75l0.2-5.75l0.35-5.75l0.45-5.65l0.6-5.55l0.7-5.4l0.75-5.2
	l0.85-5l0.95-4.7l0.2-0.95l-1.65-0.3l-3.8-0.95l-3.85-1.15l-3.9-1.3l-3.9-1.45l-3.95-1.6l-3.95-1.7l-1.5-0.7
	C203.1,175.25,203.25,173.3,203.5,171.45L203.5,171.45z M236.3,181.8l2.65,0.15l3.05-0.1l2.85-0.4l2.7-0.7l2.55-1l2.4-1.35l2.3-1.75
	l0.3-0.25l0.3-0.3l0.3-0.35l0.25-0.35l0.25-0.35l0.2-0.35l0.2-0.35l0.15-0.4l0.15-0.4l0.1-0.4l0.1-0.4l0.1-0.4l0.05-0.4l0.05-0.4
	v-0.4v-0.4l-0.05-0.4l-0.05-0.4l-0.1-0.4l-0.1-0.35l-0.15-0.35l-0.15-0.35l-0.2-0.35l-0.2-0.35l-0.2-0.35l-0.25-0.35l-0.25-0.3
	l-0.3-0.3l-0.35-0.3l-0.35-0.3l-0.4-0.25l-0.4-0.25l-0.4-0.2L253,165l-0.4-0.15l-0.4-0.15l-0.4-0.1l-0.4-0.1l-0.4-0.05l-0.4-0.05
	l-0.4-0.05h-0.4h-0.4H249l-0.4,0.05l-0.4,0.05l-0.4,0.1l-0.4,0.1l-0.4,0.1l-0.4,0.15l-0.4,0.15l-0.4,0.15l-0.4,0.15l-0.4,0.2
	l-0.35,0.2l-0.35,0.2l-0.35,0.25l-0.35,0.25l-0.35,0.25l-0.3,0.25l-0.3,0.25l-0.3,0.3l-0.3,0.3l-0.2,0.2l-1,1.4l-1.05,1.95
	l-1.05,2.55l-1.05,3.05l-1.05,3.5L236.3,181.8L236.3,181.8z M159.7,210.15l0.1-0.05l0.85-0.45l0.8-0.45l0.75-0.5l0.75-0.5l0.7-0.55
	l0.65-0.55l0.6-0.6l0.55-0.6l0.55-0.6l0.5-0.65l0.45-0.65l0.4-0.65l0.35-0.65l0.3-0.65l0.25-0.7l0.25-0.7l0.2-0.7l0.15-0.7l0.1-0.7
	l0.05-0.75v-0.5v-0.5l-0.05-0.5l-0.05-0.5l-0.1-0.45l-0.1-0.45l-0.15-0.45L168.4,194l-0.15-0.4l-0.2-0.4l-0.2-0.4l-0.2-0.35
	l-0.25-0.35l-0.25-0.35l-0.25-0.3l-0.3-0.3l-0.3-0.3l-0.3-0.3l-0.3-0.25l-0.35-0.25L165,189.8l-0.35-0.2l-0.35-0.2l-0.4-0.15
	l-0.4-0.15l-0.4-0.15l-0.4-0.1l-0.4-0.1l-0.45-0.1l-0.45-0.05l-0.45-0.05h-0.45h-0.7l-0.65,0.05l-0.65,0.05l-0.6,0.1l-0.55,0.1
	L156.8,189l-0.5,0.15l-0.5,0.2l-0.45,0.2l-0.4,0.2l-0.4,0.25l-0.35,0.25l-0.35,0.25l-0.35,0.3l-0.3,0.3l-0.3,0.3l-0.25,0.35
	l-0.25,0.35l-0.25,0.35l-0.2,0.4l-0.2,0.4l-0.15,0.45l-0.15,0.45l-0.15,0.45l-0.1,0.5l-0.1,0.5l-0.05,0.5l-0.05,0.55v0.55v0.55
	l0.05,0.6l0.05,0.55l0.2,1.15l0.35,1.05l0.5,1.05l0.65,1.1l0.85,1.1l1,1.15l1.15,1.2l1.3,1.2l1.4,1.25L159.7,210.15L159.7,210.15z"
	/>
<path fill="#AE4037" d="M360.5,282.65l-0.2,1.899c-0.5,0.15-1,0.3-1.5,0.4c-0.5,0.1-1,0.1-1.45,0.1c-1.2,0-2.2-0.35-2.95-1
	c-0.8-0.649-1.3-1.6-1.6-2.85c-1.6,1.3-3.2,2.3-4.85,2.899c-1.65,0.601-3.4,0.95-5.2,0.95c-2.4,0-4.25-0.7-5.6-2.05s-2-3.25-2-5.65
	c0-3.2,1.45-5.75,4.45-7.6c2.95-1.85,7.2-2.85,12.75-3.05v-1c0-2.55-0.55-4.4-1.6-5.55s-2.8-1.7-5.2-1.7c-1.4,0-2.7,0.15-3.95,0.5
	c-1.2,0.35-2.35,0.85-3.45,1.55l-0.3-3.75c1.2-0.5,2.45-0.85,3.75-1.05c1.3-0.25,2.7-0.35,4.15-0.35c2.15,0,4,0.35,5.55,1
	c1.5,0.7,2.65,1.65,3.35,2.95c0.5,0.9,0.85,1.95,1.05,3.2c0.2,1.25,0.3,3.05,0.3,5.35v3.95v1.2c0.05,4.25,0.35,6.95,0.85,8
	c0.55,1.05,1.5,1.6,2.9,1.6c0.2,0,0.35,0,0.5,0C360.3,282.65,360.4,282.65,360.5,282.65L360.5,282.65z M352.2,269.15
	c-4.35,0.1-7.65,0.85-9.95,2.25s-3.45,3.3-3.45,5.8c0,1.45,0.45,2.6,1.4,3.5c0.95,0.899,2.2,1.35,3.75,1.35
	c1.4,0,2.85-0.25,4.25-0.75c1.4-0.5,2.8-1.25,4.2-2.25c-0.1-0.8-0.15-1.75-0.2-2.85c-0.05-1.1-0.05-2.45-0.05-4.1v-2.95H352.2z
	 M363.7,255.85h20.75l0.6,3.45c-0.75-0.1-1.7-0.2-2.85-0.25c-1.2-0.05-3.15-0.1-5.9-0.15c0,0.2-0.05,0.55-0.05,1
	c-0.1,4.15-0.1,7.1-0.1,8.9c0,3.25,0.05,6.15,0.15,8.7c0.1,2.55,0.2,4.9,0.4,7.1h-5.2c0.15-2.149,0.3-4.55,0.4-7.1
	s0.15-5.45,0.15-8.7c0-1.65-0.05-4.4-0.1-8.35c0-0.7-0.05-1.2-0.05-1.55c-2.75,0.05-4.7,0.1-5.9,0.15c-1.2,0.05-2.15,0.15-2.9,0.25
	L363.7,255.85L363.7,255.85z M411.95,270.35h-19.4c0.05,3.95,0.9,6.9,2.5,8.85c1.6,1.899,4.05,2.899,7.3,2.899
	c1.25,0,2.55-0.149,3.9-0.449c1.3-0.301,2.6-0.7,3.85-1.3l-0.2,3.25c-1.45,0.551-2.8,1-4.1,1.25c-1.3,0.301-2.6,0.4-3.9,0.4
	c-4.4,0-7.75-1.3-10.05-3.85c-2.3-2.601-3.45-6.351-3.45-11.3c0-4.65,1.1-8.3,3.3-11.05c2.2-2.7,5.15-4.1,8.85-4.1
	c3.55,0,6.35,1.3,8.4,3.85c2.05,2.55,3.05,6.15,3.05,10.65v0.9H411.95z M407.9,267.4c-0.05-3.1-0.7-5.45-1.95-7
	c-1.25-1.55-3.1-2.35-5.55-2.35c-2.25,0-4.05,0.8-5.4,2.4c-1.35,1.6-2.1,3.9-2.3,6.9h15.2V267.4z M423.15,255.85H440.1
	c-0.149,2.3-0.3,4.65-0.399,7.05c-0.101,2.4-0.101,4.85-0.101,7.35c0,2.55,0.051,5,0.101,7.35c0.1,2.4,0.2,4.7,0.399,7H435.2
	c0.2-2.3,0.35-4.75,0.399-7.35c0.101-2.65,0.101-5.95,0.101-10c0-1.15,0-2.4-0.05-3.8c-0.051-1.4-0.101-2.9-0.15-4.55h-8.8
	c-1.25,12-2.4,19.45-3.55,22.35c-1.15,2.9-2.851,4.35-5.15,4.35c-0.45,0-0.9-0.05-1.4-0.199c-0.5-0.101-1-0.301-1.5-0.551
	l-0.05-2.899c0.4,0.149,0.8,0.25,1.1,0.3c0.3,0.05,0.6,0.1,0.85,0.1c1.6,0,2.85-2,3.8-5.95
	C421.75,272.4,422.55,265.55,423.15,255.85L423.15,255.85z M453.35,281.4c0.801,0.05,1.5,0.1,2.2,0.149s1.351,0.05,2,0.05
	c3.3,0,5.65-0.399,7.101-1.25c1.399-0.85,2.1-2.25,2.1-4.2c0-2-0.75-3.4-2.25-4.2c-1.5-0.85-4.1-1.25-7.8-1.25c-0.9,0-1.55,0-2.05,0
	s-0.95,0.05-1.4,0.1c0,3.4,0,5.8,0,7.15C453.35,279.3,453.35,280.45,453.35,281.4L453.35,281.4z M449,255.85h4.8
	c-0.149,2.2-0.3,4.3-0.35,6.2c-0.101,1.95-0.101,3.8-0.101,5.55h3.551c4.85,0,8.3,0.65,10.449,2c2.15,1.35,3.25,3.5,3.25,6.45
	c0,2.75-1,4.851-3,6.3c-2,1.45-4.899,2.2-8.649,2.2H449c0.15-2.3,0.3-4.6,0.4-7c0.1-2.4,0.1-4.85,0.1-7.4c0-2.65-0.05-5.15-0.1-7.5
	C449.3,260.4,449.2,258.1,449,255.85L449,255.85z M498.7,270.35h-19.4c0.05,3.95,0.9,6.9,2.5,8.85c1.601,1.899,4.05,2.899,7.3,2.899
	c1.25,0,2.551-0.149,3.9-0.449c1.3-0.301,2.6-0.7,3.85-1.3l-0.199,3.25c-1.45,0.551-2.801,1-4.101,1.25
	c-1.3,0.301-2.6,0.4-3.899,0.4c-4.4,0-7.75-1.3-10.051-3.85c-2.3-2.601-3.449-6.351-3.449-11.3c0-4.65,1.1-8.3,3.3-11.05
	c2.2-2.7,5.149-4.1,8.85-4.1c3.55,0,6.351,1.3,8.4,3.85c2.05,2.55,3.05,6.15,3.05,10.65v0.9H498.7z M494.65,267.4
	c-0.051-3.1-0.7-5.45-1.95-7c-1.25-1.55-3.101-2.35-5.55-2.35c-2.25,0-4.051,0.8-5.4,2.4c-1.35,1.6-2.1,3.9-2.3,6.9h15.2V267.4z"/>
</svg>
