<?xml version="1.0" encoding="utf-8"?>
<!-- Generator: Adobe Illustrator 17.1.0, SVG Export Plug-In . SVG Version: 6.00 Build 0)  -->
<!DOCTYPE svg PUBLIC "-//W3C//DTD SVG 1.1//EN" "http://www.w3.org/Graphics/SVG/1.1/DTD/svg11.dtd">
<svg version="1.1" id="Layer_1" xmlns="http://www.w3.org/2000/svg" xmlns:xlink="http://www.w3.org/1999/xlink" x="0px" y="0px"
	 viewBox="0 0 67.4580078 55.3439636" enable-background="new 0 0 67.4580078 55.3439636" xml:space="preserve">
<g>
	<polygon fill="#FFFFFF" points="42.4552612,55.3439598 42.4552612,43.4791451 44.5694656,43.4791451 43.8099594,40.312439 
		33.7295799,48.9278145 23.6491966,40.312439 22.8896923,43.4791451 25.0027466,43.4791451 25.0027466,55.3439598 0,55.3439598 
		0,43.4791451 3.3654892,43.4791451 19.5425873,0.0230864 33.7295799,24.6455059 47.9154205,0.0219374 64.0925217,43.4791451 
		67.4580078,43.4791451 67.4580078,55.3439598 	"/>
	<polygon fill="#E5885C" points="62.4577446,45.8327332 47.4560966,5.5341883 33.7291489,29.3603344 20.0021973,5.5341883 
		5.0005493,45.8327332 2.3531997,45.8327332 2.3531997,52.9904289 22.6495476,52.9904289 22.6495476,45.8327332 
		19.9040985,45.8327332 22.2572994,36.0276871 33.7291489,45.8327332 45.2009964,36.0276871 47.5541954,45.8327332 
		44.8087463,45.8327332 44.8087463,52.9904289 65.1050949,52.9904289 65.1050949,45.8327332 	"/>
</g>
</svg>
