<?xml version="1.0" encoding="utf-8"?>
<!-- Generator: Adobe Illustrator 17.1.0, SVG Export Plug-In . SVG Version: 6.00 Build 0)  -->
<!DOCTYPE svg PUBLIC "-//W3C//DTD SVG 1.1//EN" "http://www.w3.org/Graphics/SVG/1.1/DTD/svg11.dtd">
<svg version="1.1" id="Layer_1" xmlns="http://www.w3.org/2000/svg" xmlns:xlink="http://www.w3.org/1999/xlink" x="0px" y="0px"
	 viewBox="0 0 67.4580078 55.3439636" enable-background="new 0 0 67.4580078 55.3439636" xml:space="preserve">
<g>
	<polygon fill="#FFFFFF" points="42.4552612,55.3439636 42.4552612,43.4791489 44.5694656,43.4791489 43.8099594,40.3124428 
		33.7295799,48.9278183 23.6491966,40.3124428 22.8896923,43.4791489 25.0027466,43.4791489 25.0027466,55.3439636 0,55.3439636 
		0,43.4791489 3.3654892,43.4791489 19.5425873,0.0230894 33.7295799,24.6455097 47.9154205,0.0219404 64.0925217,43.4791489 
		67.4580078,43.4791489 67.4580078,55.3439636 	"/>
	<polygon fill="#E6F052" points="62.4577446,45.832737 47.4560966,5.5341911 33.7291489,29.3603382 20.0021973,5.5341911 
		5.0005493,45.832737 2.3531997,45.832737 2.3531997,52.9904327 22.6495476,52.9904327 22.6495476,45.832737 19.9040985,45.832737 
		22.2572994,36.0276909 33.7291489,45.832737 45.2009964,36.0276909 47.5541954,45.832737 44.8087463,45.832737 
		44.8087463,52.9904327 65.1050949,52.9904327 65.1050949,45.832737 	"/>
</g>
</svg>
