<?xml version="1.0" encoding="utf-8"?>
<!-- Generator: Adobe Illustrator 17.1.0, SVG Export Plug-In . SVG Version: 6.00 Build 0)  -->
<!DOCTYPE svg PUBLIC "-//W3C//DTD SVG 1.1//EN" "http://www.w3.org/Graphics/SVG/1.1/DTD/svg11.dtd">
<svg version="1.1" id="Layer_1" xmlns="http://www.w3.org/2000/svg" xmlns:xlink="http://www.w3.org/1999/xlink" x="0px" y="0px"
	 width="68px" height="55.6px" viewBox="0 0 68 55.6" style="enable-background:new 0 0 68 55.6;" xml:space="preserve">
<style type="text/css">
	.st0{fill:#86B677;}
</style>
<g>
	<polygon points="42.7,55.5 42.7,43.6 44.9,43.6 44.1,40.5 34,49.1 23.9,40.5 23.1,43.6 25.3,43.6 25.3,55.5 0.2,55.5 0.2,43.6 
		3.6,43.6 19.8,0.1 34,24.8 48.2,0.1 64.4,43.6 67.8,43.6 67.8,55.5 	"/>
	<polygon class="st0" points="62.8,46 47.8,5.6 34,29.5 20.2,5.6 5.2,46 2.6,46 2.6,53.2 22.9,53.2 22.9,46 20.2,46 22.5,36.2 
		34,46 45.5,36.2 47.8,46 45.1,46 45.1,53.2 65.4,53.2 65.4,46 	"/>
</g>
</svg>
