<?xml version="1.0" encoding="utf-8"?>
<!-- Generator: Adobe Illustrator 22.0.1, SVG Export Plug-In . SVG Version: 6.00 Build 0)  -->
<svg version="1.1" id="Слой_1" xmlns="http://www.w3.org/2000/svg" xmlns:xlink="http://www.w3.org/1999/xlink" x="0px" y="0px"
	 viewBox="0 0 90 90" style="enable-background:new 0 0 90 90;" xml:space="preserve">
<style type="text/css">
	.st0{fill:#9DEDA8;}
	.st1{fill:#70C178;}
	.st2{fill:#FFFFFF;stroke:#231F20;stroke-width:1.2676;stroke-miterlimit:10;}
	.st3{fill:#231F20;}
	.st4{fill:#FF6D50;stroke:#231F20;stroke-width:1.2676;stroke-miterlimit:10;}
	.st5{fill:#D85041;}
	.st6{fill:none;stroke:#231F20;stroke-width:1.2676;stroke-miterlimit:10;}
	.st7{fill:#D8D8D8;}
</style>
<g>
	<polyline class="st0" points="55.5,48.2 74.4,48.2 83.7,63.9 86.8,61 89.3,72.5 66.9,80.7 47.4,80.7 1.2,80.7 20.5,48.2 39.4,48.2 
			"/>
	<ellipse class="st1" cx="47.4" cy="61" rx="13.8" ry="5.8"/>
	<ellipse class="st2" cx="47.4" cy="61" rx="2.7" ry="1.1"/>
	<ellipse class="st3" cx="18.9" cy="73.8" rx="2" ry="0.9"/>
	<ellipse class="st3" cx="67.6" cy="55.7" rx="2" ry="0.8"/>
	<path class="st4" d="M65.5,27.4C65.5,39.8,47.4,61,47.4,61S29.4,39.4,29.4,27.4c0-10,8.1-18.1,18.1-18.1S65.5,17.4,65.5,27.4z"/>
	<path class="st5" d="M63.8,19.8c4.7,11.5-10.2,26.5-16.4,33.3c-6.1-6.8-21-21.8-16.4-33.3c-2.1,3.9-1.4,10.5-1.4,10.5
		S35.9,50.5,47.4,61c11.5-10.5,17.8-30.7,17.8-30.7S65.9,23.7,63.8,19.8z"/>
	<path class="st6" d="M65.5,27.4C65.5,39.8,47.4,61,47.4,61S29.4,39.4,29.4,27.4c0-10,8.1-18.1,18.1-18.1S65.5,17.4,65.5,27.4z"/>
	<polygon class="st1" points="87.1,60.6 89,72 67.6,80.3 	"/>
	<circle class="st7" cx="47.4" cy="27.4" r="8.6"/>
	<circle class="st6" cx="47.4" cy="27.4" r="8.6"/>
	<path class="st6" d="M88.9,72.6l0.1,0.2c0,0,0.1,0,0.1,0l-2-12.1l-20.5,20H47.4H1.2l19.3-32.5h17.6"/>
	<polyline class="st6" points="56.9,48.2 74.4,48.2 83.7,63.9 	"/>
	<polyline class="st6" points="18.9,73.8 28.3,63.9 47.4,61 66.6,64.5 67.6,55.7 	"/>
	<line class="st6" x1="66.6" y1="80.7" x2="89.1" y2="72.8"/>
</g>
</svg>
