<?xml version="1.0" encoding="UTF-8"?>
<svg width="90px" height="90px" viewBox="0 0 90 90" version="1.1" xmlns="http://www.w3.org/2000/svg" xmlns:xlink="http://www.w3.org/1999/xlink">
    <!-- Generator: Sketch 51.2 (57519) - http://www.bohemiancoding.com/sketch -->
    <title>Slice 1</title>
    <desc>Created with Sketch.</desc>
    <defs></defs>
    <g id="Page-1" stroke="none" stroke-width="1" fill="none" fill-rule="evenodd">
        <g id="Ремонт_Нижнее-белье" transform="translate(0.000000, 3.000000)" fill-rule="nonzero">
            <path d="M13.2289157,58.6566553 L11.9277108,57.8969283 C13.4728916,54.9296928 15.4518072,52.5501706 17.6611446,51.0020478 C22.4457831,47.6477816 28.9653614,45.1822526 35.5527108,44.2505119 C40.8388554,43.5051195 48.6189759,43.3904437 55.7620482,47.0744027 C61.2650602,49.912628 66.253012,50.2853242 69.8042169,48.1208191 C72.3930723,46.5440273 74.0195783,43.7488055 74.25,40.4662116 C74.4668675,37.312628 72.5421687,33.7720137 70.4954819,30.0163823 C68.1370482,25.6730375 65.6972892,21.2006826 66.5783133,16.9433447 C67.4864458,12.5856655 70.7665663,8.98771331 74.5753012,8.18498294 C77.7876506,7.5112628 80.810241,8.93037543 82.8840361,12.0696246 L81.6641566,12.9726962 C79.9156627,10.3208191 77.503012,9.17406143 74.8599398,9.7331058 C71.6204819,10.4211604 68.814759,13.5174061 68.0286145,17.287372 C67.2695783,20.9426621 69.560241,25.1569966 71.7831325,29.2279863 C73.8433735,33.0266212 75.9849398,36.9399317 75.7274096,40.5808874 C75.4698795,44.3365188 73.5316265,47.662116 70.5496988,49.4825939 C66.5512048,51.9194539 61.0753012,51.5610922 55.1114458,48.4935154 C43.8478916,42.6880546 27.6506024,45.8846416 18.4743976,52.3208191 C16.4683735,53.7112628 14.6521084,55.9044369 13.2289157,58.6566553 Z" id="Shape" fill="#CD2027"></path>
            <path d="M21.6054217,81.9358362 C20.9277108,81.9358362 20.2364458,81.8928328 19.5045181,81.8211604 L19.6536145,80.2587031 C26.4578313,80.9897611 30.4834337,77.8075085 32.6656627,75.0122867 C36.4743976,70.1242321 37.2198795,63.2006826 35.9864458,58.8716724 C33.3433735,49.668942 19.1114458,47.4040956 14.814759,46.931058 C9.65060241,46.3576792 6.23493976,43.6484642 5.65210843,39.6778157 C5.01506024,35.2341297 8.06475904,30.5467577 13.0798193,28.2819113 C15.4246988,27.2211604 17.2138554,24.8989761 18,21.9174061 C18.7319277,19.1221843 18.4201807,16.2696246 17.186747,14.4634812 C16.0346386,12.7720137 13.4864458,10.7078498 10.1521084,10.4784983 C6.98042169,10.2634812 3.87650602,11.7686007 1.16566265,14.821843 L0.0813253012,13.7467577 C3.90361446,9.43208191 7.72590361,8.72969283 10.2605422,8.90170648 C14.1099398,9.15972696 16.996988,11.4675768 18.4066265,13.5460751 C19.8975904,15.7392491 20.2906627,19.1078498 19.4503012,22.3474403 C18.5557229,25.7877133 16.4548193,28.4825939 13.689759,29.7296928 C9.29819277,31.7221843 6.61445783,35.7215017 7.15662651,39.4484642 C7.6310241,42.7167235 10.4774096,44.8668942 14.9909639,45.3686007 C17.7018072,45.6696246 22.9608434,46.4866894 27.7725904,48.665529 C33.0045181,51.0307167 36.2575301,54.3133106 37.4231928,58.4129693 C39.0225904,64.003413 37.5451807,71.2423208 33.8313253,76.0013652 C31.6355422,78.796587 27.813253,81.9358362 21.6054217,81.9358362 Z" id="Shape" fill="#CD2027"></path>
            <g id="Group" transform="translate(18.840361, 0.000000)">
                <g id="Shape">
                    <path d="M39.5512048,2.33651877 L39.1310241,0.817064846 C33.2349398,-1.16109215 30.9036145,14.4204778 33.3704819,23.0641638 L35.4713855,21.5447099 C33.2078313,12.356314 36.7319277,3.46894198 39.6054217,2.55153584" fill="#C66D6D"></path>
                    <path d="M33.0858434,23.9242321 L32.8825301,23.2361775 C30.9849398,16.5849829 31.7981928,5.20341297 35.4442771,1.39044369 C36.5557229,0.229351536 37.8840361,-0.14334471 39.2665663,0.329692833 L39.5240964,0.415699659 L40.0256024,2.19317406 L39.5376506,2.35085324 L39.7409639,3.08191126 C38.6837349,3.4116041 37.0843373,5.44709898 36.0813253,9.11672355 C35.4578313,11.3959044 34.6039157,16.0116041 35.9457831,21.4300341 L36.0406627,21.7883959 L33.0858434,23.9242321 Z M38.1144578,1.17542662 C37.4096386,1.17542662 36.7725904,1.49078498 36.1490964,2.13583618 C33.1536145,5.26075085 31.9472892,15.337884 33.6551205,22.2327645 L34.8885542,21.3296928 C32.8960843,12.7003413 35.8644578,3.95631399 38.9954819,2.26484642 L38.7108434,1.26143345 C38.5210843,1.20409556 38.3177711,1.17542662 38.1144578,1.17542662 Z" fill="#560000"></path>
                    <path d="M10.5045181,2.33651877 L10.9246988,0.817064846 C16.8207831,-1.16109215 19.1521084,14.4204778 16.685241,23.0641638 L14.5843373,21.5447099 C16.8478916,12.356314 13.3237952,3.46894198 10.4503012,2.55153584" fill="#C66D6D"></path>
                    <path d="M16.9563253,23.9242321 L14.0150602,21.7883959 L14.1099398,21.4300341 C15.4518072,16.0116041 14.5978916,11.38157 13.9743976,9.11672355 C12.9713855,5.44709898 11.371988,3.4116041 10.314759,3.08191126 L10.5180723,2.35085324 L10.0301205,2.19317406 L10.5316265,0.415699659 L10.7891566,0.329692833 C12.1716867,-0.129010239 13.5,0.229351536 14.6114458,1.39044369 C18.2710843,5.20341297 19.0843373,16.5849829 17.1731928,23.2361775 L16.9563253,23.9242321 Z M15.1536145,21.3296928 L16.3870482,22.2327645 C18.0813253,15.3522184 16.875,5.26075085 13.8930723,2.13583618 C13.1069277,1.31877133 12.2665663,1.01774744 11.3177711,1.24709898 L11.0331325,2.25051195 C14.1777108,3.95631399 17.1325301,12.7003413 15.1536145,21.3296928 Z" fill="#560000"></path>
                    <path d="M45.9623494,39.5774744 C45.9081325,40.752901 45.7590361,43.0750853 45.7590361,44.7235495 C44.4578313,45.1822526 41.4759036,45.8273038 37.8298193,45.7699659 C34.1972892,45.7269625 28.8975904,44.8812287 25.3463855,44.8812287 C21.6460843,44.8812287 16.2108434,45.7269625 12.564759,45.7699659 C8.93222892,45.8129693 5.93674699,45.1679181 4.63554217,44.7235495 C4.63554217,43.0750853 4.48644578,40.752901 4.43222892,39.5774744 L25.2108434,36.309215 L45.9623494,39.5774744 Z" fill="#C66D6D"></path>
                    <path d="M41.0557229,17.1010239 C41.0421687,10.0054608 40.0798193,3.72696246 39.1174699,0.831399317 L43.2108434,1.61979522 C43.2108434,1.61979522 44.5256024,9.54675768 43.2108434,16.8860068 L41.0557229,17.1010239 Z" fill="#E88787"></path>
                    <path d="M8.9186747,17.1010239 C8.93222892,10.0054608 9.89457831,3.72696246 10.8569277,0.831399317 L6.76355422,1.61979522 C6.76355422,1.61979522 5.44879518,9.54675768 6.76355422,16.8860068 L8.9186747,17.1010239 Z" fill="#E88787"></path>
                    <path d="M22.9879518,31.0627986 C23.1370482,32.9836177 22.2018072,36.58157 21.5918675,37.1979522 C20.9819277,37.8143345 22.310241,39.3911263 17.0105422,41.1255973 C11.7108434,42.8600683 5.55722892,42.4587031 2.01957831,36.0225256 C-1.51807229,29.5863481 1.11144578,26.4901024 1.84337349,25.0136519 C2.5753012,23.5372014 6.01807229,17.2300341 6.9939759,16.6996587 C9.75903614,16.5133106 12.1581325,17.8894198 12.3885542,18.9645051 C12.6189759,20.025256 13.0662651,21.6737201 14.4894578,21.5590444 C15.9126506,21.4300341 17.9593373,23.5945392 18.189759,24.6409556 C18.4201807,25.7017065 18.0948795,27.6081911 19.9789157,27.7085324 C21.8900602,27.8088737 22.811747,29.9733788 22.9879518,31.0627986 Z" fill="#E88787"></path>
                    <path d="M21.6596386,32.9692833 C21.253012,33.5283276 22.1475904,38.4163823 20.3448795,37.0832765 C18.5421687,35.7501706 11.2093373,27.1638225 2.1686747,24.6266212 C3.52409639,21.3296928 6.32981928,17.2730375 7.19728916,17.3017065 C12.7816265,21.4156997 20.6430723,28.8696246 21.375,31.3494881 C21.9442771,32.2668942 21.7409639,32.625256 21.6596386,32.9692833 Z" fill="#FFB6B6"></path>
                    <path d="M21.9713855,32.4245734 C21.253012,30.3604096 15.560241,24.0819113 14.2183735,22.7918089 C12.876506,21.5017065 8.09186747,18.2047782 7.35993976,17.4880546 C8.01054217,16.4416382 8.81024096,16.6423208 9.47439759,16.7139932 C10.1385542,16.7856655 12.564759,19.4088737 12.998494,20.0109215 C13.4322289,20.6129693 15.126506,21.9030717 15.8448795,22.1754266 C16.563253,22.4477816 17.2274096,23.5228669 17.7018072,24.1822526 C18.1762048,24.8273038 19.9789157,27.5651877 20.6430723,28.0238908 C21.3072289,28.4825939 23.6114458,31.1774744 23.4216867,32.4389078 C22.7575301,32.9262799 22.3509036,33.2273038 21.9713855,32.4245734 Z" fill="#FFD2D2"></path>
                    <path d="M11.371988,42.5447099 C9.13554217,42.5447099 6.07228916,42.0860068 4.09337349,39.9358362 C0.379518072,35.8791809 -0.813253012,30.6901024 0.894578313,26.0313993 C1.99246988,23.0641638 4.12048193,19.9679181 5.84186747,17.4880546 C6.00451807,17.2443686 6.16716867,17.0150171 6.32981928,16.7856655 L6.54668675,16.4703072 L6.89909639,16.5993174 C10.5045181,17.8750853 15.8584337,23.6088737 17.9864458,26.0170648 C20.4533133,28.7979522 22.3644578,31.7221843 22.9066265,32.7112628 C24.3975904,35.4348123 23.5843373,37.9003413 20.4668675,40.0791809 C18.3659639,41.5269625 14.625,42.5447099 11.371988,42.5447099 Z M6.9126506,17.7317406 C6.8313253,17.8607509 6.73644578,17.9897611 6.65512048,18.1187713 C4.97439759,20.5556314 2.88704819,23.5802048 1.82981928,26.4327645 C0.25753012,30.6901024 1.3689759,35.4634812 4.81174699,39.2191126 C6.54668675,41.1112628 9.33885542,41.4982935 11.371988,41.4982935 C14.4623494,41.4982935 17.9728916,40.5522184 19.9111446,39.2047782 C23.3674699,36.796587 22.8659639,34.7610922 22.0391566,33.2559727 C21.5240964,32.3098976 19.6671687,29.4716724 17.2545181,26.7624573 C15.6822289,24.9706485 10.4096386,19.2081911 6.9126506,17.7317406 Z" fill="#560000"></path>
                    <path d="M20.7921687,38.7460751 C19.9518072,36.7822526 15.3569277,32.2095563 12.0361446,30.0020478 C9.8810241,28.5686007 5.23192771,26.5761092 1.84337349,25.1283276 L2.22289157,24.1535836 C5.65210843,25.6156997 10.3283133,27.6225256 12.564759,29.1133106 C16.1566265,31.4928328 20.7650602,36.1372014 21.7003012,38.316041 L20.7921687,38.7460751 Z" fill="#560000"></path>
                    <path d="M27.5286145,31.0627986 C27.3795181,32.9836177 28.314759,36.58157 28.9246988,37.1979522 C29.5346386,37.8143345 28.2063253,39.3911263 33.5060241,41.1255973 C38.8057229,42.8457338 44.9593373,42.4587031 48.496988,36.0225256 C52.0346386,29.6006826 49.4051205,26.4901024 48.6731928,25.0136519 C47.9412651,23.5372014 44.498494,17.2300341 43.5225904,16.6996587 C40.7575301,16.5133106 38.3584337,17.8894198 38.128012,18.9645051 C37.8975904,20.025256 37.5587349,21.7740614 36.1355422,21.6450512 C34.7123494,21.516041 32.5572289,23.5802048 32.313253,24.6409556 C32.0828313,25.7017065 32.4081325,27.6081911 30.5240964,27.7085324 C28.6400602,27.8088737 27.7048193,29.9733788 27.5286145,31.0627986 Z" fill="#E88787"></path>
                    <path d="M28.8433735,32.9692833 C29.25,33.5283276 28.3554217,38.4163823 30.1581325,37.0832765 C31.9608434,35.7501706 39.2936747,27.1638225 48.3343373,24.6266212 C46.9789157,21.3296928 44.1731928,17.2730375 43.3057229,17.3017065 C37.7213855,21.4156997 29.8599398,28.8696246 29.128012,31.3494881 C28.5587349,32.2668942 28.748494,32.625256 28.8433735,32.9692833 Z" fill="#FFB6B6"></path>
                    <path d="M29.7243976,38.7460751 L28.8162651,38.316041 C29.751506,36.1372014 34.373494,31.4928328 37.9518072,29.1133106 C40.188253,27.6368601 44.878012,25.6300341 48.2936747,24.1535836 L48.6731928,25.1283276 C45.2846386,26.5761092 40.6490964,28.5686007 38.4804217,30.0020478 C35.1596386,32.2095563 30.564759,36.796587 29.7243976,38.7460751 Z" fill="#560000"></path>
                    <path d="M28.3554217,32.4245734 C29.0737952,30.3604096 34.7665663,24.0819113 36.1084337,22.7918089 C37.4503012,21.5017065 42.2349398,18.2047782 42.9668675,17.4880546 C42.3162651,16.4416382 41.5165663,16.6423208 40.8524096,16.7139932 C40.188253,16.7856655 37.7620482,19.4088737 37.3283133,20.0109215 C36.8945783,20.6129693 35.2003012,21.9030717 34.4819277,22.1754266 C33.7635542,22.4477816 33.0993976,23.5228669 32.625,24.1822526 C32.1506024,24.8273038 30.3478916,27.5651877 29.6837349,28.0238908 C29.0195783,28.4825939 26.7153614,31.1774744 26.9051205,32.4389078 C27.5828313,32.9262799 27.9894578,33.2273038 28.3554217,32.4245734 Z" fill="#FFD2D2"></path>
                    <path d="M39.0361446,42.5447099 C39.0361446,42.5447099 39.0361446,42.5447099 39.0361446,42.5447099 C35.7695783,42.5447099 32.0421687,41.5269625 29.9548193,40.0791809 C26.8373494,37.9146758 26.0240964,35.4348123 27.5150602,32.7112628 C28.0572289,31.7365188 29.9683735,28.8122867 32.435241,26.0170648 C34.563253,23.6088737 39.9171687,17.8607509 43.5225904,16.5993174 L43.875,16.4703072 L44.0918675,16.7856655 C44.2545181,17.0150171 44.4036145,17.2443686 44.5798193,17.4880546 C46.3012048,19.9679181 48.4292169,23.0641638 49.5271084,26.0313993 C51.248494,30.6757679 50.0421687,35.8791809 46.3283133,39.9358362 C44.3493976,42.0860068 41.2725904,42.5447099 39.0361446,42.5447099 Z M43.4954819,17.7317406 C39.998494,19.2081911 34.7259036,24.9706485 33.1536145,26.7481229 C30.7409639,29.4716724 28.8840361,32.2955631 28.3689759,33.2416382 C27.5421687,34.7467577 27.0271084,36.7822526 30.496988,39.1904437 C32.435241,40.537884 35.9457831,41.483959 39.0361446,41.483959 C39.0361446,41.483959 39.0361446,41.483959 39.0361446,41.483959 C41.0692771,41.483959 43.8614458,41.0825939 45.5963855,39.2047782 C49.0391566,35.4491468 50.1506024,30.6757679 48.5783133,26.41843 C47.5346386,23.5802048 45.4337349,20.5412969 43.753012,18.1044369 C43.6716867,17.9897611 43.5903614,17.8607509 43.4954819,17.7317406 Z" fill="#560000"></path>
                    <path d="M27.0406627,34.1590444 C26.0512048,31.2491468 27.6506024,28.5399317 29.6566265,27.4791809 C30.6189759,26.9774744 31.2966867,26.1604096 31.5677711,25.2 C32.0963855,23.3651877 33.4518072,21.9174061 35.2003012,21.3153584 C36.0406627,21.0286689 36.7725904,20.3979522 37.2605422,19.5235495 C38.439759,17.4163823 41.1912651,15.7535836 43.7259036,16.6279863 L43.4141566,17.6313993 C41.3403614,16.9290102 39.0903614,18.3194539 38.1144578,20.0682594 C37.5045181,21.1576792 36.5692771,21.9604096 35.498494,22.3187713 C34.061747,22.8061433 32.9503012,23.9959044 32.5165663,25.5010239 C32.1641566,26.7481229 31.2966867,27.7802048 30.0903614,28.425256 C28.4638554,29.2853242 27.1626506,31.4641638 27.9623494,33.8006826 L27.0406627,34.1590444 Z" fill="#560000"></path>
                    <path d="M38.2093373,46.3003413 C38.0873494,46.3003413 37.9653614,46.3003413 37.8298193,46.3003413 C36.0406627,46.2716724 33.8448795,46.0709898 31.7033133,45.8559727 C29.4668675,45.6409556 27.1490964,45.4116041 25.3463855,45.4116041 C23.4487952,45.4116041 21.0361446,45.6409556 18.7048193,45.8559727 C16.563253,46.0566553 14.3403614,46.2716724 12.564759,46.2860068 C8.72891566,46.3290102 5.67921687,45.6266212 4.47289157,45.2109215 L4.13403614,45.0962457 L4.13403614,44.7235495 C4.13403614,43.4047782 4.03915663,41.6703072 3.97138554,40.3945392 C3.95783133,40.0935154 3.94427711,39.8354949 3.93072289,39.6061433 L4.92018072,39.5488055 C4.93373494,39.778157 4.94728916,40.0361775 4.96084337,40.3372014 C5.02861446,41.4982935 5.10993976,43.0464164 5.12349398,44.3365188 C6.43825301,44.737884 9.17620482,45.2969283 12.5512048,45.2539249 C14.2725904,45.225256 16.4819277,45.0245734 18.6099398,44.8238908 C20.9548193,44.5945392 23.3945783,44.3651877 25.3328313,44.3651877 C27.1762048,44.3651877 29.5210843,44.5945392 31.7846386,44.8095563 C33.8990964,45.0102389 36.0813253,45.225256 37.8298193,45.2539249 C41.2048193,45.2969283 43.9292169,44.737884 45.2575301,44.3365188 C45.2710843,43.0464164 45.3524096,41.4982935 45.4201807,40.3372014 C45.4337349,40.0505119 45.4472892,39.778157 45.4608434,39.5488055 L46.4503012,39.6061433 C46.436747,39.8354949 46.4231928,40.0935154 46.4096386,40.3945392 C46.3418675,41.6703072 46.246988,43.4047782 46.246988,44.7235495 L46.246988,45.0962457 L45.9081325,45.2109215 C44.7560241,45.6266212 41.8554217,46.3003413 38.2093373,46.3003413 Z" fill="#560000"></path>
                    <path d="M40.5542169,17.1010239 C40.5406627,9.99112628 39.5512048,3.76996587 38.6430723,1.00341297 L38.3584337,0.14334471 L43.6445783,1.16109215 L43.6987952,1.51945392 C43.753012,1.84914676 45.0135542,9.61843003 43.6987952,16.9720137 L42.7228916,16.7713311 C43.8478916,10.4784983 43.0075301,3.66962457 42.7771084,2.04982935 L39.8358434,1.47645051 C40.689759,4.63003413 41.5301205,10.4928328 41.5436747,17.0723549 L40.5542169,17.1010239 Z" fill="#560000"></path>
                    <path d="M9.42018072,17.1010239 L8.41716867,17.1010239 C8.43072289,10.5071672 9.27108434,4.6443686 10.125,1.50511945 L7.18373494,2.07849829 C6.95331325,3.69829352 6.11295181,10.5071672 7.23795181,16.8 L6.26204819,17.0006826 C4.94728916,9.64709898 6.20783133,1.86348123 6.26204819,1.54812287 L6.31626506,1.18976109 L11.6024096,0.172013652 L11.3177711,1.03208191 C10.4096386,3.76996587 9.43373494,9.99112628 9.42018072,17.1010239 Z" fill="#560000"></path>
                    <path d="M23.0286145,35.1767918 L20.2771084,30.5610922 L14.9774096,24.2825939 L9.90813253,19.6238908 L6.54668675,17.6027304 C6.37048193,17.5023891 6.26204819,17.3017065 6.27560241,17.0866894 C6.28915663,16.8716724 6.39759036,16.6853242 6.5873494,16.5993174 C7.14307229,16.3269625 7.73945783,16.1979522 8.37650602,16.1979522 C10.3283133,16.1979522 12.3207831,17.5167235 13.2424699,19.4088737 C13.7033133,20.3549488 14.4487952,21.0573379 15.3433735,21.4013652 C17.0512048,22.0320819 18.3253012,23.4225256 18.8403614,25.2286689 C19.1114458,26.1890785 19.8027108,27.0061433 20.751506,27.5078498 C22.7575301,28.5686007 24.3704819,31.2778157 23.3674699,34.1877133 L23.0286145,35.1767918 Z M7.99698795,17.2587031 L10.5045181,18.7638225 L15.7093373,23.5658703 L21.0903614,29.9303754 L22.689759,32.6109215 C22.7846386,30.7474403 21.6731928,29.1419795 20.3313253,28.425256 C19.125,27.7802048 18.2575301,26.7481229 17.9051205,25.5010239 C17.4849398,24.0245734 16.4412651,22.8778157 15.0316265,22.3617747 C13.8930723,21.9460751 12.9442771,21.0573379 12.375,19.8675768 C11.6430723,18.3481229 9.9623494,17.2300341 8.40361446,17.2300341 C8.24096386,17.2300341 8.1189759,17.2300341 7.99698795,17.2587031 Z" fill="#560000"></path>
                    <polygon fill="#FFD2D2" points="25.2108434 37.3412969 30.2123494 40.0505119 30.2123494 31.9802048 25.2108434 35.3201365 20.1957831 31.9802048 20.1957831 40.0505119"></polygon>
                    <path d="M30.0225904,40.4375427 C29.9141566,40.4375427 29.8057229,40.4088737 29.7108434,40.3515358 L25.2108434,37.9146758 L20.7108434,40.3515358 C20.6159639,40.4088737 20.5075301,40.4375427 20.3990964,40.4375427 C20.0195783,40.4375427 19.7078313,40.1078498 19.7078313,39.7064846 L19.7078313,32.352901 C19.7078313,31.9515358 20.0195783,31.621843 20.3990964,31.621843 C20.5346386,31.621843 20.6566265,31.6648464 20.7650602,31.7365188 L25.2108434,34.7037543 L29.6566265,31.7365188 C29.7650602,31.6648464 29.9006024,31.621843 30.0225904,31.621843 C30.4021084,31.621843 30.7138554,31.9515358 30.7138554,32.352901 L30.7138554,39.7064846 C30.7138554,40.1221843 30.4021084,40.4375427 30.0225904,40.4375427 Z M25.2108434,36.7535836 L29.7243976,39.1904437 L29.7243976,32.9406143 L25.2108434,35.9508532 L20.6972892,32.9406143 L20.6972892,39.1904437 L25.2108434,36.7535836 Z" fill="#560000"></path>
                </g>
                <g transform="translate(4.201807, 61.638225)" id="Shape">
                    <path d="M21.063253,3.38293515 C12.564759,3.38293515 1.46385542,0.716723549 1.46385542,0.716723549 L0.772590361,2.72354949 C9.01355422,5.13174061 16.8614458,16.4989761 18.3253012,21.7167235 C21.0768072,21.7167235 21.0768072,21.7167235 21.0768072,21.7167235 C21.0768072,21.7167235 21.0768072,21.7167235 23.8283133,21.7167235 C24.8313253,17.4880546 33.1400602,5.13174061 41.3810241,2.72354949 L40.689759,0.716723549 C40.6626506,0.716723549 29.561747,3.38293515 21.063253,3.38293515 Z" fill="#E88787"></path>
                    <path d="M24.1942771,22.2327645 L17.9457831,22.2327645 L17.8373494,21.8600683 C17.2003012,19.5952218 15.0587349,15.5242321 11.7108434,11.5105802 C8.10542169,7.19590444 4.1746988,4.25733788 0.637048193,3.22525597 L0.108433735,3.06757679 L1.13855422,0.0860068259 L1.55873494,0.186348123 C1.66716867,0.215017065 12.7003012,2.83822526 21.0496988,2.83822526 C29.3990964,2.83822526 40.4322289,0.215017065 40.5406627,0.186348123 L40.9608434,0.0860068259 L41.9909639,3.06757679 L41.4623494,3.22525597 C37.9653614,4.24300341 33.9804217,7.3105802 30.2123494,11.868942 C26.9051205,15.8825939 24.7093373,19.9105802 24.2620482,21.8313993 L24.1942771,22.2327645 Z M18.6777108,21.1863481 L23.435241,21.1863481 C24.1671687,18.7208191 26.6069277,14.7071672 29.4939759,11.1808874 C31.6626506,8.54334471 35.9457831,3.98498294 40.7033133,2.36518771 L40.3373494,1.31877133 C38.2093373,1.80614334 28.5722892,3.89897611 21.0496988,3.89897611 C13.5271084,3.89897611 3.89006024,1.80614334 1.76204819,1.31877133 L1.39608434,2.36518771 C9.44728916,5.07440273 16.9427711,15.7392491 18.6777108,21.1863481 Z" fill="#560000"></path>
                    <polygon fill="#FFD2D2" points="21.063253 5.57610922 25.2921687 7.86962457 25.2921687 1.06075085 21.063253 3.88464164 16.8207831 1.06075085 16.8207831 7.86962457"></polygon>
                    <path d="M25.1295181,8.28532423 C25.0210843,8.28532423 24.9262048,8.25665529 24.8313253,8.21365188 L21.063253,6.178157 L17.2951807,8.21365188 C17.2003012,8.27098976 17.0918675,8.28532423 16.996988,8.28532423 C16.6310241,8.28532423 16.3328313,7.96996587 16.3328313,7.58293515 L16.3328313,1.36177474 C16.3328313,0.974744027 16.6310241,0.659385666 16.996988,0.659385666 C17.1189759,0.659385666 17.2409639,0.702389078 17.3493976,0.774061433 L21.063253,3.25392491 L24.7771084,0.774061433 C24.8855422,0.702389078 25.0075301,0.659385666 25.1295181,0.659385666 C25.4954819,0.659385666 25.7936747,0.974744027 25.7936747,1.36177474 L25.7936747,7.58293515 C25.7936747,7.96996587 25.4954819,8.28532423 25.1295181,8.28532423 Z M21.063253,4.9883959 L24.7906627,7.00955631 L24.7906627,2.00682594 L21.063253,4.50102389 L17.3222892,2.00682594 L17.3222892,6.99522184 L21.063253,4.9883959 Z" fill="#560000"></path>
                </g>
            </g>
            <g id="Group" transform="translate(41.340361, 36.839590)">
                <g transform="translate(10.436747, 0.000000)" id="Shape">
                    <path d="M23.1912651,44.465529 C22.2560241,44.465529 21.3207831,44.2075085 20.4804217,43.7488055 C19.125,42.9890785 18.1355422,41.7133106 17.7018072,40.1508532 C17.2680723,38.5883959 17.4036145,36.9542662 18.1355422,35.5208191 C19.0436747,33.7146758 20.7786145,32.5105802 22.7304217,32.3385666 C22.8659639,32.3242321 23.0150602,32.2382253 23.0828313,32.0805461 C23.1641566,31.9372014 23.1641566,31.7795222 23.0828313,31.6361775 L22.9879518,31.4498294 L0.840361446,1.16109215 L2.45331325,0.659385666 L12.3207831,6.24982935 L27.3388554,33.7576792 C27.501506,33.9726962 30.2259036,37.4989761 28.314759,41.2832765 C27.2710843,43.247099 25.3192771,44.465529 23.1912651,44.465529 Z M23.2183735,35.1337884 C22.0662651,35.1337884 21.0361446,35.7788396 20.4939759,36.8539249 C20.1009036,37.6279863 20.0195783,38.5167235 20.25,39.3337884 C20.4939759,40.1795222 21.0225904,40.8532423 21.7409639,41.268942 C22.2018072,41.5269625 22.689759,41.6416382 23.1912651,41.6416382 C24.3433735,41.6416382 25.373494,40.996587 25.9156627,39.9215017 C26.3087349,39.1474403 26.3900602,38.2587031 26.1596386,37.4416382 C25.9156627,36.5959044 25.3870482,35.9221843 24.6686747,35.5064846 C24.2213855,35.2627986 23.7063253,35.1337884 23.2183735,35.1337884 Z" fill="#FCFAE3"></path>
                    <path d="M2.38554217,1.14675768 L11.9683735,6.57952218 L26.9322289,33.9726962 C26.9457831,34.0156997 26.9864458,34.0587031 27.0135542,34.1017065 C27.0406627,34.1447099 29.6837349,37.5133106 27.8945783,41.0395904 C26.9593373,42.8744027 25.1701807,44.0068259 23.2183735,44.0068259 C22.3373494,44.0068259 21.4834337,43.7774744 20.7108434,43.3331058 C18.121988,41.8853242 17.1460843,38.4737201 18.5421687,35.7358362 C19.3960843,34.0587031 20.9683735,32.9549488 22.7846386,32.7972696 C23.0828313,32.7829352 23.3403614,32.5822526 23.4759036,32.3098976 C23.6114458,32.0375427 23.6114458,31.6935154 23.4759036,31.4211604 L23.3810241,31.2348123 C23.3674699,31.1918089 23.3268072,31.1488055 23.2996988,31.105802 L1.57228916,1.39044369 L2.38554217,1.14675768 Z M23.2183735,42.1433447 C24.5331325,42.1433447 25.7259036,41.3836177 26.3358434,40.1651877 C26.7695783,39.2764505 26.878012,38.2730375 26.5933735,37.3269625 C26.3087349,36.3808874 25.7123494,35.578157 24.8855422,35.1194539 C24.3704819,34.81843 23.7876506,34.6750853 23.2183735,34.6750853 C21.9036145,34.6750853 20.7108434,35.4348123 20.1009036,36.6532423 C19.1927711,38.4593857 19.8162651,40.7385666 21.5512048,41.7276451 C22.0391566,41.9856655 22.621988,42.1433447 23.2183735,42.1433447 Z M2.46686747,0.129010239 L0.0813253012,0.888737201 L22.5948795,31.6791809 L22.689759,31.865529 C20.6837349,32.0518771 18.7725904,33.2559727 17.7560241,35.2914676 C16.1430723,38.4737201 17.2816265,42.4443686 20.2771084,44.1501706 C21.2123494,44.6805461 22.2018072,44.9242321 23.2048193,44.9242321 C25.4141566,44.9242321 27.5421687,43.6627986 28.6536145,41.4696246 C30.7409639,37.3412969 27.6777108,33.4996587 27.6777108,33.4996587 L12.6054217,5.87713311 L2.46686747,0.129010239 Z M23.2183735,41.2116041 C22.7981928,41.2116041 22.3644578,41.1112628 21.9713855,40.8819113 C20.6837349,40.1508532 20.1957831,38.4450512 20.873494,37.0976109 C21.3478916,36.1515358 22.2695783,35.6211604 23.2183735,35.6211604 C23.6385542,35.6211604 24.0722892,35.7215017 24.4653614,35.9508532 C25.753012,36.6819113 26.2409639,38.3877133 25.563253,39.7351536 C25.061747,40.6668942 24.1400602,41.2116041 23.2183735,41.2116041 Z" fill="#402312"></path>
                </g>
                <g transform="translate(0.000000, 14.477816)" id="Shape">
                    <path d="M1.16566265,9.23139932 L0.69126506,7.52559727 L36.7454819,10.2348123 L37.0301205,10.2204778 C37.1656627,10.2061433 37.314759,10.1201365 37.3825301,9.96245734 C37.436747,9.81911263 37.436747,9.64709898 37.3825301,9.51808874 C36.4472892,7.71194539 36.4337349,5.54744027 37.3418675,3.71262799 C38.3313253,1.73447099 40.2831325,0.516040956 42.4111446,0.516040956 C43.3463855,0.516040956 44.2816265,0.774061433 45.121988,1.23276451 C46.4774096,1.99249147 47.4668675,3.26825939 47.9006024,4.83071672 C48.3343373,6.39317406 48.1987952,8.02730375 47.4668675,9.46075085 C45.935241,12.4709898 42.871988,12.8006826 41.625,12.8006826 C41.313253,12.8006826 41.1099398,12.7863481 41.0828313,12.7863481 L11.0331325,14.8075085 L1.16566265,9.23139932 Z M42.4246988,3.33993174 C41.2725904,3.33993174 40.2424699,3.98498294 39.7003012,5.06006826 C39.3072289,5.83412969 39.2259036,6.72286689 39.4563253,7.53993174 C39.7003012,8.38566553 40.2289157,9.05938567 40.9472892,9.47508532 C41.4081325,9.7331058 41.8960843,9.84778157 42.3975904,9.84778157 C43.5496988,9.84778157 44.5798193,9.20273038 45.121988,8.12764505 C45.9216867,6.5221843 45.3659639,4.55836177 43.8478916,3.68395904 C43.4141566,3.46894198 42.9126506,3.33993174 42.4246988,3.33993174 Z" fill="#FCFAE3"></path>
                    <path d="M42.4246988,1.01774744 C43.3057229,1.01774744 44.1596386,1.24709898 44.9322289,1.69146758 C47.5210843,3.13924915 48.496988,6.55085324 47.1009036,9.2887372 C45.6912651,12.083959 42.8042169,12.3849829 41.625,12.3849829 C41.3268072,12.3849829 41.1506024,12.3706485 41.1506024,12.3706485 C41.1099398,12.3706485 41.0963855,12.3706485 41.0557229,12.3706485 C41.0421687,12.3706485 41.0150602,12.3706485 41.001506,12.3706485 L11.1551205,14.3631399 L1.57228916,8.93037543 L1.32831325,8.07030717 L36.7319277,10.7221843 C36.7454819,10.7221843 36.7725904,10.7221843 36.7861446,10.7221843 C36.7996988,10.7221843 36.8403614,10.7221843 36.8674699,10.7221843 L37.0707831,10.7078498 C37.3689759,10.6935154 37.626506,10.4928328 37.7620482,10.2204778 C37.8975904,9.94812287 37.8975904,9.60409556 37.7620482,9.33174061 C36.8810241,7.65460751 36.8810241,5.64778157 37.7213855,3.97064846 C38.6566265,2.15017065 40.4457831,1.01774744 42.4246988,1.01774744 Z M42.3975904,10.3494881 C43.7123494,10.3494881 44.9051205,9.58976109 45.5150602,8.37133106 C46.4231928,6.56518771 45.7996988,4.28600683 44.064759,3.29692833 C43.5496988,2.99590444 42.9668675,2.85255973 42.3975904,2.85255973 C41.0828313,2.85255973 39.8900602,3.61228669 39.2801205,4.83071672 C38.371988,6.63686007 38.9954819,8.91604096 40.7304217,9.90511945 C41.2454819,10.2061433 41.8283133,10.3494881 42.3975904,10.3494881 Z M42.4246988,0.0716723549 C40.2153614,0.0716723549 38.0873494,1.3331058 36.9759036,3.52627986 C35.9457831,5.54744027 36.0406627,7.89829352 37.0165663,9.77610922 L36.813253,9.79044369 L0.0948795181,7.00955631 L0.813253012,9.53242321 L10.938253,15.2948805 L41.0421687,13.2737201 C41.0421687,13.2737201 41.2590361,13.2880546 41.625,13.2880546 C42.9533133,13.2880546 46.2198795,12.9583618 47.873494,9.71877133 C49.4864458,6.53651877 48.3478916,2.56587031 45.3524096,0.860068259 C44.4036145,0.315358362 43.4006024,0.0716723549 42.4246988,0.0716723549 Z M42.3975904,9.41774744 C41.9774096,9.41774744 41.5436747,9.31740614 41.1506024,9.08805461 C39.8629518,8.35699659 39.375,6.65119454 40.0527108,5.30375427 C40.5271084,4.35767918 41.4487952,3.82730375 42.3975904,3.82730375 C42.8177711,3.82730375 43.251506,3.92764505 43.6445783,4.15699659 C44.9322289,4.88805461 45.4201807,6.59385666 44.7424699,7.94129693 C44.2680723,8.87303754 43.3599398,9.41774744 42.3975904,9.41774744 Z" fill="#402312"></path>
                </g>
                <g transform="translate(29.819277, 25.085324)">
                    <ellipse id="Oval" fill="#CCCBCB" cx="0.989457831" cy="1.10375427" rx="1" ry="1"></ellipse>
                    <path d="M0.989457831,2.09283276 C0.47439759,2.09283276 0.0542168675,1.64846416 0.0542168675,1.10375427 C0.0542168675,0.559044369 0.47439759,0.114675768 0.989457831,0.114675768 C1.50451807,0.114675768 1.9246988,0.559044369 1.9246988,1.10375427 C1.9246988,1.64846416 1.50451807,2.09283276 0.989457831,2.09283276 Z M0.989457831,0.243686007 C0.542168675,0.243686007 0.176204819,0.630716724 0.176204819,1.10375427 C0.176204819,1.57679181 0.542168675,1.96382253 0.989457831,1.96382253 C1.43674699,1.96382253 1.80271084,1.57679181 1.80271084,1.10375427 C1.80271084,0.630716724 1.43674699,0.243686007 0.989457831,0.243686007 Z" id="Shape" fill="#402312"></path>
                </g>
            </g>
            <g id="Group" transform="translate(3.930723, 49.167235)">
                <path d="M2.54819277,17.0006826 C1.55873494,16.7856655 0.86746988,16.2696246 0.596385542,15.5242321 C0.271084337,14.6641638 0.582831325,13.603413 1.46385542,12.6 C2.27710843,11.6825939 3.46987952,10.8511945 4.85240964,10.2921502 C5.3810241,10.0914676 5.92319277,9.90511945 6.45180723,9.77610922 L35.6475904,0.616382253 C35.7560241,0.602047782 35.8644578,0.57337884 35.9593373,0.602047782 C36.2168675,0.659385666 36.4066265,0.888737201 36.4337349,1.17542662 C36.4608434,1.46211604 36.3253012,1.70580205 36.0813253,1.84914676 L8.53915663,15.6675768 C8.10542169,15.9399317 7.59036145,16.1836177 7.04819277,16.4129693 C5.4623494,17.0580205 3.80873494,17.2730375 2.54819277,17.0006826 Z M9.42018072,11.9692833 C8.63403614,12.0122867 7.10240964,12.4136519 5.80120482,12.9153584 C4.2560241,13.5460751 3.97138554,13.9904437 3.90361446,14.1194539 C3.90361446,14.2197952 3.99849398,14.2484642 4.03915663,14.2627986 C4.2560241,14.305802 4.8253012,14.305802 6.12650602,13.7897611 C7.59036145,13.2020478 8.87801205,12.4136519 9.42018072,11.9692833 Z" id="Shape" fill="#FCFAE3"></path>
                <path d="M35.8644578,1.07508532 C36.0135542,1.10375427 36.0677711,1.36177474 35.8915663,1.41911263 L8.34939759,15.2375427 C7.91566265,15.5098976 7.41415663,15.7679181 6.88554217,15.9686007 C5.2996988,16.6136519 3.74096386,16.7856655 2.61596386,16.5419795 C1.80271084,16.3699659 1.2063253,15.9542662 0.975903614,15.3522184 C0.447289157,13.9044369 2.25,11.8259386 4.98795181,10.7221843 C5.51656627,10.5215017 6.03162651,10.3494881 6.51957831,10.2348123 L35.7424699,1.04641638 C35.810241,1.06075085 35.8509036,1.06075085 35.8644578,1.07508532 Z M3.94427711,14.7358362 C4.39156627,14.8361775 5.16415663,14.7071672 6.27560241,14.2341297 C7.99698795,13.5317406 10.2876506,12.2129693 10.0843373,11.6969283 C10.0572289,11.6109215 9.9623494,11.5679181 9.82680723,11.5392491 C9.10843373,11.38157 7.0753012,11.9262799 5.63855422,12.4996587 C3.91716867,13.2020478 3.28012048,13.8614334 3.48343373,14.3774744 C3.55120482,14.5351536 3.71385542,14.6784983 3.94427711,14.7358362 Z M36.0406627,0.14334471 C35.8644578,0.100341297 35.688253,0.114675768 35.5120482,0.172013652 L6.31626506,9.33174061 C5.76054217,9.44641638 5.21837349,9.63276451 4.67620482,9.84778157 C1.38253012,11.1952218 -0.555722892,13.6894198 0.176204819,15.6675768 C0.487951807,16.556314 1.30120482,17.1870307 2.45331325,17.4307167 C3.79518072,17.7174061 5.53012048,17.5023891 7.22439759,16.8143345 C7.75301205,16.5849829 8.29518072,16.3412969 8.78313253,16.040273 L36.311747,2.23617747 C36.7183735,2.02116041 36.9623494,1.59112628 36.9216867,1.10375427 C36.8403614,0.630716724 36.4879518,0.243686007 36.0406627,0.14334471 Z" id="Shape" fill="#402312"></path>
            </g>
            <path d="M19.5451807,81.8211604 C15.628012,81.3051195 12.6325301,79.4703072 10.8704819,76.5030717 C8.6746988,72.8047782 8.43072289,67.5010239 10.2198795,61.9679181 L11.6295181,62.4696246 C10.0165663,67.4866894 10.2063253,72.4177474 12.1310241,75.6573379 C13.6626506,78.2518771 16.2243976,79.8 19.7213855,80.2443686 L19.5451807,81.8211604 Z" id="Shape" fill="#CD2027"></path>
        </g>
    </g>
</svg>