<?xml version="1.0" encoding="UTF-8"?>
<svg width="90px" height="90px" viewBox="0 0 90 90" version="1.1" xmlns="http://www.w3.org/2000/svg" xmlns:xlink="http://www.w3.org/1999/xlink">
    <!-- Generator: Sketch 51.2 (57519) - http://www.bohemiancoding.com/sketch -->
    <title>Slice 1</title>
    <desc>Created with Sketch.</desc>
    <defs></defs>
    <g id="Page-1" stroke="none" stroke-width="1" fill="none" fill-rule="evenodd">
        <g id="Ремонт_Блузка" transform="translate(0.000000, 8.000000)" fill-rule="nonzero">
            <path d="M13.2018072,51.566171 L11.9006024,50.8371747 C13.4457831,47.9899628 15.4246988,45.7066914 17.6204819,44.2211896 C22.4051205,41.0026022 28.9246988,38.636803 35.5120482,37.7427509 C40.7846386,37.0275093 48.5783133,36.9174721 55.7213855,40.4524164 C61.2243976,43.1758364 66.2123494,43.5334572 69.7635542,41.4565056 C72.3524096,39.9434944 73.9789157,37.2613383 74.2093373,34.1115242 C74.4262048,31.0855019 72.501506,27.6881041 70.4548193,24.0843866 C68.0963855,19.9167286 65.6566265,15.6252788 66.5376506,11.5401487 C67.4457831,7.35873606 70.7259036,3.9063197 74.5346386,3.13605948 C77.746988,2.48959108 80.7695783,3.85130112 82.8433735,6.86356877 L81.623494,7.73011152 C79.875,5.18550186 77.4623494,4.08513011 74.8192771,4.62156134 C71.5798193,5.28178439 68.7740964,8.2527881 67.9879518,11.8702602 C67.2289157,15.3776952 69.5195783,19.4215613 71.7424699,23.327881 C73.8027108,26.9728625 75.9442771,30.727881 75.686747,34.2215613 C75.4292169,37.8252788 73.4909639,41.0163569 70.5090361,42.763197 C66.5105422,45.101487 61.0346386,44.7576208 55.0707831,41.8141264 C43.8072289,36.2434944 27.5963855,39.3107807 18.4337349,45.4866171 C16.4412651,46.8208178 14.625,48.9252788 13.2018072,51.566171 Z" id="Shape" fill="#CD2027"></path>
            <path d="M21.5783133,73.9037175 C20.9006024,73.9037175 20.2093373,73.8624535 19.4774096,73.7936803 L19.626506,72.2944238 C26.4307229,72.9959108 30.4563253,69.9423792 32.6385542,67.260223 C36.4472892,62.5698885 37.1927711,55.9263941 35.9593373,51.7724907 C33.3298193,42.9420074 19.0978916,40.7825279 14.8012048,40.3148699 C9.63704819,39.764684 6.22138554,37.1650558 5.63855422,33.3550186 C5.00150602,29.0910781 8.05120482,24.5933086 13.0662651,22.4200743 C15.4111446,21.4022305 17.2003012,19.1739777 17.9864458,16.3130112 C18.7183735,13.630855 18.4066265,10.8936803 17.1731928,9.1605948 C16.0210843,7.53754647 13.4728916,5.55687732 10.1385542,5.33680297 C6.96686747,5.13048327 3.86295181,6.57472119 1.15210843,9.50446097 L0.0677710843,8.47286245 C3.89006024,4.33271375 7.7123494,3.65873606 10.246988,3.82379182 C14.0963855,4.07137546 16.9834337,6.28587361 18.3930723,8.2802974 C19.8840361,10.3847584 20.2771084,13.6171004 19.436747,16.7256506 C18.5421687,20.0267658 16.4412651,22.6126394 13.6762048,23.8092937 C9.28463855,25.7211896 6.60090361,29.5587361 7.14307229,33.1349442 C7.61746988,36.2710037 10.4638554,38.3342007 14.9774096,38.8156134 C17.688253,39.104461 22.9472892,39.8884758 27.7590361,41.9791822 C32.9909639,44.2486989 36.2439759,47.398513 37.4096386,51.332342 C39.0090361,56.6966543 37.5316265,63.6427509 33.8177711,68.2092937 C31.6084337,70.8914498 27.7861446,73.9037175 21.5783133,73.9037175 Z" id="Shape" fill="#CD2027"></path>
            <g id="Group" transform="translate(10.978916, 0.000000)">
                <path d="M22.5542169,4.38773234 C19.9246988,5.07546468 13.6355422,7.24869888 11.6837349,8.22527881 C12.8900602,10.632342 13.0933735,19.8066914 13.2831325,25.9275093 C13.310241,26.9453532 13.3509036,27.8944238 13.378012,28.6921933 C13.621988,34.3040892 14.123494,38.5267658 14.8689759,43.8223048 C15.5060241,48.3063197 13.8795181,60.4929368 12.8222892,66.833829 C12.5783133,68.3055762 13.4593373,69.7360595 14.8689759,70.1211896 C19.8840361,71.5241636 25.3192771,72.4594796 31.5677711,72.4594796 C37.8162651,72.4594796 43.2379518,71.5241636 48.2665663,70.1211896 C49.6762048,69.7223048 50.5572289,68.2918216 50.313253,66.833829 C49.2695783,60.4929368 47.6430723,48.3063197 48.2665663,43.8223048 C49.0120482,38.5405204 49.5135542,34.3040892 49.7575301,28.6921933 C50.001506,23.0802974 50.0421687,11.0312268 51.4518072,8.22527881 C49.5,7.24869888 43.2108434,5.08921933 40.5813253,4.38773234 C40.5813253,4.38773234 38.5075301,1.2929368 37.9518072,0.852788104 L35.4578313,0.673977695 L27.5286145,0.550185874 C27.5286145,0.550185874 24.7635542,0.412639405 24.2891566,1.44423792 C23.814759,2.48959108 22.5542169,4.38773234 22.5542169,4.38773234 Z" id="Shape" fill="#CAE5FF"></path>
                <path d="M13.5406627,34.4141264 L8.59337349,59.8877323 C8.40361446,60.7542751 7.60391566,61.3457249 6.73644578,61.263197 L1.87048193,60.8643123 C0.853915663,60.7817844 0.135542169,59.8327138 0.298192771,58.8148699 C1.58584337,50.8096654 6.26204819,20.1780669 6.53313253,18.9539033 C7.48192771,14.5386617 9.28463855,9.22936803 11.4804217,8.33531599 C12.5240964,11.0862454 12.3614458,13.1769517 12.4156627,13.8096654 C12.4698795,14.4423792 12.876506,31.1267658 13.5406627,34.4141264 Z" id="Shape" fill="#CAE5FF"></path>
                <path d="M2.30421687,60.9055762 C4.40512048,56.669145 7.6310241,21.8148699 12.686747,13.2594796 C14.2725904,10.5773234 17.1325301,9.09182156 23.0150602,7.95018587 C23.5165663,6.16208178 25.2108434,4.00260223 25.9292169,3.42490706 C25.3599398,2.20074349 25.0481928,0.770260223 25.0481928,0.770260223 C25.0481928,0.770260223 22.5813253,3.94758364 22.5135542,4.81412639 C21.1039157,4.5802974 14.2319277,7.08364312 11.5481928,8.40408922 C9.93524096,9.18810409 8.48493976,11.9665428 7.50903614,15.2263941 C6.85843373,17.3996283 0.786144578,57.1918216 0.311746988,58.8423792 C0.596385542,60.9743494 2.30421687,60.9055762 2.30421687,60.9055762 Z" id="Shape" fill="#DCEFFF"></path>
                <path d="M13.1069277,23.2866171 C15.1807229,27.0416357 18.5963855,41.9104089 18.1490964,52.7765799 C18,56.2977695 14.4487952,62.1434944 12.8222892,66.132342 C14.8418675,53.4780669 14.7876506,43.5197026 14.2048193,40.9200743 C13.621988,38.3204461 13.1069277,31.7319703 13.1069277,31.7319703 L13.1069277,23.2866171 Z" id="Shape" fill="#A3C6D1"></path>
                <path d="M49.6355422,23.2866171 C47.561747,27.0416357 43.6987952,38.9118959 44.1460843,49.7780669 C44.2951807,53.2992565 47.9548193,60.6992565 49.5813253,64.6881041 C47.561747,52.033829 47.9548193,43.5334572 48.5512048,40.933829 C49.1340361,38.3342007 49.6490964,31.7457249 49.6490964,31.7457249 L49.6490964,23.2866171 L49.6355422,23.2866171 Z" id="Shape" fill="#A3C6D1"></path>
                <path d="M12.8900602,22.9427509 C11.5888554,30.8516729 6.87198795,59.0899628 5.65210843,61.1669145 C6.6686747,61.4007435 7.91566265,61.3869888 8.14608434,60.7130112 C8.7560241,58.966171 9.36596386,55.8851301 9.75903614,53.8219331 C10.3960843,50.5345725 13.5271084,34.1115242 13.5271084,34.1115242 L12.8900602,22.9427509 Z" id="Shape" fill="#A3C6D1"></path>
                <path d="M6.88554217,61.5107807 C6.8313253,61.5107807 6.77710843,61.5107807 6.70933735,61.497026 L1.85692771,61.0981413 C1.30120482,61.0431227 0.799698795,60.7680297 0.460843373,60.327881 C0.121987952,59.8877323 -0.0271084337,59.3237918 0.0677710843,58.7598513 C0.623493976,55.3074349 1.82981928,47.5085502 2.99548193,39.9710037 C4.62198795,29.4899628 6.15361446,19.5866171 6.30271084,18.8851301 C6.79066265,16.6431227 8.57981928,9.24312268 11.3855422,8.10148699 L11.561747,8.55539033 C9.50150602,9.39442379 7.73945783,14.4973978 6.76355422,18.9951673 C6.61445783,19.6828996 5.01506024,30.0401487 3.46987952,40.0535316 C2.30421687,47.5910781 1.09789157,55.4037175 0.542168675,58.8423792 C0.47439759,59.2687732 0.582831325,59.6814126 0.840361446,60.0252788 C1.09789157,60.369145 1.47740964,60.5754647 1.89759036,60.602974 L6.75,61.0018587 C7.49548193,61.070632 8.18674699,60.56171 8.34939759,59.8189591 L13.2831325,34.3591078 L13.7575301,34.4553903 L8.81024096,59.9289963 C8.62048193,60.8505576 7.80722892,61.5107807 6.88554217,61.5107807 Z" id="Shape" fill="#000000"></path>
                <path d="M8.8373494,57.5907063 C8.71536145,57.2881041 8.06475904,56.7379182 4.98795181,56.5178439 C1.65361446,56.2702602 0.962349398,56.8479554 0.813253012,57.1092937 L0.393072289,56.8754647 C0.813253012,56.1189591 2.3313253,55.8438662 5.01506024,56.0364312 C7.64457831,56.2289963 9,56.669145 9.28463855,57.4256506 L8.8373494,57.5907063 Z" id="Shape" fill="#000000"></path>
                <path d="M49.1746988,34.4141264 L54.121988,59.8877323 C54.311747,60.7542751 55.1114458,61.3457249 55.9789157,61.263197 L60.8448795,60.8643123 C61.8614458,60.7817844 62.5798193,59.8327138 62.4171687,58.8148699 C61.1295181,50.8096654 56.4533133,20.1780669 56.1822289,18.9539033 C55.2334337,14.5386617 53.4307229,9.22936803 51.2349398,8.33531599 C50.1912651,11.0862454 50.3539157,13.1769517 50.2996988,13.8096654 C50.2454819,14.4423792 49.8253012,31.1267658 49.1746988,34.4141264 Z" id="Shape" fill="#CAE5FF"></path>
                <path d="M49.811747,22.9427509 C51.1129518,30.8516729 56.8599398,59.0074349 58.0798193,61.0843866 C57.063253,61.3182156 55.1385542,61.6483271 54.5557229,60.7130112 C53.5662651,59.1449814 53.3358434,55.8851301 52.9427711,53.8219331 C52.3057229,50.5345725 49.1746988,34.1115242 49.1746988,34.1115242 L49.811747,22.9427509 Z" id="Shape" fill="#A3C6D1"></path>
                <path d="M37.8298193,0.880297398 C35.498494,0.26133829 28.125,0.192565056 25.1295181,0.756505576 C25.1295181,0.756505576 25.8207831,3.87881041 26.4442771,4.9929368 C27.0677711,6.1070632 30.0768072,12.6405204 31.4728916,12.6130112 C32.8689759,12.5855019 34.3057229,9.90334572 34.7123494,9.20185874 C35.1189759,8.50037175 37.8840361,2.22825279 37.8298193,0.880297398 Z" id="Shape" fill="#A3C6D1"></path>
                <path d="M32.8689759,14.4836431 C29.2635542,12.4066914 25.5361446,4.56654275 24.9126506,1.38921933 C23.936747,2.43457249 23.0692771,3.82379182 22.7168675,4.62156134 C22.689759,5.74944238 22.7846386,7.04237918 23.6927711,8.87174721 C24.5060241,10.5223048 26.1054217,12.8468401 27.935241,13.9609665 L27.623494,14.4836431 C25.685241,13.3007435 24.0045181,10.866171 23.1506024,9.14684015 C22.1746988,7.166171 22.0798193,5.76319703 22.1204819,4.5527881 L22.1204819,4.49776952 L22.1475904,4.44275093 C22.5542169,3.50743494 23.6792169,1.69182156 24.9126506,0.56394052 L25.0481928,0.440148699 L25.4006024,0.577695167 L25.4141566,0.770260223 C25.6039157,3.32862454 29.4533133,11.8427509 33.1536145,13.9747212 L32.8689759,14.4836431 Z" id="Shape" fill="#000000"></path>
                <path d="M60.8584337,60.9055762 C58.7575301,56.669145 55.5316265,21.8148699 50.4759036,13.2594796 C48.8900602,10.5773234 46.0301205,9.09182156 40.1475904,7.95018587 C39.6460843,6.16208178 37.9518072,4.00260223 37.2334337,3.42490706 C37.8027108,2.20074349 38.1144578,0.770260223 38.1144578,0.770260223 C38.1144578,0.770260223 40.5813253,3.94758364 40.6490964,4.81412639 C42.0587349,4.5802974 48.9307229,7.08364312 51.6144578,8.40408922 C53.2274096,9.18810409 54.6777108,11.9665428 55.6536145,15.2263941 C56.3042169,17.3996283 62.1325301,57.2193309 62.6204819,58.8698885 C62.3222892,61.0156134 60.8584337,60.9055762 60.8584337,60.9055762 Z" id="Shape" fill="#DCEFFF"></path>
                <path d="M35.4171687,14.4286245 L35.1054217,13.905948 C36.7996988,12.8330855 38.3313253,10.6048327 39.185241,8.85799257 C40.0798193,7.02862454 40.188253,5.73568773 40.1611446,4.60780669 C39.8358434,3.87881041 39.0496988,2.55836431 38.060241,1.51301115 C37.4909639,4.66282528 34.3057229,11.7327138 31.6626506,13.2732342 L31.3644578,12.7505576 C33.9939759,11.2237918 37.3418675,3.466171 37.5451807,0.880297398 L37.5451807,0.687732342 L37.7213855,0.605204461 C37.8298193,0.56394052 37.9518072,0.577695167 38.0466867,0.660223048 C39.3207831,1.82936803 40.3509036,3.54869888 40.7304217,4.40148699 L40.7575301,4.45650558 L40.7575301,4.51152416 C40.7981928,5.72193309 40.7033133,7.12490706 39.7274096,9.10557621 C38.8192771,10.9486989 37.2198795,13.2869888 35.4171687,14.4286245 Z" id="Shape" fill="#000000"></path>
                <polygon id="Shape" fill="#CAE5FF" points="30.4563253 14.1672862 34.4006024 14.1672862 35.064759 38.6780669 33.4111446 38.4167286 31.4457831 29.1736059"></polygon>
                <path d="M31.4322289,72.9133829 C25.8072289,72.9133829 20.3313253,72.1431227 14.6656627,70.5613383 C13.1069277,70.1211896 12.1310241,68.5669145 12.4021084,66.9301115 C13.3915663,60.9743494 15.0858434,48.5263941 14.4487952,44.0148699 C13.6762048,38.5542751 13.188253,34.3315985 12.9578313,28.8572491 C12.9171687,27.7843866 12.876506,26.4364312 12.8358434,25.0197026 C12.6596386,18.9814126 12.4156627,10.7148699 11.3042169,8.51412639 L11.1686747,8.23903346 L11.439759,8.10148699 C13.3644578,7.13866171 19.6942771,4.95167286 22.3644578,4.25018587 L22.5135542,4.84163569 C19.9789157,5.50185874 14.123494,7.52379182 11.9683735,8.52788104 C13.0256024,11.1962825 13.2695783,19.1464684 13.4457831,25.005948 C13.4864458,26.4226766 13.5271084,27.7568773 13.5677711,28.8297398 C13.7981928,34.2765799 14.2861446,38.4855019 15.0587349,43.932342 C15.7093373,48.5126394 14.001506,61.0431227 13.0120482,67.0263941 C12.7951807,68.3468401 13.5813253,69.6122677 14.8418675,69.9698885 C20.4533133,71.5379182 25.8885542,72.2944238 31.4593373,72.2944238 C37.0165663,72.2944238 42.4518072,71.5379182 48.0768072,69.9698885 C49.3373494,69.6122677 50.123494,68.3468401 49.9066265,67.0263941 C48.9171687,61.0431227 47.2093373,48.5126394 47.8599398,43.932342 C48.6325301,38.4992565 49.1204819,34.2765799 49.3509036,28.8297398 C49.3915663,27.7568773 49.4322289,26.4226766 49.4728916,25.005948 C49.6490964,19.1464684 49.8795181,11.1962825 50.9503012,8.52788104 C48.7951807,7.52379182 42.939759,5.50185874 40.4051205,4.84163569 L40.5542169,4.25018587 C43.2243976,4.95167286 49.5542169,7.13866171 51.4789157,8.10148699 L51.75,8.23903346 L51.6144578,8.51412639 C50.503012,10.7148699 50.2590361,18.9814126 50.0828313,25.0197026 C50.0421687,26.4364312 50.001506,27.770632 49.9608434,28.8572491 C49.7304217,34.3315985 49.2289157,38.5542751 48.4698795,44.0148699 C47.8328313,48.5263941 49.5271084,60.9743494 50.5165663,66.9301115 C50.7876506,68.5669145 49.811747,70.1349442 48.253012,70.5613383 C42.5466867,72.1431227 37.0572289,72.9133829 31.4322289,72.9133829 Z" id="Shape" fill="#000000"></path>
                <path d="M55.8162651,61.5107807 C54.8945783,61.5107807 54.0813253,60.8643123 53.878012,59.9289963 L48.9307229,34.4553903 L49.4051205,34.3591078 L54.3524096,59.8327138 C54.5150602,60.5754647 55.2063253,61.0843866 55.9518072,61.0156134 L60.8177711,60.6167286 C61.2379518,60.5754647 61.6174699,60.369145 61.875,60.0390335 C62.1325301,59.6951673 62.2409639,59.2825279 62.1731928,58.8561338 C61.6174699,55.4037175 60.4111446,47.6048327 59.2454819,40.0672862 C57.7003012,30.0539033 56.1009036,19.6966543 55.938253,19.0089219 C54.9623494,14.5111524 53.2003012,9.40817844 51.1400602,8.56914498 L51.3162651,8.11524164 C54.121988,9.27063197 55.9246988,16.670632 56.3990964,18.8988848 C56.5481928,19.6141264 58.0798193,29.5037175 59.7063253,39.9847584 C60.871988,47.5223048 62.0783133,55.3211896 62.6340361,58.7736059 C62.7289157,59.3237918 62.5798193,59.901487 62.2409639,60.3416357 C61.9021084,60.7817844 61.3870482,61.0568773 60.8448795,61.1118959 L55.9789157,61.5107807 C55.938253,61.5107807 55.8840361,61.5107807 55.8162651,61.5107807 Z" id="Shape" fill="#000000"></path>
                <path d="M37.7620482,1.18289963 C34.8343373,0.481412639 28.0843373,0.52267658 25.1837349,1.07286245 L25.0753012,0.467657993 C28.0301205,-0.0962825279 34.9021084,-0.137546468 37.8975904,0.591449814 L37.7620482,1.18289963 Z" id="Shape" fill="#000000"></path>
                <g opacity="0.8" transform="translate(33.614458, 14.029740)" fill="#ABCAD8" id="Shape">
                    <path d="M0.487951807,0.0412639405 C0.975903614,0.357620818 1.0436747,2.97100372 0.0948795181,3.42490706 C1.89759036,3.56245353 2.71084337,3.34237918 3.02259036,2.64089219 C3.34789157,1.9394052 3.1310241,0.275092937 2.37198795,0.123791822 C1.59939759,-0.0137546468 0.487951807,0.0412639405 0.487951807,0.0412639405 Z"></path>
                </g>
                <path d="M36.8810241,4.77286245 C34.0888554,4.33271375 29.1144578,4.29144981 26.0240964,4.70408922 L25.9427711,4.09888476 C29.0873494,3.68624535 34.1295181,3.71375465 36.9759036,4.16765799 L36.8810241,4.77286245 Z" id="Shape" fill="#000000"></path>
                <g opacity="0.8" transform="translate(22.228916, 24.895911)" fill="#A3C6D1" id="Shape">
                    <path d="M0.189759036,-2.45124037e-14 C-0.393072289,1.66431227 1.95180723,3.14981413 2.71084337,3.14981413 C1.66716867,6.7260223 0.243975904,13.4795539 0.826807229,17.3446097 C3.2123494,19.8066914 9.20331325,17.4271375 10.8840361,16.4092937 C13.9472892,16.670632 18.8945783,15.5427509 18.9081325,12.5304833 C18.9216867,9.51821561 15.7364458,3.82379182 15.2349398,3.10855019 C19.7213855,2.59962825 18.5421687,0.770260223 18.4201807,-2.84217094e-14 C17.7424699,1.27918216 16.1024096,2.32453532 13.7575301,2.09070632 C13.1340361,2.33828996 14.3810241,4.42899628 14.3810241,4.42899628 C14.3810241,4.42899628 17.1189759,11.4301115 17.1731928,12.3929368 C17.2274096,13.3557621 14.6385542,15.1576208 11.5753012,13.7821561 C10.4638554,12.3791822 9.50150602,5.76319703 9.50150602,5.76319703 L8.6746988,5.85947955 C8.6746988,5.85947955 9.05421687,13.7408922 9,14.8962825 C8.94578313,16.0516729 7.34638554,16.5193309 6.24849398,16.7531599 C5.15060241,16.9869888 2.53463855,17.0832714 2.42620482,15.4464684 C2.31777108,13.8234201 4.06626506,3.83754647 4.63554217,2.64089219 C5.20481928,1.44423792 4.18825301,1.82936803 3.68674699,1.78810409 C3.18524096,1.77434944 0.189759036,-2.45124037e-14 0.189759036,-2.45124037e-14 Z"></path>
                </g>
                <g opacity="0.8" transform="translate(26.295181, 17.055762)" fill="#A3C6D1" id="Shape">
                    <path d="M2.99548193,0.151301115 C2.88704819,1.82936803 1.46385542,7.01486989 0.0406626506,9.65576208 C1.13855422,9.86208178 2.34487952,10.2884758 3.38855422,7.59256506 C4.43222892,4.89665428 5.25903614,1.78810409 5.15060241,0.797769517 C5.02861446,-0.192565056 2.99548193,0.151301115 2.99548193,0.151301115 Z"></path>
                </g>
                <g opacity="0.8" transform="translate(29.006024, 18.293680)" fill="#A3C6D1" id="Shape">
                    <path d="M0.921686747,4.69033457 C0.284638554,7.38624535 -0.0677710843,19.1739777 0.0948795181,23.3828996 C0.90813253,23.2178439 2.12801205,23.8230483 2.06024096,20.095539 C2.0060241,16.3680297 2.38554217,4.3739777 2.46686747,2.90223048 C2.54819277,1.43048327 2.35843373,0.0412639405 2.35843373,0.0412639405 L0.921686747,4.69033457 Z"></path>
                </g>
                <rect id="Rectangle-path" fill="#000000" x="32.9231928" y="38.0866171" width="1" height="34.5241636"></rect>
                <g opacity="0.8" transform="translate(30.768072, 17.330855)" fill="#A3C6D1" id="Shape">
                    <path d="M1.76204819,0.151301115 C2.38554217,2.72342007 5.57078313,8.0739777 7.04819277,9.38066914 C6.03162651,10.4122677 3.2123494,9.32565056 2.83283133,8.11524164 C2.43975904,6.80855019 1.32831325,4.25018587 1.32831325,4.25018587 L0.121987952,0.082527881 L1.76204819,0.151301115 Z"></path>
                </g>
                <g opacity="0.8" transform="translate(30.903614, 20.356877)" fill="#A3C6D1" id="Shape">
                    <path d="M1.125,0.330111524 C1.91114458,2.92973978 2.4126506,7.23494424 2.60240964,10.5360595 C2.80572289,13.8371747 3.80873494,17.7572491 4.22891566,18.4587361 C3.30722892,18.733829 2.30421687,18.266171 1.96536145,15.9553903 C1.62650602,13.6446097 0,6.35464684 0,6.35464684 L0.325301205,0.0275092937 L1.125,0.330111524 Z"></path>
                </g>
                <path d="M35.5527108,17.8260223 L27.7725904,17.8260223 C26.8509036,17.8260223 26.2816265,17.0695167 26.2816265,15.8728625 L26.2816265,15.8453532 C26.2816265,14.6349442 26.8509036,13.8921933 27.7725904,13.8921933 L35.5527108,13.8921933 C36.4743976,13.8921933 37.0978916,14.6762082 37.0978916,15.8453532 L37.0978916,15.8728625 C37.1114458,17.0282528 36.4879518,17.8260223 35.5527108,17.8260223 Z M27.7725904,14.5524164 C27.0677711,14.5524164 26.9593373,15.3501859 26.9593373,15.8315985 L26.9593373,15.8591078 C26.9593373,16.3405204 27.0677711,17.13829 27.7725904,17.13829 L35.5527108,17.13829 C36.2033133,17.13829 36.4337349,16.4780669 36.4337349,15.8591078 L36.4337349,15.8315985 C36.4337349,15.2126394 36.2033133,14.5524164 35.5527108,14.5524164 L27.7725904,14.5524164 Z" id="Shape" fill="#000000"></path>
                <path d="M36.813253,27.3304833 C35.9864458,27.3304833 35.2138554,27.2066914 34.6581325,27.0003717 C32.746988,26.2713755 31.2966867,20.3018587 30.8900602,17.5234201 L31.5542169,17.4271375 C32.1099398,21.2509294 33.6415663,25.8862454 34.8885542,26.3539033 C36.2846386,26.8765799 39.5376506,26.7802974 40.2966867,25.2947955 C40.0798193,22.1724907 37.0707831,18.5412639 35.2003012,17.7847584 L35.4442771,17.1520446 C37.4909639,17.9635688 40.7846386,21.8561338 40.9743976,25.3360595 L40.9743976,25.4185874 L40.9472892,25.5011152 C40.378012,26.8215613 38.4939759,27.3304833 36.813253,27.3304833 Z" id="Shape" fill="#000000"></path>
                <path d="M27.5828313,27.3855019 C25.9156627,27.3855019 23.1641566,26.2851301 22.378012,24.9921933 L22.3237952,24.8959108 L22.3373494,24.7858736 C22.5,22.5026022 25.1024096,18.2249071 27.4337349,17.13829 L27.7183735,17.7572491 C25.6987952,18.6925651 23.2454819,22.6263941 23.0150602,24.7171004 C23.8283133,25.8587361 26.7831325,26.9040892 28.003012,26.6565056 C29.1822289,26.0100372 30.2936747,21.8698885 31.1204819,18.8301115 L31.7710843,19.0089219 C30.5783133,23.4241636 29.6295181,26.6152416 28.2740964,27.2754647 L28.2334337,27.2892193 L28.1927711,27.302974 C28.0165663,27.3717472 27.813253,27.3855019 27.5828313,27.3855019 Z" id="Shape" fill="#000000"></path>
                <path d="M27.7048193,42.0479554 C26.4171687,42.0479554 25.1430723,41.8003717 24.560241,41.4289963 L24.4518072,41.360223 L24.4111446,41.2364312 C23.6927711,38.9256506 26.6340361,27.0141264 26.6611446,26.9040892 L27.311747,27.069145 C26.5662651,29.9988848 24.6009036,38.8981413 25.0210843,40.9063197 C26.0240964,41.4152416 28.938253,41.5802974 30.1987952,40.8788104 C30.7138554,40.5899628 30.7138554,40.2873606 30.7138554,40.1910781 C30.7138554,38.0866171 30.9442771,23.1078067 31.2424699,19.4078067 L31.9201807,19.4628253 C31.6355422,23.1490706 31.4051205,38.0866171 31.4051205,40.1910781 C31.4051205,40.5624535 31.2560241,41.0851301 30.5512048,41.4840149 C29.8192771,41.8828996 28.7620482,42.0479554 27.7048193,42.0479554 Z" id="Shape" fill="#000000"></path>
                <path d="M36.1762048,39.530855 C36.0135542,39.530855 35.8509036,39.530855 35.688253,39.5171004 C34.4548193,39.4345725 32.9638554,38.9806691 32.8283133,37.9903346 C32.746988,37.3576208 32.5165663,36.3122677 32.2454819,34.9780669 C31.8388554,33.066171 31.3373494,30.6728625 30.9307229,28.0869888 L31.5948795,27.9769517 C32.001506,30.5490706 32.503012,32.9286245 32.9096386,34.8267658 C33.1942771,36.1609665 33.4111446,37.2200743 33.5060241,37.8802974 C33.5737952,38.3342007 34.5225904,38.7468401 35.7424699,38.829368 C37.1927711,38.9256506 38.7786145,38.5405204 39.0903614,37.6052045 C38.8057229,34.6479554 35.9728916,28.5684015 35.0376506,26.9728625 L35.6204819,26.6152416 C36.5828313,28.2520446 39.5240964,34.5654275 39.7680723,37.6052045 L39.7680723,37.660223 L39.7545181,37.7152416 C39.4156627,38.9944238 37.7891566,39.530855 36.1762048,39.530855 Z" id="Shape" fill="#000000"></path>
                <path d="M53.878012,57.5907063 L53.4307229,57.4118959 C53.7153614,56.6553903 55.0707831,56.2152416 57.7003012,56.0226766 C60.3975904,55.8301115 61.9021084,56.1052045 62.3222892,56.86171 L61.9021084,57.095539 C61.753012,56.8342007 61.061747,56.2565056 57.7274096,56.5040892 C54.6506024,56.7379182 54,57.2743494 53.878012,57.5907063 Z" id="Shape" fill="#000000"></path>
            </g>
            <g id="Group" transform="translate(41.340361, 30.672862)">
                <g transform="translate(10.436747, 0.000000)" id="Shape">
                    <path d="M23.1641566,42.6394052 C22.2289157,42.6394052 21.2936747,42.3918216 20.4533133,41.9516729 C19.0978916,41.2226766 18.1084337,39.998513 17.6746988,38.4992565 C17.2409639,37 17.376506,35.4319703 18.1084337,34.0565056 C19.0165663,32.3234201 20.751506,31.1680297 22.7033133,31.002974 C22.8388554,30.9892193 22.9879518,30.9066914 23.0557229,30.7553903 C23.1370482,30.6178439 23.1370482,30.4665428 23.0557229,30.3289963 L22.9608434,30.1501859 L0.813253012,1.07286245 L2.42620482,0.591449814 L12.2936747,5.95576208 L27.311747,32.3509294 C27.4743976,32.5572491 30.1987952,35.9408922 28.2876506,39.572119 C27.2439759,41.4702602 25.2921687,42.6394052 23.1641566,42.6394052 Z M23.1912651,33.6713755 C22.0391566,33.6713755 21.0090361,34.2903346 20.4668675,35.3219331 C20.0737952,36.064684 19.9924699,36.9174721 20.2228916,37.701487 C20.4668675,38.5130112 20.9954819,39.1594796 21.7138554,39.5583643 C22.1746988,39.805948 22.6626506,39.9159851 23.1641566,39.9159851 C24.3162651,39.9159851 25.3463855,39.297026 25.8885542,38.2654275 C26.2816265,37.5226766 26.3629518,36.6698885 26.1325301,35.8858736 C25.8885542,35.0743494 25.3599398,34.427881 24.6415663,34.0289963 C24.1942771,33.7951673 23.6792169,33.6713755 23.1912651,33.6713755 Z" fill="#FCFAE3"></path>
                    <path d="M2.35843373,1.05910781 L11.9412651,6.27211896 L26.8915663,32.5710037 C26.9051205,32.6122677 26.9457831,32.6535316 26.9728916,32.6947955 C26.9864458,32.7360595 29.6430723,35.9684015 27.8539157,39.3520446 C26.9186747,41.1126394 25.1295181,42.1992565 23.1777108,42.1992565 C22.2966867,42.1992565 21.4427711,41.9791822 20.6701807,41.5527881 C18.0813253,40.1635688 17.1054217,36.8899628 18.501506,34.2628253 C19.3554217,32.6535316 20.9277108,31.5944238 22.7439759,31.4431227 C23.0421687,31.429368 23.2996988,31.236803 23.435241,30.9754647 C23.5707831,30.7141264 23.5707831,30.3840149 23.435241,30.1226766 L23.3403614,29.9438662 C23.3268072,29.9026022 23.2861446,29.8613383 23.2590361,29.8200743 L1.54518072,1.30669145 L2.35843373,1.05910781 Z M23.1912651,40.3973978 C24.5060241,40.3973978 25.6987952,39.6684015 26.3087349,38.4992565 C26.7424699,37.6464684 26.8509036,36.6836431 26.5662651,35.7758364 C26.2816265,34.8680297 25.685241,34.0977695 24.8584337,33.6576208 C24.3433735,33.3687732 23.7605422,33.2312268 23.1912651,33.2312268 C21.876506,33.2312268 20.6837349,33.960223 20.0737952,35.129368 C19.1656627,36.8624535 19.7891566,39.0494424 21.5240964,39.998513 C22.0120482,40.2598513 22.5948795,40.3973978 23.1912651,40.3973978 Z M2.43975904,0.0962825279 L0.0542168675,0.82527881 L22.5677711,30.3702602 L22.6626506,30.5490706 C20.6566265,30.727881 18.7454819,31.8832714 17.7289157,33.8364312 C16.1159639,36.8899628 17.2545181,40.7 20.25,42.336803 C21.185241,42.8457249 22.1746988,43.0795539 23.1777108,43.0795539 C25.3870482,43.0795539 27.5150602,41.869145 28.626506,39.764684 C30.7138554,35.8033457 27.6506024,32.1171004 27.6506024,32.1171004 L12.5918675,5.59814126 L2.43975904,0.0962825279 Z M23.1912651,39.5033457 C22.7710843,39.5033457 22.3373494,39.4070632 21.9442771,39.1869888 C20.6566265,38.4855019 20.1686747,36.8486989 20.8463855,35.5557621 C21.3207831,34.6479554 22.2424699,34.1390335 23.1912651,34.1390335 C23.6114458,34.1390335 24.0451807,34.235316 24.438253,34.4553903 C25.7259036,35.1568773 26.2138554,36.7936803 25.5361446,38.0866171 C25.0346386,38.9806691 24.126506,39.5033457 23.1912651,39.5033457 Z" fill="#402312"></path>
                </g>
                <g transform="translate(0.000000, 13.892193)" id="Shape">
                    <path d="M1.15210843,8.81672862 L0.677710843,7.17992565 L36.7319277,9.7795539 L37.0165663,9.76579926 C37.1521084,9.75204461 37.3012048,9.66951673 37.3689759,9.51821561 C37.4231928,9.38066914 37.4231928,9.21561338 37.3689759,9.09182156 C36.4337349,7.35873606 36.4201807,5.28178439 37.3283133,3.52118959 C38.3177711,1.62304833 40.2695783,0.453903346 42.3975904,0.453903346 C43.3328313,0.453903346 44.2680723,0.701486989 45.1084337,1.14163569 C46.4638554,1.87063197 47.4533133,3.09479554 47.8870482,4.59405204 C48.3207831,6.09330855 48.185241,7.66133829 47.4533133,9.03680297 C45.9216867,11.9252788 42.8584337,12.2416357 41.6114458,12.2416357 C41.2996988,12.2416357 41.0963855,12.227881 41.0692771,12.227881 L11.0060241,14.1672862 L1.15210843,8.81672862 Z M42.3975904,3.17732342 C41.2454819,3.17732342 40.2153614,3.79628253 39.6731928,4.82788104 C39.2801205,5.57063197 39.1987952,6.42342007 39.4292169,7.20743494 C39.6731928,8.01895911 40.2018072,8.66542751 40.9201807,9.06431227 C41.3810241,9.31189591 41.8689759,9.42193309 42.3704819,9.42193309 C43.5225904,9.42193309 44.5527108,8.80297398 45.0948795,7.77137546 C45.8945783,6.23085502 45.3388554,4.3464684 43.8207831,3.50743494 C43.3870482,3.28736059 42.8855422,3.17732342 42.3975904,3.17732342 Z" fill="#FCFAE3"></path>
                    <path d="M42.3975904,0.935315985 C43.2786145,0.935315985 44.1325301,1.15539033 44.9051205,1.58178439 C47.4939759,2.97100372 48.4698795,6.24460967 47.0737952,8.87174721 C45.6506024,11.5539033 42.7771084,11.8289963 41.5978916,11.8289963 C41.2996988,11.8289963 41.123494,11.8152416 41.123494,11.8152416 C41.0828313,11.8152416 41.0692771,11.8152416 41.0286145,11.8152416 C41.0150602,11.8152416 40.9879518,11.8152416 40.9743976,11.8152416 L11.1144578,13.7271375 L1.53162651,8.51412639 L1.2876506,7.68884758 L36.7048193,10.2472119 C36.7183735,10.2472119 36.7454819,10.2472119 36.7590361,10.2472119 C36.7725904,10.2472119 36.813253,10.2472119 36.8403614,10.2472119 L37.0436747,10.2334572 C37.3418675,10.2197026 37.5993976,10.0271375 37.7349398,9.76579926 C37.8704819,9.50446097 37.8704819,9.17434944 37.7349398,8.91301115 C36.8539157,7.30371747 36.8539157,5.37806691 37.6942771,3.76877323 C38.6295181,2.02193309 40.4186747,0.935315985 42.3975904,0.935315985 Z M42.3704819,9.88959108 C43.685241,9.88959108 44.878012,9.1605948 45.4879518,7.99144981 C46.3960843,6.25836431 45.7725904,4.07137546 44.0376506,3.12230483 C43.5225904,2.83345725 42.939759,2.69591078 42.3704819,2.69591078 C41.0557229,2.69591078 39.8629518,3.42490706 39.253012,4.59405204 C38.3448795,6.32713755 38.9683735,8.51412639 40.7033133,9.46319703 C41.2183735,9.75204461 41.8012048,9.88959108 42.3704819,9.88959108 Z M42.3975904,0.0275092937 C40.188253,0.0275092937 38.060241,1.23791822 36.9487952,3.34237918 C35.9186747,5.28178439 36.0135542,7.53754647 36.9894578,9.3394052 L36.7861446,9.35315985 L0.0677710843,6.68475836 L0.786144578,9.10557621 L10.9111446,14.6349442 L41.0150602,12.695539 C41.0150602,12.695539 41.2319277,12.7092937 41.5978916,12.7092937 C42.9262048,12.7092937 46.1927711,12.3929368 47.8463855,9.28438662 C49.4593373,6.23085502 48.3207831,2.42081784 45.3253012,0.78401487 C44.376506,0.26133829 43.373494,0.0275092937 42.3975904,0.0275092937 Z M42.3704819,9.00929368 C41.9503012,9.00929368 41.5165663,8.91301115 41.123494,8.6929368 C39.8358434,7.99144981 39.3478916,6.35464684 40.0256024,5.06171004 C40.5,4.15390335 41.4216867,3.64498141 42.3704819,3.64498141 C42.7906627,3.64498141 43.2243976,3.74126394 43.6174699,3.96133829 C44.9051205,4.66282528 45.3930723,6.29962825 44.7153614,7.59256506 C44.2409639,8.47286245 43.3328313,9.00929368 42.3704819,9.00929368 Z" fill="#402312"></path>
                </g>
                <g transform="translate(29.819277, 24.070632)">
                    <ellipse id="Oval" fill="#CCCBCB" cx="0.962349398" cy="1.03159851" rx="1" ry="1"></ellipse>
                    <path d="M0.962349398,1.9669145 C0.447289157,1.9669145 0.0271084337,1.54052045 0.0271084337,1.01784387 C0.0271084337,0.495167286 0.447289157,0.0687732342 0.962349398,0.0687732342 C1.47740964,0.0687732342 1.89759036,0.495167286 1.89759036,1.01784387 C1.89759036,1.54052045 1.47740964,1.9669145 0.962349398,1.9669145 Z M0.962349398,0.192565056 C0.515060241,0.192565056 0.149096386,0.56394052 0.149096386,1.01784387 C0.149096386,1.47174721 0.515060241,1.84312268 0.962349398,1.84312268 C1.40963855,1.84312268 1.77560241,1.47174721 1.77560241,1.01784387 C1.77560241,0.56394052 1.40963855,0.192565056 0.962349398,0.192565056 Z" id="Shape" fill="#402312"></path>
                </g>
            </g>
            <g id="Group" transform="translate(3.930723, 42.501859)">
                <path d="M2.52108434,16.2717472 C1.53162651,16.0654275 0.840361446,15.5702602 0.569277108,14.8550186 C0.243975904,14.0297398 0.555722892,13.0118959 1.43674699,12.0490706 C2.25,11.1687732 3.44277108,10.3710037 4.8253012,9.83457249 C5.35391566,9.64200743 5.89608434,9.46319703 6.4246988,9.3394052 L35.6475904,0.550185874 C35.7560241,0.536431227 35.8644578,0.508921933 35.9593373,0.536431227 C36.2168675,0.591449814 36.4066265,0.811524164 36.4337349,1.0866171 C36.4608434,1.36171004 36.3253012,1.59553903 36.0813253,1.7330855 L8.52560241,14.9925651 C8.09186747,15.2539033 7.57680723,15.4877323 7.03463855,15.7078067 C5.43524096,16.3267658 3.78162651,16.5468401 2.52108434,16.2717472 Z M9.39307229,11.4438662 C8.60692771,11.4851301 7.0753012,11.8702602 5.77409639,12.3516729 C4.22891566,12.9568773 3.94427711,13.3832714 3.87650602,13.5070632 C3.87650602,13.6033457 3.97138554,13.630855 4.01204819,13.6446097 C4.22891566,13.6858736 4.79819277,13.6858736 6.09939759,13.1907063 C7.56325301,12.6267658 8.86445783,11.8702602 9.39307229,11.4438662 Z" id="Shape" fill="#FCFAE3"></path>
                <path d="M35.8373494,0.990334572 C35.9864458,1.01784387 36.0406627,1.26542751 35.8644578,1.3204461 L8.32228916,14.5799257 C7.88855422,14.8412639 7.38704819,15.0888476 6.85843373,15.2814126 C5.27259036,15.9003717 3.71385542,16.0654275 2.58885542,15.8315985 C1.77560241,15.6665428 1.17921687,15.267658 0.948795181,14.6899628 C0.420180723,13.3007435 2.22289157,11.3063197 4.96084337,10.2472119 C5.48945783,10.0546468 6.00451807,9.88959108 6.49246988,9.7795539 L35.7153614,0.962825279 C35.7831325,0.976579926 35.8237952,0.976579926 35.8373494,0.990334572 Z M3.91716867,14.098513 C4.36445783,14.1947955 5.13704819,14.0710037 6.24849398,13.6171004 C7.96987952,12.9431227 10.2605422,11.6776952 10.0572289,11.1825279 C10.0301205,11.1 9.93524096,11.0587361 9.7996988,11.0312268 C9.0813253,10.8799257 7.04819277,11.4026022 5.61144578,11.9527881 C3.89006024,12.6267658 3.25301205,13.2594796 3.4563253,13.7546468 C3.52409639,13.905948 3.68674699,14.0434944 3.91716867,14.098513 Z M36.0271084,0.0962825279 C35.8509036,0.0550185874 35.6746988,0.0687732342 35.498494,0.123791822 L6.30271084,8.91301115 C5.74698795,9.02304833 5.20481928,9.20185874 4.6626506,9.40817844 C1.3689759,10.7011152 -0.569277108,13.0944238 0.162650602,14.9925651 C0.47439759,15.8453532 1.2876506,16.4505576 2.43975904,16.6843866 C3.78162651,16.9594796 5.51656627,16.7531599 7.21084337,16.0929368 C7.73945783,15.8728625 8.28162651,15.6390335 8.76957831,15.3501859 L36.2981928,2.10446097 C36.7048193,1.89814126 36.9487952,1.48550186 36.9081325,1.01784387 C36.813253,0.577695167 36.4743976,0.192565056 36.0271084,0.0962825279 Z" id="Shape" fill="#402312"></path>
            </g>
            <path d="M19.5180723,73.7936803 C15.6009036,73.298513 12.6054217,71.5379182 10.8433735,68.6907063 C8.64759036,65.1420074 8.40361446,60.0527881 10.1927711,54.7434944 L11.6024096,55.2249071 C9.98945783,60.0390335 10.1792169,64.770632 12.1039157,67.8791822 C13.6355422,70.3687732 16.1972892,71.8542751 19.6942771,72.2806691 L19.5180723,73.7936803 Z" id="Shape" fill="#CD2027"></path>
        </g>
    </g>
</svg>