<?xml version="1.0" encoding="UTF-8"?>
<svg width="90px" height="90px" viewBox="0 0 90 90" version="1.1" xmlns="http://www.w3.org/2000/svg" xmlns:xlink="http://www.w3.org/1999/xlink">
    <!-- Generator: Sketch 51.2 (57519) - http://www.bohemiancoding.com/sketch -->
    <title>Slice 1</title>
    <desc>Created with Sketch.</desc>
    <defs></defs>
    <g id="Page-1" stroke="none" stroke-width="1" fill="none" fill-rule="evenodd">
        <g id="Ремонт_Брендовая" transform="translate(0.000000, 2.000000)" fill-rule="nonzero">
            <path d="M81.3864043,46.7189189 C77.313059,40.692278 69.8747764,38.8992278 59.8926655,41.5555985 L59.5384615,40.1111969 C65.1091234,38.6335907 69.9713775,38.4841699 73.9964222,39.6629344 C77.6189624,40.7088803 80.5008945,42.8007722 82.5778175,45.8722008 L81.3864043,46.7189189 Z" id="Shape" fill="#CD2027"></path>
            <path d="M79.744186,75.5239382 L78.7620751,74.4281853 C79.0518784,74.1459459 79.3416816,73.8471042 79.6153846,73.5316602 C83.6565295,68.9162162 85.5402504,60.1003861 84.0107335,53.0444015 L85.4275492,52.7123552 C87.0858676,60.3328185 85.1055456,69.4972973 80.6940966,74.5277992 C80.3881932,74.8764479 80.0661896,75.2084942 79.744186,75.5239382 Z" id="Shape" fill="#CD2027"></path>
            <path d="M19.2880143,83.1444015 C14.6350626,83.1444015 11.9463327,80.7204633 10.6422182,79.0104247 C7.66368515,75.1420849 7.2450805,69.1818533 9.6118068,64.5332046 C11.3184258,61.1795367 15.0053667,58.5895753 18.9177102,55.8335907 C24.842576,51.6664093 30.960644,47.3498069 31.1538462,39.9617761 C31.3470483,32.1254826 25.4865832,29.3528958 19.8354204,26.6799228 C16.5992844,25.1525097 13.5563506,23.7081081 11.5438283,21.3837838 C8.56529517,17.9637066 8.03398927,12.5181467 10.2075134,7.85289575 C12.1073345,3.78532819 15.5849732,1.47760618 19.529517,1.71003861 C23.667263,1.94247104 25.9051878,4.93088803 28.2880143,8.1019305 C31.3309481,12.1528958 34.7763864,16.7351351 43.0840787,17.8142857 C52.5348837,19.0428571 55.5617174,17.1003861 59.7316637,14.3942085 C62.1788909,12.8169884 64.9481216,11.0239382 69.5044723,9.54633205 C76.9105546,7.13899614 81.1610018,8.53359073 83.3989267,10.1440154 C85.8139535,11.8706564 87.3112701,14.7926641 87.5044723,18.196139 C87.6815742,21.4667954 85.2504472,25.0694981 81.7084079,26.746332 C77.5706619,28.7054054 73.0143113,27.6926641 69.2146691,23.9239382 L70.2128801,22.8447876 C73.5456172,26.1486486 77.5223614,27.0783784 81.0966011,25.3849421 C84.0751342,23.9737452 86.2003578,20.9189189 86.0554562,18.2791506 C85.9588551,16.5525097 85.3792487,13.3814672 82.5778175,11.3725869 C79.7280859,9.34710425 75.3488372,9.21428571 69.9391771,10.9741313 C65.5599284,12.4019305 62.8711986,14.1451737 60.5044723,15.6725869 C56.2379249,18.4285714 52.8729875,20.6034749 42.9069767,19.3084942 C34.0035778,18.146332 30.2039356,13.0826255 27.1449016,9.03166023 C24.7781753,5.89382239 22.9266547,3.42007722 19.4490161,3.22084942 C16.1162791,3.02162162 13.1538462,5.01389961 11.5277281,8.51698842 C9.62790698,12.584556 10.078712,17.4656371 12.6386404,20.4042471 C14.4418605,22.496139 17.372093,23.8741313 20.4633274,25.3351351 C26.2754919,28.0911197 32.8604651,31.1957529 32.6350626,40.011583 C32.4257603,48.1633205 25.7119857,52.8949807 19.7710197,57.0787645 C16.019678,59.7185328 12.4776386,62.2254826 10.9320215,65.2471042 C8.82289803,69.3976834 9.19320215,74.6772201 11.8175313,78.0972973 C14.313059,81.334749 18.3542039,82.4138996 23.1842576,81.1023166 L23.5545617,82.5467181 C21.9445438,82.9783784 20.5438283,83.1444015 19.2880143,83.1444015 Z" id="Shape" fill="#CD2027"></path>
            <g id="Group" transform="translate(19.320215, 41.173745)">
                <path d="M41.2325581,0.597683398 C37.6100179,0.464864865 34.1484794,1.27837838 31.0733453,2.82239382 C28.0143113,1.26177606 24.5366726,0.448262548 20.9141324,0.597683398 C9.59570662,1.01274131 0.499105546,10.7915058 0.547406082,22.4795367 C0.595706619,34.4664093 10.0626118,44.1953668 21.686941,44.1953668 C25.0357782,44.1953668 28.2236136,43.365251 31.0572451,41.8876448 C33.9069767,43.365251 37.0948122,44.1953668 40.4275492,44.1953668 C52.0518784,44.1953668 61.5187835,34.4664093 61.5670841,22.4795367 C61.6314848,10.7915058 52.5509839,1.01274131 41.2325581,0.597683398 Z M40.4436494,39.9783784 C38.608229,39.9783784 36.8372093,39.6795367 35.1627907,39.1316602 C38.9946333,35.8444015 41.7316637,31.1957529 42.6171735,25.8664093 L42.9069767,23.9405405 C42.9230769,23.7911197 42.8264758,23.6583012 42.6815742,23.6583012 L40.9105546,23.6583012 L33.1502683,23.6583012 L33.1502683,27.8752896 L37.9159213,27.8752896 C36.6923077,31.727027 34.2450805,34.9478764 31.0733453,37.1061776 C27.90161,34.9644788 25.4543828,31.7436293 24.2307692,27.8752896 L28.9964222,27.8752896 L28.9964222,23.6583012 L21.236136,23.6583012 L19.4651163,23.6583012 C19.3202147,23.6583012 19.2075134,23.7911197 19.2397138,23.9405405 L19.529517,25.8664093 C20.4150268,31.1957529 23.1520572,35.8444015 26.9838998,39.1316602 C25.3094812,39.6795367 23.5384615,39.9783784 21.7030411,39.9783784 C11.9302326,39.9783784 4.05724508,31.46139 4.68515206,21.2509653 C5.21645796,12.5679537 11.9946333,5.4953668 20.4150268,4.84787645 C22.6690519,4.68185328 24.8747764,4.96409266 26.9194991,5.62818533 C23.940966,8.18494208 21.6386404,11.588417 20.3828265,15.5895753 L24.7298748,15.5895753 C26.0661896,12.2857143 28.3041145,9.56293436 31.0894454,7.68687259 C33.8747764,9.57953668 36.1127013,12.3023166 37.4490161,15.5895753 L41.7960644,15.5895753 C40.5241503,11.588417 38.2218247,8.18494208 35.2593918,5.62818533 C37.3041145,4.96409266 39.4937388,4.66525097 41.763864,4.84787645 C50.1842576,5.4953668 56.9624329,12.5679537 57.4937388,21.2509653 C58.1055456,31.46139 50.216458,39.9783784 40.4436494,39.9783784 Z" id="Shape" fill="#EEE7B3"></path>
                <path d="M40.4436494,44.6934363 C37.1753131,44.6934363 34.019678,43.946332 31.0733453,42.4521236 C28.1109123,43.946332 24.9713775,44.6934363 21.7030411,44.6934363 C9.82110912,44.6934363 0.128801431,34.7320463 0.0805008945,22.4795367 C0.0644007156,16.7019305 2.20572451,11.1899614 6.13416816,6.97297297 C10.0626118,2.75598456 15.3112701,0.315444015 20.9141324,0.0996138996 C21.1717352,0.083011583 21.4454383,0.083011583 21.7030411,0.083011583 C24.9874776,0.083011583 28.1431127,0.813513514 31.0733453,2.27451737 C34.019678,0.813513514 37.1592129,0.083011583 40.4436494,0.083011583 C40.7012522,0.083011583 40.9749553,0.083011583 41.2325581,0.0996138996 C46.8354204,0.315444015 52.0840787,2.73938224 56.0125224,6.97297297 C59.940966,11.1899614 62.0822898,16.7019305 62.0661896,22.4795367 C62.0339893,34.715444 52.3255814,44.6934363 40.4436494,44.6934363 Z M31.0733453,41.323166 L31.2826476,41.4393822 C34.1645796,42.9335907 37.2397138,43.680695 40.4436494,43.680695 C51.7942755,43.680695 61.0518784,34.1675676 61.1001789,22.4629344 C61.1484794,11.0903475 52.2128801,1.49420849 41.2003578,1.0957529 C40.9427549,1.07915058 40.6851521,1.07915058 40.4436494,1.07915058 C37.2236136,1.07915058 34.1484794,1.82625483 31.2826476,3.27065637 L31.0733453,3.38687259 L30.8640429,3.27065637 C27.9982111,1.80965251 24.9230769,1.07915058 21.7030411,1.07915058 C21.4454383,1.07915058 21.2039356,1.07915058 20.9463327,1.0957529 C9.93381038,1.51081081 0.998211091,11.0903475 1.04651163,22.4629344 C1.09481216,34.1675676 10.352415,43.680695 21.7030411,43.680695 C24.8908766,43.680695 27.9821109,42.9169884 30.8640429,41.4393822 L31.0733453,41.323166 Z M40.4436494,40.4764479 C38.5921288,40.4764479 36.7728086,40.1776062 35.0178891,39.5965251 L34.1806798,39.3142857 L34.8568873,38.7332046 C38.7048301,35.4293436 41.2969589,30.8305019 42.1502683,25.7667954 L42.391771,24.1397683 L40.9105546,24.1397683 L33.6332737,24.1397683 L33.6332737,27.3606178 L38.5760286,27.3606178 L38.3667263,28.0081081 C37.1431127,31.8930502 34.647585,35.2467181 31.3309481,37.5046332 L31.0733453,37.6872587 L30.8157424,37.5046332 C27.4991055,35.2633205 25.0035778,31.8930502 23.7799642,28.0081081 L23.5706619,27.3606178 L28.5134168,27.3606178 L28.5134168,24.1397683 L19.7549195,24.1397683 L19.9964222,25.7667954 C20.8336315,30.8138996 23.4257603,35.4127413 27.273703,38.7166023 L27.9499106,39.2976834 L27.1127013,39.5799228 C25.3577818,40.1610039 23.5384615,40.4598456 21.686941,40.4598456 C16.8729875,40.4598456 12.2039356,38.3679537 8.90339893,34.7486486 C5.55456172,31.0629344 3.88014311,26.2648649 4.18604651,21.2011583 C4.73345259,12.2525097 11.6887299,4.9972973 20.3667263,4.33320463 C22.6368515,4.16718147 24.9069767,4.43281853 27.0483005,5.13011583 L27.8855098,5.41235521 L27.2093023,5.99343629 C24.4078712,8.4007722 22.2826476,11.5220077 21.0429338,15.0749035 L24.391771,15.0749035 C25.7602862,11.8706564 27.9660107,9.16447876 30.8157424,7.23861004 L31.0733453,7.05598456 L31.3309481,7.23861004 C34.1645796,9.16447876 36.3864043,11.8706564 37.7549195,15.0749035 L41.1037567,15.0749035 C39.8479428,11.53861 37.7227191,8.4007722 34.9373882,5.99343629 L34.2611807,5.41235521 L35.09839,5.13011583 C37.2397138,4.43281853 39.509839,4.15057915 41.7799642,4.33320463 C50.4579606,4.9972973 57.3971377,12.2525097 57.960644,21.2011583 C58.2665474,26.2482625 56.5921288,31.0629344 53.2432916,34.7486486 C49.9266547,38.384556 45.273703,40.4764479 40.4436494,40.4764479 Z M36.1610018,38.8992278 C37.5617174,39.2810811 38.9946333,39.4803089 40.4436494,39.4803089 C45,39.4803089 49.3953488,37.5046332 52.5187835,34.084556 C55.6905188,30.5980695 57.2683363,26.0656371 56.9785331,21.2841699 C56.4633274,12.8169884 49.8944544,5.97683398 41.6994633,5.34594595 C39.8479428,5.21312741 37.9964222,5.37915058 36.2254025,5.86061776 C38.9946333,8.45057915 41.0715564,11.7378378 42.2468694,15.4401544 L42.4561717,16.0876448 L37.1109123,16.0876448 L36.9821109,15.7888031 C35.7423971,12.7339768 33.6976744,10.1440154 31.0733453,8.28455598 C28.4329159,10.1440154 26.3881932,12.7339768 25.1645796,15.7888031 L25.0357782,16.0876448 L19.6905188,16.0876448 L19.8998211,15.4401544 C21.0751342,11.7378378 23.1520572,8.45057915 25.921288,5.86061776 C24.1502683,5.37915058 22.2987478,5.21312741 20.4472272,5.34594595 C12.2522361,5.97683398 5.68336315,12.8169884 5.16815742,21.2841699 C4.8783542,26.0490347 6.45617174,30.5980695 9.62790698,34.084556 C12.7513417,37.5212355 17.1627907,39.4803089 21.7030411,39.4803089 C23.1520572,39.4803089 24.6010733,39.2810811 26.0017889,38.8992278 C22.3470483,35.4957529 19.8998211,30.9301158 19.0626118,25.9494208 L18.7728086,24.0069498 C18.7406082,23.7911197 18.8050089,23.5752896 18.9338104,23.4092664 C19.0626118,23.2432432 19.2719141,23.1436293 19.4812165,23.1436293 L21.2522361,23.1436293 L29.4955277,23.1436293 L29.4955277,28.3567568 L24.9230769,28.3567568 C26.09839,31.6440154 28.2719141,34.4996139 31.0894454,36.4752896 C33.9069767,34.4830116 36.0644007,31.6274131 37.255814,28.3567568 L32.6833631,28.3567568 L32.6833631,23.1436293 L42.6976744,23.1436293 C42.9069767,23.1436293 43.1001789,23.2432432 43.2450805,23.4092664 C43.3738819,23.5752896 43.4382826,23.7911197 43.4060823,24.0069498 L43.1162791,25.9328185 C42.2629696,30.9301158 39.8157424,35.4957529 36.1610018,38.8992278 Z" id="Shape" fill="#000000"></path>
            </g>
            <g id="Group" transform="translate(14.168157, 0.000000)">
                <polygon id="Shape" fill="#54A7C5" points="24.4883721 41.4393822 29.0769231 41.4393822 47.2379249 3.58610039 53.5974955 3.58610039 53.5974955 0.531274131 36.177102 0.531274131 36.177102 3.58610039 42.7620751 3.58610039 28.2719141 33.6030888 24.7942755 26.4640927 33.4400716 9.16447876 38.5277281 9.16447876 38.5277281 6.10965251 20.0769231 6.10965251 20.0769231 9.16447876 25.3577818 9.16447876 20.881932 18.4285714 13.6529517 3.58610039 18.9177102 3.58610039 18.9177102 0.531274131 0.483005367 0.531274131 0.483005367 3.58610039 5.55456172 3.58610039 16.9856887 26.4474903 7.95348837 45.1084942 3.44543828 45.1084942 3.44543828 48.1633205 45.8533095 48.1633205 51.1502683 36.2096525 42.2790698 45.1084942 15.4722719 45.1084942 20.8980322 34.2671815"></polygon>
                <path d="M46.1592129,48.66139 L2.96243292,48.66139 L2.96243292,44.6104247 L7.66368515,44.6104247 L16.4543828,26.4474903 L5.28085868,4.08416988 L0,4.08416988 L0,0.0332046332 L19.4168157,0.0332046332 L19.4168157,4.08416988 L14.4418605,4.08416988 L20.881932,17.2996139 L24.5849732,9.66254826 L19.6100179,9.66254826 L19.6100179,5.61158301 L39.0268336,5.61158301 L39.0268336,9.66254826 L33.7620751,9.66254826 L25.3577818,26.4640927 L28.2880143,32.4907336 L42.0053667,4.08416988 L35.7101968,4.08416988 L35.7101968,0.0332046332 L54.0966011,0.0332046332 L54.0966011,4.08416988 L47.5438283,4.08416988 L29.3828265,41.9374517 L24.1985689,41.9374517 L20.8980322,35.346332 L16.2772809,44.5938224 L42.0858676,44.5938224 L52.6636852,33.9849421 L46.1592129,48.66139 Z M3.92844365,47.665251 L45.5474061,47.665251 L49.6368515,38.4343629 L42.4883721,45.6065637 L14.6833631,45.6065637 L20.8980322,33.1714286 L24.7781753,40.9413127 L28.7710197,40.9413127 L46.9320215,3.08803089 L53.1144902,3.08803089 L53.1144902,1.02934363 L36.6601073,1.02934363 L36.6601073,3.08803089 L43.5509839,3.08803089 L28.2719141,34.7320463 L24.2468694,26.480695 L33.1502683,8.68301158 L38.0447227,8.68301158 L38.0447227,6.62432432 L20.5599284,6.62432432 L20.5599284,8.68301158 L26.1305903,8.68301158 L20.8658318,19.557529 L12.8479428,3.1046332 L18.4186047,3.1046332 L18.4186047,1.04594595 L0.966010733,1.04594595 L0.966010733,3.1046332 L5.86046512,3.1046332 L17.5330948,26.4640927 L8.25939177,45.623166 L3.92844365,45.623166 L3.92844365,47.665251 Z" id="Shape" fill="#000000"></path>
            </g>
            <path d="M23.5062612,82.5467181 L23.1359571,81.1023166 C28.5939177,79.6413127 31.9266547,76.6196911 34.8729875,73.9633205 C38.608229,70.5764479 41.8282648,67.6544402 47.9141324,68.8166023 C51.2790698,69.4640927 54.9177102,71.1907336 58.4275492,72.8675676 C62.0661896,74.6108108 65.8336315,76.403861 69.3273703,77.0181467 C73.1914132,77.6988417 76.1860465,76.8687259 78.7620751,74.4281853 L79.744186,75.5239382 C76.8461538,78.2799228 73.3685152,79.2428571 69.0858676,78.4957529 C65.3989267,77.8482625 61.5348837,76.0054054 57.8157424,74.2289575 C54.2254025,72.5189189 50.8443649,70.8918919 47.6565295,70.2942085 C42.2790698,69.2648649 39.4293381,71.8382239 35.8389982,75.092278 C32.763864,77.8648649 29.3023256,81.0027027 23.5062612,82.5467181 Z" id="Shape" fill="#CD2027"></path>
            <g id="Group" transform="translate(0.000000, 19.590734)">
                <g transform="translate(9.982111, 0.000000)" id="Shape">
                    <path d="M7.13237925,0.614285714 C8.19499106,0.614285714 9.25760286,0.87992278 10.2075134,1.39459459 C11.7531306,2.22471042 12.8801431,3.65250965 13.3792487,5.37915058 C13.8783542,7.10579151 13.7334526,8.91544402 12.8962433,10.5092664 C11.8658318,12.5181467 9.90161002,13.846332 7.67978533,14.0455598 C7.51878354,14.0621622 7.35778175,14.1617761 7.27728086,14.3277992 C7.18067979,14.4938224 7.18067979,14.6598456 7.27728086,14.8258687 L7.38998211,15.0416988 L32.6833631,48.5783784 L30.8479428,49.1428571 L19.6100179,42.9667954 L2.44722719,12.5015444 C2.27012522,12.269112 -0.837209302,8.35096525 1.32021467,4.15057915 C2.49552773,1.97567568 4.70125224,0.614285714 7.13237925,0.614285714 Z M7.13237925,10.9741313 C8.43649374,10.9741313 9.6118068,10.2436293 10.2236136,9.04826255 C10.6744186,8.18494208 10.7549195,7.20540541 10.4812165,6.29227799 C10.2075134,5.36254826 9.59570662,4.61544402 8.7745975,4.15057915 C8.25939177,3.86833977 7.67978533,3.73552124 7.11627907,3.73552124 C5.81216458,3.73552124 4.63685152,4.46602317 4.02504472,5.66138996 C3.57423971,6.52471042 3.49373882,7.5042471 3.76744186,8.41737452 C4.0411449,9.34710425 4.6529517,10.0942085 5.47406082,10.5590734 C5.97316637,10.8247104 6.56887299,10.9741313 7.13237925,10.9741313 Z" fill="#FCFAE3"></path>
                    <path d="M30.9123435,48.5949807 L19.9964222,42.6015444 L2.8980322,12.269112 C2.88193202,12.219305 2.83363148,12.1694981 2.80143113,12.1362934 C2.78533095,12.0864865 -0.241502683,8.36756757 1.78711986,4.44942085 C2.84973166,2.42393822 4.8783542,1.14555985 7.10017889,1.14555985 C8.09838998,1.14555985 9.06440072,1.39459459 9.94991055,1.87606178 C12.8962433,3.46988417 14.0071556,7.25521236 12.4454383,10.2934363 C11.4794275,12.1694981 9.69230769,13.3814672 7.63148479,13.580695 C7.29338104,13.5972973 7.00357782,13.8131274 6.84257603,14.1119691 C6.68157424,14.4108108 6.68157424,14.7926641 6.84257603,15.0915058 L6.95527728,15.3073359 C6.97137746,15.3571429 7.019678,15.4069498 7.05187835,15.4401544 L31.8461538,48.3293436 L30.9123435,48.5949807 Z M7.11627907,3.2042471 C5.61896243,3.2042471 4.26654741,4.05096525 3.57423971,5.41235521 C3.07513417,6.39189189 2.96243292,7.52084942 3.28443649,8.56679537 C3.60644007,9.61274131 4.28264758,10.4926641 5.23255814,11.0073359 C5.82826476,11.3393822 6.47227191,11.4888031 7.13237925,11.4888031 C8.62969589,11.4888031 9.98211091,10.6420849 10.6744186,9.28069498 C11.7048301,7.27181467 10.980322,4.74826255 9.01610018,3.66911197 C8.45259392,3.35366795 7.79248658,3.2042471 7.11627907,3.2042471 Z M30.8318426,49.7073359 L33.5366726,48.8606178 L7.84078712,14.7926641 L7.72808587,14.576834 C10.0143113,14.3610039 12.1878354,13.0328185 13.3309481,10.7583012 C15.1502683,7.23861004 13.8461538,2.82239382 10.4329159,0.946332046 C9.37030411,0.365250965 8.24329159,0.083011583 7.10017889,0.0996138996 C4.58855098,0.0996138996 2.17352415,1.51081081 0.917710197,3.93474903 C-1.4490161,8.51698842 2.04472272,12.7671815 2.04472272,12.7671815 L19.2719141,43.365251 L30.8318426,49.7073359 Z M7.11627907,4.23359073 C7.59928444,4.23359073 8.0822898,4.34980695 8.54919499,4.5988417 C10.0143113,5.41235521 10.5617174,7.30501931 9.80500894,8.7992278 C9.25760286,9.84517375 8.22719141,10.4428571 7.13237925,10.4428571 C6.64937388,10.4428571 6.16636852,10.3266409 5.69946333,10.0776062 C4.23434705,9.26409266 3.68694097,7.37142857 4.44364937,5.87722008 C5.00715564,4.84787645 6.05366726,4.23359073 7.11627907,4.23359073 Z" fill="#402312"></path>
                </g>
                <g transform="translate(0.000000, 16.768340)" id="Shape">
                    <path d="M54.0805009,6.75714286 L54.627907,8.64980695 L13.6046512,5.76100386 L13.2826476,5.77760618 C13.1216458,5.79420849 12.960644,5.89382239 12.8801431,6.05984556 C12.8157424,6.22586873 12.8157424,6.40849421 12.8801431,6.55791506 C13.9427549,8.56679537 13.9749553,10.957529 12.9445438,12.9996139 C11.8175313,15.1911197 9.6118068,16.5525097 7.18067979,16.569112 C6.11806798,16.569112 5.05545617,16.3034749 4.10554562,15.7888031 C2.55992844,14.9586873 1.43291592,13.530888 0.933810376,11.8042471 C0.43470483,10.0776062 0.57960644,8.26795367 1.41681574,6.67413127 C3.15563506,3.33706564 6.6332737,2.95521236 8.05008945,2.93861004 C8.40429338,2.93861004 8.64579606,2.95521236 8.66189624,2.95521236 L42.8264758,0.614285714 L54.0805009,6.75714286 Z M7.19677996,13.4312741 C8.50089445,13.4312741 9.67620751,12.7007722 10.2880143,11.5054054 C10.7388193,10.6420849 10.8193202,9.66254826 10.5456172,8.74942085 C10.2719141,7.81969112 9.66010733,7.07258687 8.83899821,6.60772201 C8.32379249,6.32548263 7.74418605,6.19266409 7.18067979,6.19266409 C5.8765653,6.19266409 4.70125224,6.92316602 4.08944544,8.11853282 C3.18783542,9.89498069 3.83184258,12.0864865 5.55456172,13.0328185 C6.05366726,13.2818533 6.6332737,13.4312741 7.19677996,13.4312741 Z" fill="#FCFAE3"></path>
                    <path d="M7.19677996,16.0212355 C6.19856887,16.0212355 5.23255814,15.7722008 4.3470483,15.2907336 C1.40071556,13.6969112 0.28980322,9.91158301 1.85152057,6.87335907 C3.44543828,3.76872587 6.72987478,3.43667954 8.06618962,3.42007722 C8.40429338,3.42007722 8.61359571,3.43667954 8.61359571,3.43667954 C8.66189624,3.43667954 8.67799642,3.43667954 8.72629696,3.43667954 C8.74239714,3.43667954 8.7745975,3.43667954 8.79069767,3.43667954 L42.7298748,1.12895753 L53.6457961,7.12239382 L53.9194991,8.08532819 L13.6207513,5.24633205 C13.6046512,5.24633205 13.5724508,5.24633205 13.5563506,5.24633205 C13.5402504,5.24633205 13.4919499,5.24633205 13.4597496,5.24633205 L13.234347,5.26293436 C12.8962433,5.27953668 12.6064401,5.4953668 12.4454383,5.79420849 C12.2844365,6.09305019 12.2844365,6.47490347 12.4454383,6.77374517 C13.4436494,8.63320463 13.4436494,10.8579151 12.509839,12.7173745 C11.4633274,14.7428571 9.43470483,16.0046332 7.19677996,16.0212355 Z M7.19677996,5.66138996 C5.69946333,5.66138996 4.3470483,6.50810811 3.65474061,7.86949807 C2.62432916,9.87837838 3.34883721,12.4019305 5.31305903,13.4810811 C5.90876565,13.8131274 6.55277281,13.9625483 7.21288014,13.9625483 C8.71019678,13.9625483 10.0626118,13.1158301 10.7549195,11.7544402 C11.7853309,9.74555985 11.0608229,7.22200772 9.09660107,6.14285714 C8.50089445,5.81081081 7.84078712,5.66138996 7.19677996,5.66138996 Z M7.19677996,17.0671815 C9.70840787,17.0671815 12.1234347,15.6559846 13.3792487,13.2320463 C14.5545617,10.9907336 14.4257603,8.38416988 13.3148479,6.30888031 L13.5402504,6.29227799 L55.3041145,9.24749035 L54.4830054,6.45830116 L42.9552773,0.0996138996 L8.71019678,2.44054054 C8.71019678,2.44054054 8.4686941,2.42393822 8.05008945,2.42393822 C6.53667263,2.42393822 2.83363148,2.80579151 0.966010733,6.40849421 C-0.853309481,9.92818533 0.450805009,14.3444015 3.86404293,16.2204633 C4.94275492,16.7849421 6.08586762,17.0671815 7.19677996,17.0671815 Z M7.19677996,6.69073359 C7.67978533,6.69073359 8.1627907,6.80694981 8.62969589,7.05598456 C10.0948122,7.86949807 10.6422182,9.76216216 9.88550984,11.2563707 C9.33810376,12.3023166 8.30769231,12.9 7.21288014,12.9 C6.72987478,12.9 6.24686941,12.7837838 5.77996422,12.534749 C4.31484794,11.7212355 3.76744186,9.82857143 4.52415027,8.33436293 C5.07155635,7.30501931 6.1019678,6.69073359 7.19677996,6.69073359 Z" fill="#402312"></path>
                </g>
                <g transform="translate(19.159213, 19.756757)">
                    <ellipse id="Oval" fill="#CCCBCB" cx="1.2236136" cy="1.11235521" rx="1" ry="1.02934363"></ellipse>
                    <path d="M1.20751342,0.0166023166 C1.78711986,0.0166023166 2.27012522,0.498069498 2.27012522,1.11235521 C2.27012522,1.71003861 1.80322004,2.20810811 1.20751342,2.20810811 C0.627906977,2.20810811 0.14490161,1.72664093 0.14490161,1.11235521 C0.161001789,0.514671815 0.627906977,0.0332046332 1.20751342,0.0166023166 Z M1.2236136,2.07528958 C1.73881932,2.07528958 2.15742397,1.64362934 2.15742397,1.11235521 C2.15742397,0.581081081 1.73881932,0.149420849 1.2236136,0.149420849 C0.708407871,0.149420849 0.28980322,0.581081081 0.28980322,1.11235521 C0.28980322,1.64362934 0.708407871,2.07528958 1.2236136,2.07528958 Z" id="Shape" fill="#402312"></path>
                </g>
            </g>
            <g id="Group" transform="translate(46.046512, 41.007722)">
                <path d="M40.9105546,0.763706564 C42.0858676,1.01274131 42.9069767,1.61042471 43.2289803,2.47374517 C43.6153846,3.46988417 43.2450805,4.6984556 42.1985689,5.86061776 C41.2486583,6.92316602 39.8157424,7.9027027 38.1735242,8.55019305 C37.5456172,8.7992278 36.90161,8.9984556 36.273703,9.14787645 L1.62611807,19.8563707 C1.49731664,19.872973 1.36851521,19.9061776 1.25581395,19.872973 C0.949910555,19.8065637 0.72450805,19.5409266 0.692307692,19.2088803 C0.660107335,18.876834 0.821109123,18.5945946 1.11091234,18.4285714 L33.7942755,2.32432432 C34.3094812,2.00888031 34.921288,1.71003861 35.5652952,1.44440154 C37.4490161,0.713899614 39.4132379,0.448262548 40.9105546,0.763706564 Z M32.763864,6.60772201 C33.6976744,6.55791506 35.5169946,6.09305019 37.0626118,5.4953668 C38.8980322,4.76486486 39.236136,4.23359073 39.3166369,4.1007722 C39.3166369,3.98455598 39.2039356,3.95135135 39.1556351,3.93474903 C38.8980322,3.88494208 38.2218247,3.88494208 36.6923077,4.48262548 C34.9373882,5.17992278 33.391771,6.09305019 32.763864,6.60772201 Z" id="Shape" fill="#FCFAE3"></path>
                <path d="M1.38461538,19.3250965 C1.19141324,19.2918919 1.1431127,18.9930502 1.33631485,18.9266409 L34.019678,2.82239382 C34.5348837,2.50694981 35.1305903,2.20810811 35.7584973,1.97567568 C37.6422182,1.22857143 39.4937388,1.01274131 40.8300537,1.29498069 C41.7960644,1.49420849 42.5044723,1.97567568 42.7781753,2.67297297 C43.4060823,4.34980695 41.2808587,6.75714286 38.0286225,8.03552124 C37.4007156,8.28455598 36.7889088,8.46718147 36.2093023,8.6 L1.52951699,19.3416988 C1.4490161,19.3416988 1.40071556,19.3416988 1.38461538,19.3250965 Z M39.2522361,3.4034749 C38.7209302,3.28725869 37.80322,3.45328185 36.4830054,3.98455598 C34.4382826,4.7980695 31.7334526,6.34208494 31.9749553,6.93976834 C32.0071556,7.03938224 32.1198569,7.08918919 32.2808587,7.12239382 C33.1341682,7.30501931 35.549195,6.65752896 37.255814,5.99343629 C39.3005367,5.17992278 40.0572451,4.41621622 39.7996422,3.81853282 C39.7191413,3.61930502 39.5420394,3.45328185 39.2522361,3.4034749 Z M1.17531306,20.4042471 C1.38461538,20.4540541 1.59391771,20.4374517 1.80322004,20.3710425 L36.450805,9.66254826 C37.1109123,9.52972973 37.7549195,9.31389961 38.3989267,9.04826255 C42.2951699,7.47104247 44.6135957,4.58223938 43.7280859,2.29111969 C43.3577818,1.26177606 42.391771,0.547876448 41.0232558,0.249034749 C39.4293381,-0.083011583 37.3685152,0.182625483 35.3559928,0.97953668 C34.7280859,1.24517375 34.0840787,1.52741313 33.5205725,1.89266409 L0.86940966,17.9803089 C0.386404293,18.2293436 0.0966010733,18.7440154 0.14490161,19.2918919 C0.225402504,19.8397683 0.644007156,20.2880309 1.17531306,20.4042471 Z" id="Shape" fill="#402312"></path>
            </g>
            <path d="M84.0107335,53.0444015 C83.4794275,50.6370656 82.6100179,48.5119691 81.3864043,46.7189189 L82.5778175,45.8555985 C83.8980322,47.8146718 84.8640429,50.1223938 85.4275492,52.7123552 L84.0107335,53.0444015 Z" id="Shape" fill="#CD2027"></path>
        </g>
    </g>
</svg>