<?xml version="1.0" encoding="UTF-8"?>
<svg width="90px" height="90px" viewBox="0 0 90 90" version="1.1" xmlns="http://www.w3.org/2000/svg" xmlns:xlink="http://www.w3.org/1999/xlink">
    <!-- Generator: Sketch 51.2 (57519) - http://www.bohemiancoding.com/sketch -->
    <title>Slice 1</title>
    <desc>Created with Sketch.</desc>
    <defs></defs>
    <g id="Page-1" stroke="none" stroke-width="1" fill="none" fill-rule="evenodd">
        <g id="Ремонт_Брюки" fill-rule="nonzero">
            <path d="M81.3220036,48.8571429 C77.2486583,43.3010204 69.8103757,41.6479592 59.8282648,44.0969388 L59.4740608,42.7653061 C65.0447227,41.4030612 69.9069767,41.2653061 73.9320215,42.3520408 C77.5545617,43.3163265 80.4364937,45.244898 82.5134168,48.0765306 L81.3220036,48.8571429 Z" id="Shape" fill="#CD2027"></path>
            <path d="M79.6797853,75.4132653 L78.6976744,74.4030612 C78.9874776,74.1428571 79.2772809,73.8673469 79.5509839,73.5765306 C83.5921288,69.3214286 85.4758497,61.1938776 83.9463327,54.6887755 L85.3631485,54.3826531 C87.0214669,61.4081633 85.0411449,69.8571429 80.6296959,74.494898 C80.3237925,74.8163265 80.0017889,75.122449 79.6797853,75.4132653 Z" id="Shape" fill="#CD2027"></path>
            <path d="M19.2236136,82.4387755 C14.5706619,82.4387755 11.881932,80.2040816 10.5778175,78.627551 C7.59928444,75.0612245 7.18067979,69.5663265 9.54740608,65.2806122 C11.254025,62.1887755 14.940966,59.8010204 18.8533095,57.2602041 C24.7781753,53.4183673 30.8962433,49.4387755 31.0894454,42.627551 C31.2826476,35.4030612 25.4221825,32.8469388 19.7710197,30.3826531 C16.5348837,28.9744898 13.4919499,27.6428571 11.4794275,25.5 C8.50089445,22.3469388 7.96958855,17.3265306 10.1431127,13.0255102 C12.0429338,9.2755102 15.5205725,7.14795918 19.4651163,7.3622449 C23.6028623,7.57653061 25.8407871,10.3316327 28.2236136,13.255102 C31.2665474,16.9897959 34.7119857,21.2142857 43.019678,22.2091837 C52.470483,23.3418367 55.4973166,21.5510204 59.667263,19.0561224 C62.1144902,17.6020408 64.8837209,15.9489796 69.4400716,14.5867347 C76.8461538,12.3673469 81.0966011,13.6530612 83.3345259,15.1377551 C85.7495528,16.7295918 87.2468694,19.4234694 87.4400716,22.5612245 C87.6171735,25.5765306 85.1860465,28.8979592 81.6440072,30.4438776 C77.490161,32.25 72.9499106,31.3163265 69.1502683,27.8418367 L70.1484794,26.8469388 C73.4812165,29.8928571 77.4579606,30.75 81.0322004,29.1887755 C84.0107335,27.8877551 86.1359571,25.0714286 85.9910555,22.6377551 C85.8944544,21.0459184 85.3148479,18.122449 82.5134168,16.2704082 C79.6636852,14.4030612 75.2844365,14.2806122 69.8747764,15.9030612 C65.4955277,17.2193878 62.8067979,18.8265306 60.4400716,20.2346939 C56.1735242,22.7755102 52.8085868,24.7806122 42.842576,23.5867347 C33.9391771,22.5153061 30.1395349,17.8469388 27.0805009,14.1122449 C24.7137746,11.2193878 22.862254,8.93877551 19.3846154,8.75510204 C16.0518784,8.58673469 13.0894454,10.4081633 11.4633274,13.6377551 C9.56350626,17.3877551 10.0143113,21.8877551 12.5742397,24.5969388 C14.3774597,26.5255102 17.3076923,27.7959184 20.3989267,29.1428571 C26.2110912,31.6836735 32.7960644,34.5459184 32.5706619,42.6734694 C32.3613596,50.1887755 25.647585,54.5510204 19.706619,58.4081633 C15.9552773,60.8418367 12.4132379,63.1530612 10.8676208,65.9387755 C8.75849732,69.7653061 9.12880143,74.6326531 11.7531306,77.7857143 C14.2486583,80.7704082 18.2898032,81.7653061 23.1198569,80.5561224 L23.490161,81.8877551 C21.8801431,82.2857143 20.4794275,82.4387755 19.2236136,82.4387755 Z" id="Shape" fill="#CD2027"></path>
            <path d="M69.745975,54.4744898 L69.1824687,37.3469388 L67.8783542,17.3571429 C67.8783542,17.3571429 67.5402504,3.26020408 65.3667263,1.5 C63.9821109,1.3622449 62.4686941,1.23979592 60.9391771,1.14795918 C56.6565295,0.857142857 52.1484794,0.704081633 49.3631485,0.642857143 L49.3631485,0.612244898 C49.2665474,0.612244898 48.7674419,0.581632653 48.0107335,0.612244898 C47.2379249,0.612244898 46.7549195,0.612244898 46.6583184,0.612244898 L46.6583184,0.642857143 C43.8568873,0.719387755 39.3488372,0.87244898 35.0822898,1.14795918 C33.5527728,1.25510204 32.039356,1.3622449 30.6547406,1.5 C28.4812165,3.22959184 28.1431127,17.3571429 28.1431127,17.3571429 L26.7906977,37.3469388 L26.2271914,54.4744898 C26.2271914,54.4744898 24.1341682,85.1479592 24.3112701,88.0255102 C25.470483,88.8061224 38.6887299,89.4183673 38.1896243,88.7908163 L47.7692308,25.6989796 L47.9946333,22.1326531 L48.0751342,22.0408163 L48.3166369,25.6836735 L57.783542,88.9132653 C57.2844365,89.5408163 69.0214669,89.0204082 71.549195,88.0255102 C71.549195,85.1173469 69.745975,54.4744898 69.745975,54.4744898 Z" id="Shape" fill="#C8C9C2"></path>
            <polygon id="Shape" fill="#837F7B" points="31.4919499 1.23979592 37.4168157 3.04591837 39.1073345 3.36734694 39.9767442 2.66326531 40.5080501 2.20408163 43.2128801 2.7244898 43.2128801 3.71938776 47.3345259 4.68367347 49.7978533 4.3622449 51.9552773 4.17857143 52.921288 2.95408163 55.6100179 2.20408163 56.7692308 3.52040816 64.6905188 1.43877551 62.9516995 1.08673469 42.8264758 0.520408163"></polygon>
            <g id="Group" transform="translate(23.828265, 0.000000)" fill="#000000">
                <path d="M24.1824687,5.09693878 C23.9731664,5.09693878 23.7960644,4.94387755 23.7799642,4.74489796 C23.763864,4.53061224 23.9248658,4.34693878 24.1341682,4.33163265 C25.1645796,4.23979592 27.0322004,3.96428571 29.0125224,3.62755102 C29.2379249,3.59693878 29.4472272,3.73469388 29.4794275,3.93367347 C29.5116279,4.14795918 29.3667263,4.34693878 29.157424,4.37755102 C27.1288014,4.72959184 25.2772809,4.98979592 24.2146691,5.08163265 C24.2146691,5.09693878 24.1985689,5.09693878 24.1824687,5.09693878 Z" id="Shape"></path>
                <path d="M44.2271914,14.8163265 C44.0178891,14.8163265 43.8407871,14.6479592 43.8246869,14.4489796 C43.6153846,9.21428571 42.842576,6.19897959 41.5867621,1.91326531 C39.9123435,2.46428571 35.1627907,3.38265306 32.3613596,3.8877551 C32.1359571,3.93367347 31.9266547,3.79591837 31.8944544,3.58163265 C31.8461538,3.36734694 31.9910555,3.16836735 32.216458,3.1377551 C36.9660107,2.29591837 41.0232558,1.40816327 41.667263,1.07142857 C41.7799642,1.01020408 41.9087657,1.01020408 42.0214669,1.05612245 C42.1341682,1.10204082 42.2146691,1.19387755 42.2468694,1.30102041 C43.5831843,5.87755102 44.4042934,8.95408163 44.6296959,14.4336735 C44.6296959,14.6173469 44.4686941,14.8010204 44.2271914,14.8163265 C44.2271914,14.8163265 44.2271914,14.8163265 44.2271914,14.8163265 Z" id="Shape"></path>
                <path d="M41.8765653,1.79081633 C41.8443649,1.79081633 41.8282648,1.79081633 41.7960644,1.79081633 C38.4794275,1.20918367 28.706619,0.903061224 24.1824687,0.903061224 C23.9570662,0.903061224 23.7799642,0.734693878 23.7799642,0.520408163 C23.7799642,0.306122449 23.9570662,0.137755102 24.1824687,0.137755102 C28.7388193,0.137755102 38.5760286,0.443877551 41.940966,1.04081633 C42.1663685,1.08673469 42.3112701,1.28571429 42.2629696,1.48469388 C42.2307692,1.66836735 42.0697674,1.79081633 41.8765653,1.79081633 Z" id="Shape"></path>
                <path d="M24.1824687,10.377551 C23.9570662,10.377551 23.7799642,10.2091837 23.7799642,9.99489796 C23.7799642,9.78061224 23.9570662,9.6122449 24.1824687,9.6122449 C28.4329159,9.58163265 39.7030411,7.08673469 42.5205725,6.03061224 C42.7298748,5.95408163 42.9552773,6.04591837 43.0357782,6.24489796 C43.1162791,6.44387755 43.019678,6.65816327 42.8103757,6.73469388 C39.960644,7.80612245 28.5134168,10.3469388 24.1824687,10.377551 C24.1824687,10.377551 24.1824687,10.377551 24.1824687,10.377551 Z" id="Shape"></path>
                <path d="M39.0912343,13.9744898 C36.5313059,13.9744898 34.6314848,13.5306122 33.3595707,12.6122449 C31.9105546,11.5867347 31.5563506,10.1785714 31.3953488,9.06122449 C31.3631485,8.84693878 31.5241503,8.66326531 31.7334526,8.63265306 C31.9588551,8.60204082 32.1520572,8.75510204 32.1842576,8.95408163 C32.3291592,9.97959184 32.6350626,11.1581633 33.8264758,12 C35.6135957,13.2704082 39.0268336,13.5306122 43.9534884,12.7806122 C44.1788909,12.75 44.372093,12.8877551 44.4203936,13.1020408 C44.4525939,13.3163265 44.3076923,13.5 44.0822898,13.5459184 C42.1985689,13.8214286 40.5402504,13.9744898 39.0912343,13.9744898 Z" id="Shape"></path>
                <path d="M29.7853309,9.71938776 C29.7048301,9.71938776 29.6243292,9.68877551 29.5438283,9.64285714 C29.4472272,9.58163265 29.3989267,9.48979592 29.3828265,9.38265306 L28.5134168,2.77040816 C28.4812165,2.57142857 28.6261181,2.3877551 28.8515206,2.34183673 L32.0071556,1.82142857 C32.1198569,1.80612245 32.2325581,1.82142857 32.313059,1.88265306 C32.3935599,1.94387755 32.4579606,2.03571429 32.4740608,2.14285714 L33.4078712,8.69387755 C33.4400716,8.89285714 33.2951699,9.07653061 33.0858676,9.12244898 L29.8497317,9.70408163 C29.8336315,9.71938776 29.8175313,9.71938776 29.7853309,9.71938776 Z M29.3667263,3.04591837 L30.1234347,8.89285714 L32.5545617,8.44897959 L31.7173524,2.66326531 L29.3667263,3.04591837 Z" id="Shape"></path>
                <path d="M33.9230769,89.8622449 C33.7298748,89.8622449 33.5527728,89.7244898 33.5205725,89.5408163 L23.7799642,24.7346939 C23.7477639,24.5204082 23.9087657,24.3367347 24.118068,24.3061224 C24.3434705,24.2755102 24.5366726,24.4285714 24.568873,24.627551 L34.2450805,89.0663265 L47.2701252,87.9795918 L43.7924866,14.4489796 C43.7763864,14.2346939 43.9534884,14.0663265 44.1788909,14.0510204 C44.4042934,14.0357143 44.5813953,14.2040816 44.5974955,14.4183673 L48.1234347,88.3163265 C48.1395349,88.5153061 47.9785331,88.6989796 47.7531306,88.7142857 L33.9552773,89.8622449 C33.9391771,89.8622449 33.9391771,89.8622449 33.9230769,89.8622449 Z" id="Shape"></path>
                <path d="M24.0858676,25.0408163 C23.8604651,25.0408163 23.6833631,24.872449 23.6833631,24.6581633 L23.6833631,5.08163265 C22.6207513,4.95918367 20.9785331,4.69897959 19.1109123,4.40816327 C18.8855098,4.37755102 18.7406082,4.17857143 18.7728086,3.96428571 C18.8050089,3.75 19.0143113,3.6122449 19.2397138,3.64285714 C21.3166369,3.96428571 23.1198569,4.25510204 24.118068,4.34693878 C24.3273703,4.3622449 24.4883721,4.53061224 24.4883721,4.72959184 L24.4883721,24.6428571 C24.4883721,24.872449 24.3112701,25.0408163 24.0858676,25.0408163 Z" id="Shape"></path>
                <path d="M4.07334526,14.8163265 C4.07334526,14.8163265 4.07334526,14.8163265 4.07334526,14.8163265 C3.83184258,14.8010204 3.65474061,14.6326531 3.67084079,14.4183673 C3.89624329,8.93877551 4.71735242,5.8622449 6.05366726,1.28571429 C6.08586762,1.17857143 6.16636852,1.08673469 6.27906977,1.04081633 C6.39177102,0.994897959 6.52057245,0.994897959 6.6332737,1.05612245 C7.22898032,1.3622449 10.9481216,2.18877551 16.0840787,3.12244898 C16.3094812,3.16836735 16.4382826,3.36734694 16.4060823,3.56632653 C16.3577818,3.78061224 16.1484794,3.90306122 15.9391771,3.87244898 C13.6207513,3.44387755 8.4686941,2.46428571 6.7137746,1.89795918 C5.47406082,6.18367347 4.70125224,9.21428571 4.47584973,14.4336735 C4.47584973,14.6479592 4.29874776,14.8163265 4.07334526,14.8163265 Z" id="Shape"></path>
                <path d="M6.42397138,1.79081633 C6.23076923,1.79081633 6.06976744,1.66836735 6.02146691,1.48469388 C5.97316637,1.27040816 6.11806798,1.07142857 6.34347048,1.04081633 C9.70840787,0.443877551 19.5456172,0.137755102 24.1019678,0.137755102 C24.3273703,0.137755102 24.5044723,0.306122449 24.5044723,0.520408163 C24.5044723,0.734693878 24.3273703,0.903061224 24.1019678,0.903061224 C19.5778175,0.903061224 9.80500894,1.19387755 6.48837209,1.79081633 C6.47227191,1.79081633 6.45617174,1.79081633 6.42397138,1.79081633 Z" id="Shape"></path>
                <path d="M24.118068,10.3469388 C24.118068,10.3469388 24.118068,10.3469388 24.118068,10.3469388 C19.7871199,10.3163265 8.33989267,7.7755102 5.490161,6.70408163 C5.28085868,6.62755102 5.1842576,6.39795918 5.2647585,6.21428571 C5.34525939,6.01530612 5.58676208,5.92346939 5.77996422,6 C8.58139535,7.05612245 19.8676208,9.56632653 24.118068,9.58163265 C24.3434705,9.58163265 24.5205725,9.75 24.5205725,9.96428571 C24.5205725,10.1785714 24.3434705,10.3469388 24.118068,10.3469388 Z" id="Shape"></path>
                <path d="M9.20930233,13.9744898 C7.76028623,13.9744898 6.1019678,13.8367347 4.20214669,13.5459184 C3.97674419,13.5153061 3.83184258,13.3163265 3.86404293,13.1020408 C3.89624329,12.8877551 4.10554562,12.75 4.33094812,12.7806122 C9.25760286,13.5306122 12.6708408,13.2704082 14.4579606,12 C15.6493739,11.1581633 15.9552773,9.97959184 16.1001789,8.95408163 C16.1323792,8.73979592 16.3255814,8.60204082 16.5509839,8.63265306 C16.7763864,8.66326531 16.921288,8.84693878 16.8890877,9.06122449 C16.7280859,10.1785714 16.3738819,11.6020408 14.9248658,12.6122449 C13.6690519,13.5153061 11.7692308,13.9744898 9.20930233,13.9744898 Z" id="Shape"></path>
                <path d="M24.118068,10.3469388 C23.8926655,10.3469388 23.7155635,10.1785714 23.7155635,9.96428571 C23.7155635,9.75 23.8926655,9.58163265 24.118068,9.58163265 C28.3685152,9.55102041 39.6386404,7.05612245 42.4561717,6 C42.6654741,5.92346939 42.8908766,6.01530612 42.9713775,6.21428571 C43.0518784,6.41326531 42.9552773,6.62755102 42.745975,6.70408163 C39.8962433,7.79081633 28.4490161,10.3316327 24.118068,10.3469388 C24.118068,10.3469388 24.118068,10.3469388 24.118068,10.3469388 Z" id="Shape"></path>
                <path d="M38.9946333,13.9744898 C36.4347048,13.9744898 34.5348837,13.5306122 33.2629696,12.6122449 C31.8139535,11.5867347 31.4597496,10.1785714 31.2987478,9.06122449 C31.2665474,8.84693878 31.4275492,8.66326531 31.6368515,8.63265306 C31.862254,8.60204082 32.0554562,8.75510204 32.0876565,8.95408163 C32.2325581,9.97959184 32.5384615,11.1581633 33.7298748,12 C35.5169946,13.2704082 38.9302326,13.5306122 43.8568873,12.7806122 C44.0822898,12.75 44.2754919,12.8877551 44.3237925,13.1020408 C44.3559928,13.3163265 44.2110912,13.5 43.9856887,13.5459184 C42.1019678,13.8214286 40.4436494,13.9744898 38.9946333,13.9744898 Z" id="Shape"></path>
                <path d="M24.118068,24.872449 C23.8926655,24.872449 23.7155635,24.7040816 23.7155635,24.4897959 C23.7155635,24.2755102 23.8926655,24.1071429 24.118068,24.1071429 C25.7119857,24.1071429 27.0161002,23.9540816 27.0161002,22.1020408 L27.0161002,9.67346939 C27.0161002,9.45918367 27.1932021,9.29081633 27.4186047,9.29081633 C27.6440072,9.29081633 27.8211091,9.45918367 27.8211091,9.67346939 L27.8211091,22.1020408 C27.8211091,24.872449 25.4060823,24.872449 24.118068,24.872449 Z" id="Shape"></path>
                <path d="M29.7209302,9.71938776 C29.6404293,9.71938776 29.5599284,9.68877551 29.4794275,9.64285714 C29.3828265,9.58163265 29.3345259,9.48979592 29.3184258,9.38265306 L28.4329159,2.77040816 C28.4007156,2.57142857 28.5456172,2.37244898 28.7710197,2.34183673 L31.9588551,1.82142857 C32.0715564,1.80612245 32.1842576,1.82142857 32.2647585,1.88265306 C32.3452594,1.94387755 32.4096601,2.03571429 32.4257603,2.14285714 L33.3595707,8.69387755 C33.391771,8.89285714 33.2468694,9.07653061 33.0375671,9.12244898 L29.8014311,9.70408163 C29.7692308,9.71938776 29.7370304,9.71938776 29.7209302,9.71938776 Z M29.2701252,3.04591837 L30.059034,8.89285714 L32.490161,8.44897959 L31.6529517,2.66326531 L29.2701252,3.04591837 Z" id="Shape"></path>
                <path d="M18.5152057,9.71938776 C18.4830054,9.71938776 18.4669052,9.71938776 18.4347048,9.71938776 L15.1985689,9.1377551 C14.9892665,9.10714286 14.8443649,8.90816327 14.8765653,8.70918367 L15.8103757,2.15816327 C15.8264758,2.05102041 15.8908766,1.95918367 15.9713775,1.89795918 C16.0518784,1.83673469 16.1645796,1.80612245 16.2772809,1.83673469 L19.4329159,2.35714286 C19.6422182,2.3877551 19.7871199,2.57142857 19.7710197,2.78571429 L18.90161,9.39795918 C18.8855098,9.50510204 18.8211091,9.59693878 18.7406082,9.65816327 C18.6762075,9.68877551 18.5957066,9.71938776 18.5152057,9.71938776 Z M15.7298748,8.44897959 L18.1610018,8.89285714 L18.9177102,3.04591837 L16.5509839,2.66326531 L15.7298748,8.44897959 Z" id="Shape"></path>
                <path d="M14.2647585,89.7397959 C14.2486583,89.7397959 14.2486583,89.7397959 14.2325581,89.7397959 L0.43470483,88.7142857 C0.225402504,88.6989796 0.0483005367,88.5153061 0.0644007156,88.3163265 L3.68694097,14.4183673 C3.70304114,14.2040816 3.88014311,14.0510204 4.10554562,14.0510204 C4.33094812,14.0663265 4.49194991,14.2346939 4.49194991,14.4489796 L0.901610018,87.9795918 L13.9266547,88.9591837 L23.7316637,24.627551 C23.763864,24.4132653 23.9731664,24.2755102 24.1824687,24.3061224 C24.4078712,24.3367347 24.5527728,24.5357143 24.5205725,24.7346939 L14.6511628,89.4183673 C14.6350626,89.6020408 14.4579606,89.7397959 14.2647585,89.7397959 Z" id="Shape"></path>
            </g>
            <path d="M23.4418605,81.8877551 L23.0715564,80.5561224 C28.529517,79.2091837 31.862254,76.4234694 34.8085868,73.9744898 C38.5438283,70.8520408 41.763864,68.1581633 47.8497317,69.2295918 C51.2146691,69.8265306 54.8533095,71.4183673 58.3631485,72.9642857 C62.0017889,74.5714286 65.7692308,76.2244898 69.2629696,76.7908163 C73.1270125,77.4183673 76.1216458,76.6530612 78.6976744,74.4030612 L79.6797853,75.4132653 C76.7817531,77.9540816 73.3041145,78.8418367 69.0214669,78.1530612 C65.3345259,77.5561224 61.470483,75.8571429 57.7513417,74.2193878 C54.1610018,72.6428571 50.7799642,71.1428571 47.5921288,70.5918367 C42.2146691,69.6428571 39.3649374,72.0153061 35.7745975,75.0153061 C32.6994633,77.5714286 29.2379249,80.4642857 23.4418605,81.8877551 Z" id="Shape" fill="#CD2027"></path>
            <g id="Group" transform="translate(0.000000, 23.877551)">
                <g transform="translate(9.982111, 0.000000)" id="Shape">
                    <path d="M7.06797853,0.535714286 C8.13059034,0.535714286 9.19320215,0.780612245 10.1431127,1.25510204 C11.6887299,2.02040816 12.8157424,3.33673469 13.3148479,4.92857143 C13.8139535,6.52040816 13.6690519,8.18877551 12.8318426,9.65816327 C11.8014311,11.5102041 9.8372093,12.7346939 7.61538462,12.9183673 C7.45438283,12.9336735 7.29338104,13.0255102 7.21288014,13.1785714 C7.11627907,13.3316327 7.11627907,13.4846939 7.21288014,13.6377551 L7.3255814,13.8367347 L32.6189624,44.755102 L30.783542,45.2755102 L19.5456172,39.5816327 L2.38282648,11.494898 C2.20572451,11.2806122 -0.901610018,7.66836735 1.25581395,3.79591837 C2.43112701,1.79081633 4.63685152,0.535714286 7.06797853,0.535714286 Z M7.06797853,10.0867347 C8.37209302,10.0867347 9.54740608,9.41326531 10.1592129,8.31122449 C10.6100179,7.51530612 10.6905188,6.6122449 10.4168157,5.77040816 C10.1431127,4.91326531 9.5313059,4.2244898 8.71019678,3.79591837 C8.19499106,3.53571429 7.61538462,3.41326531 7.05187835,3.41326531 C5.74776386,3.41326531 4.57245081,4.08673469 3.96064401,5.18877551 C3.509839,5.98469388 3.4293381,6.8877551 3.70304114,7.72959184 C3.97674419,8.58673469 4.58855098,9.2755102 5.40966011,9.70408163 C5.90876565,9.96428571 6.50447227,10.0867347 7.06797853,10.0867347 Z" fill="#FCFAE3"></path>
                    <path d="M30.8479428,44.7704082 L19.9320215,39.244898 L2.83363148,11.2806122 C2.81753131,11.2346939 2.76923077,11.1887755 2.73703041,11.1581633 C2.72093023,11.1122449 -0.305903399,7.68367347 1.72271914,4.07142857 C2.78533095,2.20408163 4.81395349,1.0255102 7.03577818,1.0255102 C8.03398927,1.0255102 9,1.25510204 9.88550984,1.69897959 C12.8318426,3.16836735 13.9427549,6.65816327 12.3810376,9.45918367 C11.4150268,11.1887755 9.62790698,12.3061224 7.56708408,12.4897959 C7.22898032,12.505102 6.9391771,12.7040816 6.77817531,12.9795918 C6.61717352,13.255102 6.61717352,13.6071429 6.77817531,13.8826531 L6.89087657,14.0816327 C6.90697674,14.127551 6.95527728,14.1734694 6.98747764,14.2040816 L31.7817531,44.5255102 L30.8479428,44.7704082 Z M7.05187835,2.92346939 C5.55456172,2.92346939 4.20214669,3.70408163 3.509839,4.95918367 C3.01073345,5.8622449 2.8980322,6.90306122 3.22003578,7.86734694 C3.54203936,8.83163265 4.21824687,9.64285714 5.16815742,10.1173469 C5.76386404,10.4234694 6.4078712,10.5612245 7.06797853,10.5612245 C8.56529517,10.5612245 9.9177102,9.78061224 10.6100179,8.5255102 C11.6404293,6.67346939 10.9159213,4.34693878 8.95169946,3.35204082 C8.3881932,3.07653061 7.72808587,2.92346939 7.05187835,2.92346939 Z M30.7674419,45.7959184 L33.4722719,45.0153061 L7.7763864,13.6071429 L7.66368515,13.4081633 C9.94991055,13.2091837 12.1234347,11.9846939 13.2665474,9.8877551 C15.0858676,6.64285714 13.7817531,2.57142857 10.3685152,0.841836735 C9.3059034,0.306122449 8.17889088,0.0459183673 7.03577818,0.0612244898 C4.52415027,0.0612244898 2.10912343,1.3622449 0.853309481,3.59693878 C-1.51341682,7.82142857 1.980322,11.7397959 1.980322,11.7397959 L19.2075134,39.9489796 L30.7674419,45.7959184 Z M7.05187835,3.87244898 C7.53488372,3.87244898 8.01788909,3.97959184 8.48479428,4.20918367 C9.94991055,4.95918367 10.4973166,6.70408163 9.74060823,8.08163265 C9.19320215,9.04591837 8.1627907,9.59693878 7.06797853,9.59693878 C6.58497317,9.59693878 6.1019678,9.48979592 5.63506261,9.26020408 C4.16994633,8.51020408 3.62254025,6.76530612 4.37924866,5.3877551 C4.94275492,4.43877551 5.98926655,3.87244898 7.05187835,3.87244898 Z" fill="#402312"></path>
                </g>
                <g transform="translate(0.000000, 15.459184)" id="Shape">
                    <path d="M54.0161002,6.19897959 L54.5635063,7.94387755 L13.5402504,5.28061224 L13.2182469,5.29591837 C13.0572451,5.31122449 12.8962433,5.40306122 12.8157424,5.55612245 C12.7513417,5.70918367 12.7513417,5.87755102 12.8157424,6.01530612 C13.8783542,7.86734694 13.9105546,10.0714286 12.8801431,11.9540816 C11.7531306,13.9744898 9.54740608,15.2295918 7.11627907,15.244898 C6.05366726,15.244898 4.99105546,15 4.0411449,14.5255102 C2.49552773,13.7602041 1.36851521,12.4438776 0.86940966,10.8520408 C0.370304114,9.26020408 0.515205725,7.59183673 1.35241503,6.12244898 C3.09123435,3.04591837 6.56887299,2.69387755 7.98568873,2.67857143 C8.33989267,2.67857143 8.58139535,2.69387755 8.59749553,2.69387755 L42.7620751,0.535714286 L54.0161002,6.19897959 Z M7.13237925,12.3520408 C8.43649374,12.3520408 9.6118068,11.6785714 10.2236136,10.5765306 C10.6744186,9.78061224 10.7549195,8.87755102 10.4812165,8.03571429 C10.2075134,7.17857143 9.59570662,6.48979592 8.7745975,6.06122449 C8.25939177,5.80102041 7.67978533,5.67857143 7.11627907,5.67857143 C5.81216458,5.67857143 4.63685152,6.35204082 4.02504472,7.45408163 C3.1234347,9.09183673 3.76744186,11.1122449 5.490161,11.9846939 C5.98926655,12.2142857 6.56887299,12.3520408 7.13237925,12.3520408 Z" fill="#FCFAE3"></path>
                    <path d="M7.13237925,14.7397959 C6.13416816,14.7397959 5.16815742,14.5102041 4.28264758,14.0663265 C1.33631485,12.5969388 0.225402504,9.10714286 1.78711986,6.30612245 C3.38103757,3.44387755 6.66547406,3.1377551 8.00178891,3.12244898 C8.33989267,3.12244898 8.54919499,3.1377551 8.54919499,3.1377551 C8.59749553,3.1377551 8.61359571,3.1377551 8.66189624,3.1377551 C8.67799642,3.1377551 8.71019678,3.1377551 8.72629696,3.1377551 L42.6654741,1.01020408 L53.5813953,6.53571429 L53.8550984,7.42346939 L13.5563506,4.80612245 C13.5402504,4.80612245 13.5080501,4.80612245 13.4919499,4.80612245 C13.4758497,4.80612245 13.4275492,4.80612245 13.3953488,4.80612245 L13.1699463,4.82142857 C12.8318426,4.83673469 12.5420394,5.03571429 12.3810376,5.31122449 C12.2200358,5.58673469 12.2200358,5.93877551 12.3810376,6.21428571 C13.3792487,7.92857143 13.3792487,9.97959184 12.4454383,11.6938776 C11.3989267,13.5612245 9.37030411,14.7244898 7.13237925,14.7397959 Z M7.13237925,5.18877551 C5.63506261,5.18877551 4.28264758,5.96938776 3.59033989,7.2244898 C2.55992844,9.07653061 3.28443649,11.4030612 5.24865832,12.3979592 C5.84436494,12.7040816 6.48837209,12.8418367 7.14847943,12.8418367 C8.64579606,12.8418367 9.99821109,12.0612245 10.6905188,10.8061224 C11.7209302,8.95408163 10.9964222,6.62755102 9.03220036,5.63265306 C8.43649374,5.32653061 7.7763864,5.18877551 7.13237925,5.18877551 Z M7.13237925,15.7040816 C9.64400716,15.7040816 12.059034,14.4030612 13.3148479,12.1683673 C14.490161,10.1020408 14.3613596,7.69897959 13.2504472,5.78571429 L13.4758497,5.77040816 L55.2397138,8.49489796 L54.4186047,5.92346939 L42.8908766,0.0612244898 L8.64579606,2.21938776 C8.64579606,2.21938776 8.40429338,2.20408163 7.98568873,2.20408163 C6.47227191,2.20408163 2.76923077,2.55612245 0.901610018,5.87755102 C-0.917710197,9.12244898 0.386404293,13.1938776 3.79964222,14.9234694 C4.8783542,15.4438776 6.02146691,15.7040816 7.13237925,15.7040816 Z M7.13237925,6.1377551 C7.61538462,6.1377551 8.09838998,6.24489796 8.56529517,6.4744898 C10.0304114,7.2244898 10.5778175,8.96938776 9.82110912,10.3469388 C9.27370304,11.3112245 8.24329159,11.8622449 7.14847943,11.8622449 C6.66547406,11.8622449 6.18246869,11.755102 5.71556351,11.5255102 C4.25044723,10.7755102 3.70304114,9.03061224 4.45974955,7.65306122 C5.00715564,6.70408163 6.03756708,6.1377551 7.13237925,6.1377551 Z" fill="#402312"></path>
                </g>
                <g transform="translate(19.159213, 18.061224)">
                    <ellipse id="Oval" fill="#CCCBCB" cx="1.15921288" cy="1.14795918" rx="1" ry="1"></ellipse>
                    <path d="M1.1431127,0.137755102 C1.72271914,0.137755102 2.20572451,0.581632653 2.20572451,1.14795918 C2.20572451,1.69897959 1.73881932,2.15816327 1.1431127,2.15816327 C0.563506261,2.15816327 0.0805008945,1.71428571 0.0805008945,1.14795918 C0.0966010733,0.596938776 0.563506261,0.153061224 1.1431127,0.137755102 Z M1.15921288,2.03571429 C1.6744186,2.03571429 2.09302326,1.6377551 2.09302326,1.14795918 C2.09302326,0.658163265 1.6744186,0.260204082 1.15921288,0.260204082 C0.644007156,0.260204082 0.225402504,0.658163265 0.225402504,1.14795918 C0.225402504,1.6377551 0.644007156,2.03571429 1.15921288,2.03571429 Z" id="Shape" fill="#402312"></path>
                </g>
            </g>
            <g id="Group" transform="translate(46.046512, 43.622449)">
                <path d="M40.8461538,0.673469388 C42.0214669,0.903061224 42.842576,1.45408163 43.1645796,2.25 C43.5509839,3.16836735 43.1806798,4.30102041 42.1341682,5.37244898 C41.1842576,6.35204082 39.7513417,7.25510204 38.1091234,7.85204082 C37.4812165,8.08163265 36.8372093,8.26530612 36.2093023,8.40306122 L1.56171735,18.2755102 C1.43291592,18.2908163 1.30411449,18.3214286 1.19141324,18.2908163 C0.885509839,18.2295918 0.660107335,17.9846939 0.627906977,17.6785714 C0.595706619,17.372449 0.756708408,17.1122449 1.04651163,16.9591837 L33.7298748,2.1122449 C34.2450805,1.82142857 34.8568873,1.54591837 35.5008945,1.30102041 C37.3846154,0.62755102 39.3488372,0.382653061 40.8461538,0.673469388 Z M32.6994633,6.06122449 C33.6332737,6.01530612 35.4525939,5.58673469 36.9982111,5.03571429 C38.8336315,4.3622449 39.1717352,3.87244898 39.2522361,3.75 C39.2522361,3.64285714 39.1395349,3.6122449 39.0912343,3.59693878 C38.8336315,3.55102041 38.157424,3.55102041 36.627907,4.10204082 C34.8729875,4.74489796 33.3273703,5.58673469 32.6994633,6.06122449 Z" id="Shape" fill="#FCFAE3"></path>
                <path d="M1.32021467,17.7857143 C1.12701252,17.755102 1.07871199,17.4795918 1.27191413,17.4183673 L33.9552773,2.57142857 C34.470483,2.28061224 35.0661896,2.00510204 35.6940966,1.79081633 C37.5778175,1.10204082 39.4293381,0.903061224 40.765653,1.16326531 C41.7316637,1.34693878 42.4400716,1.79081633 42.7137746,2.43367347 C43.3416816,3.97959184 41.216458,6.19897959 37.9642218,7.37755102 C37.3363148,7.60714286 36.7245081,7.7755102 36.1449016,7.89795918 L1.46511628,17.8010204 C1.38461538,17.8010204 1.33631485,17.8010204 1.32021467,17.7857143 Z M39.1878354,3.10714286 C38.6565295,3 37.7388193,3.15306122 36.4186047,3.64285714 C34.3738819,4.39285714 31.6690519,5.81632653 31.9105546,6.36734694 C31.9427549,6.45918367 32.0554562,6.50510204 32.216458,6.53571429 C33.0697674,6.70408163 35.4847943,6.10714286 37.1914132,5.49489796 C39.236136,4.74489796 39.9928444,4.04081633 39.7352415,3.48979592 C39.6547406,3.30612245 39.4776386,3.15306122 39.1878354,3.10714286 Z M1.11091234,18.7806122 C1.32021467,18.8265306 1.52951699,18.8112245 1.73881932,18.75 L36.3864043,8.87755102 C37.0465116,8.75510204 37.6905188,8.55612245 38.3345259,8.31122449 C42.2307692,6.85714286 44.549195,4.19387755 43.6636852,2.08163265 C43.293381,1.13265306 42.3273703,0.474489796 40.9588551,0.198979592 C39.3649374,-0.107142857 37.3041145,0.137755102 35.2915921,0.87244898 C34.6636852,1.11734694 34.019678,1.37755102 33.4561717,1.71428571 L0.821109123,16.5306122 C0.338103757,16.7602041 0.0483005367,17.2346939 0.0966010733,17.7397959 C0.161001789,18.2602041 0.57960644,18.6734694 1.11091234,18.7806122 Z" id="Shape" fill="#402312"></path>
            </g>
            <path d="M83.9463327,54.6887755 C83.4150268,52.4693878 82.5456172,50.5102041 81.3220036,48.8571429 L82.5134168,48.0612245 C83.8336315,49.8673469 84.7996422,51.994898 85.3631485,54.3826531 L83.9463327,54.6887755 Z" id="Shape" fill="#CD2027"></path>
        </g>
    </g>
</svg>