<?xml version="1.0" encoding="iso-8859-1"?>
<!-- Generator: Adobe Illustrator 21.1.0, SVG Export Plug-In . SVG Version: 6.00 Build 0)  -->
<svg version="1.1" id="platie_x5F_012" xmlns="http://www.w3.org/2000/svg" xmlns:xlink="http://www.w3.org/1999/xlink" x="0px"
	 y="0px" viewBox="0 0 90 90" style="enable-background:new 0 0 90 90;" xml:space="preserve">
<rect style="fill:none;" width="90" height="90"/>
<g>
	<g>
		<path style="fill:#AA8396;" d="M33,22.5c-0.276,0-0.5-0.224-0.5-0.5V1c0-0.173,0.09-0.334,0.237-0.425
			C32.817,0.525,32.909,0.5,33,0.5c0.076,0,0.153,0.018,0.223,0.053C33.262,0.572,37.202,2.5,43,2.5
			c5.802,0,9.771-1.889,9.811-1.908c0.069-0.034,0.144-0.05,0.218-0.05c0.092,0,0.185,0.026,0.266,0.077
			c0.146,0.092,0.234,0.252,0.234,0.424L53.5,22.001c0,0.275-0.224,0.499-0.5,0.499H33z"/>
		<path style="fill:#42210B;" d="M33,1c0,0,4,2,10,2s10.029-1.959,10.029-1.959L53,22H33V1 M33,0c-0.183,0-0.365,0.05-0.526,0.149
			C32.179,0.332,32,0.653,32,1v21c0,0.552,0.448,1,1,1h20c0.552,0,0.999-0.447,1-0.999l0.029-20.959
			c0-0.345-0.177-0.666-0.469-0.849c-0.162-0.101-0.346-0.153-0.531-0.153c-0.149,0-0.299,0.033-0.437,0.101
			C52.555,0.16,48.672,2,43,2c-5.698,0-9.515-1.875-9.553-1.894C33.306,0.035,33.153,0,33,0L33,0z"/>
	</g>
	<path style="fill:#E4AEC6;" d="M63,55c-3-14-7-18-7-22c0-7,2-10,2-21c0-1,2-9,2-9s-3-2-7-2c0,0-1,9-10,9S33,1,33,1c-4,0-7,2-7,2
		s2,8,2,9c0,11,2,14,2,21c0,4-4,8-7,22s-6,23-9,28c0,0,1,2,3,2c3,0,1,2,5,2c3,0,2,1,6,1c1.965,0,2,1,4,1s3-1,5-1s1,1,6,1s4-1,6-1
		s3,1,5,1s2.035-1,4-1c4,0,3-1,6-1c4,0,2-2,5-2c2,0,3-2,3-2C69,78,66,69,63,55z"/>
	<g>
		<path style="fill:#F6D3D7;" d="M47,11c6,0,9-7,9-7c3,1,3,1,4-1c-1.258-0.519-4.922-2-7-2c0,0-1,9-10,9
			c-0.235,0-0.443-0.03-0.667-0.042C43.583,10.587,45.106,11,47,11z"/>
		<path style="fill:#F6D3D7;" d="M32,13c0-1-2-9-2-9s1.307-0.866,3.339-1.458C33.074,1.627,33,1,33,1c-4,0-7,2-7,2s2,8,2,9
			c0,11,2,14,2,21c0,4-4,8-7,22s-6,23-9,28c0,0,1,2,3,2h0c0.241-0.407,0.597-0.738,1.052-0.906C18.018,84.036,18,84,18,84
			c3-5,6-14,9-28s7-18,7-22C34,27,32,24,32,13z"/>
	</g>
	<g>
		<path style="fill:#42210B;" d="M53,1c4,0,7,2,7,2s-2,8-2,9c0,11-2,14-2,21c0,4,4,8,7,22s6,23,9,28c0,0-1,2-3,2c-3,0-1,2-5,2
			c-3,0-2,1-6,1c-1.965,0-2,1-4,1s-3-1-5-1s-2,1-6,1s-4-1-6-1s-3,1-5,1s-2.035-1-4-1c-4,0-3-1-6-1c-4,0-2-2-5-2c-2,0-3-2-3-2
			c3-5,6-14,9-28s7-18,7-22c0-7-2-10-2-21c0-1-2-9-2-9s3-2,7-2c0,0,1,9,10,9S53,1,53,1 M53,0c-0.509,0-0.936,0.382-0.994,0.887l0,0
			C51.968,1.219,50.975,9,43,9c-8.013,0-8.969-7.779-9.006-8.11C33.938,0.383,33.51,0,33,0c-4.254,0-7.422,2.079-7.555,2.168
			c-0.352,0.234-0.518,0.665-0.415,1.075c0.957,3.826,1.955,8.149,1.97,8.761c0,6.2,0.628,9.898,1.182,13.16
			C28.621,27.747,29,29.978,29,33c0,1.514-0.692,3.124-1.74,5.561c-1.48,3.441-3.507,8.155-5.237,16.229
			c-2.852,13.311-5.84,22.629-8.88,27.695c-0.176,0.293-0.19,0.656-0.037,0.962C13.158,83.551,14.412,86,17,86
			c0.885,0,0.989,0.141,1.239,0.483C18.824,87.283,19.552,88,22,88c1.197,0,1.603,0.165,2.116,0.373C24.84,88.667,25.661,89,28,89
			c0.744,0,1.076,0.165,1.536,0.393C30.082,89.663,30.761,90,32,90c1.162,0,2.041-0.293,2.816-0.551C35.539,89.208,36.162,89,37,89
			c0.657,0,1.012,0.125,1.549,0.315C39.412,89.62,40.485,90,43,90s3.588-0.38,4.451-0.685C47.988,89.125,48.343,89,49,89
			c0.838,0,1.461,0.208,2.184,0.449C51.959,89.707,52.838,90,54,90c1.239,0,1.918-0.337,2.464-0.607C56.924,89.165,57.256,89,58,89
			c2.339,0,3.16-0.333,3.884-0.627C62.397,88.165,62.803,88,64,88c2.448,0,3.176-0.717,3.761-1.517C68.011,86.141,68.115,86,69,86
			c2.588,0,3.842-2.449,3.894-2.553c0.153-0.306,0.139-0.669-0.037-0.962c-3.04-5.066-6.027-14.384-8.88-27.695
			c-1.73-8.075-3.757-12.788-5.237-16.229C57.692,36.124,57,34.514,57,33c0-3.022,0.379-5.253,0.818-7.837
			C58.372,21.901,59,18.203,59,12c0.015-0.608,1.014-4.931,1.97-8.757c0.102-0.41-0.064-0.84-0.415-1.075
			C60.422,2.079,57.254,0,53,0L53,0z"/>
	</g>
	<g>
		<path style="fill:#FCEAAE;" d="M29,35.5c-0.276,0-0.5-0.224-0.5-0.5v-4c0-0.276,0.224-0.5,0.5-0.5h28c0.276,0,0.5,0.224,0.5,0.5v4
			c0,0.276-0.224,0.5-0.5,0.5H29z"/>
		<path style="fill:#42210B;" d="M57,31v4H29v-4H57 M57,30H29c-0.552,0-1,0.448-1,1v4c0,0.552,0.448,1,1,1h28c0.552,0,1-0.448,1-1
			v-4C58,30.448,57.552,30,57,30L57,30z"/>
	</g>
	<g>
		<path style="fill:#FCEAAE;" d="M41,37.5c-1.378,0-2.5-1.121-2.5-2.5v-3.69c0-1.549,1.26-2.81,2.81-2.81h3.381
			c1.549,0,2.81,1.261,2.81,2.81v3.381c0,1.549-1.26,2.81-2.81,2.81H41z"/>
		<path style="fill:#42210B;" d="M44.691,29C45.966,29,47,30.034,47,31.309v3.381C47,35.966,45.966,37,44.691,37H41
			c-1.105,0-2-0.895-2-2v-3.691C39,30.034,40.034,29,41.309,29H44.691 M44.691,28h-3.381C39.485,28,38,29.485,38,31.309V35
			c0,1.654,1.346,3,3,3h3.691C46.515,38,48,36.515,48,34.691v-3.381C48,29.485,46.515,28,44.691,28L44.691,28z"/>
	</g>
</g>
<path style="fill:none;stroke:#5F8951;stroke-linecap:round;stroke-linejoin:round;stroke-miterlimit:10;" d="M42.5,76.5
	c-7,0-8,5-8,5s5,1,7-1"/>
<g>
	
		<circle style="fill:none;stroke:#CE171F;stroke-linecap:round;stroke-linejoin:round;stroke-miterlimit:10;" cx="53.5" cy="50.5" r="3"/>
	<path style="fill:none;stroke:#CE171F;stroke-linecap:round;stroke-linejoin:round;stroke-miterlimit:10;" d="M50.5,51.5l-4,1
		c-1.105,0-2-0.895-2-2v0c0-1.105,0.895-2,2-2l4,1"/>
	<path style="fill:none;stroke:#CE171F;stroke-linecap:round;stroke-linejoin:round;stroke-miterlimit:10;" d="M56.5,51.5l4,1
		c1.105,0,2-0.895,2-2v0c0-1.105-0.895-2-2-2l-4,1"/>
	<path style="fill:none;stroke:#CE171F;stroke-linecap:round;stroke-linejoin:round;stroke-miterlimit:10;" d="M54.5,53.5l1,4
		c0,1.105-0.895,2-2,2h0c-1.105,0-2-0.895-2-2l1-4"/>
	<path style="fill:none;stroke:#CE171F;stroke-linecap:round;stroke-linejoin:round;stroke-miterlimit:10;" d="M54.5,47.5l1-4
		c0-1.105-0.895-2-2-2h0c-1.105,0-2,0.895-2,2l1,4"/>
	<path style="fill:none;stroke:#CE171F;stroke-linecap:round;stroke-linejoin:round;stroke-miterlimit:10;" d="M50.672,49.086
		l-3.536-2.121c-0.781-0.781-0.781-2.047,0-2.828l0,0c0.781-0.781,2.047-0.781,2.828,0l2.121,3.536"/>
	<path style="fill:none;stroke:#CE171F;stroke-linecap:round;stroke-linejoin:round;stroke-miterlimit:10;" d="M54.914,53.328
		l2.121,3.536c0.781,0.781,2.047,0.781,2.828,0l0,0c0.781-0.781,0.781-2.047,0-2.828l-3.536-2.121"/>
	<path style="fill:none;stroke:#CE171F;stroke-linecap:round;stroke-linejoin:round;stroke-miterlimit:10;" d="M52.086,53.328
		l-2.121,3.536c-0.781,0.781-2.047,0.781-2.828,0l0,0c-0.781-0.781-0.781-2.047,0-2.828l3.536-2.121"/>
	<path style="fill:none;stroke:#CE171F;stroke-linecap:round;stroke-linejoin:round;stroke-miterlimit:10;" d="M56.328,49.086
		l3.536-2.121c0.781-0.781,0.781-2.047,0-2.828l0,0c-0.781-0.781-2.047-0.781-2.828,0l-2.121,3.536"/>
</g>
<g>
	
		<circle style="fill:none;stroke:#CE171F;stroke-linecap:round;stroke-linejoin:round;stroke-miterlimit:10;" cx="43.5" cy="65.5" r="2.333"/>
	<path style="fill:none;stroke:#CE171F;stroke-linecap:round;stroke-linejoin:round;stroke-miterlimit:10;" d="M41.167,66.278
		l-3.111,0.778c-0.859,0-1.556-0.696-1.556-1.556l0,0c0-0.859,0.696-1.556,1.556-1.556l3.111,0.778"/>
	<path style="fill:none;stroke:#CE171F;stroke-linecap:round;stroke-linejoin:round;stroke-miterlimit:10;" d="M45.833,66.278
		l3.111,0.778c0.859,0,1.556-0.696,1.556-1.556l0,0c0-0.859-0.696-1.556-1.556-1.556l-3.111,0.778"/>
	<path style="fill:none;stroke:#CE171F;stroke-linecap:round;stroke-linejoin:round;stroke-miterlimit:10;" d="M44.278,67.833
		l0.778,3.111c0,0.859-0.696,1.556-1.556,1.556l0,0c-0.859,0-1.556-0.696-1.556-1.556l0.778-3.111"/>
	<path style="fill:none;stroke:#CE171F;stroke-linecap:round;stroke-linejoin:round;stroke-miterlimit:10;" d="M44.278,63.167
		l0.778-3.111c0-0.859-0.696-1.556-1.556-1.556l0,0c-0.859,0-1.556,0.696-1.556,1.556l0.778,3.111"/>
	<path style="fill:none;stroke:#CE171F;stroke-linecap:round;stroke-linejoin:round;stroke-miterlimit:10;" d="M41.3,64.4
		l-2.75-1.65c-0.607-0.607-0.607-1.592,0-2.2l0,0c0.607-0.607,1.592-0.607,2.2,0l1.65,2.75"/>
	<path style="fill:none;stroke:#CE171F;stroke-linecap:round;stroke-linejoin:round;stroke-miterlimit:10;" d="M44.6,67.7l1.65,2.75
		c0.607,0.607,1.592,0.607,2.2,0l0,0c0.607-0.607,0.607-1.592,0-2.2L45.7,66.6"/>
	<path style="fill:none;stroke:#CE171F;stroke-linecap:round;stroke-linejoin:round;stroke-miterlimit:10;" d="M42.4,67.7
		l-1.65,2.75c-0.607,0.607-1.592,0.607-2.2,0v0c-0.607-0.607-0.607-1.592,0-2.2l2.75-1.65"/>
	<path style="fill:none;stroke:#CE171F;stroke-linecap:round;stroke-linejoin:round;stroke-miterlimit:10;" d="M45.7,64.4l2.75-1.65
		c0.607-0.607,0.607-1.592,0-2.2l0,0c-0.607-0.607-1.592-0.607-2.2,0L44.6,63.3"/>
</g>
<path style="fill:none;stroke:#5F8951;stroke-linecap:round;stroke-linejoin:round;stroke-miterlimit:10;" d="M54.5,65.5
	c2,3,8,2,8,2s-2-7-8-5"/>
<path style="fill:none;stroke:#5F8951;stroke-linecap:round;stroke-linejoin:round;stroke-miterlimit:10;" d="M52.254,75.254
	c-2,3-5,1-5,1s1-4,5-3"/>
<path style="fill:none;stroke:#5F8951;stroke-linecap:round;stroke-linejoin:round;stroke-miterlimit:10;" d="M44.5,55.5
	c-6,3-9-2-9-2s3-4,8-1"/>
<path style="fill:none;stroke:#5F8951;stroke-linecap:round;stroke-linejoin:round;stroke-miterlimit:10;" d="M52.5,61.5
	c0,7,2,12,2,25"/>
<path style="fill:none;stroke:#5F8951;stroke-linecap:round;stroke-linejoin:round;stroke-miterlimit:10;" d="M44.5,74.5
	c0,6-1,7-1,13"/>
</svg>
