<?xml version="1.0" encoding="UTF-8"?>
<svg width="90px" height="90px" viewBox="0 0 90 90" version="1.1" xmlns="http://www.w3.org/2000/svg" xmlns:xlink="http://www.w3.org/1999/xlink">
    <!-- Generator: Sketch 51.2 (57519) - http://www.bohemiancoding.com/sketch -->
    <title>Slice 1</title>
    <desc>Created with Sketch.</desc>
    <defs></defs>
    <g id="Page-1" stroke="none" stroke-width="1" fill="none" fill-rule="evenodd">
        <g id="Ремонт_Горнолыжная" fill-rule="nonzero">
            <path d="M81.4032258,52.3714286 C77.3225806,46.1485714 69.8709677,44.2971429 59.8709677,47.04 L59.516129,45.5485714 C65.0967742,44.0228571 69.9677419,43.8685714 74,45.0857143 C77.6290323,46.1657143 80.516129,48.3257143 82.5967742,51.4971429 L81.4032258,52.3714286 Z" id="Shape" fill="#CD2027"></path>
            <path d="M19.1774194,89.9828571 C14.516129,89.9828571 11.8225806,87.48 10.516129,85.7142857 C7.53225806,81.72 7.11290323,75.5657143 9.48387097,70.7657143 C11.1935484,67.3028571 14.8870968,64.6285714 18.8064516,61.7828571 C24.7419355,57.48 30.8709677,53.0228571 31.0645161,45.3942857 C31.2580645,37.3028571 25.3870968,34.44 19.7258065,31.68 C16.483871,30.1028571 13.4354839,28.6114286 11.4193548,26.2114286 C8.43548387,22.68 7.90322581,17.0571429 10.0806452,12.24 C11.983871,8.04 15.4677419,5.65714286 19.4193548,5.89714286 C23.5645161,6.13714286 25.8064516,9.22285714 28.1935484,12.4971429 C31.2419355,16.68 34.6935484,21.4114286 43.016129,22.5257143 C52.483871,23.7942857 55.516129,21.7885714 59.6935484,18.9942857 C62.1451613,17.3657143 64.9193548,15.5142857 69.483871,13.9885714 C76.9032258,11.5028571 81.1612903,12.9428571 83.4032258,14.6057143 C85.8225806,16.3885714 87.3225806,19.4057143 87.516129,22.92 C87.6935484,26.2971429 85.2580645,30.0171429 81.7096774,31.7485714 C77.5483871,33.7714286 73,32.7257143 69.1935484,28.8342857 L70.1935484,27.72 C73.5322581,31.1314286 77.516129,32.0914286 81.0967742,30.3428571 C84.0806452,28.8857143 86.2096774,25.7314286 86.0645161,23.0057143 C85.9677419,21.2228571 85.3870968,17.9485714 82.5806452,15.8742857 C79.7258065,13.7828571 75.3548387,13.6457143 69.9193548,15.4628571 C65.5322581,16.9371429 62.8387097,18.7371429 60.4677419,20.3142857 C56.1935484,23.16 52.8225806,25.4057143 42.8387097,24.0685714 C33.9193548,22.8685714 30.1129032,17.64 27.0483871,13.4571429 C24.6774194,10.2171429 22.8225806,7.66285714 19.3387097,7.45714286 C16,7.25142857 13.0322581,9.30857143 11.4032258,12.9257143 C9.5,17.1257143 9.9516129,22.1657143 12.516129,25.2 C14.3225806,27.36 17.2580645,28.7828571 20.3548387,30.2914286 C26.1774194,33.1371429 32.7741935,36.3428571 32.5483871,45.4457143 C32.3387097,53.8628571 25.6129032,58.7485714 19.6612903,63.0685714 C15.9032258,65.7942857 12.3548387,68.3828571 10.8064516,71.5028571 C8.69354839,75.7885714 9.06451613,81.24 11.6935484,84.7714286 C14.1935484,88.1142857 18.2419355,89.2285714 23.0806452,87.8742857 L23.4516129,89.3657143 C21.8548387,89.8114286 20.4516129,89.9828571 19.1774194,89.9828571 Z" id="Shape" fill="#CD2027"></path>
            <g id="Group" transform="translate(12.580645, 0.000000)">
                <path d="M69.4354839,70.08 C69.3709677,68.7085714 68.9677419,60.7714286 67.9354839,57.3257143 C66.9032258,53.88 63.4677419,39.5485714 60.1129032,34.1485714 C56.7580645,28.7485714 55.6612903,27.1542857 55.0806452,25.7657143 C54.483871,24.3771429 50.6612903,22.9028571 49.983871,22.5257143 C49.3064516,22.1485714 49.3548387,20.5542857 49.3064516,18.7542857 C49.2741935,16.9542857 47.983871,10.5428571 44.7419355,6.96 C41.5,3.37714286 37.6290323,0.462857143 35.6612903,0.462857143 C35.4516129,0.462857143 35.2580645,0.514285714 35.0967742,0.582857143 C34.9516129,0.514285714 34.7741935,0.462857143 34.5483871,0.462857143 C32.5806452,0.462857143 28.7096774,3.37714286 25.4677419,6.96 C22.2258065,10.5428571 20.9354839,16.9542857 20.9032258,18.7542857 C20.8709677,20.5542857 20.9032258,22.1485714 20.2258065,22.5257143 C19.5483871,22.9028571 15.7258065,24.3771429 15.1290323,25.7657143 C14.5322581,27.1542857 13.4516129,28.7485714 10.0967742,34.1485714 C6.74193548,39.5485714 3.29032258,53.88 2.27419355,57.3257143 C1.24193548,60.7714286 0.838709677,68.7257143 0.774193548,70.08 C0.709677419,71.4514286 0.580645161,83.4342857 0.580645161,83.4342857 L9.22580645,84.24 C9.22580645,84.24 9.33870968,82.2514286 9.38709677,80.1942857 C9.43548387,78.1371429 10.0322581,70.0628571 10.6290323,64.9371429 C11.2419355,59.7942857 14.2258065,52.9028571 14.7580645,51.6857143 C15.3064516,50.4685714 17.483871,46.4057143 17.483871,46.4057143 L17.483871,86.5714286 C17.483871,86.5714286 29.8548387,86.3828571 31.5322581,86.5714286 C33.2096774,86.76 34.0967742,87.1371429 34.2096774,85.8514286 C34.2741935,85.0971429 34.5483871,84.9257143 34.7580645,84.9257143 L34.7580645,84.9942857 C34.7580645,84.9942857 34.8225806,84.9771429 34.9193548,84.96 C34.983871,84.9771429 35.016129,84.9942857 35.016129,84.9942857 L35.016129,84.9428571 C35.3548387,84.9085714 35.9032258,84.9771429 35.983871,85.8685714 C36.0967742,87.1542857 36.983871,86.7771429 38.6612903,86.5885714 C40.3387097,86.4 52.7096774,86.5885714 52.7096774,86.5885714 L52.7096774,46.4057143 C52.7096774,46.4057143 54.8870968,50.4685714 55.4354839,51.6857143 C55.983871,52.9028571 58.9677419,59.7942857 59.5645161,64.9371429 C60.1774194,70.08 60.7741935,78.1371429 60.8064516,80.1942857 C60.8548387,82.2514286 60.9677419,84.24 60.9677419,84.24 L69.6129032,83.4342857 C69.6451613,83.4514286 69.5,71.4514286 69.4354839,70.08 Z" id="Shape" fill="#94B7BF"></path>
                <path d="M34.7419355,65.52 C34.3387097,60.96 30.483871,42.7371429 28.5645161,38.1085714 C26.6451613,33.48 24.2903226,29.0571429 26.5645161,27.8914286 C28.8387097,26.7257143 31.8225806,26.64 33.6612903,26.64 C35.5,26.64 41.4516129,26.64 42.8548387,27.6171429 C44.2580645,28.6114286 44.7580645,29.0057143 44.2096774,30.6685714 C43.6612903,32.3314286 41.3548387,40.0114286 40.1612903,43.4914286 C38.9677419,46.9885714 35.4677419,65.3142857 35.4677419,65.3142857 L34.7419355,65.52 Z" id="Shape" fill="#4C6772"></path>
                <path d="M49.2741935,18.9942857 C49.2741935,21.36 49.2419355,22.2171429 47.6935484,23.0914286 C46.3548387,25.0114286 45.7580645,29.1428571 43.7096774,28.1657143 C39.7580645,26.2285714 37.3225806,26.7428571 35.0806452,26.6571429 C32.8387097,26.5714286 28.3709677,26.9142857 25.7741935,28.5771429 C24.4516129,27.9942857 23.8870968,25.5257143 23.5806452,24.5314286 C23.2741935,23.5371429 22.0967742,22.7657143 20.9032258,22.8171429 C20.9032258,18.7714286 20.4032258,17.4685714 21.7580645,17.1428571 C24.4032258,17.3485714 31.5806452,19.8342857 34.2258065,19.6457143 C36.8709677,19.4571429 40.4032258,19.1314286 41.6935484,18.1885714 C42.983871,17.2457143 48.4193548,16.6971429 49.3548387,17.1428571 C49.2741935,18.0171429 49.2741935,18.9942857 49.2741935,18.9942857 Z" id="Shape" fill="#7C9DA3"></path>
                <g opacity="0.25" transform="translate(20.645161, 3.257143)" fill="#FFFFFF" id="Shape">
                    <path d="M8.48387097,0.154285714 C5.64516129,3.10285714 4.72580645,10.9714286 4.58064516,14.2628571 C1.0483871,13.9542857 0.887096774,13.7142857 0.112903226,14.04 C3.09677419,4.38857143 6.77419355,1.47428571 8.48387097,0.154285714 Z"></path>
                </g>
                <path d="M35.5967742,64.6114286 C35.5,66.4628571 36.1451613,66.2571429 36.8548387,63.8742857 C37.5806452,61.4914286 40.9193548,52.4228571 43.0806452,48.3085714 C45.2419355,44.1942857 52.2741935,30.4628571 54.9677419,27.2742857 C55.5645161,26.7771429 55.5322581,26.1771429 54.7903226,25.5257143 C54.0483871,24.8742857 51.0645161,22.1828571 48.3064516,22.5428571 C46.6129032,24.5657143 45.5322581,26.0914286 44.983871,27.9085714 C44.4193548,29.7257143 41.0645161,40.2 39.9677419,44.1771429 C38.8387097,48.1542857 35.8870968,62.6057143 35.5967742,64.6114286 Z" id="Shape" fill="#7C9DA3"></path>
                <path d="M34.7258065,64.6114286 C34.8225806,66.4628571 34.1774194,66.2571429 33.4677419,63.8742857 C32.7419355,61.4914286 29.4032258,52.4228571 27.2419355,48.3085714 C25.0806452,44.1942857 18.0483871,30.4628571 15.3548387,27.2742857 C14.7580645,26.7771429 14.7903226,26.1771429 15.5322581,25.5257143 C16.2741935,24.8742857 19.2580645,22.1828571 22.016129,22.5428571 C23.7096774,24.5657143 24.7903226,26.0914286 25.3387097,27.9085714 C25.9032258,29.7257143 29.2580645,40.2 30.3548387,44.1771429 C31.4516129,48.1542857 34.4354839,62.6057143 34.7258065,64.6114286 Z" id="Shape" fill="#7C9DA3"></path>
                <path d="M39.516129,16.4228571 C39.5645161,17.3485714 40.3709677,19.3542857 37.483871,19.5771429 C34.5967742,19.8 31.6129032,19.3885714 30.6290323,19.1142857 C29.6612903,18.84 30.4193548,14.76 30.4354839,14.3314286 C30.4516129,13.9028571 30.983871,2.60571429 30.983871,2.60571429 C30.983871,2.60571429 32.1774194,1.2 32.6129032,1.08 C33.0483871,0.96 36.3387097,0.685714286 37.2419355,0.994285714 C38.1451613,1.30285714 38.7903226,2.53714286 38.7903226,2.53714286 L39.516129,16.4228571 Z" id="Shape" fill="#4E554F"></path>
                <path d="M52.7096774,30.84 C56.2419355,33.9942857 59.3709677,41.7257143 62.016129,49.92 C63.483871,54.4285714 64.3225806,58.5942857 64.5967742,62.2114286 C64.8709677,65.8285714 67.9032258,65.6742857 69.0806452,65.76 C68.2258065,56.8285714 66.016129,49.4742857 64.9354839,46.2342857 C63.8387097,42.9942857 59.2580645,30.6342857 55.7419355,27.2742857 C54.5483871,27.6857143 53.0483871,30.3257143 52.7096774,30.84 Z" id="Shape" fill="#4E554F"></path>
                <path d="M1.03225806,65.76 C2.19354839,65.6914286 5.24193548,65.8285714 5.51612903,62.2114286 C5.79032258,58.5942857 6.62903226,54.4285714 8.09677419,49.92 C10.7419355,41.7257143 13.8709677,33.9942857 17.4032258,30.84 L14.7258065,26.6571429 C14.7258065,26.6571429 12.8225806,29.0057143 11.1935484,31.5771429 C9.56451613,34.1657143 7.51612903,40.2857143 6.03225806,43.9714286 C4.53225806,47.64 1.24193548,62.4171429 1.03225806,65.76 Z" id="Shape" fill="#4E554F"></path>
                <g opacity="0.25" transform="translate(0.483871, 26.742857)" fill="#FFFFFF" id="Shape">
                    <path d="M16.1612903,2.31428571 C11.8225806,6.56571429 7.93548387,17.4342857 6.62903226,21.72 C5.32258065,26.0228571 3.37096774,32.7942857 3.27419355,42.5828571 C3.17741935,52.3885714 3.27419355,57.0342857 3.27419355,57.0342857 L0.0806451613,56.7085714 C0.0806451613,56.7085714 0.290322581,40.1485714 0.532258065,36.5485714 C0.774193548,32.9485714 3.67741935,22.9371429 4.32258065,20.8971429 C4.96774194,18.8571429 10.3548387,3.24 14.3225806,0.0514285714 C15.3064516,1.06285714 16.1612903,2.31428571 16.1612903,2.31428571 Z"></path>
                </g>
                <g opacity="0.25" transform="translate(40.967742, 3.257143)" fill="#FFFFFF" id="Shape">
                    <path d="M0.0483870968,0.154285714 C2.88709677,3.10285714 3.80645161,10.9714286 3.9516129,14.2628571 C7.48387097,13.9542857 7.64516129,13.7142857 8.41935484,14.04 C5.4516129,4.38857143 1.77419355,1.47428571 0.0483870968,0.154285714 Z"></path>
                </g>
                <g opacity="0.25" transform="translate(53.387097, 26.742857)" fill="#FFFFFF" id="Shape">
                    <path d="M0.129032258,2.31428571 C4.46774194,6.56571429 8.35483871,17.4342857 9.66129032,21.72 C10.9677419,26.0228571 12.9193548,32.7942857 13.016129,42.5828571 C13.1129032,52.3885714 13.016129,57.0342857 13.016129,57.0342857 L16.2096774,56.7085714 C16.2096774,56.7085714 16,40.1485714 15.7580645,36.5485714 C15.516129,32.9485714 12.6129032,22.9371429 11.9677419,20.8971429 C11.3225806,18.8571429 5.93548387,3.24 1.96774194,0.0514285714 C0.983870968,1.06285714 0.129032258,2.31428571 0.129032258,2.31428571 Z"></path>
                </g>
                <path d="M35.0967742,70.8514286 C34.8548387,70.8514286 34.6290323,70.6628571 34.5806452,70.4057143 C32.0322581,57.8742857 19.5806452,33.4628571 14.0645161,26.9314286 L13.7580645,26.5714286 L14.0483871,26.1942857 C14.9677419,24.9771429 17.2903226,22.8 20.3870968,22.08 L20.3870968,17.5028571 C20.3870968,13.4228571 26.6612903,0.12 35.1129032,0.12 C35.4032258,0.12 35.6451613,0.377142857 35.6451613,0.685714286 C35.6451613,0.994285714 35.4032258,1.25142857 35.1129032,1.25142857 C27.2741935,1.25142857 21.4677419,14.0914286 21.4677419,17.5028571 L21.4677419,23.04 L21.016129,23.1257143 C18.3225806,23.6228571 16.2096774,25.3885714 15.1774194,26.5714286 C17.9354839,30 22.2419355,37.3885714 26.2903226,45.6685714 C31.0322581,55.3885714 34.4516129,64.32 35.6290323,70.2 C35.6935484,70.5085714 35.5,70.8171429 35.2258065,70.8685714 C35.1612903,70.8514286 35.1290323,70.8514286 35.0967742,70.8514286 Z" id="Shape" fill="#000000"></path>
                <path d="M35.0967742,70.8514286 C34.8064516,70.8514286 34.5645161,70.5942857 34.5645161,70.2857143 C34.5645161,66.36 33.1451613,57.2228571 31.5806452,51.12 C29.4677419,42.8742857 26.7903226,34.7314286 24.983871,29.3314286 C23.4516129,24.7714286 22.2580645,22.92 21,23.1085714 C20.7096774,23.16 20.4354839,22.9371429 20.3870968,22.6285714 C20.3387097,22.32 20.5483871,22.0285714 20.8387097,21.9771429 C23.0483871,21.6342857 24.4516129,24.3771429 25.983871,28.9371429 C27.8064516,34.3542857 30.483871,42.5314286 32.6129032,50.8114286 C34.0483871,56.4 35.6451613,65.76 35.6451613,70.2685714 C35.6290323,70.6114286 35.3870968,70.8514286 35.0967742,70.8514286 Z" id="Shape" fill="#000000"></path>
                <path d="M34.7580645,87.1542857 L16.9516129,87.1542857 L16.9516129,48.4114286 C15.5,51.2057143 13.1935484,56.4171429 12.3064516,59.1771429 C11.1451613,62.8285714 9.85483871,74.0228571 9.85483871,84.2571429 L9.85483871,84.8742857 L9.27419355,84.8228571 C8.9516129,84.7885714 1.5,84.1885714 0.483870968,84 L0.0322580645,83.9142857 L0.0322580645,82.5257143 C0.0322580645,77.9314286 0.0161290323,67.1828571 1.0483871,60.7885714 C2.29032258,53.0742857 7.41935484,33.7714286 14.5322581,26.6742857 C14.7419355,26.4514286 15.0806452,26.4685714 15.2903226,26.6914286 C15.5,26.9142857 15.483871,27.2742857 15.2741935,27.4971429 C11.4354839,31.3371429 8.35483871,38.76 6.4516129,44.3314286 C4.29032258,50.6571429 2.70967742,57.2571429 2.11290323,60.9771429 C1.09677419,67.2685714 1.11290323,77.9485714 1.11290323,82.5085714 L1.11290323,82.9028571 C2.51612903,83.0742857 6.35483871,83.4 8.79032258,83.6057143 C8.83870968,73.4228571 10.1290323,62.4342857 11.3064516,58.7828571 C12.483871,55.0971429 16,47.4857143 17.0806452,46.0285714 L18.0322581,44.7428571 L18.0322581,85.9885714 L33.6935484,85.9885714 L33.6935484,85.2685714 C33.6935484,84.96 33.9354839,84.7028571 34.2258065,84.7028571 C34.516129,84.7028571 34.7580645,84.96 34.7580645,85.2685714 L34.7580645,87.1542857 Z" id="Shape" fill="#000000"></path>
                <path d="M35.0967742,70.8514286 C35.0645161,70.8514286 35.016129,70.8514286 34.983871,70.8342857 C34.6935484,70.7657143 34.516129,70.4571429 34.5806452,70.1657143 C35.7741935,64.3028571 39.1774194,55.3542857 43.9193548,45.6342857 C47.9516129,37.3714286 52.2580645,29.9828571 55.0322581,26.5371429 C54.016129,25.3542857 51.9032258,23.5885714 49.1935484,23.0914286 L48.7419355,23.0057143 L48.7419355,17.4685714 C48.7419355,14.0742857 42.9354839,1.21714286 35.0967742,1.21714286 C34.8064516,1.21714286 34.5645161,0.96 34.5645161,0.651428571 C34.5645161,0.342857143 34.8064516,0.0857142857 35.0967742,0.0857142857 C43.5483871,0.0857142857 49.8225806,13.3885714 49.8225806,17.4685714 L49.8225806,22.0457143 C52.9032258,22.7657143 55.2419355,24.9428571 56.1612903,26.16 L56.4516129,26.5371429 L56.1451613,26.8971429 C50.6290323,33.4285714 38.1774194,57.84 35.6290323,70.3714286 C35.5645161,70.68 35.3387097,70.8514286 35.0967742,70.8514286 Z" id="Shape" fill="#000000"></path>
                <path d="M35.0967742,20.3828571 C32.6935484,20.3828571 30.0967742,19.5771429 27.8064516,18.8742857 C25.1129032,18.0514286 22.5806452,17.2628571 21.1451613,18.0171429 C20.8870968,18.1542857 20.5645161,18.0342857 20.4193548,17.76 C20.2903226,17.4857143 20.4032258,17.1428571 20.6612903,16.9885714 C22.4677419,16.0457143 25.0806452,16.8514286 28.0967742,17.7771429 C30.4193548,18.4971429 32.8387097,19.2342857 35.0967742,19.2342857 C37.3548387,19.2342857 39.7580645,18.4971429 42.0967742,17.7771429 C45.1129032,16.8514286 47.7258065,16.0457143 49.5322581,16.9885714 C49.7903226,17.1257143 49.9032258,17.4685714 49.7741935,17.76 C49.6451613,18.0342857 49.3225806,18.1542857 49.0483871,18.0171429 C47.6129032,17.2628571 45.0806452,18.0514286 42.3870968,18.8742857 C40.0967742,19.5771429 37.5,20.3828571 35.0967742,20.3828571 Z" id="Shape" fill="#000000"></path>
                <path d="M35.0967742,70.8514286 C34.8064516,70.8514286 34.5645161,70.5942857 34.5645161,70.2857143 C34.5645161,65.7771429 36.1612903,56.4171429 37.5967742,50.8285714 C39.7258065,42.5485714 42.4032258,34.3714286 44.2258065,28.9542857 C45.7580645,24.3942857 47.1612903,21.6342857 49.3709677,21.9942857 C49.6612903,22.0457143 49.8709677,22.3371429 49.8225806,22.6457143 C49.7741935,22.9542857 49.5,23.1771429 49.2096774,23.1257143 C47.9516129,22.92 46.7741935,24.7885714 45.2258065,29.3485714 C43.4032258,34.7485714 40.7419355,42.8914286 38.6290323,51.1371429 C37.0645161,57.24 35.6451613,66.3771429 35.6451613,70.3028571 C35.6290323,70.6114286 35.3870968,70.8514286 35.0967742,70.8514286 Z" id="Shape" fill="#000000"></path>
                <path d="M53.2258065,87.1542857 L35.3548387,87.1542857 L35.3548387,85.5085714 C35.3548387,85.2 35.5967742,84.9428571 35.8870968,84.9428571 C36.1774194,84.9428571 36.4193548,85.2 36.4193548,85.5085714 L36.4193548,86.0228571 L52.1451613,86.0228571 L52.1451613,44.7771429 L53.0967742,46.0628571 C54.1774194,47.52 57.6935484,55.1314286 58.8709677,58.8171429 C60.0322581,62.4685714 61.3387097,73.4742857 61.3870968,83.64 C63.8225806,83.4342857 67.6451613,83.1085714 69.0645161,82.9371429 L69.0645161,82.5428571 C69.0645161,77.9828571 69.0806452,67.3028571 68.0645161,61.0114286 C67.4677419,57.2914286 65.8870968,50.6914286 63.7258065,44.3657143 C61.8225806,38.8114286 58.7419355,31.3714286 54.9032258,27.5314286 C54.6935484,27.3085714 54.6774194,26.9485714 54.8870968,26.7257143 C55.0967742,26.5028571 55.4354839,26.4857143 55.6451613,26.7085714 C62.7580645,33.8057143 67.8870968,53.1085714 69.1290323,60.8228571 C70.1612903,67.2171429 70.1451613,77.9657143 70.1451613,82.56 L70.1451613,83.9485714 L69.6935484,84.0342857 C68.6774194,84.2057143 61.2258065,84.8228571 60.9032258,84.8571429 L60.3225806,84.9085714 L60.3225806,84.2914286 C60.3225806,74.0571429 59.0322581,62.8628571 57.8709677,59.2114286 C57,56.4514286 54.6774194,51.24 53.2258065,48.4457143 L53.2258065,87.1542857 Z" id="Shape" fill="#000000"></path>
                <path d="M44.7096774,29.7085714 C44.5483871,29.7085714 44.4032258,29.64 44.2903226,29.5028571 C42.5483871,27.2228571 39.0806452,27.2228571 35.0806452,27.2228571 C31.0806452,27.2228571 27.6129032,27.2228571 25.8709677,29.5028571 C25.6774194,29.7428571 25.3387097,29.7771429 25.1129032,29.5885714 C24.8870968,29.3828571 24.8548387,29.0228571 25.0322581,28.7828571 C27.0967742,26.0742857 30.7903226,26.0742857 35.0806452,26.0742857 C39.3709677,26.0742857 43.0483871,26.0742857 45.1290323,28.7828571 C45.3225806,29.0228571 45.2741935,29.3828571 45.0483871,29.5885714 C44.9516129,29.6742857 44.8387097,29.7085714 44.7096774,29.7085714 Z" id="Shape" fill="#000000"></path>
                <g transform="translate(34.032258, 82.971429)" fill="#000000" id="Shape">
                    <path d="M1.69354839,2.41714286 L0.387096774,2.41714286 C0.177419355,2.41714286 0.0161290323,2.24571429 0.0161290323,2.02285714 C0.0161290323,1.8 0.177419355,1.62857143 0.387096774,1.62857143 L1.69354839,1.62857143 C1.90322581,1.62857143 2.06451613,1.8 2.06451613,2.02285714 C2.06451613,2.24571429 1.90322581,2.41714286 1.69354839,2.41714286 Z"></path>
                    <path d="M1.69354839,0.891428571 L0.387096774,0.891428571 C0.177419355,0.891428571 0.0161290323,0.72 0.0161290323,0.497142857 C0.0161290323,0.274285714 0.177419355,0.102857143 0.387096774,0.102857143 L1.69354839,0.102857143 C1.90322581,0.102857143 2.06451613,0.274285714 2.06451613,0.497142857 C2.06451613,0.72 1.90322581,0.891428571 1.69354839,0.891428571 Z"></path>
                </g>
                <path d="M35.7258065,82.3371429 L34.4193548,82.3371429 C34.2096774,82.3371429 34.0483871,82.1657143 34.0483871,81.9428571 C34.0483871,81.72 34.2096774,81.5485714 34.4193548,81.5485714 L35.7258065,81.5485714 C35.9354839,81.5485714 36.0967742,81.72 36.0967742,81.9428571 C36.0967742,82.1657143 35.9354839,82.3371429 35.7258065,82.3371429 Z" id="Shape" fill="#000000"></path>
                <path d="M35.7258065,80.8114286 L34.4193548,80.8114286 C34.2096774,80.8114286 34.0483871,80.64 34.0483871,80.4171429 C34.0483871,80.1942857 34.2096774,80.0228571 34.4193548,80.0228571 L35.7258065,80.0228571 C35.9354839,80.0228571 36.0967742,80.1942857 36.0967742,80.4171429 C36.0967742,80.64 35.9354839,80.8114286 35.7258065,80.8114286 Z" id="Shape" fill="#000000"></path>
                <path d="M35.7258065,79.2685714 L34.4193548,79.2685714 C34.2096774,79.2685714 34.0483871,79.0971429 34.0483871,78.8742857 C34.0483871,78.6514286 34.2096774,78.48 34.4193548,78.48 L35.7258065,78.48 C35.9354839,78.48 36.0967742,78.6514286 36.0967742,78.8742857 C36.0967742,79.0971429 35.9354839,79.2685714 35.7258065,79.2685714 Z" id="Shape" fill="#000000"></path>
                <path d="M35.7258065,77.7428571 L34.4193548,77.7428571 C34.2096774,77.7428571 34.0483871,77.5714286 34.0483871,77.3485714 C34.0483871,77.1257143 34.2096774,76.9542857 34.4193548,76.9542857 L35.7258065,76.9542857 C35.9354839,76.9542857 36.0967742,77.1257143 36.0967742,77.3485714 C36.0967742,77.5714286 35.9354839,77.7428571 35.7258065,77.7428571 Z" id="Shape" fill="#000000"></path>
                <path d="M35.7258065,76.2171429 L34.4193548,76.2171429 C34.2096774,76.2171429 34.0483871,76.0457143 34.0483871,75.8228571 C34.0483871,75.6 34.2096774,75.4285714 34.4193548,75.4285714 L35.7258065,75.4285714 C35.9354839,75.4285714 36.0967742,75.6 36.0967742,75.8228571 C36.0967742,76.0457143 35.9354839,76.2171429 35.7258065,76.2171429 Z" id="Shape" fill="#000000"></path>
                <path d="M35.7258065,74.6742857 L34.4193548,74.6742857 C34.2096774,74.6742857 34.0483871,74.5028571 34.0483871,74.28 C34.0483871,74.0571429 34.2096774,73.8857143 34.4193548,73.8857143 L35.7258065,73.8857143 C35.9354839,73.8857143 36.0967742,74.0571429 36.0967742,74.28 C36.0967742,74.5028571 35.9354839,74.6742857 35.7258065,74.6742857 Z" id="Shape" fill="#000000"></path>
                <path d="M35.7258065,73.1314286 L34.4193548,73.1314286 C34.2096774,73.1314286 34.0483871,72.96 34.0483871,72.7371429 C34.0483871,72.5142857 34.2096774,72.3428571 34.4193548,72.3428571 L35.7258065,72.3428571 C35.9354839,72.3428571 36.0967742,72.5142857 36.0967742,72.7371429 C36.0967742,72.96 35.9354839,73.1314286 35.7258065,73.1314286 Z" id="Shape" fill="#000000"></path>
                <path d="M35.7258065,71.6057143 L34.4193548,71.6057143 C34.2096774,71.6057143 34.0483871,71.4342857 34.0483871,71.2114286 C34.0483871,70.9885714 34.2096774,70.8171429 34.4193548,70.8171429 L35.7258065,70.8171429 C35.9354839,70.8171429 36.0967742,70.9885714 36.0967742,71.2114286 C36.0967742,71.4342857 35.9354839,71.6057143 35.7258065,71.6057143 Z" id="Shape" fill="#000000"></path>
                <g transform="translate(35.322581, 28.114286)" fill="#000000" id="Shape">
                    <g transform="translate(0.000000, 31.371429)">
                        <path d="M3.90322581,1.50857143 C3.83870968,1.50857143 3.77419355,1.49142857 3.72580645,1.45714286 L2.61290323,0.788571429 C2.43548387,0.685714286 2.37096774,0.445714286 2.46774194,0.257142857 C2.56451613,0.0685714286 2.79032258,-1.69170233e-14 2.96774194,0.102857143 L4.08064516,0.771428571 C4.25806452,0.874285714 4.32258065,1.11428571 4.22580645,1.30285714 C4.16129032,1.44 4.03225806,1.50857143 3.90322581,1.50857143 Z"></path>
                        <path d="M3.33870968,3 C3.27419355,3 3.22580645,2.98285714 3.16129032,2.94857143 L2.08064516,2.34857143 C1.90322581,2.24571429 1.82258065,2.00571429 1.91935484,1.81714286 C2.01612903,1.62857143 2.24193548,1.54285714 2.41935484,1.64571429 L3.5,2.24571429 C3.67741935,2.34857143 3.75806452,2.58857143 3.66129032,2.77714286 C3.59677419,2.91428571 3.46774194,3 3.33870968,3 Z"></path>
                        <path d="M2.82258065,4.37142857 C2.75806452,4.37142857 2.70967742,4.35428571 2.64516129,4.32 L1.58064516,3.72 C1.40322581,3.61714286 1.32258065,3.37714286 1.41935484,3.18857143 C1.51612903,3 1.74193548,2.91428571 1.91935484,3.01714286 L2.98387097,3.61714286 C3.16129032,3.72 3.24193548,3.96 3.14516129,4.14857143 C3.08064516,4.28571429 2.9516129,4.37142857 2.82258065,4.37142857 Z"></path>
                        <path d="M2.25806452,5.84571429 C2.19354839,5.84571429 2.14516129,5.82857143 2.08064516,5.79428571 L1.06451613,5.22857143 C0.887096774,5.12571429 0.806451613,4.88571429 0.903225806,4.69714286 C1,4.50857143 1.22580645,4.42285714 1.40322581,4.52571429 L2.41935484,5.09142857 C2.59677419,5.19428571 2.67741935,5.43428571 2.58064516,5.62285714 C2.51612903,5.77714286 2.38709677,5.84571429 2.25806452,5.84571429 Z"></path>
                        <path d="M1.69354839,7.33714286 C1.62903226,7.33714286 1.58064516,7.32 1.51612903,7.28571429 L0.322580645,6.61714286 C0.14516129,6.51428571 0.064516129,6.27428571 0.161290323,6.08571429 C0.258064516,5.89714286 0.483870968,5.81142857 0.661290323,5.91428571 L1.85483871,6.58285714 C2.03225806,6.68571429 2.11290323,6.92571429 2.01612903,7.11428571 C1.9516129,7.25142857 1.82258065,7.33714286 1.69354839,7.33714286 Z"></path>
                    </g>
                    <g transform="translate(12.419355, 5.142857)">
                        <path d="M4.43548387,1.73142857 C4.35483871,1.73142857 4.27419355,1.69714286 4.20967742,1.64571429 L3.12903226,0.754285714 C2.96774194,0.617142857 2.93548387,0.377142857 3.06451613,0.205714286 C3.19354839,0.0342857143 3.41935484,2.29885555e-14 3.58064516,0.137142857 L4.66129032,1.02857143 C4.82258065,1.16571429 4.85483871,1.40571429 4.72580645,1.57714286 C4.64516129,1.68 4.5483871,1.73142857 4.43548387,1.73142857 Z"></path>
                        <path d="M3.67741935,3.08571429 C3.59677419,3.08571429 3.51612903,3.05142857 3.4516129,3 L2.37096774,2.10857143 C2.20967742,1.97142857 2.17741935,1.73142857 2.30645161,1.56 C2.43548387,1.38857143 2.66129032,1.35428571 2.82258065,1.49142857 L3.90322581,2.38285714 C4.06451613,2.52 4.09677419,2.76 3.96774194,2.93142857 C3.90322581,3.03428571 3.79032258,3.08571429 3.67741935,3.08571429 Z"></path>
                        <path d="M2.98387097,4.33714286 C2.90322581,4.33714286 2.82258065,4.30285714 2.75806452,4.25142857 L1.67741935,3.36 C1.51612903,3.22285714 1.48387097,2.98285714 1.61290323,2.81142857 C1.74193548,2.64 1.96774194,2.60571429 2.12903226,2.74285714 L3.20967742,3.63428571 C3.37096774,3.77142857 3.40322581,4.01142857 3.27419355,4.18285714 C3.20967742,4.28571429 3.09677419,4.33714286 2.98387097,4.33714286 Z"></path>
                        <path d="M2.22580645,5.69142857 C2.14516129,5.69142857 2.06451613,5.65714286 2,5.60571429 L0.919354839,4.71428571 C0.758064516,4.57714286 0.725806452,4.33714286 0.85483871,4.16571429 C0.983870968,3.99428571 1.20967742,3.96 1.37096774,4.09714286 L2.4516129,4.98857143 C2.61290323,5.12571429 2.64516129,5.36571429 2.51612903,5.53714286 C2.4516129,5.64 2.33870968,5.69142857 2.22580645,5.69142857 Z"></path>
                        <path d="M1.48387097,7.04571429 C1.40322581,7.04571429 1.32258065,7.01142857 1.25806452,6.96 L0.177419355,6.06857143 C0.0161290323,5.93142857 -0.0161290323,5.69142857 0.112903226,5.52 C0.241935484,5.34857143 0.467741935,5.31428571 0.629032258,5.45142857 L1.70967742,6.34285714 C1.87096774,6.48 1.90322581,6.72 1.77419355,6.89142857 C1.69354839,6.99428571 1.59677419,7.04571429 1.48387097,7.04571429 Z"></path>
                    </g>
                    <g transform="translate(15.322581, 0.000000)">
                        <path d="M4.66129032,1.8 C4.58064516,1.8 4.48387097,1.76571429 4.41935484,1.69714286 L3.37096774,0.737142857 C3.20967742,0.6 3.19354839,0.342857143 3.33870968,0.171428571 C3.46774194,4.51028104e-15 3.70967742,-0.0171428571 3.87096774,0.137142857 L4.91935484,1.09714286 C5.08064516,1.23428571 5.09677419,1.49142857 4.9516129,1.66285714 C4.87096774,1.76571429 4.75806452,1.8 4.66129032,1.8 Z"></path>
                        <path d="M3.85483871,3.12 C3.77419355,3.12 3.67741935,3.08571429 3.61290323,3.01714286 L2.56451613,2.05714286 C2.40322581,1.92 2.38709677,1.66285714 2.53225806,1.49142857 C2.66129032,1.32 2.90322581,1.30285714 3.06451613,1.45714286 L4.11290323,2.41714286 C4.27419355,2.55428571 4.29032258,2.81142857 4.14516129,2.98285714 C4.06451613,3.06857143 3.9516129,3.12 3.85483871,3.12 Z"></path>
                        <path d="M3.09677419,4.32 C3.01612903,4.32 2.91935484,4.28571429 2.85483871,4.21714286 L1.80645161,3.25714286 C1.64516129,3.12 1.62903226,2.86285714 1.77419355,2.69142857 C1.90322581,2.52 2.14516129,2.50285714 2.30645161,2.65714286 L3.35483871,3.61714286 C3.51612903,3.75428571 3.53225806,4.01142857 3.38709677,4.18285714 C3.30645161,4.28571429 3.20967742,4.32 3.09677419,4.32 Z"></path>
                        <path d="M2.29032258,5.64 C2.20967742,5.64 2.11290323,5.60571429 2.0483871,5.53714286 L1,4.57714286 C0.838709677,4.44 0.822580645,4.18285714 0.967741935,4.01142857 C1.09677419,3.84 1.33870968,3.82285714 1.5,3.97714286 L2.5483871,4.93714286 C2.70967742,5.07428571 2.72580645,5.33142857 2.58064516,5.50285714 C2.5,5.58857143 2.40322581,5.64 2.29032258,5.64 Z"></path>
                        <path d="M1.48387097,6.94285714 C1.40322581,6.94285714 1.30645161,6.90857143 1.24193548,6.84 L0.193548387,5.88 C0.0322580645,5.74285714 0.0161290323,5.48571429 0.161290323,5.31428571 C0.290322581,5.14285714 0.532258065,5.12571429 0.693548387,5.28 L1.74193548,6.24 C1.90322581,6.37714286 1.91935484,6.63428571 1.77419355,6.80571429 C1.69354839,6.89142857 1.59677419,6.94285714 1.48387097,6.94285714 Z"></path>
                    </g>
                    <g transform="translate(2.903226, 22.800000)">
                        <path d="M4.62903226,1.54285714 C4.56451613,1.54285714 4.5,1.52571429 4.43548387,1.49142857 L3.27419355,0.754285714 C3.09677419,0.634285714 3.0483871,0.394285714 3.14516129,0.205714286 C3.25806452,0.0171428571 3.48387097,-0.0342857143 3.66129032,0.0685714286 L4.82258065,0.805714286 C5,0.925714286 5.0483871,1.16571429 4.9516129,1.35428571 C4.87096774,1.47428571 4.74193548,1.54285714 4.62903226,1.54285714 Z"></path>
                        <path d="M4,2.98285714 C3.93548387,2.98285714 3.87096774,2.96571429 3.80645161,2.93142857 L2.64516129,2.19428571 C2.46774194,2.07428571 2.41935484,1.83428571 2.51612903,1.64571429 C2.62903226,1.45714286 2.85483871,1.40571429 3.03225806,1.50857143 L4.19354839,2.24571429 C4.37096774,2.36571429 4.41935484,2.60571429 4.32258065,2.79428571 C4.24193548,2.91428571 4.12903226,2.98285714 4,2.98285714 Z"></path>
                        <path d="M3.37096774,4.44 C3.30645161,4.44 3.24193548,4.42285714 3.17741935,4.38857143 L2.01612903,3.65142857 C1.83870968,3.53142857 1.79032258,3.29142857 1.88709677,3.10285714 C2,2.91428571 2.22580645,2.86285714 2.40322581,2.96571429 L3.56451613,3.70285714 C3.74193548,3.82285714 3.79032258,4.06285714 3.69354839,4.25142857 C3.61290323,4.37142857 3.5,4.44 3.37096774,4.44 Z"></path>
                        <path d="M2.79032258,5.77714286 C2.72580645,5.77714286 2.66129032,5.76 2.59677419,5.72571429 L1.43548387,4.98857143 C1.25806452,4.86857143 1.20967742,4.62857143 1.30645161,4.44 C1.41935484,4.25142857 1.64516129,4.2 1.82258065,4.30285714 L2.98387097,5.04 C3.16129032,5.16 3.20967742,5.4 3.11290323,5.58857143 C3.03225806,5.70857143 2.91935484,5.77714286 2.79032258,5.77714286 Z"></path>
                        <path d="M2.16129032,7.21714286 C2.09677419,7.21714286 2.03225806,7.2 1.96774194,7.16571429 L0.806451613,6.42857143 C0.629032258,6.30857143 0.580645161,6.06857143 0.677419355,5.88 C0.790322581,5.69142857 1.01612903,5.64 1.19354839,5.74285714 L2.35483871,6.48 C2.53225806,6.6 2.58064516,6.84 2.48387097,7.02857143 C2.40322581,7.14857143 2.29032258,7.21714286 2.16129032,7.21714286 Z"></path>
                        <path d="M1.53225806,8.67428571 C1.46774194,8.67428571 1.40322581,8.65714286 1.33870968,8.62285714 L0.274193548,7.93714286 C0.0967741935,7.81714286 0.0483870968,7.57714286 0.14516129,7.38857143 C0.258064516,7.2 0.483870968,7.14857143 0.661290323,7.25142857 L1.72580645,7.93714286 C1.90322581,8.05714286 1.9516129,8.29714286 1.85483871,8.48571429 C1.79032258,8.60571429 1.66129032,8.67428571 1.53225806,8.67428571 Z"></path>
                    </g>
                    <g transform="translate(6.612903, 15.771429)">
                        <path d="M4.29032258,1.74857143 C4.20967742,1.74857143 4.14516129,1.73142857 4.08064516,1.68 L2.96774194,0.857142857 C2.80645161,0.737142857 2.75806452,0.48 2.87096774,0.308571429 C2.98387097,0.137142857 3.22580645,0.0857142857 3.38709677,0.205714286 L4.5,1.02857143 C4.66129032,1.14857143 4.70967742,1.40571429 4.59677419,1.57714286 C4.53225806,1.69714286 4.41935484,1.74857143 4.29032258,1.74857143 Z"></path>
                        <path d="M3.59677419,3.15428571 C3.51612903,3.15428571 3.4516129,3.13714286 3.38709677,3.08571429 L2.27419355,2.26285714 C2.11290323,2.14285714 2.06451613,1.88571429 2.17741935,1.71428571 C2.29032258,1.52571429 2.53225806,1.49142857 2.69354839,1.61142857 L3.80645161,2.43428571 C3.96774194,2.55428571 4.01612903,2.81142857 3.90322581,2.98285714 C3.83870968,3.08571429 3.72580645,3.15428571 3.59677419,3.15428571 Z"></path>
                        <path d="M2.90322581,4.56 C2.82258065,4.56 2.75806452,4.54285714 2.69354839,4.49142857 L1.58064516,3.66857143 C1.41935484,3.54857143 1.37096774,3.29142857 1.48387097,3.12 C1.59677419,2.94857143 1.83870968,2.89714286 2,3.01714286 L3.11290323,3.84 C3.27419355,3.96 3.32258065,4.21714286 3.20967742,4.38857143 C3.14516129,4.49142857 3.03225806,4.56 2.90322581,4.56 Z"></path>
                        <path d="M2.25806452,5.84571429 C2.17741935,5.84571429 2.11290323,5.82857143 2.0483871,5.77714286 L0.935483871,4.95428571 C0.774193548,4.83428571 0.725806452,4.57714286 0.838709677,4.40571429 C0.951612903,4.23428571 1.19354839,4.18285714 1.35483871,4.30285714 L2.46774194,5.12571429 C2.62903226,5.24571429 2.67741935,5.50285714 2.56451613,5.67428571 C2.5,5.79428571 2.38709677,5.84571429 2.25806452,5.84571429 Z"></path>
                        <path d="M1.56451613,7.25142857 C1.48387097,7.25142857 1.41935484,7.23428571 1.35483871,7.18285714 L0.241935484,6.36 C0.0806451613,6.24 0.0322580645,5.98285714 0.14516129,5.81142857 C0.258064516,5.64 0.5,5.58857143 0.661290323,5.70857143 L1.77419355,6.53142857 C1.93548387,6.65142857 1.98387097,6.90857143 1.87096774,7.08 C1.80645161,7.18285714 1.69354839,7.25142857 1.56451613,7.25142857 Z"></path>
                    </g>
                    <g transform="translate(10.161290, 10.457143)">
                        <path d="M3.70967742,1.8 C3.62903226,1.8 3.5483871,1.76571429 3.48387097,1.71428571 L2.40322581,0.822857143 C2.24193548,0.685714286 2.20967742,0.445714286 2.33870968,0.274285714 C2.46774194,0.102857143 2.69354839,0.0685714286 2.85483871,0.205714286 L3.93548387,1.09714286 C4.09677419,1.23428571 4.12903226,1.47428571 4,1.64571429 C3.93548387,1.74857143 3.82258065,1.8 3.70967742,1.8 Z"></path>
                        <path d="M2.96774194,3.17142857 C2.88709677,3.17142857 2.80645161,3.13714286 2.74193548,3.08571429 L1.66129032,2.19428571 C1.5,2.05714286 1.46774194,1.81714286 1.59677419,1.64571429 C1.72580645,1.47428571 1.9516129,1.44 2.11290323,1.57714286 L3.19354839,2.46857143 C3.35483871,2.60571429 3.38709677,2.84571429 3.25806452,3.01714286 C3.19354839,3.12 3.08064516,3.17142857 2.96774194,3.17142857 Z"></path>
                        <path d="M2.20967742,4.52571429 C2.12903226,4.52571429 2.0483871,4.49142857 1.98387097,4.44 L0.903225806,3.54857143 C0.741935484,3.41142857 0.709677419,3.17142857 0.838709677,3 C0.967741935,2.82857143 1.19354839,2.79428571 1.35483871,2.93142857 L2.43548387,3.82285714 C2.59677419,3.96 2.62903226,4.2 2.5,4.37142857 C2.43548387,4.47428571 2.32258065,4.52571429 2.20967742,4.52571429 Z"></path>
                        <path d="M1.51612903,5.77714286 C1.43548387,5.77714286 1.35483871,5.74285714 1.29032258,5.69142857 L0.209677419,4.8 C0.0483870968,4.66285714 0.0161290323,4.42285714 0.14516129,4.25142857 C0.274193548,4.08 0.5,4.04571429 0.661290323,4.18285714 L1.74193548,5.07428571 C1.90322581,5.21142857 1.93548387,5.45142857 1.80645161,5.62285714 C1.74193548,5.72571429 1.62903226,5.77714286 1.51612903,5.77714286 Z"></path>
                    </g>
                </g>
                <g transform="translate(14.516129, 28.114286)" fill="#000000" id="Shape">
                    <g transform="translate(15.967742, 31.371429)">
                        <path d="M0.483870968,1.50857143 C0.35483871,1.50857143 0.225806452,1.44 0.161290323,1.30285714 C0.064516129,1.11428571 0.129032258,0.874285714 0.306451613,0.771428571 L1.41935484,0.102857143 C1.59677419,-7.35522754e-15 1.82258065,0.0685714286 1.91935484,0.257142857 C2.01612903,0.445714286 1.9516129,0.685714286 1.77419355,0.788571429 L0.661290323,1.45714286 C0.612903226,1.49142857 0.548387097,1.50857143 0.483870968,1.50857143 Z"></path>
                        <path d="M1.0483871,3 C0.919354839,3 0.790322581,2.93142857 0.725806452,2.79428571 C0.629032258,2.60571429 0.693548387,2.36571429 0.887096774,2.26285714 L1.96774194,1.66285714 C2.14516129,1.56 2.37096774,1.62857143 2.46774194,1.83428571 C2.56451613,2.02285714 2.5,2.26285714 2.30645161,2.36571429 L1.22580645,2.96571429 C1.17741935,2.98285714 1.11290323,3 1.0483871,3 Z"></path>
                        <path d="M1.58064516,4.37142857 C1.4516129,4.37142857 1.32258065,4.30285714 1.25806452,4.16571429 C1.16129032,3.97714286 1.22580645,3.73714286 1.41935484,3.63428571 L2.48387097,3.03428571 C2.66129032,2.93142857 2.88709677,3 2.98387097,3.20571429 C3.08064516,3.41142857 3.01612903,3.63428571 2.82258065,3.73714286 L1.75806452,4.33714286 C1.69354839,4.35428571 1.62903226,4.37142857 1.58064516,4.37142857 Z"></path>
                        <path d="M2.14516129,5.84571429 C2.01612903,5.84571429 1.88709677,5.77714286 1.82258065,5.64 C1.72580645,5.45142857 1.79032258,5.21142857 1.98387097,5.10857143 L3,4.54285714 C3.17741935,4.44 3.40322581,4.50857143 3.5,4.71428571 C3.59677419,4.90285714 3.53225806,5.14285714 3.33870968,5.24571429 L2.32258065,5.81142857 C2.25806452,5.82857143 2.19354839,5.84571429 2.14516129,5.84571429 Z"></path>
                        <path d="M2.70967742,7.33714286 C2.58064516,7.33714286 2.4516129,7.26857143 2.38709677,7.13142857 C2.29032258,6.94285714 2.35483871,6.70285714 2.5483871,6.6 L3.74193548,5.93142857 C3.91935484,5.82857143 4.14516129,5.89714286 4.24193548,6.10285714 C4.33870968,6.29142857 4.27419355,6.53142857 4.08064516,6.63428571 L2.88709677,7.30285714 C2.82258065,7.32 2.75806452,7.33714286 2.70967742,7.33714286 Z"></path>
                    </g>
                    <g transform="translate(3.064516, 5.142857)">
                        <path d="M0.451612903,1.73142857 C0.338709677,1.73142857 0.225806452,1.68 0.161290323,1.57714286 C0.0322580645,1.40571429 0.064516129,1.14857143 0.225806452,1.02857143 L1.30645161,0.137142857 C1.46774194,2.29885555e-14 1.70967742,0.0342857143 1.82258065,0.205714286 C1.9516129,0.377142857 1.91935484,0.634285714 1.75806452,0.754285714 L0.677419355,1.64571429 C0.612903226,1.69714286 0.532258065,1.73142857 0.451612903,1.73142857 Z"></path>
                        <path d="M1.20967742,3.08571429 C1.09677419,3.08571429 0.983870968,3.03428571 0.919354839,2.93142857 C0.790322581,2.76 0.822580645,2.50285714 0.983870968,2.38285714 L2.06451613,1.49142857 C2.22580645,1.35428571 2.46774194,1.38857143 2.58064516,1.56 C2.70967742,1.73142857 2.67741935,1.98857143 2.51612903,2.10857143 L1.43548387,3 C1.35483871,3.05142857 1.27419355,3.08571429 1.20967742,3.08571429 Z"></path>
                        <path d="M1.90322581,4.33714286 C1.79032258,4.33714286 1.67741935,4.28571429 1.61290323,4.18285714 C1.48387097,4.01142857 1.51612903,3.75428571 1.67741935,3.63428571 L2.75806452,2.74285714 C2.91935484,2.60571429 3.16129032,2.64 3.27419355,2.81142857 C3.40322581,2.98285714 3.37096774,3.24 3.20967742,3.36 L2.12903226,4.25142857 C2.06451613,4.32 1.98387097,4.33714286 1.90322581,4.33714286 Z"></path>
                        <path d="M2.64516129,5.69142857 C2.53225806,5.69142857 2.41935484,5.64 2.35483871,5.53714286 C2.22580645,5.36571429 2.25806452,5.10857143 2.41935484,4.98857143 L3.5,4.09714286 C3.66129032,3.96 3.90322581,3.99428571 4.01612903,4.16571429 C4.14516129,4.33714286 4.11290323,4.59428571 3.9516129,4.71428571 L2.87096774,5.60571429 C2.80645161,5.67428571 2.72580645,5.69142857 2.64516129,5.69142857 Z"></path>
                        <path d="M3.40322581,7.04571429 C3.29032258,7.04571429 3.17741935,6.99428571 3.11290323,6.89142857 C2.98387097,6.72 3.01612903,6.46285714 3.17741935,6.34285714 L4.25806452,5.45142857 C4.41935484,5.31428571 4.66129032,5.34857143 4.77419355,5.52 C4.90322581,5.69142857 4.87096774,5.94857143 4.70967742,6.06857143 L3.62903226,6.96 C3.56451613,7.02857143 3.48387097,7.04571429 3.40322581,7.04571429 Z"></path>
                    </g>
                    <g>
                        <path d="M0.387096774,1.8 C0.290322581,1.8 0.177419355,1.74857143 0.0967741935,1.66285714 C-0.0322580645,1.49142857 -0.0161290323,1.25142857 0.129032258,1.09714286 L1.17741935,0.137142857 C1.33870968,-1.94011474e-14 1.56451613,0.0171428571 1.70967742,0.171428571 C1.83870968,0.342857143 1.82258065,0.582857143 1.67741935,0.737142857 L0.629032258,1.69714286 C0.548387097,1.78285714 0.467741935,1.8 0.387096774,1.8 Z"></path>
                        <path d="M1.19354839,3.12 C1.09677419,3.12 0.983870968,3.06857143 0.903225806,2.98285714 C0.774193548,2.81142857 0.790322581,2.57142857 0.935483871,2.41714286 L1.98387097,1.45714286 C2.14516129,1.32 2.37096774,1.33714286 2.51612903,1.49142857 C2.64516129,1.66285714 2.62903226,1.90285714 2.48387097,2.05714286 L1.43548387,3.01714286 C1.35483871,3.08571429 1.27419355,3.12 1.19354839,3.12 Z"></path>
                        <path d="M1.93548387,4.32 C1.83870968,4.32 1.72580645,4.26857143 1.64516129,4.18285714 C1.51612903,4.01142857 1.53225806,3.77142857 1.67741935,3.61714286 L2.72580645,2.65714286 C2.88709677,2.52 3.11290323,2.53714286 3.25806452,2.69142857 C3.38709677,2.86285714 3.37096774,3.10285714 3.22580645,3.25714286 L2.17741935,4.21714286 C2.11290323,4.28571429 2.01612903,4.32 1.93548387,4.32 Z"></path>
                        <path d="M2.74193548,5.64 C2.64516129,5.64 2.53225806,5.58857143 2.4516129,5.50285714 C2.32258065,5.33142857 2.33870968,5.09142857 2.48387097,4.93714286 L3.53225806,3.97714286 C3.69354839,3.84 3.91935484,3.85714286 4.06451613,4.01142857 C4.19354839,4.18285714 4.17741935,4.42285714 4.03225806,4.57714286 L2.98387097,5.53714286 C2.91935484,5.60571429 2.83870968,5.64 2.74193548,5.64 Z"></path>
                        <path d="M3.5483871,6.94285714 C3.4516129,6.94285714 3.33870968,6.89142857 3.25806452,6.80571429 C3.12903226,6.63428571 3.14516129,6.39428571 3.29032258,6.24 L4.33870968,5.28 C4.5,5.14285714 4.72580645,5.16 4.87096774,5.31428571 C5,5.48571429 4.98387097,5.72571429 4.83870968,5.88 L3.79032258,6.84 C3.72580645,6.90857143 3.64516129,6.94285714 3.5483871,6.94285714 Z"></path>
                    </g>
                    <g transform="translate(12.419355, 22.800000)">
                        <path d="M0.419354839,1.54285714 C0.290322581,1.54285714 0.177419355,1.47428571 0.0967741935,1.35428571 C-0.0161290323,1.16571429 0.0483870968,0.925714286 0.225806452,0.805714286 L1.38709677,0.0685714286 C1.56451613,-0.0514285714 1.79032258,0.0171428571 1.90322581,0.205714286 C2.01612903,0.394285714 1.9516129,0.634285714 1.77419355,0.754285714 L0.612903226,1.49142857 C0.548387097,1.52571429 0.483870968,1.54285714 0.419354839,1.54285714 Z"></path>
                        <path d="M1.0483871,2.98285714 C0.919354839,2.98285714 0.806451613,2.91428571 0.725806452,2.79428571 C0.612903226,2.60571429 0.677419355,2.36571429 0.85483871,2.24571429 L2.01612903,1.50857143 C2.19354839,1.38857143 2.41935484,1.45714286 2.53225806,1.64571429 C2.64516129,1.83428571 2.58064516,2.07428571 2.40322581,2.19428571 L1.24193548,2.93142857 C1.17741935,2.96571429 1.11290323,2.98285714 1.0483871,2.98285714 Z"></path>
                        <path d="M1.67741935,4.44 C1.5483871,4.44 1.43548387,4.37142857 1.35483871,4.25142857 C1.24193548,4.06285714 1.30645161,3.82285714 1.48387097,3.70285714 L2.64516129,2.96571429 C2.82258065,2.84571429 3.0483871,2.91428571 3.16129032,3.10285714 C3.27419355,3.29142857 3.20967742,3.53142857 3.03225806,3.65142857 L1.87096774,4.38857143 C1.80645161,4.42285714 1.74193548,4.44 1.67741935,4.44 Z"></path>
                        <path d="M2.25806452,5.77714286 C2.12903226,5.77714286 2.01612903,5.70857143 1.93548387,5.58857143 C1.82258065,5.4 1.88709677,5.16 2.06451613,5.04 L3.22580645,4.30285714 C3.40322581,4.18285714 3.62903226,4.25142857 3.74193548,4.44 C3.85483871,4.62857143 3.79032258,4.86857143 3.61290323,4.98857143 L2.4516129,5.72571429 C2.38709677,5.76 2.32258065,5.77714286 2.25806452,5.77714286 Z"></path>
                        <path d="M2.88709677,7.21714286 C2.75806452,7.21714286 2.64516129,7.14857143 2.56451613,7.02857143 C2.4516129,6.84 2.51612903,6.6 2.69354839,6.48 L3.85483871,5.74285714 C4.03225806,5.62285714 4.25806452,5.69142857 4.37096774,5.88 C4.48387097,6.06857143 4.41935484,6.30857143 4.24193548,6.42857143 L3.08064516,7.16571429 C3.01612903,7.2 2.9516129,7.21714286 2.88709677,7.21714286 Z"></path>
                        <path d="M3.5,8.67428571 C3.37096774,8.67428571 3.25806452,8.60571429 3.17741935,8.48571429 C3.06451613,8.29714286 3.12903226,8.05714286 3.30645161,7.93714286 L4.37096774,7.25142857 C4.5483871,7.13142857 4.77419355,7.2 4.88709677,7.38857143 C5,7.57714286 4.93548387,7.81714286 4.75806452,7.93714286 L3.69354839,8.62285714 C3.64516129,8.65714286 3.56451613,8.67428571 3.5,8.67428571 Z"></path>
                    </g>
                    <g transform="translate(9.032258, 15.771429)">
                        <path d="M0.419354839,1.74857143 C0.306451613,1.74857143 0.177419355,1.69714286 0.112903226,1.57714286 C-1.0921819e-14,1.40571429 0.0322580645,1.14857143 0.209677419,1.02857143 L1.32258065,0.205714286 C1.5,0.0857142857 1.72580645,0.12 1.83870968,0.308571429 C1.9516129,0.48 1.91935484,0.737142857 1.74193548,0.857142857 L0.629032258,1.68 C0.564516129,1.73142857 0.5,1.74857143 0.419354839,1.74857143 Z"></path>
                        <path d="M1.11290323,3.15428571 C1,3.15428571 0.870967742,3.10285714 0.806451613,2.98285714 C0.693548387,2.81142857 0.725806452,2.55428571 0.903225806,2.43428571 L2.01612903,1.61142857 C2.19354839,1.49142857 2.41935484,1.52571429 2.53225806,1.71428571 C2.64516129,1.88571429 2.61290323,2.14285714 2.43548387,2.26285714 L1.32258065,3.08571429 C1.25806452,3.13714286 1.19354839,3.15428571 1.11290323,3.15428571 Z"></path>
                        <path d="M1.80645161,4.56 C1.69354839,4.56 1.56451613,4.50857143 1.5,4.38857143 C1.38709677,4.21714286 1.41935484,3.96 1.59677419,3.84 L2.70967742,3.01714286 C2.88709677,2.89714286 3.11290323,2.93142857 3.22580645,3.12 C3.33870968,3.29142857 3.30645161,3.54857143 3.12903226,3.66857143 L2.01612903,4.49142857 C1.9516129,4.52571429 1.88709677,4.56 1.80645161,4.56 Z"></path>
                        <path d="M2.4516129,5.84571429 C2.33870968,5.84571429 2.20967742,5.79428571 2.14516129,5.67428571 C2.03225806,5.50285714 2.06451613,5.24571429 2.24193548,5.12571429 L3.35483871,4.30285714 C3.53225806,4.18285714 3.75806452,4.21714286 3.87096774,4.40571429 C3.98387097,4.57714286 3.9516129,4.83428571 3.77419355,4.95428571 L2.66129032,5.77714286 C2.59677419,5.82857143 2.53225806,5.84571429 2.4516129,5.84571429 Z"></path>
                        <path d="M3.14516129,7.25142857 C3.03225806,7.25142857 2.90322581,7.2 2.83870968,7.08 C2.72580645,6.90857143 2.75806452,6.65142857 2.93548387,6.53142857 L4.0483871,5.70857143 C4.22580645,5.58857143 4.4516129,5.62285714 4.56451613,5.81142857 C4.67741935,5.98285714 4.64516129,6.24 4.46774194,6.36 L3.35483871,7.18285714 C3.29032258,7.23428571 3.22580645,7.25142857 3.14516129,7.25142857 Z"></path>
                    </g>
                    <g transform="translate(5.967742, 10.457143)">
                        <path d="M0.516129032,1.8 C0.403225806,1.8 0.290322581,1.74857143 0.225806452,1.64571429 C0.0967741935,1.47428571 0.129032258,1.21714286 0.290322581,1.09714286 L1.37096774,0.205714286 C1.53225806,0.0685714286 1.77419355,0.102857143 1.88709677,0.274285714 C2.01612903,0.445714286 1.98387097,0.702857143 1.82258065,0.822857143 L0.741935484,1.71428571 C0.677419355,1.78285714 0.596774194,1.8 0.516129032,1.8 Z"></path>
                        <path d="M1.27419355,3.17142857 C1.16129032,3.17142857 1.0483871,3.12 0.983870968,3.01714286 C0.85483871,2.84571429 0.887096774,2.58857143 1.0483871,2.46857143 L2.12903226,1.57714286 C2.29032258,1.44 2.53225806,1.47428571 2.64516129,1.64571429 C2.77419355,1.81714286 2.74193548,2.07428571 2.58064516,2.19428571 L1.5,3.08571429 C1.41935484,3.13714286 1.35483871,3.17142857 1.27419355,3.17142857 Z"></path>
                        <path d="M2.01612903,4.52571429 C1.90322581,4.52571429 1.79032258,4.47428571 1.72580645,4.37142857 C1.59677419,4.2 1.62903226,3.94285714 1.79032258,3.82285714 L2.87096774,2.93142857 C3.03225806,2.79428571 3.27419355,2.82857143 3.38709677,3 C3.51612903,3.17142857 3.48387097,3.42857143 3.32258065,3.54857143 L2.24193548,4.44 C2.17741935,4.49142857 2.09677419,4.52571429 2.01612903,4.52571429 Z"></path>
                        <path d="M2.70967742,5.77714286 C2.59677419,5.77714286 2.48387097,5.72571429 2.41935484,5.62285714 C2.29032258,5.45142857 2.32258065,5.19428571 2.48387097,5.07428571 L3.56451613,4.18285714 C3.72580645,4.04571429 3.96774194,4.08 4.08064516,4.25142857 C4.20967742,4.42285714 4.17741935,4.68 4.01612903,4.8 L2.93548387,5.69142857 C2.87096774,5.74285714 2.79032258,5.77714286 2.70967742,5.77714286 Z"></path>
                    </g>
                </g>
                <rect id="Rectangle-path" fill="#000000" x="34.0806452" y="67.56" width="2.11290323" height="3.53142857"></rect>
                <polygon id="Shape" fill="#000000" points="34.7903226 69.2228571 33.2258065 73.2 37.0322581 73.2 35.4516129 69.2228571"></polygon>
                <ellipse id="Oval" fill="#94B7BF" cx="35.1774194" cy="71.8114286" rx="1" ry="1"></ellipse>
                <g transform="translate(44.193548, 56.742857)" fill="#000000" id="Shape">
                    <g>
                        <g transform="translate(2.096774, 10.285714)">
                            <path d="M1.61290323,7.28571429 C1.4516129,7.28571429 1.30645161,7.16571429 1.25806452,6.99428571 C1.20967742,6.78857143 1.32258065,6.56571429 1.51612903,6.51428571 L2.79032258,6.13714286 C2.98387097,6.08571429 3.19354839,6.20571429 3.24193548,6.41142857 C3.29032258,6.61714286 3.17741935,6.84 2.98387097,6.89142857 L1.70967742,7.26857143 C1.67741935,7.26857143 1.64516129,7.28571429 1.61290323,7.28571429 Z"></path>
                            <path d="M1.32258065,5.79428571 C1.16129032,5.79428571 1.01612903,5.67428571 0.967741935,5.50285714 C0.919354839,5.29714286 1.03225806,5.07428571 1.22580645,5.02285714 L2.5,4.64571429 C2.69354839,4.59428571 2.90322581,4.71428571 2.9516129,4.92 C3,5.12571429 2.88709677,5.34857143 2.69354839,5.4 L1.41935484,5.77714286 C1.38709677,5.79428571 1.35483871,5.79428571 1.32258065,5.79428571 Z"></path>
                            <path d="M1.03225806,4.30285714 C0.870967742,4.30285714 0.725806452,4.18285714 0.677419355,4.01142857 C0.629032258,3.80571429 0.741935484,3.58285714 0.935483871,3.53142857 L2.20967742,3.15428571 C2.40322581,3.10285714 2.61290323,3.22285714 2.66129032,3.42857143 C2.70967742,3.63428571 2.59677419,3.85714286 2.40322581,3.90857143 L1.12903226,4.28571429 C1.09677419,4.30285714 1.06451613,4.30285714 1.03225806,4.30285714 Z"></path>
                            <path d="M0.725806452,2.79428571 C0.564516129,2.79428571 0.419354839,2.67428571 0.370967742,2.50285714 C0.322580645,2.29714286 0.435483871,2.07428571 0.629032258,2.02285714 L1.90322581,1.64571429 C2.09677419,1.59428571 2.30645161,1.71428571 2.35483871,1.92 C2.40322581,2.12571429 2.29032258,2.34857143 2.09677419,2.4 L0.822580645,2.77714286 C0.790322581,2.79428571 0.758064516,2.79428571 0.725806452,2.79428571 Z"></path>
                            <path d="M0.435483871,1.32 C0.274193548,1.32 0.129032258,1.2 0.0806451613,1.02857143 C0.0322580645,0.822857143 0.14516129,0.6 0.338709677,0.548571429 L1.61290323,0.171428571 C1.80645161,0.12 2.01612903,0.24 2.06451613,0.445714286 C2.11290323,0.651428571 2,0.874285714 1.80645161,0.925714286 L0.532258065,1.30285714 C0.5,1.32 0.467741935,1.32 0.435483871,1.32 Z"></path>
                        </g>
                        <path d="M2.24193548,10.1142857 C2.08064516,10.1142857 1.93548387,9.99428571 1.88709677,9.82285714 C1.83870968,9.61714286 1.9516129,9.39428571 2.14516129,9.34285714 L3.41935484,8.96571429 C3.61290323,8.91428571 3.82258065,9.03428571 3.87096774,9.24 C3.91935484,9.44571429 3.80645161,9.66857143 3.61290323,9.72 L2.33870968,10.0971429 C2.30645161,10.1142857 2.27419355,10.1142857 2.24193548,10.1142857 Z"></path>
                        <path d="M1.9516129,8.62285714 C1.79032258,8.62285714 1.64516129,8.50285714 1.59677419,8.33142857 C1.5483871,8.12571429 1.66129032,7.90285714 1.85483871,7.85142857 L3.12903226,7.47428571 C3.32258065,7.42285714 3.53225806,7.54285714 3.58064516,7.74857143 C3.62903226,7.95428571 3.51612903,8.17714286 3.32258065,8.22857143 L2.0483871,8.60571429 C2.01612903,8.62285714 1.98387097,8.62285714 1.9516129,8.62285714 Z"></path>
                        <path d="M1.64516129,7.13142857 C1.48387097,7.13142857 1.33870968,7.01142857 1.29032258,6.84 C1.24193548,6.63428571 1.35483871,6.41142857 1.5483871,6.36 L2.82258065,5.98285714 C3.01612903,5.93142857 3.22580645,6.05142857 3.27419355,6.25714286 C3.32258065,6.46285714 3.20967742,6.68571429 3.01612903,6.73714286 L1.74193548,7.11428571 C1.70967742,7.11428571 1.67741935,7.13142857 1.64516129,7.13142857 Z"></path>
                        <path d="M1.35483871,5.64 C1.19354839,5.64 1.0483871,5.52 1,5.34857143 C0.951612903,5.14285714 1.06451613,4.92 1.25806452,4.86857143 L2.53225806,4.49142857 C2.72580645,4.44 2.93548387,4.56 2.98387097,4.76571429 C3.03225806,4.97142857 2.91935484,5.19428571 2.72580645,5.24571429 L1.4516129,5.62285714 C1.41935484,5.64 1.38709677,5.64 1.35483871,5.64 Z"></path>
                        <path d="M1.06451613,4.14857143 C0.903225806,4.14857143 0.758064516,4.02857143 0.709677419,3.85714286 C0.661290323,3.65142857 0.774193548,3.42857143 0.967741935,3.37714286 L2.24193548,3 C2.43548387,2.94857143 2.64516129,3.06857143 2.69354839,3.27428571 C2.74193548,3.48 2.62903226,3.70285714 2.43548387,3.75428571 L1.16129032,4.13142857 C1.12903226,4.14857143 1.09677419,4.14857143 1.06451613,4.14857143 Z"></path>
                        <path d="M0.774193548,2.67428571 C0.612903226,2.67428571 0.467741935,2.55428571 0.419354839,2.38285714 C0.370967742,2.17714286 0.483870968,1.95428571 0.677419355,1.90285714 L1.9516129,1.52571429 C2.14516129,1.47428571 2.35483871,1.59428571 2.40322581,1.8 C2.4516129,2.00571429 2.33870968,2.22857143 2.14516129,2.28 L0.870967742,2.65714286 C0.838709677,2.65714286 0.806451613,2.67428571 0.774193548,2.67428571 Z"></path>
                        <path d="M0.467741935,1.16571429 C0.306451613,1.16571429 0.161290323,1.04571429 0.112903226,0.874285714 C0.064516129,0.668571429 0.177419355,0.445714286 0.370967742,0.394285714 L1.64516129,0.0171428571 C1.83870968,-0.0342857143 2.0483871,0.0857142857 2.09677419,0.291428571 C2.14516129,0.497142857 2.03225806,0.72 1.83870968,0.771428571 L0.564516129,1.14857143 C0.532258065,1.16571429 0.5,1.16571429 0.467741935,1.16571429 Z"></path>
                    </g>
                    <g transform="translate(3.225806, 16.285714)">
                        <path d="M0.5,1.26857143 C0.338709677,1.26857143 0.193548387,1.14857143 0.14516129,0.977142857 C0.0967741935,0.771428571 0.209677419,0.548571429 0.403225806,0.497142857 L1.67741935,0.12 C1.87096774,0.0685714286 2.08064516,0.188571429 2.12903226,0.394285714 C2.17741935,0.6 2.06451613,0.822857143 1.87096774,0.874285714 L0.596774194,1.25142857 C0.564516129,1.26857143 0.532258065,1.26857143 0.5,1.26857143 Z"></path>
                        <path d="M0.806451613,2.76 C0.64516129,2.76 0.5,2.64 0.451612903,2.46857143 C0.403225806,2.26285714 0.516129032,2.04 0.709677419,1.98857143 L1.98387097,1.61142857 C2.17741935,1.56 2.38709677,1.68 2.43548387,1.88571429 C2.48387097,2.09142857 2.37096774,2.31428571 2.17741935,2.36571429 L0.903225806,2.74285714 C0.870967742,2.76 0.838709677,2.76 0.806451613,2.76 Z"></path>
                    </g>
                </g>
                <g transform="translate(20.322581, 56.571429)" fill="#000000" id="Shape">
                    <g transform="translate(0.322581, 0.000000)">
                        <g transform="translate(0.000000, 10.457143)">
                            <path d="M1.72580645,7.28571429 C1.69354839,7.28571429 1.66129032,7.28571429 1.62903226,7.26857143 L0.35483871,6.89142857 C0.161290323,6.84 0.0322580645,6.61714286 0.0967741935,6.41142857 C0.14516129,6.20571429 0.35483871,6.06857143 0.548387097,6.13714286 L1.82258065,6.51428571 C2.01612903,6.56571429 2.14516129,6.78857143 2.08064516,6.99428571 C2.03225806,7.16571429 1.88709677,7.28571429 1.72580645,7.28571429 Z"></path>
                            <path d="M2.01612903,5.79428571 C1.98387097,5.79428571 1.9516129,5.79428571 1.91935484,5.77714286 L0.64516129,5.4 C0.451612903,5.34857143 0.322580645,5.12571429 0.387096774,4.92 C0.435483871,4.71428571 0.64516129,4.57714286 0.838709677,4.64571429 L2.11290323,5.02285714 C2.30645161,5.07428571 2.43548387,5.29714286 2.37096774,5.50285714 C2.33870968,5.67428571 2.17741935,5.79428571 2.01612903,5.79428571 Z"></path>
                            <path d="M2.30645161,4.30285714 C2.27419355,4.30285714 2.24193548,4.30285714 2.20967742,4.28571429 L0.935483871,3.90857143 C0.741935484,3.85714286 0.612903226,3.63428571 0.677419355,3.42857143 C0.725806452,3.22285714 0.935483871,3.08571429 1.12903226,3.15428571 L2.40322581,3.53142857 C2.59677419,3.58285714 2.72580645,3.80571429 2.66129032,4.01142857 C2.62903226,4.2 2.48387097,4.30285714 2.30645161,4.30285714 Z"></path>
                            <path d="M2.61290323,2.79428571 C2.58064516,2.79428571 2.5483871,2.79428571 2.51612903,2.77714286 L1.24193548,2.4 C1.0483871,2.34857143 0.919354839,2.12571429 0.983870968,1.92 C1.03225806,1.71428571 1.24193548,1.57714286 1.43548387,1.64571429 L2.70967742,2.02285714 C2.90322581,2.07428571 3.03225806,2.29714286 2.96774194,2.50285714 C2.91935484,2.69142857 2.77419355,2.79428571 2.61290323,2.79428571 Z"></path>
                            <path d="M2.90322581,1.32 C2.87096774,1.32 2.83870968,1.32 2.80645161,1.30285714 L1.53225806,0.925714286 C1.33870968,0.874285714 1.20967742,0.651428571 1.27419355,0.445714286 C1.33870968,0.24 1.53225806,0.102857143 1.72580645,0.171428571 L3,0.548571429 C3.19354839,0.6 3.32258065,0.822857143 3.25806452,1.02857143 C3.20967742,1.2 3.06451613,1.32 2.90322581,1.32 Z"></path>
                        </g>
                        <path d="M3.19354839,10.2857143 C3.16129032,10.2857143 3.12903226,10.2857143 3.09677419,10.2685714 L1.82258065,9.89142857 C1.62903226,9.84 1.5,9.61714286 1.56451613,9.41142857 C1.61290323,9.20571429 1.82258065,9.06857143 2.01612903,9.13714286 L3.29032258,9.51428571 C3.48387097,9.56571429 3.61290323,9.78857143 3.5483871,9.99428571 C3.51612903,10.1657143 3.35483871,10.2857143 3.19354839,10.2857143 Z"></path>
                        <path d="M3.48387097,8.79428571 C3.4516129,8.79428571 3.41935484,8.79428571 3.38709677,8.77714286 L2.11290323,8.4 C1.91935484,8.34857143 1.79032258,8.12571429 1.85483871,7.92 C1.90322581,7.71428571 2.11290323,7.57714286 2.30645161,7.64571429 L3.58064516,8.02285714 C3.77419355,8.07428571 3.90322581,8.29714286 3.83870968,8.50285714 C3.80645161,8.69142857 3.66129032,8.79428571 3.48387097,8.79428571 Z"></path>
                        <path d="M3.79032258,7.30285714 C3.75806452,7.30285714 3.72580645,7.30285714 3.69354839,7.28571429 L2.41935484,6.90857143 C2.22580645,6.85714286 2.09677419,6.63428571 2.16129032,6.42857143 C2.20967742,6.22285714 2.41935484,6.08571429 2.61290323,6.15428571 L3.88709677,6.53142857 C4.08064516,6.58285714 4.20967742,6.80571429 4.14516129,7.01142857 C4.09677419,7.18285714 3.9516129,7.30285714 3.79032258,7.30285714 Z"></path>
                        <path d="M4.08064516,5.81142857 C4.0483871,5.81142857 4.01612903,5.81142857 3.98387097,5.79428571 L2.70967742,5.41714286 C2.51612903,5.36571429 2.38709677,5.14285714 2.4516129,4.93714286 C2.5,4.73142857 2.70967742,4.61142857 2.90322581,4.66285714 L4.17741935,5.04 C4.37096774,5.09142857 4.5,5.31428571 4.43548387,5.52 C4.40322581,5.69142857 4.24193548,5.81142857 4.08064516,5.81142857 Z"></path>
                        <path d="M4.37096774,4.32 C4.33870968,4.32 4.30645161,4.32 4.27419355,4.30285714 L3,3.92571429 C2.80645161,3.87428571 2.67741935,3.65142857 2.74193548,3.44571429 C2.79032258,3.24 3,3.10285714 3.19354839,3.17142857 L4.46774194,3.54857143 C4.66129032,3.6 4.79032258,3.82285714 4.72580645,4.02857143 C4.69354839,4.21714286 4.53225806,4.32 4.37096774,4.32 Z"></path>
                        <path d="M4.66129032,2.84571429 C4.62903226,2.84571429 4.59677419,2.84571429 4.56451613,2.82857143 L3.29032258,2.45142857 C3.09677419,2.4 2.96774194,2.17714286 3.03225806,1.97142857 C3.08064516,1.76571429 3.29032258,1.62857143 3.48387097,1.69714286 L4.75806452,2.07428571 C4.9516129,2.12571429 5.08064516,2.34857143 5.01612903,2.55428571 C4.98387097,2.72571429 4.83870968,2.84571429 4.66129032,2.84571429 Z"></path>
                        <path d="M4.96774194,1.33714286 C4.93548387,1.33714286 4.90322581,1.33714286 4.87096774,1.32 L3.59677419,0.942857143 C3.40322581,0.891428571 3.27419355,0.668571429 3.33870968,0.462857143 C3.38709677,0.257142857 3.59677419,0.12 3.79032258,0.188571429 L5.06451613,0.565714286 C5.25806452,0.617142857 5.38709677,0.84 5.32258065,1.04571429 C5.27419355,1.21714286 5.12903226,1.33714286 4.96774194,1.33714286 Z"></path>
                    </g>
                    <g transform="translate(0.000000, 16.457143)">
                        <path d="M2.03225806,1.26857143 C2,1.26857143 1.96774194,1.26857143 1.93548387,1.25142857 L0.661290323,0.874285714 C0.467741935,0.822857143 0.338709677,0.6 0.403225806,0.394285714 C0.451612903,0.188571429 0.661290323,0.0514285714 0.85483871,0.12 L2.12903226,0.497142857 C2.32258065,0.548571429 2.4516129,0.771428571 2.38709677,0.977142857 C2.33870968,1.14857143 2.19354839,1.26857143 2.03225806,1.26857143 Z"></path>
                        <path d="M1.72580645,2.76 C1.69354839,2.76 1.66129032,2.76 1.62903226,2.74285714 L0.35483871,2.36571429 C0.161290323,2.31428571 0.0322580645,2.09142857 0.0967741935,1.88571429 C0.14516129,1.68 0.35483871,1.54285714 0.548387097,1.61142857 L1.82258065,1.98857143 C2.01612903,2.04 2.14516129,2.26285714 2.08064516,2.46857143 C2.0483871,2.64 1.90322581,2.76 1.72580645,2.76 Z"></path>
                    </g>
                </g>
                <g transform="translate(44.032258, 56.228571)" id="Shape">
                    <polygon fill="#000000" points="0.0806451613 0.582857143 0.758064516 4.02857143 2.80645161 3.44571429 2.14516129 0"></polygon>
                    <polygon fill="#000000" points="1.06451613 1.97142857 0.306451613 6.27428571 4 5.21142857 1.72580645 1.78285714"></polygon>
                    <path d="M2.67741935,4.16571429 C2.58064516,3.66857143 2.17741935,3.36 1.75806452,3.48 C1.35483871,3.6 1.09677419,4.09714286 1.19354839,4.59428571 C1.29032258,5.09142857 1.69354839,5.4 2.11290323,5.28 C2.51612903,5.16 2.77419355,4.66285714 2.67741935,4.16571429 Z" fill="#94B7BF"></path>
                </g>
                <g transform="translate(22.258065, 56.228571)" id="Shape">
                    <polygon fill="#000000" points="3.9516129 0.582857143 3.27419355 4.02857143 1.22580645 3.44571429 1.88709677 0"></polygon>
                    <polygon fill="#000000" points="2.96774194 1.97142857 3.72580645 6.27428571 0.0322580645 5.21142857 2.30645161 1.78285714"></polygon>
                    <path d="M1.35483871,4.16571429 C1.4516129,3.66857143 1.85483871,3.36 2.27419355,3.48 C2.67741935,3.6 2.93548387,4.09714286 2.83870968,4.59428571 C2.74193548,5.09142857 2.33870968,5.4 1.91935484,5.28 C1.5,5.16 1.25806452,4.66285714 1.35483871,4.16571429 Z" fill="#94B7BF"></path>
                </g>
                <path d="M1.03225806,66.3257143 C0.758064516,66.3257143 0.516129032,66.0857143 0.5,65.7942857 C0.483870968,65.4857143 0.709677419,65.2114286 1,65.1942857 C1.08064516,65.1942857 1.17741935,65.1771429 1.29032258,65.1771429 C2.96774194,65.1085714 4.77419355,64.8 4.96774194,62.1771429 C5.25806452,58.4057143 6.12903226,54.2228571 7.58064516,49.7485714 C10.9516129,39.3085714 13.9677419,33.1714286 17.0483871,30.4114286 C17.2741935,30.2057143 17.6129032,30.24 17.8064516,30.48 C18,30.72 17.9677419,31.08 17.7419355,31.2857143 C14.8548387,33.8742857 11.8548387,40.0285714 8.59677419,50.1257143 C7.17741935,54.5142857 6.32258065,58.5942857 6.0483871,62.28 C5.75806452,66.1371429 2.66129032,66.2742857 1.33870968,66.3428571 C1.24193548,66.3428571 1.14516129,66.3428571 1.06451613,66.36 C1.0483871,66.3257143 1.03225806,66.3257143 1.03225806,66.3257143 Z" id="Shape" fill="#000000"></path>
                <path d="M69.0645161,66.3257143 C69.0483871,66.3257143 69.0483871,66.3257143 69.0322581,66.3257143 C68.9516129,66.3257143 68.8548387,66.3085714 68.7580645,66.3085714 C67.4354839,66.2571429 64.3387097,66.12 64.0483871,62.2457143 C63.7741935,58.56 62.9193548,54.48 61.5,50.0914286 C58.2419355,39.9942857 55.2419355,33.84 52.3548387,31.2514286 C52.1290323,31.0457143 52.0967742,30.6857143 52.2903226,30.4457143 C52.483871,30.2057143 52.8225806,30.1714286 53.0483871,30.3771429 C56.1290323,33.1371429 59.1451613,39.2742857 62.516129,49.7142857 C63.9677419,54.1885714 64.8387097,58.3714286 65.1290323,62.1428571 C65.3225806,64.7828571 67.1290323,65.0742857 68.8064516,65.1428571 C68.9193548,65.1428571 69.016129,65.16 69.0967742,65.16 C69.3870968,65.1771429 69.6129032,65.4514286 69.5967742,65.76 C69.5806452,66.1028571 69.3548387,66.3257143 69.0645161,66.3257143 Z" id="Shape" fill="#000000"></path>
                <path d="M30.2419355,19.5771429 C30.2258065,19.5771429 30.2258065,19.5771429 30.2096774,19.5771429 C29.9193548,19.56 29.6935484,19.2857143 29.6935484,18.9771429 L30.516129,1.73142857 C30.5322581,1.42285714 30.7903226,1.18285714 31.0806452,1.18285714 C31.3709677,1.2 31.5967742,1.47428571 31.5967742,1.78285714 L30.7741935,19.0285714 C30.7580645,19.3371429 30.516129,19.5771429 30.2419355,19.5771429 Z" id="Shape" fill="#000000"></path>
                <path d="M39.6451613,19.5771429 C39.3548387,19.5771429 39.1290323,19.3371429 39.1129032,19.0285714 L38.2903226,1.78285714 C38.2741935,1.47428571 38.5,1.2 38.8064516,1.18285714 C39.0967742,1.16571429 39.3548387,1.40571429 39.3709677,1.73142857 L40.1935484,18.9771429 C40.2096774,19.2857143 39.983871,19.56 39.6774194,19.5771429 C39.6612903,19.5771429 39.6451613,19.5771429 39.6451613,19.5771429 Z" id="Shape" fill="#000000"></path>
                <path d="M6.43548387,81.5142857 C6.41935484,81.5142857 6.40322581,81.5142857 6.38709677,81.5142857 L0.532258065,80.9828571 C0.241935484,80.9485714 0.0161290323,80.6742857 0.0483870968,80.3657143 C0.0806451613,80.0571429 0.338709677,79.8171429 0.629032258,79.8514286 L6.48387097,80.3828571 C6.77419355,80.4171429 7,80.6914286 6.96774194,81 C6.9516129,81.2914286 6.70967742,81.5142857 6.43548387,81.5142857 Z" id="Shape" fill="#000000"></path>
                <path d="M63.7419355,81.5142857 C63.4677419,81.5142857 63.2258065,81.2914286 63.2096774,81 C63.1774194,80.6914286 63.4032258,80.4171429 63.6935484,80.3828571 L69.5483871,79.8514286 C69.8387097,79.8171429 70.0967742,80.0571429 70.1290323,80.3657143 C70.1612903,80.6742857 69.9354839,80.9485714 69.6451613,80.9828571 L63.7903226,81.5142857 C63.7741935,81.5142857 63.7580645,81.5142857 63.7419355,81.5142857 Z" id="Shape" fill="#000000"></path>
            </g>
            <path d="M23.4193548,89.3657143 L23.0483871,87.8742857 C28.516129,86.3657143 31.8548387,83.2457143 34.8064516,80.5028571 C38.5483871,77.0057143 41.7741935,73.9885714 47.8709677,75.1885714 C51.2419355,75.8571429 54.8870968,77.64 58.4032258,79.3714286 C62.0483871,81.1714286 65.8225806,83.0228571 69.3225806,83.6571429 C73.1935484,84.36 76.1935484,83.5028571 78.7741935,80.9828571 L79.7580645,82.1142857 C76.8548387,84.96 73.3709677,85.9542857 69.0806452,85.1828571 C65.3870968,84.5142857 61.516129,82.6114286 57.7903226,80.7771429 C54.1935484,79.0114286 50.8064516,77.3314286 47.6129032,76.7142857 C42.2258065,75.6514286 39.3709677,78.3085714 35.7741935,81.6685714 C32.6935484,84.5314286 29.2096774,87.7714286 23.4193548,89.3657143 Z" id="Shape" fill="#CD2027"></path>
            <g id="Group" transform="translate(0.000000, 24.342857)">
                <g transform="translate(9.838710, 0.000000)" id="Shape">
                    <path d="M7.16129032,0.651428571 C8.22580645,0.651428571 9.29032258,0.925714286 10.2419355,1.45714286 C11.7903226,2.31428571 12.9193548,3.78857143 13.4193548,5.57142857 C13.9193548,7.35428571 13.7741935,9.22285714 12.9354839,10.8685714 C11.9032258,12.9428571 9.93548387,14.3142857 7.70967742,14.52 C7.5483871,14.5371429 7.38709677,14.64 7.30645161,14.8114286 C7.20967742,14.9828571 7.20967742,15.1542857 7.30645161,15.3257143 L7.41935484,15.5485714 L32.7580645,50.1771429 L30.9193548,50.76 L19.6774194,44.3657143 L2.48387097,12.9257143 C2.30645161,12.6857143 -0.806451613,8.64 1.35483871,4.30285714 C2.51612903,2.05714286 4.74193548,0.651428571 7.16129032,0.651428571 Z M7.16129032,11.3485714 C8.46774194,11.3485714 9.64516129,10.5942857 10.2580645,9.36 C10.7096774,8.46857143 10.7903226,7.45714286 10.516129,6.51428571 C10.2419355,5.55428571 9.62903226,4.78285714 8.80645161,4.30285714 C8.29032258,4.01142857 7.70967742,3.87428571 7.14516129,3.87428571 C5.83870968,3.87428571 4.66129032,4.62857143 4.0483871,5.86285714 C3.59677419,6.75428571 3.51612903,7.76571429 3.79032258,8.70857143 C4.06451613,9.66857143 4.67741935,10.44 5.5,10.92 C6.01612903,11.1942857 6.59677419,11.3485714 7.16129032,11.3485714 Z" fill="#FCFAE3"></path>
                    <path d="M31,50.1942857 L20.0645161,44.0057143 L2.93548387,12.6857143 C2.91935484,12.6342857 2.87096774,12.5828571 2.83870968,12.5485714 C2.82258065,12.4971429 -0.209677419,8.65714286 1.82258065,4.61142857 C2.88709677,2.52 4.91935484,1.2 7.14516129,1.2 C8.14516129,1.2 9.11290323,1.45714286 10,1.95428571 C12.9516129,3.6 14.0645161,7.50857143 12.5,10.6457143 C11.5322581,12.5828571 9.74193548,13.8342857 7.67741935,14.04 C7.33870968,14.0571429 7.0483871,14.28 6.88709677,14.5885714 C6.72580645,14.8971429 6.72580645,15.2914286 6.88709677,15.6 L7,15.8228571 C7.01612903,15.8742857 7.06451613,15.9257143 7.09677419,15.96 L31.9354839,49.92 L31,50.1942857 Z M7.14516129,3.32571429 C5.64516129,3.32571429 4.29032258,4.2 3.59677419,5.60571429 C3.09677419,6.61714286 2.98387097,7.78285714 3.30645161,8.86285714 C3.62903226,9.94285714 4.30645161,10.8514286 5.25806452,11.3828571 C5.85483871,11.7257143 6.5,11.88 7.16129032,11.88 C8.66129032,11.88 10.016129,11.0057143 10.7096774,9.6 C11.7419355,7.52571429 11.016129,4.92 9.0483871,3.80571429 C8.48387097,3.48 7.82258065,3.32571429 7.14516129,3.32571429 Z M30.9032258,51.3428571 L33.6129032,50.4685714 L7.88709677,15.2914286 L7.77419355,15.0685714 C10.0645161,14.8457143 12.2419355,13.4742857 13.3870968,11.1257143 C15.2096774,7.49142857 13.9032258,2.93142857 10.483871,0.994285714 C9.41935484,0.394285714 8.29032258,0.102857143 7.14516129,0.12 C4.62903226,0.12 2.20967742,1.57714286 0.951612903,4.08 C-1.41935484,8.81142857 2.08064516,13.2 2.08064516,13.2 L19.3387097,44.7942857 L30.9032258,51.3428571 Z M7.14516129,4.38857143 C7.62903226,4.38857143 8.11290323,4.50857143 8.58064516,4.76571429 C10.0483871,5.60571429 10.5967742,7.56 9.83870968,9.10285714 C9.29032258,10.1828571 8.25806452,10.8 7.16129032,10.8 C6.67741935,10.8 6.19354839,10.68 5.72580645,10.4228571 C4.25806452,9.58285714 3.70967742,7.62857143 4.46774194,6.08571429 C5.0483871,5.02285714 6.08064516,4.38857143 7.14516129,4.38857143 Z" fill="#402312"></path>
                </g>
                <g transform="translate(0.000000, 17.314286)" id="Shape">
                    <path d="M54.0483871,6.99428571 L54.5967742,8.94857143 L13.5,5.96571429 L13.1774194,5.98285714 C13.016129,6 12.8548387,6.10285714 12.7741935,6.27428571 C12.7096774,6.44571429 12.7096774,6.63428571 12.7741935,6.78857143 C13.8387097,8.86285714 13.8709677,11.3314286 12.8387097,13.44 C11.7096774,15.7028571 9.5,17.1085714 7.06451613,17.1257143 C6,17.1257143 4.93548387,16.8514286 3.98387097,16.32 C2.43548387,15.4628571 1.30645161,13.9885714 0.806451613,12.2057143 C0.306451613,10.4228571 0.451612903,8.55428571 1.29032258,6.90857143 C3.03225806,3.46285714 6.51612903,3.06857143 7.93548387,3.05142857 C8.29032258,3.05142857 8.53225806,3.06857143 8.5483871,3.06857143 L42.7741935,0.651428571 L54.0483871,6.99428571 Z M7.06451613,13.8857143 C8.37096774,13.8857143 9.5483871,13.1314286 10.1612903,11.8971429 C10.6129032,11.0057143 10.6935484,9.99428571 10.4193548,9.05142857 C10.1451613,8.09142857 9.53225806,7.32 8.70967742,6.84 C8.19354839,6.54857143 7.61290323,6.41142857 7.0483871,6.41142857 C5.74193548,6.41142857 4.56451613,7.16571429 3.9516129,8.4 C3.0483871,10.2342857 3.69354839,12.4971429 5.41935484,13.4742857 C5.93548387,13.7314286 6.5,13.8857143 7.06451613,13.8857143 Z" fill="#FCFAE3"></path>
                    <path d="M7.08064516,16.56 C6.08064516,16.56 5.11290323,16.3028571 4.22580645,15.8057143 C1.27419355,14.16 0.161290323,10.2514286 1.72580645,7.11428571 C3.32258065,3.90857143 6.61290323,3.56571429 7.9516129,3.54857143 C8.29032258,3.54857143 8.5,3.56571429 8.5,3.56571429 C8.5483871,3.56571429 8.56451613,3.56571429 8.61290323,3.56571429 C8.62903226,3.56571429 8.66129032,3.56571429 8.67741935,3.56571429 L42.6774194,1.18285714 L53.6129032,7.37142857 L53.8870968,8.36571429 L13.516129,5.43428571 C13.5,5.43428571 13.4677419,5.43428571 13.4516129,5.43428571 C13.4354839,5.43428571 13.3870968,5.43428571 13.3548387,5.43428571 L13.1290323,5.45142857 C12.7903226,5.46857143 12.5,5.69142857 12.3387097,6 C12.1774194,6.30857143 12.1774194,6.70285714 12.3387097,7.01142857 C13.3387097,8.93142857 13.3387097,11.2285714 12.4032258,13.1485714 C11.3548387,15.24 9.32258065,16.5428571 7.08064516,16.56 Z M7.06451613,5.86285714 C5.56451613,5.86285714 4.20967742,6.73714286 3.51612903,8.14285714 C2.48387097,10.2171429 3.20967742,12.8228571 5.17741935,13.9371429 C5.77419355,14.28 6.41935484,14.4342857 7.08064516,14.4342857 C8.58064516,14.4342857 9.93548387,13.56 10.6290323,12.1542857 C11.6612903,10.08 10.9354839,7.47428571 8.96774194,6.36 C8.38709677,6.01714286 7.72580645,5.86285714 7.06451613,5.86285714 Z M7.08064516,17.64 C9.59677419,17.64 12.016129,16.1828571 13.2741935,13.68 C14.4516129,11.3657143 14.3225806,8.67428571 13.2096774,6.53142857 L13.4354839,6.51428571 L55.2741935,9.56571429 L54.4516129,6.68571429 L42.9032258,0.0857142857 L8.59677419,2.50285714 C8.59677419,2.50285714 8.35483871,2.48571429 7.93548387,2.48571429 C6.41935484,2.48571429 2.70967742,2.88 0.838709677,6.6 C-0.983870968,10.2342857 0.322580645,14.7942857 3.74193548,16.7314286 C4.80645161,17.3485714 5.96774194,17.64 7.08064516,17.64 Z M7.06451613,6.92571429 C7.5483871,6.92571429 8.03225806,7.04571429 8.5,7.30285714 C9.96774194,8.14285714 10.516129,10.0971429 9.75806452,11.64 C9.20967742,12.72 8.17741935,13.3371429 7.08064516,13.3371429 C6.59677419,13.3371429 6.11290323,13.2171429 5.64516129,12.96 C4.17741935,12.12 3.62903226,10.1657143 4.38709677,8.62285714 C4.93548387,7.54285714 5.98387097,6.92571429 7.06451613,6.92571429 Z" fill="#402312"></path>
                </g>
                <g transform="translate(19.193548, 20.400000)">
                    <ellipse id="Oval" fill="#CCCBCB" cx="1.08064516" cy="1.16571429" rx="1" ry="1.06285714"></ellipse>
                    <path d="M1.08064516,0.0342857143 C1.66129032,0.0342857143 2.14516129,0.531428571 2.14516129,1.16571429 C2.14516129,1.78285714 1.67741935,2.29714286 1.08064516,2.29714286 C0.5,2.29714286 0.0161290323,1.8 0.0161290323,1.16571429 C0.0161290323,0.548571429 0.5,0.0342857143 1.08064516,0.0342857143 Z M1.08064516,2.16 C1.59677419,2.16 2.01612903,1.71428571 2.01612903,1.16571429 C2.01612903,0.617142857 1.59677419,0.171428571 1.08064516,0.171428571 C0.564516129,0.171428571 0.14516129,0.617142857 0.14516129,1.16571429 C0.14516129,1.71428571 0.564516129,2.16 1.08064516,2.16 Z" id="Shape" fill="#402312"></path>
                </g>
            </g>
            <g id="Group" transform="translate(45.967742, 46.457143)">
                <path d="M41.016129,0.805714286 C42.1935484,1.06285714 43.016129,1.68 43.3387097,2.57142857 C43.7258065,3.6 43.3548387,4.86857143 42.3064516,6.06857143 C41.3548387,7.16571429 39.9193548,8.17714286 38.2741935,8.84571429 C37.6451613,9.10285714 37,9.30857143 36.3709677,9.46285714 L1.66129032,20.52 C1.53225806,20.5371429 1.40322581,20.5714286 1.29032258,20.5371429 C0.983870968,20.4685714 0.758064516,20.1942857 0.725806452,19.8514286 C0.693548387,19.5085714 0.85483871,19.2171429 1.14516129,19.0457143 L33.8870968,2.41714286 C34.4032258,2.09142857 35.016129,1.78285714 35.6612903,1.50857143 C37.5483871,0.754285714 39.5,0.48 41.016129,0.805714286 Z M32.8548387,6.84 C33.7903226,6.78857143 35.6129032,6.30857143 37.1612903,5.69142857 C39,4.93714286 39.3387097,4.38857143 39.4193548,4.25142857 C39.4193548,4.13142857 39.3064516,4.09714286 39.2580645,4.08 C39,4.02857143 38.3225806,4.02857143 36.7903226,4.64571429 C35.016129,5.36571429 33.483871,6.30857143 32.8548387,6.84 Z" id="Shape" fill="#FCFAE3"></path>
                <path d="M1.40322581,19.9714286 C1.20967742,19.9371429 1.16129032,19.6285714 1.35483871,19.56 L34.0967742,2.93142857 C34.6129032,2.60571429 35.2096774,2.29714286 35.8387097,2.05714286 C37.7258065,1.28571429 39.5806452,1.06285714 40.9193548,1.35428571 C41.8870968,1.56 42.5967742,2.05714286 42.8709677,2.77714286 C43.5,4.50857143 41.3709677,6.99428571 38.1129032,8.31428571 C37.483871,8.57142857 36.8709677,8.76 36.2903226,8.89714286 L1.5483871,19.9885714 C1.48387097,19.9885714 1.43548387,19.9714286 1.40322581,19.9714286 Z M39.3548387,3.53142857 C38.8225806,3.41142857 37.9032258,3.58285714 36.5806452,4.13142857 C34.5322581,4.97142857 31.8225806,6.56571429 32.0645161,7.18285714 C32.0967742,7.28571429 32.2096774,7.33714286 32.3709677,7.37142857 C33.2258065,7.56 35.6451613,6.89142857 37.3548387,6.20571429 C39.4032258,5.36571429 40.1612903,4.57714286 39.9032258,3.96 C39.8225806,3.75428571 39.6290323,3.58285714 39.3548387,3.53142857 Z M1.19354839,21.0857143 C1.40322581,21.1371429 1.61290323,21.12 1.82258065,21.0514286 L36.5322581,9.99428571 C37.1935484,9.85714286 37.8387097,9.63428571 38.483871,9.36 C42.3870968,7.73142857 44.7096774,4.74857143 43.8225806,2.38285714 C43.4516129,1.32 42.483871,0.582857143 41.1129032,0.274285714 C39.516129,-0.0685714286 37.4516129,0.205714286 35.4354839,1.02857143 C34.8064516,1.30285714 34.1612903,1.59428571 33.5967742,1.97142857 L0.887096774,18.5828571 C0.403225806,18.84 0.112903226,19.3714286 0.161290323,19.9371429 C0.241935484,20.4857143 0.661290323,20.9657143 1.19354839,21.0857143 Z" id="Shape" fill="#402312"></path>
            </g>
            <path d="M84.0322581,58.9028571 C83.5,56.4171429 82.6290323,54.2228571 81.4032258,52.3714286 L82.5967742,51.48 C83.9193548,53.5028571 84.8870968,55.8857143 85.4516129,58.56 L84.0322581,58.9028571 Z" id="Shape" fill="#CD2027"></path>
            <path d="M79.7580645,82.1142857 L78.7741935,80.9828571 C79.0645161,80.6914286 79.3548387,80.3828571 79.6290323,80.0571429 C83.6774194,75.2914286 85.5645161,66.1885714 84.0322581,58.9028571 L85.4516129,58.56 C87.1129032,66.4285714 85.1290323,75.8914286 80.7096774,81.0857143 C80.4032258,81.4457143 80.0806452,81.7885714 79.7580645,82.1142857 Z" id="Shape" fill="#CD2027"></path>
        </g>
    </g>
</svg>