<?xml version="1.0" encoding="UTF-8"?>
<svg width="90px" height="90px" viewBox="0 0 90 90" version="1.1" xmlns="http://www.w3.org/2000/svg" xmlns:xlink="http://www.w3.org/1999/xlink">
    <!-- Generator: Sketch 51.2 (57519) - http://www.bohemiancoding.com/sketch -->
    <title>Slice 1</title>
    <desc>Created with Sketch.</desc>
    <defs></defs>
    <g id="Page-1" stroke="none" stroke-width="1" fill="none" fill-rule="evenodd">
        <g id="Ремонт_Детская" fill-rule="nonzero">
            <path d="M81.4025045,53.4166667 C77.3291592,47.3666667 69.8908766,45.5666667 59.9087657,48.2333333 L59.5545617,46.7833333 C65.1252236,45.3 69.9874776,45.15 74.0125224,46.3333333 C77.6350626,47.3833333 80.5169946,49.4833333 82.5939177,52.5666667 L81.4025045,53.4166667 Z" id="Shape" fill="#CD2027"></path>
            <path d="M79.7602862,82.3333333 L78.7781753,81.2333333 C79.0679785,80.95 79.3577818,80.65 79.6314848,80.3333333 C83.6726297,75.7 85.5563506,66.85 84.0268336,59.7666667 L85.4436494,59.4333333 C87.1019678,67.0833333 85.1216458,76.2833333 80.7101968,81.3333333 C80.4042934,81.6833333 80.0822898,82.0166667 79.7602862,82.3333333 Z" id="Shape" fill="#CD2027"></path>
            <path d="M19.2880143,89.9833333 C14.6350626,89.9833333 11.9463327,87.55 10.6422182,85.8333333 C7.66368515,81.95 7.2450805,75.9666667 9.6118068,71.3 C11.3184258,67.9333333 15.0053667,65.3333333 18.9177102,62.5666667 C24.842576,58.3833333 30.960644,54.05 31.1538462,46.6333333 C31.3470483,38.7666667 25.4865832,35.9833333 19.8354204,33.3 C16.5992844,31.7666667 13.5563506,30.3166667 11.5438283,27.9833333 C8.56529517,24.55 8.03398927,19.0833333 10.2075134,14.4 C12.1073345,10.3166667 15.5849732,8 19.529517,8.23333333 C23.667263,8.46666667 25.9051878,11.4666667 28.2880143,14.65 C31.3309481,18.7166667 34.7763864,23.3166667 43.0840787,24.4 C52.5348837,25.6333333 55.5617174,23.6833333 59.7316637,20.9666667 C62.1788909,19.3833333 64.9481216,17.5833333 69.5044723,16.1 C76.9105546,13.6833333 81.1610018,15.0833333 83.3989267,16.7 C85.8139535,18.4333333 87.3112701,21.3666667 87.5044723,24.7833333 C87.6815742,28.0666667 85.2504472,31.6833333 81.7084079,33.3666667 C77.5545617,35.3333333 73.0143113,34.3166667 69.2146691,30.5333333 L70.2128801,29.45 C73.5456172,32.7666667 77.5223614,33.7 81.0966011,32 C84.0751342,30.5833333 86.2003578,27.5166667 86.0554562,24.8666667 C85.9588551,23.1333333 85.3792487,19.95 82.5778175,17.9333333 C79.7280859,15.9 75.3649374,15.7666667 69.9391771,17.5333333 C65.5599284,18.9666667 62.8711986,20.7166667 60.5044723,22.25 C56.2379249,25.0166667 52.8729875,27.2 42.9069767,25.9 C34.0035778,24.7333333 30.2039356,19.65 27.1449016,15.5833333 C24.7781753,12.4333333 22.9266547,9.95 19.4490161,9.75 C16.1162791,9.55 13.1538462,11.55 11.5277281,15.0666667 C9.62790698,19.15 10.078712,24.05 12.6386404,27 C14.4418605,29.1 17.372093,30.4833333 20.4633274,31.95 C26.2754919,34.7166667 32.8604651,37.8333333 32.6350626,46.6833333 C32.4257603,54.8666667 25.7119857,59.6166667 19.7710197,63.8166667 C16.019678,66.4666667 12.4776386,68.9833333 10.9320215,72.0166667 C8.82289803,76.1833333 9.19320215,81.4833333 11.8175313,84.9166667 C14.313059,88.1666667 18.3542039,89.25 23.1842576,87.9333333 L23.5545617,89.3833333 C21.960644,89.8 20.5599284,89.9833333 19.2880143,89.9833333 Z" id="Shape" fill="#CD2027"></path>
            <g id="Group" transform="translate(15.778175, 0.000000)">
                <path d="M32.7316637,0.533333333 C36.7728086,0.533333333 46.980322,11.5833333 46.980322,16.1666667 C46.980322,20.75 44.372093,23.0333333 42.8747764,23.6166667 C51.1824687,24.6 57.2683363,29.75 60.0375671,37.2 C62.8067979,44.65 65.4150268,55.1166667 65.0125224,59.05 C63.4347048,60.2833333 60.5849732,61.1833333 59.0876565,61.2666667 C57.1878354,59.3 50.8604651,49.8166667 50.8604651,49.8166667 C50.8604651,65.2 48.5742397,84.0333333 47.7048301,89.35 C44.9355993,89.35 35.5330948,89.35 35.5330948,89.35 C35.0661896,84.2833333 32.9892665,72.65 32.7477639,70.4333333 C32.5062612,72.65 30.4454383,84.2833333 29.9624329,89.35 C29.9624329,89.35 20.5599284,89.35 17.7906977,89.35 C16.921288,84.0333333 14.6350626,65.2 14.6350626,49.8166667 C14.6350626,49.8166667 8.30769231,59.3166667 6.4078712,61.2666667 C4.91055456,61.1833333 2.0608229,60.2833333 0.483005367,59.05 C0.0805008945,55.1166667 2.68872987,44.65 5.45796064,37.2 C8.22719141,29.75 14.313059,24.6 22.6207513,23.6166667 C21.1234347,23.05 18.5152057,20.75 18.5152057,16.1666667 C18.5152057,11.5833333 28.6905188,0.533333333 32.7316637,0.533333333 Z" id="Shape" fill="#CEEFCF"></path>
                <path d="M14.8926655,50 L14.3613596,49.6166667 C17.0822898,45.5166667 19.0465116,35.3166667 17.372093,29.7 C16.8407871,27.9 15.9874776,26.7666667 14.8443649,26.3166667 L15.0697674,25.7 C16.4060823,26.2333333 17.3881932,27.5166667 17.9838998,29.5166667 C19.7388193,35.3833333 17.7584973,45.6833333 14.8926655,50 Z" id="Shape" fill="#95BC93"></path>
                <path d="M50.6511628,50 C47.7853309,45.7 45.8050089,35.3833333 47.5599284,29.5 C48.1556351,27.5 49.137746,26.2166667 50.4740608,25.6833333 L50.6994633,26.3 C49.5563506,26.75 48.7030411,27.9 48.1717352,29.6833333 C46.4812165,35.3 48.4454383,45.5 51.1824687,49.6 L50.6511628,50 Z" id="Shape" fill="#95BC93"></path>
                <ellipse id="Oval" fill="#93BC99" cx="38.3023256" cy="61.4833333" rx="2.52772809" ry="2.61666667"></ellipse>
                <ellipse id="Oval" fill="#93BC99" cx="38.1091234" cy="51.0833333" rx="2.52772809" ry="2.61666667"></ellipse>
                <ellipse id="Oval" fill="#93BC99" cx="36.2576029" cy="40.7666667" rx="2.52772809" ry="2.61666667"></ellipse>
                <path d="M31.8461538,26.95 C28.3685152,24.4333333 21.8479428,20.1333333 21.7996422,17.65 C21.7513417,15.1666667 22.234347,10.9333333 26.1144902,10.7166667 C29.9946333,10.5 35.5974955,9.05 39.7030411,11.4833333 C44.1788909,14.35 44.1788909,16.65 43.8407871,17.75 C43.5026834,18.85 39.9284436,24.8166667 34.2128801,26.95 C32.7316637,27.6 32.9087657,27.4 31.8461538,26.95 Z" id="Shape" fill="#93BC99"></path>
                <path d="M41.3452594,76.8666667 C41.313059,76.8666667 41.2808587,76.8666667 41.2486583,76.85 C41.039356,76.8 40.9105546,76.5833333 40.9588551,76.3666667 C44.5974955,60.5 44.1949911,44.55 39.9284436,35.7166667 C38.0930233,31.9166667 33.6171735,28.7 29.6726297,25.8666667 C25.1162791,22.5833333 21.1717352,19.75 21.236136,16.4333333 C21.2844365,13.6166667 22.7012522,11.6333333 25.4382826,10.5333333 C27.7889088,9.6 30.7352415,9.48333333 32.7316637,9.48333333 C35.9194991,9.48333333 40.3953488,10.6333333 42.6976744,13.1333333 C43.8085868,14.35 44.3237925,15.7666667 44.2271914,17.3333333 C43.9856887,21.6333333 37.9320215,25.75 33.5366726,27.7 C36.4830054,29.9666667 39.2522361,32.4666667 40.6368515,35.35 C44.9838998,44.3333333 45.4025045,60.5 41.7155635,76.55 C41.6833631,76.7333333 41.5223614,76.8666667 41.3452594,76.8666667 Z M32.7316637,10.3 C28.1753131,10.3 22.1216458,10.9333333 22.0250447,16.45 C21.9767442,19.3333333 25.9373882,22.1833333 30.1395349,25.2 C31.0089445,25.8333333 31.9105546,26.4666667 32.7960644,27.1333333 C37.9642218,24.9833333 43.2450805,20.9333333 43.4543828,17.2833333 C43.5348837,15.9333333 43.0840787,14.7333333 42.1341682,13.6833333 C39.9928444,11.3666667 35.7584973,10.3 32.7316637,10.3 Z" id="Shape" fill="#000000"></path>
                <path d="M47.6887299,89.7333333 L35.5169946,89.7333333 C35.3076923,89.7333333 35.1466905,89.5666667 35.1305903,89.3666667 C34.8407871,86.1833333 33.8908766,80.3 33.1985689,76 C33.0214669,74.95 32.8765653,73.9666667 32.7477639,73.1333333 C32.6189624,73.9666667 32.4579606,74.9333333 32.2969589,75.9833333 C31.6046512,80.2833333 30.6547406,86.1666667 30.3649374,89.35 C30.3488372,89.55 30.1717352,89.7166667 29.9785331,89.7166667 L17.8067979,89.7166667 C17.6135957,89.7166667 17.4525939,89.5666667 17.4203936,89.3833333 C16.5992844,84.35 14.3774597,66.25 14.2647585,51.0666667 C12.5581395,53.6166667 8.24329159,59.9333333 6.7137746,61.5166667 C6.6332737,61.6 6.52057245,61.6333333 6.42397138,61.6333333 C4.79785331,61.55 1.88372093,60.5833333 0.273703041,59.35 C0.193202147,59.2833333 0.128801431,59.1833333 0.112701252,59.0666667 C-0.28980322,55.0333333 2.3667263,44.4166667 5.11985689,37.0333333 C7.88908766,29.5833333 13.7817531,24.6666667 21.4132379,23.3666667 C19.9159213,22.2833333 18.1449016,20 18.1449016,16.15 C18.1449016,13.5166667 21.0912343,9.35 23.8604651,6.33333333 C26.6135957,3.31666667 30.4132379,0.116666667 32.7799642,0.116666667 C35.1466905,0.116666667 38.9463327,3.33333333 41.6994633,6.33333333 C44.4686941,9.35 47.4150268,13.5166667 47.4150268,16.15 C47.4150268,20 45.6440072,22.2833333 44.1466905,23.3666667 C51.7781753,24.6666667 57.6708408,29.6 60.4400716,37.0333333 C63.177102,44.4166667 65.8497317,55.0333333 65.4472272,59.0666667 C65.431127,59.1833333 65.3828265,59.2833333 65.2862254,59.35 C63.6923077,60.5833333 60.7620751,61.55 59.1359571,61.6333333 C59.0232558,61.6333333 58.9105546,61.6 58.8461538,61.5166667 C57.3005367,59.9166667 53.0017889,53.6 51.2951699,51.0666667 C51.1663685,66.25 48.960644,84.35 48.1395349,89.3833333 C48.0429338,89.6 47.881932,89.7333333 47.6887299,89.7333333 Z M35.8711986,88.9333333 L47.3667263,88.9333333 C48.2522361,83.3333333 50.4740608,64.8666667 50.4740608,49.8166667 C50.4740608,49.6333333 50.5867621,49.4833333 50.7477639,49.4333333 C50.9087657,49.3833333 51.0858676,49.45 51.1824687,49.5833333 C51.2468694,49.6833333 57.2522361,58.6833333 59.2325581,60.85 C60.7298748,60.7166667 63.2093023,59.8666667 64.6261181,58.8333333 C64.9320215,54.7833333 62.3237925,44.5333333 59.6511628,37.35 C56.8497317,29.8166667 50.7155635,24.95 42.8103757,24.0166667 C42.6332737,24 42.4883721,23.85 42.4722719,23.6666667 C42.4561717,23.4833333 42.5527728,23.3 42.7298748,23.2333333 C44.0661896,22.7166667 46.5778175,20.6 46.5778175,16.1666667 C46.5778175,11.9 36.6118068,0.933333333 32.7316637,0.933333333 C28.8515206,0.933333333 18.8855098,11.8833333 18.8855098,16.1666667 C18.8855098,20.6 21.4132379,22.7166667 22.7334526,23.2333333 C22.9105546,23.3 23.0071556,23.4833333 22.9910555,23.6666667 C22.9749553,23.85 22.8300537,24 22.6529517,24.0166667 C14.7477639,24.95 8.61359571,29.8166667 5.81216458,37.35 C3.13953488,44.55 0.531305903,54.7833333 0.837209302,58.8333333 C2.25402504,59.8666667 4.74955277,60.7166667 6.23076923,60.85 C8.22719141,58.6666667 14.216458,49.6666667 14.2808587,49.5833333 C14.3774597,49.4333333 14.5545617,49.3666667 14.7155635,49.4333333 C14.8765653,49.4833333 14.9892665,49.65 14.9892665,49.8166667 C14.9892665,64.8666667 17.2110912,83.3333333 18.0966011,88.9333333 L29.5921288,88.9333333 C29.9302326,85.65 30.8318426,80.0166667 31.4919499,75.8666667 C31.9105546,73.25 32.2486583,71.1833333 32.3291592,70.3666667 C32.3452594,70.1666667 32.5223614,70 32.7155635,70 C32.9087657,70 33.0858676,70.15 33.1019678,70.3666667 C33.1824687,71.1666667 33.5205725,73.25 33.9391771,75.8666667 C34.6314848,80.0166667 35.5330948,85.65 35.8711986,88.9333333 Z" id="Shape" fill="#000000"></path>
                <path d="M38.3023256,64.5166667 C36.7245081,64.5166667 35.4042934,63.1833333 35.372093,61.55 C35.3559928,60.7333333 35.6457961,59.9666667 36.1932021,59.3833333 C36.7406082,58.8 37.4651163,58.4666667 38.2379249,58.45 L38.3023256,58.45 C39.8801431,58.45 41.2003578,59.7833333 41.2325581,61.4166667 C41.2486583,62.2333333 40.9588551,63 40.411449,63.5833333 C39.8640429,64.1666667 39.1395349,64.5 38.3667263,64.5166667 L38.3023256,64.5166667 Z M38.3023256,59.2666667 L38.254025,59.2666667 C37.6744186,59.2833333 37.1431127,59.5166667 36.7567084,59.95 C36.3542039,60.3833333 36.1449016,60.9333333 36.1610018,61.5333333 C36.177102,62.7333333 37.1431127,63.7 38.3023256,63.7 L38.3506261,63.7 C38.9302326,63.6833333 39.4615385,63.45 39.8479428,63.0166667 C40.2504472,62.5833333 40.4597496,62.0333333 40.4436494,61.4333333 C40.4275492,60.2333333 39.4615385,59.2666667 38.3023256,59.2666667 Z" id="Shape" fill="#000000"></path>
                <path d="M38.1091234,54.1166667 C36.5313059,54.1166667 35.2110912,52.7833333 35.1788909,51.15 C35.1627907,50.3333333 35.4525939,49.5666667 36,48.9833333 C36.5474061,48.4 37.2719141,48.0666667 38.0447227,48.05 L38.1091234,48.05 C39.686941,48.05 41.0071556,49.3833333 41.039356,51.0166667 C41.0554562,51.8333333 40.765653,52.6 40.2182469,53.1833333 C39.6708408,53.7666667 38.9463327,54.1 38.1735242,54.1166667 L38.1091234,54.1166667 Z M38.1091234,48.8666667 L38.0608229,48.8666667 C37.4812165,48.8833333 36.9499106,49.1166667 36.5635063,49.55 C36.1610018,49.9833333 35.9516995,50.5333333 35.9677996,51.1333333 C35.9838998,52.3333333 36.9499106,53.3 38.1091234,53.3 L38.157424,53.3 C38.7370304,53.2833333 39.2683363,53.05 39.6547406,52.6166667 C40.0572451,52.1833333 40.2665474,51.6333333 40.2504472,51.0333333 C40.234347,49.8333333 39.2683363,48.8666667 38.1091234,48.8666667 Z" id="Shape" fill="#000000"></path>
                <path d="M36.2576029,43.8 C34.6797853,43.8 33.3595707,42.4666667 33.3273703,40.8333333 C33.3112701,40.0166667 33.6010733,39.25 34.1484794,38.6666667 C34.6958855,38.0833333 35.4203936,37.75 36.1932021,37.7333333 L36.2576029,37.7333333 C37.8354204,37.7333333 39.1556351,39.0666667 39.1878354,40.7 C39.2039356,41.5166667 38.9141324,42.2833333 38.3667263,42.8666667 C37.8193202,43.45 37.0948122,43.7833333 36.3220036,43.8 L36.2576029,43.8 Z M36.2576029,38.55 L36.2093023,38.55 C35.6296959,38.5666667 35.09839,38.8 34.7119857,39.2333333 C34.3094812,39.6666667 34.1001789,40.2166667 34.1162791,40.8166667 C34.1323792,42.0166667 35.09839,42.9833333 36.2576029,42.9833333 L36.3059034,42.9833333 C36.8855098,42.9666667 37.4168157,42.7333333 37.80322,42.3 C38.2057245,41.8666667 38.4150268,41.3166667 38.3989267,40.7166667 C38.3667263,39.5166667 37.4168157,38.55 36.2576029,38.55 Z" id="Shape" fill="#000000"></path>
            </g>
            <path d="M23.5223614,89.3833333 L23.1520572,87.9333333 C28.6100179,86.4666667 31.9427549,83.4333333 34.8890877,80.7666667 C38.6243292,77.3666667 41.8443649,74.4333333 47.9302326,75.6 C51.2951699,76.25 54.9338104,77.9833333 58.4436494,79.6666667 C62.0822898,81.4166667 65.8497317,83.2166667 69.3434705,83.8333333 C73.2075134,84.5166667 76.2021467,83.6833333 78.7781753,81.2333333 L79.7602862,82.3333333 C76.862254,85.1 73.3846154,86.0666667 69.1019678,85.3166667 C65.4150268,84.6666667 61.5509839,82.8166667 57.8318426,81.0333333 C54.2415027,79.3166667 50.8604651,77.6833333 47.6726297,77.0833333 C42.2951699,76.05 39.4454383,78.6333333 35.8550984,81.9 C32.7799642,84.6666667 29.3023256,87.8333333 23.5223614,89.3833333 Z" id="Shape" fill="#CD2027"></path>
            <g id="Group" transform="translate(0.000000, 26.166667)">
                <g transform="translate(9.982111, 0.000000)" id="Shape">
                    <path d="M7.13237925,0.633333333 C8.19499106,0.633333333 9.25760286,0.9 10.2075134,1.41666667 C11.7531306,2.25 12.8801431,3.68333333 13.3792487,5.41666667 C13.8783542,7.15 13.7334526,8.96666667 12.8962433,10.5666667 C11.8658318,12.5833333 9.90161002,13.9166667 7.67978533,14.1166667 C7.51878354,14.1333333 7.35778175,14.2333333 7.27728086,14.4 C7.18067979,14.5666667 7.18067979,14.7333333 7.27728086,14.9 L7.38998211,15.1166667 L32.6833631,48.7833333 L30.8479428,49.35 L19.6100179,43.15 L2.46332737,12.5666667 C2.2862254,12.3333333 -0.821109123,8.4 1.33631485,4.18333333 C2.51162791,2 4.71735242,0.633333333 7.13237925,0.633333333 Z M7.14847943,11.0333333 C8.45259392,11.0333333 9.62790698,10.3 10.2397138,9.1 C10.6905188,8.23333333 10.7710197,7.25 10.4973166,6.33333333 C10.2236136,5.4 9.6118068,4.65 8.79069767,4.18333333 C8.27549195,3.9 7.69588551,3.76666667 7.13237925,3.76666667 C5.82826476,3.76666667 4.6529517,4.5 4.0411449,5.7 C3.59033989,6.56666667 3.509839,7.55 3.78354204,8.46666667 C4.05724508,9.4 4.66905188,10.15 5.490161,10.6166667 C5.98926655,10.8833333 6.56887299,11.0333333 7.14847943,11.0333333 Z" fill="#FCFAE3"></path>
                    <path d="M30.9284436,48.8 L20.0125224,42.7833333 L2.91413238,12.3333333 C2.8980322,12.2833333 2.84973166,12.2333333 2.81753131,12.2 C2.78533095,12.1666667 -0.225402504,8.41666667 1.80322004,4.48333333 C2.86583184,2.45 4.89445438,1.16666667 7.11627907,1.16666667 C8.11449016,1.16666667 9.08050089,1.41666667 9.96601073,1.9 C12.9123435,3.5 14.0232558,7.3 12.4615385,10.35 C11.4955277,12.2333333 9.70840787,13.45 7.64758497,13.65 C7.30948122,13.6666667 7.019678,13.8833333 6.85867621,14.1833333 C6.69767442,14.4833333 6.69767442,14.8666667 6.85867621,15.1666667 L6.97137746,15.3833333 C6.98747764,15.4333333 7.03577818,15.4833333 7.06797853,15.5166667 L31.862254,48.5333333 L30.9284436,48.8 Z M7.11627907,3.23333333 C5.61896243,3.23333333 4.26654741,4.08333333 3.57423971,5.45 C3.07513417,6.43333333 2.96243292,7.56666667 3.28443649,8.61666667 C3.60644007,9.66666667 4.28264758,10.55 5.23255814,11.0666667 C5.82826476,11.4 6.47227191,11.55 7.13237925,11.55 C8.62969589,11.55 9.98211091,10.7 10.6744186,9.33333333 C11.7048301,7.31666667 10.980322,4.78333333 9.01610018,3.7 C8.45259392,3.38333333 7.79248658,3.23333333 7.11627907,3.23333333 Z M30.8318426,49.9166667 L33.5366726,49.0666667 L7.8568873,14.8666667 L7.74418605,14.65 C10.0304114,14.4333333 12.2039356,13.1 13.3470483,10.8166667 C15.1663685,7.28333333 13.862254,2.85 10.4490161,0.966666667 C9.38640429,0.383333333 8.25939177,0.1 7.11627907,0.116666667 C4.60465116,0.116666667 2.18962433,1.53333333 0.933810376,3.96666667 C-1.43291592,8.56666667 2.0608229,12.8333333 2.0608229,12.8333333 L19.2880143,43.55 L30.8318426,49.9166667 Z M7.11627907,4.26666667 C7.59928444,4.26666667 8.0822898,4.38333333 8.54919499,4.63333333 C10.0143113,5.45 10.5617174,7.35 9.80500894,8.85 C9.25760286,9.9 8.22719141,10.5 7.13237925,10.5 C6.64937388,10.5 6.16636852,10.3833333 5.69946333,10.1333333 C4.23434705,9.31666667 3.68694097,7.41666667 4.44364937,5.91666667 C5.02325581,4.88333333 6.05366726,4.26666667 7.11627907,4.26666667 Z" fill="#402312"></path>
                </g>
                <g transform="translate(0.000000, 16.833333)" id="Shape">
                    <path d="M54.0966011,6.8 L54.6440072,8.7 L13.6207513,5.8 L13.2987478,5.81666667 C13.137746,5.83333333 12.9767442,5.93333333 12.8962433,6.1 C12.8318426,6.26666667 12.8318426,6.45 12.8962433,6.6 C13.9588551,8.61666667 13.9910555,11.0166667 12.960644,13.0666667 C11.8336315,15.2666667 9.62790698,16.6333333 7.19677996,16.65 C6.13416816,16.65 5.07155635,16.3833333 4.1216458,15.8666667 C2.57602862,15.0333333 1.4490161,13.6 0.949910555,11.8666667 C0.450805009,10.1333333 0.595706619,8.31666667 1.43291592,6.71666667 C3.17173524,3.36666667 6.64937388,2.98333333 8.06618962,2.96666667 C8.42039356,2.96666667 8.66189624,2.98333333 8.67799642,2.98333333 L42.842576,0.633333333 L54.0966011,6.8 Z M7.19677996,13.5 C8.50089445,13.5 9.67620751,12.7666667 10.2880143,11.5666667 C10.7388193,10.7 10.8193202,9.71666667 10.5456172,8.8 C10.2719141,7.86666667 9.66010733,7.11666667 8.83899821,6.65 C8.32379249,6.36666667 7.74418605,6.23333333 7.18067979,6.23333333 C5.8765653,6.23333333 4.70125224,6.96666667 4.08944544,8.16666667 C3.18783542,9.95 3.83184258,12.15 5.55456172,13.1 C6.06976744,13.35 6.6332737,13.5 7.19677996,13.5 Z" fill="#FCFAE3"></path>
                    <path d="M7.21288014,16.0833333 C6.21466905,16.0833333 5.24865832,15.8333333 4.36314848,15.35 C1.41681574,13.75 0.305903399,9.95 1.86762075,6.9 C3.46153846,3.78333333 6.74597496,3.45 8.0822898,3.43333333 C8.42039356,3.43333333 8.62969589,3.45 8.62969589,3.45 C8.67799642,3.45 8.6940966,3.45 8.74239714,3.45 C8.75849732,3.45 8.79069767,3.45 8.80679785,3.45 L42.745975,1.13333333 L53.6618962,7.15 L53.9355993,8.11666667 L13.6368515,5.26666667 C13.6207513,5.26666667 13.588551,5.26666667 13.5724508,5.26666667 C13.5563506,5.26666667 13.5080501,5.26666667 13.4758497,5.26666667 L13.2504472,5.28333333 C12.9123435,5.3 12.6225403,5.51666667 12.4615385,5.81666667 C12.3005367,6.11666667 12.3005367,6.5 12.4615385,6.8 C13.4597496,8.66666667 13.4597496,10.9 12.5259392,12.7666667 C11.4794275,14.8166667 9.45080501,16.0833333 7.21288014,16.0833333 Z M7.19677996,5.7 C5.69946333,5.7 4.3470483,6.55 3.65474061,7.91666667 C2.62432916,9.93333333 3.34883721,12.4666667 5.31305903,13.55 C5.90876565,13.8833333 6.55277281,14.0333333 7.21288014,14.0333333 C8.71019678,14.0333333 10.0626118,13.1833333 10.7549195,11.8166667 C11.7853309,9.8 11.0608229,7.26666667 9.09660107,6.18333333 C8.51699463,5.85 7.8568873,5.7 7.19677996,5.7 Z M7.21288014,17.15 C9.72450805,17.15 12.1395349,15.7333333 13.3953488,13.3 C14.5706619,11.05 14.4418605,8.43333333 13.3309481,6.35 L13.5563506,6.33333333 L55.3202147,9.3 L54.4991055,6.5 L42.9713775,0.116666667 L8.72629696,2.46666667 C8.72629696,2.46666667 8.48479428,2.45 8.06618962,2.45 C6.55277281,2.45 2.84973166,2.83333333 0.982110912,6.45 C-0.837209302,9.98333333 0.466905188,14.4166667 3.88014311,16.3 C4.94275492,16.8666667 6.1019678,17.15 7.21288014,17.15 Z M7.21288014,6.73333333 C7.69588551,6.73333333 8.17889088,6.85 8.64579606,7.1 C10.1109123,7.91666667 10.6583184,9.81666667 9.90161002,11.3166667 C9.35420394,12.3666667 8.32379249,12.9666667 7.22898032,12.9666667 C6.74597496,12.9666667 6.26296959,12.85 5.7960644,12.6 C4.33094812,11.7833333 3.78354204,9.88333333 4.54025045,8.38333333 C5.08765653,7.33333333 6.11806798,6.73333333 7.21288014,6.73333333 Z" fill="#402312"></path>
                </g>
                <g transform="translate(19.320215, 19.833333)">
                    <ellipse id="Oval" fill="#CCCBCB" cx="1.06261181" cy="1.13333333" rx="1" ry="1.03333333"></ellipse>
                    <path d="M1.06261181,0.0333333333 C1.64221825,0.0333333333 2.12522361,0.516666667 2.12522361,1.13333333 C2.12522361,1.73333333 1.65831843,2.23333333 1.06261181,2.23333333 C0.483005367,2.23333333 0,1.75 0,1.13333333 C0,0.533333333 0.483005367,0.0333333333 1.06261181,0.0333333333 Z M1.06261181,2.1 C1.57781753,2.1 1.99642218,1.66666667 1.99642218,1.13333333 C1.99642218,0.6 1.57781753,0.166666667 1.06261181,0.166666667 C0.547406082,0.166666667 0.128801431,0.6 0.128801431,1.13333333 C0.128801431,1.66666667 0.547406082,2.1 1.06261181,2.1 Z" id="Shape" fill="#402312"></path>
                </g>
            </g>
            <g id="Group" transform="translate(46.046512, 47.666667)">
                <path d="M40.9266547,0.783333333 C42.1019678,1.03333333 42.9230769,1.63333333 43.2450805,2.5 C43.6314848,3.5 43.2611807,4.73333333 42.2146691,5.9 C41.2647585,6.96666667 39.8318426,7.95 38.1896243,8.6 C37.5617174,8.85 36.9177102,9.05 36.2898032,9.2 L1.64221825,19.95 C1.51341682,19.9666667 1.38461538,20 1.27191413,19.9666667 C0.966010733,19.9 0.740608229,19.6333333 0.708407871,19.3 C0.676207513,18.9666667 0.837209302,18.6833333 1.12701252,18.5166667 L33.8103757,2.35 C34.3255814,2.03333333 34.9373882,1.73333333 35.5813953,1.46666667 C37.4651163,0.733333333 39.4132379,0.466666667 40.9266547,0.783333333 Z M32.7799642,6.65 C33.7137746,6.6 35.5330948,6.13333333 37.078712,5.53333333 C38.9141324,4.8 39.2522361,4.26666667 39.332737,4.13333333 C39.332737,4.01666667 39.2200358,3.98333333 39.1717352,3.96666667 C38.9141324,3.91666667 38.2379249,3.91666667 36.7084079,4.51666667 C34.9373882,5.21666667 33.4078712,6.13333333 32.7799642,6.65 Z" id="Shape" fill="#FCFAE3"></path>
                <path d="M1.40071556,19.4166667 C1.20751342,19.3833333 1.15921288,19.0833333 1.35241503,19.0166667 L34.0357782,2.85 C34.5509839,2.53333333 35.1466905,2.23333333 35.7745975,2 C37.6583184,1.25 39.509839,1.03333333 40.8461538,1.31666667 C41.8121646,1.51666667 42.5205725,2 42.7942755,2.7 C43.4221825,4.38333333 41.2969589,6.8 38.0447227,8.08333333 C37.4168157,8.33333333 36.8050089,8.51666667 36.2254025,8.65 L1.54561717,19.4333333 C1.46511628,19.4333333 1.41681574,19.4166667 1.40071556,19.4166667 Z M39.2683363,3.43333333 C38.7370304,3.31666667 37.8193202,3.48333333 36.4991055,4.01666667 C34.4543828,4.83333333 31.7495528,6.38333333 31.9910555,6.98333333 C32.0232558,7.08333333 32.1359571,7.13333333 32.2969589,7.16666667 C33.1502683,7.35 35.5652952,6.7 37.2719141,6.03333333 C39.3166369,5.21666667 40.0733453,4.45 39.8157424,3.85 C39.7352415,3.65 39.5420394,3.48333333 39.2683363,3.43333333 Z M1.17531306,20.5 C1.38461538,20.55 1.59391771,20.5333333 1.80322004,20.4666667 L36.450805,9.71666667 C37.1109123,9.58333333 37.7549195,9.36666667 38.3989267,9.1 C42.2951699,7.51666667 44.6135957,4.61666667 43.7280859,2.31666667 C43.3577818,1.28333333 42.391771,0.566666667 41.0232558,0.266666667 C39.4293381,-0.0666666667 37.3685152,0.2 35.3559928,1 C34.7280859,1.26666667 34.0840787,1.55 33.5205725,1.91666667 L0.86940966,18.0666667 C0.386404293,18.3166667 0.0966010733,18.8333333 0.14490161,19.3833333 C0.241502683,19.9166667 0.644007156,20.3833333 1.17531306,20.5 Z" id="Shape" fill="#402312"></path>
            </g>
            <path d="M84.0268336,59.7666667 C83.4955277,57.35 82.6261181,55.2166667 81.4025045,53.4166667 L82.5939177,52.55 C83.9141324,54.5166667 84.8801431,56.8333333 85.4436494,59.4333333 L84.0268336,59.7666667 Z" id="Shape" fill="#CD2027"></path>
        </g>
    </g>
</svg>