<?xml version="1.0" encoding="UTF-8"?>
<svg width="90px" height="90px" viewBox="0 0 90 90" version="1.1" xmlns="http://www.w3.org/2000/svg" xmlns:xlink="http://www.w3.org/1999/xlink">
    <!-- Generator: Sketch 51.2 (57519) - http://www.bohemiancoding.com/sketch -->
    <title>Slice 1</title>
    <desc>Created with Sketch.</desc>
    <defs></defs>
    <g id="Page-1" stroke="none" stroke-width="1" fill="none" fill-rule="evenodd">
        <g id="Ушить_Джинсы" transform="translate(5.000000, 0.000000)" fill-rule="nonzero">
            <g id="Group" transform="translate(14.618474, 0.000000)">
                <g transform="translate(0.000000, 0.164234)" fill="#CF2029" id="Shape">
                    <path d="M12.5140562,1.14963504 C12.5140562,1.14963504 12.497992,1.14963504 12.497992,1.14963504 L11.0040161,1.06751825 C10.7791165,1.05109489 10.6024096,0.854014599 10.6184739,0.624087591 C10.6345382,0.394160584 10.8273092,0.21350365 11.0522088,0.229927007 L12.5461847,0.312043796 C12.7710843,0.328467153 12.9477912,0.525547445 12.9317269,0.755474453 C12.9156627,0.98540146 12.7389558,1.14963504 12.5140562,1.14963504 Z"></path>
                    <path d="M4.53012048,2.52919708 C4.53012048,2.52919708 4.51405622,2.52919708 4.51405622,2.52919708 C4.28915663,2.51277372 4.1124498,2.31569343 4.12851406,2.08576642 L4.20883534,0.394160584 C4.2248996,0.164233577 4.40160643,0 4.62650602,0 L8.30522088,0.0821167883 C8.53012048,0.0821167883 8.70682731,0.27919708 8.70682731,0.509124088 C8.70682731,0.739051095 8.51405622,0.919708029 8.28915663,0.919708029 L5.01204819,0.837591241 L4.94779116,2.11861314 C4.91566265,2.34854015 4.73895582,2.52919708 4.53012048,2.52919708 Z"></path>
                    <path d="M0.530120482,84.8430657 C0.530120482,84.8430657 0.514056225,84.8430657 0.514056225,84.8430657 C0.289156627,84.8266423 0.112449799,84.629562 0.128514056,84.399635 L0.273092369,81.4762774 C0.289156627,81.2463504 0.465863454,81.0656934 0.706827309,81.0821168 C0.931726908,81.0985401 1.10843373,81.2956204 1.09236948,81.5255474 L0.947791165,84.4489051 C0.931726908,84.6624088 0.738955823,84.8430657 0.530120482,84.8430657 Z M0.803212851,78.9963504 C0.803212851,78.9963504 0.787148594,78.9963504 0.787148594,78.9963504 C0.562248996,78.979927 0.385542169,78.7828467 0.401606426,78.5529197 L0.546184739,75.629562 C0.562248996,75.399635 0.75502008,75.2189781 0.979919679,75.2354015 C1.20481928,75.2518248 1.3815261,75.4489051 1.36546185,75.6788321 L1.22088353,78.6021898 C1.20481928,78.8156934 1.02811245,78.9963504 0.803212851,78.9963504 Z M1.09236948,73.1332117 C1.09236948,73.1332117 1.07630522,73.1332117 1.07630522,73.1332117 C0.851405622,73.1167883 0.674698795,72.919708 0.690763052,72.689781 L0.835341365,69.7664234 C0.851405622,69.5364964 1.02811245,69.3558394 1.26907631,69.3722628 C1.4939759,69.3886861 1.67068273,69.5857664 1.65461847,69.8156934 L1.51004016,72.7390511 C1.4939759,72.9689781 1.31726908,73.1332117 1.09236948,73.1332117 Z M1.3815261,67.2864964 C1.3815261,67.2864964 1.36546185,67.2864964 1.36546185,67.2864964 C1.14056225,67.270073 0.963855422,67.0729927 0.979919679,66.8430657 L1.12449799,63.919708 C1.14056225,63.689781 1.33333333,63.5091241 1.55823293,63.5255474 C1.78313253,63.5419708 1.95983936,63.7390511 1.9437751,63.9689781 L1.79919679,66.8923358 C1.78313253,67.1222628 1.59036145,67.2864964 1.3815261,67.2864964 Z M1.67068273,61.439781 C1.67068273,61.439781 1.65461847,61.439781 1.65461847,61.439781 C1.42971888,61.4233577 1.25301205,61.2262774 1.26907631,60.9963504 L1.41365462,58.0729927 C1.42971888,57.8430657 1.62248996,57.6624088 1.84738956,57.6788321 C2.07228916,57.6952555 2.24899598,57.8923358 2.23293173,58.1222628 L2.08835341,61.0456204 C2.0562249,61.2591241 1.87951807,61.439781 1.67068273,61.439781 Z M1.9437751,55.5930657 C1.9437751,55.5930657 1.92771084,55.5930657 1.92771084,55.5930657 C1.70281124,55.5766423 1.52610442,55.379562 1.54216867,55.149635 L1.68674699,52.2262774 C1.70281124,51.9963504 1.89558233,51.8156934 2.12048193,51.8321168 C2.34538153,51.8485401 2.52208835,52.0456204 2.5060241,52.2755474 L2.36144578,55.1989051 C2.34538153,55.4124088 2.1686747,55.5930657 1.9437751,55.5930657 Z M2.23293173,49.7463504 C2.23293173,49.7463504 2.21686747,49.7463504 2.21686747,49.7463504 C1.99196787,49.729927 1.81526104,49.5328467 1.8313253,49.3029197 L1.97590361,46.379562 C1.99196787,46.149635 2.18473896,45.9689781 2.40963855,45.9854015 C2.63453815,46.0018248 2.81124498,46.1989051 2.79518072,46.4288321 L2.65060241,49.3521898 C2.63453815,49.5656934 2.45783133,49.7463504 2.23293173,49.7463504 Z M2.52208835,43.899635 C2.52208835,43.899635 2.5060241,43.899635 2.5060241,43.899635 C2.2811245,43.8832117 2.10441767,43.6861314 2.12048193,43.4562044 L2.26506024,40.5328467 C2.2811245,40.3029197 2.45783133,40.1222628 2.69879518,40.1386861 C2.92369478,40.1551095 3.10040161,40.3521898 3.08433735,40.5821168 L2.93975904,43.5054745 C2.92369478,43.7189781 2.73092369,43.899635 2.52208835,43.899635 Z M2.81124498,38.0364964 C2.81124498,38.0364964 2.79518072,38.0364964 2.79518072,38.0364964 C2.57028112,38.020073 2.3935743,37.8229927 2.40963855,37.5930657 L2.55421687,34.669708 C2.57028112,34.439781 2.76305221,34.2591241 2.98795181,34.2755474 C3.21285141,34.2919708 3.38955823,34.4890511 3.37349398,34.7189781 L3.22891566,37.6423358 C3.19678715,37.8722628 3.02008032,38.0364964 2.81124498,38.0364964 Z M3.08433735,32.189781 C3.08433735,32.189781 3.06827309,32.189781 3.06827309,32.189781 C2.84337349,32.1733577 2.66666667,31.9762774 2.68273092,31.7463504 L2.82730924,28.8229927 C2.84337349,28.5930657 3.03614458,28.4124088 3.26104418,28.4288321 C3.48594378,28.4452555 3.6626506,28.6423358 3.64658635,28.8722628 L3.50200803,31.7956204 C3.48594378,32.0255474 3.30923695,32.189781 3.08433735,32.189781 Z M3.37349398,26.3430657 C3.37349398,26.3430657 3.35742972,26.3430657 3.35742972,26.3430657 C3.13253012,26.3266423 2.95582329,26.129562 2.97188755,25.899635 L3.11646586,22.9762774 C3.13253012,22.7463504 3.3253012,22.5656934 3.5502008,22.5821168 C3.7751004,22.5985401 3.95180723,22.7956204 3.93574297,23.0255474 L3.79116466,25.9489051 C3.7751004,26.1624088 3.58232932,26.3430657 3.37349398,26.3430657 Z M3.6626506,20.4963504 C3.6626506,20.4963504 3.64658635,20.4963504 3.64658635,20.4963504 C3.42168675,20.479927 3.24497992,20.2828467 3.26104418,20.0529197 L3.40562249,17.129562 C3.42168675,16.899635 3.61445783,16.7189781 3.83935743,16.7354015 C4.06425703,16.7518248 4.24096386,16.9489051 4.2248996,17.1788321 L4.08032129,20.1021898 C4.06425703,20.3156934 3.87148594,20.4963504 3.6626506,20.4963504 Z M3.93574297,14.649635 C3.93574297,14.649635 3.91967871,14.649635 3.91967871,14.649635 C3.69477912,14.6332117 3.51807229,14.4361314 3.53413655,14.2062044 L3.67871486,11.2828467 C3.69477912,11.0529197 3.8875502,10.8722628 4.1124498,10.8886861 C4.3373494,10.9051095 4.51405622,11.1021898 4.49799197,11.3321168 L4.35341365,14.2554745 C4.3373494,14.4689781 4.16064257,14.649635 3.93574297,14.649635 Z M4.2248996,8.78649635 C4.2248996,8.78649635 4.20883534,8.78649635 4.20883534,8.78649635 C3.98393574,8.77007299 3.80722892,8.5729927 3.82329317,8.34306569 L3.96787149,5.41970803 C3.98393574,5.18978102 4.17670683,5.00912409 4.40160643,5.02554745 C4.62650602,5.0419708 4.80321285,5.23905109 4.78714859,5.4689781 L4.64257028,8.39233577 C4.62650602,8.62226277 4.4497992,8.78649635 4.2248996,8.78649635 Z"></path>
                    <path d="M0.497991968,89.2937956 C0.385542169,89.2937956 0.289156627,89.2445255 0.208835341,89.1788321 C0.128514056,89.0967153 0.0803212851,88.9981752 0.0803212851,88.8832117 L0.0642570281,87.2080292 C0.0642570281,86.9781022 0.240963855,86.7810219 0.465863454,86.7810219 C0.465863454,86.7810219 0.465863454,86.7810219 0.465863454,86.7810219 C0.690763052,86.7810219 0.86746988,86.9616788 0.883534137,87.1916058 L0.899598394,88.439781 L4.19277108,88.4069343 C4.19277108,88.4069343 4.19277108,88.4069343 4.19277108,88.4069343 C4.41767068,88.4069343 4.59437751,88.5875912 4.61044177,88.8175182 C4.61044177,89.0474453 4.43373494,89.2445255 4.20883534,89.2445255 L0.497991968,89.2937956 C0.514056225,89.2937956 0.497991968,89.2937956 0.497991968,89.2937956 Z"></path>
                    <path d="M6.53815261,89.1788321 C6.31325301,89.1788321 6.13654618,88.9981752 6.12048193,88.7682482 C6.12048193,88.5383212 6.29718876,88.3412409 6.52208835,88.3412409 L8.03212851,88.2919708 C8.25702811,88.2755474 8.4497992,88.4726277 8.4497992,88.7025547 C8.4497992,88.9324818 8.27309237,89.129562 8.04819277,89.129562 L6.53815261,89.1788321 C6.53815261,89.1788321 6.53815261,89.1788321 6.53815261,89.1788321 Z"></path>
                </g>
                <g transform="translate(37.751004, 0.164234)" fill="#CF2029" id="Shape">
                    <path d="M0.417670683,1.14963504 C0.208835341,1.14963504 0.016064257,0.968978102 0.016064257,0.755474453 C5.79397641e-15,0.525547445 0.176706827,0.328467153 0.401606426,0.312043796 L1.91164659,0.229927007 C2.13654618,0.21350365 2.32931727,0.394160584 2.34538153,0.624087591 C2.36144578,0.854014599 2.18473896,1.05109489 1.95983936,1.06751825 L0.449799197,1.14963504 C0.43373494,1.14963504 0.417670683,1.14963504 0.417670683,1.14963504 Z"></path>
                    <path d="M8.43373494,2.52919708 C8.20883534,2.52919708 8.03212851,2.34854015 8.03212851,2.1350365 L7.96787149,0.854014599 L4.69076305,0.936131387 C4.46586345,0.936131387 4.27309237,0.755474453 4.27309237,0.525547445 C4.27309237,0.295620438 4.4497992,0.098540146 4.6746988,0.098540146 L8.35341365,0.0164233577 C8.57831325,0.0164233577 8.75502008,0.180656934 8.77108434,0.410583942 L8.85140562,2.10218978 C8.86746988,2.33211679 8.69076305,2.52919708 8.46586345,2.54562044 C8.4497992,2.52919708 8.43373494,2.52919708 8.43373494,2.52919708 Z"></path>
                    <path d="M12.4016064,84.8266423 C12.1767068,84.8266423 12,84.6459854 12,84.4324818 L11.8554217,81.5091241 C11.8393574,81.2791971 12.0160643,81.0821168 12.2409639,81.0656934 C12.4658635,81.0492701 12.6586345,81.229927 12.6746988,81.459854 L12.8192771,84.3832117 C12.8353414,84.6131387 12.6586345,84.810219 12.4337349,84.8266423 C12.4016064,84.8266423 12.4016064,84.8266423 12.4016064,84.8266423 Z M12.1124498,78.979927 C11.8875502,78.979927 11.7108434,78.7992701 11.7108434,78.5857664 L11.5662651,75.6624088 C11.5502008,75.4324818 11.7269076,75.2354015 11.9518072,75.2189781 C12.1767068,75.2025547 12.3694779,75.3832117 12.3855422,75.6131387 L12.5301205,78.5364964 C12.5461847,78.7664234 12.3694779,78.9635036 12.1445783,78.979927 C12.1285141,78.979927 12.1124498,78.979927 12.1124498,78.979927 Z M11.8232932,73.1332117 C11.5983936,73.1332117 11.4216867,72.9525547 11.4216867,72.7390511 L11.2771084,69.8156934 C11.2610442,69.5857664 11.437751,69.3886861 11.6626506,69.3722628 C11.8875502,69.3558394 12.0803213,69.5364964 12.0963855,69.7664234 L12.2409639,72.689781 C12.2570281,72.919708 12.0803213,73.1167883 11.8554217,73.1332117 C11.8393574,73.1332117 11.8393574,73.1332117 11.8232932,73.1332117 Z M11.5502008,67.2864964 C11.3253012,67.2864964 11.1485944,67.1058394 11.1485944,66.8923358 L11.0040161,63.9689781 C10.9879518,63.7390511 11.1646586,63.5419708 11.3895582,63.5255474 C11.6144578,63.5091241 11.8072289,63.689781 11.8232932,63.919708 L11.9678715,66.8430657 C11.9839357,67.0729927 11.8072289,67.270073 11.5823293,67.2864964 C11.5662651,67.2864964 11.5502008,67.2864964 11.5502008,67.2864964 Z M11.2610442,61.4233577 C11.0361446,61.4233577 10.8594378,61.2427007 10.8594378,61.0291971 L10.7148594,58.1058394 C10.6987952,57.8759124 10.875502,57.6788321 11.1004016,57.6624088 C11.3253012,57.6459854 11.5180723,57.8266423 11.5341365,58.0565693 L11.6787149,60.979927 C11.6947791,61.209854 11.5180723,61.4069343 11.2931727,61.4233577 C11.2771084,61.4233577 11.2771084,61.4233577 11.2610442,61.4233577 Z M10.9879518,55.5766423 C10.7630522,55.5766423 10.5863454,55.3959854 10.5863454,55.1824818 L10.4417671,52.2591241 C10.4257028,52.0291971 10.6024096,51.8321168 10.8273092,51.8156934 C11.0522088,51.8156934 11.2449799,51.979927 11.2610442,52.209854 L11.4056225,55.1332117 C11.4216867,55.3631387 11.2449799,55.560219 11.0200803,55.5766423 C11.0040161,55.5766423 10.9879518,55.5766423 10.9879518,55.5766423 Z M10.6987952,49.729927 C10.4738956,49.729927 10.2971888,49.5492701 10.2971888,49.3357664 L10.1526104,46.4124088 C10.1365462,46.1824818 10.313253,45.9854015 10.5381526,45.9689781 C10.7630522,45.9525547 10.9558233,46.1332117 10.9718876,46.3631387 L11.1164659,49.2864964 C11.1325301,49.5164234 10.9558233,49.7135036 10.7309237,49.729927 C10.7148594,49.729927 10.7148594,49.729927 10.6987952,49.729927 Z M10.4257028,43.8832117 C10.2008032,43.8832117 10.0240964,43.7025547 10.0240964,43.4890511 L9.87951807,40.5656934 C9.86345382,40.3357664 10.0401606,40.1386861 10.2650602,40.1222628 C10.4899598,40.1222628 10.6827309,40.2864964 10.6987952,40.5164234 L10.8433735,43.439781 C10.8594378,43.669708 10.6827309,43.8667883 10.4578313,43.8832117 C10.4257028,43.8832117 10.4257028,43.8832117 10.4257028,43.8832117 Z M10.1365462,38.0364964 C9.91164659,38.0364964 9.73493976,37.8558394 9.73493976,37.6423358 L9.59036145,34.7189781 C9.57429719,34.4890511 9.75100402,34.2919708 9.97590361,34.2755474 C10.2008032,34.2591241 10.3935743,34.439781 10.4096386,34.669708 L10.5542169,37.5930657 C10.5702811,37.8229927 10.3935743,38.020073 10.1686747,38.0364964 C10.1526104,38.0364964 10.1365462,38.0364964 10.1365462,38.0364964 Z M9.84738956,32.189781 C9.62248996,32.189781 9.44578313,32.0091241 9.44578313,31.7956204 L9.30120482,28.8722628 C9.28514056,28.6423358 9.46184739,28.4452555 9.68674699,28.4288321 C9.91164659,28.4124088 10.1044177,28.5930657 10.1204819,28.8229927 L10.2650602,31.7463504 C10.2811245,31.9762774 10.1044177,32.1733577 9.87951807,32.189781 C9.86345382,32.189781 9.86345382,32.189781 9.84738956,32.189781 Z M9.57429719,26.3430657 C9.34939759,26.3430657 9.17269076,26.1624088 9.17269076,25.9489051 L9.02811245,23.0255474 C9.01204819,22.7956204 9.18875502,22.5985401 9.41365462,22.5821168 C9.63855422,22.5656934 9.8313253,22.7463504 9.84738956,22.9762774 L9.99196787,25.899635 C10.0080321,26.129562 9.8313253,26.3266423 9.6064257,26.3430657 C9.59036145,26.3430657 9.57429719,26.3430657 9.57429719,26.3430657 Z M9.28514056,20.4963504 C9.06024096,20.4963504 8.88353414,20.3156934 8.88353414,20.1021898 L8.73895582,17.1788321 C8.72289157,16.9489051 8.89959839,16.7518248 9.12449799,16.7354015 C9.34939759,16.7189781 9.54216867,16.899635 9.55823293,17.129562 L9.70281124,20.0529197 C9.7188755,20.2828467 9.54216867,20.479927 9.31726908,20.4963504 C9.30120482,20.4963504 9.30120482,20.4963504 9.28514056,20.4963504 Z M9.01204819,14.649635 C8.78714859,14.649635 8.61044177,14.4689781 8.61044177,14.2554745 L8.46586345,11.3321168 C8.4497992,11.1021898 8.62650602,10.9051095 8.85140562,10.8886861 C9.07630522,10.8722628 9.26907631,11.0529197 9.28514056,11.2828467 L9.42971888,14.2062044 C9.44578313,14.4361314 9.26907631,14.6332117 9.04417671,14.649635 C9.02811245,14.649635 9.01204819,14.649635 9.01204819,14.649635 Z M8.72289157,8.78649635 C8.49799197,8.78649635 8.32128514,8.60583942 8.32128514,8.39233577 L8.17670683,5.4689781 C8.16064257,5.23905109 8.3373494,5.0419708 8.562249,5.02554745 C8.78714859,5.00912409 8.97991968,5.18978102 8.99598394,5.41970803 L9.14056225,8.34306569 C9.15662651,8.5729927 8.97991968,8.77007299 8.75502008,8.78649635 C8.73895582,8.78649635 8.73895582,8.78649635 8.72289157,8.78649635 Z"></path>
                    <path d="M8.80321285,88.8339416 C8.57831325,88.8339416 8.40160643,88.6532847 8.38554217,88.4233577 C8.38554217,88.1934307 8.562249,87.9963504 8.78714859,87.9963504 L12.0481928,87.979927 L12.0321285,86.7317518 C12.0321285,86.5018248 12.2088353,86.3047445 12.4337349,86.3047445 C12.4337349,86.3047445 12.4337349,86.3047445 12.4337349,86.3047445 C12.6586345,86.3047445 12.8353414,86.4854015 12.8514056,86.7153285 L12.8835341,88.3905109 C12.8835341,88.5054745 12.8353414,88.6040146 12.7710843,88.6861314 C12.6907631,88.7682482 12.5943775,88.8175182 12.4819277,88.8175182 L8.80321285,88.8339416 C8.80321285,88.8339416 8.80321285,88.8339416 8.80321285,88.8339416 Z"></path>
                    <path d="M4.96385542,88.8667883 C4.73895582,88.8667883 4.562249,88.6861314 4.54618474,88.4562044 C4.54618474,88.2262774 4.72289157,88.0291971 4.94779116,88.0291971 L6.44176707,88.0127737 C6.44176707,88.0127737 6.44176707,88.0127737 6.44176707,88.0127737 C6.66666667,88.0127737 6.84337349,88.1934307 6.85943775,88.4233577 C6.85943775,88.6532847 6.68273092,88.850365 6.45783133,88.850365 L4.96385542,88.8667883 C4.96385542,88.8667883 4.96385542,88.8667883 4.96385542,88.8667883 Z"></path>
                </g>
                <g transform="translate(16.385542, 51.240876)" fill="#CF2029" id="Shape">
                    <path d="M8.48192771,2.61131387 C8.46586345,2.61131387 8.4497992,2.61131387 8.43373494,2.61131387 C8.20883534,2.59489051 8.04819277,2.38138686 8.06425703,2.15145985 L8.24096386,0.476277372 C8.25702811,0.246350365 8.46586345,0.0821167883 8.69076305,0.098540146 C8.91566265,0.114963504 9.07630522,0.328467153 9.06024096,0.558394161 L8.88353414,2.23357664 C8.86746988,2.44708029 8.69076305,2.61131387 8.48192771,2.61131387 Z"></path>
                    <path d="M4.93172691,35.2445255 C4.91566265,35.2445255 4.89959839,35.2445255 4.88353414,35.2445255 C4.65863454,35.2116788 4.49799197,35.0145985 4.51405622,34.7846715 L4.78714859,32.3211679 C4.81927711,32.0912409 5.01204819,31.9270073 5.23694779,31.9434307 C5.46184739,31.9762774 5.62248996,32.1733577 5.6064257,32.4032847 L5.33333333,34.8667883 C5.31726908,35.0967153 5.14056225,35.2445255 4.93172691,35.2445255 Z M5.4939759,30.0711679 C5.47791165,30.0711679 5.46184739,30.0711679 5.44578313,30.0711679 C5.22088353,30.0383212 5.06024096,29.8412409 5.07630522,29.6113139 L5.36546185,26.9014599 C5.39759036,26.6715328 5.59036145,26.5072993 5.81526104,26.5237226 C6.04016064,26.5565693 6.20080321,26.7536496 6.18473896,26.9835766 L5.89558233,29.6934307 C5.87951807,29.9233577 5.70281124,30.0711679 5.4939759,30.0711679 Z M6.08835341,24.6678832 C6.07228916,24.6678832 6.0562249,24.6678832 6.04016064,24.6678832 C5.81526104,24.6350365 5.65461847,24.4379562 5.67068273,24.2080292 L5.95983936,21.4981752 C5.99196787,21.2682482 6.18473896,21.1040146 6.40963855,21.120438 C6.63453815,21.1532847 6.79518072,21.350365 6.77911647,21.580292 L6.48995984,24.290146 C6.47389558,24.5036496 6.29718876,24.6678832 6.08835341,24.6678832 Z M6.68273092,19.2481752 C6.66666667,19.2481752 6.65060241,19.2481752 6.63453815,19.2481752 C6.40963855,19.2153285 6.24899598,19.0182482 6.26506024,18.7883212 L6.55421687,16.0784672 C6.58634538,15.8485401 6.77911647,15.6843066 7.00401606,15.7007299 C7.22891566,15.7335766 7.38955823,15.9306569 7.37349398,16.1605839 L7.08433735,18.870438 C7.06827309,19.100365 6.89156627,19.2481752 6.68273092,19.2481752 Z M7.27710843,13.8448905 C7.26104418,13.8448905 7.24497992,13.8448905 7.22891566,13.8448905 C7.00401606,13.8120438 6.84337349,13.6149635 6.85943775,13.3850365 L7.14859438,10.6751825 C7.18072289,10.4452555 7.37349398,10.2810219 7.59839357,10.2974453 C7.82329317,10.330292 7.98393574,10.5273723 7.96787149,10.7572993 L7.67871486,13.4671533 C7.64658635,13.6806569 7.46987952,13.8448905 7.27710843,13.8448905 Z M7.85542169,8.42518248 C7.83935743,8.42518248 7.82329317,8.42518248 7.80722892,8.42518248 C7.58232932,8.39233577 7.42168675,8.19525547 7.437751,7.96532847 L7.72690763,5.25547445 C7.75903614,5.02554745 7.95180723,4.86131387 8.17670683,4.87773723 C8.40160643,4.91058394 8.562249,5.10766423 8.54618474,5.33759124 L8.25702811,8.04744526 C8.24096386,8.26094891 8.06425703,8.42518248 7.85542169,8.42518248 Z"></path>
                    <path d="M4.77108434,38.4963504 C4.77108434,38.4963504 4.77108434,38.4963504 4.77108434,38.4963504 L3.27710843,38.479927 C3.05220884,38.479927 2.87550201,38.2828467 2.87550201,38.0529197 C2.87550201,37.8229927 3.06827309,37.6423358 3.29317269,37.6423358 C3.29317269,37.6423358 3.29317269,37.6423358 3.29317269,37.6423358 L4.40160643,37.6587591 L4.48192771,36.3777372 C4.49799197,36.1478102 4.69076305,35.9671533 4.91566265,35.9835766 C5.14056225,36 5.31726908,36.1970803 5.30120482,36.4270073 L5.20481928,38.1021898 C5.17269076,38.3321168 4.99598394,38.4963504 4.77108434,38.4963504 Z"></path>
                    <path d="M1.97590361,38.479927 C1.97590361,38.479927 1.97590361,38.479927 1.97590361,38.479927 L0.481927711,38.4635036 C0.257028112,38.4635036 0.0803212851,38.2664234 0.0803212851,38.0364964 C0.0803212851,37.8065693 0.273092369,37.6259124 0.497991968,37.6259124 L1.99196787,37.6423358 C2.21686747,37.6423358 2.3935743,37.8394161 2.3935743,38.0693431 C2.37751004,38.2992701 2.20080321,38.479927 1.97590361,38.479927 Z"></path>
                </g>
                <g transform="translate(24.578313, 51.240876)" fill="#CF2029" id="Shape">
                    <path d="M0.626506024,2.61131387 C0.417670683,2.61131387 0.240963855,2.44708029 0.224899598,2.23357664 L0.0481927711,0.558394161 C0.0321285141,0.328467153 0.192771084,0.114963504 0.417670683,0.098540146 C0.642570281,0.0821167883 0.851405622,0.246350365 0.86746988,0.476277372 L1.04417671,2.15145985 C1.06024096,2.38138686 0.899598394,2.59489051 0.674698795,2.61131387 C0.658634538,2.61131387 0.642570281,2.61131387 0.626506024,2.61131387 Z"></path>
                    <path d="M4.16064257,35.4087591 C3.95180723,35.4087591 3.7751004,35.2445255 3.75903614,35.0310219 L3.48594378,32.5675182 C3.45381526,32.3375912 3.63052209,32.1240876 3.85542169,32.1076642 C4.08032129,32.0912409 4.28915663,32.2554745 4.30522088,32.4854015 L4.57831325,34.9489051 C4.61044177,35.1788321 4.43373494,35.3923358 4.20883534,35.4087591 C4.19277108,35.4087591 4.17670683,35.4087591 4.16064257,35.4087591 Z M3.59839357,30.2189781 C3.38955823,30.2189781 3.21285141,30.0547445 3.19678715,29.8412409 L2.90763052,27.1149635 C2.87550201,26.8850365 3.05220884,26.6715328 3.27710843,26.6551095 C3.50200803,26.6386861 3.71084337,26.8029197 3.72690763,27.0328467 L4.01606426,29.7591241 C4.04819277,29.9890511 3.87148594,30.2025547 3.64658635,30.2189781 C3.63052209,30.2189781 3.61445783,30.2189781 3.59839357,30.2189781 Z M3.02008032,24.7828467 C2.81124498,24.7828467 2.63453815,24.6186131 2.6184739,24.4051095 L2.32931727,21.6788321 C2.29718876,21.4489051 2.47389558,21.2354015 2.69879518,21.2189781 C2.92369478,21.2025547 3.13253012,21.3667883 3.14859438,21.5967153 L3.437751,24.3229927 C3.46987952,24.5529197 3.29317269,24.7664234 3.06827309,24.7828467 C3.05220884,24.7828467 3.03614458,24.7828467 3.02008032,24.7828467 Z M2.42570281,19.330292 C2.21686747,19.330292 2.04016064,19.1660584 2.02409639,18.9525547 L1.73493976,16.2262774 C1.70281124,15.9963504 1.87951807,15.7828467 2.10441767,15.7664234 C2.32931727,15.75 2.53815261,15.9142336 2.55421687,16.1441606 L2.84337349,18.870438 C2.87550201,19.100365 2.69879518,19.3138686 2.47389558,19.330292 C2.45783133,19.330292 2.44176707,19.330292 2.42570281,19.330292 Z M1.8313253,13.8941606 C1.62248996,13.8941606 1.44578313,13.729927 1.42971888,13.5164234 L1.14056225,10.790146 C1.10843373,10.560219 1.28514056,10.3467153 1.51004016,10.330292 C1.73493976,10.3138686 1.9437751,10.4781022 1.95983936,10.7080292 L2.24899598,13.4343066 C2.2811245,13.6642336 2.10441767,13.8777372 1.87951807,13.8941606 C1.86345382,13.8941606 1.84738956,13.8941606 1.8313253,13.8941606 Z M1.25301205,8.4580292 C1.04417671,8.4580292 0.86746988,8.29379562 0.851405622,8.08029197 L0.562248996,5.3540146 C0.530120482,5.12408759 0.706827309,4.91058394 0.931726908,4.89416058 C1.15662651,4.87773723 1.36546185,5.0419708 1.3815261,5.27189781 L1.67068273,7.99817518 C1.70281124,8.22810219 1.52610442,8.44160584 1.30120482,8.4580292 C1.28514056,8.4580292 1.26907631,8.4580292 1.25301205,8.4580292 Z"></path>
                    <path d="M4.40160643,38.6441606 C4.19277108,38.6441606 4.01606426,38.479927 4,38.25 L3.87148594,36.5748175 C3.85542169,36.3448905 4.01606426,36.1478102 4.25702811,36.1313869 C4.48192771,36.1149635 4.6746988,36.2791971 4.69076305,36.5255474 L4.78714859,37.790146 L5.91164659,37.7408759 C6.13654618,37.7244526 6.32931727,37.9051095 6.34538153,38.1514599 C6.36144578,38.3978102 6.18473896,38.5784672 5.9437751,38.5948905 L4.43373494,38.6605839 C4.40160643,38.6441606 4.40160643,38.6441606 4.40160643,38.6441606 Z"></path>
                    <path d="M7.19678715,38.5127737 C6.97188755,38.5127737 6.79518072,38.3321168 6.79518072,38.1021898 C6.77911647,37.8722628 6.95582329,37.6751825 7.19678715,37.6587591 L8.70682731,37.5930657 C8.93172691,37.5766423 9.12449799,37.7572993 9.14056225,38.0036496 C9.15662651,38.2335766 8.97991968,38.4306569 8.73895582,38.4470803 L7.22891566,38.5127737 C7.19678715,38.5127737 7.19678715,38.5127737 7.19678715,38.5127737 Z"></path>
                </g>
                <polygon id="Shape" fill="#BFD9E8" points="16.1285141 88.0127737 8.1124498 87.8485401 6.68273092 85.7627737 9.12449799 60.7007299 10.9718876 7.78467153 12.4819277 2.26642336 15.6144578 1.31386861 37.5903614 2.03649635 38.4738956 5.28832117 39.8554217 19.1332117 43.2610442 87.3065693 33.9919679 88.6861314 26.6827309 22.9434307 22.746988 20.9069343 18.7951807 44.129562 18.5702811 68.9452555"></polygon>
                <path d="M43.6305221,81.229927 C43.6947791,78.5857664 41.9437751,49.7627737 41.9437751,49.7627737 L41.5100402,34.1277372 L40.497992,15.8813869 C40.497992,15.8813869 40.2248996,3.00547445 38.5542169,1.3959854 C34.4899598,0.919708029 29.0923695,0.689781022 26.1526104,0.607664234 L26.1526104,0.591240876 C26.0722892,0.591240876 25.686747,0.574817518 25.1084337,0.591240876 C24.5140562,0.591240876 24.1285141,0.591240876 24.064257,0.591240876 L24.064257,0.607664234 C21.124498,0.689781022 15.7269076,0.936131387 11.6626506,1.3959854 C9.97590361,2.98905109 9.7188755,15.8813869 9.7188755,15.8813869 L8.6746988,34.1277372 L8.24096386,49.7627737 C8.24096386,49.7627737 6.58634538,78.1259124 6.71485944,80.770073 C6.84337349,83.4306569 5.42971888,85.8448905 6.04016064,87.7828467 C6.65060241,89.7372263 11.9518072,89.8193431 15.8554217,89.3266423 C18.6666667,88.9653285 18.4096386,86.9288321 18.3293173,85.5821168 C18.3293173,85.5821168 17.6546185,84.0547445 17.2369478,83.4963504 L24.9156627,23.4854015 L25.124498,19.6751825 L25.3333333,23.4854015 L32.8835341,83.5291971 C32.4819277,84.0875912 31.8714859,85.6642336 31.8714859,85.6642336 C31.8393574,87.0109489 31.6305221,89.0638686 34.4578313,89.2937956 C38.3614458,89.6551095 43.6787149,89.3594891 44.2088353,87.3886861 C44.7068273,85.4343066 43.5662651,83.8905109 43.6305221,81.229927 Z M14.0722892,2.66058394 C14.6024096,3.08759124 15.3574297,3.20255474 15.9196787,3.51459854 C16.5461847,3.84306569 17.3172691,4.0729927 17.9759036,4.30291971 C19.1164659,4.68065693 18.4417671,6.76642336 17.3012048,6.40510949 C16.4337349,6.12591241 15.5983936,5.71532847 14.7630522,5.40328467 C14.1526104,5.17335766 13.5261044,4.95985401 12.9638554,4.5 C11.9839357,3.66240876 13.0763052,1.87226277 14.0722892,2.66058394 Z M12.6746988,9.26277372 C13.1566265,9.45985401 13.5742972,9.62408759 14.0883534,9.49270073 C14.5220884,9.37773723 14.9236948,9.22992701 15.373494,9.19708029 C16.7871486,9.06569343 17.1084337,11.7262774 15.6787149,11.8576642 C15.0361446,11.9069343 14.4096386,12.2025547 13.7670683,12.2354015 C13.124498,12.2518248 12.497992,12.0218978 11.8875502,11.7591241 C10.4899598,11.2007299 11.3092369,8.70437956 12.6746988,9.26277372 Z M14.7148594,87.3065693 C13.8634538,87.7992701 12.8995984,87.7992701 11.9518072,87.6843066 C11.502008,87.6186131 11.0361446,87.6350365 10.5863454,87.4872263 C10.1044177,87.3394161 9.54216867,86.9945255 9.02811245,87.1094891 C7.63052209,87.4708029 7.00401606,84.8594891 8.43373494,84.4981752 C9.47791165,84.2518248 10.2650602,84.7773723 11.2771084,84.9087591 C11.9196787,85.0072993 12.9638554,85.3193431 13.5582329,84.9744526 C14.8273092,84.2025547 15.9678715,86.5510949 14.7148594,87.3065693 Z M19.9518072,18.229927 C19.5341365,18.5091241 19.0682731,18.6076642 18.6184739,18.6405109 C18.6827309,18.7554745 18.6987952,18.9032847 18.7148594,19.0182482 C18.746988,19.4288321 18.6987952,19.8722628 18.5060241,20.2335766 C18.7791165,20.4963504 18.9236948,20.8905109 18.9236948,21.3339416 C19.2128514,21.3832117 19.502008,21.4160584 19.6465863,21.4653285 C20.1767068,21.6788321 20.6425703,22.0072993 20.9959839,22.5328467 C21.5100402,23.2554745 21.188755,24.2080292 20.5783133,24.6186131 C19.8393574,25.1113139 18.8915663,25.1277372 17.9759036,25.0948905 C18.5060241,25.8667883 18.184739,27.1478102 17.3654618,27.3284672 C17.4618474,27.4434307 17.5421687,27.5419708 17.6064257,27.6733577 C18.1204819,28.3959854 17.7670683,29.6441606 16.9959839,29.8083942 C17.1726908,30.5145985 17.188755,31.2864964 17.2208835,32.0091241 C17.2369478,32.3047445 17.188755,32.5675182 17.060241,32.7810219 C17.8634538,33.3229927 18.6506024,33.7828467 19.1646586,34.8339416 C19.6465863,35.8029197 18.746988,36.7226277 18.0240964,36.689781 C17.5421687,36.6733577 17.0763052,36.6076642 16.5943775,36.4927007 C16.4819277,36.7062044 16.3212851,36.9032847 16.1124498,37.0018248 C15.5983936,37.2974453 15.0040161,37.3631387 14.4578313,37.4288321 C14.1526104,37.4781022 13.8473896,37.4781022 13.5582329,37.560219 C13.6546185,38.0693431 14.4738956,38.9890511 14.746988,39.2682482 C15.4698795,39.9744526 16.2409639,40.6149635 16.8995984,41.4032847 C17.2690763,41.830292 17.2369478,42.3394161 17.060241,42.75 C17.1566265,43.0291971 17.188755,43.3576642 17.1726908,43.7189781 C17.1726908,44.0474453 17.060241,44.3266423 16.8995984,44.5729927 C17.5421687,45.1806569 17.6064257,46.4781022 16.7228916,46.8886861 C16.2248996,47.1186131 15.7269076,47.2992701 15.2128514,47.3978102 C15.6144578,47.6605839 16.0321285,47.8905109 16.497992,48.0383212 C17.2048193,48.3175182 17.3172691,49.2864964 17.0281124,49.9927007 C17.060241,50.0419708 17.1084337,50.0583942 17.1084337,50.1240876 C17.686747,50.9781022 17.188755,52.0784672 16.3855422,52.3083942 C15.9839357,52.439781 15.5983936,52.4726277 15.1967871,52.5054745 C15.2931727,52.9324818 15.4056225,53.3759124 15.6144578,53.7208029 C16.1285141,53.9343066 16.626506,54.1970803 17.0120482,54.7883212 C17.5100402,55.560219 17.188755,56.6441606 16.4658635,56.9069343 C16.7710843,57.4817518 16.626506,58.2208029 16.2570281,58.6478102 C16.626506,59.4032847 16.3855422,60.5693431 15.4859438,60.6678832 C15.2128514,60.6843066 14.9879518,60.7171533 14.7148594,60.7171533 C14.811245,60.7335766 14.8915663,60.7992701 15.0040161,60.8485401 C15.5341365,61.0620438 15.7269076,61.620438 15.6787149,62.1788321 C16.0963855,62.3430657 16.4658635,62.5894161 16.7710843,63.0328467 C17.2690763,63.689781 16.9638554,64.790146 16.3534137,65.1186131 C15.7429719,65.4470803 15.0522088,65.5291971 14.37751,65.6277372 C14.4578313,65.6441606 14.5381526,65.6934307 14.5863454,65.7427007 C15.5983936,66.3010949 16.5140562,66.9908759 17.3975904,67.7791971 C18.2008032,68.4854015 17.8313253,70.0127737 16.8995984,70.1934307 C16.2891566,70.3248175 15.6787149,70.3412409 15.0522088,70.3905109 C14.939759,70.8175182 14.6506024,71.2116788 14.1686747,71.2116788 C13.7991968,71.2116788 13.4618474,71.2281022 13.0763052,71.3430657 C11.9839357,71.6715328 11.5662651,70.0948905 12.0963855,69.2080292 C12.1124498,68.7810219 12.3052209,68.419708 12.7389558,68.2390511 C12.9477912,68.1569343 13.1566265,68.0912409 13.3654618,68.0255474 C13.2048193,67.959854 13.0763052,67.8941606 12.8995984,67.8777372 C11.9518072,67.5821168 11.0522088,67.3850365 10.2008032,66.6952555 C9.76706827,66.3339416 9.67068273,65.6605839 9.81526104,65.1021898 C10.1526104,63.7554745 11.2449799,63.3613139 12.4337349,63.1806569 C12.3694779,63.0656934 12.3373494,62.9178832 12.3373494,62.770073 C12.3052209,62.5072993 12.3052209,62.2937956 12.3212851,62.080292 C12.2570281,61.9653285 12.2248996,61.8667883 12.1927711,61.7518248 C11.7751004,61.5383212 11.373494,61.2755474 11.0200803,60.8978102 C10.4899598,60.2737226 10.3935743,59.4032847 10.9879518,58.7627737 C11.1485944,58.5656934 11.3574297,58.4671533 11.5662651,58.3521898 C11.5662651,57.9087591 11.7429719,57.4324818 12.0321285,57.1532847 C11.8554217,56.9890511 11.6947791,56.7755474 11.5341365,56.4963504 C11.0200803,55.5273723 11.502008,54.1970803 12.5301205,54.3120438 C12.7389558,54.3284672 12.9477912,54.3284672 13.1566265,54.3120438 C13.1566265,54.2956204 13.1726908,54.2463504 13.1726908,54.229927 C13.188755,54.1642336 13.2048193,54.0985401 13.253012,54.0656934 C13.188755,53.8686131 13.1566265,53.6879562 13.0763052,53.4580292 C12.8835341,52.8832117 12.3855422,52.7518248 11.9518072,52.4069343 C11.1485944,51.75 11.5180723,50.1405109 12.4497992,49.9927007 C12.7710843,49.9434307 13.0763052,49.9270073 13.3975904,49.9270073 C13.3815261,49.7791971 13.3654618,49.5821168 13.3815261,49.4343066 C12.6746988,48.9251825 12.0321285,48.3175182 11.4056225,47.6605839 C10.7309237,46.9051095 10.8594378,45.3613139 11.9036145,45.2463504 C12.2088353,45.1970803 12.497992,45.1806569 12.8032129,45.1642336 C12.1927711,44.5565693 12.2248996,43.0784672 13.1726908,42.7828467 C12.8995984,42.3558394 12.8674699,41.7317518 13.0441767,41.2554745 C11.8393574,40.040146 10.811245,38.5784672 11.2931727,36.6569343 C11.5662651,35.5894161 12.2248996,35.2445255 12.9317269,35.0967153 C12.5461847,34.1605839 13.1405622,33.0766423 14.0562249,33.2080292 C14.0401606,32.600365 14.3935743,31.9927007 14.8594378,31.7956204 C14.8273092,30.8266423 14.6827309,30.2025547 13.7831325,29.709854 C13.1726908,29.3813869 12.9638554,28.379562 13.2369478,27.7390511 C12.626506,27.2463504 12.2409639,26.6222628 12.7228916,25.6532847 C12.497992,25.5711679 12.2248996,25.439781 12,25.3576642 C10.7148594,24.7992701 11.373494,22.7627737 12.5301205,22.7791971 C13.7028112,22.7791971 14.875502,22.5656934 16.064257,22.5164234 C15.9518072,22.2372263 15.9518072,21.9580292 15.9839357,21.6788321 C15.7911647,21.5310219 15.5823293,21.399635 15.3895582,21.2025547 C14.9879518,20.8412409 14.875502,20.3649635 14.9718876,19.8886861 C14.6345382,19.6751825 14.3614458,19.3467153 14.1686747,18.8540146 C13.9759036,18.3777372 14.0883534,17.8850365 14.2971888,17.540146 C14.0562249,17.4908759 13.7831325,17.4580292 13.5261044,17.4087591 C12.0963855,17.2445255 12.3855422,14.6167883 13.7991968,14.7317518 C14.313253,14.7810219 14.746988,14.4525547 15.2128514,14.2883212 C15.6947791,14.1240876 16.1285141,14.0091241 16.6104418,13.9434307 C17.7831325,13.7791971 18.8433735,13.3686131 19.9036145,12.7937956 C21.2048193,12.0383212 22.0883534,14.5018248 20.7871486,15.2572993 C20.4658635,15.4543796 20.1124498,15.6186131 19.7751004,15.7992701 C20.7871486,16.1934307 20.8514056,17.6715328 19.9518072,18.229927 Z M38.2971888,11.7427007 C37.686747,12.0054745 37.0763052,12.2354015 36.4176707,12.2189781 C35.7751004,12.2025547 35.1485944,11.8905109 34.5060241,11.8412409 C33.0763052,11.709854 33.3975904,9.04927007 34.811245,9.18065693 C35.2449799,9.22992701 35.6465863,9.37773723 36.0963855,9.47627737 C36.6104418,9.60766423 37.0281124,9.45985401 37.5100402,9.24635036 C38.8594378,8.70437956 39.6787149,11.2007299 38.2971888,11.7427007 Z M32.1767068,4.28649635 C32.8514056,4.0729927 33.6064257,3.84306569 34.2329317,3.49817518 C34.811245,3.16970803 35.5502008,3.07116788 36.0803213,2.64416058 C37.0763052,1.85583942 38.1686747,3.6459854 37.1726908,4.46715328 C36.626506,4.89416058 35.9839357,5.12408759 35.373494,5.37043796 C34.5381526,5.69890511 33.686747,6.09306569 32.8353414,6.37226277 C31.7269076,6.76642336 31.0361446,4.66423358 32.1767068,4.28649635 Z M33.1566265,70.209854 C32.2248996,70.0127737 31.8554217,68.5018248 32.6586345,67.7956204 C33.5421687,67.0072993 34.4578313,66.3175182 35.4698795,65.7591241 C35.5502008,65.709854 35.5983936,65.6770073 35.6787149,65.6441606 C35.0040161,65.5620438 34.3293173,65.4470803 33.7028112,65.1350365 C33.0923695,64.8065693 32.7871486,63.7226277 33.2851406,63.0492701 C33.5903614,62.6222628 33.9759036,62.3923358 34.37751,62.1952555 C34.313253,61.6368613 34.5060241,61.0784672 35.0522088,60.8649635 C35.1646586,60.8156934 35.2449799,60.7828467 35.3413655,60.7335766 C35.0682731,60.7335766 34.8433735,60.7171533 34.5702811,60.6843066 C33.6706827,60.6021898 33.4457831,59.419708 33.7991968,58.6642336 C33.4297189,58.2372263 33.3012048,57.5145985 33.5903614,56.9233577 C32.8674699,56.6605839 32.5461847,55.5766423 33.0441767,54.8047445 C33.4297189,54.1970803 33.9277108,53.9343066 34.4417671,53.7372263 C34.6506024,53.3923358 34.7630522,52.9653285 34.8594378,52.5218978 C34.4578313,52.5054745 34.0722892,52.439781 33.6706827,52.3248175 C32.8674699,52.0948905 32.3694779,51.0109489 32.9477912,50.1405109 C32.9638554,50.0912409 33.0120482,50.0748175 33.0281124,50.0091241 C32.7389558,49.3193431 32.8514056,48.3339416 33.5582329,48.0547445 C34.0240964,47.9069343 34.4257028,47.6770073 34.8433735,47.4142336 C34.3293173,47.2992701 33.8473896,47.1514599 33.3333333,46.9051095 C32.4497992,46.4945255 32.5140562,45.1970803 33.1566265,44.5894161 C32.9959839,44.3266423 32.8835341,44.0474453 32.8835341,43.7354015 C32.8835341,43.3740876 32.9156627,43.0456204 32.9959839,42.7664234 C32.8032129,42.3558394 32.7871486,41.8467153 33.1566265,41.419708 C33.8313253,40.6313869 34.5863454,39.9908759 35.3092369,39.2846715 C35.5983936,39.0054745 36.4016064,38.0857664 36.497992,37.5766423 C36.2088353,37.4945255 35.9036145,37.4616788 35.5983936,37.4452555 C35.0522088,37.379562 34.4578313,37.330292 33.9437751,37.0182482 C33.7349398,36.9032847 33.5582329,36.7226277 33.4618474,36.5091241 C32.9799197,36.5912409 32.5140562,36.6569343 32.0321285,36.7062044 C31.3092369,36.7226277 30.4096386,35.8029197 30.8915663,34.850365 C31.4056225,33.7992701 32.1927711,33.3229927 32.9959839,32.7974453 C32.8835341,32.5839416 32.8353414,32.3211679 32.8353414,32.0255474 C32.8514056,31.3029197 32.8995984,30.5310219 33.060241,29.8248175 C32.3212851,29.6605839 31.9518072,28.4124088 32.4497992,27.689781 C32.5301205,27.5583942 32.626506,27.459854 32.6907631,27.3448905 C31.8714859,27.1478102 31.5502008,25.8832117 32.0803213,25.1113139 C31.1807229,25.1605839 30.2329317,25.1277372 29.4779116,24.6350365 C28.8674699,24.2244526 28.562249,23.2883212 29.060241,22.5492701 C29.4457831,22.0072993 29.8795181,21.6952555 30.4096386,21.4817518 C30.5863454,21.4160584 30.8433735,21.399635 31.1325301,21.350365 C31.1325301,20.9233577 31.3092369,20.4963504 31.5502008,20.25 C31.3574297,19.8886861 31.3092369,19.4288321 31.3413655,19.0346715 C31.3574297,18.9032847 31.4056225,18.7554745 31.437751,18.6569343 C30.9718876,18.6405109 30.5220884,18.5255474 30.1044177,18.2463504 C29.188755,17.6879562 29.2690763,16.209854 30.1204819,15.7664234 C29.7831325,15.6021898 29.4297189,15.4215328 29.1084337,15.2244526 C27.8072289,14.4689781 28.6907631,12.0054745 29.9919679,12.7609489 C31.0682731,13.3686131 32.1124498,13.7463504 33.2851406,13.9105839 C33.7670683,13.9762774 34.2008032,14.0583942 34.6827309,14.2554745 C35.1646586,14.419708 35.5823293,14.7481752 36.0963855,14.6989051 C37.5100402,14.5839416 37.7991968,17.2116788 36.3694779,17.3759124 C36.0963855,17.3923358 35.8554217,17.4416058 35.5983936,17.5072993 C35.8232932,17.8686131 35.935743,18.3448905 35.7269076,18.8211679 C35.5341365,19.3138686 35.2610442,19.6423358 34.9236948,19.8558394 C35.0200803,20.3321168 34.9076305,20.7919708 34.5060241,21.169708 C34.313253,21.3339416 34.1044177,21.4653285 33.9116466,21.6459854 C33.9437751,21.9251825 33.9437751,22.2043796 33.8313253,22.4835766 C35.0040161,22.5328467 36.1767068,22.7463504 37.3654618,22.7463504 C38.5381526,22.7463504 39.1807229,24.7828467 37.8955823,25.3248175 C37.6706827,25.4069343 37.3975904,25.5383212 37.1726908,25.620438 C37.6546185,26.5894161 37.2690763,27.2135036 36.6586345,27.7062044 C36.9317269,28.3467153 36.7228916,29.3321168 36.1124498,29.6770073 C35.2128514,30.169708 35.1004016,30.7937956 35.0361446,31.7627737 C35.502008,31.9270073 35.8554217,32.5510949 35.8393574,33.1751825 C36.7550201,33.060219 37.3493976,34.1441606 36.9638554,35.0638686 C37.6706827,35.2116788 38.3453815,35.5565693 38.6024096,36.6240876 C39.0843373,38.5456204 38.0562249,40.0072993 36.8514056,41.2226277 C37.0120482,41.6989051 36.9799197,42.3229927 36.7228916,42.75 C37.6546185,43.0456204 37.7028112,44.5237226 37.0923695,45.1313869 C37.3975904,45.1806569 37.686747,45.1970803 37.9919679,45.2135036 C39.0361446,45.3613139 39.1646586,46.9051095 38.4899598,47.6277372 C37.8795181,48.2846715 37.2208835,48.8923358 36.5140562,49.4014599 C36.5301205,49.5492701 36.5140562,49.7463504 36.497992,49.8941606 C36.8032129,49.8941606 37.124498,49.9105839 37.4457831,49.959854 C38.37751,50.1076642 38.746988,51.7171533 37.9437751,52.3740876 C37.5261044,52.7354015 37.0120482,52.850365 36.8192771,53.4251825 C36.7550201,53.6386861 36.7228916,53.8357664 36.6425703,54.0328467 C36.6586345,54.0821168 36.6746988,54.1478102 36.7228916,54.1970803 C36.7228916,54.2135036 36.7389558,54.2627737 36.7389558,54.2791971 C36.9477912,54.2956204 37.1566265,54.2956204 37.3654618,54.2791971 C38.3935743,54.1478102 38.875502,55.4781022 38.3614458,56.4635036 C38.2008032,56.7262774 38.0401606,56.939781 37.8634538,57.120438 C38.1526104,57.3832117 38.3293173,57.8759124 38.3293173,58.3193431 C38.5381526,58.4343066 38.7309237,58.5492701 38.9076305,58.729927 C39.4859438,59.370438 39.4056225,60.2572993 38.875502,60.8649635 C38.5381526,61.2427007 38.1044177,61.5054745 37.7028112,61.7189781 C37.6706827,61.8339416 37.62249,61.9324818 37.5742972,62.0474453 C37.6064257,62.2445255 37.5903614,62.4744526 37.5582329,62.7372263 C37.5582329,62.8850365 37.4939759,63.0328467 37.4618474,63.1478102 C38.6506024,63.3448905 39.7429719,63.7554745 40.0803213,65.0693431 C40.2409639,65.6441606 40.1445783,66.2846715 39.6947791,66.6624088 C38.875502,67.3521898 37.9598394,67.5656934 36.9959839,67.8448905 C36.8192771,67.8941606 36.6907631,67.959854 36.5301205,67.9927007 C36.7389558,68.0583942 36.9477912,68.1076642 37.1566265,68.2062044 C37.5903614,68.4032847 37.7831325,68.7645985 37.7991968,69.1751825 C38.3293173,70.0784672 37.9277108,71.6386861 36.8192771,71.310219 C36.4337349,71.1952555 36.1124498,71.1952555 35.7269076,71.1788321 C35.2610442,71.1788321 34.9879518,70.8010949 34.8433735,70.3576642 C34.37751,70.3576642 33.751004,70.3412409 33.1566265,70.209854 Z M41.0923695,86.7974453 C40.5783133,86.6989051 40.0321285,87.060219 39.5502008,87.2408759 C39.1325301,87.4051095 38.6506024,87.4215328 38.2008032,87.5036496 C37.2851406,87.6514599 36.3052209,87.7007299 35.437751,87.2244526 C34.1365462,86.5182482 35.2289157,84.1368613 36.497992,84.8430657 C37.0923695,85.1879562 38.1365462,84.810219 38.7791165,84.6952555 C39.7751004,84.5310219 40.5461847,83.9562044 41.6064257,84.1861314 C43.0200803,84.4817518 42.5060241,87.1259124 41.0923695,86.7974453 Z" id="Shape" fill="#7EA3BD"></path>
                <path d="M25.1084337,4.74635036 C24.8995984,4.74635036 24.7228916,4.58211679 24.7068273,4.3850365 C24.6907631,4.15510949 24.8514056,3.9580292 25.060241,3.92518248 C25.8634538,3.84306569 27.2931727,3.59671533 28.8353414,3.28467153 C29.060241,3.23540146 29.2690763,3.38321168 29.3012048,3.61313869 C29.3493976,3.84306569 29.2048193,4.05656934 28.9799197,4.08941606 C27.4056225,4.40145985 25.9759036,4.64781022 25.1405622,4.72992701 C25.1405622,4.74635036 25.124498,4.74635036 25.1084337,4.74635036 Z" id="Shape" fill="#010101"></path>
                <path d="M40.626506,13.6149635 C40.4176707,13.6149635 40.2248996,13.4343066 40.2248996,13.2208029 C40.064257,8.49087591 39.4698795,5.73175182 38.5220884,1.85583942 C37.124498,2.3649635 33.5742972,3.16970803 31.4698795,3.61313869 C31.2449799,3.66240876 31.0361446,3.51459854 30.9879518,3.28467153 C30.939759,3.05474453 31.0843373,2.84124088 31.3092369,2.7919708 C34.9718876,2.02007299 38.1044177,1.21532847 38.6024096,0.919708029 C38.7148594,0.854014599 38.8433735,0.837591241 38.9718876,0.886861314 C39.0843373,0.936131387 39.1807229,1.03467153 39.2128514,1.16605839 C40.2409639,5.33759124 40.8835341,8.16240876 41.060241,13.1715328 C41.0441767,13.4178832 40.8674699,13.5985401 40.626506,13.6149635 C40.6425703,13.6149635 40.6425703,13.6149635 40.626506,13.6149635 Z" id="Shape" fill="#010101"></path>
                <path d="M38.811245,1.72445255 C38.7791165,1.72445255 38.7630522,1.72445255 38.7309237,1.7080292 C36.1606426,1.16605839 28.6104418,0.903284672 25.1084337,0.903284672 C24.8835341,0.903284672 24.7068273,0.722627737 24.7068273,0.49270073 C24.7068273,0.262773723 24.8835341,0.0821167883 25.1084337,0.0821167883 C28.6425703,0.0821167883 36.2730924,0.361313869 38.8915663,0.903284672 C39.1164659,0.952554745 39.2449799,1.16605839 39.2128514,1.3959854 C39.1646586,1.59306569 39.0040161,1.72445255 38.811245,1.72445255 Z" id="Shape" fill="#010101"></path>
                <path d="M25.1084337,9.55839416 C24.8835341,9.55839416 24.7068273,9.37773723 24.7068273,9.14781022 C24.7068273,8.91788321 24.8835341,8.73722628 25.1084337,8.73722628 C28.3212851,8.72080292 37.1566265,6.40510949 39.2610442,5.4689781 C39.4698795,5.37043796 39.7108434,5.4689781 39.7911647,5.68248175 C39.8714859,5.8959854 39.7911647,6.14233577 39.5823293,6.22445255 C37.3815261,7.20985401 28.4819277,9.5419708 25.1084337,9.55839416 C25.1084337,9.55839416 25.1084337,9.55839416 25.1084337,9.55839416 Z" id="Shape" fill="#010101"></path>
                <path d="M36.6586345,12.8430657 C34.746988,12.8430657 33.3012048,12.4653285 32.2891566,11.6934307 C31.0361446,10.7408759 30.7309237,9.37773723 30.6024096,8.29379562 C30.5702811,8.06386861 30.7309237,7.86678832 30.9558233,7.83394161 C31.1807229,7.80109489 31.373494,7.96532847 31.4056225,8.19525547 C31.5180723,9.16423358 31.7751004,10.2810219 32.7710843,11.0364964 C34.1686747,12.0875912 36.7389558,12.3010949 40.4016064,11.6277372 C40.626506,11.5948905 40.8353414,11.7427007 40.8674699,11.9562044 C40.8995984,12.1861314 40.7550201,12.399635 40.5461847,12.4324818 C39.0843373,12.7116788 37.7831325,12.8430657 36.6586345,12.8430657 Z" id="Shape" fill="#010101"></path>
                <path d="M29.4457831,8.96715328 C29.3654618,8.96715328 29.2851406,8.93430657 29.2048193,8.8850365 C29.1084337,8.81934307 29.060241,8.70437956 29.0441767,8.58941606 L28.3694779,2.54562044 C28.3534137,2.33211679 28.4819277,2.1350365 28.6907631,2.08576642 L31.1325301,1.60948905 C31.2449799,1.59306569 31.3574297,1.60948905 31.437751,1.67518248 C31.5341365,1.74087591 31.5823293,1.83941606 31.5983936,1.95437956 L32.3212851,7.93248175 C32.3534137,8.1459854 32.2088353,8.34306569 32,8.39233577 L29.4939759,8.93430657 C29.5100402,8.95072993 29.4779116,8.96715328 29.4457831,8.96715328 Z M29.2208835,2.84124088 L29.7991968,8.04744526 L31.502008,7.68613139 L30.875502,2.52919708 L29.2208835,2.84124088 Z" id="Shape" fill="#010101"></path>
                <path d="M32.8674699,84.4489051 C32.6586345,84.4489051 32.497992,84.3010949 32.4658635,84.0875912 L24.7228916,22.6149635 C24.6907631,22.3850365 24.8514056,22.1879562 25.0763052,22.1551095 C25.3012048,22.1222628 25.4939759,22.2864964 25.5261044,22.5164234 L33.2208835,83.6113139 L43.1646586,82.9379562 L40.2409639,13.2208029 C40.2248996,12.9908759 40.4016064,12.7937956 40.626506,12.7937956 C40.8514056,12.7937956 41.0441767,12.9580292 41.0441767,13.1879562 L43.9839357,83.2992701 C44,83.5291971 43.8232932,83.709854 43.6144578,83.7262774 L32.8995984,84.4489051 C32.8835341,84.4489051 32.8674699,84.4489051 32.8674699,84.4489051 Z" id="Shape" fill="#010101"></path>
                <path d="M25.0441767,22.959854 C24.8192771,22.959854 24.6425703,22.7791971 24.6425703,22.5492701 L24.6425703,4.71350365 C23.8072289,4.59854015 22.5702811,4.36861314 21.1726908,4.10583942 C20.9477912,4.0729927 20.8032129,3.84306569 20.8514056,3.62956204 C20.8835341,3.39963504 21.1084337,3.25182482 21.3172691,3.30109489 C22.9236948,3.59671533 24.3212851,3.85948905 25.0923695,3.94160584 C25.3012048,3.9580292 25.4457831,4.13868613 25.4457831,4.35218978 L25.4457831,22.5492701 C25.4457831,22.7627737 25.253012,22.959854 25.0441767,22.959854 Z" id="Shape" fill="#010101"></path>
                <path d="M9.54216867,13.6149635 C9.52610442,13.6149635 9.52610442,13.6149635 9.54216867,13.6149635 C9.30120482,13.5985401 9.12449799,13.4178832 9.14056225,13.1879562 C9.31726908,8.17883212 9.95983936,5.37043796 10.9879518,1.18248175 C11.0200803,1.05109489 11.1004016,0.952554745 11.2289157,0.903284672 C11.3413655,0.854014599 11.4859438,0.870437956 11.5983936,0.936131387 C12.0481928,1.21532847 14.9236948,1.95437956 18.8915663,2.80839416 C19.1164659,2.85766423 19.2449799,3.07116788 19.1967871,3.30109489 C19.1485944,3.5310219 18.939759,3.66240876 18.7148594,3.61313869 C16.562249,3.15328467 13.060241,2.34854015 11.6626506,1.85583942 C10.7148594,5.73175182 10.1204819,8.47445255 9.95983936,13.2208029 C9.92771084,13.4343066 9.75100402,13.6149635 9.54216867,13.6149635 Z" id="Shape" fill="#010101"></path>
                <path d="M11.3574297,1.72445255 C11.1646586,1.72445255 11.0040161,1.59306569 10.9558233,1.3959854 C10.9076305,1.16605839 11.0522088,0.952554745 11.2771084,0.903284672 C13.8955823,0.361313869 21.5261044,0.0821167883 25.060241,0.0821167883 C25.2851406,0.0821167883 25.4618474,0.262773723 25.4618474,0.49270073 C25.4618474,0.722627737 25.2851406,0.903284672 25.060241,0.903284672 C21.5582329,0.903284672 14.0080321,1.16605839 11.437751,1.7080292 C11.4056225,1.72445255 11.373494,1.72445255 11.3574297,1.72445255 Z" id="Shape" fill="#010101"></path>
                <path d="M25.060241,9.5419708 C25.060241,9.5419708 25.060241,9.5419708 25.060241,9.5419708 C21.7028112,9.52554745 12.8032129,7.19343066 10.5863454,6.2080292 C10.37751,6.10948905 10.2811245,5.87956204 10.37751,5.66605839 C10.4738956,5.45255474 10.6987952,5.3540146 10.9076305,5.45255474 C13.0120482,6.38868613 21.8473896,8.70437956 25.060241,8.72080292 C25.2851406,8.72080292 25.4618474,8.90145985 25.4618474,9.13138686 C25.4618474,9.36131387 25.2851406,9.5419708 25.060241,9.5419708 Z" id="Shape" fill="#010101"></path>
                <path d="M13.5100402,12.8430657 C12.3855422,12.8430657 11.0843373,12.7116788 9.62248996,12.4489051 C9.39759036,12.4160584 9.25301205,12.2025547 9.30120482,11.9726277 C9.34939759,11.7427007 9.54216867,11.5948905 9.76706827,11.6441606 C13.4457831,12.3010949 16.0160643,12.1040146 17.3975904,11.0529197 C18.3935743,10.2974453 18.6506024,9.19708029 18.7630522,8.21167883 C18.7951807,7.98175182 18.9879518,7.81751825 19.2128514,7.85036496 C19.437751,7.88321168 19.5983936,8.08029197 19.5662651,8.31021898 C19.437751,9.39416058 19.1325301,10.7572993 17.8795181,11.709854 C16.8674699,12.4653285 15.4216867,12.8430657 13.5100402,12.8430657 Z" id="Shape" fill="#010101"></path>
                <path d="M25.060241,9.5419708 C24.8353414,9.5419708 24.6586345,9.36131387 24.6586345,9.13138686 C24.6586345,8.90145985 24.8353414,8.72080292 25.060241,8.72080292 C28.2730924,8.70437956 37.1084337,6.38868613 39.2128514,5.45255474 C39.4216867,5.37043796 39.6626506,5.45255474 39.7429719,5.66605839 C39.8393574,5.87956204 39.7429719,6.12591241 39.5341365,6.2080292 C37.3172691,7.19343066 28.4176707,9.52554745 25.060241,9.5419708 C25.060241,9.5419708 25.060241,9.5419708 25.060241,9.5419708 Z" id="Shape" fill="#010101"></path>
                <path d="M36.5783133,12.8430657 C34.6666667,12.8430657 33.2208835,12.4653285 32.2088353,11.6934307 C30.9558233,10.7408759 30.6506024,9.37773723 30.5220884,8.29379562 C30.4899598,8.06386861 30.6506024,7.86678832 30.875502,7.83394161 C31.1004016,7.80109489 31.2931727,7.96532847 31.3253012,8.19525547 C31.437751,9.16423358 31.6947791,10.2810219 32.6907631,11.0364964 C34.0883534,12.0875912 36.6586345,12.3010949 40.3212851,11.6277372 C40.5461847,11.5948905 40.7550201,11.7427007 40.7871486,11.9562044 C40.8192771,12.1861314 40.6746988,12.399635 40.4658635,12.4324818 C39.0040161,12.7116788 37.7028112,12.8430657 36.5783133,12.8430657 Z" id="Shape" fill="#010101"></path>
                <path d="M25.060241,22.7956204 C24.8353414,22.7956204 24.6586345,22.6149635 24.6586345,22.3850365 C24.6586345,22.1551095 24.8353414,21.9744526 25.060241,21.9744526 C26.2811245,21.9744526 27.2128514,21.8430657 27.2128514,20.2007299 L27.2128514,8.85218978 C27.2128514,8.62226277 27.3895582,8.44160584 27.6144578,8.44160584 C27.8393574,8.44160584 28.0160643,8.62226277 28.0160643,8.85218978 L28.0160643,20.2007299 C28.0160643,22.7956204 26.0240964,22.7956204 25.060241,22.7956204 Z" id="Shape" fill="#010101"></path>
                <path d="M29.3975904,8.96715328 C29.3172691,8.96715328 29.2369478,8.93430657 29.1566265,8.8850365 C29.060241,8.81934307 29.0120482,8.72080292 28.9959839,8.60583942 L28.3052209,2.5620438 C28.2730924,2.34854015 28.4176707,2.15145985 28.626506,2.10218978 L31.0843373,1.62591241 C31.1967871,1.60948905 31.3092369,1.62591241 31.3895582,1.69160584 C31.4698795,1.75729927 31.5341365,1.85583942 31.5502008,1.97080292 L32.2730924,7.94890511 C32.3052209,8.16240876 32.1606426,8.35948905 31.9518072,8.40875912 L29.4457831,8.95072993 C29.4457831,8.95072993 29.4136546,8.96715328 29.3975904,8.96715328 Z M29.1566265,2.84124088 L29.751004,8.04744526 L31.4538153,7.68613139 L30.8273092,2.52919708 L29.1566265,2.84124088 Z" id="Shape" fill="#010101"></path>
                <path d="M20.7228916,8.96715328 C20.6907631,8.96715328 20.6746988,8.96715328 20.6425703,8.95072993 L18.1365462,8.40875912 C17.9277108,8.35948905 17.7991968,8.16240876 17.815261,7.94890511 L18.5381526,1.97080292 C18.5542169,1.85583942 18.6184739,1.75729927 18.6987952,1.69160584 C18.7951807,1.62591241 18.9076305,1.59306569 19.0040161,1.62591241 L21.4457831,2.10218978 C21.6546185,2.1350365 21.7991968,2.33211679 21.7670683,2.5620438 L21.0923695,8.60583942 C21.0763052,8.72080292 21.0120482,8.81934307 20.9317269,8.90145985 C20.8835341,8.93430657 20.8032129,8.96715328 20.7228916,8.96715328 Z M18.6666667,7.68613139 L20.3694779,8.04744526 L20.9477912,2.84124088 L19.2931727,2.52919708 L18.6666667,7.68613139 Z" id="Shape" fill="#010101"></path>
                <path d="M17.1726908,84.4489051 C17.1726908,84.4489051 17.1726908,84.4489051 17.1726908,84.4489051 L6.44176707,84.120438 C6.32931727,84.120438 6.23293173,84.0711679 6.15261044,83.9890511 C6.07228916,83.9069343 6.04016064,83.8083942 6.04016064,83.6934307 L9.12449799,13.1879562 C9.14056225,12.9580292 9.31726908,12.7773723 9.54216867,12.7937956 C9.76706827,12.810219 9.9437751,12.9908759 9.92771084,13.2208029 L6.85943775,83.2992701 L16.8032129,83.6113139 L24.6425703,22.5164234 C24.6746988,22.2864964 24.8674699,22.1386861 25.0923695,22.1551095 C25.3172691,22.1879562 25.4618474,22.3850365 25.4457831,22.6149635 L17.5742972,84.0875912 C17.5421687,84.2846715 17.3815261,84.4489051 17.1726908,84.4489051 Z" id="Shape" fill="#010101"></path>
                <path d="M15.4538153,89.770073 C13.5261044,89.770073 10.6987952,89.5237226 8.99598394,89.3759124 C8.54618474,89.3430657 8.19277108,89.310219 7.98393574,89.2937956 C6.76305221,89.2116788 5.55823293,88.9324818 5.46184739,86.6660584 L5.44578313,86.3540146 C5.36546185,84.6788321 5.34939759,84.2189781 6.04016064,83.3813869 C6.18473896,83.2007299 6.44176707,83.1843066 6.60240964,83.3321168 C6.77911647,83.479927 6.79518072,83.7427007 6.65060241,83.9069343 C6.1686747,84.4817518 6.1686747,84.6624088 6.24899598,86.3047445 L6.26506024,86.6332117 C6.34538153,88.2755474 6.98795181,88.4069343 8.04819277,88.4726277 C8.25702811,88.4890511 8.61044177,88.5218978 9.06024096,88.5547445 C11.1004016,88.7354015 15.3413655,89.0967153 16.7871486,88.8667883 C17.3975904,88.7682482 17.815261,88.5054745 17.7188755,86.2554745 C17.6385542,84.4489051 17.2690763,84.4324818 17.1405622,84.4324818 C16.9156627,84.4160584 16.7550201,84.2189781 16.7550201,84.0054745 C16.7710843,83.7755474 16.9638554,83.5948905 17.1726908,83.6113139 C18.2650602,83.6770073 18.4578313,84.9087591 18.5220884,86.2226277 C18.5863454,87.8156934 18.5220884,89.3923358 16.9156627,89.6879562 C16.562249,89.7536496 16.0481928,89.770073 15.4538153,89.770073 Z" id="Shape" fill="#010101"></path>
                <path d="M34.0722892,89.7208029 C33.7991968,89.7208029 33.5582329,89.7043796 33.3654618,89.6879562 C33.3654618,89.6879562 33.3493976,89.6879562 33.3493976,89.6879562 C31.8714859,89.4744526 31.5983936,88.209854 31.6465863,86.2718978 C31.6465863,85.0894161 31.8072289,83.709854 32.8995984,83.6277372 C33.124498,83.6113139 33.3172691,83.7755474 33.3333333,84.0054745 C33.3493976,84.2354015 33.188755,84.4324818 32.9638554,84.4489051 C32.626506,84.4817518 32.4497992,85.0894161 32.4497992,86.2883212 C32.4016064,88.5218978 32.8674699,88.7846715 33.4618474,88.8832117 C34.8433735,89.0145985 38.7309237,88.5547445 40.8192771,88.3083942 C41.4457831,88.2262774 41.9277108,88.1770073 42.2008032,88.1441606 C43.2771084,88.0456204 43.8875502,87.8978102 43.9036145,86.2390511 L43.9036145,85.8941606 C43.9196787,84.2518248 43.9036145,84.0875912 43.4056225,83.5127737 C43.2610442,83.3485401 43.2610442,83.0857664 43.437751,82.9379562 C43.5983936,82.790146 43.8554217,82.790146 44,82.9708029 C44.7389558,83.7919708 44.7228916,84.2354015 44.7068273,85.9105839 L44.7068273,86.2554745 C44.6907631,88.5547445 43.4859438,88.8667883 42.2650602,88.9817518 C42.0080321,88.9981752 41.5261044,89.0638686 40.8995984,89.1459854 C38.939759,89.3430657 35.8232932,89.7208029 34.0722892,89.7208029 Z" id="Shape" fill="#010101"></path>
            </g>
            <g id="Group" transform="translate(0.000000, 37.281022)">
                <g id="Shape">
                    <path d="M4.94779116,12.0875912 C4.6746988,12.0875912 4.46586345,11.8576642 4.46586345,11.5784672 L4.46586345,7.93248175 L1.01204819,7.93248175 C0.738955823,7.93248175 0.530120482,7.70255474 0.530120482,7.42335766 L0.530120482,5.33759124 C0.530120482,5.05839416 0.75502008,4.82846715 1.01204819,4.82846715 L4.4497992,4.82846715 L4.4497992,1.18248175 C4.4497992,0.903284672 4.6746988,0.673357664 4.93172691,0.673357664 L5.91164659,0.673357664 C6.04016064,0.673357664 6.1686747,0.739051095 6.26506024,0.821167883 L11.1967871,6.02737226 C11.3895582,6.22445255 11.3895582,6.56934307 11.1967871,6.75 L6.26506024,11.9562044 C6.18473896,12.0711679 6.0562249,12.1040146 5.91164659,12.1040146 L4.94779116,12.1040146 L4.94779116,12.0875912 Z" fill="#FBE9AB"></path>
                    <path d="M5.92771084,1.18248175 L10.8594378,6.38868613 L5.92771084,11.5948905 L4.94779116,11.5948905 L4.94779116,7.43978102 L1.01204819,7.43978102 L1.01204819,5.3540146 L4.94779116,5.3540146 L4.94779116,1.19890511 L5.92771084,1.19890511 L5.92771084,1.18248175 Z M5.92771084,0.131386861 L4.94779116,0.131386861 C4.40160643,0.131386861 3.96787149,0.607664234 3.96787149,1.18248175 L3.96787149,4.30291971 L1.01204819,4.30291971 C0.465863454,4.30291971 0.0321285141,4.77919708 0.0321285141,5.3540146 L0.0321285141,7.43978102 C0.0321285141,8.01459854 0.465863454,8.49087591 1.01204819,8.49087591 L3.96787149,8.49087591 L3.96787149,11.6113139 C3.96787149,12.1861314 4.40160643,12.6624088 4.94779116,12.6624088 L5.92771084,12.6624088 C6.18473896,12.6624088 6.42570281,12.5474453 6.6184739,12.3667883 L11.5502008,7.16058394 C11.9196787,6.75 11.9196787,6.09306569 11.5502008,5.68248175 L6.6184739,0.476277372 C6.42570281,0.229927007 6.18473896,0.131386861 5.92771084,0.131386861 Z" fill="#CE2028"></path>
                </g>
                <g transform="translate(68.112450, 0.000000)" id="Shape">
                    <path d="M5.9437751,12.0875912 C5.81526104,12.0875912 5.68674699,12.0218978 5.59036145,11.939781 L0.658634538,6.73357664 C0.465863454,6.53649635 0.465863454,6.19160584 0.658634538,6.01094891 L5.59036145,0.804744526 C5.67068273,0.689781022 5.79919679,0.656934307 5.9437751,0.656934307 L6.92369478,0.656934307 C7.19678715,0.656934307 7.40562249,0.886861314 7.40562249,1.16605839 L7.40562249,4.8120438 L10.8433735,4.8120438 C11.1164659,4.8120438 11.3253012,5.0419708 11.3253012,5.32116788 L11.3253012,7.39051095 C11.3253012,7.66970803 11.1004016,7.89963504 10.8433735,7.89963504 L7.40562249,7.89963504 L7.40562249,11.5456204 C7.40562249,11.8248175 7.18072289,12.0547445 6.92369478,12.0547445 L5.9437751,12.0547445 L5.9437751,12.0875912 Z" fill="#FBE9AB"></path>
                    <path d="M5.9437751,1.18248175 L6.92369478,1.18248175 L6.92369478,5.33759124 L10.8594378,5.33759124 L10.8594378,7.42335766 L6.92369478,7.42335766 L6.92369478,11.5784672 L5.9437751,11.5784672 L1.01204819,6.37226277 L5.9437751,1.18248175 Z M5.9437751,0.131386861 C5.68674699,0.131386861 5.44578313,0.246350365 5.25301205,0.427007299 L0.321285141,5.63321168 C-0.0481927711,6.04379562 -0.0481927711,6.70072993 0.321285141,7.11131387 L5.25301205,12.3175182 C5.44578313,12.5145985 5.68674699,12.6131387 5.9437751,12.6131387 L6.92369478,12.6131387 C7.46987952,12.6131387 7.90361446,12.1368613 7.90361446,11.5620438 L7.90361446,8.44160584 L10.8594378,8.44160584 C11.4056225,8.44160584 11.8393574,7.96532847 11.8393574,7.39051095 L11.8393574,5.30474453 C11.8393574,4.72992701 11.4056225,4.25364964 10.8594378,4.25364964 L7.90361446,4.25364964 L7.90361446,1.13321168 C7.90361446,0.558394161 7.46987952,0.0821167883 6.92369478,0.0821167883 L5.9437751,0.0821167883 L5.9437751,0.131386861 Z" fill="#CE2028"></path>
                </g>
            </g>
        </g>
    </g>
</svg>