<?xml version="1.0" encoding="iso-8859-1"?>
<!-- Generator: Adobe Illustrator 21.1.0, SVG Export Plug-In . SVG Version: 6.00 Build 0)  -->
<svg version="1.1" id="platie_x5F_005" xmlns="http://www.w3.org/2000/svg" xmlns:xlink="http://www.w3.org/1999/xlink" x="0px"
	 y="0px" viewBox="0 0 90 90.5" style="enable-background:new 0 0 90 90.5;" xml:space="preserve">
<rect y="0.5" style="fill:none;" width="90" height="90"/>
<path style="fill:#E4AEC6;" d="M59,41.5c-16,0-16.314,18.045-24,30c-9,14-19,12-19,12c3-5,6-14,9-28s7-18,7-22c0-7-2-10-2-21
	c0-1-2-9-2-9s3-2,7-2c0,0,1,14,10,14s10-14,10-14c4,0,7,2,7,2s-2,8-2,9c0,11-2,14-2,21C58,37.216,59,41.5,59,41.5z"/>
<g>
	<path style="fill:#F6D3D7;" d="M49,16.5c7,0,10-12,10-12c0.961,0,1.863,0.117,2.681,0.293C61.872,4.013,62,3.5,62,3.5s-3-2-7-2
		c0,0-1,14-10,14c-0.874,0-1.67-0.135-2.4-0.373C44.071,17.07,48,16.5,49,16.5z"/>
	<path style="fill:#F6D3D7;" d="M29,58.5c3-14,7-18,7-22c0-7-2-10-2-21c0-1-2-9-2-9s1.399-0.931,3.559-1.523
		C35.108,2.981,35,1.5,35,1.5c-4,0-7,2-7,2s2,8,2,9c0,11,2,14,2,21c0,4-4,8-7,22s-6,23-9,28c0,0,2.388,0.472,5.877-0.67
		C24.251,77.518,26.626,69.58,29,58.5z"/>
</g>
<path style="fill:#F6D3D7;" d="M23,81.5c2.175-1.776,6-1,12-10c7.739-11.608,7.997-30.325,23.143-30.969C36,38.5,34,78.5,23,81.5z"
	/>
<g>
	<path style="fill:#42210B;" d="M55,1.5c4,0,7,2,7,2s-2,8-2,9c0,11-2,14-2,21c0,3.716,1,8,1,8c-16,0-16.314,18.045-24,30
		c-7,10.889-14.605,12.099-17.639,12.099C16.494,83.599,16,83.5,16,83.5c3-5,6-14,9-28s7-18,7-22c0-7-2-10-2-21c0-1-2-9-2-9s3-2,7-2
		c0,0,1,14,10,14S55,1.5,55,1.5 M55,0.5c-0.524,0-0.959,0.405-0.997,0.928C53.993,1.559,52.961,14.5,45,14.5
		c-7.977,0-8.993-12.941-9.003-13.071C35.96,0.905,35.525,0.5,35,0.5c-4.254,0-7.422,2.079-7.555,2.168
		c-0.352,0.234-0.518,0.665-0.415,1.075c0.957,3.826,1.955,8.149,1.97,8.761c0,6.2,0.628,9.898,1.182,13.16
		C30.621,28.247,31,30.478,31,33.5c0,1.514-0.692,3.124-1.74,5.561c-1.48,3.441-3.507,8.155-5.237,16.229
		c-2.852,13.311-5.84,22.629-8.88,27.695c-0.167,0.279-0.189,0.622-0.057,0.919s0.4,0.512,0.718,0.576
		c0.06,0.012,0.618,0.118,1.557,0.118c3.129,0,11.194-1.224,18.48-12.558c2.357-3.667,4.024-7.863,5.636-11.92
		C45.233,50.666,48.477,42.5,59,42.5c0.305,0,0.594-0.139,0.783-0.378c0.19-0.239,0.26-0.552,0.191-0.849
		C59.964,41.231,59,37.053,59,33.5c0-3.022,0.379-5.253,0.818-7.837C60.372,22.401,61,18.703,61,12.5
		c0.015-0.608,1.014-4.931,1.97-8.757c0.102-0.41-0.064-0.84-0.415-1.075C62.422,2.579,59.254,0.5,55,0.5L55,0.5z"/>
</g>
<g>
	<path style="fill:#C7B299;" d="M45,16C35.642,16,34.543,2.126,34.501,1.536c-0.013-0.179,0.072-0.351,0.221-0.451
		C34.806,1.029,34.902,1,35,1c0.076,0,0.152,0.018,0.224,0.053C35.263,1.072,39.201,3,45,3c5.581,0,9.369-1.701,9.783-1.895
		c0.067-0.032,0.14-0.047,0.212-0.047c0.101,0,0.2,0.03,0.285,0.089c0.146,0.102,0.228,0.274,0.213,0.452
		C55.445,2.187,54.197,16,45,16z"/>
	<path style="fill:#42210B;" d="M35,1.5c0,0,4,2,10,2c5.727,0,9.649-1.78,9.995-1.943C54.917,2.491,53.677,15.5,45,15.5
		C36,15.5,35,1.5,35,1.5 M35,0.5c-0.195,0-0.388,0.057-0.556,0.169c-0.299,0.2-0.467,0.544-0.442,0.903
		C34.046,2.181,35.182,16.5,45,16.5c9.479,0,10.865-13.338,10.992-14.859c0.03-0.356-0.133-0.7-0.426-0.904
		c-0.17-0.119-0.37-0.179-0.571-0.179c-0.144,0-0.289,0.031-0.425,0.095C54.41,0.728,50.569,2.5,45,2.5
		c-5.698,0-9.515-1.875-9.553-1.894C35.306,0.535,35.153,0.5,35,0.5L35,0.5z"/>
</g>
<g>
	<path style="fill:#FCEAAE;" d="M31,36c-0.276,0-0.5-0.224-0.5-0.5v-4c0-0.276,0.224-0.5,0.5-0.5h28c0.276,0,0.5,0.224,0.5,0.5v4
		c0,0.276-0.224,0.5-0.5,0.5H31z"/>
	<path style="fill:#42210B;" d="M59,31.5v4H31v-4H59 M59,30.5H31c-0.552,0-1,0.448-1,1v4c0,0.552,0.448,1,1,1h28
		c0.552,0,1-0.448,1-1v-4C60,30.948,59.552,30.5,59,30.5L59,30.5z"/>
</g>
<path style="fill:none;stroke:#42210B;stroke-linecap:round;stroke-linejoin:round;stroke-miterlimit:10;" d="M33.5,64
	c0,0-3,14-10,18"/>
<g>
	<path style="fill:#FCEAAE;" d="M43,38c-1.379,0-2.5-1.122-2.5-2.5v-4c0-1.378,1.121-2.5,2.5-2.5h4c1.379,0,2.5,1.122,2.5,2.5v4
		c0,1.378-1.121,2.5-2.5,2.5H43z"/>
	<path style="fill:#42210B;" d="M47,29.5c1.105,0,2,0.895,2,2v4c0,1.105-0.895,2-2,2h-4c-1.105,0-2-0.895-2-2v-4
		c0-1.105,0.895-2,2-2H47 M47,28.5h-4c-1.654,0-3,1.346-3,3v4c0,1.654,1.346,3,3,3h4c1.654,0,3-1.346,3-3v-4
		C50,29.846,48.654,28.5,47,28.5L47,28.5z"/>
</g>
<g>
	<path style="fill:#C7B299;" d="M33.916,86.822c-5.84,0-13.73-0.5-18.153-2.881c-0.218-0.117-0.316-0.376-0.233-0.608
		C15.602,83.13,15.793,83,16.001,83c0.031,0,0.063,0.003,0.096,0.009c0.005,0.001,0.467,0.089,1.264,0.089
		c2.884,0,10.332-1.156,17.219-11.869c2.279-3.544,3.919-7.671,5.504-11.663C43.876,50.019,47.459,41,59,41
		c10.476,0,15.188,13.157,15.188,22.5c0,9.904-3.698,15.906-11.99,19.459C57.229,85.089,44.542,86.822,33.916,86.822
		C33.916,86.822,33.916,86.822,33.916,86.822z"/>
	<path style="fill:#42210B;" d="M59,41.5c10.086,0,14.687,13,14.687,22c0,11-4.687,16-11.687,19
		c-4.699,2.014-16.982,3.822-28.085,3.822c-7.325,0-14.137-0.787-17.915-2.822c0,0,0.494,0.099,1.361,0.099
		C20.395,83.599,28,82.389,35,71.5C42.686,59.545,43,41.5,59,41.5 M59,40.5c-11.88,0-15.694,9.599-19.382,18.882
		c-1.577,3.969-3.207,8.073-5.46,11.577c-6.753,10.505-13.997,11.64-16.798,11.64c-0.738,0-1.165-0.079-1.169-0.08
		c-0.063-0.012-0.126-0.018-0.187-0.018c-0.417,0-0.8,0.261-0.944,0.665c-0.165,0.465,0.032,0.98,0.466,1.214
		c4.515,2.431,12.492,2.941,18.39,2.941c10.863,0,23.372-1.714,28.478-3.903c8.502-3.644,12.294-9.787,12.294-19.919
		C74.687,53.95,69.82,40.5,59,40.5L59,40.5z"/>
</g>
<path style="fill:none;stroke:#42210B;stroke-linecap:round;stroke-linejoin:round;stroke-miterlimit:10;" d="M22.041,82.455
	C26.5,78,27.5,72,27.5,72"/>
<path style="fill:none;stroke:#42210B;stroke-linecap:round;stroke-linejoin:round;stroke-miterlimit:10;" d="M58.869,40.892
	C55.5,40,51.131,40.246,48.5,42"/>
<g>
	<defs>
		<path id="SVGID_1_" d="M35,1.5c0,0,4,2,10,2c5.727,0,9.649-1.78,9.995-1.943C54.917,2.491,53.677,15.5,45,15.5
			C36,15.5,35,1.5,35,1.5z M59,41.5c-16,0-16.314,18.045-24,30c-9,14-19,12-19,12c9.505,5.118,38.201,2.343,46-1
			c7-3,11.687-8,11.687-19C73.687,54.5,69.086,41.5,59,41.5z"/>
	</defs>
	<clipPath id="SVGID_2_">
		<use xlink:href="#SVGID_1_"  style="overflow:visible;"/>
	</clipPath>
	
		<line style="clip-path:url(#SVGID_2_);fill:none;stroke:#CE171F;stroke-linecap:round;stroke-linejoin:round;stroke-miterlimit:10;" x1="18" y1="88.5" x2="66" y2="40.5"/>
	
		<line style="clip-path:url(#SVGID_2_);fill:none;stroke:#CE171F;stroke-linecap:round;stroke-linejoin:round;stroke-miterlimit:10;" x1="22" y1="88.5" x2="68" y2="42.5"/>
	
		<line style="clip-path:url(#SVGID_2_);fill:none;stroke:#CE171F;stroke-linecap:round;stroke-linejoin:round;stroke-miterlimit:10;" x1="26" y1="88.5" x2="70" y2="44.5"/>
	
		<line style="clip-path:url(#SVGID_2_);fill:none;stroke:#CE171F;stroke-linecap:round;stroke-linejoin:round;stroke-miterlimit:10;" x1="30" y1="88.5" x2="72" y2="46.5"/>
	
		<line style="clip-path:url(#SVGID_2_);fill:none;stroke:#CE171F;stroke-linecap:round;stroke-linejoin:round;stroke-miterlimit:10;" x1="34" y1="88.5" x2="73" y2="49.5"/>
	
		<line style="clip-path:url(#SVGID_2_);fill:none;stroke:#CE171F;stroke-linecap:round;stroke-linejoin:round;stroke-miterlimit:10;" x1="38" y1="88.5" x2="74" y2="52.5"/>
	
		<line style="clip-path:url(#SVGID_2_);fill:none;stroke:#CE171F;stroke-linecap:round;stroke-linejoin:round;stroke-miterlimit:10;" x1="42" y1="88.5" x2="75" y2="55.5"/>
	
		<line style="clip-path:url(#SVGID_2_);fill:none;stroke:#CE171F;stroke-linecap:round;stroke-linejoin:round;stroke-miterlimit:10;" x1="46" y1="88.5" x2="75" y2="59.5"/>
	
		<line style="clip-path:url(#SVGID_2_);fill:none;stroke:#CE171F;stroke-linecap:round;stroke-linejoin:round;stroke-miterlimit:10;" x1="50" y1="88.5" x2="75" y2="63.5"/>
	
		<line style="clip-path:url(#SVGID_2_);fill:none;stroke:#CE171F;stroke-linecap:round;stroke-linejoin:round;stroke-miterlimit:10;" x1="54" y1="88.5" x2="75" y2="67.5"/>
	
		<line style="clip-path:url(#SVGID_2_);fill:none;stroke:#CE171F;stroke-linecap:round;stroke-linejoin:round;stroke-miterlimit:10;" x1="42" y1="17.5" x2="55" y2="4.5"/>
	
		<line style="clip-path:url(#SVGID_2_);fill:none;stroke:#CE171F;stroke-linecap:round;stroke-linejoin:round;stroke-miterlimit:10;" x1="36" y1="62.5" x2="59" y2="39.5"/>
	
		<line style="clip-path:url(#SVGID_2_);fill:none;stroke:#CE171F;stroke-linecap:round;stroke-linejoin:round;stroke-miterlimit:10;" x1="36" y1="66.5" x2="63.5" y2="39"/>
	
		<line style="clip-path:url(#SVGID_2_);fill:none;stroke:#CE171F;stroke-linecap:round;stroke-linejoin:round;stroke-miterlimit:10;" x1="35" y1="8.5" x2="43" y2="0.5"/>
	
		<line style="clip-path:url(#SVGID_2_);fill:none;stroke:#CE171F;stroke-linecap:round;stroke-linejoin:round;stroke-miterlimit:10;" x1="35" y1="12.5" x2="47" y2="0.5"/>
	
		<line style="clip-path:url(#SVGID_2_);fill:none;stroke:#CE171F;stroke-linecap:round;stroke-linejoin:round;stroke-miterlimit:10;" x1="36" y1="15.5" x2="51" y2="0.5"/>
	
		<line style="clip-path:url(#SVGID_2_);fill:none;stroke:#CE171F;stroke-linecap:round;stroke-linejoin:round;stroke-miterlimit:10;" x1="38" y1="17.5" x2="55" y2="0.5"/>
</g>
<g>
	<path style="fill:#42210B;" d="M35,1.5c0,0,4,2,10,2c5.727,0,9.649-1.78,9.995-1.943C54.917,2.491,53.677,15.5,45,15.5
		C36,15.5,35,1.5,35,1.5 M35,0.5c-0.195,0-0.388,0.057-0.556,0.169c-0.299,0.2-0.467,0.544-0.442,0.903
		C34.046,2.181,35.182,16.5,45,16.5c9.479,0,10.865-13.338,10.992-14.859c0.03-0.356-0.133-0.7-0.426-0.904
		c-0.17-0.119-0.37-0.179-0.571-0.179c-0.144,0-0.289,0.031-0.425,0.095C54.41,0.728,50.569,2.5,45,2.5
		c-5.698,0-9.515-1.875-9.553-1.894C35.306,0.535,35.153,0.5,35,0.5L35,0.5z"/>
</g>
<g>
	<path style="fill:#42210B;" d="M59,41.5c10.086,0,14.687,13,14.687,22c0,11-4.687,16-11.687,19
		c-4.699,2.014-16.982,3.822-28.085,3.822c-7.325,0-14.137-0.787-17.915-2.822c0,0,0.494,0.099,1.361,0.099
		C20.395,83.599,28,82.389,35,71.5C42.686,59.545,43,41.5,59,41.5 M59,40.5c-11.88,0-15.694,9.599-19.382,18.882
		c-1.577,3.969-3.207,8.073-5.46,11.577c-6.753,10.505-13.997,11.64-16.798,11.64c-0.738,0-1.165-0.079-1.169-0.08
		c-0.063-0.012-0.126-0.018-0.187-0.018c-0.417,0-0.8,0.261-0.944,0.665c-0.165,0.465,0.032,0.98,0.466,1.214
		c4.515,2.431,12.492,2.941,18.39,2.941c10.863,0,23.372-1.714,28.478-3.903c8.502-3.644,12.294-9.787,12.294-19.919
		C74.687,53.95,69.82,40.5,59,40.5L59,40.5z"/>
</g>
<path style="fill:none;stroke:#42210B;stroke-linecap:round;stroke-linejoin:round;stroke-miterlimit:10;" d="M25,81.5
	c18-6,23.959-19.192,33-21c5-1,6,2,6,2"/>
</svg>
