<?xml version="1.0" encoding="iso-8859-1"?>
<!-- Generator: Adobe Illustrator 21.1.0, SVG Export Plug-In . SVG Version: 6.00 Build 0)  -->
<svg version="1.1" xmlns="http://www.w3.org/2000/svg" xmlns:xlink="http://www.w3.org/1999/xlink" x="0px" y="0px"
	 viewBox="0 0 90 90" style="enable-background:new 0 0 90 90;" xml:space="preserve">
<g id="icon_x5F_002">
	<rect style="display:none;fill:#F2F2F2;" width="90" height="90"/>
	<g>
		<path style="fill:none;stroke:#A67C52;stroke-width:2;stroke-linecap:round;stroke-linejoin:round;stroke-miterlimit:10;" d="
			M6.454,66.235C13.947,79.808,28.4,89,45,89c24.301,0,44-19.699,44-44c0-6.496-1.408-12.662-3.934-18.212"/>
		<path style="fill:none;stroke:#A67C52;stroke-width:2;stroke-linecap:round;stroke-linejoin:round;stroke-miterlimit:10;" d="
			M80.651,19.207C72.656,8.175,59.666,1,45,1C20.699,1,1,20.699,1,45c0,4.768,0.758,9.359,2.161,13.658"/>
		
			<polyline style="fill:none;stroke:#A67C52;stroke-width:2;stroke-linecap:round;stroke-linejoin:round;stroke-miterlimit:10;" points="
			82,7 82,21 68,21 		"/>
		
			<polyline style="fill:none;stroke:#A67C52;stroke-width:2;stroke-linecap:round;stroke-linejoin:round;stroke-miterlimit:10;" points="
			5,80 5,66 19,66 		"/>
		<path style="fill:none;stroke:#A67C52;stroke-linecap:round;stroke-linejoin:round;stroke-miterlimit:10;" d="M23.999,2.383
			C16.003,6.331,9.278,12.463,4.604,20"/>
		<path style="fill:none;stroke:#A67C52;stroke-linecap:round;stroke-linejoin:round;stroke-miterlimit:10;" d="M13.135,20
			C7.726,26.885,4.5,35.566,4.5,45c0,1.693,0.104,3.361,0.306,5"/>
		<path style="fill:none;stroke:#A67C52;stroke-linecap:round;stroke-linejoin:round;stroke-miterlimit:10;" d="M18.999,13.947
			c-0.783,0.656-1.54,1.341-2.27,2.053"/>
		<path style="fill:none;stroke:#A67C52;stroke-linecap:round;stroke-linejoin:round;stroke-miterlimit:10;" d="M66,10.363
			c-1.596-0.97-3.264-1.832-4.995-2.577"/>
		<path style="fill:none;stroke:#A67C52;stroke-linecap:round;stroke-linejoin:round;stroke-miterlimit:10;" d="M84,34.043
			c-0.79-2.817-1.877-5.51-3.225-8.043"/>
		<path style="fill:none;stroke:#A67C52;stroke-linecap:round;stroke-linejoin:round;stroke-miterlimit:10;" d="M85.391,42
			c-0.049-0.671-0.115-1.338-0.196-2"/>
		<path style="fill:none;stroke:#A67C52;stroke-linecap:round;stroke-linejoin:round;stroke-miterlimit:10;" d="M82.632,59.999
			C84.482,55.36,85.5,50.299,85.5,45"/>
		<path style="fill:none;stroke:#A67C52;stroke-linecap:round;stroke-linejoin:round;stroke-miterlimit:10;" d="M53,84.71
			c0.673-0.135,1.34-0.286,2-0.454"/>
		<path style="fill:none;stroke:#A67C52;stroke-linecap:round;stroke-linejoin:round;stroke-miterlimit:10;" d="M35,84.256
			c3.199,0.812,6.549,1.244,10,1.244c1.693,0,3.362-0.104,5-0.306"/>
		<path style="fill:none;stroke:#A67C52;stroke-linecap:round;stroke-linejoin:round;stroke-miterlimit:10;" d="M4.806,50
			c0.21,1.702,0.525,3.371,0.938,5"/>
	</g>
	<g>
		<path style="fill:#BC9380;stroke:#42210B;stroke-width:2;stroke-linecap:round;stroke-linejoin:round;stroke-miterlimit:10;" d="
			M33,6c0,0,4-1,12-1c2.474,0,4.662,0.096,6.503,0.228C55.168,5.491,58,8.537,58,12.211V25H33V6z"/>
		<path style="fill:#F5CF94;" d="M77,44c-1-3-4-17-5-20s-3-5-14-9l-13,9c0,0,0-3,0-12c-8,0-12-6-12-6l-1,9c-11,4-13,6-14,9
			s-4,17-5,20s-2,7-2,14v23c0,1.105,0.895,2,2,2h6.066c1.079,0,1.963-0.855,1.999-1.933L22,59l4-15c0,0,1,6,1,13
			c0,6.102-1.52,15.805-1.91,21.869C25.016,80.024,25.929,81,27.086,81H45h17.914c1.157,0,2.07-0.976,1.996-2.131
			C64.52,72.805,63,63.102,63,57c0-7,1-13,1-13l4,15l0.936,22.067C68.971,82.145,69.856,83,70.934,83H77c1.105,0,2-0.895,2-2V58
			C79,51,78,47,77,44z"/>
		<g>
			<path style="fill:#FCEAAE;" d="M58,15l-0.184,0.128c0.234,1.214,0.344,2.436,0.119,3.646L61,20
				c5.225,1.9,8.405,1.347,10.426,2.666C70.156,20.333,67.293,18.379,58,15z"/>
			<path style="fill:#FCEAAE;" d="M14,61c0-7,1-11,2-14s5-16,6-19s4-5,15-9L36,9c-2-1.5-3-3-3-3l-1,9c-11,4-13,6-14,9s-4,17-5,20
				s-2,7-2,14v23c0,1.105,0.895,2,2,2h2L14,61z"/>
			<path style="fill:#FCEAAE;" d="M72,56c0,0-7-18-5-30c-2,4-3.708,10.586-4,14l5,19l0.936,22.067
				C68.971,82.145,69.856,83,70.934,83H71.9L72,56z"/>
			<path style="fill:#FCEAAE;" d="M30,60c0-7-1-13-1-13l-2.038,7.641C26.986,55.41,27,56.197,27,57c0,6.102-1.52,15.805-1.91,21.869
				C25.016,80.024,25.929,81,27.086,81h3.065C30.615,74.586,30,65.831,30,60z"/>
		</g>
		<path style="fill:none;stroke:#42210B;stroke-width:2;stroke-linecap:round;stroke-linejoin:round;stroke-miterlimit:10;" d="
			M77,44c-1-3-4-17-5-20s-3-5-14-9l-13,9c0,0,0-3,0-12c-8,0-12-6-12-6l-1,9c-11,4-13,6-14,9s-4,17-5,20s-2,7-2,14v23
			c0,1.105,0.895,2,2,2h6.066c1.079,0,1.963-0.855,1.999-1.933L22,59l4-15c0,0,1,6,1,13c0,6.102-1.52,15.805-1.91,21.869
			C25.016,80.024,25.929,81,27.086,81H45h17.914c1.157,0,2.07-0.976,1.996-2.131C64.52,72.805,63,63.102,63,57c0-7,1-13,1-13l4,15
			l0.936,22.067C68.971,82.145,69.856,83,70.934,83H77c1.105,0,2-0.895,2-2V58C79,51,78,47,77,44z"/>
		
			<line style="fill:none;stroke:#42210B;stroke-width:2;stroke-linecap:round;stroke-linejoin:round;stroke-miterlimit:10;" x1="26" y1="44" x2="27" y2="39"/>
		<path style="fill:none;stroke:#42210B;stroke-linecap:round;stroke-linejoin:round;stroke-miterlimit:10;" d="M20,21
			c3.5,3.5,6.5,12.5,6.5,19.5"/>
		
			<polygon style="fill:#FCEAAE;stroke:#42210B;stroke-width:2;stroke-linecap:round;stroke-linejoin:round;stroke-miterlimit:10;" points="
			26,71 31.5,63.5 33.5,65.5 26.5,75.5 		"/>
		<path style="fill:none;stroke:#42210B;stroke-linecap:round;stroke-linejoin:round;stroke-miterlimit:10;" d="M26.5,27.5
			c4-3,11-5,11-5"/>
		<path style="fill:none;stroke:#42210B;stroke-linecap:round;stroke-linejoin:round;stroke-miterlimit:10;" d="M29.5,36.5
			c4-3,12-5,12-5"/>
		<path style="fill:none;stroke:#42210B;stroke-linecap:round;stroke-linejoin:round;stroke-miterlimit:10;" d="M29.5,42.5
			c4-2,12-5,12-5"/>
		<path style="fill:none;stroke:#42210B;stroke-linecap:round;stroke-linejoin:round;stroke-miterlimit:10;" d="M21.5,57.5
			c0,0-1-1-4-2"/>
		<path style="fill:none;stroke:#42210B;stroke-linecap:round;stroke-linejoin:round;stroke-miterlimit:10;" d="M19.5,53.5
			c2,1,2,4,2,4"/>
		
			<line style="fill:none;stroke:#42210B;stroke-linecap:round;stroke-linejoin:round;stroke-miterlimit:10;" x1="20.5" y1="80.5" x2="14.5" y2="80.5"/>
		<path style="fill:none;stroke:#42210B;stroke-width:2;stroke-linecap:round;stroke-linejoin:round;stroke-miterlimit:10;" d="
			M32,15c0,0,6,7,13,9"/>
		
			<line style="fill:none;stroke:#42210B;stroke-width:2;stroke-linecap:round;stroke-linejoin:round;stroke-miterlimit:10;" x1="64" y1="44" x2="63" y2="39"/>
		<path style="fill:none;stroke:#42210B;stroke-linecap:round;stroke-linejoin:round;stroke-miterlimit:10;" d="M70,21
			c-3.5,3.5-6.5,12.5-6.5,19.5"/>
		
			<polygon style="fill:#F5CF94;stroke:#42210B;stroke-width:2;stroke-linecap:round;stroke-linejoin:round;stroke-miterlimit:10;" points="
			64,71 58.5,63.5 56.5,65.5 63.5,75.5 		"/>
		<path style="fill:none;stroke:#42210B;stroke-linecap:round;stroke-linejoin:round;stroke-miterlimit:10;" d="M63.5,27.5
			c-4-3-11-5-11-5"/>
		<path style="fill:none;stroke:#42210B;stroke-linecap:round;stroke-linejoin:round;stroke-miterlimit:10;" d="M60.5,36.5
			c-4-3-12-5-12-5"/>
		<path style="fill:none;stroke:#42210B;stroke-linecap:round;stroke-linejoin:round;stroke-miterlimit:10;" d="M60.5,42.5
			c-4-2-12-5-12-5"/>
		<path style="fill:none;stroke:#42210B;stroke-linecap:round;stroke-linejoin:round;stroke-miterlimit:10;" d="M68.5,58.5
			c0,0-0.162-2,3-2"/>
		<path style="fill:none;stroke:#42210B;stroke-linecap:round;stroke-linejoin:round;stroke-miterlimit:10;" d="M69.5,54.5
			c-1,1-1,3-1,3"/>
		
			<line style="fill:none;stroke:#42210B;stroke-linecap:round;stroke-linejoin:round;stroke-miterlimit:10;" x1="72.5" y1="80.5" x2="78.5" y2="80.5"/>
		<path style="fill:none;stroke:#42210B;stroke-width:2;stroke-linecap:round;stroke-linejoin:round;stroke-miterlimit:10;" d="
			M58,15c0,0-6,7-13,9"/>
		<path style="fill:#FCEAAE;stroke:#42210B;stroke-width:2;stroke-linecap:round;stroke-linejoin:round;stroke-miterlimit:10;" d="
			M46,24c0,0,6-10,11-14c0,0,1,0,1,4s-1,9-2,11C56,25,52,21,46,24z"/>
		
			<line style="fill:none;stroke:#CE171F;stroke-width:3;stroke-linejoin:round;stroke-miterlimit:10;stroke-dasharray:3,1;" x1="45.5" y1="23" x2="45.5" y2="81"/>
	</g>
</g>
<g id="Layer_1">
</g>
</svg>
