<?xml version="1.0" encoding="iso-8859-1"?>
<!-- Generator: Adobe Illustrator 21.1.0, SVG Export Plug-In . SVG Version: 6.00 Build 0)  -->
<svg version="1.1" id="platie_x5F_004" xmlns="http://www.w3.org/2000/svg" xmlns:xlink="http://www.w3.org/1999/xlink" x="0px"
	 y="0px" viewBox="0 0 90 90" style="enable-background:new 0 0 90 90;" xml:space="preserve">
<rect style="fill:none;" width="90" height="90"/>
<path style="fill:#E4AEC6;" d="M25,55c3-14,7-18,7-22c0-7-2-10-2-21c0-1-2-9-2-9s3-2,7-2c0,0,3,2,10,2s10-2,10-2c4,0,7,2,7,2
	s-2,8-2,9c0,11-2,14-2,21c0,4,4,8,7,22s6,23,9,28c0,0-1,2-3,2c-3,0-1,2-5,2c-3,0-2,1-6,1c-1.965,0-2,1-4,1s-3-1-5-1s-1,1-6,1
	s-4-1-6-1s-3,1-5,1s-2.035-1-4-1c-4,0-3-1-6-1c-4,0-2-2-5-2c-2,0-3-2-3-2C19,78,22,69,25,55z"/>
<path style="fill:#AA8396;" d="M65,55c-3-14-7-18-7-22c0-7,2-10,2-21c0-1,2-9,2-9s-5,2-5,6c0,12.042-2,15-2,22c0,4,1,6,4,20
	c2.836,13.233,3.886,18.432,5.681,28.251c0.271,0.628,0.486,1.286,0.608,1.985c0.349,1.999,1.188,3.778,1.62,5.716
	C69.673,86.659,68.264,85,71,85c2,0,3-2,3-2C71,78,68,69,65,55z"/>
<path style="fill:none;stroke:#42210B;stroke-linecap:round;stroke-linejoin:round;stroke-miterlimit:10;" d="M39.5,87.5
	c1-8,1-23,1-23"/>
<path style="fill:none;stroke:#42210B;stroke-linecap:round;stroke-linejoin:round;stroke-miterlimit:10;" d="M58.5,87.5
	c-2-9-3-25-3-25"/>
<path style="fill:none;stroke:#42210B;stroke-linecap:round;stroke-linejoin:round;stroke-miterlimit:10;" d="M27.5,68.5
	c0,0-2,13-5,18"/>
<path style="fill:none;stroke:#42210B;stroke-linecap:round;stroke-linejoin:round;stroke-miterlimit:10;" d="M63.5,72.5
	c0,0,2,10,4,14"/>
<g>
	<path style="fill:#42210B;" d="M55,1c4,0,7,2,7,2s-2,8-2,9c0,11-2,14-2,21c0,4,4,8,7,22s6,23,9,28c0,0-1,2-3,2c-3,0-1,2-5,2
		c-3,0-2,1-6,1c-1.965,0-2,1-4,1s-3-1-5-1s-2,1-6,1s-4-1-6-1s-3,1-5,1s-2.035-1-4-1c-4,0-3-1-6-1c-4,0-2-2-5-2c-2,0-3-2-3-2
		c3-5,6-14,9-28s7-18,7-22c0-7-2-10-2-21c0-1-2-9-2-9s3-2,7-2c0,0,0.005,0.036,0.008,0.059c0.356,0.166,2.866,1.749,8.055,1.925
		l3.999-0.005C52.467,2.766,55,1,55,1 M55,0c-0.203,0-0.401,0.062-0.568,0.177c-0.052,0.035-2.45,1.608-7.41,1.803l-3.961,0.004
		c-2.91-0.099-5.392-0.666-7.348-1.685C35.531,0.114,35.277,0,35,0c-4.254,0-7.422,2.079-7.555,2.168
		c-0.352,0.234-0.518,0.665-0.415,1.075c0.957,3.826,1.955,8.149,1.97,8.761c0,6.2,0.628,9.898,1.182,13.16
		C30.621,27.747,31,29.978,31,33c0,1.514-0.692,3.124-1.74,5.561c-1.48,3.441-3.507,8.155-5.237,16.229
		c-2.852,13.311-5.84,22.629-8.88,27.695c-0.176,0.293-0.19,0.656-0.037,0.962C15.158,83.551,16.412,86,19,86
		c0.885,0,0.989,0.141,1.239,0.483C20.824,87.283,21.552,88,24,88c1.197,0,1.603,0.165,2.116,0.373C26.84,88.667,27.661,89,30,89
		c0.744,0,1.076,0.165,1.536,0.393C32.082,89.663,32.761,90,34,90c1.162,0,2.041-0.293,2.816-0.551C37.539,89.208,38.162,89,39,89
		c0.657,0,1.012,0.125,1.549,0.315C41.412,89.62,42.485,90,45,90s3.588-0.38,4.451-0.685C49.988,89.125,50.343,89,51,89
		c0.838,0,1.461,0.208,2.184,0.449C53.959,89.707,54.838,90,56,90c1.239,0,1.918-0.337,2.464-0.607C58.924,89.165,59.256,89,60,89
		c2.339,0,3.16-0.333,3.884-0.627C64.397,88.165,64.803,88,66,88c2.448,0,3.176-0.717,3.761-1.517C70.011,86.141,70.115,86,71,86
		c2.588,0,3.842-2.449,3.894-2.553c0.153-0.306,0.139-0.669-0.037-0.962c-3.04-5.066-6.027-14.384-8.88-27.695
		c-1.73-8.075-3.757-12.788-5.237-16.229C59.692,36.124,59,34.514,59,33c0-3.022,0.379-5.253,0.818-7.837
		C60.372,21.901,61,18.203,61,12c0.015-0.608,1.014-4.931,1.97-8.757c0.102-0.41-0.064-0.84-0.415-1.075C62.422,2.079,59.254,0,55,0
		L55,0z"/>
</g>
<polygon style="fill:#F6D3D7;" points="43,3 47,3 47,24 45,27 43,23 "/>
<g>
	<rect x="44" y="43" style="fill:#CE171F;" width="2" height="2"/>
	<rect x="44" y="40" style="fill:#CE171F;" width="2" height="2"/>
	<rect x="44" y="37" style="fill:#CE171F;" width="2" height="2"/>
	<rect x="44" y="34" style="fill:#CE171F;" width="2" height="2"/>
	<rect x="42" y="22" style="fill:#CE171F;" width="2" height="2"/>
	<rect x="42" y="19" style="fill:#CE171F;" width="2" height="2"/>
	<rect x="42" y="16" style="fill:#CE171F;" width="2" height="2"/>
	<rect x="42" y="13" style="fill:#CE171F;" width="2" height="2"/>
	<rect x="42" y="10" style="fill:#CE171F;" width="2" height="2"/>
	<rect x="46" y="23" transform="matrix(-1 -1.224647e-16 1.224647e-16 -1 94 48)" style="fill:#CE171F;" width="2" height="2"/>
	<rect x="46" y="20" transform="matrix(-1 -1.224647e-16 1.224647e-16 -1 94 42)" style="fill:#CE171F;" width="2" height="2"/>
	<rect x="46" y="17" transform="matrix(-1 -1.224647e-16 1.224647e-16 -1 94 36)" style="fill:#CE171F;" width="2" height="2"/>
	<rect x="46" y="14" transform="matrix(-1 -1.224647e-16 1.224647e-16 -1 94 30)" style="fill:#CE171F;" width="2" height="2"/>
	<rect x="46" y="11" transform="matrix(-1 -1.224647e-16 1.224647e-16 -1 94 24)" style="fill:#CE171F;" width="2" height="2"/>
	<rect x="46" y="8" transform="matrix(-1 -1.224647e-16 1.224647e-16 -1 94 18)" style="fill:#CE171F;" width="2" height="2"/>
	<rect x="42" y="7" style="fill:#CE171F;" width="2" height="2"/>
	<rect x="42" y="4" style="fill:#CE171F;" width="2" height="2"/>
	<rect x="46" y="5" style="fill:#CE171F;" width="2" height="2"/>
	<rect x="46" y="2" style="fill:#CE171F;" width="2" height="2"/>
</g>
<path style="fill:none;stroke:#CE171F;stroke-linecap:round;stroke-linejoin:round;stroke-miterlimit:10;" d="M46.86,32.5H43.14
	c-0.325,0-0.564-0.306-0.485-0.621l0.75-3c0.056-0.223,0.256-0.379,0.485-0.379h2.219c0.229,0,0.429,0.156,0.485,0.379l0.75,3
	C47.424,32.194,47.185,32.5,46.86,32.5z"/>
<path style="fill:#CE171F;" d="M46.184,26H46c0-0.552-0.448-1-1-1s-1,0.448-1,1h-0.184C43.366,26,43,26.366,43,26.816v1.367
	C43,28.634,43.366,29,43.816,29H44c0,0.552,0.448,1,1,1s1-0.448,1-1h0.184C46.634,29,47,28.634,47,28.183v-1.367
	C47,26.366,46.634,26,46.184,26z"/>
</svg>
