<?xml version="1.0" encoding="iso-8859-1"?>
<!-- Generator: Adobe Illustrator 21.1.0, SVG Export Plug-In . SVG Version: 6.00 Build 0)  -->
<svg version="1.1" xmlns="http://www.w3.org/2000/svg" xmlns:xlink="http://www.w3.org/1999/xlink" x="0px" y="0px"
	 viewBox="0 0 90 90" style="enable-background:new 0 0 90 90;" xml:space="preserve">
<g id="icon_x5F_010">
	<rect style="display:none;fill:#F2F2F2;" width="90" height="90"/>
	<g>
		<path style="fill:none;stroke:#A67C52;stroke-width:2;stroke-linecap:round;stroke-linejoin:round;stroke-miterlimit:10;" d="
			M6.454,66.235C13.947,79.808,28.4,89,45,89c24.301,0,44-19.699,44-44c0-6.496-1.408-12.662-3.934-18.212"/>
		<path style="fill:none;stroke:#A67C52;stroke-width:2;stroke-linecap:round;stroke-linejoin:round;stroke-miterlimit:10;" d="
			M80.651,19.207C72.656,8.175,59.666,1,45,1C20.699,1,1,20.699,1,45c0,4.768,0.758,9.359,2.161,13.658"/>
		
			<polyline style="fill:none;stroke:#A67C52;stroke-width:2;stroke-linecap:round;stroke-linejoin:round;stroke-miterlimit:10;" points="
			82,7 82,21 68,21 		"/>
		
			<polyline style="fill:none;stroke:#A67C52;stroke-width:2;stroke-linecap:round;stroke-linejoin:round;stroke-miterlimit:10;" points="
			5,80 5,66 19,66 		"/>
		<path style="fill:none;stroke:#A67C52;stroke-linecap:round;stroke-linejoin:round;stroke-miterlimit:10;" d="M5.603,52
			c0.42,2.412,1.054,4.751,1.881,6.997"/>
		<path style="fill:none;stroke:#A67C52;stroke-linecap:round;stroke-linejoin:round;stroke-miterlimit:10;" d="M5.012,45.999
			C5.028,46.671,5.061,47.338,5.109,48"/>
		<path style="fill:none;stroke:#A67C52;stroke-linecap:round;stroke-linejoin:round;stroke-miterlimit:10;" d="M12,22.234
			C7.933,28.206,5.422,35.322,5.049,43"/>
		<path style="fill:none;stroke:#A67C52;stroke-linecap:round;stroke-linejoin:round;stroke-miterlimit:10;" d="M26,9.495
			C21.58,11.928,17.664,15.161,14.446,19"/>
		<path style="fill:none;stroke:#A67C52;stroke-linecap:round;stroke-linejoin:round;stroke-miterlimit:10;" d="M32,6.805
			c-0.675,0.239-1.342,0.495-2.001,0.768"/>
		<path style="fill:none;stroke:#A67C52;stroke-linecap:round;stroke-linejoin:round;stroke-miterlimit:10;" d="M55.002,5.621
			C51.954,4.888,48.772,4.5,45.5,4.5c-3.631,0-7.151,0.478-10.5,1.374"/>
		<path style="fill:none;stroke:#A67C52;stroke-linecap:round;stroke-linejoin:round;stroke-miterlimit:10;" d="M65.891,10
			c-1.873-1.094-3.843-2.041-5.892-2.827"/>
		<path style="fill:none;stroke:#A67C52;stroke-linecap:round;stroke-linejoin:round;stroke-miterlimit:10;" d="M70,12.748
			c-0.652-0.496-1.32-0.973-2.002-1.43"/>
		<path style="fill:none;stroke:#A67C52;stroke-linecap:round;stroke-linejoin:round;stroke-miterlimit:10;" d="M83.869,32.001
			c-0.266-0.787-0.556-1.562-0.869-2.326"/>
		<path style="fill:none;stroke:#A67C52;stroke-linecap:round;stroke-linejoin:round;stroke-miterlimit:10;" d="M86,45
			c0-2.739-0.272-5.414-0.79-8"/>
		<path style="fill:none;stroke:#A67C52;stroke-linecap:round;stroke-linejoin:round;stroke-miterlimit:10;" d="M85.559,51
			c0.098-0.662,0.18-1.328,0.246-2"/>
		<path style="fill:none;stroke:#A67C52;stroke-linecap:round;stroke-linejoin:round;stroke-miterlimit:10;" d="M51,85.13
			c2.765-0.375,5.441-1.03,8-1.934"/>
		<path style="fill:none;stroke:#A67C52;stroke-linecap:round;stroke-linejoin:round;stroke-miterlimit:10;" d="M47,85.473
			c0.671-0.024,1.338-0.065,2-0.122"/>
		<path style="fill:none;stroke:#A67C52;stroke-linecap:round;stroke-linejoin:round;stroke-miterlimit:10;" d="M37,84.607
			c2.268,0.484,4.607,0.779,6.999,0.866"/>
		<path style="fill:none;stroke:#A67C52;stroke-linecap:round;stroke-linejoin:round;stroke-miterlimit:10;" d="M7.377,16
			C6.538,17.087,5.744,18.212,5,19.372"/>
		<path style="fill:none;stroke:#A67C52;stroke-linecap:round;stroke-linejoin:round;stroke-miterlimit:10;" d="M16,7.377
			c-1.075,0.83-2.114,1.705-3.113,2.623"/>
		<path style="fill:none;stroke:#A67C52;stroke-linecap:round;stroke-linejoin:round;stroke-miterlimit:10;" d="M85.999,69
			c0.574-0.978,1.114-1.979,1.618-3.001"/>
		<path style="fill:none;stroke:#A67C52;stroke-linecap:round;stroke-linejoin:round;stroke-miterlimit:10;" d="M5,19.372
			C4.866,19.58,4.734,19.79,4.604,20"/>
	</g>
	<g>
		<path style="fill:#998675;stroke:#42210B;stroke-width:2;stroke-linecap:round;stroke-linejoin:round;stroke-miterlimit:10;" d="
			M34,11c0,0,3-1,11-1s12,1,12,1l1,5l2,28c0,0,3,22,3,34c-17,0-18,3-35,3c0-8,2-37,2-37l2-28L34,11z"/>
		<g>
			
				<line style="fill:none;stroke:#CE171F;stroke-linecap:round;stroke-linejoin:round;stroke-miterlimit:10;" x1="33" y1="80" x2="57.5" y2="55.5"/>
			
				<line style="fill:none;stroke:#CE171F;stroke-linecap:round;stroke-linejoin:round;stroke-miterlimit:10;" x1="33" y1="76" x2="57.5" y2="51.5"/>
			
				<line style="fill:none;stroke:#CE171F;stroke-linecap:round;stroke-linejoin:round;stroke-miterlimit:10;" x1="33" y1="72" x2="57.5" y2="47.5"/>
			
				<line style="fill:none;stroke:#CE171F;stroke-linecap:round;stroke-linejoin:round;stroke-miterlimit:10;" x1="33" y1="68" x2="57.5" y2="43.5"/>
			
				<line style="fill:none;stroke:#CE171F;stroke-linecap:round;stroke-linejoin:round;stroke-miterlimit:10;" x1="33" y1="64" x2="57.5" y2="39.5"/>
			
				<line style="fill:none;stroke:#CE171F;stroke-linecap:round;stroke-linejoin:round;stroke-miterlimit:10;" x1="33" y1="60" x2="57.5" y2="35.5"/>
			
				<line style="fill:none;stroke:#CE171F;stroke-linecap:round;stroke-linejoin:round;stroke-miterlimit:10;" x1="33" y1="56" x2="57.5" y2="31.5"/>
			
				<line style="fill:none;stroke:#CE171F;stroke-linecap:round;stroke-linejoin:round;stroke-miterlimit:10;" x1="33" y1="52" x2="57.5" y2="27.5"/>
			
				<line style="fill:none;stroke:#CE171F;stroke-linecap:round;stroke-linejoin:round;stroke-miterlimit:10;" x1="33" y1="48" x2="57.5" y2="23.5"/>
			
				<line style="fill:none;stroke:#CE171F;stroke-linecap:round;stroke-linejoin:round;stroke-miterlimit:10;" x1="33" y1="44" x2="57.5" y2="19.5"/>
			
				<line style="fill:none;stroke:#CE171F;stroke-linecap:round;stroke-linejoin:round;stroke-miterlimit:10;" x1="33" y1="40" x2="57.5" y2="15.5"/>
			
				<line style="fill:none;stroke:#CE171F;stroke-linecap:round;stroke-linejoin:round;stroke-miterlimit:10;" x1="33" y1="36" x2="56" y2="13"/>
			
				<line style="fill:none;stroke:#CE171F;stroke-linecap:round;stroke-linejoin:round;stroke-miterlimit:10;" x1="45" y1="20" x2="53" y2="12"/>
			
				<line style="fill:none;stroke:#CE171F;stroke-linecap:round;stroke-linejoin:round;stroke-miterlimit:10;" x1="42" y1="19" x2="49.5" y2="11.5"/>
			
				<line style="fill:none;stroke:#CE171F;stroke-linecap:round;stroke-linejoin:round;stroke-miterlimit:10;" x1="39.5" y1="17.5" x2="45.5" y2="11.5"/>
			
				<line style="fill:none;stroke:#CE171F;stroke-linecap:round;stroke-linejoin:round;stroke-miterlimit:10;" x1="37.5" y1="15.5" x2="41.5" y2="11.5"/>
			
				<line style="fill:none;stroke:#CE171F;stroke-linecap:round;stroke-linejoin:round;stroke-miterlimit:10;" x1="35.5" y1="13.5" x2="37.5" y2="11.5"/>
			
				<line style="fill:none;stroke:#CE171F;stroke-linecap:round;stroke-linejoin:round;stroke-miterlimit:10;" x1="37.5" y1="79.5" x2="55" y2="62"/>
			
				<line style="fill:none;stroke:#CE171F;stroke-linecap:round;stroke-linejoin:round;stroke-miterlimit:10;" x1="41.5" y1="79.5" x2="54.5" y2="66.5"/>
			
				<line style="fill:none;stroke:#CE171F;stroke-linecap:round;stroke-linejoin:round;stroke-miterlimit:10;" x1="45.5" y1="79.5" x2="55.5" y2="69.5"/>
			
				<line style="fill:none;stroke:#CE171F;stroke-linecap:round;stroke-linejoin:round;stroke-miterlimit:10;" x1="50.5" y1="78.5" x2="56.5" y2="72.5"/>
		</g>
		<path style="fill:none;stroke:#42210B;stroke-width:2;stroke-linecap:round;stroke-linejoin:round;stroke-miterlimit:10;" d="
			M34,11c0,0,3-1,11-1s12,1,12,1l1,5l2,28c0,0,3,22,3,34c-17,0-18,3-35,3c0-8,2-37,2-37l2-28L34,11z"/>
		<path style="fill:#67B6B4;stroke:#42210B;stroke-width:2;stroke-linecap:round;stroke-linejoin:round;stroke-miterlimit:10;" d="
			M64,81c-13,0-15-36.7-15-57c1-3,1-6.039,1-8c8,0,7-5,7-5l1,4c11,4,13,6,14,9s4,17,5,20s2,7,2,14v24c0,0.552-0.448,1-1,1h-8
			c-1.079,0-1.029-0.855-1.064-1.933L68,59l-4-15c0,0-1,6-1,13c0,6.882,1.933,18.344,1.998,24C64.998,81,65,81,64,81z"/>
		<path style="fill:#67B6B4;stroke:#42210B;stroke-width:2;stroke-linecap:round;stroke-linejoin:round;stroke-miterlimit:10;" d="
			M45,24v-6c-8,0-11-7-11-7l-2,4c-11,4-13,6-14,9s-4,17-5,20s-2,7-2,14v24c0,0.552,0.448,1,1,1h8c1.079,0,1.029-0.855,1.064-1.933
			L22,59l4-15c0,0,1,6,1,13c0,6.882-1.933,18.344-1.998,24c0,0,1.998,2,7.998,2C33,52,45,24,45,24z"/>
		<g>
			<path style="fill:#79D3CE;" d="M14,64c0-6.907,0.985-10.793,1.949-13.684c0.514-1.543,1.491-5.693,2.525-10.087
				c0.978-4.157,1.989-8.456,2.475-9.913c0.803-2.41,2.169-4.295,13.393-8.376l0.375-0.136l1.342-2.685
				c1.211,1.796,3.621,4.469,7.619,5.475c0.144-0.36,0.254-0.63,0.322-0.794v-4.833c-5.419-0.373-8.512-3.727-9.941-5.847
				l-1.342,2.685l-0.375,0.136c-11.224,4.081-12.59,5.966-13.393,8.376c-0.486,1.457-1.497,5.755-2.475,9.913
				c-1.034,4.394-2.011,8.544-2.525,10.087C12.985,47.207,12,51.093,12,58v24h2V64z"/>
			<path style="fill:#79D3CE;" d="M28.907,76.58C29.444,71.751,30,66.759,30,63c0-16-2.958-18.751-3-19l0.686,5.773
				C27.861,51.862,28,54.352,28,57c0,3.759-0.556,8.751-1.093,13.58c-0.422,3.791-0.822,7.384-0.895,9.931
				c0.382,0.244,1.147,0.638,2.371,0.96C28.535,79.928,28.718,78.277,28.907,76.58z"/>
			<path style="fill:#79D3CE;" d="M59,17l9,4l-1,2C67,23,61,21,59,17z"/>
		</g>
		<g>
			<path style="fill:none;stroke:#42210B;stroke-linecap:round;stroke-linejoin:round;stroke-miterlimit:10;" d="M20,21
				c3.5,3.5,6.5,12.5,6.5,19.5"/>
			<path style="fill:none;stroke:#42210B;stroke-linecap:round;stroke-linejoin:round;stroke-miterlimit:10;" d="M21.5,58.5
				c0,0-1-1-4-2"/>
			<path style="fill:none;stroke:#42210B;stroke-linecap:round;stroke-linejoin:round;stroke-miterlimit:10;" d="M19.5,53.5
				c2,1,2.5,2.5,2.5,2.5"/>
			<path style="fill:none;stroke:#42210B;stroke-linecap:round;stroke-linejoin:round;stroke-miterlimit:10;" d="M70,21
				c-3.5,3.5-6.5,12.5-6.5,19.5"/>
			<path style="fill:none;stroke:#42210B;stroke-linecap:round;stroke-linejoin:round;stroke-miterlimit:10;" d="M68.5,58.5
				c0,0,1-3,3-4"/>
			
				<line style="fill:none;stroke:#42210B;stroke-width:2;stroke-linecap:round;stroke-linejoin:round;stroke-miterlimit:10;" x1="26" y1="44" x2="27" y2="39"/>
			<path style="fill:none;stroke:#42210B;stroke-width:2;stroke-linecap:round;stroke-linejoin:round;stroke-miterlimit:10;" d="
				M32,15c0,0,6,7,13,9"/>
			
				<line style="fill:none;stroke:#42210B;stroke-width:2;stroke-linecap:round;stroke-linejoin:round;stroke-miterlimit:10;" x1="64" y1="44" x2="63" y2="39"/>
			<path style="fill:none;stroke:#42210B;stroke-width:2;stroke-linecap:round;stroke-linejoin:round;stroke-miterlimit:10;" d="
				M58,15c0,0-1,6-8,8"/>
		</g>
		<path style="fill:#998675;stroke:#42210B;stroke-width:2;stroke-linecap:round;stroke-linejoin:round;stroke-miterlimit:10;" d="
			M49,24c0,32,4,57,15,57c5,0,8-5,8-5s-8.667-5.868-16-22C51,43,49,24,49,24z"/>
		<path style="fill:none;stroke:#42210B;stroke-linecap:round;stroke-linejoin:round;stroke-miterlimit:10;" d="M30.5,80.5
			c0-20,5-43,5-43"/>
		<g>
			
				<line style="fill:none;stroke:#42210B;stroke-linecap:round;stroke-linejoin:round;stroke-miterlimit:10;" x1="13.5" y1="79" x2="13.5" y2="81"/>
			
				<line style="fill:none;stroke:#42210B;stroke-linecap:round;stroke-linejoin:round;stroke-miterlimit:10;" x1="15.5" y1="79" x2="15.5" y2="81"/>
			
				<line style="fill:none;stroke:#42210B;stroke-linecap:round;stroke-linejoin:round;stroke-miterlimit:10;" x1="17.5" y1="79" x2="17.5" y2="81"/>
			
				<line style="fill:none;stroke:#42210B;stroke-linecap:round;stroke-linejoin:round;stroke-miterlimit:10;" x1="19.5" y1="79" x2="19.5" y2="81"/>
		</g>
		<g>
			
				<line style="fill:none;stroke:#42210B;stroke-linecap:round;stroke-linejoin:round;stroke-miterlimit:10;" x1="70.5" y1="79" x2="70.5" y2="81"/>
			
				<line style="fill:none;stroke:#42210B;stroke-linecap:round;stroke-linejoin:round;stroke-miterlimit:10;" x1="72.5" y1="79" x2="72.5" y2="81"/>
			
				<line style="fill:none;stroke:#42210B;stroke-linecap:round;stroke-linejoin:round;stroke-miterlimit:10;" x1="74.5" y1="79" x2="74.5" y2="81"/>
			
				<line style="fill:none;stroke:#42210B;stroke-linecap:round;stroke-linejoin:round;stroke-miterlimit:10;" x1="76.5" y1="79" x2="76.5" y2="81"/>
		</g>
		<g>
			
				<line style="fill:none;stroke:#CE171F;stroke-linecap:round;stroke-linejoin:round;stroke-miterlimit:10;" x1="53.5" y1="66.5" x2="59" y2="61"/>
			
				<line style="fill:none;stroke:#CE171F;stroke-linecap:round;stroke-linejoin:round;stroke-miterlimit:10;" x1="53" y1="63" x2="57.5" y2="58.5"/>
			
				<line style="fill:none;stroke:#CE171F;stroke-linecap:round;stroke-linejoin:round;stroke-miterlimit:10;" x1="52.5" y1="59.5" x2="55.5" y2="56.5"/>
			
				<line style="fill:none;stroke:#CE171F;stroke-linecap:round;stroke-linejoin:round;stroke-miterlimit:10;" x1="51.5" y1="56.5" x2="54.5" y2="53.5"/>
			
				<line style="fill:none;stroke:#CE171F;stroke-linecap:round;stroke-linejoin:round;stroke-miterlimit:10;" x1="50.5" y1="53.5" x2="53.5" y2="50.5"/>
			
				<line style="fill:none;stroke:#CE171F;stroke-linecap:round;stroke-linejoin:round;stroke-miterlimit:10;" x1="50.5" y1="49.5" x2="53.5" y2="46.5"/>
			
				<line style="fill:none;stroke:#CE171F;stroke-linecap:round;stroke-linejoin:round;stroke-miterlimit:10;" x1="50.5" y1="45.5" x2="52.5" y2="43.5"/>
			
				<line style="fill:none;stroke:#CE171F;stroke-linecap:round;stroke-linejoin:round;stroke-miterlimit:10;" x1="54.5" y1="69.5" x2="60" y2="64"/>
			
				<line style="fill:none;stroke:#CE171F;stroke-linecap:round;stroke-linejoin:round;stroke-miterlimit:10;" x1="55.5" y1="72.5" x2="62.5" y2="65.5"/>
			
				<line style="fill:none;stroke:#CE171F;stroke-linecap:round;stroke-linejoin:round;stroke-miterlimit:10;" x1="56.5" y1="75.5" x2="63.5" y2="68.5"/>
			
				<line style="fill:none;stroke:#CE171F;stroke-linecap:round;stroke-linejoin:round;stroke-miterlimit:10;" x1="58.5" y1="77.5" x2="65.5" y2="70.5"/>
			
				<line style="fill:none;stroke:#CE171F;stroke-linecap:round;stroke-linejoin:round;stroke-miterlimit:10;" x1="60.5" y1="79.5" x2="67.5" y2="72.5"/>
			
				<line style="fill:none;stroke:#CE171F;stroke-linecap:round;stroke-linejoin:round;stroke-miterlimit:10;" x1="63.5" y1="80.5" x2="69.5" y2="74.5"/>
		</g>
		<path style="fill:none;stroke:#42210B;stroke-width:2;stroke-linecap:round;stroke-linejoin:round;stroke-miterlimit:10;" d="
			M49,24c0,32,4,57,15,57c5,0,8-5,8-5s-8.667-5.868-16-22C51,43,49,24,49,24z"/>
	</g>
</g>
<g id="Layer_1">
</g>
</svg>
