<?xml version="1.0" encoding="utf-8"?>
<!-- Generator: Adobe Illustrator 22.0.1, SVG Export Plug-In . SVG Version: 6.00 Build 0)  -->
<svg version="1.1" id="Слой_1" xmlns="http://www.w3.org/2000/svg" xmlns:xlink="http://www.w3.org/1999/xlink" x="0px" y="0px"
	 viewBox="0 0 90 90" style="enable-background:new 0 0 90 90;" xml:space="preserve">
<style type="text/css">
	.st0{fill:none;stroke:#AA9748;stroke-width:1.688;stroke-miterlimit:10;}
	.st1{fill:none;stroke:#AA9748;stroke-width:0.9646;stroke-miterlimit:10;}
	.st2{fill:#A67C52;}
	.st3{fill:#E4B27F;}
	.st4{fill:#764D25;}
	.st5{fill:#845935;}
	.st6{fill:none;stroke:#553114;stroke-width:0.9748;stroke-miterlimit:10;}
	.st7{fill:#705642;stroke:#553114;stroke-width:0.9748;stroke-miterlimit:10;}
	.st8{opacity:0.15;fill:#E4B27F;}
	.st9{opacity:0.15;fill:#B2855D;}
	.st10{opacity:0.2;}
	.st11{fill:none;stroke:#553114;stroke-width:0.7067;stroke-linecap:round;stroke-miterlimit:10;}
	.st12{fill:#754030;}
	.st13{fill:#824B37;}
	.st14{fill:#4C2019;}
	.st15{fill:#915A4C;}
	.st16{fill:none;stroke:#000000;stroke-width:0.6526;stroke-linecap:round;stroke-linejoin:round;stroke-miterlimit:10;}
	.st17{fill:none;stroke:#919191;stroke-width:0.7628;stroke-miterlimit:10;}
	.st18{fill:none;stroke:#919191;stroke-width:0.8237;stroke-miterlimit:10;}
	.st19{fill:#919191;}
	.st20{fill:#1A1A1A;}
	.st21{fill:#717171;}
	.st22{fill:#333333;}
	.st23{fill:#555555;}
	.st24{opacity:0.5;fill:#9B9B9B;}
	.st25{fill:#282828;}
	.st26{fill:#C1C1C1;}
	.st27{fill:#232323;}
	.st28{fill:#161616;}
	.st29{fill:none;stroke:#000000;stroke-width:0.8802;stroke-miterlimit:10;}
	.st30{fill:none;stroke:#000000;stroke-width:0.6585;stroke-linecap:round;stroke-linejoin:round;stroke-miterlimit:10;}
	.st31{opacity:0.3;fill:#9B9B9B;}
	.st32{fill:none;stroke:#000000;stroke-width:0.7662;stroke-linecap:round;stroke-linejoin:round;stroke-miterlimit:10;}
	.st33{fill:none;stroke:#000000;stroke-width:0.7158;stroke-linecap:round;stroke-linejoin:round;stroke-miterlimit:10;}
	.st34{fill:#202020;}
	.st35{fill:none;stroke:#000000;stroke-width:1.0108;stroke-miterlimit:10;}
	.st36{opacity:0.7;}
	.st37{fill:#282828;stroke:#000000;stroke-width:1.0108;stroke-miterlimit:10;}
	.st38{fill:#1A1A1A;stroke:#000000;stroke-width:0.966;stroke-miterlimit:10;}
	.st39{fill:#808080;}
	.st40{fill:none;stroke:#000000;stroke-width:0.8188;stroke-linecap:round;stroke-linejoin:round;stroke-miterlimit:10;}
	.st41{fill:#373638;}
	.st42{opacity:0.3;fill:#0C0C0C;}
	.st43{fill:#EEF0F1;}
	.st44{fill:none;stroke:#BA2A2A;stroke-miterlimit:10;}
	.st45{fill:none;stroke:#AFAFAF;stroke-miterlimit:10;}
	.st46{fill:none;stroke:#000000;stroke-miterlimit:10;}
	.st47{fill:none;stroke:#D1D1D1;stroke-miterlimit:10;}
</style>
<g>
	<path class="st0" d="M77.3,20.2c-7.7-9.7-19.6-15.9-33-15.9C21,4.4,2.1,23.3,2.1,46.6c0,4.3,0.6,8.5,1.8,12.4"/>
	<path class="st0" d="M11.1,72.6c7.7,9.9,19.7,16.2,33.2,16.2c23.3,0,42.2-18.9,42.2-42.2c0-4.1-0.6-8.1-1.7-11.8"/>
	<path class="st1" d="M11.8,25.3c-4,6.1-6.3,13.4-6.3,21.3c0,1.9,0.1,3.8,0.4,5.7"/>
	<path class="st1" d="M29.8,10.5c-4.9,2-9.2,4.9-12.9,8.5"/>
	<path class="st1" d="M68.1,77.4c7.7-5.9,13.1-14.6,14.7-24.6c0.3-2,0.5-4.1,0.5-6.2"/>
	<path class="st1" d="M35.2,84.4c2.9,0.7,6,1.1,9.1,1.1c5.3,0,10.3-1,14.8-2.9"/>
	<path class="st1" d="M44.3,1.4C28.7,1.4,15,9.3,6.9,21.3"/>
	<polyline class="st0" points="11.1,84.6 11.1,72.6 22.8,72.6 	"/>
	<polyline class="st0" points="77.3,7.7 77.3,19.9 65.9,19.9 	"/>
</g>
<g>
	<path class="st12" d="M45.1,77.9c15-0.5,14.6-5.5,14.6-5.5V44.3c0,0,0,0,0.1,0c4.2,7.2,2.9,31.6,2.9,35h9.5V51.9
		c0-6-4.7-26.3-6.2-29.9c-1.6-3.6-5.9-4.5-8.2-4.7c-2-3.6-7.1-6.1-7.1-6.1l-6.9-1.1l-5.4,0.7c0,0-5.4,1.3-7.8,6.6
		c-2.7,0.5-6.5,1.8-7.8,4.6c-1.6,3.6-6.2,24-6.2,29.9v27.4H26c0-3.4-1.3-27.9,2.9-35c0,0,0,0,0,0V74c0.7,0.7,4.5,2.7,8,3.2
		C39,77.9,43.5,78,45.1,77.9z"/>
	<path class="st13" d="M53.7,44.1c-1.9-1-5.6,1.9-3.8,3.2c1.7,1.2-0.7,2.2-1.6,2.9s0.1,1.8,3,1.7c2.9-0.1-2.3,1.5-2.6,2.7
		c-0.3,1.2,1.5,2.1,4.7,2.2c3.2,0,2.8,2.1,3.4,3.9s2.1,0.2,1.8-3.4s0.2-5.8-2.1-6.1c-2.2-0.3-2.7-1.8-2.2-2.7S55.2,45.2,53.7,44.1z"
		/>
	<path class="st13" d="M35,41.9c2.1,1.4-3.1,1.4-3.6,2.9s0.7,3.6,2.9,4.5s2.9,3.3,1.1,3.6s4.1,5.3,4.4,7c0.3,1.8,1.5-0.3,1.7-1.6
		s-0.2-8.9-0.3-9.1c0-0.3-4.5-8.7-4.5-8.7L35,41.9z"/>
	<path class="st14" d="M35.5,16.7c1.1,6.1,6.3,18.8,9.7,26.8c1.8-8.8,6.5-14.7,6.8-26.7c-0.4-2-0.6-4.7-3-5.9
		c-2.4-1.2-10.3-0.9-12.3,0.5C35.4,13.1,35.6,15.2,35.5,16.7z"/>
	<path class="st15" d="M51.3,11.5c4.5,1.8,3.4,5.7,5.5,7.1s-3.9,1-3.3,2.1c0.6,1.1,5,4.2,7,5.1c2,0.9-6.3,2.2-8.1,5.4
		c-1.8,3.2-3.7,1.4-1.7-4.1s1.2-6.6,1.3-8.8c0.1-2.2-0.4-6.3-3-7.7C50.5,11.2,51.3,11.5,51.3,11.5z"/>
	<path class="st15" d="M35.9,11.6c-1.5,5.7,0,13,1.9,17.7c1.2,2.9-1.6,4.1,0.2,6.5c1.8,2.4,2.3,3.7,3,7.1c0.7,3.5,2.5,20.7,1.1,25
		s1.2,5.8-0.4,7.2c-1.6,1.4-3.6,0.8-4.2-2.4c-0.6-3.1,0.1-9.1,2.3-11.7s-0.3-7.5-4.5-12.9s5.4-1.4-0.8-6.4s2.4-4.2-5.2-6.8
		s-1.3-9.7,1.8-12.4s-1.5-1.2-2.8-1.3S31.7,14.7,35.9,11.6z"/>
	<path class="st16" d="M28.9,44.2c0-3.4-3.5-19.5-5.8-23"/>
	<path class="st16" d="M59.8,44.2c0-3.4,3.4-19.4,5.7-23"/>
	<path class="st16" d="M45.1,77.9c-10.9,0-15.3-2.6-16.2-4.4V44.3c0,0,0,0,0,0c-4.2,7.1-2.9,31.6-2.9,35h-9.5V51.9
		c0-6,4.7-26.3,6.2-29.9c1.2-2.7,4.8-4.1,7.5-4.6"/>
	<path class="st16" d="M57.8,17.3c2.7,0.5,6.8,1.8,8.1,4.7c1.6,3.6,6.2,24,6.2,29.9v27.4h-9.5c0-3.4,1.3-27.8-2.9-35
		c0,0-0.1,0-0.1,0v29.2c-3,3.7-8.2,4.4-14.6,4.4c0-9.5,0-25.4,0-31c0-7.4,6.4-16.1,16.1-17.6l-7.1-7.4c0,0,4.8,0.4,6.3,0.4
		c-4.4-10.7-10.8-12-17.1-12s-11,0.8-15.3,11.5c1.4,0,6.5,0.4,6.5,0.4l-5.8,6.8c7.7,1.8,16.3,10.5,16.4,16"/>
	<path class="st16" d="M36.9,11.2c-3.6,4.2,0.8,12.2,2.4,16.8c1.6,4.6,3.3,10.4,5.6,14.9"/>
	<path class="st16" d="M49.9,11.2c3.6,4.2,2,12.8,0.4,17.4c-1.6,4.6-5.1,10-5.1,17.4"/>
	<path class="st16" d="M52,17.4c-0.2-2.8-6.2-3.8-8.6-3.8c-2.4,0-6.8,1-7.7,3.8"/>
	<path class="st13" d="M69.4,75.9c-2.6,1.6-2.5-1.2-3.7-1.7c-1.2-0.5-1.7-3.8-0.4-4.6c1.2-0.8-0.8-2.5,0.2-3.3
		c1-0.8-0.7-1.9,0.6-2.4c1.4-0.5-1.9-2.6-0.1-3.2c1.7-0.6-2.9-5.3-0.3-5.7c2.5-0.3-3.4-7.6-1.1-10.3c2.2-2.8-1.2-2.7,0.2-3.9
		c1.4-1.2-1.9-2.8-0.7-4.5c1.2-1.7,0.3-6.3,0.9-8.1c0.6-1.8,1.4,1.5,1.3,2.7c-0.1,1.2,2.5,6.6,1.5,8.1c-1,1.4,2,3.2,1.3,4.2
		c-0.7,1,1.1,5,0.4,6.9s-0.5,6.6,0.2,7.9c0.7,1.4,0.6,4.6,0,5.5C69,64.4,70.9,66.2,70,67c-0.8,0.8,0.7,2.6-0.1,3.6s0.3,2.7-0.2,3.1
		C69.3,74.1,70.2,75.4,69.4,75.9z"/>
	<g>
		<g>
			<path class="st15" d="M64.1,35.1c1,0.7,3.1-0.5,4-1.6c0.9-1.1-0.2-1.1-2.3-0.6C63.7,33.5,63.5,34.7,64.1,35.1z"/>
			<path class="st15" d="M64.2,37.5c0.8,0.9,3.1,0.3,4.2-0.6c1.2-0.9,0-1.1-2.1-1.1C64.2,35.8,63.7,37,64.2,37.5z"/>
			<path class="st15" d="M64,41c1,1.2,3.9,0.3,5.4-0.8c1.5-1.1,0-1.4-2.7-1.4C63.9,38.8,63.3,40.3,64,41z"/>
			<path class="st15" d="M64.2,44.5c1,1.2,3.9,0.3,5.4-0.8c1.5-1.1,0-1.4-2.7-1.4C64.2,42.3,63.6,43.9,64.2,44.5z"/>
			<path class="st15" d="M63.9,46.1c0.9,1.3,3.8,0.9,5.4,0c1.6-0.9,0.2-1.4-2.5-1.8C64.1,43.9,63.3,45.4,63.9,46.1z"/>
			<path class="st15" d="M51.9,54.9c1,1.1,3.9,0.2,5.4-1s-0.1-1.4-2.8-1.3S51.2,54.3,51.9,54.9z"/>
			<path class="st15" d="M50.8,50.3c1,1.1,3.9,0.2,5.4-1s-0.1-1.4-2.8-1.3C50.7,48.1,50.2,49.6,50.8,50.3z"/>
			<path class="st15" d="M48.9,47.4c0.7,1.4,4.9,1.3,6.6,0.5s0.3-1.4-2.3-2S48.5,46.6,48.9,47.4z"/>
			<path class="st15" d="M64.4,56.1c0,1.6,2.6,3.1,4.4,3.3s0.9-1-1.1-3C65.8,54.5,64.4,55.2,64.4,56.1z"/>
			<path class="st15" d="M64.5,61.7c1,1.2,3.9,0.4,5.4-0.7s0-1.4-2.7-1.5C64.5,59.5,63.9,61,64.5,61.7z"/>
			<path class="st15" d="M63.7,65c0.8,1.3,3.8,0.9,5.4,0c1.6-0.9,0.2-1.4-2.5-1.8C64,62.9,63.2,64.3,63.7,65z"/>
			<path class="st15" d="M64,67.4c0.8,1.3,3.8,0.9,5.4,0c1.6-0.9,0.2-1.4-2.5-1.8S63.5,66.6,64,67.4z"/>
			<path class="st15" d="M63.7,70.1c0.6,1.5,3.6,1.7,5.3,1.1c1.7-0.6,0.4-1.3-2.1-2.2C64.4,68,63.3,69.3,63.7,70.1z"/>
		</g>
	</g>
	<path class="st13" d="M19.1,75.9c2.6,1.6,2.5-1.2,3.7-1.7s1.7-3.8,0.4-4.6C22,68.8,24,67.1,23,66.3c-1-0.8,0.7-1.9-0.6-2.4
		c-1.4-0.5,1.9-2.6,0.1-3.2c-1.7-0.6,2.9-5.3,0.3-5.7c-2.5-0.3,3.4-7.6,1.1-10.3s1.2-2.7-0.2-3.9s1.9-2.8,0.7-4.5
		c-1.2-1.7-0.3-6.3-0.9-8.1c-0.6-1.8-1.4,1.5-1.3,2.7c0.1,1.2-2.5,6.6-1.5,8.1s-2,3.2-1.3,4.2c0.7,1-1.1,5-0.4,6.9
		c0.7,1.9,0.5,6.6-0.2,7.9c-0.7,1.4-0.6,4.6,0,5.5c0.6,0.9-1.3,2.7-0.5,3.5c0.8,0.8-0.7,2.6,0.1,3.6c0.7,1-0.3,2.7,0.2,3.1
		C19.2,74.1,18.3,75.4,19.1,75.9z"/>
	<g>
		<g>
			<path class="st15" d="M24.4,35.1c-1,0.7-3.1-0.5-4-1.6c-0.9-1.1,0.2-1.1,2.3-0.6C24.8,33.5,25,34.7,24.4,35.1z"/>
			<path class="st15" d="M24.3,37.5c-0.8,0.9-3.1,0.3-4.2-0.6c-1.2-0.9,0-1.1,2.1-1.1C24.3,35.8,24.8,37,24.3,37.5z"/>
			<path class="st15" d="M24.5,41c-1,1.2-3.9,0.3-5.4-0.8c-1.5-1.1,0-1.4,2.7-1.4C24.6,38.8,25.2,40.3,24.5,41z"/>
			<path class="st15" d="M24.3,44.5c-1,1.2-3.9,0.3-5.4-0.8c-1.5-1.1,0-1.4,2.7-1.4C24.3,42.3,24.9,43.9,24.3,44.5z"/>
			<path class="st15" d="M24.6,46.1c-0.9,1.3-3.8,0.9-5.4,0c-1.6-0.9-0.2-1.4,2.5-1.8C24.4,43.9,25.2,45.4,24.6,46.1z"/>
			<path class="st15" d="M24.1,56.1c0,1.6-2.6,3.1-4.4,3.3c-1.8,0.2-0.9-1,1.1-3C22.7,54.5,24.1,55.2,24.1,56.1z"/>
			<path class="st15" d="M24,61.7c-1,1.2-3.9,0.4-5.4-0.7c-1.5-1.1,0-1.4,2.7-1.5C24,59.5,24.6,61,24,61.7z"/>
			<path class="st15" d="M24.8,65c-0.8,1.3-3.8,0.9-5.4,0c-1.6-0.9-0.2-1.4,2.5-1.8S25.3,64.3,24.8,65z"/>
			<path class="st15" d="M24.5,67.4c-0.8,1.3-3.8,0.9-5.4,0s-0.2-1.4,2.5-1.8S25,66.6,24.5,67.4z"/>
			<path class="st15" d="M24.8,70.1c-0.6,1.5-3.6,1.7-5.3,1.1c-1.7-0.6-0.4-1.3,2.1-2.2C24.1,68,25.2,69.3,24.8,70.1z"/>
		</g>
	</g>
	<line class="st17" x1="70.9" y1="68.2" x2="70.9" y2="79.1"/>
	<line class="st18" x1="70.5" y1="77.5" x2="70.5" y2="80.1"/>
	<line class="st18" x1="50.8" y1="60.6" x2="50.8" y2="65"/>
	<line class="st18" x1="57.1" y1="37.4" x2="57.1" y2="42.1"/>
	<line class="st18" x1="38.4" y1="60.6" x2="38.4" y2="65"/>
	<line class="st17" x1="17.6" y1="68.2" x2="17.6" y2="79.1"/>
	<line class="st18" x1="18" y1="77.5" x2="18" y2="80.1"/>
	<path class="st17" d="M38,60.6c-0.6,3.8-2.3,8.8-4.2,11.6"/>
	<path class="st17" d="M51.2,60.6c0.6,3.8,2.3,8.8,4.2,11.6"/>
	<path class="st17" d="M58.1,36.8c-3.4,1.8-7.5,5.2-9.5,7.8"/>
	<ellipse class="st19" cx="58.1" cy="28.3" rx="0.6" ry="0.7"/>
	<ellipse class="st19" cx="32.2" cy="28.1" rx="0.6" ry="0.7"/>
	<path class="st17" d="M48.2,37.7c-3.1,4.3-3.1,7.5-3.1,10.7s0,29.1,0,29.1"/>
	<path class="st17" d="M45.1,46.9c0-2.7-0.3-5.6-2.9-8.6"/>
</g>
</svg>
