<?xml version="1.0" encoding="UTF-8"?>
<svg width="90px" height="90px" viewBox="0 0 90 90" version="1.1" xmlns="http://www.w3.org/2000/svg" xmlns:xlink="http://www.w3.org/1999/xlink">
    <!-- Generator: Sketch 51.2 (57519) - http://www.bohemiancoding.com/sketch -->
    <title>Slice 1</title>
    <desc>Created with Sketch.</desc>
    <defs></defs>
    <g id="Page-1" stroke="none" stroke-width="1" fill="none" fill-rule="evenodd">
        <g id="Ушить_Куртка" transform="translate(0.000000, 9.000000)" fill-rule="nonzero">
            <g id="Group" transform="translate(11.353846, 0.000000)">
                <g transform="translate(0.000000, 1.190083)" fill="#CE2128" id="Shape">
                    <path d="M13.9846154,70.7950413 C13.9707692,70.7950413 13.9707692,70.7950413 13.9569231,70.7950413 L12.7661538,70.7057851 C12.5861538,70.6909091 12.4476923,70.5272727 12.4615385,70.3190083 C12.4753846,70.1107438 12.6276923,69.9768595 12.8215385,69.9917355 L14.0123077,70.0809917 C14.1923077,70.0958678 14.3307692,70.2595041 14.3169231,70.4677686 C14.3030769,70.661157 14.1507692,70.7950413 13.9846154,70.7950413 Z"></path>
                    <path d="M10.5507692,70.5272727 C10.5369231,70.5272727 10.5369231,70.5272727 10.5230769,70.5272727 L8.29384615,70.3487603 C8.11384615,70.3338843 7.97538462,70.1702479 7.98923077,69.9619835 C8.00307692,69.768595 8.16923077,69.6198347 8.34923077,69.6347107 L10.5784615,69.8132231 C10.7584615,69.8280992 10.8969231,69.9917355 10.8830769,70.2 C10.8692308,70.3933884 10.7307692,70.5272727 10.5507692,70.5272727 Z M6.07846154,70.185124 C6.06461538,70.185124 6.06461538,70.185124 6.05076923,70.185124 L3.82153846,70.0066116 C3.64153846,69.9917355 3.50307692,69.8280992 3.51692308,69.6198347 C3.53076923,69.4115702 3.68307692,69.277686 3.87692308,69.292562 L6.10615385,69.4710744 C6.28615385,69.4859504 6.42461538,69.6495868 6.41076923,69.8578512 C6.39692308,70.0512397 6.25846154,70.185124 6.07846154,70.185124 Z"></path>
                    <path d="M1.60615385,69.8429752 C1.59230769,69.8429752 1.59230769,69.8429752 1.57846154,69.8429752 L0.387692308,69.753719 C0.207692308,69.738843 0.0692307692,69.5752066 0.0830769231,69.3818182 L0.138461538,68.1024793 C0.152307692,67.9090909 0.304615385,67.7603306 0.484615385,67.7603306 C0.664615385,67.7752066 0.803076923,67.938843 0.803076923,68.1322314 L0.761538462,69.0694215 L1.63384615,69.1438017 C1.81384615,69.1586777 1.95230769,69.322314 1.93846154,69.5305785 C1.92461538,69.6942149 1.78615385,69.8429752 1.60615385,69.8429752 Z"></path>
                    <path d="M0.609230769,65.9305785 C0.609230769,65.9305785 0.595384615,65.9305785 0.595384615,65.9305785 C0.415384615,65.9157025 0.276923077,65.7520661 0.276923077,65.5586777 L0.401538462,63.014876 C0.415384615,62.8214876 0.567692308,62.6727273 0.747692308,62.6727273 C0.927692308,62.6876033 1.06615385,62.8512397 1.06615385,63.0446281 L0.941538462,65.5884298 C0.927692308,65.7818182 0.775384615,65.9305785 0.609230769,65.9305785 Z M0.858461538,60.8280992 C0.858461538,60.8280992 0.844615385,60.8280992 0.844615385,60.8280992 C0.664615385,60.8132231 0.526153846,60.6495868 0.526153846,60.4561983 C0.567692308,59.6380165 0.609230769,58.7752066 0.650769231,57.9123967 C0.664615385,57.7190083 0.816923077,57.5702479 0.996923077,57.5702479 C1.17692308,57.585124 1.31538462,57.7487603 1.31538462,57.9421488 C1.27384615,58.8049587 1.23230769,59.6677686 1.19076923,60.4859504 C1.17692308,60.6942149 1.02461538,60.8280992 0.858461538,60.8280992 Z M1.10769231,55.7404959 C1.10769231,55.7404959 1.09384615,55.7404959 1.09384615,55.7404959 C0.913846154,55.7256198 0.775384615,55.5619835 0.775384615,55.368595 C0.816923077,54.5206612 0.858461538,53.6727273 0.9,52.8247934 C0.913846154,52.631405 1.06615385,52.4826446 1.24615385,52.4826446 C1.42615385,52.4975207 1.56461538,52.661157 1.56461538,52.8545455 C1.52307692,53.7024793 1.48153846,54.5504132 1.44,55.3983471 C1.44,55.5917355 1.28769231,55.7404959 1.10769231,55.7404959 Z M1.37076923,50.6528926 C1.37076923,50.6528926 1.35692308,50.6528926 1.35692308,50.6528926 C1.17692308,50.6380165 1.03846154,50.4743802 1.03846154,50.2809917 C1.08,49.4033058 1.13538462,48.5553719 1.17692308,47.7371901 C1.19076923,47.5438017 1.34307692,47.3950413 1.52307692,47.4099174 C1.70307692,47.4247934 1.84153846,47.5884298 1.82769231,47.7818182 C1.78615385,48.6 1.74461538,49.4479339 1.68923077,50.3256198 C1.70307692,50.5041322 1.55076923,50.6528926 1.37076923,50.6528926 Z M1.64769231,45.5652893 C1.64769231,45.5652893 1.63384615,45.5652893 1.63384615,45.5652893 C1.45384615,45.5504132 1.31538462,45.3867769 1.32923077,45.1933884 C1.38461538,44.2561983 1.42615385,43.4082645 1.48153846,42.6495868 C1.49538462,42.4561983 1.64769231,42.307438 1.82769231,42.322314 C2.00769231,42.3371901 2.14615385,42.5008264 2.13230769,42.6942149 C2.09076923,43.4528926 2.03538462,44.3008264 1.98,45.2380165 C1.96615385,45.4165289 1.82769231,45.5652893 1.64769231,45.5652893 Z M1.96615385,40.477686 C1.95230769,40.477686 1.95230769,40.477686 1.93846154,40.477686 C1.75846154,40.4628099 1.62,40.2842975 1.63384615,40.0909091 C1.64769231,39.9421488 1.66153846,39.8231405 1.66153846,39.7190083 C1.71692308,39.0942149 1.8,38.3652893 1.89692308,37.5471074 C1.92461538,37.353719 2.09076923,37.2198347 2.27076923,37.2347107 C2.45076923,37.2644628 2.57538462,37.4429752 2.56153846,37.6363636 C2.46461538,38.4396694 2.38153846,39.168595 2.32615385,39.7933884 C2.31230769,39.8975207 2.31230769,40.0165289 2.29846154,40.1504132 C2.28461538,40.3289256 2.13230769,40.477686 1.96615385,40.477686 Z M2.57538462,35.4198347 C2.56153846,35.4198347 2.54769231,35.4198347 2.52,35.4198347 C2.34,35.3900826 2.21538462,35.2115702 2.24307692,35.0181818 C2.35384615,34.214876 2.49230769,33.3669421 2.63076923,32.5041322 C2.65846154,32.3107438 2.83846154,32.1768595 3.01846154,32.2214876 C3.19846154,32.2512397 3.32307692,32.4446281 3.29538462,32.6380165 C3.15692308,33.5008264 3.03230769,34.3487603 2.90769231,35.1371901 C2.88,35.3008264 2.72769231,35.4198347 2.57538462,35.4198347 Z M3.37846154,30.4066116 C3.36461538,30.4066116 3.33692308,30.4066116 3.32307692,30.4066116 C3.14307692,30.3768595 3.01846154,30.1834711 3.06,29.9900826 C3.19846154,29.1719008 3.35076923,28.3239669 3.50307692,27.4909091 C3.54461538,27.2975207 3.71076923,27.1785124 3.89076923,27.2082645 C4.07076923,27.2528926 4.18153846,27.431405 4.15384615,27.6247934 C4.00153846,28.4578512 3.84923077,29.3057851 3.71076923,30.1239669 C3.66923077,30.2876033 3.53076923,30.4066116 3.37846154,30.4066116 Z M4.29230769,25.4082645 C4.26461538,25.4082645 4.25076923,25.4082645 4.22307692,25.3933884 C4.04307692,25.3487603 3.93230769,25.1702479 3.96,24.9768595 C4.11230769,24.1586777 4.27846154,23.3256198 4.45846154,22.477686 C4.5,22.2842975 4.66615385,22.1652893 4.84615385,22.2099174 C5.02615385,22.2545455 5.13692308,22.4479339 5.09538462,22.6264463 C4.92923077,23.4595041 4.76307692,24.292562 4.59692308,25.1107438 C4.58307692,25.2892562 4.44461538,25.4082645 4.29230769,25.4082645 Z M5.30307692,20.4396694 C5.27538462,20.4396694 5.24769231,20.4396694 5.23384615,20.4247934 C5.05384615,20.3801653 4.94307692,20.1867769 4.98461538,19.9933884 C5.08153846,19.5024793 5.19230769,19.0115702 5.30307692,18.5206612 C5.37230769,18.1785124 5.45538462,17.8363636 5.55230769,17.4942149 C5.60769231,17.3008264 5.78769231,17.1966942 5.96769231,17.2561983 C6.14769231,17.3157025 6.24461538,17.5090909 6.18923077,17.7024793 C6.10615385,18.014876 6.02307692,18.3570248 5.95384615,18.6842975 C5.84307692,19.1752066 5.74615385,19.6661157 5.63538462,20.1570248 C5.59384615,20.3206612 5.45538462,20.4396694 5.30307692,20.4396694 Z M6.70153846,15.5900826 C6.66,15.5900826 6.60461538,15.5752066 6.56307692,15.5603306 C6.39692308,15.4710744 6.32769231,15.2628099 6.41076923,15.0842975 C6.75692308,14.2958678 7.15846154,13.5371901 7.61538462,12.8380165 C7.72615385,12.6743802 7.92,12.6297521 8.07230769,12.7487603 C8.22461538,12.8677686 8.26615385,13.0760331 8.15538462,13.2396694 C7.72615385,13.9090909 7.33846154,14.6380165 7.00615385,15.3818182 C6.93692308,15.5157025 6.82615385,15.5900826 6.70153846,15.5900826 Z M9.38769231,11.4247934 C9.30461538,11.4247934 9.22153846,11.3950413 9.15230769,11.3206612 C9.02769231,11.1867769 9.01384615,10.9636364 9.15230769,10.814876 C9.69230769,10.2049587 10.3015385,9.63966942 10.9661538,9.0892562 C11.1184615,8.97024793 11.3261538,9 11.4369231,9.14876033 C11.5476923,9.29752066 11.52,9.53553719 11.3815385,9.65454545 C10.7584615,10.1752066 10.1630769,10.7256198 9.65076923,11.3057851 C9.55384615,11.3950413 9.47076923,11.4247934 9.38769231,11.4247934 Z M13.1261538,8.33057851 C13.0153846,8.33057851 12.9046154,8.27107438 12.8353846,8.15206612 C12.7384615,7.98842975 12.7938462,7.76528926 12.96,7.66115702 C13.6246154,7.2446281 14.3169231,6.85785124 15.0784615,6.47107438 C15.2446154,6.38181818 15.4384615,6.47107438 15.5215385,6.63471074 C15.6046154,6.81322314 15.5215385,7.0214876 15.3692308,7.1107438 C14.6215385,7.49752066 13.9430769,7.86942149 13.2923077,8.27107438 C13.2369231,8.31570248 13.1815385,8.33057851 13.1261538,8.33057851 Z M17.4046154,6.12892562 C17.28,6.12892562 17.1553846,6.03966942 17.1,5.90578512 C17.0307692,5.72727273 17.1138462,5.51900826 17.28,5.4446281 C17.7646154,5.23636364 18.2215385,5.04297521 18.6784615,4.84958678 C18.9553846,4.73057851 19.2323077,4.62644628 19.4953846,4.50743802 C19.6615385,4.43305785 19.8553846,4.52231405 19.9246154,4.70082645 C19.9938462,4.87933884 19.9107692,5.08760331 19.7446154,5.16198347 C19.4815385,5.2661157 19.2046154,5.38512397 18.9276923,5.50413223 C18.4846154,5.69752066 18.0138462,5.89090909 17.5430769,6.08429752 C17.4876923,6.12892562 17.4461538,6.12892562 17.4046154,6.12892562 Z M21.6969231,4.00165289 C21.5861538,4.00165289 21.4753846,3.94214876 21.4061538,3.8231405 C21.3092308,3.65950413 21.3646154,3.43636364 21.5169231,3.3322314 L23.5523077,2.0231405 C23.7046154,1.91900826 23.9123077,1.9785124 24.0092308,2.14214876 C24.1061538,2.30578512 24.0507692,2.52892562 23.8984615,2.63305785 L21.8630769,3.94214876 C21.8076923,3.98677686 21.7523077,4.00165289 21.6969231,4.00165289 Z"></path>
                    <path d="M25.7261538,1.39834711 C25.6153846,1.39834711 25.5046154,1.33884298 25.4353846,1.21983471 C25.3384615,1.05619835 25.3938462,0.833057851 25.5461538,0.72892562 L26.5707692,0.0595041322 C26.7230769,-0.0446280992 26.9307692,0.0148760331 27.0276923,0.178512397 C27.1246154,0.34214876 27.0692308,0.565289256 26.9169231,0.669421488 L25.8923077,1.33884298 C25.8369231,1.38347107 25.7815385,1.39834711 25.7261538,1.39834711 Z"></path>
                </g>
                <path d="M30.6138462,71.5983471 C30.6138462,71.5983471 30.6,71.5983471 30.6138462,71.5983471 L30.0046154,71.568595 C29.4923077,71.553719 28.8692308,71.5239669 28.1907692,71.4942149 C28.0107692,71.4793388 27.8723077,71.3157025 27.8723077,71.122314 C27.8861538,70.9289256 28.0384615,70.7801653 28.2184615,70.7801653 C28.8969231,70.8099174 29.5061538,70.8396694 30.0184615,70.8545455 L30.6138462,70.8842975 C30.7938462,70.8991736 30.9323077,71.0628099 30.9323077,71.2561983 C30.9323077,71.4495868 30.7938462,71.5983471 30.6138462,71.5983471 Z M25.8230769,71.3752066 C25.8230769,71.3752066 25.8092308,71.3752066 25.8092308,71.3752066 C24.9646154,71.3157025 24.1615385,71.2561983 23.4138462,71.1966942 C23.2338462,71.1818182 23.0953846,71.0033058 23.1092308,70.8099174 C23.1230769,70.6165289 23.2892308,70.4677686 23.4692308,70.4826446 C24.2169231,70.5421488 25.02,70.6016529 25.8507692,70.661157 C26.0307692,70.6760331 26.1692308,70.8396694 26.1553846,71.0330579 C26.1415385,71.2264463 25.9892308,71.3752066 25.8230769,71.3752066 Z M21.0461538,70.9438017 C21.0323077,70.9438017 21.0184615,70.9438017 21.0046154,70.9438017 C20.1323077,70.8396694 19.3292308,70.7206612 18.6092308,70.5867769 C18.4292308,70.5570248 18.3046154,70.3636364 18.3323077,70.1702479 C18.36,69.9768595 18.54,69.8429752 18.72,69.8727273 C19.4261538,70.0066116 20.2153846,70.1256198 21.0738462,70.2297521 C21.2538462,70.2595041 21.3923077,70.4231405 21.3646154,70.631405 C21.3507692,70.8099174 21.2123077,70.9438017 21.0461538,70.9438017 Z M16.3246154,70.0214876 C16.2969231,70.0214876 16.2692308,70.0214876 16.2276923,70.0066116 C15.1615385,69.6793388 14.4138462,69.307438 13.9430769,68.8760331 C13.8046154,68.7421488 13.7907692,68.5190083 13.9015385,68.3702479 C14.0261538,68.2214876 14.2338462,68.2066116 14.3723077,68.3256198 C14.76,68.6826446 15.4523077,69.0247934 16.4076923,69.322314 C16.5876923,69.3818182 16.6846154,69.5752066 16.6292308,69.768595 C16.6015385,69.9322314 16.4769231,70.0214876 16.3246154,70.0214876 Z" id="Shape" fill="#CE2128"></path>
                <g transform="translate(40.015385, 1.190083)" fill="#CE2128" id="Shape">
                    <path d="M13.2230769,70.7950413 C13.0569231,70.7950413 12.9046154,70.646281 12.8907692,70.4677686 C12.8769231,70.2743802 13.0153846,70.0958678 13.1953846,70.0809917 L14.3861538,69.9917355 C14.5661538,69.9768595 14.7323077,70.1256198 14.7461538,70.3190083 C14.76,70.5123967 14.6215385,70.6909091 14.4415385,70.7057851 L13.2507692,70.7950413 C13.2369231,70.7950413 13.2369231,70.7950413 13.2230769,70.7950413 Z"></path>
                    <path d="M16.6569231,70.5272727 C16.4907692,70.5272727 16.3384615,70.3785124 16.3246154,70.2 C16.3107692,70.0066116 16.4492308,69.8280992 16.6292308,69.8132231 L18.8584615,69.6347107 C19.0384615,69.6198347 19.2046154,69.768595 19.2184615,69.9619835 C19.2323077,70.1553719 19.0938462,70.3338843 18.9138462,70.3487603 L16.6846154,70.5272727 C16.6707692,70.5272727 16.6569231,70.5272727 16.6569231,70.5272727 Z M21.1153846,70.185124 C20.9492308,70.185124 20.7969231,70.0363636 20.7830769,69.8578512 C20.7692308,69.6644628 20.9076923,69.4859504 21.0876923,69.4710744 L23.3169231,69.292562 C23.4969231,69.277686 23.6630769,69.4264463 23.6769231,69.6198347 C23.6907692,69.8132231 23.5523077,69.9917355 23.3723077,70.0066116 L21.1430769,70.185124 C21.1430769,70.185124 21.1292308,70.185124 21.1153846,70.185124 Z"></path>
                    <path d="M25.5876923,69.8429752 C25.4215385,69.8429752 25.2692308,69.6942149 25.2553846,69.5157025 C25.2415385,69.322314 25.38,69.1438017 25.56,69.1289256 L26.4323077,69.0545455 L26.3907692,68.1173554 C26.3769231,67.9239669 26.5153846,67.7603306 26.7092308,67.7454545 C26.8892308,67.7305785 27.0415385,67.8793388 27.0553846,68.0876033 L27.1107692,69.3669421 C27.1246154,69.5603306 26.9861538,69.7239669 26.8061538,69.738843 L25.6153846,69.8280992 C25.6015385,69.8429752 25.6015385,69.8429752 25.5876923,69.8429752 Z"></path>
                    <path d="M26.5984615,65.9305785 C26.4184615,65.9305785 26.28,65.7818182 26.2661538,65.5884298 L26.1415385,63.0446281 C26.1276923,62.8512397 26.2661538,62.6876033 26.46,62.6727273 C26.64,62.6578512 26.7923077,62.8066116 26.8061538,63.014876 L26.9307692,65.5586777 C26.9446154,65.7520661 26.8061538,65.9157025 26.6123077,65.9305785 C26.6123077,65.9305785 26.5984615,65.9305785 26.5984615,65.9305785 Z M26.3492308,60.8280992 C26.1692308,60.8280992 26.0307692,60.6793388 26.0169231,60.4859504 C25.9753846,59.6677686 25.9338462,58.8049587 25.8923077,57.9421488 C25.8784615,57.7487603 26.0169231,57.585124 26.2107692,57.5702479 C26.3907692,57.5553719 26.5430769,57.7041322 26.5569231,57.9123967 C26.5984615,58.7752066 26.64,59.6380165 26.6815385,60.4561983 C26.6953846,60.6495868 26.5569231,60.8132231 26.3630769,60.8280992 C26.3630769,60.8280992 26.3492308,60.8280992 26.3492308,60.8280992 Z M26.0861538,55.7404959 C25.9061538,55.7404959 25.7676923,55.5917355 25.7538462,55.3983471 C25.7123077,54.5504132 25.6707692,53.7024793 25.6292308,52.8545455 C25.6153846,52.661157 25.7538462,52.4975207 25.9476923,52.4826446 C26.1276923,52.4677686 26.28,52.6165289 26.2938462,52.8247934 C26.3353846,53.6727273 26.3769231,54.5206612 26.4184615,55.368595 C26.4323077,55.5619835 26.2938462,55.7256198 26.1,55.7404959 C26.1,55.7404959 26.1,55.7404959 26.0861538,55.7404959 Z M25.8230769,50.6528926 C25.6430769,50.6528926 25.5046154,50.5041322 25.4907692,50.3107438 C25.4492308,49.4330579 25.3938462,48.585124 25.3523077,47.7669421 C25.3384615,47.5735537 25.4769231,47.4099174 25.6569231,47.3950413 C25.8369231,47.3801653 26.0030769,47.5289256 26.0030769,47.722314 C26.0446154,48.5404959 26.0861538,49.3884298 26.1415385,50.2661157 C26.1553846,50.4595041 26.0169231,50.6231405 25.8230769,50.6380165 C25.8369231,50.6528926 25.8369231,50.6528926 25.8230769,50.6528926 Z M25.5461538,45.5652893 C25.3661538,45.5652893 25.2276923,45.4165289 25.2138462,45.2380165 C25.1584615,44.3008264 25.1169231,43.4528926 25.0615385,42.6942149 C25.0476923,42.5008264 25.1861538,42.322314 25.3661538,42.322314 C25.5461538,42.307438 25.7123077,42.4561983 25.7123077,42.6495868 C25.7538462,43.4082645 25.8092308,44.2561983 25.8646154,45.1933884 C25.8784615,45.3867769 25.74,45.5652893 25.56,45.5652893 C25.56,45.5652893 25.56,45.5652893 25.5461538,45.5652893 Z M25.2415385,40.477686 C25.0753846,40.477686 24.9230769,40.3438017 24.9092308,40.1504132 C24.8953846,40.0165289 24.8953846,39.8975207 24.8815385,39.7933884 C24.8261538,39.168595 24.7430769,38.4545455 24.6461538,37.6363636 C24.6184615,37.4429752 24.7430769,37.2644628 24.9369231,37.2347107 C25.1169231,37.2049587 25.2830769,37.338843 25.3107692,37.5471074 C25.4076923,38.3652893 25.4907692,39.0942149 25.5461538,39.7190083 C25.56,39.8231405 25.56,39.9570248 25.5738462,40.0909091 C25.5876923,40.2842975 25.4492308,40.4628099 25.2692308,40.477686 C25.2553846,40.477686 25.2415385,40.477686 25.2415385,40.477686 Z M24.6323077,35.4198347 C24.4661538,35.4198347 24.3276923,35.3008264 24.3,35.122314 C24.1892308,34.3338843 24.0507692,33.4859504 23.9123077,32.6231405 C23.8846154,32.4297521 23.9953846,32.2512397 24.1892308,32.2066116 C24.3692308,32.1768595 24.5353846,32.2958678 24.5769231,32.4892562 C24.7153846,33.3669421 24.8538462,34.214876 24.9646154,35.0033058 C24.9923077,35.1966942 24.8676923,35.3752066 24.6876923,35.4049587 C24.66,35.4198347 24.6461538,35.4198347 24.6323077,35.4198347 Z M23.8292308,30.4066116 C23.6769231,30.4066116 23.5384615,30.2876033 23.5107692,30.1090909 C23.3723077,29.2909091 23.22,28.4578512 23.0676923,27.6099174 C23.0261538,27.4165289 23.1507692,27.2231405 23.3307692,27.1933884 C23.5107692,27.1487603 23.6907692,27.2826446 23.7184615,27.4760331 C23.8707692,28.3239669 24.0230769,29.1570248 24.1615385,29.9752066 C24.1892308,30.168595 24.0784615,30.3471074 23.8984615,30.3917355 C23.8707692,30.4066116 23.8430769,30.4066116 23.8292308,30.4066116 Z M22.9015385,25.4082645 C22.7492308,25.4082645 22.6107692,25.2892562 22.5830769,25.1256198 C22.4307692,24.307438 22.2646154,23.4743802 22.0846154,22.6413223 C22.0430769,22.4479339 22.1538462,22.2545455 22.3338462,22.2247934 C22.5138462,22.1801653 22.6938462,22.2991736 22.7215385,22.492562 C22.8876923,23.3256198 23.0538462,24.1735537 23.22,24.9917355 C23.2615385,25.185124 23.1369231,25.3785124 22.9569231,25.4082645 C22.9569231,25.4082645 22.9292308,25.4082645 22.9015385,25.4082645 Z M21.9046154,20.4396694 C21.7523077,20.4396694 21.6138462,20.3206612 21.5861538,20.1570248 C21.4892308,19.6661157 21.3784615,19.1752066 21.2676923,18.6842975 C21.1984615,18.3570248 21.1153846,18.0297521 21.0323077,17.7024793 C20.9769231,17.5090909 21.0876923,17.3157025 21.2538462,17.2561983 C21.4338462,17.1966942 21.6138462,17.3157025 21.6692308,17.4942149 C21.7661538,17.8214876 21.8492308,18.1785124 21.9184615,18.5206612 C22.0292308,19.0115702 22.1261538,19.5024793 22.2369231,19.9933884 C22.2784615,20.1867769 22.1676923,20.3801653 21.9876923,20.4247934 C21.9461538,20.4396694 21.9184615,20.4396694 21.9046154,20.4396694 Z M20.5061538,15.5900826 C20.3815385,15.5900826 20.2569231,15.5157025 20.2015385,15.3818182 C19.8692308,14.6231405 19.4815385,13.9090909 19.0523077,13.2396694 C18.9415385,13.0760331 18.9830769,12.8528926 19.1353846,12.7487603 C19.2876923,12.6297521 19.4953846,12.6743802 19.5923077,12.8380165 C20.0492308,13.5520661 20.4507692,14.2958678 20.7969231,15.0842975 C20.88,15.2628099 20.7969231,15.4710744 20.6446154,15.5603306 C20.6030769,15.5752066 20.5476923,15.5900826 20.5061538,15.5900826 Z M17.82,11.4247934 C17.7369231,11.4247934 17.6538462,11.3950413 17.5846154,11.3206612 C17.0584615,10.7404959 16.4769231,10.1900826 15.8538462,9.66942149 C15.7153846,9.55041322 15.6738462,9.32727273 15.7984615,9.16363636 C15.9092308,9.01487603 16.1169231,8.97024793 16.2692308,9.10413223 C16.92,9.63966942 17.5292308,10.2198347 18.0830769,10.8297521 C18.2076923,10.9636364 18.2076923,11.2016529 18.0830769,11.3355372 C17.9861538,11.3950413 17.9030769,11.4247934 17.82,11.4247934 Z M14.0815385,8.33057851 C14.0261538,8.33057851 13.9707692,8.31570248 13.9153846,8.28595041 C13.2784615,7.88429752 12.6,7.49752066 11.8384615,7.12561983 C11.6723077,7.03636364 11.6030769,6.82809917 11.6861538,6.64958678 C11.7692308,6.47107438 11.9630769,6.39669421 12.1292308,6.48595041 C12.9046154,6.87272727 13.5969231,7.27438017 14.2476923,7.67603306 C14.4,7.78016529 14.4553846,7.98842975 14.3723077,8.16694215 C14.3030769,8.27107438 14.1923077,8.33057851 14.0815385,8.33057851 Z M9.80307692,6.12892562 C9.76153846,6.12892562 9.72,6.11404959 9.67846154,6.09917355 C9.19384615,5.89090909 8.73692308,5.69752066 8.29384615,5.51900826 C8.01692308,5.4 7.74,5.29586777 7.47692308,5.1768595 C7.31076923,5.10247934 7.22769231,4.89421488 7.29692308,4.71570248 C7.36615385,4.53719008 7.56,4.44793388 7.72615385,4.52231405 C7.98923077,4.62644628 8.25230769,4.74545455 8.54307692,4.86446281 C8.98615385,5.05785124 9.45692308,5.25123967 9.94153846,5.45950413 C10.1076923,5.5338843 10.1907692,5.74214876 10.1215385,5.92066116 C10.0661538,6.05454545 9.94153846,6.12892562 9.80307692,6.12892562 Z M5.51076923,4.00165289 C5.45538462,4.00165289 5.4,3.98677686 5.34461538,3.95702479 L3.30923077,2.64793388 C3.15692308,2.54380165 3.10153846,2.33553719 3.19846154,2.15702479 C3.29538462,1.99338843 3.50307692,1.9338843 3.65538462,2.03801653 L5.69076923,3.34710744 C5.84307692,3.45123967 5.89846154,3.65950413 5.80153846,3.83801653 C5.73230769,3.94214876 5.62153846,4.00165289 5.51076923,4.00165289 Z"></path>
                    <path d="M1.48153846,1.39834711 C1.42615385,1.39834711 1.37076923,1.38347107 1.31538462,1.35371901 L0.290769231,0.684297521 C0.138461538,0.580165289 0.0830769231,0.371900826 0.18,0.19338843 C0.276923077,0.0297520661 0.484615385,-0.0297520661 0.636923077,0.0743801653 L1.66153846,0.743801653 C1.81384615,0.847933884 1.86923077,1.05619835 1.77230769,1.23471074 C1.70307692,1.33884298 1.59230769,1.39834711 1.48153846,1.39834711 Z"></path>
                </g>
                <path d="M36.6092308,71.5983471 C36.4292308,71.5983471 36.2907692,71.4495868 36.2769231,71.2561983 C36.2630769,71.0628099 36.4153846,70.8991736 36.5953846,70.8842975 L37.1907692,70.8545455 C37.7030769,70.8396694 38.3261538,70.8099174 38.9907692,70.7801653 C39.1707692,70.7652893 39.3230769,70.9289256 39.3369231,71.122314 C39.3507692,71.3157025 39.1984615,71.4793388 39.0184615,71.4942149 C38.34,71.5239669 37.7307692,71.553719 37.2046154,71.568595 L36.6092308,71.5983471 C36.6092308,71.5983471 36.6092308,71.5983471 36.6092308,71.5983471 Z M41.4,71.3752066 C41.22,71.3752066 41.0815385,71.2264463 41.0676923,71.0330579 C41.0538462,70.8396694 41.1923077,70.661157 41.3723077,70.661157 C42.2169231,70.6016529 43.0061538,70.5421488 43.7538462,70.4826446 C43.9338462,70.4677686 44.1,70.6165289 44.1138462,70.8099174 C44.1276923,71.0033058 43.9892308,71.1818182 43.8092308,71.1966942 C43.0615385,71.2561983 42.2584615,71.3305785 41.4138462,71.3752066 C41.4138462,71.3752066 41.4,71.3752066 41.4,71.3752066 Z M46.1769231,70.9438017 C46.0107692,70.9438017 45.8723077,70.8099174 45.8446154,70.631405 C45.8169231,70.4380165 45.9553846,70.2595041 46.1353846,70.2297521 C46.9938462,70.1256198 47.7830769,70.0066116 48.4892308,69.8727273 C48.6692308,69.8429752 48.8353846,69.9768595 48.8769231,70.1702479 C48.9046154,70.3636364 48.78,70.5421488 48.6,70.5867769 C47.88,70.7206612 47.0769231,70.8396694 46.2046154,70.9438017 C46.2046154,70.9438017 46.1907692,70.9438017 46.1769231,70.9438017 Z M50.8846154,70.0214876 C50.7461538,70.0214876 50.6076923,69.9173554 50.5661538,69.768595 C50.5107692,69.5752066 50.6215385,69.3818182 50.7876923,69.322314 C51.7430769,69.0247934 52.4353846,68.6975207 52.8230769,68.3256198 C52.9615385,68.1917355 53.1692308,68.2214876 53.2938462,68.3702479 C53.4184615,68.5190083 53.3907692,68.7421488 53.2523077,68.8760331 C52.7815385,69.307438 52.0338462,69.6793388 50.9676923,70.0066116 C50.9538462,70.0214876 50.9261538,70.0214876 50.8846154,70.0214876 Z" id="Shape" fill="#CE2128"></path>
                <g transform="translate(5.815385, 0.000000)">
                    <path d="M17.8338462,6.85785124 C12.4615385,8.03305785 6.95076923,12.6446281 6.49384615,15.4413223 C6.03692308,18.2380165 4.61076923,24.1140496 3.84923077,29.0826446 C3.08769231,34.0512397 1.88307692,39.3768595 1.81384615,42.6347107 C1.74461538,45.892562 0.678461538,61.1553719 0.373846154,71.2710744 L8.15538462,71.6280992 C8.37692308,65.9305785 9.44307692,47.6033058 9.96923077,44.8809917 C10.4953846,42.1735537 11.4092308,36.9371901 12.9876923,30.6 L12.78,68.8760331 C17.0861538,70.5867769 21.8076923,71.3157025 27.3184615,71.3157025 L27.3738462,69.8578512 L28.6753846,69.9768595 L28.6753846,71.3157025 C34.1861538,71.3157025 38.7415385,70.5867769 43.0476923,68.8760331 L42.8261538,30.614876 C44.4184615,36.9371901 45.3184615,42.1735537 45.8446154,44.8958678 C46.3707692,47.6033058 47.4369231,65.9454545 47.6584615,71.6429752 L55.44,71.2859504 C55.1353846,61.1702479 54.0830769,45.892562 54,42.6495868 C53.9307692,39.3917355 52.7123077,34.0661157 51.9646154,29.0975207 C51.2030769,24.1289256 49.7769231,18.2528926 49.32,15.4561983 C48.8630769,12.6595041 43.3523077,8.04793388 37.98,6.87272727 C37.98,6.87272727 34.9615385,2.05289256 34.5876923,1.5322314 C34.2138462,1.01157025 32.0123077,0.416528926 29.52,0.416528926 C27.0276923,0.416528926 22.8876923,0.252892562 21.2261538,1.56198347 C19.5646154,2.87107438 17.8338462,6.85785124 17.8338462,6.85785124 Z" id="Shape" fill="#CC9E5D"></path>
                    <path d="M27.4015385,5.29586777 C27.4015385,5.2661157 27.4015385,5.2214876 27.4015385,5.19173554 C21.6830769,5.50413223 21.7246154,5.05785124 21.96,7.18512397 C22.1953846,9.31239669 25.4215385,21.614876 26.3907692,25.0363636 C27.3738462,28.4578512 27.8446154,28.6363636 27.8446154,28.6363636 C27.8446154,28.6363636 27.8446154,28.6214876 27.8446154,28.6066116 C27.8861538,28.6363636 27.9276923,28.6363636 27.9276923,28.6363636 C27.9276923,28.6363636 28.4123077,28.4578512 29.3815385,25.0363636 C30.3646154,21.614876 33.5215385,9.29752066 33.8123077,7.18512397 C34.2,4.52231405 32.8430769,5.5785124 27.4015385,5.29586777 Z" id="Shape" fill="#50382B"></path>
                    <path d="M21.9184615,0.892561983 C21.2123077,1.5322314 21.1984615,5.54876033 21.9461538,5.71239669 C22.68,5.87603306 26.5430769,5.19173554 28.2046154,5.2214876 C29.3123077,5.23636364 32.4969231,5.89090909 33.8953846,5.2214876 C34.5876923,4.89421488 34.1723077,3.6892562 34.1723077,3.00495868 C34.2138462,1.38347107 34.4630769,0.788429752 33.1338462,0.684297521 C31.8046154,0.580165289 24.0230769,0.19338843 21.9184615,0.892561983 Z" id="Shape" fill="#936145"></path>
                    <path d="M21.6138462,0.981818182 C19.8692308,3.24297521 15.7153846,11.0082645 15.0369231,12.6297521 C17.3076923,12.6297521 20.4784615,12.6297521 20.4784615,12.6297521 L18.3184615,15.6049587 L27.3876923,28.4727273 C27.3876923,28.4727273 23.3446154,14.6975207 22.6661538,11.4396694 C21.9876923,8.18181818 21.3923077,3.6 21.6138462,0.981818182 Z" id="Shape" fill="#936145"></path>
                    <g opacity="0.2" transform="translate(0.276923, 1.190083)" fill="#FFFFFF" id="Shape">
                        <path d="M21.6,5.6677686 C18.2215385,9.1785124 16.2553846,10.4280992 14.76,11.3057851 C13.2646154,12.1834711 10.2046154,11.5289256 8.91692308,17.9553719 C7.62923077,24.3818182 4.88769231,35.6429752 4.65230769,40.7603306 C4.41692308,45.877686 3.43384615,67.8942149 3.25384615,70.2297521 C2.21538462,70.185124 0.110769231,70.0809917 0.110769231,70.0809917 L0.706153846,56.9900826 C0.706153846,56.9900826 1.55076923,40.5520661 1.73076923,39.2132231 C1.91076923,37.8892562 6.24461538,14.2363636 6.24461538,14.2363636 C6.24461538,14.2363636 7.56,11.6033058 8.41846154,10.8 C9.27692308,9.99669421 14.2753846,6.08429752 17.9861538,5.29586777 C18.5676923,3.6446281 21.1430769,0.0892561983 21.1430769,0.0892561983 L21.6,5.6677686 Z"></path>
                    </g>
                    <path d="M34.2,0.981818182 C35.9446154,3.24297521 40.0984615,11.0082645 40.7769231,12.6297521 C38.5061538,12.6297521 35.3353846,12.6297521 35.3353846,12.6297521 L37.4953846,15.6049587 L28.3846154,28.6214876 C28.3846154,28.6214876 32.4553846,14.7123967 33.1338462,11.4545455 C33.8123077,8.21157025 34.4215385,3.6 34.2,0.981818182 Z" id="Shape" fill="#936145"></path>
                    <polygon id="Shape" fill="#936145" points="0.636923077 66.4363636 8.34923077 66.7785124 8.16923077 71.6280992 0.373846154 71.2710744"></polygon>
                    <polygon id="Shape" fill="#936145" points="55.0661538 66.4363636 47.3538462 66.7785124 47.5338462 71.6280992 55.3292308 71.2710744"></polygon>
                    <g transform="translate(14.815385, 53.553719)" fill="#936145" id="Shape">
                        <polygon points="21.9738462 0.104132231 26.1415385 10.5322314 24.84 12.5107438 20.0630769 1.36859504"></polygon>
                        <polygon points="4.20923077 0.104132231 0.0415384615 10.5322314 1.34307692 12.5107438 6.12 1.36859504"></polygon>
                    </g>
                    <g transform="translate(26.446154, 27.966942)">
                        <g>
                            <g transform="translate(0.553846, 12.793388)" fill="#010101" id="Shape">
                                <path d="M1.38461538,20.6479339 L0.401538462,20.6479339 C0.249230769,20.6479339 0.124615385,20.5140496 0.124615385,20.3504132 C0.124615385,20.1867769 0.249230769,20.0528926 0.401538462,20.0528926 L1.38461538,20.0528926 C1.53692308,20.0528926 1.66153846,20.1867769 1.66153846,20.3504132 C1.66153846,20.5140496 1.53692308,20.6479339 1.38461538,20.6479339 Z"></path>
                                <path d="M1.38461538,19.3983471 L0.401538462,19.3983471 C0.249230769,19.3983471 0.124615385,19.2644628 0.124615385,19.1008264 C0.124615385,18.9371901 0.249230769,18.8033058 0.401538462,18.8033058 L1.38461538,18.8033058 C1.53692308,18.8033058 1.66153846,18.9371901 1.66153846,19.1008264 C1.66153846,19.2644628 1.53692308,19.3983471 1.38461538,19.3983471 Z"></path>
                                <path d="M1.38461538,18.1487603 L0.401538462,18.1487603 C0.249230769,18.1487603 0.124615385,18.014876 0.124615385,17.8512397 C0.124615385,17.6876033 0.249230769,17.553719 0.401538462,17.553719 L1.38461538,17.553719 C1.53692308,17.553719 1.66153846,17.6876033 1.66153846,17.8512397 C1.66153846,18.014876 1.53692308,18.1487603 1.38461538,18.1487603 Z"></path>
                                <path d="M1.38461538,16.8842975 L0.401538462,16.8842975 C0.249230769,16.8842975 0.124615385,16.7504132 0.124615385,16.5867769 C0.124615385,16.4231405 0.249230769,16.2892562 0.401538462,16.2892562 L1.38461538,16.2892562 C1.53692308,16.2892562 1.66153846,16.4231405 1.66153846,16.5867769 C1.66153846,16.7504132 1.53692308,16.8842975 1.38461538,16.8842975 Z"></path>
                                <path d="M1.38461538,15.6347107 L0.401538462,15.6347107 C0.249230769,15.6347107 0.124615385,15.5008264 0.124615385,15.3371901 C0.124615385,15.1735537 0.249230769,15.0396694 0.401538462,15.0396694 L1.38461538,15.0396694 C1.53692308,15.0396694 1.66153846,15.1735537 1.66153846,15.3371901 C1.66153846,15.5008264 1.53692308,15.6347107 1.38461538,15.6347107 Z"></path>
                                <path d="M1.38461538,14.385124 L0.401538462,14.385124 C0.249230769,14.385124 0.124615385,14.2512397 0.124615385,14.0876033 C0.124615385,13.9239669 0.249230769,13.7900826 0.401538462,13.7900826 L1.38461538,13.7900826 C1.53692308,13.7900826 1.66153846,13.9239669 1.66153846,14.0876033 C1.66153846,14.2512397 1.53692308,14.385124 1.38461538,14.385124 Z"></path>
                                <path d="M1.38461538,13.1504132 L0.401538462,13.1504132 C0.249230769,13.1504132 0.124615385,13.0165289 0.124615385,12.8528926 C0.124615385,12.6892562 0.249230769,12.5553719 0.401538462,12.5553719 L1.38461538,12.5553719 C1.53692308,12.5553719 1.66153846,12.6892562 1.66153846,12.8528926 C1.66153846,13.0165289 1.53692308,13.1504132 1.38461538,13.1504132 Z"></path>
                                <path d="M1.38461538,11.8859504 L0.401538462,11.8859504 C0.249230769,11.8859504 0.124615385,11.7520661 0.124615385,11.5884298 C0.124615385,11.4247934 0.249230769,11.2909091 0.401538462,11.2909091 L1.38461538,11.2909091 C1.53692308,11.2909091 1.66153846,11.4247934 1.66153846,11.5884298 C1.66153846,11.7520661 1.53692308,11.8859504 1.38461538,11.8859504 Z"></path>
                                <path d="M1.38461538,10.6363636 L0.401538462,10.6363636 C0.249230769,10.6363636 0.124615385,10.5024793 0.124615385,10.338843 C0.124615385,10.1752066 0.249230769,10.0413223 0.401538462,10.0413223 L1.38461538,10.0413223 C1.53692308,10.0413223 1.66153846,10.1752066 1.66153846,10.338843 C1.66153846,10.5024793 1.53692308,10.6363636 1.38461538,10.6363636 Z"></path>
                                <path d="M1.38461538,9.38677686 L0.401538462,9.38677686 C0.249230769,9.38677686 0.124615385,9.25289256 0.124615385,9.0892562 C0.124615385,8.92561983 0.249230769,8.79173554 0.401538462,8.79173554 L1.38461538,8.79173554 C1.53692308,8.79173554 1.66153846,8.92561983 1.66153846,9.0892562 C1.66153846,9.25289256 1.53692308,9.38677686 1.38461538,9.38677686 Z"></path>
                                <path d="M1.38461538,8.13719008 L0.401538462,8.13719008 C0.249230769,8.13719008 0.124615385,8.00330579 0.124615385,7.83966942 C0.124615385,7.67603306 0.249230769,7.54214876 0.401538462,7.54214876 L1.38461538,7.54214876 C1.53692308,7.54214876 1.66153846,7.67603306 1.66153846,7.83966942 C1.66153846,8.00330579 1.53692308,8.13719008 1.38461538,8.13719008 Z"></path>
                                <path d="M1.38461538,6.87272727 L0.401538462,6.87272727 C0.249230769,6.87272727 0.124615385,6.73884298 0.124615385,6.57520661 C0.124615385,6.41157025 0.249230769,6.27768595 0.401538462,6.27768595 L1.38461538,6.27768595 C1.53692308,6.27768595 1.66153846,6.41157025 1.66153846,6.57520661 C1.66153846,6.73884298 1.53692308,6.87272727 1.38461538,6.87272727 Z"></path>
                                <path d="M1.38461538,5.6231405 L0.401538462,5.6231405 C0.249230769,5.6231405 0.124615385,5.4892562 0.124615385,5.32561983 C0.124615385,5.16198347 0.249230769,5.02809917 0.401538462,5.02809917 L1.38461538,5.02809917 C1.53692308,5.02809917 1.66153846,5.16198347 1.66153846,5.32561983 C1.66153846,5.4892562 1.53692308,5.6231405 1.38461538,5.6231405 Z"></path>
                                <path d="M1.38461538,4.37355372 L0.401538462,4.37355372 C0.249230769,4.37355372 0.124615385,4.23966942 0.124615385,4.07603306 C0.124615385,3.91239669 0.249230769,3.7785124 0.401538462,3.7785124 L1.38461538,3.7785124 C1.53692308,3.7785124 1.66153846,3.91239669 1.66153846,4.07603306 C1.66153846,4.23966942 1.53692308,4.37355372 1.38461538,4.37355372 Z"></path>
                                <path d="M1.38461538,3.12396694 L0.401538462,3.12396694 C0.249230769,3.12396694 0.124615385,2.99008264 0.124615385,2.82644628 C0.124615385,2.66280992 0.249230769,2.52892562 0.401538462,2.52892562 L1.38461538,2.52892562 C1.53692308,2.52892562 1.66153846,2.66280992 1.66153846,2.82644628 C1.66153846,2.99008264 1.53692308,3.12396694 1.38461538,3.12396694 Z"></path>
                                <path d="M1.38461538,1.85950413 L0.401538462,1.85950413 C0.249230769,1.85950413 0.124615385,1.72561983 0.124615385,1.56198347 C0.124615385,1.39834711 0.249230769,1.26446281 0.401538462,1.26446281 L1.38461538,1.26446281 C1.53692308,1.26446281 1.66153846,1.39834711 1.66153846,1.56198347 C1.66153846,1.72561983 1.53692308,1.85950413 1.38461538,1.85950413 Z"></path>
                                <path d="M1.38461538,0.609917355 L0.401538462,0.609917355 C0.249230769,0.609917355 0.124615385,0.476033058 0.124615385,0.312396694 C0.124615385,0.148760331 0.249230769,0.0148760331 0.401538462,0.0148760331 L1.38461538,0.0148760331 C1.53692308,0.0148760331 1.66153846,0.148760331 1.66153846,0.312396694 C1.66153846,0.476033058 1.53692308,0.609917355 1.38461538,0.609917355 Z"></path>
                            </g>
                            <path d="M1.93846154,12.168595 L0.955384615,12.168595 C0.803076923,12.168595 0.678461538,12.0347107 0.678461538,11.8710744 C0.678461538,11.707438 0.803076923,11.5735537 0.955384615,11.5735537 L1.93846154,11.5735537 C2.09076923,11.5735537 2.21538462,11.707438 2.21538462,11.8710744 C2.21538462,12.0347107 2.09076923,12.168595 1.93846154,12.168595 Z" id="Shape" fill="#010101"></path>
                            <path d="M1.93846154,10.9190083 L0.955384615,10.9190083 C0.803076923,10.9190083 0.678461538,10.785124 0.678461538,10.6214876 C0.678461538,10.4578512 0.803076923,10.3239669 0.955384615,10.3239669 L1.93846154,10.3239669 C2.09076923,10.3239669 2.21538462,10.4578512 2.21538462,10.6214876 C2.21538462,10.785124 2.09076923,10.9190083 1.93846154,10.9190083 Z" id="Shape" fill="#010101"></path>
                            <path d="M1.93846154,9.65454545 L0.955384615,9.65454545 C0.803076923,9.65454545 0.678461538,9.52066116 0.678461538,9.35702479 C0.678461538,9.19338843 0.803076923,9.05950413 0.955384615,9.05950413 L1.93846154,9.05950413 C2.09076923,9.05950413 2.21538462,9.19338843 2.21538462,9.35702479 C2.21538462,9.52066116 2.09076923,9.65454545 1.93846154,9.65454545 Z" id="Shape" fill="#010101"></path>
                            <path d="M1.93846154,8.40495868 L0.955384615,8.40495868 C0.803076923,8.40495868 0.678461538,8.27107438 0.678461538,8.10743802 C0.678461538,7.94380165 0.803076923,7.80991736 0.955384615,7.80991736 L1.93846154,7.80991736 C2.09076923,7.80991736 2.21538462,7.94380165 2.21538462,8.10743802 C2.21538462,8.27107438 2.09076923,8.40495868 1.93846154,8.40495868 Z" id="Shape" fill="#010101"></path>
                            <path d="M1.93846154,7.1553719 L0.955384615,7.1553719 C0.803076923,7.1553719 0.678461538,7.0214876 0.678461538,6.85785124 C0.678461538,6.69421488 0.803076923,6.56033058 0.955384615,6.56033058 L1.93846154,6.56033058 C2.09076923,6.56033058 2.21538462,6.69421488 2.21538462,6.85785124 C2.21538462,7.0214876 2.09076923,7.1553719 1.93846154,7.1553719 Z" id="Shape" fill="#010101"></path>
                            <path d="M1.93846154,5.90578512 L0.955384615,5.90578512 C0.803076923,5.90578512 0.678461538,5.77190083 0.678461538,5.60826446 C0.678461538,5.4446281 0.803076923,5.3107438 0.955384615,5.3107438 L1.93846154,5.3107438 C2.09076923,5.3107438 2.21538462,5.4446281 2.21538462,5.60826446 C2.21538462,5.77190083 2.09076923,5.90578512 1.93846154,5.90578512 Z" id="Shape" fill="#010101"></path>
                            <path d="M1.93846154,4.64132231 L0.955384615,4.64132231 C0.803076923,4.64132231 0.678461538,4.50743802 0.678461538,4.34380165 C0.678461538,4.18016529 0.803076923,4.04628099 0.955384615,4.04628099 L1.93846154,4.04628099 C2.09076923,4.04628099 2.21538462,4.18016529 2.21538462,4.34380165 C2.21538462,4.50743802 2.09076923,4.64132231 1.93846154,4.64132231 Z" id="Shape" fill="#010101"></path>
                            <path d="M1.93846154,3.39173554 L0.955384615,3.39173554 C0.803076923,3.39173554 0.678461538,3.25785124 0.678461538,3.09421488 C0.678461538,2.93057851 0.803076923,2.79669421 0.955384615,2.79669421 L1.93846154,2.79669421 C2.09076923,2.79669421 2.21538462,2.93057851 2.21538462,3.09421488 C2.21538462,3.25785124 2.09076923,3.39173554 1.93846154,3.39173554 Z" id="Shape" fill="#010101"></path>
                            <rect id="Rectangle-path" fill="#010101" x="0.678461538" y="0.104132231" width="1.60615385" height="2.88595041"></rect>
                            <polygon id="Shape" fill="#010101" points="1.19076923 1.54710744 0.0138461538 4.79008264 2.89384615 4.79008264 1.68923077 1.54710744"></polygon>
                            <ellipse id="Oval" fill="#CC9E5D" cx="1.48153846" cy="3.65950413" rx="1" ry="1"></ellipse>
                        </g>
                        <path d="M1.93846154,34.6909091 L0.955384615,34.6909091 C0.803076923,34.6909091 0.678461538,34.5570248 0.678461538,34.3933884 C0.678461538,34.2297521 0.803076923,34.0958678 0.955384615,34.0958678 L1.93846154,34.0958678 C2.09076923,34.0958678 2.21538462,34.2297521 2.21538462,34.3933884 C2.21538462,34.5570248 2.09076923,34.6909091 1.93846154,34.6909091 Z" id="Shape" fill="#010101"></path>
                    </g>
                    <g transform="translate(27.000000, 62.033058)" fill="#010101" id="Shape">
                        <g transform="translate(0.000000, 1.190083)">
                            <path d="M1.41230769,0.684297521 L0.415384615,0.684297521 C0.263076923,0.684297521 0.138461538,0.550413223 0.138461538,0.38677686 C0.138461538,0.223140496 0.263076923,0.0892561983 0.415384615,0.0892561983 L1.39846154,0.0892561983 C1.55076923,0.0892561983 1.67538462,0.223140496 1.67538462,0.38677686 C1.67538462,0.550413223 1.56461538,0.684297521 1.41230769,0.684297521 Z"></path>
                            <path d="M1.41230769,1.9338843 L0.415384615,1.9338843 C0.263076923,1.9338843 0.138461538,1.8 0.138461538,1.63636364 C0.138461538,1.47272727 0.263076923,1.33884298 0.415384615,1.33884298 L1.39846154,1.33884298 C1.55076923,1.33884298 1.67538462,1.47272727 1.67538462,1.63636364 C1.67538462,1.8 1.56461538,1.9338843 1.41230769,1.9338843 Z"></path>
                            <path d="M1.41230769,3.16859504 L0.415384615,3.16859504 C0.263076923,3.16859504 0.138461538,3.03471074 0.138461538,2.87107438 C0.138461538,2.70743802 0.263076923,2.57355372 0.415384615,2.57355372 L1.39846154,2.57355372 C1.55076923,2.57355372 1.67538462,2.70743802 1.67538462,2.87107438 C1.67538462,3.03471074 1.56461538,3.16859504 1.41230769,3.16859504 Z"></path>
                            <path d="M1.41230769,4.43305785 L0.415384615,4.43305785 C0.263076923,4.43305785 0.138461538,4.29917355 0.138461538,4.13553719 C0.138461538,3.97190083 0.263076923,3.83801653 0.415384615,3.83801653 L1.39846154,3.83801653 C1.55076923,3.83801653 1.67538462,3.97190083 1.67538462,4.13553719 C1.67538462,4.29917355 1.56461538,4.43305785 1.41230769,4.43305785 Z"></path>
                            <path d="M1.41230769,5.68264463 L0.415384615,5.68264463 C0.263076923,5.68264463 0.138461538,5.54876033 0.138461538,5.38512397 C0.138461538,5.2214876 0.263076923,5.08760331 0.415384615,5.08760331 L1.39846154,5.08760331 C1.55076923,5.08760331 1.67538462,5.2214876 1.67538462,5.38512397 C1.67538462,5.54876033 1.56461538,5.68264463 1.41230769,5.68264463 Z"></path>
                            <path d="M0.36,8.39008264 C0.207692308,8.39008264 0.0830769231,8.25619835 0.0830769231,8.09256198 L0.0830769231,6.63471074 C0.0830769231,6.47107438 0.207692308,6.33719008 0.36,6.33719008 L1.66153846,6.33719008 C1.81384615,6.33719008 1.93846154,6.47107438 1.93846154,6.63471074 C1.93846154,6.79834711 1.81384615,6.9322314 1.66153846,6.9322314 L0.636923077,6.9322314 L0.636923077,8.09256198 C0.650769231,8.25619835 0.526153846,8.39008264 0.36,8.39008264 Z"></path>
                        </g>
                        <path d="M1.41230769,0.624793388 L0.415384615,0.624793388 C0.263076923,0.624793388 0.138461538,0.490909091 0.138461538,0.327272727 C0.138461538,0.163636364 0.263076923,0.0297520661 0.415384615,0.0297520661 L1.39846154,0.0297520661 C1.55076923,0.0297520661 1.67538462,0.163636364 1.67538462,0.327272727 C1.67538462,0.490909091 1.56461538,0.624793388 1.41230769,0.624793388 Z"></path>
                    </g>
                    <path d="M27.4015385,28.8446281 C27.3046154,28.8446281 27.2076923,28.8 27.1384615,28.7107438 L18.0692308,15.8429752 C17.9861538,15.7239669 17.9861538,15.5454545 18.0692308,15.4264463 L19.8138462,13.0016529 L15.0369231,13.0016529 C14.9261538,13.0016529 14.8292308,12.9421488 14.76,12.8380165 C14.7046154,12.7338843 14.6907692,12.614876 14.7323077,12.5107438 C15.4246154,10.8446281 19.5923077,3.06446281 21.3507692,0.773553719 C21.4476923,0.654545455 21.6,0.609917355 21.7246154,0.669421488 C21.8492308,0.72892562 21.9323077,0.87768595 21.9184615,1.02644628 C21.6969231,3.62975207 22.3061538,8.22644628 22.9707692,11.3950413 C23.6353846,14.5933884 27.6369231,28.2644628 27.6784615,28.3983471 C27.72,28.5619835 27.6646154,28.7404959 27.5123077,28.814876 C27.4984615,28.8297521 27.4430769,28.8446281 27.4015385,28.8446281 Z M18.7338462,15.6198347 L26.5292308,26.6876033 C25.3938462,22.7752066 22.8876923,14.0727273 22.3615385,11.5438017 C21.78,8.7322314 21.2261538,4.81983471 21.2538462,2.09752066 C19.5092308,4.74545455 16.5323077,10.2644628 15.5630769,12.3024793 L20.4923077,12.3024793 C20.6169231,12.3024793 20.7276923,12.3768595 20.7830769,12.4958678 C20.8384615,12.614876 20.8246154,12.7636364 20.7415385,12.8677686 L18.7338462,15.6198347 Z" id="Shape" fill="#010101"></path>
                    <path d="M8.16923077,71.985124 C8.16923077,71.985124 8.15538462,71.985124 8.15538462,71.985124 L0.373846154,71.6280992 C0.193846154,71.6132231 0.0553846154,71.4644628 0.0692307692,71.2710744 C0.249230769,65.0677686 0.733846154,56.8115702 1.08,50.8016529 C1.30153846,46.9338843 1.48153846,43.8842975 1.50923077,42.6347107 C1.56461538,40.4479339 2.11846154,37.368595 2.7,34.0958678 C2.99076923,32.4297521 3.30923077,30.7190083 3.55846154,29.0380165 C4.01538462,26.077686 4.68,22.8793388 5.27538462,20.0528926 C5.67692308,18.1636364 6.02307692,16.5272727 6.20307692,15.3966942 C6.67384615,12.5107438 12.2261538,7.75041322 17.7923077,6.53057851 C17.9723077,6.48595041 18.1384615,6.61983471 18.18,6.79834711 C18.2215385,6.99173554 18.0969231,7.17024793 17.9307692,7.21487603 C12.7246154,8.36033058 7.28307692,12.8528926 6.84,15.5157025 C6.66,16.661157 6.31384615,18.2975207 5.91230769,20.2016529 C5.31692308,23.0132231 4.65230769,26.2115702 4.19538462,29.1570248 C3.94615385,30.8380165 3.62769231,32.5636364 3.33692308,34.2297521 C2.75538462,37.4727273 2.21538462,40.5371901 2.16,42.6644628 C2.13230769,43.9289256 1.95230769,46.9785124 1.73076923,50.861157 C1.38461538,56.7669421 0.927692308,64.814876 0.733846154,70.9735537 L7.87846154,71.3008264 C8.11384615,65.5735537 9.13846154,47.6330579 9.67846154,44.8512397 C9.77538462,44.3752066 9.87230769,43.8396694 9.98307692,43.2297521 C10.5369231,40.2694215 11.3815385,35.8066116 12.6969231,30.5553719 C12.7384615,30.3917355 12.8907692,30.2727273 13.0569231,30.3024793 C13.2230769,30.3322314 13.3338462,30.4809917 13.3338462,30.6446281 L13.1123077,68.6677686 C17.1969231,70.2595041 21.7246154,71.0033058 27.3184615,71.0033058 C27.4984615,71.0033058 27.6369231,71.1520661 27.6369231,71.3454545 C27.6369231,71.538843 27.4984615,71.6876033 27.3184615,71.6876033 C21.5446154,71.6876033 16.8923077,70.8991736 12.6692308,69.2330579 C12.5446154,69.1884298 12.4615385,69.0545455 12.4615385,68.9057851 L12.6692308,33.4413223 C11.7276923,37.4876033 11.0769231,40.938843 10.62,43.3636364 C10.5092308,43.9735537 10.3984615,44.5239669 10.3153846,45 C9.80307692,47.6181818 8.75076923,65.692562 8.50153846,71.6876033 C8.50153846,71.7768595 8.46,71.8661157 8.39076923,71.9256198 C8.32153846,71.9404959 8.25230769,71.985124 8.16923077,71.985124 Z" id="Shape" fill="#010101"></path>
                    <path d="M28.3846154,28.9785124 C28.3292308,28.9785124 28.2876923,28.9636364 28.2323077,28.9338843 C28.0938462,28.8595041 28.0246154,28.6809917 28.0661538,28.5173554 C28.1076923,28.3834711 32.1369231,14.5785124 32.8153846,11.3801653 C33.48,8.21157025 34.0892308,3.6 33.8676923,1.01157025 C33.8538462,0.862809917 33.9369231,0.714049587 34.0615385,0.654545455 C34.1861538,0.595041322 34.3384615,0.639669421 34.4353846,0.758677686 C36.1938462,3.04958678 40.3615385,10.8297521 41.0538462,12.4958678 C41.0953846,12.6 41.0953846,12.7338843 41.0261538,12.8231405 C40.9707692,12.9272727 40.86,12.9867769 40.7492308,12.9867769 L35.9723077,12.9867769 L37.7169231,15.4115702 C37.8,15.5305785 37.8138462,15.7090909 37.7169231,15.8280992 L28.62,28.8446281 C28.5784615,28.9190083 28.4815385,28.9785124 28.3846154,28.9785124 Z M34.5738462,2.08264463 C34.5876923,4.80495868 34.0476923,8.7322314 33.4661538,11.5289256 C32.94,14.0578512 30.4061538,22.8495868 29.2707692,26.7917355 L37.0938462,15.6049587 L35.0861538,12.8380165 C35.0169231,12.7338843 35.0030769,12.585124 35.0446154,12.4661157 C35.1,12.3471074 35.2107692,12.2727273 35.3353846,12.2727273 L40.2646154,12.2727273 C39.2815385,10.2495868 36.3184615,4.73057851 34.5738462,2.08264463 Z" id="Shape" fill="#010101"></path>
                    <path d="M47.6446154,71.985124 C47.5615385,71.985124 47.4923077,71.9553719 47.4230769,71.8958678 C47.3538462,71.8363636 47.3261538,71.7471074 47.3123077,71.6578512 C47.0769231,65.6628099 46.0107692,47.5884298 45.4984615,44.9702479 C45.4015385,44.4942149 45.3046154,43.9586777 45.18,43.3338843 C44.7230769,40.9090909 44.0723077,37.4578512 43.1307692,33.4115702 L43.3384615,68.8760331 C43.3384615,69.0247934 43.2553846,69.1586777 43.1307692,69.2033058 C38.9215385,70.8842975 34.3107692,71.6578512 28.6476923,71.6578512 C28.4676923,71.6578512 28.3292308,71.5090909 28.3292308,71.3157025 L28.3292308,69.9768595 C28.3292308,69.7834711 28.4676923,69.6347107 28.6476923,69.6347107 C28.8276923,69.6347107 28.9661538,69.7834711 28.9661538,69.9768595 L28.9661538,70.9735537 C34.3107692,70.9438017 38.6861538,70.2 42.6876923,68.6380165 L42.4661538,30.614876 C42.4661538,30.4363636 42.5907692,30.2876033 42.7430769,30.2727273 C42.9092308,30.2429752 43.0615385,30.3619835 43.1030769,30.5256198 C44.4184615,35.7619835 45.2630769,40.2247934 45.8169231,43.185124 C45.9276923,43.7950413 46.0384615,44.3454545 46.1215385,44.8214876 C46.6615385,47.6033058 47.6861538,65.5438017 47.9215385,71.2710744 L55.0661538,70.9438017 C54.8723077,64.785124 54.4153846,56.7371901 54.0692308,50.831405 C53.8476923,46.9636364 53.6676923,43.8991736 53.64,42.6347107 C53.5846154,40.507438 53.0446154,37.4429752 52.4630769,34.2 C52.1723077,32.5338843 51.8538462,30.8082645 51.6046154,29.1272727 C51.1615385,26.1818182 50.4830769,22.9983471 49.8876923,20.1719008 C49.4861538,18.2677686 49.14,16.631405 48.96,15.4859504 C48.5307692,12.8231405 43.0753846,8.31570248 37.8692308,7.18512397 C37.6892308,7.14049587 37.5784615,6.96198347 37.62,6.76859504 C37.6615385,6.57520661 37.8276923,6.45619835 38.0076923,6.50082645 C43.5738462,7.72066116 49.1261538,12.4809917 49.5969231,15.3669421 C49.7769231,16.4975207 50.1230769,18.1338843 50.5246154,20.0231405 C51.12,22.8495868 51.7984615,26.0628099 52.2415385,29.0082645 C52.4907692,30.6892562 52.8092308,32.4 53.1,34.0661157 C53.6815385,37.338843 54.2353846,40.4330579 54.2907692,42.6049587 C54.3184615,43.8545455 54.4984615,46.9041322 54.72,50.7719008 C55.0661538,56.7966942 55.5369231,65.0380165 55.7307692,71.2413223 C55.7307692,71.4347107 55.5923077,71.5983471 55.4261538,71.5983471 L47.6446154,71.9553719 C47.6584615,71.985124 47.6584615,71.985124 47.6446154,71.985124 Z" id="Shape" fill="#010101"></path>
                    <path d="M21.6138462,1.32396694 C21.4753846,1.32396694 21.3507692,1.23471074 21.3092308,1.08595041 C21.2538462,0.907438017 21.3507692,0.714049587 21.5169231,0.654545455 C24.0646154,-0.19338843 31.9569231,-0.0743801653 34.2830769,0.654545455 C34.4492308,0.714049587 34.56,0.907438017 34.5046154,1.08595041 C34.4492308,1.26446281 34.2692308,1.38347107 34.1030769,1.32396694 C31.9015385,0.624793388 24.12,0.520661157 21.7107692,1.32396694 C21.6830769,1.32396694 21.6553846,1.32396694 21.6138462,1.32396694 Z" id="Shape" fill="#010101"></path>
                    <path d="M21.8353846,6.08429752 C21.6969231,6.08429752 21.5584615,5.98016529 21.5169231,5.81652893 C21.4753846,5.6231405 21.5723077,5.4446281 21.7523077,5.38512397 C24.7984615,4.53719008 31.5,4.76033058 33.9784615,5.20661157 C34.1584615,5.23636364 34.2692308,5.41487603 34.2415385,5.60826446 C34.2138462,5.80165289 34.0476923,5.92066116 33.8676923,5.89090909 C31.5,5.47438017 24.8261538,5.25123967 21.9046154,6.06942149 C21.8907692,6.08429752 21.8630769,6.08429752 21.8353846,6.08429752 Z" id="Shape" fill="#010101"></path>
                    <g transform="translate(14.400000, 53.256198)" fill="#010101" id="Shape">
                        <path d="M25.2553846,13.1504132 C25.2415385,13.1504132 25.2415385,13.1504132 25.2276923,13.1504132 C25.1169231,13.1355372 25.0061538,13.061157 24.9646154,12.9421488 L20.1876923,1.8 C20.1184615,1.63636364 20.1738462,1.44297521 20.3123077,1.35371901 L22.2230769,0.0892561983 C22.3061538,0.0297520661 22.4030769,0.0297520661 22.4861538,0.0595041322 C22.5692308,0.0892561983 22.6523077,0.163636364 22.68,0.252892562 L26.8476923,10.6809917 C26.8892308,10.8 26.8753846,10.9190083 26.82,11.0231405 L25.5184615,12.9867769 C25.4630769,13.0909091 25.3523077,13.1504132 25.2553846,13.1504132 Z M20.8938462,1.8 L25.3246154,12.1090909 L26.1969231,10.785124 L22.2507692,0.907438017 L20.8938462,1.8 Z"></path>
                        <path d="M1.75846154,13.1504132 C1.64769231,13.1504132 1.55076923,13.0909091 1.49538462,13.0016529 L0.193846154,11.0380165 C0.124615385,10.9338843 0.110769231,10.814876 0.166153846,10.6958678 L4.33384615,0.267768595 C4.37538462,0.178512397 4.44461538,0.104132231 4.52769231,0.0743801653 C4.61076923,0.0446280992 4.72153846,0.0595041322 4.79076923,0.104132231 L6.70153846,1.36859504 C6.84,1.45785124 6.89538462,1.65123967 6.82615385,1.81487603 L2.04923077,12.9421488 C2.00769231,13.061157 1.89692308,13.1355372 1.78615385,13.1504132 C1.78615385,13.1504132 1.77230769,13.1504132 1.75846154,13.1504132 Z M0.830769231,10.8 L1.70307692,12.1239669 L6.13384615,1.81487603 L4.77692308,0.92231405 L0.830769231,10.8 Z"></path>
                    </g>
                    <path d="M47.4230769,67.1206612 C47.2569231,67.1206612 47.1046154,66.9719008 47.1046154,66.7933884 C47.0907692,66.6 47.2430769,66.4363636 47.4092308,66.4363636 L55.2461538,66.0942149 C55.4261538,66.0793388 55.5784615,66.2429752 55.5784615,66.4214876 C55.5923077,66.614876 55.44,66.7785124 55.2738462,66.7785124 L47.4230769,67.1206612 C47.4230769,67.1206612 47.4230769,67.1206612 47.4230769,67.1206612 Z" id="Shape" fill="#010101"></path>
                    <path d="M8.16923077,71.985124 C8.16923077,71.985124 8.15538462,71.985124 8.15538462,71.985124 L0.373846154,71.6280992 C0.290769231,71.6280992 0.207692308,71.5834711 0.152307692,71.5090909 C0.0969230769,71.4347107 0.0692307692,71.3454545 0.0692307692,71.2561983 L0.332307692,66.4214876 C0.346153846,66.2280992 0.498461538,66.0793388 0.664615385,66.0942149 L8.37692308,66.4363636 C8.55692308,66.4512397 8.69538462,66.6 8.68153846,66.7933884 L8.50153846,71.6429752 C8.50153846,71.7322314 8.46,71.8214876 8.39076923,71.8809917 C8.32153846,71.9404959 8.25230769,71.985124 8.16923077,71.985124 Z M0.72,70.9438017 L7.85076923,71.2710744 L8.00307692,67.1206612 L0.941538462,66.8082645 L0.72,70.9438017 Z" id="Shape" fill="#010101"></path>
                    <g opacity="0.1" transform="translate(12.738462, 30.495868)" fill="#010101" id="Shape">
                        <path d="M0.263076923,0.119008264 C2.09076923,4.00165289 4.68,24.6049587 4.70769231,40.0909091 C2.57538462,39.0198347 0.0415384615,38.3801653 0.0415384615,38.3801653 L0.263076923,0.119008264 Z"></path>
                    </g>
                    <g opacity="0.2" transform="translate(33.784615, 1.190083)" fill="#FFFFFF" id="Shape">
                        <path d="M0.0969230769,5.6677686 C3.47538462,9.1785124 5.44153846,10.4280992 6.93692308,11.3057851 C8.43230769,12.1834711 11.4923077,11.5289256 12.78,17.9553719 C14.0676923,24.3818182 16.8230769,35.6429752 17.0584615,40.7603306 C17.2938462,45.877686 18.2769231,67.8942149 18.4569231,70.2297521 C19.4953846,70.185124 21.6,70.0809917 21.6,70.0809917 L21.0046154,56.9900826 C21.0046154,56.9900826 20.16,40.5520661 19.98,39.2132231 C19.8,37.8892562 15.4661538,14.2363636 15.4661538,14.2363636 C15.4661538,14.2363636 14.1507692,11.6033058 13.2923077,10.8 C12.4338462,9.99669421 7.43538462,6.08429752 3.72461538,5.29586777 C3.14307692,3.6446281 0.567692308,0.0892561983 0.567692308,0.0892561983 L0.0969230769,5.6677686 Z"></path>
                    </g>
                    <g opacity="0.1" transform="translate(38.492308, 30.495868)" fill="#010101" id="Shape">
                        <path d="M4.26461538,0.119008264 C2.43692308,4.00165289 0.138461538,24.4264463 0.110769231,39.9123967 C2.24307692,38.8413223 4.48615385,38.3801653 4.48615385,38.3801653 L4.26461538,0.119008264 Z"></path>
                    </g>
                </g>
            </g>
            <g id="Group" transform="translate(0.000000, 34.809917)">
                <g id="Shape">
                    <path d="M4.41692308,11.9603306 C4.18153846,11.9603306 3.97384615,11.722314 3.97384615,11.4396694 L3.97384615,7.82479339 L0.913846154,7.82479339 C0.678461538,7.82479339 0.470769231,7.58677686 0.470769231,7.30413223 L0.470769231,5.23636364 C0.470769231,4.95371901 0.664615385,4.71570248 0.913846154,4.71570248 L3.97384615,4.71570248 L3.97384615,1.10082645 C3.97384615,0.818181818 4.16769231,0.580165289 4.41692308,0.580165289 L5.28923077,0.580165289 C5.4,0.580165289 5.51076923,0.639669421 5.59384615,0.72892562 L9.95538462,5.90578512 C10.1215385,6.11404959 10.1215385,6.44132231 9.95538462,6.63471074 L5.59384615,11.8115702 C5.51076923,11.9157025 5.4,11.9603306 5.28923077,11.9603306 L4.41692308,11.9603306 Z" fill="#FCEAAE"></path>
                    <path d="M5.28923077,1.08595041 L9.65076923,6.26280992 L5.28923077,11.4396694 L4.41692308,11.4396694 L4.41692308,7.30413223 L0.913846154,7.30413223 L0.913846154,5.23636364 L4.40307692,5.23636364 L4.40307692,1.10082645 L5.28923077,1.10082645 L5.28923077,1.08595041 Z M5.28923077,0.0595041322 L4.41692308,0.0595041322 C3.93230769,0.0595041322 3.54461538,0.520661157 3.54461538,1.10082645 L3.54461538,4.20991736 L0.913846154,4.20991736 C0.429230769,4.20991736 0.0415384615,4.67107438 0.0415384615,5.25123967 L0.0415384615,7.31900826 C0.0415384615,7.88429752 0.429230769,8.36033058 0.913846154,8.36033058 L3.53076923,8.36033058 L3.53076923,11.4694215 C3.53076923,12.0347107 3.91846154,12.5107438 4.40307692,12.5107438 L5.27538462,12.5107438 C5.51076923,12.5107438 5.73230769,12.4066116 5.89846154,12.2132231 L10.26,7.03636364 C10.6061538,6.63471074 10.6061538,5.98016529 10.26,5.5785124 L5.89846154,0.401652893 C5.74615385,0.163636364 5.51076923,0.0595041322 5.28923077,0.0595041322 Z" fill="#CE2027"></path>
                </g>
                <g transform="translate(79.338462, 0.000000)" id="Shape">
                    <path d="M5.30307692,11.9603306 C5.19230769,11.9603306 5.08153846,11.9008264 4.99846154,11.8115702 L0.636923077,6.63471074 C0.470769231,6.42644628 0.470769231,6.09917355 0.636923077,5.90578512 L4.99846154,0.72892562 C5.08153846,0.639669421 5.19230769,0.580165289 5.30307692,0.580165289 L6.17538462,0.580165289 C6.41076923,0.580165289 6.61846154,0.818181818 6.61846154,1.10082645 L6.61846154,4.71570248 L9.67846154,4.71570248 C9.91384615,4.71570248 10.1215385,4.95371901 10.1215385,5.23636364 L10.1215385,7.30413223 C10.1215385,7.58677686 9.92769231,7.82479339 9.67846154,7.82479339 L6.61846154,7.82479339 L6.61846154,11.4396694 C6.61846154,11.722314 6.42461538,11.9603306 6.17538462,11.9603306 L5.30307692,11.9603306 Z" fill="#FCEAAE"></path>
                    <path d="M5.30307692,1.08595041 L6.17538462,1.08595041 L6.17538462,5.2214876 L9.66461538,5.2214876 L9.66461538,7.2892562 L6.17538462,7.2892562 L6.17538462,11.4247934 L5.30307692,11.4247934 L0.941538462,6.24793388 L5.30307692,1.08595041 Z M5.30307692,0.0595041322 C5.06769231,0.0595041322 4.84615385,0.163636364 4.68,0.357024793 L0.318461538,5.5338843 C-0.0276923077,5.93553719 -0.0276923077,6.59008264 0.318461538,6.99173554 L4.68,12.168595 C4.84615385,12.3619835 5.06769231,12.4661157 5.30307692,12.4661157 L6.17538462,12.4661157 C6.66,12.4661157 7.04769231,12.0049587 7.04769231,11.4247934 L7.04769231,8.33057851 L9.66461538,8.33057851 C10.1492308,8.33057851 10.5369231,7.86942149 10.5369231,7.2892562 L10.5369231,5.2214876 C10.5369231,4.65619835 10.1492308,4.18016529 9.66461538,4.18016529 L7.04769231,4.18016529 L7.04769231,1.07107438 C7.04769231,0.505785124 6.66,0.0297520661 6.17538462,0.0297520661 L5.30307692,0.0297520661 L5.30307692,0.0595041322 Z" fill="#CE2027"></path>
                </g>
            </g>
        </g>
    </g>
</svg>