<?xml version="1.0" encoding="UTF-8"?>
<svg width="90px" height="90px" viewBox="0 0 90 90" version="1.1" xmlns="http://www.w3.org/2000/svg" xmlns:xlink="http://www.w3.org/1999/xlink">
    <!-- Generator: Sketch 51.2 (57519) - http://www.bohemiancoding.com/sketch -->
    <title>Slice 1</title>
    <desc>Created with Sketch.</desc>
    <defs></defs>
    <g id="Page-1" stroke="none" stroke-width="1" fill="none" fill-rule="evenodd">
        <g id="Замена-подкладки_Куртка" transform="translate(12.000000, 0.000000)" fill-rule="nonzero">
            <path d="M21.0141509,6.336 C20.0646226,6.552 19.1617925,8.874 18.2122642,9.27 C12.8886792,11.412 8.1254717,15.876 7.65849057,18.756 C7.12924528,22.14 5.41698113,29.25 4.52971698,35.262 C3.64245283,41.274 2.21037736,47.718 2.11698113,51.66 C2.02358491,55.602 0.778301887,74.07 0.420283019,86.31 L9.61981132,86.742 C9.88443396,79.848 11.145283,57.672 11.7679245,54.378 C12.390566,51.084 13.4646226,44.766 15.3481132,37.098 L14.8966981,83.304 C13.3556604,86.04 19.3485849,89.118 21.045283,89.532 C21.7924528,89.712 22.0726415,86.346 22.259434,85.482 C22.9754717,82.17 22.9754717,80.19 22.9754717,80.19 L33.4514151,79.128 C33.4514151,79.128 41.0787736,78.75 45.2193396,80.262 C48.4415094,81.432 49.6400943,81.72 50.1382075,83.952 C50.309434,83.898 51.1811321,86.778 51.3523585,86.706 C51.5080189,86.652 50.9632075,83.628 51.1188679,83.556 L50.5896226,37.062 C52.4731132,44.712 53.5316038,51.048 54.1698113,54.342 C54.7924528,57.618 56.0533019,79.812 56.3179245,86.706 L65.5174528,86.274 C65.159434,74.034 63.9141509,55.548 63.8207547,51.624 C63.7273585,47.7 62.295283,41.238 61.4080189,35.226 C60.5207547,29.214 58.8240566,22.104 58.2792453,18.72 C57.75,15.336 52.0372642,9.864 45.7018868,8.442 C45.7018868,8.442 42.1839623,2.052 40.8608491,1.872 C40.409434,1.242 37.8254717,0.54 34.8679245,0.54 C31.9103774,0.54 27.0382075,0.342 25.0768868,1.926 C23.115566,3.51 21.0141509,6.336 21.0141509,6.336 Z" id="Shape" fill="#CC9E5C"></path>
            <path d="M37.9188679,0.792 C30.0424528,-0.45 25.559434,0.252 25.1080189,2.97 C24.6566038,5.688 23.7226415,10.404 24.3764151,21.87 C25.0301887,33.336 25.575,38.25 25.2169811,45.882 C24.8589623,53.514 23.4891509,75.888 23.115566,79.092 C23.1311321,80.568 23.6603774,80.046 25.2636792,79.812 C26.8669811,79.578 37.4830189,78.444 40.5962264,79.344 C43.725,80.244 46.9938679,80.136 49.1108491,82.17 C49.5311321,81.288 48.5816038,77.634 48.1301887,73.944 C47.6787736,70.254 45.2504717,50.85 44.8924528,41.184 C44.534434,31.518 44.2698113,19.278 43.0867925,12.078 C41.9037736,4.878 41.9193396,1.278 37.9188679,0.792 Z" id="Shape" fill="#E0AF6E"></path>
            <g id="Group" opacity="0.1" transform="translate(46.542453, 37.080000)" fill="#000000">
                <path d="M3.98490566,0.036 C2.66179245,2.898 1.15188679,13.176 0.155660377,25.002 C-0.48254717,32.616 3.03537736,44.352 4.54528302,50.31 C5.41698113,47.79 4.8254717,46.404 4.8254717,46.404 L3.98490566,0.036 Z" id="Shape"></path>
            </g>
            <g id="Group" opacity="0.1" transform="translate(14.476415, 37.080000)" fill="#000000">
                <path d="M0.887264151,0.036 C3.0509434,4.734 6.95801887,33.75 6.97358491,52.488 C-1.24528302,49.662 0.202358491,46.53 0.202358491,46.53 L0.887264151,0.036 Z" id="Shape"></path>
            </g>
            <g id="Group" opacity="0.2" transform="translate(40.471698, 1.620000)" fill="#FFFFFF">
                <path d="M1.72783019,7.128 C3.4245283,9 5.05896226,11.052 5.94622642,12.096 C7.70518868,13.158 13.0287736,13.824 14.5542453,21.6 C16.079717,29.376 19.3174528,43.02 19.6132075,49.212 C19.9089623,55.404 21.0608491,82.044 21.2787736,84.87 C22.5084906,84.816 24.9990566,84.69 24.9990566,84.69 L24.2985849,68.85 C24.2985849,68.85 23.3023585,48.96 23.1,47.34 C22.8820755,45.738 17.745283,17.118 17.745283,17.118 C17.745283,17.118 16.1886792,13.932 15.1768868,12.96 C14.1650943,11.988 9.68207547,7.686 5.29245283,6.732 C4.62311321,4.734 0.14009434,0 0.14009434,0 L1.72783019,7.128 Z" id="Shape"></path>
            </g>
            <g id="Group" opacity="0.2" transform="translate(0.311321, 1.440000)" fill="#FFFFFF">
                <path d="M20.8896226,11.34 C20.8896226,11.34 19.3485849,13.032 17.4495283,13.734 C15.1768868,14.58 12.0636792,14.004 10.5537736,21.78 C9.02830189,29.556 5.775,43.182 5.49481132,49.374 C5.21462264,55.566 4.04716981,82.206 3.82924528,85.032 C2.5995283,84.978 0.108962264,84.852 0.108962264,84.852 L0.809433962,69.012 C0.809433962,69.012 1.80566038,49.122 2.00801887,47.502 C2.21037736,45.9 7.34716981,17.28 7.34716981,17.28 C7.34716981,17.28 8.90377358,14.094 9.91556604,13.122 C10.9273585,12.15 13.5113208,8.748 17.9009434,7.794 C18.5858491,5.796 24.9523585,0.162 24.9523585,0.162 L20.8896226,11.34 Z" id="Shape"></path>
            </g>
            <polygon id="Shape" fill="#936044" points="0.747169811 80.46 9.85330189 80.856 9.63537736 86.742 0.435849057 86.292"></polygon>
            <polygon id="Shape" fill="#936044" points="65.0816038 80.46 55.9599057 80.856 56.1778302 86.742 65.3929245 86.292"></polygon>
            <path d="M9.63537736,87.174 C9.63537736,87.174 9.61981132,87.174 9.61981132,87.174 L0.420283019,86.742 C0.217924528,86.724 0.0622641509,86.526 0.0622641509,86.292 C0.280188679,78.786 0.840566038,68.796 1.26084906,61.524 C1.5254717,56.844 1.72783019,53.154 1.75896226,51.642 C1.82122642,48.996 2.475,45.252 3.15990566,41.292 C3.51792453,39.276 3.8759434,37.206 4.17169811,35.172 C4.7009434,31.59 5.49481132,27.72 6.21084906,24.3 C6.67783019,22.014 7.08254717,20.034 7.3004717,18.666 C7.79858491,15.516 12.7485849,11.016 18.0877358,8.856 C18.2900943,8.784 18.4924528,8.892 18.570283,9.126 C18.6325472,9.36 18.5391509,9.594 18.3367925,9.684 C12.9198113,11.88 8.43679245,16.326 8.03207547,18.828 C7.81415094,20.214 7.40943396,22.212 6.92688679,24.498 C6.22641509,27.9 5.43254717,31.77 4.90330189,35.334 C4.60754717,37.368 4.23396226,39.456 3.89150943,41.472 C3.20660377,45.396 2.56839623,49.104 2.50613208,51.66 C2.475,53.19 2.25707547,56.88 1.99245283,61.56 C1.58773585,68.706 1.04292453,78.426 0.809433962,85.878 L9.27735849,86.274 C9.55754717,79.326 10.7716981,57.636 11.4099057,54.27 C11.5188679,53.694 11.6433962,53.046 11.7834906,52.308 C12.4372642,48.726 13.4490566,43.326 14.9900943,36.972 C15.0367925,36.756 15.2235849,36.63 15.4103774,36.666 C15.5971698,36.702 15.7372642,36.882 15.7216981,37.098 L15.0212264,84.636 C15.0212264,84.87 14.85,85.068 14.6476415,85.068 C14.6476415,85.068 14.6476415,85.068 14.6476415,85.068 C14.445283,85.068 14.2740566,84.87 14.2740566,84.636 L14.9278302,40.536 C13.8226415,45.414 13.0443396,49.572 12.5150943,52.488 C12.375,53.226 12.2504717,53.892 12.1415094,54.468 C11.534434,57.636 10.2891509,79.488 10.0089623,86.76 C10.0089623,86.994 9.83773585,87.174 9.63537736,87.174 Z" id="Shape" fill="#000000"></path>
            <path d="M56.3179245,87.174 C56.115566,87.174 55.9599057,86.994 55.9443396,86.76 C55.6641509,79.506 54.4188679,57.636 53.8117925,54.468 C53.7028302,53.892 53.5783019,53.244 53.4382075,52.488 C52.8933962,49.518 52.0995283,45.27 50.9632075,40.284 C50.9476415,49.572 50.9943396,76.59 51.8971698,85.194 C51.9283019,85.428 51.7726415,85.644 51.570283,85.68 C51.3679245,85.716 51.1811321,85.536 51.15,85.302 C50.0759434,74.844 50.2316038,37.476 50.2316038,37.098 C50.2316038,36.882 50.3716981,36.702 50.5584906,36.666 C50.745283,36.63 50.9165094,36.774 50.9632075,36.972 C52.5198113,43.308 53.5160377,48.726 54.1698113,52.308 C54.3099057,53.046 54.434434,53.712 54.5433962,54.27 C55.1816038,57.636 56.3957547,79.326 56.6759434,86.274 L65.1438679,85.878 C64.9103774,78.426 64.365566,68.706 63.9608491,61.56 C63.6962264,56.88 63.4938679,53.172 63.4471698,51.642 C63.3849057,49.068 62.7466981,45.36 62.0617925,41.454 C61.7037736,39.438 61.3457547,37.35 61.05,35.316 C60.5207547,31.77 59.7268868,27.9 59.0264151,24.48 C58.559434,22.176 58.1391509,20.196 57.9212264,18.81 C57.4542453,15.912 51.8504717,10.854 45.9665094,9.072 C45.7641509,9.018 45.6396226,8.784 45.7018868,8.55 C45.7485849,8.316 45.9509434,8.19 46.1533019,8.244 C51.9127358,9.972 58.1080189,15.138 58.6528302,18.666 C58.8707547,20.034 59.2754717,22.014 59.7424528,24.3 C60.4429245,27.72 61.2523585,31.608 61.7816038,35.19 C62.0773585,37.206 62.4509434,39.294 62.7933962,41.31 C63.4783019,45.27 64.1320755,49.014 64.1943396,51.66 C64.2254717,53.172 64.4433962,56.862 64.6924528,61.542 C65.0971698,68.832 65.6575472,78.804 65.8910377,86.31 C65.8910377,86.544 65.7353774,86.742 65.5330189,86.76 L56.3334906,87.192 C56.3334906,87.174 56.3179245,87.174 56.3179245,87.174 Z" id="Shape" fill="#000000"></path>
            <path d="M56.0377358,81.288 C55.8353774,81.288 55.679717,81.108 55.6641509,80.874 C55.6485849,80.64 55.8198113,80.442 56.0221698,80.424 L65.2839623,80.01 C65.4863208,79.992 65.6575472,80.19 65.6731132,80.424 C65.6886792,80.658 65.5174528,80.856 65.3150943,80.874 L56.0377358,81.288 C56.0533019,81.288 56.0533019,81.288 56.0377358,81.288 Z" id="Shape" fill="#000000"></path>
            <path d="M9.63537736,87.174 C9.63537736,87.174 9.61981132,87.174 9.61981132,87.174 L0.420283019,86.742 C0.326886792,86.742 0.217924528,86.688 0.155660377,86.598 C0.0933962264,86.508 0.0466981132,86.4 0.0622641509,86.274 L0.373584906,80.424 C0.389150943,80.19 0.560377358,80.01 0.762735849,80.01 L9.86886792,80.424 C9.96226415,80.424 10.0556604,80.478 10.1334906,80.568 C10.1957547,80.658 10.2424528,80.766 10.2268868,80.874 L10.0089623,86.742 C10.0089623,86.994 9.83773585,87.174 9.63537736,87.174 Z M0.825,85.878 L9.27735849,86.274 L9.46415094,81.27 L1.08962264,80.892 L0.825,85.878 Z" id="Shape" fill="#000000"></path>
            <path d="M24.5632075,80.154 C31.8014151,71.784 38.9929245,63.468 46.2,55.134 C46.3867925,55.422 46.3556604,55.71 46.1066038,55.998 C45.9820755,56.142 45.8575472,56.286 45.7330189,56.43 C39.1330189,64.062 32.5330189,71.694 25.9174528,79.344 C25.8240566,79.452 25.7306604,79.542 25.6528302,79.65 C25.3726415,80.028 25.0301887,80.172 24.5632075,80.154 Z" id="Shape" fill="#FF2400"></path>
            <path d="M24.1740566,71.568 C24.0339623,71.046 24.1273585,70.722 24.3919811,70.452 C24.5009434,70.344 24.6099057,70.218 24.7033019,70.092 C31.4122642,62.334 38.1212264,54.576 44.8301887,46.818 C45.0014151,46.62 45.1415094,46.368 45.4061321,46.26 C45.5462264,46.638 45.5150943,46.944 45.2660377,47.214 C45.1570755,47.322 45.0481132,47.466 44.954717,47.574 C38.2146226,55.368 31.4745283,63.162 24.734434,70.956 C24.5787736,71.154 24.4075472,71.334 24.1740566,71.568 Z" id="Shape" fill="#FF2400"></path>
            <path d="M24.3608491,68.058 C24.2363208,67.59 24.345283,67.23 24.6254717,66.942 C24.7811321,66.798 24.9056604,66.618 25.0457547,66.456 C31.5367925,58.95 38.0433962,51.426 44.534434,43.92 C44.7212264,43.704 44.9235849,43.488 45.1259434,43.254 C45.3283019,43.686 45.3438679,43.83 45.1882075,44.046 C45.0481132,44.244 44.8768868,44.424 44.7212264,44.604 C38.2301887,52.11 31.7235849,59.634 25.2325472,67.14 C25.0146226,67.392 24.8122642,67.626 24.5943396,67.878 C24.5476415,67.95 24.4542453,67.986 24.3608491,68.058 Z" id="Shape" fill="#FF2400"></path>
            <path d="M24.9990566,57.672 C24.9212264,57.114 24.9834906,56.772 25.2636792,56.502 C25.3570755,56.412 25.4349057,56.304 25.5283019,56.196 C31.770283,48.978 38.0278302,41.742 44.2698113,34.524 C44.4254717,34.344 44.5966981,34.182 44.7523585,33.984 C44.954717,34.38 44.970283,34.524 44.8146226,34.758 C44.6745283,34.956 44.5033019,35.136 44.3476415,35.316 C39.3509434,41.094 34.3542453,46.872 29.3575472,52.668 C28.065566,54.162 26.7891509,55.638 25.4971698,57.132 C25.3726415,57.276 25.2325472,57.42 24.9990566,57.672 Z" id="Shape" fill="#FF2400"></path>
            <path d="M44.7212264,30.798 C44.9080189,31.248 44.8457547,31.518 44.6122642,31.77 C44.4877358,31.914 44.3632075,32.058 44.2386792,32.202 C38.0900943,39.312 31.9415094,46.422 25.8084906,53.514 C25.6372642,53.712 25.4504717,53.892 25.2325472,54.126 C25.1235849,53.658 25.154717,53.316 25.4349057,53.046 C25.5438679,52.938 25.6528302,52.812 25.7462264,52.686 C31.8948113,45.576 38.0433962,38.466 44.1764151,31.374 C44.3476415,31.194 44.5188679,31.032 44.7212264,30.798 Z" id="Shape" fill="#FF2400"></path>
            <path d="M44.2542453,21.618 C44.4410377,22.014 44.4254717,22.266 44.2231132,22.518 C44.0985849,22.662 43.9740566,22.806 43.8495283,22.95 C38.0122642,29.7 32.159434,36.468 26.3221698,43.218 C26.1509434,43.416 25.9641509,43.596 25.7306604,43.848 C25.6216981,43.452 25.6216981,43.164 25.8240566,42.912 C25.9485849,42.768 26.0731132,42.624 26.1820755,42.48 C32.0193396,35.73 37.8721698,28.962 43.709434,22.212 C43.8806604,22.014 44.0518868,21.834 44.2542453,21.618 Z" id="Shape" fill="#FF2400"></path>
            <path d="M45.8575472,52.164 C46.0754717,52.524 46.0754717,52.776 45.8575472,53.028 C45.7330189,53.172 45.6084906,53.316 45.4839623,53.46 C38.4169811,61.632 31.334434,69.822 24.2674528,77.994 C24.0806604,78.21 23.8783019,78.426 23.6603774,78.66 C23.5358491,78.084 23.5358491,77.994 23.7382075,77.706 C23.8471698,77.544 23.9716981,77.418 24.0962264,77.274 C31.1476415,69.12 38.2146226,60.948 45.2660377,52.794 C45.4683962,52.578 45.6396226,52.398 45.8575472,52.164 Z" id="Shape" fill="#FF2400"></path>
            <path d="M27.7386792,79.722 C27.7542453,79.668 27.7386792,79.596 27.7698113,79.56 C33.9339623,72.414 40.1136792,65.268 46.2933962,58.122 C46.3400943,58.068 46.4179245,58.05 46.4801887,58.014 C46.6669811,58.338 46.6669811,58.608 46.4334906,58.878 C46.3089623,59.022 46.184434,59.166 46.0599057,59.31 C40.3783019,65.88 34.6966981,72.45 28.9995283,79.038 C28.890566,79.164 28.7816038,79.272 28.6882075,79.398 C28.4235849,79.722 28.1122642,79.812 27.7386792,79.722 Z" id="Shape" fill="#FF2400"></path>
            <path d="M25.8084906,40.554 C25.6061321,40.104 25.6528302,39.834 25.8863208,39.582 C26.0108491,39.438 26.1353774,39.294 26.2599057,39.15 C31.9882075,32.526 37.7009434,25.92 43.4292453,19.296 C43.6160377,19.08 43.7872642,18.828 44.0674528,18.648 C44.1919811,19.044 44.1919811,19.35 43.9273585,19.62 C43.8183962,19.728 43.709434,19.854 43.6160377,19.98 C37.8877358,26.604 32.175,33.21 26.4466981,39.834 C26.2443396,40.068 26.0419811,40.284 25.8084906,40.554 Z" id="Shape" fill="#FF2400"></path>
            <path d="M45.6396226,49.248 C45.779717,49.554 45.8108491,49.824 45.6084906,50.058 C45.4839623,50.202 45.359434,50.346 45.2504717,50.49 C38.3391509,58.482 31.4278302,66.474 24.5009434,74.466 C24.329717,74.664 24.1429245,74.844 23.9561321,75.06 C23.8316038,74.43 23.8316038,74.394 24.0495283,74.106 C24.1584906,73.962 24.2985849,73.818 24.4231132,73.674 C31.2877358,65.736 38.1523585,57.798 45.0014151,49.878 C45.1882075,49.662 45.359434,49.41 45.6396226,49.248 Z" id="Shape" fill="#FF2400"></path>
            <path d="M42.9778302,10.134 C43.1490566,10.584 43.1179245,10.872 42.884434,11.106 C42.7599057,11.232 42.6353774,11.394 42.5108491,11.538 C36.9849057,17.928 31.4589623,24.318 25.9330189,30.708 C25.7773585,30.888 25.6216981,31.05 25.4504717,31.248 C25.2636792,30.708 25.2636792,30.654 25.4504717,30.384 C25.559434,30.24 25.6995283,30.096 25.8084906,29.952 C31.3188679,23.58 36.8292453,17.208 42.3396226,10.836 C42.5264151,10.62 42.7287736,10.404 42.9778302,10.134 Z" id="Shape" fill="#FF2400"></path>
            <path d="M25.2014151,28.26 C25.0457547,27.936 25.0146226,27.666 25.2014151,27.414 C25.3103774,27.27 25.4349057,27.126 25.559434,26.982 C31.0386792,20.646 36.5179245,14.31 41.9816038,7.992 C42.1372642,7.812 42.3084906,7.65 42.479717,7.47 C42.7132075,7.956 42.7132075,8.01 42.495283,8.298 C42.3863208,8.442 42.2462264,8.586 42.1372642,8.73 C36.6735849,15.048 31.2254717,21.348 25.7617925,27.666 C25.590566,27.846 25.4193396,28.044 25.2014151,28.26 Z" id="Shape" fill="#FF2400"></path>
            <path d="M24.6254717,64.512 C24.5165094,64.098 24.5476415,63.792 24.7966981,63.522 C24.9212264,63.378 25.0457547,63.234 25.170283,63.09 C31.5990566,55.656 38.0122642,48.24 44.4410377,40.806 C44.6278302,40.59 44.8301887,40.374 45.0481132,40.14 C45.2193396,40.77 45.2193396,40.77 44.970283,41.076 C44.8146226,41.274 44.6589623,41.454 44.5033019,41.634 C38.1212264,49.014 31.7235849,56.412 25.3259434,63.792 C25.1080189,64.062 24.9212264,64.332 24.6254717,64.512 Z" id="Shape" fill="#FF2400"></path>
            <path d="M24.8122642,61.038 C24.6877358,60.606 24.765566,60.282 25.0457547,59.994 C25.1391509,59.904 25.2169811,59.796 25.3103774,59.688 C31.6613208,52.344 38.0122642,45 44.3632075,37.656 C44.55,37.44 44.7056604,37.152 44.9858491,37.062 C45.1259434,37.494 45.0481132,37.818 44.7679245,38.088 C44.6589623,38.196 44.55,38.322 44.4566038,38.448 C38.1367925,45.756 31.8325472,53.046 25.5127358,60.354 C25.2792453,60.606 25.1080189,60.912 24.8122642,61.038 Z" id="Shape" fill="#FF2400"></path>
            <path d="M25.4037736,50.706 C25.2792453,50.13 25.4193396,49.788 25.6995283,49.5 C25.8084906,49.392 25.9174528,49.266 26.0108491,49.14 C31.9726415,42.246 37.95,35.334 43.9117925,28.44 C44.1141509,28.206 44.3009434,27.936 44.6122642,27.738 C44.7212264,28.062 44.7523585,28.332 44.565566,28.566 C44.4410377,28.746 44.2853774,28.89 44.145283,29.07 C38.1056604,36.054 32.0660377,43.038 26.0264151,50.004 C25.8551887,50.22 25.6683962,50.436 25.4037736,50.706 Z" id="Shape" fill="#FF2400"></path>
            <path d="M44.4566038,24.606 C44.6122642,25.074 44.5811321,25.38 44.3165094,25.632 C44.2075472,25.74 44.0985849,25.884 44.0051887,25.992 C38.0745283,32.85 32.1283019,39.726 26.1976415,46.584 C26.0264151,46.782 25.8396226,46.98 25.6528302,47.178 C25.4971698,46.728 25.5127358,46.566 25.6839623,46.296 C25.7773585,46.152 25.8863208,46.044 25.995283,45.918 C32.0193396,38.952 38.0433962,31.986 44.0674528,25.02 C44.1608491,24.93 44.2853774,24.804 44.4566038,24.606 Z" id="Shape" fill="#FF2400"></path>
            <path d="M43.740566,15.75 C43.9273585,16.11 43.9117925,16.398 43.6783019,16.65 C43.5537736,16.794 43.4292453,16.938 43.304717,17.082 C37.6386792,23.634 31.9570755,30.204 26.2910377,36.756 C26.1198113,36.954 25.9330189,37.152 25.7462264,37.35 C25.559434,36.828 25.559434,36.756 25.7462264,36.504 C25.8551887,36.342 25.995283,36.216 26.1042453,36.072 C31.7858491,29.502 37.4830189,22.914 43.1646226,16.344 C43.3669811,16.128 43.5537736,15.948 43.740566,15.75 Z" id="Shape" fill="#FF2400"></path>
            <path d="M24.6721698,19.152 C24.5165094,18.702 24.5787736,18.378 24.8433962,18.108 C24.9523585,18 25.0613208,17.874 25.154717,17.748 C29.684434,12.51 34.1985849,7.29 38.7283019,2.052 C38.8683962,1.89 39.0084906,1.728 39.1485849,1.566 C39.3820755,1.332 39.3820755,1.332 39.7867925,1.62 C39.3665094,2.268 28.890566,14.472 24.9523585,18.882 C24.8745283,18.954 24.7811321,19.044 24.6721698,19.152 Z" id="Shape" fill="#FF2400"></path>
            <path d="M25.5438679,34.272 C25.4037736,33.876 25.4349057,33.57 25.6995283,33.3 C25.8084906,33.192 25.9174528,33.048 26.0108491,32.94 C31.5990566,26.478 37.1716981,20.034 42.7599057,13.572 C42.9466981,13.356 43.1179245,13.104 43.3981132,12.942 C43.5537736,13.248 43.5849057,13.5 43.3825472,13.752 C43.2580189,13.896 43.1334906,14.04 43.0089623,14.184 C37.3896226,20.682 31.770283,27.18 26.1509434,33.678 C25.979717,33.876 25.8240566,34.146 25.5438679,34.272 Z" id="Shape" fill="#FF2400"></path>
            <path d="M24.9990566,25.272 C24.8433962,24.804 24.8745283,24.498 25.1235849,24.246 C25.2481132,24.12 25.3726415,23.958 25.4971698,23.814 C30.7740566,17.712 36.0509434,11.61 41.3278302,5.508 C41.5146226,5.292 41.7169811,5.076 41.9193396,4.842 C42.2306604,5.238 42.2462264,5.31 42.0127358,5.616 C41.9037736,5.76 41.7636792,5.904 41.6391509,6.048 C36.3311321,12.186 31.0231132,18.324 25.6995283,24.48 C25.4971698,24.732 25.2792453,24.966 24.9990566,25.272 Z" id="Shape" fill="#FF2400"></path>
            <path d="M24.8278302,22.23 C24.6721698,21.762 24.7188679,21.456 24.9834906,21.186 C25.0924528,21.078 25.2014151,20.952 25.2948113,20.826 C30.3226415,15.012 35.3660377,9.18 40.3938679,3.366 C40.5962264,3.132 40.7830189,2.844 41.0476415,2.682 C41.3745283,3.06 41.3745283,3.096 41.1566038,3.384 C41.0632075,3.51 40.9542453,3.636 40.845283,3.744 C35.7084906,9.684 30.5716981,15.624 25.4349057,21.564 C25.2481132,21.78 25.0613208,21.96 24.8278302,22.23 Z" id="Shape" fill="#FF2400"></path>
            <path d="M46.7448113,60.84 C46.9783019,61.218 46.9471698,61.506 46.7136792,61.758 C46.604717,61.884 46.4957547,62.01 46.4023585,62.118 C41.5768868,67.698 36.7514151,73.278 31.9415094,78.84 C31.8636792,78.93 31.8014151,79.002 31.7235849,79.092 C31.4900943,79.416 31.2099057,79.542 30.8674528,79.416 C30.7740566,79.236 30.9141509,79.164 30.9764151,79.056 C31.1009434,78.912 31.2254717,78.768 31.35,78.624 C36.284434,72.918 41.2033019,67.23 46.1377358,61.524 C46.3245283,61.308 46.5268868,61.092 46.7448113,60.84 Z" id="Shape" fill="#FF2400"></path>
            <path d="M37.4985849,1.08 C36.8292453,1.98 25.1235849,15.462 24.6877358,15.876 C24.5165094,15.498 24.5009434,15.372 24.6566038,15.138 C24.7811321,14.958 24.9212264,14.796 25.0613208,14.634 C28.8438679,10.26 32.6264151,5.886 36.4245283,1.494 C36.5490566,1.35 36.6735849,1.206 36.7981132,1.062 C37.0004717,0.828 37.2183962,0.846 37.4985849,1.08 Z" id="Shape" fill="#FF2400"></path>
            <path d="M33.7938679,79.2 C33.809434,79.128 33.809434,79.056 33.825,79.02 C38.1834906,73.962 42.5419811,68.922 46.9004717,63.882 C46.9471698,63.828 47.025,63.81 47.1183962,63.756 C47.2584906,64.008 47.3051887,64.242 47.1339623,64.476 C47.025,64.638 46.9004717,64.764 46.7759434,64.908 C42.8066038,69.498 38.8216981,74.106 34.8523585,78.696 C34.7589623,78.804 34.665566,78.894 34.5877358,79.002 C34.3698113,79.29 34.1051887,79.344 33.7938679,79.2 Z" id="Shape" fill="#FF2400"></path>
            <path d="M47.4764151,66.636 C47.5698113,66.906 47.6165094,67.158 47.4141509,67.41 C47.2896226,67.554 47.1650943,67.698 47.0561321,67.842 C43.9584906,71.424 40.8608491,75.006 37.7632075,78.588 C37.6386792,78.732 37.5141509,78.876 37.3896226,79.02 C37.1716981,79.272 36.9226415,79.272 36.6580189,79.164 C36.6735849,79.074 36.6735849,79.002 36.6891509,78.966 C40.2226415,74.88 43.7716981,70.776 47.3051887,66.69 C47.3363208,66.654 47.3985849,66.654 47.4764151,66.636 Z" id="Shape" fill="#FF2400"></path>
            <path d="M34.8990566,0.72 C34.8834906,0.774 34.8990566,0.864 34.8679245,0.882 C31.5679245,4.716 28.2679245,8.532 24.9679245,12.366 C24.8900943,12.456 24.7811321,12.546 24.6410377,12.672 C24.5165094,12.294 24.5165094,12.024 24.7188679,11.754 C24.8278302,11.61 24.9523585,11.466 25.0768868,11.322 C28.0033019,7.938 30.9141509,4.572 33.840566,1.188 C33.9339623,1.08 34.0273585,0.99 34.1051887,0.882 C34.3386792,0.612 34.6033019,0.558 34.8990566,0.72 Z" id="Shape" fill="#FF2400"></path>
            <path d="M39.3509434,79.2 C39.7867925,78.552 47.2740566,69.894 47.7566038,69.48 C47.9433962,70.038 47.9433962,70.038 47.6787736,70.362 C47.5853774,70.488 47.4764151,70.614 47.3674528,70.722 C45.0636792,73.386 42.7599057,76.05 40.4561321,78.714 C40.3627358,78.822 40.2693396,78.912 40.1915094,79.02 C39.9735849,79.308 39.7089623,79.398 39.3509434,79.2 Z" id="Shape" fill="#FF2400"></path>
            <path d="M24.8122642,9.288 C24.6566038,8.73 24.8278302,8.424 25.0924528,8.118 C26.5712264,6.426 28.05,4.716 29.5287736,3.006 C30.1514151,2.286 30.7584906,1.584 31.3811321,0.882 C31.6924528,0.522 31.6924528,0.54 32.2995283,0.576 C32.2061321,0.738 32.159434,0.882 32.0660377,0.99 C31.4278302,1.746 30.7740566,2.502 30.120283,3.258 C28.5636792,5.058 26.9915094,6.876 25.4349057,8.676 C25.2325472,8.838 25.0457547,9.018 24.8122642,9.288 Z" id="Shape" fill="#FF2400"></path>
            <path d="M41.7481132,79.704 C41.7792453,79.596 41.7792453,79.524 41.8103774,79.488 C43.8495283,77.13 45.8886792,74.772 47.9278302,72.396 C47.9745283,72.342 48.0523585,72.324 48.1146226,72.27 C48.3014151,72.576 48.3014151,72.864 48.0679245,73.134 C47.9589623,73.26 47.85,73.386 47.7566038,73.494 C46.1066038,75.402 44.4566038,77.31 42.7910377,79.236 C42.6976415,79.344 42.6042453,79.434 42.5264151,79.542 C42.3084906,79.848 42.075,79.884 41.7481132,79.704 Z" id="Shape" fill="#FF2400"></path>
            <path d="M25.170283,5.544 C25.1080189,5.112 25.170283,4.752 25.4349057,4.446 C26.415566,3.312 27.4117925,2.178 28.3924528,1.026 C28.6570755,0.702 28.9683962,0.63 29.3419811,0.684 C28.9995283,1.278 25.7306604,5.076 25.170283,5.544 Z" id="Shape" fill="#FF2400"></path>
            <path d="M44.129717,80.046 C45.4995283,78.462 46.8849057,76.86 48.2858491,75.276 C48.3325472,75.222 48.4103774,75.204 48.5037736,75.15 C48.6438679,75.402 48.675,75.618 48.5193396,75.87 C48.4726415,75.942 48.4259434,75.996 48.3636792,76.068 C47.2273585,77.382 46.0754717,78.696 44.954717,80.028 C44.7367925,80.28 44.5188679,80.388 44.2231132,80.244 C44.1764151,80.226 44.1608491,80.154 44.129717,80.046 Z" id="Shape" fill="#FF2400"></path>
            <path d="M46.4646226,80.712 C46.8226415,80.154 48.270283,78.444 48.8773585,77.886 C49.0485849,77.904 49.0641509,78.066 49.0485849,78.192 C49.0485849,78.318 49.0174528,78.48 48.9551887,78.588 C48.7995283,78.804 48.6127358,79.002 48.4415094,79.2 C48.0212264,79.686 47.6009434,80.172 47.1806604,80.658 C46.9471698,80.946 46.7136792,80.892 46.4646226,80.712 Z" id="Shape" fill="#FF2400"></path>
            <path d="M48.4882075,81.576 C48.7372642,81.18 49.0018868,80.874 49.3132075,80.586 C49.6089623,81.144 49.5778302,81.216 48.8617925,81.846 C48.7528302,81.774 48.6283019,81.684 48.4882075,81.576 Z" id="Shape" fill="#FF2400"></path>
            <g id="Group" transform="translate(46.231132, 71.280000)" fill="#000000">
                <g transform="translate(1.867925, 9.540000)" id="Shape">
                    <path d="M0.420283019,1.152 C0.249056604,1.152 0.0933962264,0.99 0.0622641509,0.792 C0.0311320755,0.558 0.171226415,0.36 0.373584906,0.324 L1.58773585,0.144 C1.79009434,0.108 1.96132075,0.27 1.99245283,0.504 C2.02358491,0.738 1.88349057,0.936 1.68113208,0.972 L0.466981132,1.152 C0.451415094,1.152 0.435849057,1.152 0.420283019,1.152 Z"></path>
                    <path d="M0.825,2.826 C0.653773585,2.826 0.498113208,2.682 0.466981132,2.466 C0.435849057,2.232 0.575943396,2.034 0.762735849,1.998 L1.93018868,1.782 C2.13254717,1.746 2.30377358,1.908 2.33490566,2.124 C2.36603774,2.358 2.2259434,2.556 2.03915094,2.592 L0.871698113,2.808 C0.871698113,2.808 0.856132075,2.826 0.825,2.826 Z"></path>
                    <path d="M1.18301887,4.32 C1.01179245,4.32 0.856132075,4.176 0.825,3.96 C0.793867925,3.726 0.933962264,3.528 1.12075472,3.492 L2.27264151,3.294 C2.475,3.258 2.64622642,3.42 2.67735849,3.636 C2.70849057,3.87 2.56839623,4.068 2.38160377,4.104 L1.24528302,4.32 C1.22971698,4.32 1.19858491,4.32 1.18301887,4.32 Z"></path>
                    <path d="M1.61886792,5.94 C1.44764151,5.94 1.29198113,5.796 1.26084906,5.58 C1.22971698,5.346 1.36981132,5.148 1.55660377,5.112 L2.64622642,4.914 C2.84858491,4.878 3.01981132,5.04 3.0509434,5.256 C3.08207547,5.49 2.94198113,5.688 2.75518868,5.724 L1.66556604,5.922 C1.65,5.94 1.63443396,5.94 1.61886792,5.94 Z"></path>
                    <path d="M1.79009434,7.596 C1.61886792,7.596 1.46320755,7.452 1.43207547,7.236 C1.4009434,7.002 1.54103774,6.804 1.72783019,6.768 L3.00424528,6.534 C3.20660377,6.498 3.37783019,6.66 3.40896226,6.876 C3.44009434,7.11 3.3,7.308 3.11320755,7.344 L1.83679245,7.578 C1.83679245,7.596 1.80566038,7.596 1.79009434,7.596 Z"></path>
                </g>
                <g id="Shape">
                    <path d="M0.389150943,1.062 C0.202358491,1.062 0.0466981132,0.9 0.0311320755,0.684 C0.0155660377,0.45 0.155660377,0.252 0.358018868,0.234 L1.65,0.09 C1.85235849,0.072 2.02358491,0.234 2.03915094,0.468 C2.05471698,0.702 1.91462264,0.9 1.71226415,0.918 L0.420283019,1.062 C0.420283019,1.062 0.404716981,1.062 0.389150943,1.062 Z"></path>
                    <path d="M0.68490566,2.7 C0.498113208,2.7 0.34245283,2.538 0.326886792,2.322 C0.311320755,2.088 0.451415094,1.89 0.653773585,1.872 L1.94575472,1.728 C2.14811321,1.71 2.31933962,1.872 2.33490566,2.106 C2.3504717,2.34 2.21037736,2.538 2.00801887,2.556 L0.716037736,2.7 C0.716037736,2.7 0.700471698,2.7 0.68490566,2.7 Z"></path>
                    <path d="M0.980660377,4.338 C0.793867925,4.338 0.638207547,4.176 0.622641509,3.96 C0.607075472,3.726 0.747169811,3.528 0.949528302,3.51 L2.24150943,3.366 C2.44386792,3.348 2.61509434,3.51 2.63066038,3.744 C2.64622642,3.978 2.50613208,4.176 2.30377358,4.194 L1.01179245,4.338 C1.01179245,4.338 0.996226415,4.338 0.980660377,4.338 Z"></path>
                    <path d="M1.26084906,5.85 C1.0740566,5.85 0.918396226,5.688 0.902830189,5.472 C0.887264151,5.238 1.02735849,5.04 1.22971698,5.022 L2.52169811,4.878 C2.7240566,4.86 2.89528302,5.022 2.91084906,5.256 C2.92641509,5.49 2.78632075,5.688 2.58396226,5.706 L1.29198113,5.85 C1.27641509,5.85 1.27641509,5.85 1.26084906,5.85 Z"></path>
                    <path d="M1.55660377,7.488 C1.36981132,7.488 1.21415094,7.326 1.19858491,7.11 C1.18301887,6.876 1.32311321,6.678 1.5254717,6.66 L2.81745283,6.516 C3.01981132,6.498 3.19103774,6.66 3.20660377,6.894 C3.22216981,7.128 3.08207547,7.326 2.87971698,7.344 L1.58773585,7.488 C1.58773585,7.488 1.57216981,7.488 1.55660377,7.488 Z"></path>
                    <path d="M1.96132075,9.108 C1.7745283,9.108 1.61886792,8.946 1.60330189,8.73 C1.58773585,8.496 1.72783019,8.298 1.93018868,8.28 L3.12877358,8.154 C3.33113208,8.136 3.50235849,8.298 3.51792453,8.532 C3.53349057,8.766 3.39339623,8.964 3.19103774,8.982 L1.99245283,9.108 C1.97688679,9.108 1.97688679,9.108 1.96132075,9.108 Z"></path>
                </g>
            </g>
            <g id="Group" transform="translate(44.051887, 52.920000)" fill="#000000">
                <g transform="translate(0.933962, 9.900000)" id="Shape">
                    <path d="M0.48254717,0.9 C0.280188679,0.9 0.124528302,0.72 0.124528302,0.486 C0.124528302,0.252 0.280188679,0.072 0.48254717,0.054 L1.71226415,0.018 C1.71226415,0.018 1.71226415,0.018 1.72783019,0.018 C1.93018868,0.018 2.08584906,0.198 2.08584906,0.432 C2.08584906,0.666 1.93018868,0.846 1.72783019,0.864 L0.48254717,0.9 C0.48254717,0.9 0.48254717,0.9 0.48254717,0.9 Z"></path>
                    <path d="M0.747169811,2.592 C0.560377358,2.592 0.404716981,2.412 0.389150943,2.196 C0.373584906,1.962 0.529245283,1.764 0.731603774,1.764 L1.91462264,1.692 C2.11698113,1.674 2.28820755,1.854 2.28820755,2.088 C2.30377358,2.322 2.14811321,2.52 1.94575472,2.52 L0.762735849,2.592 C0.762735849,2.592 0.747169811,2.592 0.747169811,2.592 Z"></path>
                    <path d="M0.96509434,4.14 C0.778301887,4.14 0.622641509,3.96 0.607075472,3.744 C0.591509434,3.51 0.747169811,3.312 0.949528302,3.312 L2.11698113,3.24 C2.31933962,3.222 2.49056604,3.402 2.49056604,3.636 C2.50613208,3.87 2.3504717,4.068 2.14811321,4.068 L0.980660377,4.14 C0.980660377,4.14 0.980660377,4.14 0.96509434,4.14 Z"></path>
                    <path d="M1.26084906,5.796 C1.0740566,5.796 0.918396226,5.616 0.902830189,5.4 C0.887264151,5.166 1.04292453,4.968 1.24528302,4.968 L2.3504717,4.896 C2.55283019,4.878 2.7240566,5.058 2.7240566,5.292 C2.73962264,5.526 2.58396226,5.724 2.38160377,5.724 L1.27641509,5.796 C1.26084906,5.796 1.26084906,5.796 1.26084906,5.796 Z"></path>
                    <path d="M1.29198113,7.47 C1.10518868,7.47 0.949528302,7.29 0.933962264,7.074 C0.918396226,6.84 1.0740566,6.642 1.27641509,6.642 L2.56839623,6.57 C2.77075472,6.552 2.94198113,6.732 2.94198113,6.966 C2.95754717,7.2 2.80188679,7.398 2.5995283,7.398 L1.30754717,7.47 C1.30754717,7.47 1.29198113,7.47 1.29198113,7.47 Z"></path>
                </g>
                <g id="Shape">
                    <path d="M1.66556604,0.99 C1.66556604,0.99 1.66556604,0.99 1.66556604,0.99 L0.358018868,0.99 C0.155660377,0.99 1.13686838e-13,0.81 1.13686838e-13,0.576 C1.13686838e-13,0.342 0.155660377,0.162 0.358018868,0.162 C0.358018868,0.162 0.358018868,0.162 0.358018868,0.162 L1.66556604,0.162 C1.86792453,0.162 2.02358491,0.342 2.02358491,0.576 C2.02358491,0.81 1.86792453,0.99 1.66556604,0.99 Z"></path>
                    <path d="M1.82122642,2.664 C1.82122642,2.664 1.82122642,2.664 1.82122642,2.664 L0.513679245,2.664 C0.311320755,2.664 0.155660377,2.484 0.155660377,2.25 C0.155660377,2.016 0.311320755,1.836 0.513679245,1.836 C0.513679245,1.836 0.513679245,1.836 0.513679245,1.836 L1.82122642,1.836 C2.02358491,1.836 2.17924528,2.016 2.17924528,2.25 C2.17924528,2.484 2.02358491,2.664 1.82122642,2.664 Z"></path>
                    <path d="M1.97688679,4.32 C1.97688679,4.32 1.97688679,4.32 1.97688679,4.32 L0.669339623,4.32 C0.466981132,4.32 0.311320755,4.14 0.311320755,3.906 C0.311320755,3.672 0.466981132,3.492 0.669339623,3.492 C0.669339623,3.492 0.669339623,3.492 0.669339623,3.492 L1.97688679,3.492 C2.17924528,3.492 2.33490566,3.672 2.33490566,3.906 C2.33490566,4.14 2.17924528,4.32 1.97688679,4.32 Z"></path>
                    <path d="M2.11698113,5.868 C2.11698113,5.868 2.11698113,5.868 2.11698113,5.868 L0.809433962,5.868 C0.607075472,5.868 0.451415094,5.688 0.451415094,5.454 C0.451415094,5.22 0.607075472,5.04 0.809433962,5.04 C0.809433962,5.04 0.809433962,5.04 0.809433962,5.04 L2.11698113,5.04 C2.31933962,5.04 2.475,5.22 2.475,5.454 C2.475,5.67 2.31933962,5.868 2.11698113,5.868 Z"></path>
                    <path d="M2.27264151,7.524 C2.27264151,7.524 2.27264151,7.524 2.27264151,7.524 L0.96509434,7.524 C0.762735849,7.524 0.607075472,7.344 0.607075472,7.11 C0.607075472,6.876 0.762735849,6.696 0.96509434,6.696 C0.96509434,6.696 0.96509434,6.696 0.96509434,6.696 L2.27264151,6.696 C2.475,6.696 2.63066038,6.876 2.63066038,7.11 C2.63066038,7.344 2.475,7.524 2.27264151,7.524 Z"></path>
                    <path d="M2.42830189,9.198 L1.22971698,9.198 C1.02735849,9.198 0.871698113,9.018 0.871698113,8.784 C0.871698113,8.55 1.02735849,8.37 1.22971698,8.37 C1.22971698,8.37 1.22971698,8.37 1.22971698,8.37 L2.42830189,8.37 C2.63066038,8.37 2.78632075,8.55 2.78632075,8.784 C2.78632075,9 2.63066038,9.198 2.42830189,9.198 Z"></path>
                </g>
            </g>
            <g id="Group" transform="translate(42.806604, 34.560000)" fill="#000000">
                <g transform="translate(0.466981, 9.900000)" id="Shape">
                    <path d="M1.72783019,0.936 C1.71226415,0.936 1.71226415,0.936 1.72783019,0.936 L0.48254717,0.882 C0.280188679,0.882 0.124528302,0.684 0.14009434,0.45 C0.14009434,0.216 0.311320755,0.036 0.513679245,0.054 L1.74339623,0.108 C1.94575472,0.108 2.10141509,0.306 2.08584906,0.54 C2.07028302,0.756 1.91462264,0.936 1.72783019,0.936 Z"></path>
                    <path d="M1.85235849,2.61 C1.85235849,2.61 1.85235849,2.61 1.85235849,2.61 L0.669339623,2.592 C0.466981132,2.592 0.311320755,2.412 0.311320755,2.178 C0.311320755,1.944 0.466981132,1.764 0.669339623,1.764 C0.669339623,1.764 0.669339623,1.764 0.669339623,1.764 L1.85235849,1.782 C2.05471698,1.782 2.21037736,1.962 2.21037736,2.196 C2.21037736,2.412 2.05471698,2.61 1.85235849,2.61 Z"></path>
                    <path d="M1.99245283,4.158 L0.825,4.14 C0.622641509,4.14 0.466981132,3.96 0.466981132,3.726 C0.466981132,3.492 0.622641509,3.312 0.825,3.312 C0.825,3.312 0.825,3.312 0.825,3.312 L1.99245283,3.33 C2.19481132,3.33 2.3504717,3.51 2.3504717,3.744 C2.3504717,3.96 2.17924528,4.158 1.99245283,4.158 Z"></path>
                    <path d="M2.11698113,5.832 C2.11698113,5.832 2.11698113,5.832 2.11698113,5.832 L1.01179245,5.814 C0.809433962,5.814 0.653773585,5.616 0.653773585,5.4 C0.653773585,5.184 0.809433962,4.986 1.01179245,4.986 L2.11698113,5.004 C2.31933962,5.004 2.475,5.202 2.475,5.418 C2.475,5.634 2.31933962,5.832 2.11698113,5.832 Z"></path>
                    <path d="M2.25707547,7.506 C2.25707547,7.506 2.25707547,7.506 2.25707547,7.506 L0.96509434,7.488 C0.762735849,7.488 0.607075472,7.308 0.607075472,7.074 C0.607075472,6.84 0.762735849,6.66 0.96509434,6.66 C0.96509434,6.66 0.96509434,6.66 0.96509434,6.66 L2.25707547,6.678 C2.45943396,6.678 2.61509434,6.858 2.61509434,7.092 C2.61509434,7.308 2.45943396,7.506 2.25707547,7.506 Z"></path>
                </g>
                <g id="Shape">
                    <path d="M1.72783019,1.008 C1.72783019,1.008 1.71226415,1.008 1.69669811,1.008 L0.389150943,0.918 C0.186792453,0.9 0.0466981132,0.702 0.0466981132,0.468 C0.0622641509,0.234 0.233490566,0.072 0.435849057,0.072 L1.74339623,0.162 C1.94575472,0.18 2.08584906,0.378 2.08584906,0.612 C2.07028302,0.846 1.91462264,1.008 1.72783019,1.008 Z"></path>
                    <path d="M1.79009434,2.682 C1.79009434,2.682 1.7745283,2.682 1.75896226,2.682 L0.451415094,2.592 C0.249056604,2.574 0.108962264,2.376 0.108962264,2.142 C0.124528302,1.908 0.295754717,1.746 0.498113208,1.746 L1.80566038,1.836 C2.00801887,1.854 2.14811321,2.052 2.14811321,2.286 C2.13254717,2.52 1.97688679,2.682 1.79009434,2.682 Z"></path>
                    <path d="M1.86792453,4.356 C1.86792453,4.356 1.85235849,4.356 1.83679245,4.356 L0.529245283,4.266 C0.326886792,4.248 0.186792453,4.05 0.186792453,3.816 C0.202358491,3.582 0.373584906,3.42 0.575943396,3.42 L1.88349057,3.51 C2.08584906,3.528 2.2259434,3.726 2.2259434,3.96 C2.21037736,4.176 2.05471698,4.356 1.86792453,4.356 Z"></path>
                    <path d="M1.91462264,5.904 C1.91462264,5.904 1.8990566,5.904 1.88349057,5.904 L0.575943396,5.814 C0.373584906,5.796 0.233490566,5.598 0.233490566,5.364 C0.249056604,5.13 0.420283019,4.968 0.622641509,4.968 L1.93018868,5.058 C2.13254717,5.076 2.27264151,5.274 2.27264151,5.508 C2.27264151,5.724 2.11698113,5.904 1.91462264,5.904 Z"></path>
                    <path d="M1.99245283,7.578 C1.99245283,7.578 1.97688679,7.578 1.96132075,7.578 L0.653773585,7.488 C0.451415094,7.47 0.311320755,7.272 0.311320755,7.038 C0.326886792,6.804 0.498113208,6.642 0.700471698,6.642 L2.00801887,6.732 C2.21037736,6.75 2.3504717,6.948 2.3504717,7.182 C2.33490566,7.398 2.17924528,7.578 1.99245283,7.578 Z"></path>
                    <path d="M2.05471698,9.234 C2.05471698,9.234 2.03915094,9.234 2.02358491,9.234 L0.825,9.144 C0.622641509,9.126 0.48254717,8.928 0.48254717,8.694 C0.498113208,8.46 0.669339623,8.298 0.871698113,8.298 L2.07028302,8.388 C2.27264151,8.406 2.41273585,8.604 2.41273585,8.838 C2.39716981,9.072 2.24150943,9.234 2.05471698,9.234 Z"></path>
                </g>
            </g>
            <g id="Group" transform="translate(21.169811, 71.460000)" fill="#000000">
                <g transform="translate(0.000000, 9.720000)" id="Shape">
                    <path d="M2.63066038,1.008 C2.63066038,1.008 2.61509434,1.008 2.61509434,1.008 L1.38537736,0.936 C1.18301887,0.918 1.02735849,0.738 1.04292453,0.504 C1.05849057,0.27 1.21415094,0.09 1.41650943,0.108 L2.64622642,0.18 C2.84858491,0.198 3.00424528,0.378 2.98867925,0.612 C2.97311321,0.828 2.81745283,1.008 2.63066038,1.008 Z"></path>
                    <path d="M2.31933962,2.7 C2.30377358,2.7 2.30377358,2.7 2.28820755,2.7 L1.10518868,2.592 C0.902830189,2.574 0.762735849,2.376 0.778301887,2.142 C0.793867925,1.908 0.96509434,1.746 1.16745283,1.764 L2.3504717,1.872 C2.55283019,1.89 2.69292453,2.088 2.67735849,2.322 C2.66179245,2.538 2.50613208,2.7 2.31933962,2.7 Z"></path>
                    <path d="M2.05471698,4.23 C2.03915094,4.23 2.03915094,4.23 2.02358491,4.23 L0.856132075,4.122 C0.653773585,4.104 0.513679245,3.906 0.529245283,3.672 C0.544811321,3.438 0.716037736,3.276 0.918396226,3.294 L2.08584906,3.402 C2.28820755,3.42 2.42830189,3.618 2.41273585,3.852 C2.39716981,4.068 2.24150943,4.23 2.05471698,4.23 Z"></path>
                    <path d="M1.72783019,5.868 C1.71226415,5.868 1.71226415,5.868 1.69669811,5.868 L0.591509434,5.76 C0.389150943,5.742 0.249056604,5.544 0.264622642,5.31 C0.280188679,5.076 0.451415094,4.914 0.653773585,4.932 L1.75896226,5.04 C1.96132075,5.058 2.10141509,5.256 2.08584906,5.49 C2.07028302,5.706 1.91462264,5.868 1.72783019,5.868 Z"></path>
                    <path d="M1.66556604,7.542 C1.65,7.542 1.65,7.542 1.63443396,7.542 L0.34245283,7.416 C0.14009434,7.398 -2.62637134e-15,7.2 0.0155660377,6.966 C0.0311320755,6.732 0.202358491,6.57 0.404716981,6.588 L1.69669811,6.714 C1.8990566,6.732 2.03915094,6.93 2.02358491,7.164 C2.00801887,7.38 1.83679245,7.542 1.66556604,7.542 Z"></path>
                </g>
                <g transform="translate(1.245283, 0.000000)" id="Shape">
                    <path d="M2.66179245,0.954 C2.66179245,0.954 2.66179245,0.954 2.66179245,0.954 L1.35424528,0.918 C1.15188679,0.918 0.996226415,0.72 0.996226415,0.486 C0.996226415,0.252 1.15188679,0.072 1.36981132,0.072 L2.67735849,0.108 C2.87971698,0.108 3.03537736,0.306 3.03537736,0.54 C3.01981132,0.774 2.86415094,0.954 2.66179245,0.954 Z"></path>
                    <path d="M2.475,2.61 C2.475,2.61 2.475,2.61 2.475,2.61 L1.16745283,2.574 C0.96509434,2.574 0.809433962,2.376 0.809433962,2.142 C0.809433962,1.908 0.980660377,1.728 1.18301887,1.728 L2.49056604,1.764 C2.69292453,1.764 2.84858491,1.962 2.84858491,2.196 C2.83301887,2.448 2.66179245,2.61 2.475,2.61 Z"></path>
                    <path d="M2.27264151,4.284 C2.27264151,4.284 2.27264151,4.284 2.27264151,4.284 L0.96509434,4.248 C0.762735849,4.248 0.607075472,4.05 0.607075472,3.816 C0.607075472,3.582 0.778301887,3.402 0.980660377,3.402 L2.28820755,3.438 C2.49056604,3.438 2.64622642,3.636 2.64622642,3.87 C2.63066038,4.104 2.475,4.284 2.27264151,4.284 Z"></path>
                    <path d="M2.10141509,5.814 C2.10141509,5.814 2.10141509,5.814 2.10141509,5.814 L0.793867925,5.778 C0.591509434,5.778 0.435849057,5.58 0.435849057,5.346 C0.435849057,5.112 0.607075472,4.932 0.809433962,4.932 L2.11698113,4.968 C2.31933962,4.968 2.475,5.166 2.475,5.4 C2.45943396,5.634 2.28820755,5.814 2.10141509,5.814 Z"></path>
                    <path d="M1.91462264,7.47 C1.8990566,7.47 1.8990566,7.47 1.91462264,7.47 L0.607075472,7.434 C0.404716981,7.434 0.249056604,7.236 0.249056604,7.002 C0.249056604,6.768 0.420283019,6.588 0.622641509,6.588 L1.93018868,6.624 C2.13254717,6.624 2.28820755,6.822 2.28820755,7.056 C2.25707547,7.29 2.10141509,7.47 1.91462264,7.47 Z"></path>
                    <path d="M1.60330189,9.126 C1.60330189,9.126 1.60330189,9.126 1.60330189,9.126 L0.404716981,9.09 C0.202358491,9.09 0.0466981132,8.892 0.0466981132,8.658 C0.0466981132,8.424 0.217924528,8.244 0.420283019,8.244 L1.61886792,8.28 C1.82122642,8.28 1.97688679,8.478 1.97688679,8.712 C1.96132075,8.946 1.80566038,9.126 1.60330189,9.126 Z"></path>
                </g>
            </g>
            <g id="Group" transform="translate(23.504717, 52.920000)" fill="#000000">
                <g transform="translate(0.000000, 9.900000)" id="Shape">
                    <path d="M0.96509434,0.972 C0.778301887,0.972 0.622641509,0.792 0.607075472,0.576 C0.591509434,0.342 0.747169811,0.144 0.949528302,0.144 L2.17924528,0.072 C2.38160377,0.054 2.55283019,0.234 2.55283019,0.468 C2.56839623,0.702 2.41273585,0.9 2.21037736,0.9 L0.980660377,0.972 C0.980660377,0.972 0.96509434,0.972 0.96509434,0.972 Z"></path>
                    <path d="M0.840566038,2.646 C0.638207547,2.646 0.48254717,2.466 0.48254717,2.232 C0.48254717,1.998 0.638207547,1.818 0.840566038,1.8 L2.02358491,1.764 C2.02358491,1.764 2.02358491,1.764 2.02358491,1.764 C2.2259434,1.764 2.38160377,1.944 2.38160377,2.178 C2.38160377,2.412 2.2259434,2.592 2.02358491,2.61 L0.840566038,2.646 C0.856132075,2.646 0.856132075,2.646 0.840566038,2.646 Z"></path>
                    <path d="M0.731603774,4.194 C0.529245283,4.194 0.373584906,4.014 0.373584906,3.78 C0.373584906,3.546 0.529245283,3.366 0.731603774,3.348 L1.8990566,3.312 C2.08584906,3.312 2.25707547,3.492 2.27264151,3.726 C2.28820755,3.96 2.11698113,4.14 1.91462264,4.158 L0.731603774,4.194 C0.747169811,4.194 0.747169811,4.194 0.731603774,4.194 Z"></path>
                    <path d="M0.622641509,5.868 C0.420283019,5.868 0.264622642,5.688 0.264622642,5.454 C0.264622642,5.22 0.420283019,5.04 0.622641509,5.022 L1.72783019,5.004 C1.72783019,5.004 1.72783019,5.004 1.72783019,5.004 C1.93018868,5.004 2.08584906,5.184 2.08584906,5.418 C2.08584906,5.652 1.93018868,5.832 1.72783019,5.85 L0.622641509,5.868 C0.622641509,5.868 0.622641509,5.868 0.622641509,5.868 Z"></path>
                    <path d="M0.498113208,7.542 C0.295754717,7.542 0.14009434,7.362 0.14009434,7.128 C0.14009434,6.894 0.295754717,6.714 0.498113208,6.696 L1.79009434,6.66 C1.79009434,6.66 1.79009434,6.66 1.79009434,6.66 C1.99245283,6.66 2.14811321,6.84 2.14811321,7.074 C2.14811321,7.308 1.99245283,7.488 1.79009434,7.506 L0.498113208,7.542 C0.498113208,7.542 0.498113208,7.542 0.498113208,7.542 Z"></path>
                </g>
                <g transform="translate(0.622642, 0.000000)" id="Shape">
                    <path d="M0.700471698,1.044 C0.513679245,1.044 0.358018868,0.882 0.34245283,0.666 C0.326886792,0.432 0.48254717,0.234 0.669339623,0.216 L1.96132075,0.108 C2.16367925,0.09 2.33490566,0.27 2.3504717,0.486 C2.36603774,0.702 2.21037736,0.918 2.02358491,0.936 L0.731603774,1.044 C0.716037736,1.044 0.700471698,1.044 0.700471698,1.044 Z"></path>
                    <path d="M0.653773585,2.718 C0.466981132,2.718 0.311320755,2.556 0.295754717,2.34 C0.280188679,2.106 0.435849057,1.908 0.622641509,1.89 L1.91462264,1.782 C2.11698113,1.764 2.28820755,1.944 2.30377358,2.16 C2.31933962,2.376 2.16367925,2.592 1.97688679,2.61 L0.68490566,2.718 C0.669339623,2.718 0.653773585,2.718 0.653773585,2.718 Z"></path>
                    <path d="M0.591509434,4.392 C0.404716981,4.392 0.249056604,4.23 0.233490566,4.014 C0.217924528,3.78 0.373584906,3.582 0.560377358,3.564 L1.85235849,3.456 C2.05471698,3.438 2.2259434,3.618 2.24150943,3.834 C2.25707547,4.068 2.10141509,4.266 1.91462264,4.284 L0.622641509,4.392 C0.622641509,4.392 0.607075472,4.392 0.591509434,4.392 Z"></path>
                    <path d="M0.560377358,5.94 C0.373584906,5.94 0.217924528,5.778 0.202358491,5.562 C0.186792453,5.328 0.34245283,5.13 0.529245283,5.112 L1.82122642,5.004 C2.02358491,4.986 2.19481132,5.166 2.21037736,5.382 C2.2259434,5.616 2.07028302,5.814 1.88349057,5.832 L0.591509434,5.94 C0.575943396,5.94 0.560377358,5.94 0.560377358,5.94 Z"></path>
                    <path d="M0.513679245,7.614 C0.326886792,7.614 0.171226415,7.452 0.155660377,7.236 C0.14009434,7.002 0.295754717,6.804 0.48254717,6.786 L1.7745283,6.678 C1.97688679,6.66 2.14811321,6.84 2.16367925,7.056 C2.17924528,7.272 2.02358491,7.488 1.83679245,7.506 L0.544811321,7.614 C0.529245283,7.614 0.513679245,7.614 0.513679245,7.614 Z"></path>
                    <path d="M0.451415094,9.288 C0.264622642,9.288 0.108962264,9.126 0.0933962264,8.91 C0.0778301887,8.676 0.233490566,8.478 0.420283019,8.46 L1.61886792,8.352 C1.82122642,8.334 1.99245283,8.514 2.00801887,8.73 C2.02358491,8.964 1.86792453,9.162 1.68113208,9.18 L0.48254717,9.288 C0.48254717,9.288 0.466981132,9.288 0.451415094,9.288 Z"></path>
                </g>
            </g>
            <g id="Group" transform="translate(24.438679, 34.380000)" fill="#000000">
                <g transform="translate(0.000000, 9.900000)" id="Shape">
                    <path d="M0.575943396,1.116 C0.389150943,1.116 0.233490566,0.954 0.217924528,0.738 C0.202358491,0.504 0.34245283,0.306 0.529245283,0.288 L1.74339623,0.126 C1.94575472,0.108 2.11698113,0.27 2.13254717,0.486 C2.14811321,0.72 2.00801887,0.918 1.82122642,0.936 L0.607075472,1.098 C0.607075472,1.116 0.591509434,1.116 0.575943396,1.116 Z"></path>
                    <path d="M0.544811321,2.808 C0.358018868,2.808 0.202358491,2.646 0.186792453,2.43 C0.171226415,2.196 0.311320755,1.998 0.513679245,1.98 L1.69669811,1.872 C1.8990566,1.854 2.07028302,2.016 2.08584906,2.25 C2.10141509,2.484 1.96132075,2.682 1.75896226,2.7 L0.575943396,2.808 C0.560377358,2.808 0.560377358,2.808 0.544811321,2.808 Z"></path>
                    <path d="M0.513679245,4.356 C0.326886792,4.356 0.171226415,4.194 0.155660377,3.978 C0.14009434,3.744 0.280188679,3.546 0.48254717,3.528 L1.65,3.42 C1.85235849,3.402 2.02358491,3.564 2.03915094,3.798 C2.05471698,4.032 1.91462264,4.23 1.71226415,4.248 L0.544811321,4.356 C0.529245283,4.356 0.529245283,4.356 0.513679245,4.356 Z"></path>
                    <path d="M0.48254717,6.03 C0.295754717,6.03 0.14009434,5.868 0.124528302,5.652 C0.108962264,5.418 0.249056604,5.22 0.451415094,5.202 L1.55660377,5.094 C1.74339623,5.076 1.93018868,5.238 1.94575472,5.472 C1.96132075,5.706 1.82122642,5.904 1.61886792,5.922 L0.513679245,6.03 C0.498113208,6.03 0.498113208,6.03 0.48254717,6.03 Z"></path>
                    <path d="M0.451415094,7.722 C0.264622642,7.722 0.108962264,7.56 0.0933962264,7.344 C0.0778301887,7.11 0.217924528,6.912 0.420283019,6.894 L1.71226415,6.768 C1.91462264,6.75 2.08584906,6.912 2.10141509,7.146 C2.11698113,7.38 1.97688679,7.578 1.7745283,7.596 L0.48254717,7.722 C0.466981132,7.722 0.466981132,7.722 0.451415094,7.722 Z"></path>
                </g>
                <g id="Shape">
                    <path d="M0.420283019,1.188 C0.249056604,1.188 0.0933962264,1.044 0.0622641509,0.828 C0.0311320755,0.594 0.171226415,0.396 0.373584906,0.36 L1.66556604,0.162 C1.86792453,0.126 2.03915094,0.288 2.07028302,0.522 C2.10141509,0.756 1.96132075,0.954 1.75896226,0.99 L0.466981132,1.188 C0.451415094,1.188 0.435849057,1.188 0.420283019,1.188 Z"></path>
                    <path d="M0.466981132,2.862 C0.295754717,2.862 0.14009434,2.718 0.108962264,2.502 C0.0778301887,2.268 0.217924528,2.07 0.420283019,2.034 L1.71226415,1.836 C1.91462264,1.8 2.08584906,1.962 2.11698113,2.196 C2.14811321,2.43 2.00801887,2.628 1.80566038,2.664 L0.513679245,2.862 C0.498113208,2.862 0.48254717,2.862 0.466981132,2.862 Z"></path>
                    <path d="M0.498113208,4.536 C0.326886792,4.536 0.171226415,4.392 0.14009434,4.176 C0.108962264,3.942 0.249056604,3.744 0.451415094,3.708 L1.74339623,3.51 C1.94575472,3.474 2.11698113,3.636 2.14811321,3.87 C2.17924528,4.104 2.03915094,4.302 1.83679245,4.338 L0.544811321,4.536 C0.529245283,4.536 0.513679245,4.536 0.498113208,4.536 Z"></path>
                    <path d="M0.529245283,6.084 C0.358018868,6.084 0.202358491,5.94 0.171226415,5.724 C0.14009434,5.49 0.280188679,5.292 0.48254717,5.256 L1.7745283,5.058 C1.97688679,5.022 2.14811321,5.184 2.17924528,5.418 C2.21037736,5.652 2.07028302,5.85 1.86792453,5.886 L0.575943396,6.084 C0.560377358,6.084 0.544811321,6.084 0.529245283,6.084 Z"></path>
                    <path d="M0.575943396,7.758 C0.404716981,7.758 0.249056604,7.614 0.217924528,7.398 C0.186792453,7.164 0.326886792,6.966 0.529245283,6.93 L1.82122642,6.732 C2.02358491,6.696 2.19481132,6.858 2.2259434,7.092 C2.25707547,7.326 2.11698113,7.524 1.91462264,7.56 L0.622641509,7.758 C0.607075472,7.758 0.591509434,7.758 0.575943396,7.758 Z"></path>
                    <path d="M0.607075472,9.432 C0.435849057,9.432 0.280188679,9.288 0.249056604,9.072 C0.217924528,8.838 0.358018868,8.64 0.560377358,8.604 L1.74339623,8.406 C1.94575472,8.37 2.11698113,8.532 2.14811321,8.766 C2.17924528,9 2.03915094,9.198 1.83679245,9.234 L0.653773585,9.432 C0.638207547,9.432 0.622641509,9.432 0.607075472,9.432 Z"></path>
                </g>
            </g>
            <path d="M21.45,89.982 C21.4033019,89.982 21.3721698,89.982 21.3254717,89.964 C16.6556604,88.146 14.3518868,86.418 14.2740566,84.672 C14.2584906,84.438 14.4141509,84.222 14.6320755,84.222 C14.834434,84.204 15.0212264,84.384 15.0212264,84.636 C15.0523585,85.374 15.9084906,86.904 21.2009434,89.01 C23.8471698,78.462 25.1391509,43.452 24.7966981,35.496 C24.7811321,35.262 24.9523585,35.064 25.154717,35.046 C25.3570755,35.046 25.5283019,35.226 25.5438679,35.46 C25.8863208,43.578 24.5476415,79.632 21.7924528,89.712 C21.7613208,89.82 21.6990566,89.91 21.6056604,89.964 C21.5745283,89.964 21.5122642,89.982 21.45,89.982 Z" id="Shape" fill="#000000"></path>
            <path d="M49.8580189,83.16 C49.7646226,83.16 49.6867925,83.124 49.6089623,83.052 C47.2584906,80.712 42.1216981,79.524 34.3075472,79.524 C30.7740566,79.524 26.5556604,79.938 23.0377358,80.64 C22.8353774,80.676 22.6485849,80.532 22.6018868,80.28 C22.5551887,80.028 22.7108491,79.83 22.9132075,79.776 C26.4622642,79.074 30.7273585,78.642 34.3075472,78.642 C42.2929245,78.642 47.6009434,79.902 50.0915094,82.386 C50.2471698,82.548 50.2627358,82.818 50.1226415,82.998 C50.0759434,83.106 49.9669811,83.16 49.8580189,83.16 Z" id="Shape" fill="#000000"></path>
            <path d="M51.2900943,88.434 C51.134434,88.434 50.9943396,88.326 50.9476415,88.164 C50.4495283,86.688 49.9358491,84.78 49.4377358,82.512 C46.3712264,68.508 44.3165094,43.488 44.3787736,35.262 C44.3787736,35.028 44.55,34.83 44.7523585,34.83 C44.7523585,34.83 44.7523585,34.83 44.7523585,34.83 C44.954717,34.83 45.1259434,35.028 45.1259434,35.262 C45.0636792,43.452 47.1028302,68.364 50.1537736,82.296 C50.4806604,83.808 50.8231132,85.158 51.165566,86.328 C51.1966981,85.95 51.1811321,85.59 51.15,85.302 C51.1188679,85.068 51.2589623,84.852 51.4768868,84.816 C51.6792453,84.78 51.8660377,84.942 51.8971698,85.194 C51.990566,85.986 51.8816038,87.174 51.6481132,88.128 C51.6014151,88.308 51.4613208,88.434 51.3056604,88.434 C51.3056604,88.434 51.2900943,88.434 51.2900943,88.434 Z" id="Shape" fill="#000000"></path>
            <path d="M25.1858491,35.892 C25.0301887,35.892 24.8900943,35.784 24.8278302,35.604 L18.8504717,16.578 C18.8037736,16.416 18.8349057,16.254 18.9283019,16.128 L21.1698113,13.5 L16.7179245,11.43 C16.6089623,11.376 16.5311321,11.268 16.5,11.142 C16.4688679,11.016 16.5,10.872 16.5778302,10.764 C17.729717,9.144 22.6641509,3.06 25.3415094,0.9 C25.4816038,0.792 25.6528302,0.792 25.7773585,0.918 C25.9018868,1.026 25.9641509,1.224 25.9018868,1.404 C24.9834906,4.374 24.5165094,9.972 24.4698113,13.914 C24.4231132,17.892 25.5438679,35.262 25.5438679,35.424 C25.559434,35.64 25.4349057,35.838 25.2481132,35.874 C25.2325472,35.892 25.2014151,35.892 25.1858491,35.892 Z M19.6443396,16.542 L24.6099057,32.382 C24.2830189,27.144 23.6915094,16.902 23.7226415,13.896 C23.7693396,10.404 24.1273585,5.598 24.8589623,2.412 C22.4150943,4.716 18.8504717,9.054 17.4806604,10.854 L21.9636792,12.942 C22.0726415,12.996 22.1660377,13.104 22.1971698,13.248 C22.2283019,13.392 22.1816038,13.536 22.1037736,13.644 L19.6443396,16.542 Z" id="Shape" fill="#000000"></path>
            <path d="M44.7523585,35.694 C44.7523585,35.694 44.7367925,35.694 44.7367925,35.694 C44.55,35.676 44.3943396,35.514 44.3787736,35.28 C44.3632075,35.1 43.4603774,17.55 42.9466981,13.626 C42.4485849,9.72 41.3433962,4.248 40.0825472,1.44 C40.004717,1.278 40.0358491,1.062 40.1448113,0.936 C40.2537736,0.81 40.440566,0.774 40.5806604,0.864 C42.495283,1.998 44.4721698,5.292 46.0599057,7.938 C46.8382075,9.234 47.5075472,10.35 47.9589623,10.836 C48.0990566,10.98 48.1146226,11.214 48.0212264,11.394 L46.5735849,13.878 L47.3363208,17.622 C47.3518868,17.676 47.3518868,17.73 47.3363208,17.784 L45.1103774,35.334 C45.0948113,35.55 44.9391509,35.694 44.7523585,35.694 Z M41.3122642,2.502 C42.3707547,5.562 43.2580189,10.116 43.6938679,13.5 C44.0518868,16.308 44.5966981,25.614 44.9080189,31.104 L46.604717,17.73 L45.8264151,13.878 C45.795283,13.77 45.8264151,13.644 45.8731132,13.536 L47.2429245,11.196 C46.7759434,10.602 46.184434,9.63 45.4683962,8.424 C44.2853774,6.48 42.7599057,3.96 41.3122642,2.502 Z" id="Shape" fill="#000000"></path>
            <path d="M25.5438679,1.674 C25.3882075,1.674 25.2325472,1.548 25.1858491,1.368 C25.1235849,1.134 25.2325472,0.9 25.4349057,0.828 C28.4391509,-0.198 37.7632075,-0.054 40.5028302,0.828 C40.7051887,0.9 40.8141509,1.134 40.7674528,1.368 C40.7051887,1.602 40.5028302,1.728 40.3004717,1.674 C37.6853774,0.828 28.4858491,0.684 25.6372642,1.674 C25.6216981,1.674 25.575,1.674 25.5438679,1.674 Z" id="Shape" fill="#000000"></path>
            <path d="M42.1995283,8.1 C42.1528302,8.1 42.1216981,8.1 42.075,8.082 C38.9306604,6.858 28.0033019,6.804 24.7188679,7.74 C24.5165094,7.794 24.3141509,7.65 24.2674528,7.416 C24.2207547,7.182 24.345283,6.948 24.5476415,6.894 C27.9877358,5.922 39.0240566,5.976 42.3240566,7.272 C42.5264151,7.344 42.6198113,7.596 42.5575472,7.812 C42.495283,7.992 42.3551887,8.1 42.1995283,8.1 Z" id="Shape" fill="#000000"></path>
        </g>
    </g>
</svg>