<?xml version="1.0" encoding="UTF-8"?>
<svg width="90px" height="90px" viewBox="0 0 90 90" version="1.1" xmlns="http://www.w3.org/2000/svg" xmlns:xlink="http://www.w3.org/1999/xlink">
    <!-- Generator: Sketch 51.2 (57519) - http://www.bohemiancoding.com/sketch -->
    <title>Slice 1</title>
    <desc>Created with Sketch.</desc>
    <defs></defs>
    <g id="Page-1" stroke="none" stroke-width="1" fill="none" fill-rule="evenodd">
        <g id="куртка" transform="translate(0.000000, 11.000000)" fill-rule="nonzero">
            <g id="Group" opacity="0.3">
                <g id="Shape" transform="translate(0.274268, 0.274268)" fill="#CC9E5C">
                    <path d="M18.2799692,6.08875193 C12.6848998,7.17211094 6.93898305,11.4232666 6.47272727,14.0013867 C6.00647149,16.5795069 4.49799692,21.996302 3.71633282,26.5765794 C2.93466872,31.1568567 1.67303544,36.0662558 1.59075501,39.0694915 C1.50847458,42.0727273 0.411402157,56.142681 0.0959938367,65.4677966 L8.20061633,65.7969183 C8.43374422,60.5446841 9.54453005,43.6497689 10.0930663,41.1402157 C10.6416025,38.644376 11.5878274,33.8172573 13.2471495,27.9753467 L13.0140216,63.246225 C17.4983051,64.8232666 22.4214176,65.4952234 28.153621,65.4952234 L28.2084746,64.1513097 L29.5661017,64.2610169 L29.5661017,65.4952234 C35.2983051,65.4952234 40.0431433,64.8232666 44.5274268,63.246225 L44.2942989,28.0027735 C45.953621,33.8309707 46.8861325,38.6580894 47.4483821,41.1676425 C48.0106317,43.6771957 49.1077042,60.5721109 49.340832,65.8243451 L57.4454545,65.4952234 C57.1300462,56.1701079 56.0329738,42.0864407 55.9506934,39.0969183 C55.8684129,36.107396 54.6067797,31.1842835 53.8251156,26.6040062 C53.0434515,22.0237288 51.5486903,16.6069337 51.0687211,14.0288136 C50.5887519,11.4506934 44.8428351,7.17211094 39.2614792,6.08875193 C39.2614792,6.08875193 36.1211094,1.64560863 35.7234206,1.16563945 C35.3257319,0.685670262 33.0493066,0.137134052 30.4437596,0.137134052 C27.8382126,0.137134052 23.5459168,-0.0137134052 21.8180277,1.19306626 C20.0901387,2.39984592 18.2799692,6.08875193 18.2799692,6.08875193 Z"></path>
                </g>
                <g id="Shape" transform="translate(22.764253, 4.799692)" fill="#4F372A">
                    <path d="M5.7459168,0.137134052 C5.7459168,0.109707242 5.7459168,0.0685670262 5.7459168,0.0411402157 C-0.205701079,0.329121726 -0.164560863,-0.0822804314 0.0822804314,1.87873652 C0.329121726,3.83975347 3.6751926,15.1807396 4.703698,18.3348228 C5.71848998,21.488906 6.22588598,21.6534669 6.22588598,21.6534669 C6.22588598,21.6534669 6.22588598,21.6397535 6.22588598,21.6260401 C6.2807396,21.6534669 6.30816641,21.6534669 6.30816641,21.6534669 C6.30816641,21.6534669 6.801849,21.488906 7.83035439,18.3348228 C8.84514638,15.1807396 12.1363636,3.82604006 12.451772,1.87873652 C12.8220339,-0.57596302 11.4095532,0.383975347 5.7459168,0.137134052 Z"></path>
                </g>
                <g id="Shape" transform="translate(22.215716, 0.411402)" fill="#936044">
                    <path d="M0.589676425,0.466255778 C-0.137134052,1.0559322 -0.150847458,4.75855162 0.617103236,4.90939908 C1.38505393,5.06024653 5.40308166,4.42942989 7.13097072,4.4568567 C8.28289676,4.47057011 11.6015408,5.07395994 13.0688752,4.4568567 C13.7956857,4.15516179 13.3568567,3.04437596 13.3568567,2.41355932 C13.3979969,0.918798151 13.6585516,0.370261941 12.2734977,0.274268105 C10.8884438,0.164560863 2.78382126,-0.178274268 0.589676425,0.466255778 Z"></path>
                </g>
                <g id="Shape" transform="translate(15.633282, 0.959938)" fill="#936044">
                    <path d="M6.85670262,0 C5.04653313,2.0844376 0.713097072,9.24283513 0.0137134052,10.7375963 C2.37241911,10.7375963 5.67734977,10.7375963 5.67734977,10.7375963 L3.42835131,13.4802773 L12.8631741,25.3423729 C12.8631741,25.3423729 8.65315871,12.6437596 7.95377504,9.64052388 C7.25439137,6.63728814 6.62357473,2.41355932 6.85670262,0 Z"></path>
                </g>
                <g id="Shape" opacity="0.2" transform="translate(0.274268, 1.234206)" fill="#FFFFFF">
                    <g id="Group">
                        <path d="M22.4899846,5.12881356 C18.9793529,8.3651772 16.9223421,9.51710324 15.3727273,10.3261941 C13.8231125,11.1352851 10.6278891,10.5318952 9.29768875,16.4560863 C7.96748844,22.3802773 5.08767334,32.7750385 4.82711864,37.4924499 C4.56656394,42.2098613 3.55177196,62.5057011 3.35978428,64.6587057 C2.27642527,64.6175655 0.0822804314,64.5215716 0.0822804314,64.5215716 L0.699383667,52.453775 C0.699383667,52.453775 1.5770416,37.3004622 1.75531587,36.0662558 C1.93359014,34.8320493 6.45901387,13.0414484 6.45901387,13.0414484 C6.45901387,13.0414484 7.83035439,10.6141757 8.72172573,9.87365177 C9.61309707,9.13312789 14.8241911,5.52650231 18.6776579,4.79969183 C19.2810478,3.27750385 21.9688752,0 21.9688752,0 L22.4899846,5.12881356 Z" id="Shape"></path>
                    </g>
                </g>
                <g id="Shape" transform="translate(29.483821, 0.959938)" fill="#936044">
                    <path d="M6.10246533,0 C7.91263482,2.0844376 12.2460709,9.24283513 12.9454545,10.7375963 C10.5867488,10.7375963 7.28181818,10.7375963 7.28181818,10.7375963 L9.53081664,13.4802773 L0.054853621,25.4795069 C0.054853621,25.4795069 4.29229584,12.657473 5.00539291,9.65423729 C5.71848998,6.65100154 6.34930663,2.41355932 6.10246533,0 Z"></path>
                </g>
                <g id="Shape" transform="translate(0.274268, 61.298921)" fill="#936044">
                    <polygon points="0.370261941 0 8.40631741 0.31540832 8.20061633 4.78597843 0.0959938367 4.4568567"></polygon>
                </g>
                <g id="Shape" transform="translate(49.231125, 61.298921)" fill="#936044">
                    <polygon points="8.09090909 0 0.0685670262 0.31540832 0.2605547 4.78597843 8.3651772 4.4568567"></polygon>
                </g>
                <g id="Shape" transform="translate(15.359014, 49.505393)" fill="#936044">
                    <polygon points="22.942527 0.0137134052 27.275963 9.62681048 25.9183359 11.43698 20.9403698 1.17935285"></polygon>
                    <polygon points="4.42942989 0.0137134052 0.0959938367 9.62681048 1.45362096 11.43698 6.43158706 1.17935285"></polygon>
                </g>
                <g transform="translate(27.426810, 25.918336)">
                    <g>
                        <g id="Shape" transform="translate(0.685670, 11.656394)" fill="#000000">
                            <path d="M1.42619414,19.0890601 L0.397688752,19.0890601 C0.233127889,19.0890601 0.109707242,18.9656394 0.109707242,18.8010786 C0.109707242,18.6365177 0.233127889,18.5130971 0.397688752,18.5130971 L1.42619414,18.5130971 C1.59075501,18.5130971 1.71417565,18.6365177 1.71417565,18.8010786 C1.71417565,18.9656394 1.59075501,19.0890601 1.42619414,19.0890601 Z"></path>
                            <path d="M1.42619414,17.9371341 L0.397688752,17.9371341 C0.233127889,17.9371341 0.109707242,17.8137134 0.109707242,17.6491525 C0.109707242,17.4845917 0.233127889,17.361171 0.397688752,17.361171 L1.42619414,17.361171 C1.59075501,17.361171 1.71417565,17.4845917 1.71417565,17.6491525 C1.71417565,17.8137134 1.59075501,17.9371341 1.42619414,17.9371341 Z"></path>
                            <path d="M1.42619414,16.785208 L0.397688752,16.785208 C0.233127889,16.785208 0.109707242,16.6617874 0.109707242,16.4972265 C0.109707242,16.3326656 0.233127889,16.209245 0.397688752,16.209245 L1.42619414,16.209245 C1.59075501,16.209245 1.71417565,16.3326656 1.71417565,16.4972265 C1.71417565,16.6617874 1.59075501,16.785208 1.42619414,16.785208 Z"></path>
                            <path d="M1.42619414,15.6195686 L0.397688752,15.6195686 C0.233127889,15.6195686 0.109707242,15.4961479 0.109707242,15.3315871 C0.109707242,15.1670262 0.233127889,15.0436055 0.397688752,15.0436055 L1.42619414,15.0436055 C1.59075501,15.0436055 1.71417565,15.1670262 1.71417565,15.3315871 C1.71417565,15.4961479 1.59075501,15.6195686 1.42619414,15.6195686 Z"></path>
                            <path d="M1.42619414,14.4813559 L0.397688752,14.4813559 C0.233127889,14.4813559 0.109707242,14.3579353 0.109707242,14.1933744 C0.109707242,14.0288136 0.233127889,13.9053929 0.397688752,13.9053929 L1.42619414,13.9053929 C1.59075501,13.9053929 1.71417565,14.0288136 1.71417565,14.1933744 C1.71417565,14.3579353 1.59075501,14.4813559 1.42619414,14.4813559 Z"></path>
                            <path d="M1.42619414,13.3294299 L0.397688752,13.3294299 C0.233127889,13.3294299 0.109707242,13.2060092 0.109707242,13.0414484 C0.109707242,12.8768875 0.233127889,12.7534669 0.397688752,12.7534669 L1.42619414,12.7534669 C1.59075501,12.7534669 1.71417565,12.8768875 1.71417565,13.0414484 C1.71417565,13.2060092 1.59075501,13.3294299 1.42619414,13.3294299 Z"></path>
                            <path d="M1.42619414,12.1775039 L0.397688752,12.1775039 C0.233127889,12.1775039 0.109707242,12.0540832 0.109707242,11.8895223 C0.109707242,11.7249615 0.233127889,11.6015408 0.397688752,11.6015408 L1.42619414,11.6015408 C1.59075501,11.6015408 1.71417565,11.7249615 1.71417565,11.8895223 C1.71417565,12.0540832 1.59075501,12.1775039 1.42619414,12.1775039 Z"></path>
                            <path d="M1.42619414,11.0118644 L0.397688752,11.0118644 C0.233127889,11.0118644 0.109707242,10.8884438 0.109707242,10.7238829 C0.109707242,10.559322 0.233127889,10.4359014 0.397688752,10.4359014 L1.42619414,10.4359014 C1.59075501,10.4359014 1.71417565,10.559322 1.71417565,10.7238829 C1.71417565,10.8884438 1.59075501,11.0118644 1.42619414,11.0118644 Z"></path>
                            <path d="M1.42619414,9.85993837 L0.397688752,9.85993837 C0.233127889,9.85993837 0.109707242,9.73651772 0.109707242,9.57195686 C0.109707242,9.40739599 0.233127889,9.28397535 0.397688752,9.28397535 L1.42619414,9.28397535 C1.59075501,9.28397535 1.71417565,9.40739599 1.71417565,9.57195686 C1.71417565,9.73651772 1.59075501,9.85993837 1.42619414,9.85993837 Z"></path>
                            <path d="M1.42619414,8.70801233 L0.397688752,8.70801233 C0.233127889,8.70801233 0.109707242,8.58459168 0.109707242,8.42003082 C0.109707242,8.25546995 0.233127889,8.13204931 0.397688752,8.13204931 L1.42619414,8.13204931 C1.59075501,8.13204931 1.71417565,8.25546995 1.71417565,8.42003082 C1.71417565,8.58459168 1.59075501,8.70801233 1.42619414,8.70801233 Z"></path>
                            <path d="M1.42619414,7.55608629 L0.397688752,7.55608629 C0.233127889,7.55608629 0.109707242,7.43266564 0.109707242,7.26810478 C0.109707242,7.10354391 0.233127889,6.98012327 0.397688752,6.98012327 L1.42619414,6.98012327 C1.59075501,6.98012327 1.71417565,7.10354391 1.71417565,7.26810478 C1.71417565,7.43266564 1.59075501,7.55608629 1.42619414,7.55608629 Z"></path>
                            <path d="M1.42619414,6.39044684 L0.397688752,6.39044684 C0.233127889,6.39044684 0.109707242,6.26702619 0.109707242,6.10246533 C0.109707242,5.93790447 0.233127889,5.81448382 0.397688752,5.81448382 L1.42619414,5.81448382 C1.59075501,5.81448382 1.71417565,5.93790447 1.71417565,6.10246533 C1.71417565,6.26702619 1.59075501,6.39044684 1.42619414,6.39044684 Z"></path>
                            <path d="M1.42619414,5.2385208 L0.397688752,5.2385208 C0.233127889,5.2385208 0.109707242,5.11510015 0.109707242,4.95053929 C0.109707242,4.78597843 0.233127889,4.66255778 0.397688752,4.66255778 L1.42619414,4.66255778 C1.59075501,4.66255778 1.71417565,4.78597843 1.71417565,4.95053929 C1.71417565,5.11510015 1.59075501,5.2385208 1.42619414,5.2385208 Z"></path>
                            <path d="M1.42619414,4.08659476 L0.397688752,4.08659476 C0.233127889,4.08659476 0.109707242,3.96317411 0.109707242,3.79861325 C0.109707242,3.63405239 0.233127889,3.51063174 0.397688752,3.51063174 L1.42619414,3.51063174 C1.59075501,3.51063174 1.71417565,3.63405239 1.71417565,3.79861325 C1.71417565,3.96317411 1.59075501,4.08659476 1.42619414,4.08659476 Z"></path>
                            <path d="M1.42619414,2.93466872 L0.397688752,2.93466872 C0.233127889,2.93466872 0.109707242,2.81124807 0.109707242,2.64668721 C0.109707242,2.48212635 0.233127889,2.3587057 0.397688752,2.3587057 L1.42619414,2.3587057 C1.59075501,2.3587057 1.71417565,2.48212635 1.71417565,2.64668721 C1.71417565,2.81124807 1.59075501,2.93466872 1.42619414,2.93466872 Z"></path>
                            <path d="M1.42619414,1.76902928 L0.397688752,1.76902928 C0.233127889,1.76902928 0.109707242,1.64560863 0.109707242,1.48104777 C0.109707242,1.3164869 0.233127889,1.19306626 0.397688752,1.19306626 L1.42619414,1.19306626 C1.59075501,1.19306626 1.71417565,1.3164869 1.71417565,1.48104777 C1.71417565,1.64560863 1.59075501,1.76902928 1.42619414,1.76902928 Z"></path>
                            <path d="M1.42619414,0.630816641 L0.397688752,0.630816641 C0.233127889,0.630816641 0.109707242,0.507395994 0.109707242,0.342835131 C0.109707242,0.178274268 0.233127889,0.054853621 0.397688752,0.054853621 L1.42619414,0.054853621 C1.59075501,0.054853621 1.71417565,0.178274268 1.71417565,0.342835131 C1.71417565,0.507395994 1.59075501,0.630816641 1.42619414,0.630816641 Z"></path>
                        </g>
                        <path d="M2.11186441,11.1352851 L1.08335901,11.1352851 C0.918798151,11.1352851 0.795377504,11.0118644 0.795377504,10.8473035 C0.795377504,10.6827427 0.918798151,10.559322 1.08335901,10.559322 L2.11186441,10.559322 C2.27642527,10.559322 2.39984592,10.6827427 2.39984592,10.8473035 C2.39984592,11.0118644 2.27642527,11.1352851 2.11186441,11.1352851 Z" id="Shape" fill="#000000"></path>
                        <path d="M2.11186441,9.98335901 L1.08335901,9.98335901 C0.918798151,9.98335901 0.795377504,9.85993837 0.795377504,9.6953775 C0.795377504,9.53081664 0.918798151,9.40739599 1.08335901,9.40739599 L2.11186441,9.40739599 C2.27642527,9.40739599 2.39984592,9.53081664 2.39984592,9.6953775 C2.39984592,9.85993837 2.27642527,9.98335901 2.11186441,9.98335901 Z" id="Shape" fill="#000000"></path>
                        <path d="M2.11186441,8.81771957 L1.08335901,8.81771957 C0.918798151,8.81771957 0.795377504,8.69429892 0.795377504,8.52973806 C0.795377504,8.3651772 0.918798151,8.24175655 1.08335901,8.24175655 L2.11186441,8.24175655 C2.27642527,8.24175655 2.39984592,8.3651772 2.39984592,8.52973806 C2.39984592,8.69429892 2.27642527,8.81771957 2.11186441,8.81771957 Z" id="Shape" fill="#000000"></path>
                        <path d="M2.11186441,7.66579353 L1.08335901,7.66579353 C0.918798151,7.66579353 0.795377504,7.54237288 0.795377504,7.37781202 C0.795377504,7.21325116 0.918798151,7.08983051 1.08335901,7.08983051 L2.11186441,7.08983051 C2.27642527,7.08983051 2.39984592,7.21325116 2.39984592,7.37781202 C2.39984592,7.54237288 2.27642527,7.66579353 2.11186441,7.66579353 Z" id="Shape" fill="#000000"></path>
                        <path d="M2.11186441,6.51386749 L1.08335901,6.51386749 C0.918798151,6.51386749 0.795377504,6.39044684 0.795377504,6.22588598 C0.795377504,6.06132512 0.918798151,5.93790447 1.08335901,5.93790447 L2.11186441,5.93790447 C2.27642527,5.93790447 2.39984592,6.06132512 2.39984592,6.22588598 C2.39984592,6.39044684 2.27642527,6.51386749 2.11186441,6.51386749 Z" id="Shape" fill="#000000"></path>
                        <path d="M2.11186441,5.36194145 L1.08335901,5.36194145 C0.918798151,5.36194145 0.795377504,5.2385208 0.795377504,5.07395994 C0.795377504,4.90939908 0.918798151,4.78597843 1.08335901,4.78597843 L2.11186441,4.78597843 C2.27642527,4.78597843 2.39984592,4.90939908 2.39984592,5.07395994 C2.39984592,5.2385208 2.27642527,5.36194145 2.11186441,5.36194145 Z" id="Shape" fill="#000000"></path>
                        <path d="M2.11186441,4.196302 L1.08335901,4.196302 C0.918798151,4.196302 0.795377504,4.07288136 0.795377504,3.90832049 C0.795377504,3.74375963 0.918798151,3.62033898 1.08335901,3.62033898 L2.11186441,3.62033898 C2.27642527,3.62033898 2.39984592,3.74375963 2.39984592,3.90832049 C2.39984592,4.07288136 2.27642527,4.196302 2.11186441,4.196302 Z" id="Shape" fill="#000000"></path>
                        <path d="M2.11186441,3.04437596 L1.08335901,3.04437596 C0.918798151,3.04437596 0.795377504,2.92095532 0.795377504,2.75639445 C0.795377504,2.59183359 0.918798151,2.46841294 1.08335901,2.46841294 L2.11186441,2.46841294 C2.27642527,2.46841294 2.39984592,2.59183359 2.39984592,2.75639445 C2.39984592,2.92095532 2.27642527,3.04437596 2.11186441,3.04437596 Z" id="Shape" fill="#000000"></path>
                        <rect id="Rectangle-path" fill="#000000" x="0.809090909" y="0.0137134052" width="1.67303544" height="2.66040062"></rect>
                        <polygon id="Shape" fill="#000000" points="1.33020031 1.34391371 0.109707242 4.33343606 3.09922958 4.33343606 1.86502311 1.34391371"></polygon>
                        <circle id="Oval" fill="#CC9E5C" cx="1.64560863" cy="3.29121726" r="1"></circle>
                    </g>
                    <path d="M2.11186441,31.8973806 L1.08335901,31.8973806 C0.918798151,31.8973806 0.795377504,31.7739599 0.795377504,31.6093991 C0.795377504,31.4448382 0.918798151,31.3214176 1.08335901,31.3214176 L2.11186441,31.3214176 C2.27642527,31.3214176 2.39984592,31.4448382 2.39984592,31.6093991 C2.39984592,31.7739599 2.27642527,31.8973806 2.11186441,31.8973806 Z" id="Shape" fill="#000000"></path>
                </g>
                <g id="Shape" transform="translate(28.112481, 57.184900)" fill="#000000">
                    <g id="Group" transform="translate(0.000000, 1.097072)">
                        <path d="M1.45362096,0.685670262 L0.425115562,0.685670262 C0.2605547,0.685670262 0.137134052,0.562249615 0.137134052,0.397688752 C0.137134052,0.233127889 0.2605547,0.109707242 0.425115562,0.109707242 L1.45362096,0.109707242 C1.61818182,0.109707242 1.74160247,0.233127889 1.74160247,0.397688752 C1.74160247,0.562249615 1.61818182,0.685670262 1.45362096,0.685670262 Z" id="Shape"></path>
                        <path d="M1.45362096,1.8375963 L0.425115562,1.8375963 C0.2605547,1.8375963 0.137134052,1.71417565 0.137134052,1.54961479 C0.137134052,1.38505393 0.2605547,1.26163328 0.425115562,1.26163328 L1.45362096,1.26163328 C1.61818182,1.26163328 1.74160247,1.38505393 1.74160247,1.54961479 C1.74160247,1.71417565 1.61818182,1.8375963 1.45362096,1.8375963 Z" id="Shape"></path>
                        <path d="M1.45362096,2.98952234 L0.425115562,2.98952234 C0.2605547,2.98952234 0.137134052,2.86610169 0.137134052,2.70154083 C0.137134052,2.53697997 0.2605547,2.41355932 0.425115562,2.41355932 L1.45362096,2.41355932 C1.61818182,2.41355932 1.74160247,2.53697997 1.74160247,2.70154083 C1.74160247,2.86610169 1.61818182,2.98952234 1.45362096,2.98952234 Z" id="Shape"></path>
                        <path d="M1.45362096,4.15516179 L0.425115562,4.15516179 C0.2605547,4.15516179 0.137134052,4.03174114 0.137134052,3.86718028 C0.137134052,3.70261941 0.2605547,3.57919877 0.425115562,3.57919877 L1.45362096,3.57919877 C1.61818182,3.57919877 1.74160247,3.70261941 1.74160247,3.86718028 C1.74160247,4.03174114 1.61818182,4.15516179 1.45362096,4.15516179 Z" id="Shape"></path>
                        <path d="M1.45362096,5.30708783 L0.425115562,5.30708783 C0.2605547,5.30708783 0.137134052,5.18366718 0.137134052,5.01910632 C0.137134052,4.85454545 0.2605547,4.73112481 0.425115562,4.73112481 L1.45362096,4.73112481 C1.61818182,4.73112481 1.74160247,4.85454545 1.74160247,5.01910632 C1.74160247,5.18366718 1.61818182,5.30708783 1.45362096,5.30708783 Z" id="Shape"></path>
                        <path d="M0.370261941,7.78921418 C0.205701079,7.78921418 0.0822804314,7.66579353 0.0822804314,7.50123267 L0.0822804314,6.17103236 C0.0822804314,6.00647149 0.205701079,5.88305085 0.370261941,5.88305085 L1.72788906,5.88305085 C1.89244992,5.88305085 2.01587057,6.00647149 2.01587057,6.17103236 C2.01587057,6.33559322 1.89244992,6.45901387 1.72788906,6.45901387 L0.658243451,6.45901387 L0.658243451,7.51494607 C0.658243451,7.66579353 0.521109399,7.78921418 0.370261941,7.78921418 Z" id="Shape"></path>
                    </g>
                    <path d="M1.45362096,0.630816641 L0.425115562,0.630816641 C0.2605547,0.630816641 0.137134052,0.507395994 0.137134052,0.342835131 C0.137134052,0.178274268 0.2605547,0.054853621 0.425115562,0.054853621 L1.45362096,0.054853621 C1.61818182,0.054853621 1.74160247,0.178274268 1.74160247,0.342835131 C1.74160247,0.507395994 1.61818182,0.630816641 1.45362096,0.630816641 Z"></path>
                </g>
                <g id="Shape" transform="translate(15.221880, 0.548536)" fill="#000000">
                    <path d="M13.2882897,26.0966102 C13.1922958,26.0966102 13.096302,26.05547 13.027735,25.9731895 L3.59291217,14.111094 C3.49691834,13.9876733 3.49691834,13.8231125 3.59291217,13.6996918 L5.40308166,11.4918336 L0.425115562,11.4918336 C0.31540832,11.4918336 0.205701079,11.43698 0.150847458,11.3409861 C0.0959938367,11.2449923 0.0822804314,11.1215716 0.137134052,11.0255778 C0.86394453,9.48967643 5.19738059,2.31756549 7.03497689,0.205701079 C7.13097072,0.0959938367 7.28181818,0.0685670262 7.41895223,0.123420647 C7.55608629,0.178274268 7.62465331,0.31540832 7.61093991,0.452542373 C7.37781202,2.83867488 8.00862866,7.0761171 8.70801233,10.0107858 C9.40739599,12.959168 13.5762712,25.5617874 13.6174114,25.685208 C13.672265,25.8360555 13.603698,26.0006163 13.4665639,26.0828968 C13.3979969,26.0828968 13.3431433,26.0966102 13.2882897,26.0966102 Z M4.26486903,13.9053929 L12.3969183,24.1218798 C11.2175655,20.5289676 8.59830508,12.4791988 8.04976888,10.1479199 C7.43266564,7.55608629 6.87041602,3.9357473 6.88412943,1.41248074 C5.07395994,3.83975347 1.98844376,8.91371341 0.959938367,10.8198767 L6.08875193,10.8198767 C6.21217257,10.8198767 6.33559322,10.8884438 6.39044684,11.0118644 C6.44530046,11.1215716 6.43158706,11.2587057 6.34930663,11.3546995 L4.26486903,13.9053929 Z"></path>
                </g>
                <g id="Shape" transform="translate(0.000000, 5.896764)" fill="#000000">
                    <path d="M8.48859784,60.5172573 C8.48859784,60.5172573 8.47488444,60.5172573 8.47488444,60.5172573 L0.370261941,60.1881356 C0.191987673,60.1744222 0.054853621,60.0235747 0.054853621,59.8453005 C0.246841294,54.1268105 0.740523883,46.5158706 1.11078582,40.9756549 C1.34391371,37.4101695 1.52218798,34.5989214 1.54961479,33.4469954 C1.60446841,31.4311248 2.18043143,28.5787365 2.78382126,25.5617874 C3.09922958,24.025886 3.4146379,22.4488444 3.6751926,20.8992296 C4.14144838,18.1702619 4.84083205,15.2081664 5.47164869,12.6026194 C5.88305085,10.8610169 6.23959938,9.35254237 6.43158706,8.31032357 C6.92526965,5.63620955 12.6986133,1.26163328 18.4993837,0.137134052 C18.6776579,0.0959938367 18.8559322,0.219414484 18.883359,0.397688752 C18.9244992,0.57596302 18.8010786,0.754237288 18.6228043,0.781664099 C13.2060092,1.8375963 7.52865948,5.97904468 7.0761171,8.43374422 C6.88412943,9.48967643 6.52758089,10.998151 6.10246533,12.7534669 C5.4853621,15.3453005 4.78597843,18.2936826 4.31972265,21.0089368 C4.05916795,22.5585516 3.73004622,24.1493066 3.42835131,25.685208 C2.82496148,28.6747304 2.26271186,31.4996918 2.20785824,33.4469954 C2.18043143,34.6126348 1.98844376,37.4375963 1.75531587,41.0030817 C1.39876733,46.4473035 0.918798151,53.8525424 0.713097072,59.5298921 L8.17318952,59.8315871 C8.42003082,54.5382126 9.48967643,38.0135593 10.051926,35.4491525 C10.1479199,35.0103236 10.2576271,34.516641 10.3810478,33.9543914 C10.9570108,31.2254237 11.8483821,27.1114022 13.2060092,22.2705701 C13.2471495,22.1060092 13.4117103,22.0100154 13.5625578,22.0374422 C13.7271186,22.064869 13.8505393,22.2020031 13.8505393,22.3665639 L13.6174114,57.4043143 C17.868567,58.8716487 22.5859784,59.557319 28.4278891,59.557319 C28.6061633,59.557319 28.7570108,59.7081664 28.7570108,59.8864407 C28.7570108,60.0647149 28.6061633,60.2155624 28.4278891,60.2155624 C22.4077042,60.2155624 17.5668721,59.4887519 13.1785824,57.9528505 C13.0414484,57.9117103 12.959168,57.7745763 12.959168,57.6374422 L13.1785824,24.8761171 C12.1775039,28.6335901 11.505547,31.842527 11.0255778,34.0915254 C10.9021572,34.653775 10.7924499,35.161171 10.6964561,35.6 C10.1616333,38.0135593 9.06456086,54.6616333 8.81771957,60.201849 C8.80400616,60.3801233 8.65315871,60.5172573 8.48859784,60.5172573 Z"></path>
                </g>
                <g id="Shape" transform="translate(29.209553, 0.548536)" fill="#000000">
                    <path d="M0.329121726,26.2200308 C0.274268105,26.2200308 0.219414484,26.2063174 0.178274268,26.1788906 C0.0411402157,26.0966102 -0.0274268105,25.9320493 0.0274268105,25.7812018 C0.0685670262,25.6577812 4.27858243,12.9317411 4.9642527,9.98335901 C5.64992296,7.0624037 6.294453,2.82496148 6.06132512,0.425115562 C6.04761171,0.28798151 6.12989214,0.150847458 6.25331279,0.0959938367 C6.39044684,0.0411402157 6.5412943,0.0685670262 6.63728814,0.178274268 C8.47488444,2.29013867 12.8083205,9.46224961 13.535131,10.998151 C13.5899846,11.0941448 13.5762712,11.2175655 13.5214176,11.3135593 C13.4665639,11.4095532 13.3568567,11.4644068 13.2471495,11.4644068 L8.26918336,11.4644068 L10.0793529,13.672265 C10.1753467,13.7956857 10.1753467,13.9602465 10.0793529,14.0836672 L0.603389831,26.0828968 C0.521109399,26.1788906 0.425115562,26.2200308 0.329121726,26.2200308 Z M6.76070878,1.41248074 C6.78813559,3.9357473 6.21217257,7.55608629 5.59506934,10.1479199 C5.04653313,12.4929122 2.41355932,20.5975347 1.22049307,24.2315871 L9.37996918,13.9053929 L7.30924499,11.3684129 C7.22696456,11.2724191 7.21325116,11.1352851 7.26810478,11.0255778 C7.3229584,10.9158706 7.43266564,10.8335901 7.56979969,10.8335901 L12.6986133,10.8335901 C11.6701079,8.91371341 8.57087827,3.83975347 6.76070878,1.41248074 Z"></path>
                </g>
                <g id="Shape" transform="translate(29.483821, 5.896764)" fill="#000000">
                    <path d="M20.1175655,60.5172573 C19.9392912,60.5172573 19.8021572,60.3801233 19.7884438,60.201849 C19.5416025,54.6753467 18.44453,38.0135593 17.9097072,35.6 C17.8137134,35.161171 17.7040062,34.653775 17.5805855,34.0915254 C17.1006163,31.842527 16.4149461,28.6473035 15.4275809,24.8761171 L15.6469954,57.6374422 C15.6469954,57.7745763 15.5647149,57.8979969 15.4275809,57.9528505 C11.0392912,59.5024653 6.25331279,60.2155624 0.356548536,60.2155624 C0.178274268,60.2155624 0.0274268105,60.0647149 0.0274268105,59.8864407 L0.0274268105,58.6522342 C0.0274268105,58.4739599 0.178274268,58.3231125 0.356548536,58.3231125 C0.534822804,58.3231125 0.685670262,58.4739599 0.685670262,58.6522342 L0.685670262,59.557319 C6.25331279,59.5298921 10.8198767,58.8442219 14.9887519,57.4043143 L14.755624,22.3665639 C14.755624,22.2020031 14.8790447,22.064869 15.0436055,22.0374422 C15.2081664,22.0100154 15.3590139,22.1197227 15.4001541,22.2705701 C16.7714946,27.0976888 17.6491525,31.2117103 18.2251156,33.940678 C18.3485362,34.5029276 18.4582435,35.0103236 18.5542373,35.4491525 C19.1164869,38.0135593 20.1861325,54.5382126 20.4329738,59.8315871 L27.8930663,59.5298921 C27.6873652,53.8525424 27.207396,46.4473035 26.8508475,41.0030817 C26.6177196,37.4375963 26.4394453,34.6126348 26.3983051,33.4469954 C26.3434515,31.4859784 25.7812018,28.6610169 25.177812,25.685208 C24.8624037,24.1493066 24.5469954,22.5585516 24.2864407,21.0089368 C23.8201849,18.307396 23.1208012,15.3590139 22.503698,12.7534669 C22.0922958,10.998151 21.7220339,9.48967643 21.5300462,8.43374422 C21.0775039,5.97904468 15.4001541,1.8375963 9.98335901,0.781664099 C9.80508475,0.740523883 9.6816641,0.57596302 9.72280431,0.397688752 C9.76394453,0.219414484 9.92850539,0.0959938367 10.1067797,0.137134052 C15.9075501,1.26163328 21.6946071,5.64992296 22.1745763,8.31032357 C22.3665639,9.35254237 22.7231125,10.8610169 23.1345146,12.6026194 C23.7516179,15.2081664 24.4647149,18.1702619 24.9309707,20.8992296 C25.1915254,22.435131 25.5206471,24.025886 25.8223421,25.5617874 C26.4257319,28.5787365 27.0016949,31.4311248 27.0565485,33.4469954 C27.0839753,34.5989214 27.275963,37.4101695 27.5090909,40.9756549 C27.8656394,46.529584 28.359322,54.1268105 28.5650231,59.8453005 C28.5650231,60.0235747 28.4278891,60.1744222 28.2496148,60.1881356 L20.1449923,60.5172573 C20.1312789,60.5172573 20.1312789,60.5172573 20.1175655,60.5172573 Z"></path>
                </g>
                <g id="Shape" transform="translate(22.078582, 0.000000)" fill="#000000">
                    <path d="M0.411402157,1.28906009 C0.274268105,1.28906009 0.137134052,1.19306626 0.0959938367,1.0559322 C0.0411402157,0.877657935 0.137134052,0.699383667 0.31540832,0.644530046 C2.96209553,-0.137134052 11.1764253,-0.0274268105 13.5899846,0.644530046 C13.7682589,0.699383667 13.8642527,0.877657935 13.8231125,1.0559322 C13.7682589,1.23420647 13.5899846,1.33020031 13.4117103,1.28906009 C11.1078582,0.644530046 3.00323575,0.534822804 0.493682589,1.28906009 C0.479969183,1.27534669 0.452542373,1.28906009 0.411402157,1.28906009 Z"></path>
                </g>
                <g id="Shape" transform="translate(22.352851, 4.388290)" fill="#000000">
                    <path d="M0.370261941,1.28906009 C0.219414484,1.28906009 0.0822804314,1.19306626 0.054853621,1.0422188 C0.0137134052,0.86394453 0.123420647,0.685670262 0.301694915,0.644530046 C3.46949153,-0.137134052 10.4496148,0.0685670262 13.027735,0.479969183 C13.2060092,0.507395994 13.3294299,0.671956857 13.3020031,0.850231125 C13.2745763,1.02850539 13.1100154,1.15192604 12.9317411,1.12449923 C10.4633282,0.740523883 3.49691834,0.534822804 0.466255778,1.28906009 C0.411402157,1.27534669 0.383975347,1.28906009 0.370261941,1.28906009 Z"></path>
                </g>
                <g id="Shape" transform="translate(15.084746, 49.093991)" fill="#000000">
                    <path d="M26.192604,12.1775039 C26.1788906,12.1775039 26.1651772,12.1775039 26.1651772,12.1775039 C26.05547,12.1637904 25.9457627,12.0952234 25.9046225,11.9992296 L20.9266564,1.72788906 C20.8580894,1.5770416 20.912943,1.38505393 21.050077,1.3027735 L23.0522342,0.137134052 C23.1345146,0.0959938367 23.2305085,0.0822804314 23.3127889,0.109707242 C23.3950693,0.137134052 23.4773498,0.205701079 23.51849,0.28798151 L27.851926,9.90107858 C27.9067797,10.0107858 27.8930663,10.1342065 27.8107858,10.2302003 L26.4531587,12.0403698 C26.3983051,12.1363636 26.3023112,12.1775039 26.192604,12.1775039 Z M21.6397535,1.71417565 L26.2474576,11.2175655 L27.1662558,9.99707242 L23.0522342,0.891371341 L21.6397535,1.71417565 Z"></path>
                    <path d="M1.72788906,12.1775039 C1.61818182,12.1775039 1.52218798,12.1226502 1.46733436,12.0403698 L0.109707242,10.2302003 C0.0411402157,10.1342065 0.0274268105,10.0107858 0.0685670262,9.90107858 L4.40200308,0.28798151 C4.4431433,0.205701079 4.51171032,0.137134052 4.60770416,0.109707242 C4.703698,0.0822804314 4.79969183,0.0959938367 4.86825886,0.137134052 L6.87041602,1.3027735 C7.02126348,1.38505393 7.0761171,1.5770416 6.99383667,1.72788906 L2.01587057,11.9992296 C1.96101695,12.1089368 1.86502311,12.1775039 1.75531587,12.1775039 C1.74160247,12.1775039 1.74160247,12.1775039 1.72788906,12.1775039 Z M0.740523883,9.99707242 L1.65932203,11.2175655 L6.26702619,1.71417565 L4.85454545,0.891371341 L0.740523883,9.99707242 Z"></path>
                </g>
                <g id="Shape" transform="translate(48.956857, 60.887519)" fill="#000000">
                    <path d="M0.411402157,1.0559322 C0.233127889,1.0559322 0.0959938367,0.918798151 0.0822804314,0.740523883 C0.0685670262,0.562249615 0.219414484,0.411402157 0.397688752,0.397688752 L8.55716487,0.0822804314 C8.73543914,0.0685670262 8.88628659,0.219414484 8.9,0.397688752 C8.91371341,0.57596302 8.76286595,0.726810478 8.58459168,0.740523883 L0.411402157,1.0559322 C0.411402157,1.0559322 0.411402157,1.0559322 0.411402157,1.0559322 Z"></path>
                </g>
                <g id="Shape" transform="translate(0.000000, 60.887519)" fill="#000000">
                    <path d="M8.48859784,5.52650231 C8.48859784,5.52650231 8.47488444,5.52650231 8.47488444,5.52650231 L0.370261941,5.19738059 C0.28798151,5.19738059 0.191987673,5.15624037 0.137134052,5.08767334 C0.0822804314,5.01910632 0.0411402157,4.93682589 0.054853621,4.84083205 L0.329121726,0.383975347 C0.342835131,0.205701079 0.493682589,0.0685670262 0.671956857,0.0685670262 L8.69429892,0.383975347 C8.77657935,0.383975347 8.85885978,0.425115562 8.92742681,0.493682589 C8.99599384,0.562249615 9.02342065,0.644530046 9.00970724,0.726810478 L8.80400616,5.21109399 C8.80400616,5.38936826 8.65315871,5.52650231 8.48859784,5.52650231 Z M0.726810478,4.55285054 L8.17318952,4.85454545 L8.33775039,1.0422188 L0.959938367,0.754237288 L0.726810478,4.55285054 Z"></path>
                </g>
                <g id="Shape" opacity="0.1" transform="translate(13.164869, 28.249615)" fill="#000000">
                    <g id="Group">
                        <path d="M0.356548536,0.0274268105 C2.26271186,3.60662558 4.9642527,22.5996918 4.9779661,36.8753467 C2.75639445,35.8879815 0.109707242,35.2983051 0.109707242,35.2983051 L0.356548536,0.0274268105 Z" id="Shape"></path>
                    </g>
                </g>
                <g id="Shape" opacity="0.2" transform="translate(35.243451, 1.097072)" fill="#FFFFFF">
                    <g id="Group">
                        <path d="M0.0274268105,5.26594761 C3.53805855,8.50231125 5.59506934,9.65423729 7.14468413,10.4633282 C8.69429892,11.2724191 11.8895223,10.6690293 13.2197227,16.5932203 C14.549923,22.5174114 17.4297381,32.8984592 17.6765794,37.6158706 C17.9234206,42.333282 18.951926,62.6291217 19.1439137,64.7821263 C20.2272727,64.7409861 22.4214176,64.6449923 22.4214176,64.6449923 L21.8043143,52.5771957 C21.8043143,52.5771957 20.9266564,37.4238829 20.7483821,36.1896764 C20.5701079,34.95547 16.0446841,13.164869 16.0446841,13.164869 C16.0446841,13.164869 14.6733436,10.7375963 13.7819723,9.99707242 C12.8906009,9.25654854 7.67950693,5.64992296 3.82604006,4.92311248 C3.22265023,3.4009245 0.534822804,0.123420647 0.534822804,0.123420647 L0.0274268105,5.26594761 Z" id="Shape"></path>
                    </g>
                </g>
                <g id="Shape" opacity="0.1" transform="translate(40.180277, 28.249615)" fill="#000000">
                    <g id="Group">
                        <path d="M4.33343606,0.0274268105 C2.42727273,3.60662558 0.0274268105,22.435131 0.0137134052,36.7107858 C2.23528505,35.7234206 4.56656394,35.2983051 4.56656394,35.2983051 L4.33343606,0.0274268105 Z" id="Shape"></path>
                    </g>
                </g>
            </g>
            <g id="Group" transform="translate(30.992296, 0.000000)">
                <path d="M18.5953775,6.36302003 C13.0003082,7.44637904 7.25439137,11.6975347 6.78813559,14.2756549 C6.32187982,16.853775 4.81340524,22.2705701 4.03174114,26.8508475 C3.25007704,31.4311248 1.98844376,36.3405239 1.90616333,39.3437596 C1.8238829,42.3469954 0.946224961,52.0560863 0.630816641,61.3812018 L8.73543914,61.7103236 C8.96856703,56.4580894 9.84622496,43.924037 10.3947612,41.4144838 C10.9432974,38.9049307 11.8895223,34.0915254 13.5488444,28.2496148 L13.3157165,55.6627119 C17.8,57.2397535 22.7231125,57.9117103 28.4553159,57.9117103 L28.5101695,56.5677966 L29.8677966,56.6775039 L29.8677966,57.9117103 C35.6,57.9117103 40.3448382,57.2397535 44.8291217,55.6627119 L44.5959938,28.2496148 C46.2553159,34.077812 47.1878274,38.9049307 47.750077,41.4144838 C48.2986133,43.9103236 49.135131,56.3483821 49.3682589,61.5869029 L57.3631741,61.4086287 C57.0477658,52.0835131 56.3346687,42.3195686 56.2523883,39.3300462 C56.1701079,36.3405239 54.9084746,31.4174114 54.1268105,26.8371341 C53.3451464,22.2568567 51.8503852,16.8400616 51.370416,14.2619414 C50.9041602,11.6838213 45.14453,7.43266564 39.5631741,6.34930663 C39.5631741,6.34930663 36.4228043,1.90616333 36.0251156,1.42619414 C35.6274268,0.946224961 33.3510015,0.397688752 30.7454545,0.397688752 C28.1399076,0.397688752 23.8476117,0.246841294 22.1197227,1.45362096 C20.3918336,2.66040062 18.5953775,6.36302003 18.5953775,6.36302003 Z" id="Shape" fill="#CC9E5C"></path>
                <g id="Shape" transform="translate(0.000000, 61.024653)" fill="#CE2029">
                    <path d="M0.534822804,1.72788906 C0.521109399,1.72788906 0.521109399,1.72788906 0.534822804,1.72788906 C0.356548536,1.71417565 0.233127889,1.5770416 0.246841294,1.42619414 C0.2605547,1.08335901 0.274268105,0.754237288 0.301694915,0.397688752 C0.31540832,0.233127889 0.452542373,0.109707242 0.603389831,0.123420647 C0.767950693,0.137134052 0.891371341,0.274268105 0.877657935,0.425115562 C0.86394453,0.767950693 0.850231125,1.11078582 0.822804314,1.43990755 C0.822804314,1.60446841 0.685670262,1.72788906 0.534822804,1.72788906 Z"></path>
                    <path d="M1.42619414,5.01910632 C1.41248074,5.01910632 1.41248074,5.01910632 1.42619414,5.01910632 L0.397688752,4.9779661 C0.233127889,4.9779661 0.109707242,4.84083205 0.123420647,4.67627119 C0.137134052,4.34714946 0.150847458,4.00431433 0.164560863,3.64776579 C0.164560863,3.48320493 0.301694915,3.35978428 0.466255778,3.37349769 C0.630816641,3.37349769 0.754237288,3.51063174 0.740523883,3.6751926 C0.726810478,3.9220339 0.726810478,4.16887519 0.713097072,4.40200308 L1.43990755,4.42942989 C1.60446841,4.42942989 1.72788906,4.56656394 1.71417565,4.73112481 C1.71417565,4.89568567 1.5770416,5.01910632 1.42619414,5.01910632 Z"></path>
                    <path d="M5.47164869,5.18366718 C5.45793529,5.18366718 5.45793529,5.18366718 5.47164869,5.18366718 L3.44206471,5.10138675 C3.27750385,5.10138675 3.1540832,4.9642527 3.16779661,4.79969183 C3.16779661,4.63513097 3.30493066,4.51171032 3.46949153,4.52542373 L5.4853621,4.60770416 C5.64992296,4.60770416 5.77334361,4.74483821 5.7596302,4.90939908 C5.7459168,5.06024653 5.62249615,5.18366718 5.47164869,5.18366718 Z"></path>
                    <path d="M8.51602465,5.32080123 C8.50231125,5.32080123 8.50231125,5.32080123 8.51602465,5.32080123 L7.48751926,5.27966102 C7.3229584,5.27966102 7.19953775,5.14252696 7.21325116,4.9779661 C7.21325116,4.81340524 7.36409861,4.68998459 7.51494607,4.703698 L8.24175655,4.73112481 C8.25546995,4.49799692 8.26918336,4.26486903 8.28289676,4.00431433 C8.29661017,3.83975347 8.43374422,3.71633282 8.58459168,3.73004622 C8.74915254,3.74375963 8.87257319,3.88089368 8.85885978,4.03174114 C8.84514638,4.40200308 8.81771957,4.74483821 8.80400616,5.04653313 C8.79029276,5.19738059 8.66687211,5.32080123 8.51602465,5.32080123 Z"></path>
                    <path d="M8.68058552,2.01587057 C8.68058552,2.01587057 8.66687211,2.01587057 8.66687211,2.01587057 C8.50231125,2.00215716 8.3788906,1.86502311 8.39260401,1.71417565 C8.40631741,1.38505393 8.43374422,1.0422188 8.44745763,0.699383667 C8.46117103,0.534822804 8.59830508,0.411402157 8.74915254,0.425115562 C8.91371341,0.438828968 9.03713405,0.57596302 9.02342065,0.726810478 C9.00970724,1.08335901 8.98228043,1.41248074 8.96856703,1.74160247 C8.96856703,1.89244992 8.84514638,2.01587057 8.68058552,2.01587057 Z"></path>
                </g>
                <polygon id="Shape" fill="#936044" points="0.973651772 56.8146379 8.99599384 57.1300462 8.80400616 61.6006163 0.699383667 61.2714946"></polygon>
                <path d="M28.5238829,4.93682589 C28.5238829,4.90939908 28.5238829,4.86825886 28.5238829,4.84083205 C22.572265,5.12881356 22.6134052,4.7174114 22.8602465,6.67842835 C23.1070878,8.6394453 26.4531587,19.9804314 27.4816641,23.1345146 C28.4964561,26.2885978 29.0038521,26.4531587 29.0038521,26.4531587 C29.0038521,26.4531587 29.0038521,26.4394453 29.0038521,26.4257319 C29.0587057,26.4531587 29.0861325,26.4531587 29.0861325,26.4531587 C29.0861325,26.4531587 29.5798151,26.2885978 30.6083205,23.1345146 C31.6231125,19.9804314 34.9143297,8.6257319 35.2297381,6.67842835 C35.6,4.22372881 34.1875193,5.18366718 28.5238829,4.93682589 Z" id="Shape" fill="#4F372A"></path>
                <path d="M22.8191063,0.877657935 C22.0922958,1.46733436 22.0785824,5.16995378 22.8465331,5.32080123 C23.6144838,5.47164869 27.6325116,4.84083205 29.3604006,4.86825886 C30.5123267,4.88197227 33.8309707,5.4853621 35.2983051,4.86825886 C36.0251156,4.56656394 35.5862866,3.45577812 35.5862866,2.82496148 C35.6274268,1.33020031 35.8879815,0.781664099 34.5029276,0.685670262 C33.1178737,0.57596302 25.0132512,0.233127889 22.8191063,0.877657935 Z" id="Shape" fill="#936044"></path>
                <path d="M22.503698,0.959938367 C20.6935285,3.04437596 16.3600924,10.2027735 15.6607088,11.6975347 C18.0194145,11.6975347 21.3243451,11.6975347 21.3243451,11.6975347 L19.0753467,14.4402157 L28.5101695,26.3023112 C28.5101695,26.3023112 24.3001541,13.603698 23.6007704,10.6004622 C22.9013867,7.61093991 22.2705701,3.37349769 22.503698,0.959938367 Z" id="Shape" fill="#936044"></path>
                <g id="Shape" opacity="0.2" transform="translate(0.685670, 1.097072)" fill="#FFFFFF">
                    <g id="Group">
                        <path d="M22.0922958,5.26594761 C18.5816641,8.50231125 16.5246533,9.65423729 14.9750385,10.4633282 C13.4254237,11.2724191 10.2302003,10.6690293 8.9,16.5932203 C7.55608629,22.5174114 4.68998459,32.8984592 4.4431433,37.6158706 C4.196302,42.333282 3.49691834,58.2545455 3.29121726,60.4075501 C2.20785824,60.3664099 0.0137134052,60.270416 0.0137134052,60.270416 L0.31540832,52.5771957 C0.31540832,52.5771957 1.19306626,37.4238829 1.37134052,36.1896764 C1.54961479,34.9691834 6.07503852,13.164869 6.07503852,13.164869 C6.07503852,13.164869 7.44637904,10.7375963 8.33775039,9.99707242 C9.22912173,9.25654854 14.4402157,5.64992296 18.2936826,4.92311248 C18.8970724,3.4009245 21.5848998,0.123420647 21.5848998,0.123420647 L22.0922958,5.26594761 Z" id="Shape"></path>
                    </g>
                </g>
                <path d="M35.6,0.959938367 C37.4101695,3.04437596 41.7436055,10.2027735 42.4429892,11.6975347 C40.0842835,11.6975347 36.7793529,11.6975347 36.7793529,11.6975347 L39.0283513,14.4402157 L29.5523883,26.4394453 C29.5523883,26.4394453 33.7898305,13.6174114 34.5029276,10.6141757 C35.2160247,7.61093991 35.8331279,3.37349769 35.6,0.959938367 Z" id="Shape" fill="#936044"></path>
                <polygon id="Shape" fill="#936044" points="57.088906 56.9791988 49.0665639 57.2946071 49.2585516 61.7651772 57.3631741 61.4360555"></polygon>
                <path d="M49.2585516,61.9297381 C49.0802773,61.9297381 48.9431433,61.792604 48.9294299,61.6143297 L48.7374422,57.1437596 C48.7374422,57.0614792 48.764869,56.9654854 48.8197227,56.9106317 C48.8745763,56.8420647 48.9568567,56.8146379 49.0528505,56.8009245 L57.0751926,56.4855162 C57.2534669,56.4855162 57.4043143,56.6089368 57.4180277,56.8009245 L57.6922958,61.2577812 C57.6922958,61.3400616 57.664869,61.4360555 57.6100154,61.5046225 C57.5551618,61.5731895 57.4728814,61.6143297 57.3768875,61.6143297 L49.272265,61.9434515 C49.272265,61.9297381 49.2585516,61.9297381 49.2585516,61.9297381 Z M49.4093991,57.4454545 L49.5739599,61.2577812 L57.020339,60.9560863 L56.7872111,57.157473 L49.4093991,57.4454545 Z" id="Shape" fill="#000000"></path>
                <g id="Shape" transform="translate(15.359014, 43.197227)" fill="#936044">
                    <polygon points="22.942527 0.0137134052 27.2896764 9.62681048 25.9320493 11.43698 20.9540832 1.17935285"></polygon>
                    <polygon points="4.4431433 0.0137134052 0.109707242 9.62681048 1.46733436 11.43698 6.44530046 1.17935285"></polygon>
                </g>
                <g id="Shape" opacity="0.1" transform="translate(13.164869, 28.249615)" fill="#000000">
                    <g id="Group">
                        <path d="M0.370261941,0.0274268105 C2.27642527,3.60662558 4.9779661,14.6459168 4.99167951,28.9215716 C2.77010786,27.9342065 0.123420647,27.34453 0.123420647,27.34453" id="Shape"></path>
                    </g>
                </g>
                <g transform="translate(27.426810, 25.918336)">
                    <g id="Shape" transform="translate(0.685670, 11.656394)" fill="#000000">
                        <path d="M1.43990755,19.0890601 L0.411402157,19.0890601 C0.246841294,19.0890601 0.123420647,18.9656394 0.123420647,18.8010786 C0.123420647,18.6365177 0.246841294,18.5130971 0.411402157,18.5130971 L1.43990755,18.5130971 C1.60446841,18.5130971 1.72788906,18.6365177 1.72788906,18.8010786 C1.72788906,18.9656394 1.59075501,19.0890601 1.43990755,19.0890601 Z"></path>
                        <path d="M1.43990755,17.9371341 L0.411402157,17.9371341 C0.246841294,17.9371341 0.123420647,17.8137134 0.123420647,17.6491525 C0.123420647,17.4845917 0.246841294,17.361171 0.411402157,17.361171 L1.43990755,17.361171 C1.60446841,17.361171 1.72788906,17.4845917 1.72788906,17.6491525 C1.72788906,17.8137134 1.59075501,17.9371341 1.43990755,17.9371341 Z"></path>
                        <path d="M1.43990755,16.785208 L0.411402157,16.785208 C0.246841294,16.785208 0.123420647,16.6617874 0.123420647,16.4972265 C0.123420647,16.3326656 0.246841294,16.209245 0.411402157,16.209245 L1.43990755,16.209245 C1.60446841,16.209245 1.72788906,16.3326656 1.72788906,16.4972265 C1.72788906,16.6617874 1.59075501,16.785208 1.43990755,16.785208 Z"></path>
                        <path d="M1.43990755,15.6195686 L0.411402157,15.6195686 C0.246841294,15.6195686 0.123420647,15.4961479 0.123420647,15.3315871 C0.123420647,15.1670262 0.246841294,15.0436055 0.411402157,15.0436055 L1.43990755,15.0436055 C1.60446841,15.0436055 1.72788906,15.1670262 1.72788906,15.3315871 C1.72788906,15.4961479 1.59075501,15.6195686 1.43990755,15.6195686 Z"></path>
                        <path d="M1.43990755,14.4813559 L0.411402157,14.4813559 C0.246841294,14.4813559 0.123420647,14.3579353 0.123420647,14.1933744 C0.123420647,14.0288136 0.246841294,13.9053929 0.411402157,13.9053929 L1.43990755,13.9053929 C1.60446841,13.9053929 1.72788906,14.0288136 1.72788906,14.1933744 C1.72788906,14.3579353 1.59075501,14.4813559 1.43990755,14.4813559 Z"></path>
                        <path d="M1.43990755,13.3294299 L0.411402157,13.3294299 C0.246841294,13.3294299 0.123420647,13.2060092 0.123420647,13.0414484 C0.123420647,12.8768875 0.246841294,12.7534669 0.411402157,12.7534669 L1.43990755,12.7534669 C1.60446841,12.7534669 1.72788906,12.8768875 1.72788906,13.0414484 C1.72788906,13.2060092 1.59075501,13.3294299 1.43990755,13.3294299 Z"></path>
                        <path d="M1.43990755,12.1775039 L0.411402157,12.1775039 C0.246841294,12.1775039 0.123420647,12.0540832 0.123420647,11.8895223 C0.123420647,11.7249615 0.246841294,11.6015408 0.411402157,11.6015408 L1.43990755,11.6015408 C1.60446841,11.6015408 1.72788906,11.7249615 1.72788906,11.8895223 C1.72788906,12.0540832 1.59075501,12.1775039 1.43990755,12.1775039 Z"></path>
                        <path d="M1.43990755,11.0118644 L0.411402157,11.0118644 C0.246841294,11.0118644 0.123420647,10.8884438 0.123420647,10.7238829 C0.123420647,10.559322 0.246841294,10.4359014 0.411402157,10.4359014 L1.43990755,10.4359014 C1.60446841,10.4359014 1.72788906,10.559322 1.72788906,10.7238829 C1.72788906,10.8884438 1.59075501,11.0118644 1.43990755,11.0118644 Z"></path>
                        <path d="M1.43990755,9.85993837 L0.411402157,9.85993837 C0.246841294,9.85993837 0.123420647,9.73651772 0.123420647,9.57195686 C0.123420647,9.40739599 0.246841294,9.28397535 0.411402157,9.28397535 L1.43990755,9.28397535 C1.60446841,9.28397535 1.72788906,9.40739599 1.72788906,9.57195686 C1.72788906,9.73651772 1.59075501,9.85993837 1.43990755,9.85993837 Z"></path>
                        <path d="M1.43990755,8.70801233 L0.411402157,8.70801233 C0.246841294,8.70801233 0.123420647,8.58459168 0.123420647,8.42003082 C0.123420647,8.25546995 0.246841294,8.13204931 0.411402157,8.13204931 L1.43990755,8.13204931 C1.60446841,8.13204931 1.72788906,8.25546995 1.72788906,8.42003082 C1.72788906,8.58459168 1.59075501,8.70801233 1.43990755,8.70801233 Z"></path>
                        <path d="M1.43990755,7.55608629 L0.411402157,7.55608629 C0.246841294,7.55608629 0.123420647,7.43266564 0.123420647,7.26810478 C0.123420647,7.10354391 0.246841294,6.98012327 0.411402157,6.98012327 L1.43990755,6.98012327 C1.60446841,6.98012327 1.72788906,7.10354391 1.72788906,7.26810478 C1.72788906,7.43266564 1.59075501,7.55608629 1.43990755,7.55608629 Z"></path>
                        <path d="M1.43990755,6.39044684 L0.411402157,6.39044684 C0.246841294,6.39044684 0.123420647,6.26702619 0.123420647,6.10246533 C0.123420647,5.93790447 0.246841294,5.81448382 0.411402157,5.81448382 L1.43990755,5.81448382 C1.60446841,5.81448382 1.72788906,5.93790447 1.72788906,6.10246533 C1.72788906,6.26702619 1.59075501,6.39044684 1.43990755,6.39044684 Z"></path>
                        <path d="M1.43990755,5.2385208 L0.411402157,5.2385208 C0.246841294,5.2385208 0.123420647,5.11510015 0.123420647,4.95053929 C0.123420647,4.78597843 0.246841294,4.66255778 0.411402157,4.66255778 L1.43990755,4.66255778 C1.60446841,4.66255778 1.72788906,4.78597843 1.72788906,4.95053929 C1.72788906,5.11510015 1.59075501,5.2385208 1.43990755,5.2385208 Z"></path>
                        <path d="M1.43990755,4.08659476 L0.411402157,4.08659476 C0.246841294,4.08659476 0.123420647,3.96317411 0.123420647,3.79861325 C0.123420647,3.63405239 0.246841294,3.51063174 0.411402157,3.51063174 L1.43990755,3.51063174 C1.60446841,3.51063174 1.72788906,3.63405239 1.72788906,3.79861325 C1.72788906,3.96317411 1.59075501,4.08659476 1.43990755,4.08659476 Z"></path>
                        <path d="M1.43990755,2.93466872 L0.411402157,2.93466872 C0.246841294,2.93466872 0.123420647,2.81124807 0.123420647,2.64668721 C0.123420647,2.48212635 0.246841294,2.3587057 0.411402157,2.3587057 L1.43990755,2.3587057 C1.60446841,2.3587057 1.72788906,2.48212635 1.72788906,2.64668721 C1.72788906,2.81124807 1.59075501,2.93466872 1.43990755,2.93466872 Z"></path>
                        <path d="M1.43990755,1.76902928 L0.411402157,1.76902928 C0.246841294,1.76902928 0.123420647,1.64560863 0.123420647,1.48104777 C0.123420647,1.3164869 0.246841294,1.19306626 0.411402157,1.19306626 L1.43990755,1.19306626 C1.60446841,1.19306626 1.72788906,1.3164869 1.72788906,1.48104777 C1.72788906,1.64560863 1.59075501,1.76902928 1.43990755,1.76902928 Z"></path>
                        <path d="M1.43990755,0.630816641 L0.411402157,0.630816641 C0.246841294,0.630816641 0.123420647,0.507395994 0.123420647,0.342835131 C0.123420647,0.178274268 0.246841294,0.054853621 0.411402157,0.054853621 L1.43990755,0.054853621 C1.60446841,0.054853621 1.72788906,0.178274268 1.72788906,0.342835131 C1.72788906,0.507395994 1.59075501,0.630816641 1.43990755,0.630816641 Z"></path>
                    </g>
                    <path d="M2.12557781,11.1352851 L1.09707242,11.1352851 C0.932511556,11.1352851 0.809090909,11.0118644 0.809090909,10.8473035 C0.809090909,10.6827427 0.932511556,10.559322 1.09707242,10.559322 L2.12557781,10.559322 C2.29013867,10.559322 2.41355932,10.6827427 2.41355932,10.8473035 C2.41355932,11.0118644 2.27642527,11.1352851 2.12557781,11.1352851 Z" id="Shape" fill="#000000"></path>
                    <path d="M2.12557781,9.98335901 L1.09707242,9.98335901 C0.932511556,9.98335901 0.809090909,9.85993837 0.809090909,9.6953775 C0.809090909,9.53081664 0.932511556,9.40739599 1.09707242,9.40739599 L2.12557781,9.40739599 C2.29013867,9.40739599 2.41355932,9.53081664 2.41355932,9.6953775 C2.41355932,9.85993837 2.27642527,9.98335901 2.12557781,9.98335901 Z" id="Shape" fill="#000000"></path>
                    <path d="M2.12557781,8.81771957 L1.09707242,8.81771957 C0.932511556,8.81771957 0.809090909,8.69429892 0.809090909,8.52973806 C0.809090909,8.3651772 0.932511556,8.24175655 1.09707242,8.24175655 L2.12557781,8.24175655 C2.29013867,8.24175655 2.41355932,8.3651772 2.41355932,8.52973806 C2.41355932,8.69429892 2.27642527,8.81771957 2.12557781,8.81771957 Z" id="Shape" fill="#000000"></path>
                    <path d="M2.12557781,7.66579353 L1.09707242,7.66579353 C0.932511556,7.66579353 0.809090909,7.54237288 0.809090909,7.37781202 C0.809090909,7.21325116 0.932511556,7.08983051 1.09707242,7.08983051 L2.12557781,7.08983051 C2.29013867,7.08983051 2.41355932,7.21325116 2.41355932,7.37781202 C2.41355932,7.54237288 2.27642527,7.66579353 2.12557781,7.66579353 Z" id="Shape" fill="#000000"></path>
                    <path d="M2.12557781,6.51386749 L1.09707242,6.51386749 C0.932511556,6.51386749 0.809090909,6.39044684 0.809090909,6.22588598 C0.809090909,6.06132512 0.932511556,5.93790447 1.09707242,5.93790447 L2.12557781,5.93790447 C2.29013867,5.93790447 2.41355932,6.06132512 2.41355932,6.22588598 C2.41355932,6.39044684 2.27642527,6.51386749 2.12557781,6.51386749 Z" id="Shape" fill="#000000"></path>
                    <path d="M2.12557781,5.36194145 L1.09707242,5.36194145 C0.932511556,5.36194145 0.809090909,5.2385208 0.809090909,5.07395994 C0.809090909,4.90939908 0.932511556,4.78597843 1.09707242,4.78597843 L2.12557781,4.78597843 C2.29013867,4.78597843 2.41355932,4.90939908 2.41355932,5.07395994 C2.41355932,5.2385208 2.27642527,5.36194145 2.12557781,5.36194145 Z" id="Shape" fill="#000000"></path>
                    <path d="M2.12557781,4.196302 L1.09707242,4.196302 C0.932511556,4.196302 0.809090909,4.07288136 0.809090909,3.90832049 C0.809090909,3.74375963 0.932511556,3.62033898 1.09707242,3.62033898 L2.12557781,3.62033898 C2.29013867,3.62033898 2.41355932,3.74375963 2.41355932,3.90832049 C2.41355932,4.07288136 2.27642527,4.196302 2.12557781,4.196302 Z" id="Shape" fill="#000000"></path>
                    <path d="M2.12557781,3.04437596 L1.09707242,3.04437596 C0.932511556,3.04437596 0.809090909,2.92095532 0.809090909,2.75639445 C0.809090909,2.59183359 0.932511556,2.46841294 1.09707242,2.46841294 L2.12557781,2.46841294 C2.29013867,2.46841294 2.41355932,2.59183359 2.41355932,2.75639445 C2.41355932,2.92095532 2.27642527,3.04437596 2.12557781,3.04437596 Z" id="Shape" fill="#000000"></path>
                    <rect id="Rectangle-path" fill="#000000" x="0.822804314" y="0.0137134052" width="1.67303544" height="2.66040062"></rect>
                    <polygon id="Shape" fill="#000000" points="1.34391371 1.34391371 0.123420647 4.33343606 3.11294299 4.33343606 1.87873652 1.34391371"></polygon>
                    <circle id="Oval" fill="#CC9E5C" cx="1.65932203" cy="3.29121726" r="1"></circle>
                </g>
                <path d="M29.5798151,58.9676425 L28.5513097,58.9676425 C28.3867488,58.9676425 28.2633282,58.8305085 28.2633282,58.679661 C28.2633282,58.5288136 28.4004622,58.3916795 28.5513097,58.3916795 L29.5798151,58.3916795 C29.744376,58.3916795 29.8677966,58.5288136 29.8677966,58.679661 C29.8677966,58.8305085 29.744376,58.9676425 29.5798151,58.9676425 Z" id="Shape" fill="#CE2029"></path>
                <path d="M29.5798151,60.1195686 L28.5513097,60.1195686 C28.3867488,60.1195686 28.2633282,59.9824345 28.2633282,59.8315871 C28.2633282,59.6807396 28.4004622,59.5436055 28.5513097,59.5436055 L29.5798151,59.5436055 C29.744376,59.5436055 29.8677966,59.6807396 29.8677966,59.8315871 C29.8677966,59.9824345 29.744376,60.1195686 29.5798151,60.1195686 Z" id="Shape" fill="#CE2029"></path>
                <path d="M29.5798151,61.2714946 L28.5513097,61.2714946 C28.3867488,61.2714946 28.2633282,61.1343606 28.2633282,60.9835131 C28.2633282,60.8326656 28.4004622,60.6955316 28.5513097,60.6955316 L29.5798151,60.6955316 C29.744376,60.6955316 29.8677966,60.8326656 29.8677966,60.9835131 C29.8677966,61.1343606 29.744376,61.2714946 29.5798151,61.2714946 Z" id="Shape" fill="#CE2029"></path>
                <path d="M29.5798151,62.4371341 L28.5513097,62.4371341 C28.3867488,62.4371341 28.2633282,62.3 28.2633282,62.1491525 C28.2633282,61.9983051 28.4004622,61.861171 28.5513097,61.861171 L29.5798151,61.861171 C29.744376,61.861171 29.8677966,61.9983051 29.8677966,62.1491525 C29.8677966,62.3 29.744376,62.4371341 29.5798151,62.4371341 Z" id="Shape" fill="#CE2029"></path>
                <path d="M29.5798151,63.5890601 L28.5513097,63.5890601 C28.3867488,63.5890601 28.2633282,63.451926 28.2633282,63.3010786 C28.2633282,63.1502311 28.4004622,63.0130971 28.5513097,63.0130971 L29.5798151,63.0130971 C29.744376,63.0130971 29.8677966,63.1502311 29.8677966,63.3010786 C29.8677966,63.451926 29.744376,63.5890601 29.5798151,63.5890601 Z" id="Shape" fill="#CE2029"></path>
                <path d="M28.4964561,66.0848998 C28.3318952,66.0848998 28.2084746,65.9477658 28.2084746,65.7969183 L28.2084746,64.4530046 C28.2084746,64.2884438 28.3456086,64.1650231 28.4964561,64.1650231 C28.6473035,64.1650231 28.7844376,64.3021572 28.7844376,64.4530046 L28.7844376,65.7969183 C28.7844376,65.9477658 28.6473035,66.0848998 28.4964561,66.0848998 Z" id="Shape" fill="#CE2029"></path>
                <path d="M29.7580894,66.0848998 C29.5935285,66.0848998 29.4701079,65.9477658 29.4701079,65.7969183 L29.4701079,64.4530046 C29.4701079,64.2884438 29.6072419,64.1650231 29.7580894,64.1650231 C29.9089368,64.1650231 30.0460709,64.3021572 30.0460709,64.4530046 L30.0460709,65.7969183 C30.0460709,65.9477658 29.9089368,66.0848998 29.7580894,66.0848998 Z" id="Shape" fill="#CE2029"></path>
                <path d="M28.5238829,26.6451464 C28.4278891,26.6451464 28.3318952,26.6040062 28.2633282,26.5217257 L18.8285054,14.6596302 C18.7325116,14.5362096 18.7325116,14.3716487 18.8285054,14.248228 L20.6386749,12.0403698 L15.6607088,12.0403698 C15.5510015,12.0403698 15.4412943,11.9855162 15.3864407,11.8895223 C15.3315871,11.7935285 15.3178737,11.6701079 15.3727273,11.574114 C16.0995378,10.0382126 20.4329738,2.86610169 22.2705701,0.754237288 C22.3665639,0.644530046 22.5174114,0.617103236 22.6545455,0.671956857 C22.7916795,0.726810478 22.8602465,0.86394453 22.8465331,1.00107858 C22.6134052,3.38721109 23.2442219,7.62465331 23.9436055,10.559322 C24.6429892,13.5077042 28.8118644,26.1103236 28.8530046,26.2337442 C28.9078582,26.3845917 28.8392912,26.5491525 28.7021572,26.631433 C28.6335901,26.631433 28.5787365,26.6451464 28.5238829,26.6451464 Z M19.5004622,14.4539291 L27.6325116,24.670416 C26.4531587,21.0775039 23.8338983,13.027735 23.2853621,10.6964561 C22.6682589,8.1046225 22.1060092,4.48428351 22.1197227,1.96101695 C20.3095532,4.38828968 17.2103236,9.46224961 16.1955316,11.3684129 L21.3243451,11.3684129 C21.4477658,11.3684129 21.5711864,11.43698 21.6260401,11.5604006 C21.6808937,11.6701079 21.6671803,11.8072419 21.5848998,11.9032357 L19.5004622,14.4539291 Z" id="Shape" fill="#000000"></path>
                <path d="M29.5523883,26.768567 C29.4975347,26.768567 29.442681,26.7548536 29.4015408,26.7274268 C29.2644068,26.6451464 29.1958398,26.4805855 29.2506934,26.3297381 C29.2918336,26.2063174 33.501849,13.4802773 34.1875193,10.5318952 C34.8731895,7.61093991 35.5177196,3.37349769 35.2845917,0.973651772 C35.2708783,0.83651772 35.3531587,0.699383667 35.4765794,0.644530046 C35.6137134,0.589676425 35.7645609,0.617103236 35.8605547,0.726810478 C37.698151,2.83867488 42.0315871,10.0107858 42.7583975,11.5466872 C42.8132512,11.642681 42.7995378,11.7661017 42.7446841,11.8620955 C42.6898305,11.9580894 42.5801233,12.012943 42.470416,12.012943 L37.4924499,12.012943 L39.3026194,14.2208012 C39.3986133,14.3442219 39.3986133,14.5087827 39.3026194,14.6322034 L29.8266564,26.631433 C29.744376,26.7274268 29.6483821,26.768567 29.5523883,26.768567 Z M35.9839753,1.96101695 C36.0114022,4.48428351 35.4354391,8.1046225 34.8183359,10.6964561 C34.2697997,13.0414484 31.6368259,21.1460709 30.4437596,24.7801233 L38.6032357,14.4539291 L36.5325116,11.9169492 C36.4502311,11.8209553 36.4365177,11.6838213 36.4913713,11.574114 C36.546225,11.4644068 36.6559322,11.3821263 36.7930663,11.3821263 L41.9218798,11.3821263 C40.8933744,9.46224961 37.7941448,4.38828968 35.9839753,1.96101695 Z" id="Shape" fill="#000000"></path>
                <path d="M30.2929122,66.0848998 C30.1283513,66.0848998 30.0049307,65.9614792 30.0049307,65.7969183 C30.0049307,65.6323575 30.1283513,65.5089368 30.2929122,65.5089368 C30.9922958,65.5089368 31.6642527,65.4952234 32.3224961,65.4677966 C32.487057,65.4677966 32.6241911,65.5912173 32.6241911,65.7557781 C32.6241911,65.920339 32.5007704,66.057473 32.3362096,66.057473 C31.6779661,66.057473 30.9922958,66.0848998 30.2929122,66.0848998 C30.2929122,66.0848998 30.2929122,66.0848998 30.2929122,66.0848998 Z M34.3795069,65.9340524 C34.2286595,65.9340524 34.1052388,65.8106317 34.0915254,65.6597843 C34.077812,65.4952234 34.2012327,65.3580894 34.3657935,65.344376 C35.0514638,65.2895223 35.7371341,65.2346687 36.3953775,65.1523883 C36.5599384,65.1386749 36.6970724,65.2483821 36.7244992,65.412943 C36.7382126,65.5775039 36.6285054,65.7146379 36.4639445,65.7420647 C35.8057011,65.8243451 35.1063174,65.8791988 34.4206471,65.9340524 C34.3932203,65.920339 34.3795069,65.9340524 34.3795069,65.9340524 Z M38.4386749,65.4540832 C38.3015408,65.4540832 38.1781202,65.3580894 38.1506934,65.2072419 C38.1232666,65.042681 38.2329738,64.8918336 38.3975347,64.8781202 C39.0694915,64.7684129 39.7414484,64.6449923 40.3859784,64.4941448 C40.5505393,64.4530046 40.7013867,64.5627119 40.7288136,64.7135593 C40.7699538,64.8781202 40.6602465,65.0289676 40.5093991,65.0563945 C39.8511556,65.1935285 39.1654854,65.3306626 38.4798151,65.4403698 C38.4661017,65.4540832 38.4523883,65.4540832 38.4386749,65.4540832 Z M42.4292758,64.5901387 C42.3058552,64.5901387 42.1824345,64.5078582 42.1412943,64.3707242 C42.1001541,64.2198767 42.1961479,64.0553159 42.3469954,64.0141757 C42.9915254,63.8359014 43.6497689,63.6302003 44.2805855,63.4244992 C44.431433,63.3696456 44.5959938,63.451926 44.6508475,63.6027735 C44.7057011,63.753621 44.6234206,63.9181818 44.4725732,63.9730354 C43.8280431,64.1924499 43.1560863,64.398151 42.4978428,64.5764253 C42.4841294,64.5764253 42.4567026,64.5901387 42.4292758,64.5901387 Z M44.8016949,62.2451464 C44.6371341,62.2451464 44.5137134,62.1217257 44.5137134,61.9571649 L44.5,59.9138675 C44.5,59.7493066 44.6234206,59.625886 44.7879815,59.625886 C44.9525424,59.625886 45.075963,59.7493066 45.075963,59.9138675 L45.0896764,61.9571649 C45.1033898,62.1217257 44.9662558,62.2451464 44.8016949,62.2451464 C44.8016949,62.2451464 44.8016949,62.2451464 44.8016949,62.2451464 Z M44.7742681,58.1585516 C44.6097072,58.1585516 44.4862866,58.035131 44.4862866,57.8705701 L44.4725732,55.8272727 C44.4725732,55.6627119 44.5959938,55.5392912 44.7605547,55.5392912 C44.7605547,55.5392912 44.7605547,55.5392912 44.7605547,55.5392912 C44.9251156,55.5392912 45.0485362,55.6627119 45.0485362,55.8272727 L45.0622496,57.8705701 C45.075963,58.0214176 44.938829,58.1585516 44.7742681,58.1585516 C44.7742681,58.1585516 44.7742681,58.1585516 44.7742681,58.1585516 Z" id="Shape" fill="#CE2029"></path>
                <path d="M49.3682589,61.9434515 C49.1899846,61.9434515 49.0528505,61.8063174 49.0391371,61.6280431 C48.6414484,54.9084746 47.8460709,43.4989214 47.3935285,41.4967643 C47.2975347,41.0579353 47.1878274,40.5642527 47.0644068,39.9882897 C46.5844376,37.7392912 45.8987673,34.5303544 44.9114022,30.7728814 L45.075963,55.498151 C45.075963,55.6764253 44.9251156,55.8272727 44.7468413,55.8272727 C44.7468413,55.8272727 44.7468413,55.8272727 44.7468413,55.8272727 C44.568567,55.8272727 44.4177196,55.6764253 44.4177196,55.498151 L44.2394453,28.2633282 C44.2394453,28.0987673 44.3628659,27.9616333 44.5274268,27.9342065 C44.6919877,27.9067797 44.8428351,28.0164869 44.8839753,28.1673344 C46.2553159,32.994453 47.1329738,37.122188 47.7089368,39.8511556 C47.8323575,40.4134052 47.9420647,40.9208012 48.0380586,41.3459168 C48.4906009,43.3892142 49.2859784,54.8399076 49.6973806,61.5731895 C49.711094,61.7514638 49.5739599,61.9160247 49.3819723,61.9160247 C49.3819723,61.9434515 49.3819723,61.9434515 49.3682589,61.9434515 Z" id="Shape" fill="#000000"></path>
                <g id="Shape" transform="translate(48.956857, 61.161787)" fill="#CE2029">
                    <path d="M8.6394453,1.61818182 C8.48859784,1.61818182 8.35146379,1.49476117 8.35146379,1.34391371 C8.33775039,1.00107858 8.32403698,0.671956857 8.29661017,0.329121726 C8.28289676,0.164560863 8.42003082,0.0274268105 8.57087827,0.0274268105 C8.73543914,0.0274268105 8.87257319,0.150847458 8.87257319,0.301694915 C8.88628659,0.644530046 8.9,0.987365177 8.92742681,1.33020031 C8.94114022,1.48104777 8.81771957,1.61818182 8.6394453,1.61818182 C8.65315871,1.61818182 8.6394453,1.61818182 8.6394453,1.61818182 Z"></path>
                    <path d="M7.74807396,4.92311248 C7.5972265,4.92311248 7.46009245,4.79969183 7.46009245,4.64884438 C7.46009245,4.48428351 7.5835131,4.34714946 7.73436055,4.34714946 L8.46117103,4.31972265 C8.44745763,4.07288136 8.44745763,3.83975347 8.43374422,3.59291217 C8.43374422,3.42835131 8.55716487,3.29121726 8.70801233,3.29121726 C8.87257319,3.29121726 9.00970724,3.4146379 9.00970724,3.56548536 C9.02342065,3.90832049 9.03713405,4.25115562 9.05084746,4.59399076 C9.05084746,4.75855162 8.92742681,4.89568567 8.77657935,4.89568567 L7.74807396,4.92311248 C7.76178737,4.92311248 7.74807396,4.92311248 7.74807396,4.92311248 Z"></path>
                    <path d="M3.70261941,5.08767334 C3.55177196,5.08767334 3.4146379,4.9642527 3.4146379,4.81340524 C3.4146379,4.64884438 3.53805855,4.51171032 3.68890601,4.51171032 L5.70477658,4.42942989 C5.86933744,4.41571649 6.00647149,4.55285054 6.00647149,4.703698 C6.00647149,4.86825886 5.88305085,5.00539291 5.73220339,5.00539291 L3.70261941,5.08767334 C3.71633282,5.08767334 3.70261941,5.08767334 3.70261941,5.08767334 Z"></path>
                    <path d="M0.658243451,5.21109399 C0.507395994,5.21109399 0.370261941,5.08767334 0.370261941,4.93682589 C0.356548536,4.63513097 0.342835131,4.29229584 0.31540832,3.9220339 C0.301694915,3.75747304 0.425115562,3.62033898 0.589676425,3.62033898 C0.754237288,3.60662558 0.891371341,3.73004622 0.891371341,3.89460709 C0.905084746,4.15516179 0.918798151,4.40200308 0.932511556,4.62141757 L1.65932203,4.59399076 C1.8238829,4.58027735 1.96101695,4.7174114 1.96101695,4.86825886 C1.96101695,5.03281972 1.8375963,5.16995378 1.68674884,5.16995378 L0.658243451,5.21109399 C0.671956857,5.21109399 0.658243451,5.21109399 0.658243451,5.21109399 Z"></path>
                    <path d="M0.479969183,1.90616333 C0.329121726,1.90616333 0.191987673,1.78274268 0.191987673,1.63189522 L0.191987673,1.60446841 C0.178274268,1.28906009 0.150847458,0.959938367 0.137134052,0.617103236 C0.123420647,0.452542373 0.246841294,0.31540832 0.411402157,0.31540832 C0.57596302,0.301694915 0.713097072,0.425115562 0.713097072,0.589676425 C0.726810478,0.932511556 0.754237288,1.26163328 0.767950693,1.5770416 L0.767950693,1.60446841 C0.781664099,1.76902928 0.658243451,1.90616333 0.493682589,1.90616333 C0.493682589,1.90616333 0.493682589,1.90616333 0.479969183,1.90616333 Z"></path>
                </g>
                <path d="M57.5414484,61.5731895 C57.3631741,61.5731895 57.2260401,61.4360555 57.2123267,61.2577812 C56.9791988,56.4580894 56.6363636,51.1510015 56.3483821,46.8998459 C56.1152542,43.3343606 55.93698,40.5231125 55.8958398,39.3437596 C55.8409861,37.3827427 55.2787365,34.5577812 54.6753467,31.5819723 C54.3599384,30.0460709 54.04453,28.4553159 53.7839753,26.9057011 C53.3177196,24.2041602 52.6183359,21.2557781 52.0012327,18.6502311 C51.5898305,16.8949153 51.2195686,15.3864407 51.0275809,14.3305085 C50.5750385,11.8758089 44.8976888,7.73436055 39.4808937,6.67842835 C39.3026194,6.63728814 39.1791988,6.47272727 39.220339,6.294453 C39.2614792,6.11617874 39.4260401,5.99275809 39.6043143,6.03389831 C45.4050847,7.15839753 51.1921418,11.5466872 51.6721109,14.2070878 C51.8640986,15.2493066 52.2206471,16.7577812 52.6320493,18.4993837 C53.2491525,21.1049307 53.9622496,24.0670262 54.4285054,26.7959938 C54.6890601,28.3318952 55.0181818,29.9226502 55.3198767,31.4585516 C55.9232666,34.4755008 56.4992296,37.3278891 56.5540832,39.3437596 C56.58151,40.4956857 56.7734977,43.3069337 56.9929122,46.8724191 C57.2671803,51.1372881 57.6100154,56.4306626 57.8568567,61.2440678 C57.8705701,61.4223421 57.7197227,61.5869029 57.5414484,61.5869029 C57.5414484,61.5731895 57.5414484,61.5731895 57.5414484,61.5731895 Z" id="Shape" fill="#000000"></path>
                <path d="M22.503698,1.28906009 C22.3665639,1.28906009 22.2294299,1.19306626 22.1882897,1.0559322 C22.1334361,0.877657935 22.2294299,0.699383667 22.4077042,0.644530046 C25.0543914,-0.137134052 33.2687211,-0.0274268105 35.6822804,0.644530046 C35.8605547,0.699383667 35.9565485,0.877657935 35.9154083,1.0559322 C35.8605547,1.23420647 35.6822804,1.33020031 35.5040062,1.28906009 C33.2001541,0.644530046 25.0955316,0.534822804 22.5859784,1.28906009 C22.572265,1.27534669 22.5311248,1.28906009 22.503698,1.28906009 Z" id="Shape" fill="#000000"></path>
                <path d="M22.7231125,5.67734977 C22.572265,5.67734977 22.435131,5.58135593 22.4077042,5.43050847 C22.3665639,5.25223421 22.4762712,5.07395994 22.6545455,5.03281972 C25.8223421,4.25115562 32.8024653,4.4568567 35.3805855,4.86825886 C35.5588598,4.89568567 35.6822804,5.06024653 35.6548536,5.2385208 C35.6274268,5.41679507 35.4628659,5.54021572 35.2845917,5.51278891 C32.8161787,5.12881356 25.8497689,4.92311248 22.8191063,5.67734977 C22.7779661,5.66363636 22.7505393,5.67734977 22.7231125,5.67734977 Z" id="Shape" fill="#000000"></path>
                <g id="Shape" transform="translate(15.084746, 42.785824)" fill="#000000">
                    <path d="M26.2063174,12.1775039 C26.192604,12.1775039 26.1788906,12.1775039 26.1788906,12.1775039 C26.0691834,12.1637904 25.9594761,12.0952234 25.9183359,11.9992296 L20.9403698,1.72788906 C20.8718028,1.5770416 20.9266564,1.38505393 21.0637904,1.3027735 L23.0659476,0.137134052 C23.148228,0.0959938367 23.2442219,0.0822804314 23.3265023,0.109707242 C23.4087827,0.137134052 23.4910632,0.205701079 23.5322034,0.28798151 L27.8656394,9.90107858 C27.9204931,10.0107858 27.9067797,10.1342065 27.8244992,10.2302003 L26.4668721,12.0403698 C26.4120185,12.1363636 26.3023112,12.1775039 26.2063174,12.1775039 Z M21.6534669,1.71417565 L26.261171,11.2175655 L27.1799692,9.99707242 L23.0659476,0.891371341 L21.6534669,1.71417565 Z"></path>
                    <path d="M1.74160247,12.1775039 C1.63189522,12.1775039 1.53590139,12.1226502 1.48104777,12.0403698 L0.123420647,10.2302003 C0.054853621,10.1342065 0.0411402157,10.0107858 0.0822804314,9.90107858 L4.41571649,0.28798151 C4.4568567,0.205701079 4.52542373,0.137134052 4.62141757,0.109707242 C4.7174114,0.0822804314 4.81340524,0.0959938367 4.88197227,0.137134052 L6.88412943,1.3027735 C7.03497689,1.38505393 7.08983051,1.5770416 7.00755008,1.72788906 L2.02958398,11.9992296 C1.97473035,12.1089368 1.87873652,12.1775039 1.76902928,12.1775039 C1.75531587,12.1775039 1.74160247,12.1775039 1.74160247,12.1775039 Z M0.754237288,9.99707242 L1.67303544,11.2175655 L6.2807396,1.71417565 L4.86825886,0.891371341 L0.754237288,9.99707242 Z"></path>
                </g>
                <path d="M49.3682589,61.9434515 C49.1899846,61.9434515 49.0528505,61.8063174 49.0391371,61.6280431 C49.0254237,61.4497689 49.1762712,61.2989214 49.3545455,61.285208 L57.5140216,60.9697997 C57.6922958,60.9560863 57.8431433,61.1069337 57.8568567,61.285208 C57.8705701,61.4634823 57.7197227,61.6143297 57.5414484,61.6280431 L49.3682589,61.9434515 C49.3819723,61.9434515 49.3819723,61.9434515 49.3682589,61.9434515 Z" id="Shape" fill="#000000"></path>
                <path d="M8.61201849,61.9297381 C8.61201849,61.9297381 8.59830508,61.9297381 8.59830508,61.9297381 L0.493682589,61.6006163 C0.411402157,61.6006163 0.31540832,61.5594761 0.2605547,61.4909091 C0.205701079,61.4223421 0.164560863,61.3400616 0.178274268,61.2440678 L0.452542373,56.7872111 C0.466255778,56.6089368 0.617103236,56.4718028 0.795377504,56.4718028 L8.81771957,56.7872111 C8.9,56.7872111 8.98228043,56.8283513 9.05084746,56.8969183 C9.10570108,56.9654854 9.14684129,57.0477658 9.13312789,57.1300462 L8.94114022,61.6006163 C8.92742681,61.792604 8.79029276,61.9297381 8.61201849,61.9297381 Z M0.850231125,60.9560863 L8.29661017,61.2577812 L8.46117103,57.4454545 L1.08335901,57.157473 L0.850231125,60.9560863 Z" id="Shape" fill="#000000"></path>
                <g id="Shape" opacity="0.2" transform="translate(35.243451, 1.234206)" fill="#FFFFFF">
                    <g id="Group">
                        <path d="M0.0274268105,5.12881356 C3.53805855,8.3651772 5.59506934,9.51710324 7.14468413,10.3261941 C8.69429892,11.1352851 11.8895223,10.5318952 13.2197227,16.4560863 C14.549923,22.3802773 17.4297381,32.7750385 17.6902928,37.4924499 C17.9508475,42.2098613 18.6639445,58.0762712 18.8559322,60.2155624 C19.9392912,60.1744222 22.1334361,60.0784284 22.1334361,60.0784284 L21.8180277,52.453775 C21.8180277,52.453775 20.9403698,37.3004622 20.7620955,36.0662558 C20.5701079,34.8457627 16.0446841,13.0414484 16.0446841,13.0414484 C16.0446841,13.0414484 14.6733436,10.6141757 13.7819723,9.87365177 C12.8906009,9.13312789 7.67950693,5.52650231 3.82604006,4.79969183 C3.22265023,3.27750385 0.534822804,0 0.534822804,0 L0.0274268105,5.12881356 Z" id="Shape"></path>
                    </g>
                </g>
                <g id="Shape" opacity="0.1" transform="translate(40.180277, 28.249615)" fill="#000000">
                    <g id="Group">
                        <path d="M4.34714946,0.0274268105 C2.44098613,3.60662558 0.0411402157,14.7144838 0.0274268105,28.9901387 C2.24899846,28.0027735 4.58027735,27.5776579 4.58027735,27.5776579 L4.34714946,0.0274268105 Z" id="Shape"></path>
                    </g>
                </g>
                <path d="M27.8382126,66.0848998 C27.8382126,66.0848998 27.8382126,66.0848998 27.8382126,66.0848998 C27.138829,66.0848998 26.4531587,66.057473 25.7812018,66.0437596 C25.616641,66.0437596 25.4932203,65.9066256 25.5069337,65.7420647 C25.5069337,65.5912173 25.6440678,65.4677966 25.7949153,65.4677966 C25.7949153,65.4677966 25.8086287,65.4677966 25.8086287,65.4677966 C26.4668721,65.4952234 27.1525424,65.5089368 27.8382126,65.5089368 C28.0027735,65.5089368 28.1261941,65.6460709 28.1261941,65.8106317 C28.1261941,65.9477658 28.0027735,66.0848998 27.8382126,66.0848998 Z M23.7516179,65.920339 C23.7379045,65.920339 23.7379045,65.920339 23.7241911,65.920339 C23.0248074,65.8654854 22.3391371,65.7969183 21.6808937,65.7283513 C21.5163328,65.7146379 21.4066256,65.5637904 21.420339,65.3992296 C21.4340524,65.2346687 21.5848998,65.1249615 21.7494607,65.1386749 C22.4077042,65.2209553 23.079661,65.2758089 23.7790447,65.3306626 C23.9436055,65.344376 24.0670262,65.48151 24.0533128,65.6460709 C24.0395994,65.7969183 23.9024653,65.920339 23.7516179,65.920339 Z M19.6924499,65.4403698 C19.6787365,65.4403698 19.6650231,65.4403698 19.6513097,65.4403698 C18.9656394,65.3306626 18.2799692,65.2072419 17.6217257,65.0563945 C17.4571649,65.0289676 17.361171,64.8644068 17.4023112,64.7135593 C17.4297381,64.5489985 17.5942989,64.4530046 17.7451464,64.4941448 C18.3896764,64.6312789 19.0616333,64.7546995 19.7335901,64.8644068 C19.898151,64.8918336 20.0078582,65.042681 19.9804314,65.1935285 C19.9530046,65.344376 19.829584,65.4403698 19.6924499,65.4403698 Z M15.701849,64.5901387 C15.6744222,64.5901387 15.6469954,64.5901387 15.6195686,64.5764253 C14.9476117,64.398151 14.2893683,64.1924499 13.6448382,63.9730354 C13.4939908,63.9181818 13.4117103,63.753621 13.4665639,63.6027735 C13.5214176,63.451926 13.6859784,63.3696456 13.8368259,63.4244992 C14.4676425,63.6439137 15.125886,63.8359014 15.770416,64.0141757 C15.9212635,64.0553159 16.0172573,64.2198767 15.9761171,64.3707242 C15.9486903,64.4941448 15.8252696,64.5901387 15.701849,64.5901387 Z M13.3020031,62.2725732 C13.3020031,62.2725732 13.3020031,62.2725732 13.3020031,62.2725732 C13.1374422,62.2725732 13.0140216,62.1354391 13.0140216,61.9845917 L13.027735,59.9275809 C13.027735,59.76302 13.164869,59.6395994 13.3157165,59.6395994 C13.3157165,59.6395994 13.3157165,59.6395994 13.3157165,59.6395994 C13.4802773,59.6395994 13.603698,59.7767334 13.603698,59.9275809 L13.5899846,61.9708783 C13.603698,62.1354391 13.4665639,62.2725732 13.3020031,62.2725732 Z M13.3294299,58.172265 C13.3294299,58.172265 13.3294299,58.172265 13.3294299,58.172265 C13.164869,58.172265 13.0414484,58.035131 13.0414484,57.8842835 L13.0551618,55.8409861 C13.0551618,55.6764253 13.1922958,55.5530046 13.3431433,55.5530046 C13.3431433,55.5530046 13.3431433,55.5530046 13.3431433,55.5530046 C13.5077042,55.5530046 13.6311248,55.6901387 13.6311248,55.8409861 L13.6174114,57.8842835 C13.6311248,58.0488444 13.4939908,58.172265 13.3294299,58.172265 Z" id="Shape" fill="#CE2029"></path>
                <path d="M28.4964561,58.2271186 C28.3318952,58.2271186 28.2084746,58.103698 28.2084746,57.9391371 L28.2084746,56.5952234 C28.2084746,56.4306626 28.3318952,56.3072419 28.4964561,56.3072419 C28.6610169,56.3072419 28.7844376,56.4306626 28.7844376,56.5952234 L28.7844376,57.9391371 C28.7707242,58.0899846 28.6473035,58.2271186 28.4964561,58.2271186 Z" id="Shape" fill="#000000"></path>
                <path d="M29.8540832,58.2682589 C29.6758089,58.2682589 29.5249615,58.1174114 29.5249615,57.9391371 L29.5249615,56.7049307 C29.5249615,56.5266564 29.6758089,56.3758089 29.8540832,56.3758089 C30.0323575,56.3758089 30.1832049,56.5266564 30.1832049,56.7049307 L30.1832049,57.6100154 C35.8605547,57.5825886 40.4819723,56.8694915 44.7057011,55.3747304 C44.8839753,55.3198767 45.0622496,55.4021572 45.1308166,55.5804314 C45.1856703,55.7587057 45.1033898,55.93698 44.9251156,56.005547 C40.5368259,57.5414484 35.7508475,58.2682589 29.8540832,58.2682589 Z" id="Shape" fill="#000000"></path>
                <path d="M28.4278891,58.2682589 C22.4077042,58.2682589 17.5668721,57.5414484 13.1785824,56.005547 C13.0003082,55.9506934 12.9180277,55.7587057 12.9728814,55.5804314 C13.027735,55.4021572 13.2197227,55.3198767 13.3979969,55.3747304 C17.7177196,56.8969183 22.4899846,57.6100154 28.4278891,57.6100154 C28.6061633,57.6100154 28.7570108,57.7608629 28.7570108,57.9391371 C28.7570108,58.1174114 28.6061633,58.2682589 28.4278891,58.2682589 Z" id="Shape" fill="#000000"></path>
                <path d="M8.72172573,62.0805855 C8.72172573,62.0805855 8.70801233,62.0805855 8.70801233,62.0805855 C8.52973806,62.0668721 8.39260401,61.9160247 8.39260401,61.7377504 C8.79029276,54.9496148 9.59938367,43.4303544 10.051926,41.3733436 C10.1479199,40.9345146 10.2576271,40.440832 10.3810478,39.8785824 C10.9570108,37.1496148 11.8483821,33.0355932 13.2060092,28.1947612 C13.2471495,28.0302003 13.4117103,27.9342065 13.5625578,27.9616333 C13.7271186,27.9890601 13.8505393,28.1261941 13.8505393,28.290755 L13.672265,55.5941448 C13.672265,55.7724191 13.5214176,55.9232666 13.3431433,55.9232666 C13.3431433,55.9232666 13.3431433,55.9232666 13.3431433,55.9232666 C13.164869,55.9232666 13.0140216,55.7724191 13.0140216,55.5941448 L13.1785824,30.8003082 C12.1775039,34.5577812 11.505547,37.766718 11.0255778,40.0157165 C10.9021572,40.5779661 10.7924499,41.0853621 10.6964561,41.5241911 C10.2576271,43.5400616 9.44853621,55.0181818 9.05084746,61.792604 C9.05084746,61.9434515 8.9,62.0805855 8.72172573,62.0805855 Z" id="Shape" fill="#000000"></path>
                <path d="M0.562249615,61.6966102 C0.562249615,61.6966102 0.54853621,61.6966102 0.54853621,61.6966102 C0.370261941,61.6828968 0.233127889,61.5320493 0.233127889,61.353775 C0.466255778,56.512943 0.822804314,51.1647149 1.09707242,46.8587057 C1.33020031,43.2932203 1.50847458,40.4819723 1.53590139,39.3300462 C1.59075501,37.3141757 2.16671803,34.4617874 2.77010786,31.4448382 C3.08551618,29.9089368 3.4009245,28.3318952 3.6614792,26.7822804 C4.12773498,24.0533128 4.82711864,21.1049307 5.45793529,18.4856703 C5.86933744,16.7440678 6.22588598,15.2355932 6.41787365,14.1933744 C6.91155624,11.5192604 12.6848998,7.14468413 18.4856703,6.0201849 C18.6639445,5.97904468 18.8422188,6.10246533 18.8696456,6.2807396 C18.9107858,6.45901387 18.7873652,6.63728814 18.6090909,6.66471495 C13.1922958,7.72064715 7.51494607,11.8620955 7.0624037,14.3167951 C6.87041602,15.3727273 6.51386749,16.8812018 6.08875193,18.6365177 C5.47164869,21.2283513 4.77226502,24.1767334 4.30600924,26.8919877 C4.04545455,28.4416025 3.71633282,30.0323575 3.4146379,31.5682589 C2.81124807,34.5577812 2.24899846,37.3827427 2.19414484,39.3300462 C2.16671803,40.4956857 1.97473035,43.3069337 1.74160247,46.8861325 C1.46733436,51.1784284 1.11078582,56.5266564 0.877657935,61.3674884 C0.891371341,61.5594761 0.740523883,61.6966102 0.562249615,61.6966102 Z" id="Shape" fill="#000000"></path>
            </g>
        </g>
    </g>
</svg>