<?xml version="1.0" encoding="UTF-8"?>
<svg width="90px" height="90px" viewBox="0 0 90 90" version="1.1" xmlns="http://www.w3.org/2000/svg" xmlns:xlink="http://www.w3.org/1999/xlink">
    <!-- Generator: Sketch 51.2 (57519) - http://www.bohemiancoding.com/sketch -->
    <title>Slice 1</title>
    <desc>Created with Sketch.</desc>
    <defs></defs>
    <g id="Page-1" stroke="none" stroke-width="1" fill="none" fill-rule="evenodd">
        <g id="Ремонт_Куртка" transform="translate(0.000000, 2.000000)" fill-rule="nonzero">
            <path d="M14.3639399,59.1891791 L12.9215359,58.338806 C14.6043406,55.0817164 16.7529215,52.4824627 19.1419032,50.7817164 C24.3255426,47.1074627 31.4023372,44.4119403 38.5542571,43.3850746 C44.278798,42.566791 52.7228715,42.4384328 60.475793,46.4817164 C66.4407346,49.5783582 71.8347245,49.9955224 75.6811352,47.6208955 C78.490818,45.8880597 80.2337229,42.855597 80.4891486,39.2615672 C80.7295492,35.8119403 78.6410684,31.9451493 76.4173623,27.8376866 C73.8480801,23.0884328 71.2036728,18.1787313 72.1652755,13.5257463 C73.1419032,8.74440299 76.7178631,4.79738806 80.8497496,3.91492537 C84.3355593,3.17686567 87.6260434,4.73320896 89.8797997,8.16679104 L88.5275459,9.17761194 C86.6343907,6.28955224 84.0350584,5.0380597 81.1803005,5.64776119 C77.6794658,6.3858209 74.6444073,9.78731343 73.78798,13.8947761 C72.9616027,17.8899254 75.4557596,22.4947761 77.8597663,26.9552239 C80.0984975,31.1108209 82.4123539,35.3947761 82.1419032,39.3899254 C81.8564274,43.5134328 79.7529215,47.155597 76.5225376,49.1451493 C72.1803005,51.8085821 66.230384,51.4235075 59.769616,48.0541045 C47.5692821,41.7003731 30.0050083,45.1981343 20.0734558,52.241791 C17.8797997,53.7820896 15.9115192,56.1727612 14.3639399,59.1891791 Z" id="Shape" fill="#CD2027"></path>
            <path d="M23.4390651,84.6843284 C22.7028381,84.6843284 21.951586,84.636194 21.1552588,84.5559701 L21.3205342,82.8070896 C28.6978297,83.6093284 33.0550918,80.1276119 35.4140234,77.0791045 C39.5308848,71.736194 40.3422371,64.1630597 39.0050083,59.4298507 C36.1502504,49.3697761 20.7345576,46.8828358 16.0767947,46.369403 C10.4724541,45.7436567 6.76126878,42.7753731 6.13021703,38.411194 C5.43906511,33.5496269 8.74457429,28.3992537 14.1836394,25.9123134 C16.7228715,24.7570896 18.6611018,22.2220149 19.5025042,18.9649254 C20.2988314,15.9164179 19.9532554,12.7876866 18.6310518,10.8141791 C17.3839733,8.95298507 14.6343907,6.70671642 11.0283806,6.46604478 C7.60267112,6.22537313 4.23706177,7.87798507 1.29215359,11.2152985 L0.0901502504,10.0119403 C4.23706177,5.29477612 8.38397329,4.52462687 11.1335559,4.7011194 C15.3105175,4.98992537 18.4357262,7.50895522 19.9833055,9.78731343 C21.60601,12.1779851 22.0417362,15.8843284 21.1101836,19.4302239 C20.1335559,23.2007463 17.8497496,26.1529851 14.8597663,27.5328358 C10.1118531,29.7149254 7.21202003,34.0791045 7.78297162,38.1384328 C8.29382304,41.7003731 11.3739566,44.0589552 16.2570952,44.6044776 C19.1869783,44.9253731 24.8964942,45.8399254 30.1252087,48.2145522 C35.8046745,50.813806 39.3205342,54.391791 40.5976628,58.8843284 C42.3255426,65.0134328 40.7328881,72.9395522 36.706177,78.1541045 C34.3171953,81.2347015 30.1702838,84.6843284 23.4390651,84.6843284 Z" id="Shape" fill="#CD2027"></path>
            <g id="Group" transform="translate(15.025042, 0.000000)">
                <path d="M20.2988314,7.39664179 C14.1686144,8.6641791 7.87312187,13.6380597 7.36227045,16.6544776 C6.85141903,19.6708955 5.19866444,26.0085821 4.34223706,31.3675373 C3.48580968,36.7264925 2.10350584,42.4705224 2.01335559,45.9843284 C1.92320534,49.4981343 0.721202003,65.9600746 0.375626043,76.8705224 L9.25542571,77.255597 C9.51085142,71.1104478 10.7278798,51.3432836 11.3288815,48.4070896 C11.9298831,45.4708955 12.966611,39.8391791 14.7846411,33.0041045 L14.5292154,74.2712687 C19.442404,76.1164179 24.836394,76.9026119 31.1168614,76.9026119 L31.1769616,75.3302239 L32.6644407,75.4585821 L32.6644407,76.9026119 C38.9449082,76.9026119 44.1435726,76.1164179 49.0567613,74.2712687 L48.8013356,33.0041045 C50.6193656,39.8231343 51.6410684,45.4708955 52.2570952,48.4070896 C52.8731219,51.3432836 54.0751252,71.1104478 54.3305509,77.255597 L63.2103506,76.8705224 C62.8647746,65.9600746 61.6627713,49.4820896 61.572621,45.9843284 C61.4824708,42.4705224 60.1001669,36.7264925 59.2437396,31.3675373 C58.3873122,26.0085821 56.7495826,19.6708955 56.2237062,16.6544776 C55.7128548,13.6380597 49.4023372,8.6641791 43.2871452,7.39664179 C43.2871452,7.39664179 39.8464107,2.19813433 39.4106845,1.63656716 C38.9749583,1.075 36.4808013,0.433208955 33.6260434,0.433208955 C30.7712855,0.433208955 26.0684474,0.256716418 24.1752922,1.66865672 C22.2520868,3.08059701 20.2988314,7.39664179 20.2988314,7.39664179 Z" id="Shape" fill="#CC9E5C"></path>
                <path d="M31.1919866,5.72798507 C31.1919866,5.69589552 31.1919866,5.64776119 31.1919866,5.61567164 C24.6711185,5.95261194 24.7161937,5.47126866 24.9866444,7.76567164 C25.2570952,10.0600746 28.9232053,23.3291045 30.0500835,27.019403 C31.1619366,30.7097015 31.7178631,30.9022388 31.7178631,30.9022388 C31.7178631,30.9022388 31.7178631,30.886194 31.7178631,30.8701493 C31.7779633,30.9022388 31.8080134,30.9022388 31.8080134,30.9022388 C31.8080134,30.9022388 32.3489149,30.7097015 33.475793,27.019403 C34.5876461,23.3291045 38.1936561,10.0440299 38.5392321,7.76567164 C38.9599332,4.89365672 37.4123539,6.03283582 31.1919866,5.72798507 Z" id="Shape" fill="#4F372A"></path>
                <path d="M24.9415693,0.978731343 C24.1452421,1.66865672 24.130217,6.00074627 24.9716194,6.17723881 C25.8130217,6.35373134 30.2153589,5.61567164 32.1085142,5.64776119 C33.3706177,5.66380597 37.0066778,6.36977612 38.6143573,5.64776119 C39.4106845,5.29477612 38.9298831,3.99514925 38.9298831,3.25708955 C38.9749583,1.50820896 39.2604341,0.86641791 37.7429048,0.754104478 C36.2253756,0.641791045 27.345576,0.224626866 24.9415693,0.978731343 Z" id="Shape" fill="#936044"></path>
                <path d="M24.6110184,1.075 C22.6277129,3.51380597 17.8797997,11.8891791 17.1135225,13.6380597 C19.6978297,13.6380597 23.3188648,13.6380597 23.3188648,13.6380597 L20.8547579,16.8470149 L31.1919866,30.7257463 C31.1919866,30.7257463 26.5792988,15.8682836 25.8130217,12.3544776 C25.0317195,8.87276119 24.3405676,3.8988806 24.6110184,1.075 Z" id="Shape" fill="#936044"></path>
                <g opacity="0.2" transform="translate(0.300501, 1.283582)" fill="#FFFFFF" id="Shape">
                    <path d="M24.5959933,6.1130597 C20.7495826,9.89962687 18.4958264,11.2473881 16.7979967,12.1940299 C15.1001669,13.1406716 11.5993322,12.4347015 10.1419032,19.3660448 C8.66944908,26.2973881 5.52921536,38.4432836 5.25876461,43.9626866 C4.98831386,49.4820896 3.86143573,73.2283582 3.65108514,75.7473881 C2.46410684,75.6992537 0.0601001669,75.5869403 0.0601001669,75.5869403 L0.736227045,61.4675373 C0.736227045,61.4675373 1.69782972,43.7380597 1.89315526,42.2940299 C2.0884808,40.8660448 7.04674457,15.3548507 7.04674457,15.3548507 C7.04674457,15.3548507 8.54924875,12.5149254 9.52587646,11.6485075 C10.5025042,10.7820896 16.21202,6.56231343 20.4340568,5.7119403 C21.0951586,3.93097015 24.0400668,0.0962686567 24.0400668,0.0962686567 L24.5959933,6.1130597 Z"></path>
                </g>
                <path d="M38.9599332,1.075 C40.9432387,3.51380597 45.6911519,11.8891791 46.457429,13.6380597 C43.8731219,13.6380597 40.2520868,13.6380597 40.2520868,13.6380597 L42.7161937,16.8470149 L32.3338898,30.886194 C32.3338898,30.886194 36.9766277,15.8843284 37.7579299,12.3705224 C38.524207,8.87276119 39.2153589,3.8988806 38.9599332,1.075 Z" id="Shape" fill="#936044"></path>
                <polygon id="Shape" fill="#936044" points="0.661101836 71.6720149 9.46577629 72.0410448 9.25542571 77.2716418 0.360601002 76.8865672"></polygon>
                <polygon id="Shape" fill="#936044" points="62.7595993 71.6720149 53.9699499 72.0410448 54.1803005 77.2716418 63.0601002 76.8865672"></polygon>
                <g transform="translate(16.828047, 57.761194)" fill="#936044" id="Shape">
                    <polygon points="25.0918197 0.128358209 29.8397329 11.3757463 28.3522538 13.4936567 22.8981636 1.49216418"></polygon>
                    <polygon points="4.8230384 0.128358209 0.0601001669 11.3757463 1.5475793 13.4936567 7.00166945 1.49216418"></polygon>
                </g>
                <g transform="translate(30.050083, 30.164179)">
                    <g>
                        <g transform="translate(0.751252, 13.798507)" fill="#000000" id="Shape">
                            <path d="M1.51752922,22.286194 L0.390651085,22.286194 C0.210350584,22.286194 0.0751252087,22.141791 0.0751252087,21.9492537 C0.0751252087,21.7567164 0.210350584,21.6123134 0.390651085,21.6123134 L1.51752922,21.6123134 C1.69782972,21.6123134 1.83305509,21.7567164 1.83305509,21.9492537 C1.83305509,22.141791 1.69782972,22.286194 1.51752922,22.286194 Z"></path>
                            <path d="M1.51752922,20.9384328 L0.390651085,20.9384328 C0.210350584,20.9384328 0.0751252087,20.7940299 0.0751252087,20.6014925 C0.0751252087,20.4089552 0.210350584,20.2645522 0.390651085,20.2645522 L1.51752922,20.2645522 C1.69782972,20.2645522 1.83305509,20.4089552 1.83305509,20.6014925 C1.83305509,20.7940299 1.69782972,20.9384328 1.51752922,20.9384328 Z"></path>
                            <path d="M1.51752922,19.6067164 L0.390651085,19.6067164 C0.210350584,19.6067164 0.0751252087,19.4623134 0.0751252087,19.2697761 C0.0751252087,19.0772388 0.210350584,18.9328358 0.390651085,18.9328358 L1.51752922,18.9328358 C1.69782972,18.9328358 1.83305509,19.0772388 1.83305509,19.2697761 C1.83305509,19.4623134 1.69782972,19.6067164 1.51752922,19.6067164 Z"></path>
                            <path d="M1.51752922,18.2268657 L0.390651085,18.2268657 C0.210350584,18.2268657 0.0751252087,18.0824627 0.0751252087,17.8899254 C0.0751252087,17.6973881 0.210350584,17.5529851 0.390651085,17.5529851 L1.51752922,17.5529851 C1.69782972,17.5529851 1.83305509,17.6973881 1.83305509,17.8899254 C1.83305509,18.0824627 1.69782972,18.2268657 1.51752922,18.2268657 Z"></path>
                            <path d="M1.51752922,16.8951493 L0.390651085,16.8951493 C0.210350584,16.8951493 0.0751252087,16.7507463 0.0751252087,16.558209 C0.0751252087,16.3656716 0.210350584,16.2212687 0.390651085,16.2212687 L1.51752922,16.2212687 C1.69782972,16.2212687 1.83305509,16.3656716 1.83305509,16.558209 C1.83305509,16.7507463 1.69782972,16.8951493 1.51752922,16.8951493 Z"></path>
                            <path d="M1.51752922,15.5473881 L0.390651085,15.5473881 C0.210350584,15.5473881 0.0751252087,15.4029851 0.0751252087,15.2104478 C0.0751252087,15.0179104 0.210350584,14.8735075 0.390651085,14.8735075 L1.51752922,14.8735075 C1.69782972,14.8735075 1.83305509,15.0179104 1.83305509,15.2104478 C1.83305509,15.4029851 1.69782972,15.5473881 1.51752922,15.5473881 Z"></path>
                            <path d="M1.51752922,14.1996269 L0.390651085,14.1996269 C0.210350584,14.1996269 0.0751252087,14.0552239 0.0751252087,13.8626866 C0.0751252087,13.6701493 0.210350584,13.5257463 0.390651085,13.5257463 L1.51752922,13.5257463 C1.69782972,13.5257463 1.83305509,13.6701493 1.83305509,13.8626866 C1.83305509,14.0552239 1.69782972,14.1996269 1.51752922,14.1996269 Z"></path>
                            <path d="M1.51752922,12.8358209 L0.390651085,12.8358209 C0.210350584,12.8358209 0.0751252087,12.6914179 0.0751252087,12.4988806 C0.0751252087,12.3063433 0.210350584,12.1619403 0.390651085,12.1619403 L1.51752922,12.1619403 C1.69782972,12.1619403 1.83305509,12.3063433 1.83305509,12.4988806 C1.83305509,12.6914179 1.69782972,12.8358209 1.51752922,12.8358209 Z"></path>
                            <path d="M1.51752922,11.4880597 L0.390651085,11.4880597 C0.210350584,11.4880597 0.0751252087,11.3436567 0.0751252087,11.1511194 C0.0751252087,10.9585821 0.210350584,10.8141791 0.390651085,10.8141791 L1.51752922,10.8141791 C1.69782972,10.8141791 1.83305509,10.9585821 1.83305509,11.1511194 C1.83305509,11.3436567 1.69782972,11.4880597 1.51752922,11.4880597 Z"></path>
                            <path d="M1.51752922,10.1402985 L0.390651085,10.1402985 C0.210350584,10.1402985 0.0751252087,9.99589552 0.0751252087,9.80335821 C0.0751252087,9.6108209 0.210350584,9.46641791 0.390651085,9.46641791 L1.51752922,9.46641791 C1.69782972,9.46641791 1.83305509,9.6108209 1.83305509,9.80335821 C1.83305509,9.99589552 1.69782972,10.1402985 1.51752922,10.1402985 Z"></path>
                            <path d="M1.51752922,8.79253731 L0.390651085,8.79253731 C0.210350584,8.79253731 0.0751252087,8.64813433 0.0751252087,8.45559701 C0.0751252087,8.2630597 0.210350584,8.11865672 0.390651085,8.11865672 L1.51752922,8.11865672 C1.69782972,8.11865672 1.83305509,8.2630597 1.83305509,8.45559701 C1.83305509,8.64813433 1.69782972,8.79253731 1.51752922,8.79253731 Z"></path>
                            <path d="M1.51752922,7.42873134 L0.390651085,7.42873134 C0.210350584,7.42873134 0.0751252087,7.28432836 0.0751252087,7.09179104 C0.0751252087,6.89925373 0.210350584,6.75485075 0.390651085,6.75485075 L1.51752922,6.75485075 C1.69782972,6.75485075 1.83305509,6.89925373 1.83305509,7.09179104 C1.83305509,7.28432836 1.69782972,7.42873134 1.51752922,7.42873134 Z"></path>
                            <path d="M1.51752922,6.08097015 L0.390651085,6.08097015 C0.210350584,6.08097015 0.0751252087,5.93656716 0.0751252087,5.74402985 C0.0751252087,5.55149254 0.210350584,5.40708955 0.390651085,5.40708955 L1.51752922,5.40708955 C1.69782972,5.40708955 1.83305509,5.55149254 1.83305509,5.74402985 C1.83305509,5.93656716 1.69782972,6.08097015 1.51752922,6.08097015 Z"></path>
                            <path d="M1.51752922,4.73320896 L0.390651085,4.73320896 C0.210350584,4.73320896 0.0751252087,4.58880597 0.0751252087,4.39626866 C0.0751252087,4.20373134 0.210350584,4.05932836 0.390651085,4.05932836 L1.51752922,4.05932836 C1.69782972,4.05932836 1.83305509,4.20373134 1.83305509,4.39626866 C1.83305509,4.58880597 1.69782972,4.73320896 1.51752922,4.73320896 Z"></path>
                            <path d="M1.51752922,3.40149254 L0.390651085,3.40149254 C0.210350584,3.40149254 0.0751252087,3.25708955 0.0751252087,3.06455224 C0.0751252087,2.87201493 0.210350584,2.72761194 0.390651085,2.72761194 L1.51752922,2.72761194 C1.69782972,2.72761194 1.83305509,2.87201493 1.83305509,3.06455224 C1.83305509,3.25708955 1.69782972,3.40149254 1.51752922,3.40149254 Z"></path>
                            <path d="M1.51752922,2.03768657 L0.390651085,2.03768657 C0.210350584,2.03768657 0.0751252087,1.89328358 0.0751252087,1.70074627 C0.0751252087,1.50820896 0.210350584,1.36380597 0.390651085,1.36380597 L1.51752922,1.36380597 C1.69782972,1.36380597 1.83305509,1.50820896 1.83305509,1.70074627 C1.83305509,1.89328358 1.69782972,2.03768657 1.51752922,2.03768657 Z"></path>
                            <path d="M1.51752922,0.689925373 L0.390651085,0.689925373 C0.210350584,0.689925373 0.0751252087,0.545522388 0.0751252087,0.352985075 C0.0751252087,0.160447761 0.210350584,0.0160447761 0.390651085,0.0160447761 L1.51752922,0.0160447761 C1.69782972,0.0160447761 1.83305509,0.160447761 1.83305509,0.352985075 C1.83305509,0.545522388 1.69782972,0.689925373 1.51752922,0.689925373 Z"></path>
                        </g>
                        <path d="M2.2687813,13.1406716 L1.14190317,13.1406716 C0.961602671,13.1406716 0.826377295,12.9962687 0.826377295,12.8037313 C0.826377295,12.611194 0.961602671,12.466791 1.14190317,12.466791 L2.2687813,12.466791 C2.4490818,12.466791 2.58430718,12.611194 2.58430718,12.8037313 C2.58430718,12.9962687 2.4490818,13.1406716 2.2687813,13.1406716 Z" id="Shape" fill="#000000"></path>
                        <path d="M2.2687813,11.7929104 L1.14190317,11.7929104 C0.961602671,11.7929104 0.826377295,11.6485075 0.826377295,11.4559701 C0.826377295,11.2634328 0.961602671,11.1190299 1.14190317,11.1190299 L2.2687813,11.1190299 C2.4490818,11.1190299 2.58430718,11.2634328 2.58430718,11.4559701 C2.58430718,11.6485075 2.4490818,11.7929104 2.2687813,11.7929104 Z" id="Shape" fill="#000000"></path>
                        <path d="M2.2687813,10.4291045 L1.14190317,10.4291045 C0.961602671,10.4291045 0.826377295,10.2847015 0.826377295,10.0921642 C0.826377295,9.89962687 0.961602671,9.75522388 1.14190317,9.75522388 L2.2687813,9.75522388 C2.4490818,9.75522388 2.58430718,9.89962687 2.58430718,10.0921642 C2.58430718,10.2847015 2.4490818,10.4291045 2.2687813,10.4291045 Z" id="Shape" fill="#000000"></path>
                        <path d="M2.2687813,9.08134328 L1.14190317,9.08134328 C0.961602671,9.08134328 0.826377295,8.9369403 0.826377295,8.74440299 C0.826377295,8.55186567 0.961602671,8.40746269 1.14190317,8.40746269 L2.2687813,8.40746269 C2.4490818,8.40746269 2.58430718,8.55186567 2.58430718,8.74440299 C2.58430718,8.9369403 2.4490818,9.08134328 2.2687813,9.08134328 Z" id="Shape" fill="#000000"></path>
                        <path d="M2.2687813,7.73358209 L1.14190317,7.73358209 C0.961602671,7.73358209 0.826377295,7.5891791 0.826377295,7.39664179 C0.826377295,7.20410448 0.961602671,7.05970149 1.14190317,7.05970149 L2.2687813,7.05970149 C2.4490818,7.05970149 2.58430718,7.20410448 2.58430718,7.39664179 C2.58430718,7.5891791 2.4490818,7.73358209 2.2687813,7.73358209 Z" id="Shape" fill="#000000"></path>
                        <path d="M2.2687813,6.3858209 L1.14190317,6.3858209 C0.961602671,6.3858209 0.826377295,6.24141791 0.826377295,6.0488806 C0.826377295,5.85634328 0.961602671,5.7119403 1.14190317,5.7119403 L2.2687813,5.7119403 C2.4490818,5.7119403 2.58430718,5.85634328 2.58430718,6.0488806 C2.58430718,6.24141791 2.4490818,6.3858209 2.2687813,6.3858209 Z" id="Shape" fill="#000000"></path>
                        <path d="M2.2687813,5.02201493 L1.14190317,5.02201493 C0.961602671,5.02201493 0.826377295,4.87761194 0.826377295,4.68507463 C0.826377295,4.49253731 0.961602671,4.34813433 1.14190317,4.34813433 L2.2687813,4.34813433 C2.4490818,4.34813433 2.58430718,4.49253731 2.58430718,4.68507463 C2.58430718,4.87761194 2.4490818,5.02201493 2.2687813,5.02201493 Z" id="Shape" fill="#000000"></path>
                        <path d="M2.2687813,3.67425373 L1.14190317,3.67425373 C0.961602671,3.67425373 0.826377295,3.52985075 0.826377295,3.33731343 C0.826377295,3.14477612 0.961602671,3.00037313 1.14190317,3.00037313 L2.2687813,3.00037313 C2.4490818,3.00037313 2.58430718,3.14477612 2.58430718,3.33731343 C2.58430718,3.52985075 2.4490818,3.67425373 2.2687813,3.67425373 Z" id="Shape" fill="#000000"></path>
                        <rect id="Rectangle-path" fill="#000000" x="0.841402337" y="0.128358209" width="1.83305509" height="3.11268657"></rect>
                        <polygon id="Shape" fill="#000000" points="1.42737896 1.68470149 0.0751252087 5.18246269 3.36560935 5.18246269 1.99833055 1.68470149"></polygon>
                        <ellipse id="Oval" fill="#CC9E5C" cx="1.75792988" cy="3.9630597" rx="1" ry="1"></ellipse>
                    </g>
                    <path d="M2.2687813,37.4324627 L1.14190317,37.4324627 C0.961602671,37.4324627 0.826377295,37.2880597 0.826377295,37.0955224 C0.826377295,36.9029851 0.961602671,36.7585821 1.14190317,36.7585821 L2.2687813,36.7585821 C2.4490818,36.7585821 2.58430718,36.9029851 2.58430718,37.0955224 C2.58430718,37.2880597 2.4490818,37.4324627 2.2687813,37.4324627 Z" id="Shape" fill="#000000"></path>
                </g>
                <g transform="translate(30.801336, 66.906716)" fill="#000000" id="Shape">
                    <g transform="translate(0.000000, 1.283582)">
                        <path d="M1.5475793,0.754104478 L0.420701169,0.754104478 C0.240400668,0.754104478 0.105175292,0.609701493 0.105175292,0.417164179 C0.105175292,0.224626866 0.240400668,0.0802238806 0.420701169,0.0802238806 L1.5475793,0.0802238806 C1.7278798,0.0802238806 1.86310518,0.224626866 1.86310518,0.417164179 C1.86310518,0.609701493 1.7278798,0.754104478 1.5475793,0.754104478 Z"></path>
                        <path d="M1.5475793,2.10186567 L0.420701169,2.10186567 C0.240400668,2.10186567 0.105175292,1.95746269 0.105175292,1.76492537 C0.105175292,1.57238806 0.240400668,1.42798507 0.420701169,1.42798507 L1.5475793,1.42798507 C1.7278798,1.42798507 1.86310518,1.57238806 1.86310518,1.76492537 C1.86310518,1.95746269 1.7278798,2.10186567 1.5475793,2.10186567 Z"></path>
                        <path d="M1.5475793,3.44962687 L0.420701169,3.44962687 C0.240400668,3.44962687 0.105175292,3.30522388 0.105175292,3.11268657 C0.105175292,2.92014925 0.240400668,2.77574627 0.420701169,2.77574627 L1.5475793,2.77574627 C1.7278798,2.77574627 1.86310518,2.92014925 1.86310518,3.11268657 C1.86310518,3.30522388 1.7278798,3.44962687 1.5475793,3.44962687 Z"></path>
                        <path d="M1.5475793,4.81343284 L0.420701169,4.81343284 C0.240400668,4.81343284 0.105175292,4.66902985 0.105175292,4.47649254 C0.105175292,4.28395522 0.240400668,4.13955224 0.420701169,4.13955224 L1.5475793,4.13955224 C1.7278798,4.13955224 1.86310518,4.28395522 1.86310518,4.47649254 C1.86310518,4.66902985 1.7278798,4.81343284 1.5475793,4.81343284 Z"></path>
                        <path d="M1.5475793,6.16119403 L0.420701169,6.16119403 C0.240400668,6.16119403 0.105175292,6.01679104 0.105175292,5.82425373 C0.105175292,5.63171642 0.240400668,5.48731343 0.420701169,5.48731343 L1.5475793,5.48731343 C1.7278798,5.48731343 1.86310518,5.63171642 1.86310518,5.82425373 C1.86310518,6.01679104 1.7278798,6.16119403 1.5475793,6.16119403 Z"></path>
                        <path d="M0.360601002,9.08134328 C0.180300501,9.08134328 0.0450751252,8.9369403 0.0450751252,8.74440299 L0.0450751252,7.17201493 C0.0450751252,6.97947761 0.180300501,6.83507463 0.360601002,6.83507463 L1.84808013,6.83507463 C2.02838063,6.83507463 2.16360601,6.97947761 2.16360601,7.17201493 C2.16360601,7.36455224 2.02838063,7.50895522 1.84808013,7.50895522 L0.676126878,7.50895522 L0.676126878,8.74440299 C0.676126878,8.92089552 0.540901503,9.08134328 0.360601002,9.08134328 Z"></path>
                    </g>
                    <path d="M1.5475793,0.689925373 L0.420701169,0.689925373 C0.240400668,0.689925373 0.105175292,0.545522388 0.105175292,0.352985075 C0.105175292,0.160447761 0.240400668,0.0160447761 0.420701169,0.0160447761 L1.5475793,0.0160447761 C1.7278798,0.0160447761 1.86310518,0.160447761 1.86310518,0.352985075 C1.86310518,0.545522388 1.7278798,0.689925373 1.5475793,0.689925373 Z"></path>
                </g>
                <path d="M31.1919866,31.1268657 C31.0868114,31.1268657 30.9816361,31.0787313 30.9065109,30.9824627 L20.5692821,17.1037313 C20.4641068,16.9593284 20.4641068,16.766791 20.5692821,16.6223881 L22.5525876,14.0391791 L17.0984975,14.0391791 C16.9782972,14.0391791 16.8580968,13.975 16.7979967,13.8626866 C16.7378965,13.7503731 16.7228715,13.6059701 16.7829716,13.4936567 C17.5792988,11.6966418 22.327212,3.30522388 24.3405676,0.834328358 C24.4457429,0.705970149 24.6110184,0.673880597 24.7612688,0.738059701 C24.9115192,0.802238806 24.9866444,0.962686567 24.9716194,1.12313433 C24.7161937,3.91492537 25.4073456,8.87276119 26.1736227,12.3063433 C26.9398998,15.7559701 31.5075125,30.5011194 31.5525876,30.6455224 C31.6126878,30.8220149 31.5375626,31.0145522 31.3873122,31.1108209 C31.312187,31.1108209 31.2520868,31.1268657 31.1919866,31.1268657 Z M21.3205342,16.8630597 L30.230384,28.8164179 C28.9382304,24.6126866 26.0684474,15.194403 25.4674457,12.466791 C24.7913189,9.43432836 24.1752922,5.19850746 24.1903172,2.24626866 C22.2070117,5.08619403 18.8113523,11.038806 17.6844741,13.2529851 L23.3038397,13.2529851 C23.4390651,13.2529851 23.5742905,13.333209 23.6343907,13.4776119 C23.6944908,13.6059701 23.6794658,13.7664179 23.5893155,13.8787313 L21.3205342,16.8630597 Z" id="Shape" fill="#000000"></path>
                <path d="M9.25542571,77.6567164 C9.25542571,77.6567164 9.24040067,77.6567164 9.24040067,77.6567164 L0.360601002,77.2716418 C0.165275459,77.255597 0.0150250417,77.0791045 0.0150250417,76.8705224 C0.225375626,70.1798507 0.766277129,61.275 1.17195326,54.7929104 C1.42737896,50.6212687 1.62270451,47.3320896 1.65275459,45.9843284 C1.71285476,43.6257463 2.34390651,40.2884328 3.00500835,36.7585821 C3.35058431,34.9615672 3.69616027,33.1164179 3.98163606,31.3033582 C4.49248748,28.1104478 5.25876461,24.6608209 5.94991653,21.5962687 C6.40066778,19.5585821 6.79131886,17.7936567 7.00166945,16.5742537 C7.54257095,13.4455224 13.8681135,8.32723881 20.2237062,7.01156716 C20.4190317,6.96343284 20.6143573,7.10783582 20.6444073,7.31641791 C20.6894825,7.525 20.5542571,7.73358209 20.3589316,7.76567164 C14.4240401,9.0011194 8.20367279,13.8466418 7.70784641,16.7186567 C7.49749583,17.9541045 7.10684474,19.7190299 6.64106845,21.7727612 C5.96494157,24.8052239 5.19866444,28.2548507 4.68781302,31.4317164 C4.40233723,33.2447761 4.04173623,35.1059701 3.71118531,36.9029851 C3.05008347,40.4007463 2.43405676,43.7059701 2.37395659,45.9843284 C2.34390651,47.3481343 2.13355593,50.6533582 1.87813022,54.825 C1.48747913,61.1947761 0.961602671,69.8589552 0.736227045,76.5014925 L8.90984975,76.8544776 C9.1803005,70.6772388 10.3522538,51.3272388 10.9682805,48.3268657 C11.0734558,47.8134328 11.1936561,47.2358209 11.3288815,46.5779851 C11.9599332,43.3850746 12.9365609,38.5716418 14.4240401,32.9078358 C14.4691152,32.7152985 14.6494157,32.6029851 14.8146912,32.6350746 C14.9949917,32.6671642 15.130217,32.8276119 15.130217,33.0201493 L14.8747913,74.030597 C19.5325543,75.7473881 24.7011686,76.5496269 31.1018364,76.5496269 C31.2971619,76.5496269 31.4624374,76.7261194 31.4624374,76.9347015 C31.4624374,77.1432836 31.2971619,77.3197761 31.1018364,77.3197761 C24.5058431,77.3197761 19.2020033,76.469403 14.39399,74.6723881 C14.2437396,74.6242537 14.1535893,74.463806 14.1535893,74.3033582 L14.39399,35.9723881 C13.2971619,40.3686567 12.5609349,44.1231343 12.0350584,46.7544776 C11.8998331,47.4123134 11.7796327,48.0059701 11.6744574,48.519403 C11.0884808,51.3432836 9.88647746,70.8216418 9.61602671,77.3037313 C9.60100167,77.4962687 9.45075125,77.6567164 9.25542571,77.6567164 Z" id="Shape" fill="#000000"></path>
                <path d="M32.3188648,31.2712687 C32.2587646,31.2712687 32.1986644,31.2552239 32.1535893,31.2231343 C32.0033389,31.1268657 31.9282137,30.9343284 31.9883139,30.7578358 C32.033389,30.6134328 36.6460768,15.7238806 37.3973289,12.2742537 C38.148581,8.85671642 38.8547579,3.8988806 38.5993322,1.09104478 C38.5843072,0.930597015 38.6744574,0.770149254 38.8096828,0.705970149 C38.9599332,0.641791045 39.1252087,0.673880597 39.230384,0.802238806 C41.2437396,3.27313433 45.9916528,11.6645522 46.78798,13.4615672 C46.8480801,13.5738806 46.8330551,13.7182836 46.7729549,13.830597 C46.7128548,13.9429104 46.5926544,14.0070896 46.4724541,14.0070896 L41.0183639,14.0070896 L43.0016694,16.5902985 C43.1068447,16.7347015 43.1068447,16.9272388 43.0016694,17.0716418 L32.6043406,31.1268657 C32.5292154,31.2231343 32.4240401,31.2712687 32.3188648,31.2712687 Z M39.3656093,2.24626866 C39.3956594,5.19850746 38.7646077,9.43432836 38.0884808,12.466791 C37.4874791,15.2104478 34.6026711,24.6929104 33.2954925,28.9447761 L42.2353923,16.8630597 L39.966611,13.8787313 C39.8764608,13.7664179 39.8614357,13.6059701 39.9215359,13.4776119 C39.9816361,13.3492537 40.1018364,13.2529851 40.2520868,13.2529851 L45.8714524,13.2529851 C44.7595993,11.038806 41.3639399,5.08619403 39.3656093,2.24626866 Z" id="Shape" fill="#000000"></path>
                <path d="M54.3155259,77.6567164 C54.1202003,77.6567164 53.9699499,77.4962687 53.9549249,77.2876866 C53.6844741,70.8216418 52.4824708,51.3272388 51.8964942,48.5033582 C51.7913189,47.9899254 51.6711185,47.4123134 51.5358932,46.7384328 C51.0100167,44.1070896 50.2587646,40.3526119 49.1769616,35.9563433 L49.4173623,74.2873134 C49.4173623,74.4477612 49.327212,74.5921642 49.1769616,74.6563433 C44.3689482,76.469403 39.1252087,77.3037313 32.6644407,77.3037313 C32.4691152,77.3037313 32.3038397,77.1272388 32.3038397,76.9186567 L32.3038397,75.4746269 C32.3038397,75.2660448 32.4691152,75.0895522 32.6644407,75.0895522 C32.8597663,75.0895522 33.0250417,75.2660448 33.0250417,75.4746269 L33.0250417,76.5335821 C39.1252087,76.5014925 44.1285476,75.6992537 48.6961603,74.0145522 L48.4407346,33.0201493 C48.4407346,32.8276119 48.5759599,32.6671642 48.7562604,32.6350746 C48.9365609,32.6029851 49.1018364,32.7313433 49.1469115,32.9078358 C50.6494157,38.555597 51.6110184,43.3850746 52.2420701,46.5779851 C52.3772955,47.2358209 52.4974958,47.8294776 52.6026711,48.3268657 C53.2186978,51.3272388 54.3906511,70.661194 54.6611018,76.8544776 L62.8347245,76.5014925 C62.6093489,69.8589552 62.0834725,61.1947761 61.6928214,54.825 C61.4373957,50.6533582 61.2420701,47.3641791 61.196995,46.0003731 C61.1368948,43.7059701 60.5208681,40.416791 59.8597663,36.9190299 C59.5141903,35.1220149 59.1686144,33.2608209 58.8831386,31.4477612 C58.3722871,28.2869403 57.60601,24.8373134 56.9298831,21.788806 C56.4791319,19.7350746 56.0734558,17.9701493 55.8631052,16.7347015 C55.3672788,13.8626866 49.1469115,9.01716418 43.21202,7.78171642 C43.0166945,7.73358209 42.8814691,7.54104478 42.9265442,7.33246269 C42.9716194,7.1238806 43.1519199,6.97947761 43.3472454,7.02761194 C49.7028381,8.34328358 56.0434057,13.4776119 56.5692821,16.5902985 C56.7796327,17.8097015 57.1702838,19.5746269 57.6210351,21.6123134 C58.2971619,24.6608209 59.0784641,28.1264925 59.5893155,31.3033582 C59.8747913,33.1003731 60.2353923,34.9615672 60.5659432,36.7585821 C61.2270451,40.2884328 61.8580968,43.6257463 61.918197,45.9843284 C61.9482471,47.3320896 62.1585977,50.6212687 62.3989983,54.7929104 C62.7896494,61.2910448 63.345576,70.1798507 63.5559265,76.8705224 C63.5559265,77.0791045 63.4056761,77.255597 63.2103506,77.2716418 L54.3305509,77.6567164 C54.3155259,77.6567164 54.3155259,77.6567164 54.3155259,77.6567164 Z" id="Shape" fill="#000000"></path>
                <path d="M24.6110184,1.46007463 C24.4607679,1.46007463 24.3105175,1.34776119 24.2654424,1.18731343 C24.2053422,0.978731343 24.3105175,0.770149254 24.5058431,0.705970149 C27.4056761,-0.20858209 36.4056761,-0.0802238806 39.0500835,0.705970149 C39.245409,0.770149254 39.3505843,0.978731343 39.3055092,1.18731343 C39.245409,1.39589552 39.0500835,1.50820896 38.8547579,1.46007463 C36.3305509,0.705970149 27.4507513,0.57761194 24.7011686,1.46007463 C24.6711185,1.44402985 24.6410684,1.46007463 24.6110184,1.46007463 Z" id="Shape" fill="#000000"></path>
                <path d="M24.851419,6.59440299 C24.6861436,6.59440299 24.5358932,6.48208955 24.5058431,6.30559701 C24.4607679,6.09701493 24.5809683,5.88843284 24.7762938,5.84029851 C28.2470785,4.92574627 35.8948247,5.16641791 38.7195326,5.64776119 C38.9148581,5.67985075 39.0500835,5.87238806 39.0200334,6.08097015 C38.9899833,6.28955224 38.8096828,6.43395522 38.6143573,6.40186567 C35.9098497,5.95261194 28.2771285,5.7119403 24.9565943,6.59440299 C24.9115192,6.57835821 24.8814691,6.59440299 24.851419,6.59440299 Z" id="Shape" fill="#000000"></path>
                <g transform="translate(16.527546, 57.440299)" fill="#000000" id="Shape">
                    <path d="M28.6527546,14.1996269 C28.6377295,14.1996269 28.6227045,14.1996269 28.6227045,14.1996269 C28.5025042,14.1835821 28.3823038,14.1033582 28.3372287,13.9910448 L22.8831386,1.97350746 C22.8080134,1.79701493 22.8681135,1.57238806 23.0183639,1.4761194 L25.21202,0.112313433 C25.3021703,0.0641791045 25.4073456,0.0481343284 25.4974958,0.0802238806 C25.5876461,0.112313433 25.6777963,0.192537313 25.7228715,0.28880597 L30.4707846,11.536194 C30.5308848,11.6645522 30.5158598,11.8089552 30.4257095,11.9212687 L28.9382304,14.0391791 C28.8781302,14.1514925 28.7729549,14.1996269 28.6527546,14.1996269 Z M23.6794658,1.95746269 L28.7278798,13.0764925 L29.7345576,11.6485075 L25.2270451,0.994776119 L23.6794658,1.95746269 Z"></path>
                    <path d="M1.84808013,14.1996269 C1.7278798,14.1996269 1.62270451,14.1354478 1.56260434,14.0391791 L0.0751252087,11.9212687 C-2.41907189e-15,11.8089552 -0.0150250417,11.6645522 0.0300500835,11.536194 L4.77796327,0.28880597 C4.8230384,0.192537313 4.89816361,0.112313433 5.0033389,0.0802238806 C5.09348915,0.0481343284 5.21368948,0.0641791045 5.28881469,0.112313433 L7.48247078,1.4761194 C7.64774624,1.57238806 7.70784641,1.79701493 7.61769616,1.97350746 L2.16360601,13.9910448 C2.10350584,14.119403 1.99833055,14.1996269 1.87813022,14.1996269 C1.87813022,14.1996269 1.86310518,14.1996269 1.84808013,14.1996269 Z M0.78130217,11.6485075 L1.78797997,13.0764925 L6.83639399,1.95746269 L5.28881469,0.994776119 L0.78130217,11.6485075 Z"></path>
                </g>
                <path d="M54.0450751,72.4261194 C53.8497496,72.4261194 53.6994992,72.2656716 53.6844741,72.0570896 C53.6694491,71.8485075 53.8347245,71.6720149 54.0300501,71.6559701 L62.9699499,71.2869403 C63.1652755,71.2869403 63.3305509,71.4473881 63.345576,71.6559701 C63.360601,71.8645522 63.1953255,72.0410448 63,72.0570896 L54.0450751,72.4261194 C54.0601002,72.4261194 54.0450751,72.4261194 54.0450751,72.4261194 Z" id="Shape" fill="#000000"></path>
                <path d="M9.25542571,77.6567164 C9.25542571,77.6567164 9.24040067,77.6567164 9.24040067,77.6567164 L0.360601002,77.2716418 C0.270450751,77.2716418 0.165275459,77.2235075 0.105175292,77.1432836 C0.0450751252,77.0630597 1.63428299e-14,76.966791 0.0150250417,76.8544776 L0.315525876,71.6399254 C0.330550918,71.4313433 0.495826377,71.2708955 0.69115192,71.2708955 L9.48080134,71.6399254 C9.57095159,71.6399254 9.66110184,71.6880597 9.73622705,71.7682836 C9.79632721,71.8485075 9.84140234,71.9447761 9.8263773,72.0410448 L9.61602671,77.2716418 C9.60100167,77.4962687 9.45075125,77.6567164 9.25542571,77.6567164 Z M0.751252087,76.5175373 L8.90984975,76.8705224 L9.09015025,72.4100746 L1.0066778,72.0731343 L0.751252087,76.5175373 Z" id="Shape" fill="#000000"></path>
                <g opacity="0.1" transform="translate(14.424040, 32.891791)" fill="#000000" id="Shape">
                    <path d="M0.34557596,0.144402985 C2.43405676,4.33208955 5.39398998,26.5541045 5.40901503,43.2567164 C2.97495826,42.1014925 0.0751252087,41.4115672 0.0751252087,41.4115672 L0.34557596,0.144402985 Z"></path>
                </g>
                <g opacity="0.2" transform="translate(38.464107, 1.283582)" fill="#FFFFFF" id="Shape">
                    <path d="M0.135225376,6.1130597 C3.98163606,9.89962687 6.23539232,11.2473881 7.93322204,12.1940299 C9.63105175,13.1406716 13.1318865,12.4347015 14.5893155,19.3660448 C16.0467446,26.2973881 19.2020033,38.4432836 19.4724541,43.9626866 C19.7579299,49.4820896 20.869783,73.2283582 21.0801336,75.7473881 C22.2671119,75.6992537 24.6711185,75.5869403 24.6711185,75.5869403 L23.9949917,61.4675373 C23.9949917,61.4675373 23.033389,43.7380597 22.8380634,42.2940299 C22.6427379,40.8660448 17.6844741,15.3548507 17.6844741,15.3548507 C17.6844741,15.3548507 16.1819699,12.5149254 15.2053422,11.6485075 C14.2287145,10.7820896 8.51919866,6.56231343 4.29716194,5.7119403 C3.6360601,3.93097015 0.69115192,0.0962686567 0.69115192,0.0962686567 L0.135225376,6.1130597 Z"></path>
                </g>
                <g opacity="0.1" transform="translate(43.873122, 32.891791)" fill="#000000" id="Shape">
                    <path d="M4.85308848,0.144402985 C2.76460768,4.33208955 0.135225376,26.3615672 0.120200334,43.0641791 C2.5542571,41.9089552 5.10851419,41.4115672 5.10851419,41.4115672 L4.85308848,0.144402985 Z"></path>
                </g>
            </g>
            <g id="Group" transform="translate(36.060100, 35.779851)">
                <g transform="translate(11.569282, 0.000000)" id="Shape">
                    <path d="M25.6627713,49.6585821 C24.6260434,49.6585821 23.5893155,49.3697761 22.672788,48.8563433 C21.1702838,48.0059701 20.0734558,46.5779851 19.5926544,44.8451493 C19.1118531,43.1123134 19.2621035,41.2671642 20.0734558,39.6787313 C21.0801336,37.6570896 23.0033389,36.3253731 25.1519199,36.1328358 C25.3021703,36.116791 25.4674457,36.0205224 25.542571,35.8440299 C25.6327212,35.6835821 25.6327212,35.5070896 25.542571,35.3466418 L25.4373957,35.1380597 L0.931552588,1.26753731 L2.71953255,0.705970149 L13.6277129,6.96343284 L30.245409,37.7052239 C30.4257095,37.9458955 33.4307179,41.8929104 31.327212,46.1126866 C30.1702838,48.2947761 28.0217028,49.6585821 25.6627713,49.6585821 Z M25.6928214,39.2294776 C24.4156928,39.2294776 23.2737896,39.9514925 22.672788,41.1548507 C22.2370618,42.0212687 22.1469115,43.0160448 22.4023372,43.930597 C22.672788,44.8772388 23.2587646,45.6152985 24.0550918,46.0966418 C24.5659432,46.3854478 25.1068447,46.513806 25.6627713,46.513806 C26.9398998,46.513806 28.081803,45.791791 28.6828047,44.5884328 C29.1185309,43.7220149 29.2086811,42.7272388 28.9532554,41.8126866 C28.6828047,40.8660448 28.096828,40.1279851 27.3005008,39.6466418 C26.8046745,39.3738806 26.2337229,39.2294776 25.6928214,39.2294776 Z" fill="#FCFAE3"></path>
                    <path d="M2.64440735,1.25149254 L13.2520868,7.31641791 L29.7946578,37.9298507 C29.8096828,37.9779851 29.8547579,38.0261194 29.884808,38.0742537 C29.9148581,38.1223881 32.8297162,41.8768657 30.8464107,45.8238806 C29.8096828,47.8615672 27.8263773,49.1451493 25.6777963,49.1451493 C24.7161937,49.1451493 23.769616,48.8884328 22.8981636,48.3910448 C20.0434057,46.7705224 18.9616027,42.9679104 20.4941569,39.9033582 C21.4407346,38.0261194 23.1836394,36.8067164 25.1819699,36.6141791 C25.5125209,36.5981343 25.7979967,36.3735075 25.9482471,36.0686567 C26.0984975,35.763806 26.0984975,35.3947761 25.9482471,35.0738806 L25.8430718,34.8652985 C25.8280467,34.8171642 25.7829716,34.7690299 25.7529215,34.7208955 L1.7278798,1.50820896 L2.64440735,1.25149254 Z M25.6928214,47.0593284 C27.1502504,47.0593284 28.4724541,46.2089552 29.148581,44.8451493 C29.6293823,43.8503731 29.7495826,42.7272388 29.4340568,41.6682836 C29.1185309,40.6093284 28.4724541,39.7108209 27.5409015,39.1973881 C26.9699499,38.8604478 26.3238731,38.7 25.6928214,38.7 C24.2353923,38.7 22.9131886,39.5503731 22.2370618,40.9141791 C21.230384,42.9358209 21.9215359,45.4708955 23.8447412,46.5779851 C24.3856427,46.8828358 25.0317195,47.0593284 25.6928214,47.0593284 Z M2.7345576,0.128358209 L0.0901502504,0.978731343 L25.0016694,35.3787313 L25.1068447,35.5873134 C22.8831386,35.7958955 20.7646077,37.1436567 19.6527546,39.4220149 C17.8647746,42.9679104 19.1268781,47.4123134 22.4474124,49.3216418 C23.4841402,49.9152985 24.5809683,50.1880597 25.6777963,50.1880597 C28.1268781,50.1880597 30.4707846,48.7761194 31.7028381,46.3373134 C34.0166945,41.7324627 30.6210351,37.4324627 30.6210351,37.4324627 L13.9432387,6.54626866 L2.7345576,0.128358209 Z M25.6928214,46.0164179 C25.2270451,46.0164179 24.7462437,45.9041045 24.3105175,45.6473881 C22.8831386,44.8291045 22.3572621,42.9197761 23.0934891,41.4115672 C23.6193656,40.3526119 24.6410684,39.7589552 25.6928214,39.7589552 C26.1585977,39.7589552 26.639399,39.8712687 27.0751252,40.1279851 C28.5025042,40.9462687 29.0283806,42.855597 28.2921536,44.363806 C27.736227,45.4067164 26.7295492,46.0164179 25.6928214,46.0164179 Z" fill="#402312"></path>
                </g>
                <g transform="translate(0.000000, 16.205224)" id="Shape">
                    <path d="M1.32220367,10.2686567 L0.796327212,8.35932836 L40.687813,11.391791 L41.0033389,11.3757463 C41.1535893,11.3597015 41.3188648,11.2634328 41.39399,11.0869403 C41.4540902,10.9264925 41.4540902,10.7339552 41.39399,10.5895522 C40.3572621,8.56791045 40.3422371,6.14514925 41.3489149,4.10746269 C42.4457429,1.89328358 44.6093489,0.529477612 46.9532554,0.529477612 C47.9899833,0.529477612 49.0267112,0.818283582 49.9432387,1.33171642 C51.4457429,2.18208955 52.542571,3.61007463 53.0233723,5.34291045 C53.5041736,7.07574627 53.3539232,8.92089552 52.542571,10.5093284 C50.8447412,13.8626866 47.4641068,14.2477612 46.066778,14.2477612 C45.721202,14.2477612 45.4958264,14.2317164 45.4657763,14.2317164 L12.2153589,16.4940299 L1.32220367,10.2686567 Z M46.9682805,3.67425373 C45.6911519,3.67425373 44.5492487,4.39626866 43.9482471,5.59962687 C43.5125209,6.46604478 43.4223706,7.4608209 43.6777963,8.37537313 C43.9482471,9.32201493 44.5342237,10.0600746 45.3305509,10.5414179 C45.8414023,10.8302239 46.3823038,10.9585821 46.9382304,10.9585821 C48.2153589,10.9585821 49.3572621,10.2365672 49.9582638,9.03320896 C50.8447412,7.25223881 50.2287145,5.0380597 48.5459098,4.07537313 C48.0651085,3.81865672 47.509182,3.67425373 46.9682805,3.67425373 Z" fill="#FCFAE3"></path>
                    <path d="M46.9682805,1.075 C47.9298831,1.075 48.8764608,1.33171642 49.7479132,1.82910448 C52.6026711,3.44962687 53.6844741,7.25223881 52.1519199,10.316791 C50.5893155,13.4455224 47.4040067,13.7664179 46.096828,13.7664179 C45.7662771,13.7664179 45.5709516,13.7503731 45.5709516,13.7503731 C45.5258765,13.7503731 45.5108514,13.7503731 45.4657763,13.7503731 C45.4507513,13.7503731 45.4207012,13.7503731 45.4056761,13.7503731 L12.3806344,15.980597 L1.77295492,9.91567164 L1.50250417,8.95298507 L40.7028381,11.9373134 C40.7178631,11.9373134 40.7479132,11.9373134 40.7629382,11.9373134 C40.7779633,11.9373134 40.8230384,11.9373134 40.8530885,11.9373134 L41.0784641,11.9212687 C41.409015,11.9052239 41.6944908,11.680597 41.8447412,11.3757463 C41.9949917,11.0708955 41.9949917,10.7018657 41.8447412,10.3809701 C40.8831386,8.50373134 40.8831386,6.27350746 41.7996661,4.39626866 C42.8063439,2.34253731 44.7896494,1.075 46.9682805,1.075 Z M46.9382304,11.5041045 C48.3956594,11.5041045 49.7178631,10.6537313 50.39399,9.28992537 C51.4006678,7.26828358 50.7095159,4.73320896 48.7863105,3.6261194 C48.2153589,3.2891791 47.5692821,3.12873134 46.9382304,3.12873134 C45.4808013,3.12873134 44.1585977,3.97910448 43.4824708,5.34291045 C42.475793,7.36455224 43.1669449,9.89962687 45.0901503,11.0067164 C45.6611018,11.3436567 46.3071786,11.5041045 46.9382304,11.5041045 Z M46.9682805,0.0160447761 C44.5191987,0.0160447761 42.1752922,1.42798507 40.9432387,3.86679104 C39.8013356,6.12910448 39.9065109,8.76044776 40.9883139,10.8462687 L40.7629382,10.8623134 L0.135225376,7.76567164 L0.931552588,10.5895522 L12.1252087,17.0235075 L45.4357262,14.761194 C45.4357262,14.761194 45.6761269,14.7772388 46.066778,14.7772388 C47.5392321,14.7772388 51.1452421,14.408209 52.9782972,10.7820896 C54.7662771,7.23619403 53.5041736,2.79179104 50.1836394,0.882462687 C49.1619366,0.304850746 48.0350584,0.0160447761 46.9682805,0.0160447761 Z M46.9382304,10.4772388 C46.4724541,10.4772388 45.9916528,10.3649254 45.5559265,10.108209 C44.1285476,9.28992537 43.6026711,7.38059701 44.3388982,5.87238806 C44.8647746,4.81343284 45.8864775,4.21977612 46.9382304,4.21977612 C47.4040067,4.21977612 47.884808,4.33208955 48.3205342,4.58880597 C49.7479132,5.40708955 50.2737896,7.31641791 49.5375626,8.82462687 C49.0116861,9.86753731 47.9899833,10.4772388 46.9382304,10.4772388 Z" fill="#402312"></path>
                </g>
                <g transform="translate(33.055092, 28.078358)">
                    <ellipse id="Oval" fill="#CCCBCB" cx="1.05175292" cy="1.15522388" rx="1" ry="1.02686567"></ellipse>
                    <path d="M1.05175292,2.26231343 C0.480801336,2.26231343 0.0150250417,1.76492537 0.0150250417,1.15522388 C0.0150250417,0.545522388 0.480801336,0.0481343284 1.05175292,0.0481343284 C1.62270451,0.0481343284 2.0884808,0.545522388 2.0884808,1.15522388 C2.0884808,1.76492537 1.62270451,2.26231343 1.05175292,2.26231343 Z M1.05175292,0.192537313 C0.555926544,0.192537313 0.150250417,0.625746269 0.150250417,1.15522388 C0.150250417,1.68470149 0.555926544,2.11791045 1.05175292,2.11791045 C1.5475793,2.11791045 1.95325543,1.68470149 1.95325543,1.15522388 C1.96828047,0.625746269 1.5475793,0.192537313 1.05175292,0.192537313 Z" id="Shape" fill="#402312"></path>
                </g>
            </g>
            <g id="Group" transform="translate(4.207012, 48.776119)">
                <path d="M2.83973289,18.6279851 C1.75792988,18.3873134 1.0066778,17.8257463 0.736227045,17.0074627 C0.390651085,16.0608209 0.721202003,14.905597 1.68280467,13.8145522 C2.5542571,12.8037313 3.86143573,11.8891791 5.3639399,11.2794776 C5.93489149,11.0548507 6.52086811,10.8462687 7.10684474,10.7179104 L38.7495826,0.689925373 C38.869783,0.673880597 38.9749583,0.641791045 39.0801336,0.673880597 C39.3505843,0.738059701 39.5759599,0.994776119 39.590985,1.29962687 C39.6210351,1.60447761 39.4707846,1.89328358 39.2003339,2.03768657 L9.34557596,17.1679104 C8.86477462,17.4567164 8.30884808,17.7455224 7.73789649,17.986194 C5.99499165,18.6921642 4.20701169,18.9328358 2.83973289,18.6279851 Z M10.2771285,13.1246269 C9.43572621,13.1727612 7.76794658,13.6059701 6.35559265,14.1675373 C4.68781302,14.8574627 4.37228715,15.3548507 4.29716194,15.483209 C4.29716194,15.5955224 4.40233723,15.6276119 4.44741235,15.6276119 C4.67278798,15.6757463 5.30383973,15.6757463 6.70116861,15.1141791 C8.29382304,14.4723881 9.70617696,13.6059701 10.2771285,13.1246269 Z" id="Shape" fill="#FCFAE3"></path>
                <path d="M38.9449082,1.18731343 C39.1101836,1.21940299 39.1702838,1.49216418 38.9749583,1.57238806 L9.12020033,16.7026119 C8.639399,16.9914179 8.11352254,17.2802239 7.52754591,17.5048507 C5.81469115,18.2108209 4.11686144,18.4033582 2.89983306,18.130597 C2.01335559,17.9380597 1.3672788,17.488806 1.12687813,16.8309701 C0.555926544,15.2425373 2.50918197,12.9802239 5.46911519,11.7768657 C6.04006678,11.5522388 6.61101836,11.3757463 7.13689482,11.2473881 L38.8096828,1.20335821 C38.884808,1.17126866 38.9298831,1.18731343 38.9449082,1.18731343 Z M4.34223706,16.1410448 C4.8230384,16.2533582 5.66444073,16.1089552 6.86644407,15.5955224 C8.72954925,14.8253731 11.2086811,13.3813433 10.9833055,12.8197761 C10.9532554,12.7235075 10.8631052,12.6753731 10.7128548,12.6432836 C9.93155259,12.466791 7.72287145,13.0604478 6.17529215,13.686194 C4.31218698,14.4563433 3.62103506,15.1623134 3.84641068,15.7399254 C3.92153589,15.9324627 4.08681135,16.0768657 4.34223706,16.1410448 Z M39.1402337,0.176492537 C38.9449082,0.128358209 38.7495826,0.144402985 38.5542571,0.20858209 L6.9115192,10.2365672 C6.31051753,10.3649254 5.7245409,10.5574627 5.12353923,10.8141791 C1.56260434,12.2902985 -0.555926544,15.0179104 0.240400668,17.1839552 C0.585976628,18.1466418 1.45742905,18.8365672 2.70450751,19.1093284 C4.16193656,19.4302239 6.04006678,19.1895522 7.87312187,18.4354478 C8.44407346,18.1787313 9.03005008,17.9220149 9.55592654,17.5850746 L39.3806344,2.47089552 C39.8163606,2.24626866 40.0868114,1.76492537 40.0417362,1.23544776 C40.0116861,0.722014925 39.6210351,0.272761194 39.1402337,0.176492537 Z" id="Shape" fill="#402312"></path>
            </g>
            <path d="M21.2003339,84.5559701 C16.9482471,83.994403 13.7028381,81.988806 11.7796327,78.7317164 C9.39065109,74.6723881 9.13522538,68.8641791 11.0734558,62.7992537 L12.6360601,63.3608209 C10.8931553,68.8320896 11.0884808,74.2391791 13.1769616,77.7850746 C14.8447412,80.6089552 17.6093489,82.3097015 21.3956594,82.8070896 L21.2003339,84.5559701 Z" id="Shape" fill="#CD2027"></path>
        </g>
    </g>
</svg>