<?xml version="1.0" encoding="UTF-8"?>
<svg width="90px" height="90px" viewBox="0 0 90 90" version="1.1" xmlns="http://www.w3.org/2000/svg" xmlns:xlink="http://www.w3.org/1999/xlink">
    <!-- Generator: Sketch 51.2 (57519) - http://www.bohemiancoding.com/sketch -->
    <title>Slice 1</title>
    <desc>Created with Sketch.</desc>
    <defs></defs>
    <g id="Page-1" stroke="none" stroke-width="1" fill="none" fill-rule="evenodd">
        <g id="пошив-мужской-одежды" transform="translate(7.000000, 0.000000)" fill-rule="nonzero">
            <g id="Group" transform="translate(0.000000, 4.730899)">
                <path d="M36.1210294,73.9772432 C31.3114895,74.6781171 16.5068157,82.3351648 4.39390056,83.7369127 C8.94613987,71.4365753 9.65866429,56.2801765 7.46171401,42.9110063 C5.9970805,33.93982 -0.494808621,22.8484901 1.06878662,13.7546508 C1.46463352,11.4592888 3.46366035,7.34165441 7.5012987,6.51812754 L36.2397834,0.560699144" id="Shape" fill="#C99B5B"></path>
                <g id="Shape" opacity="0.2" transform="translate(0.989618, 18.397940)" fill="#FFFFFF">
                    <g id="Group">
                        <path d="M7.77839153,6.3954746 C8.49091594,11.9323786 15.6557448,16.7158432 18.3870883,30.1551008 C21.0788472,43.3840962 19.1787822,54.2651639 17.5558099,61.7820368 C14.3296577,63.2713939 3.22615221,65.3214502 3.22615221,65.3214502 C6.11583456,57.4015748 8.17423843,42.1575669 7.34295995,31.5042831 C6.51168146,20.8509994 -0.0791693794,6.95617375 0.178131104,0.0175218482 C1.76151869,2.76845202 3.70116848,6.09760318 7.77839153,6.3954746 Z" id="Shape"></path>
                    </g>
                </g>
                <g id="Shape" opacity="0.2" transform="translate(8.708632, 0.525655)" fill="#FFFFFF">
                    <g id="Group">
                        <path d="M6.31375801,10.7233711 L15.4776137,8.83101151 L27.3530206,5.97495024 L27.4321899,0.0525655447 L0.0593770345,5.71212252 C0.0593770345,5.71212252 4.92829387,6.72838972 6.31375801,10.7233711 Z" id="Shape"></path>
                    </g>
                </g>
                <g id="Shape" opacity="0.1" transform="translate(14.052565, 14.017478)" fill="#000000">
                    <g id="Group">
                        <polygon id="Shape" points="5.70019532 4.27533097 22.0090874 0.140174785 22.0090874 3.43428225 0.178131104 9.75966947 0.178131104 8.86605521 2.92926704 4.95868305"></polygon>
                    </g>
                </g>
                <g id="Shape" opacity="0.1" transform="translate(0.989618, 6.307866)" fill="#000000">
                    <g id="Group">
                        <path d="M15.5567831,9.77719131 C15.4380289,12.5281215 14.3098653,17.3291079 9.2232327,18.5731592 C4.13660007,19.8172104 0.870863174,14.0174785 0.376054553,11.2665484 C-0.118754069,8.51561824 -0.0791693794,1.52440079 5.42310249,0.140174785 C10.2524346,0.262827723 14.7255046,2.99623605 15.5567831,9.77719131 Z" id="Shape"></path>
                    </g>
                </g>
                <g id="Shape" opacity="0.5" transform="translate(6.531474, 12.966167)" fill="#000000">
                    <g id="Group">
                        <path d="M4.57203166,2.89110496 C4.53244697,3.69710998 4.21576946,5.09885783 2.71155124,5.46681665 C1.22712538,5.83477546 0.277092828,4.13515618 0.118754069,3.32915116 C-0.0197923448,2.52314614 -0.0197923448,0.473089903 1.60317994,0.0700873929 C3.02822876,0.10513109 4.33452353,0.89361426 4.57203166,2.89110496 Z" id="Shape"></path>
                    </g>
                </g>
                <g id="Shape" fill="#000000">
                    <path d="M9.38157146,25.4417236 C9.38157146,25.4417236 9.38157146,25.4417236 9.38157146,25.4417236 C5.02725559,25.4417236 1.16774835,21.6920481 0.376054553,16.7158432 C-0.475016277,11.3716795 2.61258952,6.55317124 7.22420587,5.9924721 C7.52109105,5.9574284 7.83776857,5.93990655 8.13465373,5.93990655 C12.4889697,5.93990655 16.3484769,9.68958207 17.1401706,14.665787 C17.9912414,20.0099507 14.9036356,24.8284589 10.2920193,25.389158 C9.99513418,25.4242018 9.67845664,25.4417236 9.38157146,25.4417236 Z M8.15444608,6.95617375 C7.8971456,6.95617375 7.65963746,6.97369559 7.40233698,7.00873929 C3.40428332,7.49935105 0.771901449,11.7922038 1.52401055,16.5931903 C2.23653497,21.0612616 5.6012336,24.4254564 9.38157146,24.4254564 C9.38157146,24.4254564 9.38157146,24.4254564 9.38157146,24.4254564 C9.63887195,24.4254564 9.87638013,24.4079346 10.1336806,24.3728909 C14.1317342,23.8822791 16.7641161,19.5894263 16.012007,14.7884399 C15.2994826,10.3378905 11.9149916,6.95617375 8.15444608,6.95617375 Z"></path>
                    <path d="M5.24497139,11.0738081 C5.10642498,11.0738081 4.94808621,11.0212425 4.84912449,10.9336333 C4.63140869,10.7408929 4.61161635,10.4079778 4.84912449,10.2152376 C5.66061063,9.47931989 6.65022787,9.04127368 7.71901449,8.9010989 C8.6888394,8.77844596 9.67845664,8.9361426 10.5889045,9.33914511 C10.8659974,9.46179804 10.9847514,9.77719131 10.846205,10.0224972 C10.7076586,10.2678031 10.3513963,10.3729342 10.0743036,10.2502812 C9.34198677,9.93488796 8.60967002,9.81223501 7.85756091,9.91736614 C7.04607477,10.0224972 6.29396566,10.3729342 5.66061063,10.9336333 C5.54185656,11.0212425 5.3835178,11.0738081 5.24497139,11.0738081 Z"></path>
                    <path d="M9.20344036,22.5330969 C7.46171401,22.5330969 5.73978001,21.6745262 4.51265463,20.1676473 C4.33452353,19.9398633 4.37410821,19.62447 4.63140869,19.4492515 C4.88870918,19.2915549 5.24497139,19.3265986 5.44289483,19.5543826 C6.59085084,20.9386086 8.17423843,21.6570044 9.69824898,21.4817859 C11.4597677,21.2715237 12.9046088,19.8872977 13.4390021,17.8722852 C13.5181715,17.5919356 13.8150567,17.434239 14.1317342,17.4868046 C14.4484117,17.5568919 14.6265429,17.8197196 14.5671659,18.1000692 C13.9140184,20.5180843 12.112915,22.2001817 9.85658774,22.4805313 C9.6190796,22.5330969 9.4013638,22.5330969 9.20344036,22.5330969 Z"></path>
                    <path d="M8.94613987,18.9235961 C7.46171401,18.9235961 6.15541925,17.6795449 5.89811876,16.050013 C5.62102594,14.2803063 6.68981256,12.6682963 8.27320015,12.4755559 C8.37216188,12.4580341 8.49091594,12.4580341 8.58987766,12.4580341 C10.0743036,12.4580341 11.3805983,13.7020853 11.6378988,15.3316172 C11.9149916,17.1013239 10.846205,18.7133339 9.26281739,18.9060742 C9.16385567,18.9235961 9.06489395,18.9235961 8.94613987,18.9235961 Z M8.58987766,13.4743012 C8.53050063,13.4743012 8.4711236,13.4743012 8.43153891,13.4918232 C7.5012987,13.614476 6.86794367,14.7183525 7.04607477,15.9098382 C7.22420587,17.0312364 8.05548435,17.9073289 8.96593222,17.9073289 C9.02530925,17.9073289 9.08468629,17.9073289 9.12427098,17.8898071 C10.0545112,17.7671541 10.6878662,16.6632777 10.5097351,15.471792 C10.3118117,14.3503937 9.48053318,13.4743012 8.58987766,13.4743012 Z"></path>
                    <path d="M7.3231676,7.00873929 C7.06586711,7.00873929 6.82835897,6.85104265 6.76898194,6.60573678 C6.68981256,6.32538721 6.88773601,6.06255949 7.20441353,5.9924721 L35.9428982,0.0350436965 C36.2595758,-0.0350436965 36.5564609,0.140174785 36.6356303,0.420524357 C36.7147997,0.700873929 36.5168763,0.963701653 36.2001988,1.03378905 L7.44192167,7.00873929 C7.40233698,7.00873929 7.36275229,7.00873929 7.3231676,7.00873929 Z"></path>
                    <path d="M10.7670356,25.3015489 C10.5295275,25.3015489 10.2920193,25.1613741 10.21285,24.9511119 C10.1138882,24.6882841 10.272227,24.3904127 10.5889045,24.3028035 L35.7647672,16.9611491 C36.0616524,16.8735398 36.3981222,17.0137146 36.4970839,17.2940642 C36.5960457,17.5568919 36.4377069,17.8547633 36.1210294,17.9423726 L10.9451667,25.2665052 C10.8857896,25.284027 10.8264126,25.3015489 10.7670356,25.3015489 Z"></path>
                    <path d="M16.3286845,19.7471229 C16.0911764,19.7471229 15.8536682,19.6069481 15.7744988,19.3791642 C15.6755371,19.1163365 15.8536682,18.818465 16.1505534,18.7483776 L20.603831,17.5393701 C20.9007162,17.4517608 21.237186,17.6094575 21.3163554,17.8722852 C21.4153171,18.1351129 21.237186,18.4329844 20.9403008,18.5030717 L16.4870233,19.7120793 C16.4276463,19.7296011 16.3682692,19.7471229 16.3286845,19.7471229 Z"></path>
                    <path d="M15.5369907,12.0199879 C15.2796902,12.0199879 15.0619744,11.8798131 14.982805,11.6520291 C14.9036356,11.3892013 15.0817668,11.0913299 15.3786519,11.0212425 L28.4415995,7.77970061 C28.7582771,7.70961322 29.0749546,7.86730986 29.154124,8.13013758 C29.2332934,8.3929653 29.0551622,8.69083672 28.7582771,8.76092412 L15.6953295,12.0024661 C15.6557448,12.0199879 15.5963677,12.0199879 15.5369907,12.0199879 Z"></path>
                    <path d="M4.21576946,84.2275244 C4.03763835,84.2275244 3.87929959,84.1574371 3.78033787,84.0347841 C3.6615838,83.8946094 3.62199911,83.7193908 3.68137614,83.5441723 C7.95652263,72.0147962 9.06489395,57.2088345 6.72939725,42.94605 C6.19500394,39.6519426 5.00746325,36.1300511 3.76054553,32.3978974 C1.64276463,26.0725101 -0.554185656,19.519339 0.316677518,13.6845635 C0.356262207,13.4042139 0.653147381,13.2114735 0.969824898,13.2465173 C1.28650242,13.281561 1.50421821,13.5443887 1.46463352,13.8247383 C0.613562691,19.4492515 2.77092828,25.8972917 4.84912449,32.1175478 C6.11583456,35.8847452 7.30337526,39.4592022 7.85756091,42.8058753 C10.1732652,56.9109631 9.14406333,71.5241844 5.04704793,83.0886043 C12.3504232,82.0723371 20.6830004,78.848317 26.8384196,76.4828676 C30.8364733,74.9409448 33.9834562,73.7319374 35.8439366,73.4515877 C36.160614,73.3990222 36.4574993,73.5917625 36.5168763,73.8721122 C36.5762533,74.1524618 36.3585375,74.4152895 36.04186,74.467855 C34.319926,74.7131609 31.0739814,75.9747339 27.2936435,77.4290474 C20.8215468,79.9171498 11.9743686,83.3339102 4.29493884,84.2275244 C4.25535415,84.2275244 4.2355618,84.2275244 4.21576946,84.2275244 Z"></path>
                </g>
                <path d="M16.8432855,40.8434282 C16.6057773,40.8434282 16.3682692,40.7032534 16.2890998,40.4929913 C15.5765754,38.5305442 13.9140184,35.7445704 12.3108385,33.0637276 C10.3711887,29.8046639 8.53050063,26.7383404 8.2929925,25.0036775 C8.25340781,24.7233279 8.4711236,24.4605002 8.78780112,24.4254564 C9.10447864,24.3904127 9.4013638,24.5831531 9.44094849,24.8635027 C9.65866429,26.4054253 11.5389371,29.5418361 13.3400405,32.5731159 C14.9630128,35.3065242 16.645362,38.1275417 17.3974711,40.1775979 C17.4964329,40.4404257 17.3183017,40.7382972 17.0214166,40.8259064 C16.9620396,40.8434282 16.9026625,40.8434282 16.8432855,40.8434282 Z" id="Shape" fill="#000000"></path>
                <path d="M18.6245965,80.3376742 C18.5652195,80.3376742 18.5256347,80.3376742 18.4662577,80.3201523 C18.1495802,80.2500649 17.9714492,79.9697153 18.0704108,79.6893657 C19.0402358,76.5529549 20.08923,66.3727611 20.1288147,64.2876612 C20.1288147,64.0073115 20.3861152,63.7795276 20.7027927,63.7795276 C20.7027927,63.7795276 20.7027927,63.7795276 20.7027927,63.7795276 C21.0194702,63.7795276 21.2767707,64.0248335 21.2767707,64.305183 C21.237186,66.4778922 20.1881918,76.6931297 19.1787822,79.9697153 C19.0996128,80.1974994 18.881897,80.3376742 18.6245965,80.3376742 Z" id="Shape" fill="#000000"></path>
                <path d="M29.906233,76.3952583 C29.8666484,76.3952583 29.846856,76.3952583 29.8072714,76.3952583 C29.4905939,76.3426928 29.2728781,76.0798651 29.3322551,75.8170373 C29.6291403,74.2400709 29.9854024,70.0348274 29.9260254,69.3164316 C29.906233,69.036082 30.1437412,68.7907761 30.4604187,68.7732543 C30.7770962,68.7557324 31.054189,68.9659947 31.0739814,69.2463442 C31.1531508,70.1049148 30.7573039,74.3802457 30.4802111,75.9747339 C30.4208341,76.202518 30.1833259,76.3952583 29.906233,76.3952583 Z" id="Shape" fill="#000000"></path>
                <path d="M20.0100606,29.9974042 C19.7923448,29.9974042 19.5944214,29.892273 19.4954597,29.6995328 C19.2183669,29.208921 18.7037659,28.3503504 18.1495802,27.4392143 C17.1995477,25.9148135 16.130761,24.1801506 15.7942912,23.3391018 C15.6953295,23.0762742 15.8338759,22.7784027 16.1505534,22.6907935 C16.4474385,22.6031842 16.7839084,22.7258372 16.8828702,23.0061867 C17.1995477,23.7771481 18.2881267,25.5468548 19.1589898,26.9661244 C19.7329678,27.8772606 20.2673611,28.7533529 20.5444539,29.2790084 C20.6830004,29.5418361 20.5642463,29.8397075 20.2673611,29.9623605 C20.1881918,29.9798823 20.08923,29.9974042 20.0100606,29.9974042 Z" id="Shape" fill="#000000"></path>
                <path d="M32.4198609,30.7508437 C32.1823527,30.7508437 31.9448446,30.6106689 31.8656752,30.4004067 C30.7770962,27.3340833 27.9269986,22.5330969 26.2050646,20.4655187 C26.0071412,20.2377347 26.0665182,19.9223415 26.3238187,19.7471229 C26.5811191,19.5719045 26.9373814,19.62447 27.1353048,19.852254 C28.9364082,22.0249632 31.8260906,26.8785152 32.9740466,30.0850134 C33.0730082,30.3478412 32.8948772,30.6457126 32.597992,30.7333217 C32.5386149,30.7508437 32.4792379,30.7508437 32.4198609,30.7508437 Z" id="Shape" fill="#000000"></path>
            </g>
            <g id="Group" transform="translate(36.022067, 3.153932)">
                <path d="M36.2991605,48.1325171 C36.2001988,44.4704508 34.5376417,38.442935 33.5084399,32.8359436 C32.4792379,27.2289522 30.5000035,20.6056935 29.8864408,17.4517608 C29.2728781,14.2978281 21.7122023,9.09383923 14.3692423,7.76217877 C14.3692423,7.76217877 10.2326423,2.33040581 9.71804133,1.73466298 C9.20344036,1.13892013 6.19500394,0.473089903 2.77092828,0.473089903 C2.09798856,0.473089903 1.34587945,0.473089903 0.534393311,0.473089903 L0.534393311,78.9008826 L1.62297228,78.97097 L1.62297228,80.4953708 C9.16385567,80.4953708 15.3984443,79.6718439 21.2965631,77.7444406 L20.9798856,34.5881284 C23.1570435,41.7195207 24.4039612,47.6419053 25.1164856,50.6907069 C25.8488024,53.7570304 27.2936435,74.4328113 27.6103211,80.8633296 L38.2783949,80.4603271 C37.8627557,69.036082 36.3981222,51.8121052 36.2991605,48.1325171 Z" id="Shape" fill="#C99B5B"></path>
                <path d="M0.534393311,6.04503764 L0.534393311,32.32781 C0.573978001,32.3453318 0.613562691,32.3453318 0.613562691,32.3453318 C0.613562691,32.3453318 1.26671007,32.1350697 2.61258952,28.2802631 C3.95846897,24.4254564 8.27320015,10.5306308 8.6888394,8.14765943 C9.16385567,5.23903262 7.44192167,6.25529982 0.534393311,6.04503764 Z" id="Shape" fill="#4F372A"></path>
                <path d="M9.16385567,3.43428225 C9.2232327,1.59448818 9.55970257,0.946179804 7.73880684,0.806005019 C6.82835897,0.735917625 3.76054553,0.59574284 0.534393311,0.578220991 L0.534393311,5.93990655 C0.69273207,5.93990655 0.831278484,5.93990655 0.969824898,5.93990655 C2.49383546,5.9574284 6.84815133,6.69334603 8.76800877,5.93990655 C9.73783367,5.57194774 9.16385567,4.20524357 9.16385567,3.43428225 Z" id="Shape" fill="#916044"></path>
                <path d="M9.18364802,1.15644198 C11.5587294,3.69710998 17.2589247,12.4755559 18.1891649,14.2978281 C15.0817668,14.2978281 10.7274509,14.2978281 10.7274509,14.2978281 L13.6765103,17.662023 L1.20733304,32.3453318 C1.20733304,32.3453318 6.78877428,16.6457559 7.71901449,12.9836896 C8.64925471,9.32162326 9.50032554,4.10011248 9.18364802,1.15644198 Z" id="Shape" fill="#916044"></path>
                <polygon id="Shape" fill="#916044" points="37.7440016 74.9935105 27.1946818 75.3789911 27.4519823 80.8633296 38.1200562 80.4428053"></polygon>
                <polygon id="Shape" fill="#916044" points="12.7462701 60.5730293 18.4464654 72.3477113 16.6651544 74.5729861 10.1138882 62.0098209"></polygon>
                <path d="M1.22712538,32.7308125 C1.16774835,32.7308125 1.08857896,32.7132907 1.02920193,32.6957688 C0.831278484,32.6081595 0.752109105,32.4154193 0.811486139,32.2226789 C0.870863174,32.0649822 6.39292738,16.5055811 7.30337526,12.8960803 C8.21382312,9.32162326 9.0451016,4.11763434 8.74821643,1.19148568 C8.72842408,1.0162672 8.84717815,0.858570563 9.02530925,0.78848317 C9.20344036,0.718395778 9.42115615,0.770961322 9.53991023,0.89361426 C11.9545763,3.46932595 17.6547716,12.2477719 18.6048041,14.1401315 C18.6641812,14.2627844 18.6641812,14.4029592 18.5652195,14.5080903 C18.4860501,14.6132215 18.3475037,14.6833088 18.1891649,14.6833088 L11.6378988,14.6833088 L14.0327725,17.4167171 C14.1515266,17.5568919 14.1515266,17.7496323 14.0327725,17.8898071 L1.56359525,32.5731159 C1.50421821,32.678247 1.36567179,32.7308125 1.22712538,32.7308125 Z M9.69824898,2.4004932 C9.71804133,5.4843385 8.98572456,9.89984423 8.17423843,13.0712987 C7.44192167,15.92736 3.99805366,25.8447262 2.43445842,30.2952756 L13.142117,17.6795449 L10.3909811,14.543134 C10.2920193,14.4204811 10.272227,14.2627844 10.3513963,14.1226097 C10.4305657,13.9824349 10.5889045,13.8948256 10.7472433,13.8948256 L17.4964329,13.8948256 C16.1505534,11.5994636 12.0931227,5.37920741 9.69824898,2.4004932 Z" id="Shape" fill="#000000"></path>
                <path d="M27.6103211,81.3539413 C27.4717747,81.3539413 27.3332283,81.3013758 27.2342665,81.2137665 C27.1155124,81.1261574 27.0561354,81.0035044 27.0561354,80.8633296 C26.7196656,74.0998961 25.2748244,53.7219866 24.5820923,50.7783162 C24.4633383,50.2526607 24.3247918,49.6393961 24.1466607,48.9385221 C23.5528903,46.3803323 22.7414042,42.8233971 21.5934483,38.6531972 L21.870541,77.7444406 C21.870541,77.9547027 21.7319947,78.1474431 21.4944865,78.2175305 C15.7151218,80.1098901 9.4013638,81.0035044 1.62297228,81.0035044 C1.30629476,81.0035044 1.04899427,80.7757203 1.04899427,80.4953708 L1.04899427,78.97097 C1.04899427,78.6906204 1.30629476,78.4628364 1.62297228,78.4628364 C1.93964979,78.4628364 2.19695028,78.6906204 2.19695028,78.97097 L2.19695028,79.9872372 C9.4013638,79.9521935 15.3192749,79.1111448 20.7225851,77.3940036 L20.4059075,34.5881284 C20.4059075,34.3428225 20.6236233,34.1150385 20.9007162,34.0799948 C21.177809,34.0449511 21.4549019,34.2026478 21.5340712,34.4479537 C23.3351746,40.3703383 24.4831305,45.3991088 25.255032,48.7457818 C25.4133708,49.4291339 25.5519172,50.0599204 25.6706713,50.5855758 C26.4029881,53.7044648 27.8082445,73.7494592 28.1447144,80.3376742 L37.6846246,79.9697153 C37.4273241,73.0310634 36.7939691,64.0248335 36.3189528,57.4015748 C36.0220676,53.0386346 35.7647672,49.5868305 35.7251825,48.150039 C35.6658054,45.7670676 34.9136964,42.3152635 34.1220026,38.6531972 C33.7063633,36.7783595 33.2907241,34.8334342 32.9344618,32.9235528 C32.3208991,29.6119235 31.4104513,26.0024228 30.5989651,22.8309683 C30.0447795,20.6933027 29.5697633,18.8359869 29.3124627,17.5393701 C28.7384847,14.5781777 21.3163554,9.53188544 14.230696,8.27031236 C13.9140184,8.21774682 13.716095,7.9549191 13.7952644,7.67456953 C13.8546414,7.39421995 14.1515266,7.21900147 14.4682041,7.28908886 C17.9318644,7.9198754 21.7715794,9.46179804 24.9779392,11.5293761 C28.065545,13.5268669 30.1239489,15.7170979 30.4406263,17.3816734 C30.6979269,18.6607683 31.1531508,20.5005625 31.7073365,22.620706 C32.5188226,25.8096825 33.4490629,29.436705 34.0626255,32.7658562 C34.4188877,34.6582158 34.834527,36.5856191 35.2303738,38.4604569 C36.0220676,42.1575669 36.7939691,45.6444146 36.8533462,48.1149952 C36.8929308,49.5167431 37.130439,52.9685472 37.4471165,57.3139656 C37.9221328,64.1124426 38.5752801,73.4165441 38.8325806,80.4077615 C38.852373,80.6881111 38.5950725,80.9158951 38.2981873,80.933417 L27.6301134,81.3364195 C27.6301134,81.3539413 27.6103211,81.3539413 27.6103211,81.3539413 Z" id="Shape" fill="#000000"></path>
                <path d="M9.18364802,1.54192265 C9.14406333,1.54192265 9.10447864,1.54192265 9.06489395,1.52440079 C7.58046808,1.13892013 4.2355618,0.89361426 0.534393311,0.876092412 C0.296885173,0.876092412 0.0989617241,0.700873929 0.0989617241,0.49061175 C0.0989617241,0.280349572 0.296885173,0.10513109 0.534393311,0.10513109 C0.534393311,0.10513109 0.534393311,0.10513109 0.534393311,0.10513109 C3.54282973,0.10513109 7.42212932,0.29787142 9.30240208,0.78848317 C9.53991023,0.841048715 9.67845664,1.06883274 9.59928726,1.27909492 C9.55970257,1.43679156 9.38157146,1.54192265 9.18364802,1.54192265 Z" id="Shape" fill="#000000"></path>
                <path d="M8.82738581,6.71086787 C8.80759346,6.71086787 8.78780112,6.71086787 8.74821643,6.71086787 C6.98669774,6.44804015 3.68137614,6.29034351 0.534393311,6.29034351 C0.534393311,6.29034351 0.534393311,6.29034351 0.534393311,6.29034351 C0.296885173,6.29034351 0.0989617241,6.11512504 0.0989617241,5.90486285 C0.0989617241,5.69460068 0.296885173,5.51938219 0.534393311,5.51938219 C3.72096083,5.50186035 7.08565946,5.69460068 8.88676284,5.9574284 C9.12427098,5.9924721 9.28260974,6.20273427 9.24302505,6.41299645 C9.2232327,6.57069309 9.02530925,6.71086787 8.82738581,6.71086787 Z" id="Shape" fill="#000000"></path>
                <path d="M16.6651544,74.9584667 C16.645362,74.9584667 16.645362,74.9584667 16.6255697,74.9584667 C16.4672309,74.9409448 16.3286845,74.8533357 16.2693075,74.7306827 L9.71804133,62.1675175 C9.6190796,61.9922991 9.69824898,61.764515 9.89617241,61.6769057 L12.5285543,60.2576361 C12.6473083,60.2050705 12.7660624,60.1875487 12.9046088,60.2225924 C13.023363,60.2576361 13.1223246,60.3452453 13.1817017,60.4503764 L18.881897,72.2250585 C18.941274,72.3477113 18.9214816,72.4878861 18.8423123,72.610539 L17.0610012,74.8358138 C16.9422472,74.9059012 16.8037008,74.9584667 16.6651544,74.9584667 Z M10.6878662,62.1499957 L16.7443238,73.7845029 L17.9318644,72.2951458 L12.5285543,61.1512504 L10.6878662,62.1499957 Z" id="Shape" fill="#000000"></path>
                <path d="M27.2936435,75.7644717 C27.0561354,75.7644717 26.858212,75.6067751 26.858212,75.3789911 C26.8384196,75.1687289 27.036343,74.9759886 27.2738512,74.9759886 L38.0013022,74.5905079 C38.2388103,74.5905079 38.4565261,74.7482046 38.4565261,74.9584667 C38.4763185,75.1687289 38.2783949,75.3614692 38.0408868,75.3614692 L27.2936435,75.7644717 C27.2936435,75.7644717 27.2936435,75.7644717 27.2936435,75.7644717 Z" id="Shape" fill="#000000"></path>
                <g id="Shape" opacity="0.2" transform="translate(8.708632, 1.401748)" fill="#FFFFFF">
                    <g id="Group">
                        <path d="M0.0395846897,6.37795276 C4.65120105,10.3378905 7.34295995,11.7396383 9.4013638,12.7383837 C11.4399753,13.7196071 15.6359525,12.9836896 17.3974711,20.2377347 C19.1589898,27.4917799 22.9195354,40.1951199 23.2560052,45.9773298 C23.5924751,51.7595397 24.9185622,76.5879986 25.1758626,79.2162759 C26.6009115,79.1637103 29.4708015,79.0585792 29.4708015,79.0585792 L28.6593153,64.305183 C28.6593153,64.305183 27.5113593,45.7495457 27.2738512,44.2601886 C27.036343,42.7533097 21.0986396,16.0850566 21.0986396,16.0850566 C21.0986396,16.0850566 19.2975362,13.1238643 18.1297879,12.2127282 C16.9620396,11.3015922 10.1138882,6.9036082 5.02725559,6.00999394 C4.2355618,4.15267803 0.712524415,0.122652938 0.712524415,0.122652938 L0.0395846897,6.37795276 Z" id="Shape"></path>
                    </g>
                </g>
                <g id="Shape" opacity="0.1" transform="translate(15.042183, 34.518041)" fill="#000000">
                    <g id="Group">
                        <path d="M5.85853408,0.0700873929 C3.34490629,4.45054945 0.197923448,27.4917799 0.178131104,44.9610625 C3.10739814,43.7520551 6.1752116,43.2439214 6.1752116,43.2439214 L5.85853408,0.0700873929 Z" id="Shape"></path>
                    </g>
                </g>
            </g>
            <path d="M36.5564609,88.8007269 C36.2397834,88.8007269 35.982483,88.5729428 35.982483,88.2925932 L35.982483,0.578220991 C35.982483,0.29787142 36.2397834,0.0700873929 36.5564609,0.0700873929 C36.8731384,0.0700873929 37.130439,0.29787142 37.130439,0.578220991 L37.130439,88.2925932 C37.130439,88.5729428 36.8731384,88.8007269 36.5564609,88.8007269 Z" id="Shape" fill="#CE2029"></path>
        </g>
    </g>
</svg>