<?xml version="1.0" encoding="UTF-8"?>
<svg width="90px" height="90px" viewBox="0 0 90 90" version="1.1" xmlns="http://www.w3.org/2000/svg" xmlns:xlink="http://www.w3.org/1999/xlink">
    <!-- Generator: Sketch 51.2 (57519) - http://www.bohemiancoding.com/sketch -->
    <title>Slice 1</title>
    <desc>Created with Sketch.</desc>
    <defs></defs>
    <g id="Page-1" stroke="none" stroke-width="1" fill="none" fill-rule="evenodd">
        <g id="Перешить-молнию---куртка" fill-rule="nonzero">
            <path d="M28.7830189,8.57319588 C20.1226415,10.0391753 11.2287736,15.7917526 10.5070755,19.2804124 C9.78537736,22.7690722 7.4504717,30.0989691 6.24056604,36.2969072 C5.03066038,42.4948454 3.07783019,49.1381443 2.9504717,53.2020619 C2.82311321,57.2659794 1.125,76.3051546 0.636792453,88.9237113 L13.1816038,89.3690722 C13.5424528,82.2618557 15.2617925,59.4 16.1108491,56.0041237 C16.9599057,52.6268041 18.4245283,46.0948454 20.9929245,38.1896907 L20.6320755,85.9175258 C27.5731132,88.0515464 35.1933962,88.9608247 44.0660377,88.9608247 L44.1509434,87.142268 L46.2523585,87.2907216 L46.2523585,88.9608247 C55.125,88.9608247 62.4693396,88.0515464 69.4103774,85.9175258 L69.0283019,38.2268041 C71.5966981,46.1134021 73.0400943,52.6453608 73.9103774,56.0412371 C74.7806604,59.4371134 76.4787736,82.2989691 76.8396226,89.4061856 L89.384434,88.9608247 C88.8962264,76.342268 87.1981132,57.2845361 87.0707547,53.2391753 C86.9433962,49.1752577 84.990566,42.5319588 83.7806604,36.3340206 C82.5707547,30.1360825 80.2570755,22.8061856 79.5141509,19.3175258 C78.7712264,15.828866 69.8773585,10.0762887 61.2382075,8.61030928 C61.2382075,8.61030928 56.3773585,2.59793814 55.7617925,1.94845361 C55.1462264,1.29896907 51.6226415,0.556701031 47.5896226,0.556701031 C43.5566038,0.556701031 36.9127358,0.35257732 34.2382075,1.98556701 C31.5424528,3.5814433 28.7830189,8.57319588 28.7830189,8.57319588 Z" id="Shape" fill="#CC9E5C"></path>
            <path d="M44.1933962,6.64329897 C44.1933962,6.60618557 44.1933962,6.55051546 44.1933962,6.51340206 C34.9811321,6.90309278 35.0448113,6.34639175 35.4268868,9 C35.8089623,11.6536082 40.9882075,27 42.5801887,31.2680412 C44.1509434,35.5360825 44.9363208,35.7587629 44.9363208,35.7587629 C44.9363208,35.7587629 44.9363208,35.7402062 44.9363208,35.7216495 C45.0212264,35.7587629 45.0636792,35.7587629 45.0636792,35.7587629 C45.0636792,35.7587629 45.8278302,35.5360825 47.4198113,31.2680412 C48.990566,27 54.0849057,11.6350515 54.5731132,9 C55.1462264,5.67835052 52.9599057,6.99587629 44.1933962,6.64329897 Z" id="Shape" fill="#4F372A"></path>
            <path d="M35.3632075,1.15051546 C34.2382075,1.94845361 34.2169811,6.95876289 35.4056604,7.1628866 C36.5943396,7.36701031 42.8136792,6.51340206 45.4882075,6.55051546 C47.2712264,6.56907216 52.4080189,7.38556701 54.6792453,6.55051546 C55.8042453,6.14226804 55.125,4.63917526 55.125,3.78556701 C55.1886792,1.7628866 55.5919811,1.02061856 53.4481132,0.890721649 C51.3042453,0.760824742 38.759434,0.278350515 35.3632075,1.15051546 Z" id="Shape" fill="#936044"></path>
            <path d="M34.875,1.26185567 C32.0731132,4.08247423 25.365566,13.7690722 24.2830189,15.7917526 C27.9339623,15.7917526 33.0495283,15.7917526 33.0495283,15.7917526 L29.5683962,19.5030928 L44.1721698,35.5546392 C44.1721698,35.5546392 37.6556604,18.371134 36.5731132,14.3072165 C35.490566,10.2804124 34.5141509,4.52783505 34.875,1.26185567 Z" id="Shape" fill="#936044"></path>
            <g id="Group" opacity="0.2" transform="translate(0.424528, 1.484536)" fill="#FFFFFF">
                <path d="M34.8537736,7.08865979 C29.4198113,11.4680412 26.2358491,13.0268041 23.8372642,14.1216495 C21.4386792,15.2164948 16.4929245,14.4 14.4339623,22.4164948 C12.3537736,30.4329897 7.91745283,44.4804124 7.53537736,50.8639175 C7.15330189,57.2474227 5.56132075,84.7113402 5.26415094,87.6247423 C3.58726415,87.5690722 0.191037736,87.4391753 0.191037736,87.4391753 L1.14622642,71.1092784 C1.14622642,71.1092784 2.50471698,50.6041237 2.78066038,48.9340206 C3.05660377,47.2824742 10.0613208,17.7773196 10.0613208,17.7773196 C10.0613208,17.7773196 12.1839623,14.4927835 13.5636792,13.4907216 C14.9433962,12.4886598 23.009434,7.60824742 28.9740566,6.62474227 C29.9080189,4.56494845 34.0683962,0.129896907 34.0683962,0.129896907 L34.8537736,7.08865979 Z" id="Shape"></path>
            </g>
            <path d="M55.1462264,1.26185567 C57.9481132,4.08247423 64.6556604,13.7690722 65.7382075,15.7917526 C62.0872642,15.7917526 56.9716981,15.7917526 56.9716981,15.7917526 L60.4528302,19.5030928 L45.7853774,35.7402062 C45.7853774,35.7402062 52.3443396,18.3896907 53.4481132,14.3257732 C54.5306604,10.2804124 55.5070755,4.52783505 55.1462264,1.26185567 Z" id="Shape" fill="#936044"></path>
            <polygon id="Shape" fill="#936044" points="1.06132075 82.9113402 13.4787736 83.3381443 13.1816038 89.3876289 0.636792453 88.942268"></polygon>
            <polygon id="Shape" fill="#936044" points="88.7900943 82.9113402 76.3514151 83.3381443 76.6485849 89.3876289 89.2146226 88.942268"></polygon>
            <g id="Group" transform="translate(23.773585, 66.804124)" fill="#936044">
                <polygon id="Shape" points="35.5542453 0.167010309 42.2830189 13.1752577 40.1816038 15.6247423 32.4764151 1.7443299"></polygon>
                <polygon id="Shape" points="6.91981132 0.167010309 0.191037736 13.1752577 2.29245283 15.6247423 9.99764151 1.7443299"></polygon>
            </g>
            <path d="M44.1933962,36.0185567 C44.0448113,36.0185567 43.8962264,35.9628866 43.7900943,35.8515464 L29.1863208,19.8 C29.0377358,19.6329897 29.0377358,19.4103093 29.1863208,19.243299 L31.9882075,16.2556701 L24.2830189,16.2556701 C24.1132075,16.2556701 23.9433962,16.1814433 23.8584906,16.0515464 C23.7735849,15.9216495 23.7523585,15.7546392 23.8372642,15.6247423 C24.9622642,13.5463918 31.6698113,3.84123711 34.5141509,0.983505155 C34.6627358,0.835051546 34.8962264,0.797938144 35.1084906,0.872164948 C35.3207547,0.946391753 35.4268868,1.13195876 35.4056604,1.31752577 C35.0448113,4.54639175 36.0212264,10.2804124 37.1037736,14.2515464 C38.1863208,18.2412371 44.6391509,35.2948454 44.7028302,35.4618557 C44.7877358,35.6659794 44.6816038,35.8886598 44.4693396,36 C44.3419811,36 44.2570755,36.0185567 44.1933962,36.0185567 Z M30.2264151,19.5216495 L42.8136792,33.3463918 C40.9882075,28.4845361 36.9339623,17.5917526 36.0849057,14.4371134 C35.129717,10.9298969 34.259434,6.03092784 34.2806604,2.61649485 C31.4787736,5.90103093 26.6816038,12.785567 25.0896226,15.3463918 L33.0283019,15.3463918 C33.2193396,15.3463918 33.4103774,15.4391753 33.495283,15.6061856 C33.5801887,15.7546392 33.5589623,15.9402062 33.4316038,16.0701031 L30.2264151,19.5216495 Z" id="Shape" fill="#000000"></path>
            <path d="M13.1816038,89.8329897 C13.1816038,89.8329897 13.1603774,89.8329897 13.1603774,89.8329897 L0.615566038,89.3876289 C0.339622642,89.3690722 0.127358491,89.1649485 0.127358491,88.9237113 C0.424528302,81.185567 1.18867925,70.8865979 1.76179245,63.3896907 C2.12264151,58.5649485 2.39858491,54.7608247 2.44103774,53.2020619 C2.5259434,50.4742268 3.41745283,46.614433 4.35141509,42.5319588 C4.83962264,40.4536082 5.32783019,38.3195876 5.73113208,36.2226804 C6.45283019,32.5298969 7.53537736,28.5402062 8.51179245,24.9958763 C9.14858491,22.6391753 9.7004717,20.5979381 9.99764151,19.1876289 C10.7617925,15.5690722 19.6981132,9.64948454 28.6768868,8.12783505 C28.9528302,8.07216495 29.2287736,8.23917526 29.2712264,8.48041237 C29.3349057,8.72164948 29.1438679,8.9628866 28.8679245,9 C20.4834906,10.428866 11.6957547,16.0329897 10.995283,19.3546392 C10.6981132,20.7835052 10.1462264,22.8247423 9.48820755,25.2 C8.53301887,28.7072165 7.4504717,32.6969072 6.72877358,36.371134 C6.3254717,38.4680412 5.81603774,40.6206186 5.3490566,42.6989691 C4.41509434,46.7443299 3.54481132,50.5670103 3.45990566,53.2020619 C3.41745283,54.7793814 3.12028302,58.5835052 2.75943396,63.4268041 C2.20754717,70.7938144 1.46462264,80.814433 1.14622642,88.4969072 L12.6933962,88.9051546 C13.0754717,81.742268 14.7311321,59.3814433 15.6014151,55.9113402 C15.75,55.3175258 15.9198113,54.6494845 16.1108491,53.8886598 C17.0023585,50.1958763 18.3820755,44.628866 20.4834906,38.0783505 C20.5471698,37.8556701 20.8018868,37.7257732 21.0353774,37.7628866 C21.2900943,37.8 21.4811321,37.985567 21.4811321,38.2082474 L21.120283,85.6206186 C27.5943396,87.5876289 34.7264151,88.5154639 43.5353774,88.5525773 L43.5353774,87.3092784 C43.5353774,87.0680412 43.7688679,86.8639175 44.0448113,86.8639175 C44.3207547,86.8639175 44.5542453,87.0680412 44.5542453,87.3092784 L44.5542453,88.9979381 C44.5542453,89.2391753 44.3207547,89.443299 44.0448113,89.443299 C34.7264151,89.443299 27.2334906,88.4597938 20.4410377,86.3814433 C20.2287736,86.3257732 20.1014151,86.1402062 20.1014151,85.9546392 L20.4410377,41.6226804 C18.8915094,46.7072165 17.8514151,51.0494845 17.1084906,54.0927835 C16.9174528,54.8536082 16.7476415,55.5402062 16.5990566,56.1340206 C15.7712264,59.4 14.0731132,81.9278351 13.6910377,89.4247423 C13.6698113,89.6474227 13.4575472,89.8329897 13.1816038,89.8329897 Z" id="Shape" fill="#000000"></path>
            <path d="M45.7853774,36.185567 C45.7004717,36.185567 45.615566,36.1670103 45.5518868,36.1298969 C45.3396226,36.0185567 45.2334906,35.7958763 45.3183962,35.5917526 C45.3820755,35.4247423 51.8985849,18.2041237 52.9599057,14.214433 C54.0212264,10.2618557 55.0188679,4.52783505 54.6580189,1.28041237 C54.6367925,1.09484536 54.7641509,0.909278351 54.9551887,0.835051546 C55.1674528,0.760824742 55.4009434,0.797938144 55.5495283,0.946391753 C58.3938679,3.80412371 65.1014151,13.5092784 66.2264151,15.5876289 C66.3113208,15.7175258 66.2900943,15.8845361 66.2051887,16.014433 C66.120283,16.1443299 65.9504717,16.2185567 65.7806604,16.2185567 L58.0754717,16.2185567 L60.8773585,19.2061856 C61.0259434,19.3731959 61.0259434,19.5958763 60.8773585,19.7628866 L46.2099057,36 C46.0825472,36.1298969 45.9339623,36.185567 45.7853774,36.185567 Z M55.740566,2.61649485 C55.7830189,6.03092784 54.8915094,10.9298969 53.9363208,14.4371134 C53.0872642,17.6103093 49.0117925,28.5773196 47.1650943,33.4948454 L59.7948113,19.5216495 L56.5896226,16.0886598 C56.4622642,15.9587629 56.4410377,15.7731959 56.5259434,15.6247423 C56.6108491,15.4762887 56.7806604,15.3649485 56.9929245,15.3649485 L64.9316038,15.3649485 C63.3396226,12.785567 58.5424528,5.90103093 55.740566,2.61649485 Z" id="Shape" fill="#000000"></path>
            <path d="M76.8396226,89.8329897 C76.5636792,89.8329897 76.3514151,89.6474227 76.3301887,89.4061856 C75.9481132,81.9278351 74.25,59.3814433 73.4221698,56.1154639 C73.2735849,55.5216495 73.1037736,54.8536082 72.9127358,54.0742268 C72.1698113,51.0309278 71.1084906,46.6886598 69.5801887,41.6041237 L69.9198113,85.9360825 C69.9198113,86.1216495 69.7924528,86.2886598 69.5801887,86.3628866 C62.7877358,88.4597938 55.379717,89.4247423 46.2523585,89.4247423 C45.9764151,89.4247423 45.7429245,89.2206186 45.7429245,88.9793814 L45.7429245,87.3092784 C45.7429245,87.0680412 45.9764151,86.8639175 46.2523585,86.8639175 C46.5283019,86.8639175 46.7617925,87.0680412 46.7617925,87.3092784 L46.7617925,88.5340206 C55.379717,88.4969072 62.4481132,87.5690722 68.9009434,85.6206186 L68.5188679,38.2268041 C68.5188679,38.0041237 68.7099057,37.8185567 68.9646226,37.7814433 C69.2193396,37.7443299 69.4528302,37.8927835 69.5165094,38.0969072 C71.6391509,44.628866 72.9976415,50.214433 73.8891509,53.9072165 C74.0801887,54.6680412 74.25,55.3546392 74.3985849,55.9298969 C75.2688679,59.4 76.9245283,81.7608247 77.3066038,88.9237113 L88.8537736,88.5154639 C88.5353774,80.8329897 87.7924528,70.8123711 87.240566,63.4453608 C86.879717,58.6206186 86.6037736,54.7979381 86.5400943,53.2206186 C86.4551887,50.5670103 85.5849057,46.7443299 84.6509434,42.7175258 C84.1627358,40.6391753 83.6745283,38.4865979 83.2712264,36.3896907 C82.5495283,32.7340206 81.4669811,28.7443299 80.5117925,25.2185567 C79.875,22.843299 79.3018868,20.8020619 79.004717,19.3731959 C78.3042453,16.0515464 69.5165094,10.4474227 61.1320755,9.0185567 C60.8561321,8.9628866 60.6650943,8.74020619 60.7287736,8.49896907 C60.7924528,8.25773196 61.0471698,8.09072165 61.3231132,8.14639175 C70.3018868,9.66804124 79.259434,15.6061856 80.0023585,19.2061856 C80.2995283,20.6164948 80.8514151,22.657732 81.4882075,25.014433 C82.4433962,28.5402062 83.5471698,32.5484536 84.2688679,36.2226804 C84.6721698,38.3010309 85.1816038,40.4536082 85.6485849,42.5319588 C86.5825472,46.614433 87.4740566,50.4742268 87.5589623,53.2020619 C87.6014151,54.7608247 87.8985849,58.5649485 88.2382075,63.3896907 C88.7900943,70.9051546 89.5542453,81.185567 89.8726415,88.9237113 C89.8726415,89.1649485 89.6603774,89.3690722 89.384434,89.3876289 L76.8396226,89.8329897 C76.8608491,89.8329897 76.8396226,89.8329897 76.8396226,89.8329897 Z" id="Shape" fill="#000000"></path>
            <path d="M34.875,1.70721649 C34.6627358,1.70721649 34.4504717,1.57731959 34.3867925,1.39175258 C34.3018868,1.15051546 34.4504717,0.909278351 34.7264151,0.835051546 C38.8231132,-0.222680412 51.5377358,-0.0742268041 55.2735849,0.835051546 C55.5495283,0.909278351 55.6981132,1.15051546 55.634434,1.39175258 C55.5495283,1.63298969 55.2735849,1.7628866 54.9976415,1.70721649 C51.4316038,0.835051546 38.8867925,0.686597938 35.0023585,1.70721649 C34.9599057,1.68865979 34.9174528,1.70721649 34.875,1.70721649 Z" id="Shape" fill="#000000"></path>
            <path d="M35.2146226,7.64536082 C34.9811321,7.64536082 34.7688679,7.51546392 34.7264151,7.31134021 C34.6627358,7.07010309 34.8325472,6.82886598 35.1084906,6.77319588 C40.0117925,5.71546392 50.8160377,5.99381443 54.8066038,6.55051546 C55.0825472,6.58762887 55.2735849,6.81030928 55.2311321,7.05154639 C55.1886792,7.29278351 54.9339623,7.45979381 54.6580189,7.42268041 C50.8372642,6.90309278 40.0542453,6.62474227 35.3632075,7.64536082 C35.2995283,7.62680412 35.2570755,7.64536082 35.2146226,7.64536082 Z" id="Shape" fill="#000000"></path>
            <g id="Group" transform="translate(23.349057, 66.432990)" fill="#000000">
                <path d="M40.6061321,16.4412371 C40.5849057,16.4412371 40.5636792,16.4412371 40.5636792,16.4412371 C40.3938679,16.4226804 40.2240566,16.3298969 40.1603774,16.2 L32.4551887,2.30103093 C32.3490566,2.09690722 32.4339623,1.8371134 32.6462264,1.7257732 L35.745283,0.148453608 C35.8726415,0.0927835052 36.0212264,0.0742268041 36.1485849,0.111340206 C36.2759434,0.148453608 36.4033019,0.241237113 36.4669811,0.35257732 L43.1745283,13.3608247 C43.259434,13.5092784 43.2382075,13.6762887 43.1108491,13.8061856 L41.009434,16.2556701 C40.9033019,16.385567 40.754717,16.4412371 40.6061321,16.4412371 Z M33.5589623,2.28247423 L40.6910377,15.142268 L42.1132075,13.4907216 L35.745283,1.16907216 L33.5589623,2.28247423 Z" id="Shape"></path>
                <path d="M2.71698113,16.4412371 C2.54716981,16.4412371 2.39858491,16.3670103 2.31367925,16.2556701 L0.212264151,13.8061856 C0.106132075,13.6762887 0.0849056604,13.5092784 0.148584906,13.3608247 L6.85613208,0.35257732 C6.91981132,0.241237113 7.0259434,0.148453608 7.1745283,0.111340206 C7.30188679,0.0742268041 7.47169811,0.0927835052 7.57783019,0.148453608 L10.6768868,1.7257732 C10.9103774,1.8371134 10.995283,2.09690722 10.8679245,2.30103093 L3.18396226,16.2 C3.0990566,16.3484536 2.9504717,16.4412371 2.78066038,16.4412371 C2.75943396,16.4412371 2.73820755,16.4412371 2.71698113,16.4412371 Z M1.20990566,13.4907216 L2.63207547,15.142268 L9.76415094,2.28247423 L7.57783019,1.16907216 L1.20990566,13.4907216 Z" id="Shape"></path>
            </g>
            <path d="M76.4575472,83.7835052 C76.1816038,83.7835052 75.9693396,83.5979381 75.9481132,83.356701 C75.9268868,83.1154639 76.1603774,82.9113402 76.4363208,82.8927835 L89.0660377,82.4659794 C89.3632075,82.4659794 89.5754717,82.6515464 89.5966981,82.8927835 C89.6179245,83.1340206 89.384434,83.3381443 89.1084906,83.356701 L76.4575472,83.7835052 C76.4787736,83.7835052 76.4787736,83.7835052 76.4575472,83.7835052 Z" id="Shape" fill="#000000"></path>
            <path d="M13.1816038,89.8329897 C13.1816038,89.8329897 13.1603774,89.8329897 13.1603774,89.8329897 L0.615566038,89.3876289 C0.488207547,89.3876289 0.339622642,89.3319588 0.254716981,89.2391753 C0.169811321,89.1463918 0.106132075,89.0350515 0.127358491,88.9051546 L0.551886792,82.8742268 C0.573113208,82.6329897 0.806603774,82.4474227 1.08254717,82.4474227 L13.5,82.8742268 C13.6273585,82.8742268 13.754717,82.9298969 13.8608491,83.0226804 C13.9457547,83.1154639 14.009434,83.2268041 13.9882075,83.3381443 L13.6910377,89.3876289 C13.6698113,89.6474227 13.4575472,89.8329897 13.1816038,89.8329897 Z M1.16745283,88.5154639 L12.6933962,88.9237113 L12.9481132,83.7649485 L1.52830189,83.3752577 L1.16745283,88.5154639 Z" id="Shape" fill="#000000"></path>
            <g id="Group" opacity="0.1" transform="translate(20.589623, 38.226804)" fill="#000000">
                <path d="M0.382075472,0 C3.33254717,4.84329897 7.51415094,30.5443299 7.53537736,49.8618557 C4.09669811,48.5257732 0,47.7278351 0,47.7278351 L0.382075472,0 Z" id="Shape"></path>
            </g>
            <g id="Group" opacity="0.2" transform="translate(54.551887, 1.484536)" fill="#FFFFFF">
                <path d="M0.0849056604,7.08865979 C5.51886792,11.4680412 8.70283019,13.0268041 11.1014151,14.1216495 C13.5,15.2164948 18.4457547,14.4 20.504717,22.4164948 C22.5636792,30.4329897 27.0212264,44.4804124 27.4033019,50.8639175 C27.8066038,57.2474227 29.3773585,84.7113402 29.6745283,87.6247423 C31.3514151,87.5690722 34.7476415,87.4391753 34.7476415,87.4391753 L33.7924528,71.1092784 C33.7924528,71.1092784 32.4339623,50.6041237 32.1580189,48.9340206 C31.8820755,47.2824742 24.8773585,17.7773196 24.8773585,17.7773196 C24.8773585,17.7773196 22.754717,14.4927835 21.375,13.4907216 C19.995283,12.4886598 11.9292453,7.60824742 5.96462264,6.62474227 C5.03066038,4.56494845 0.870283019,0.129896907 0.870283019,0.129896907 L0.0849056604,7.08865979 Z" id="Shape"></path>
            </g>
            <rect id="Rectangle-path" fill="#4F372A" x="43.004717" y="30.7113402" width="4.01179245" height="15.0865979"></rect>
            <g id="Group" opacity="0.1" transform="translate(62.193396, 38.226804)" fill="#000000">
                <path d="M6.75,0 C3.7995283,4.84329897 0.0849056604,30.3216495 0.0636792453,49.6391753 C3.50235849,48.3030928 7.11084906,47.7278351 7.11084906,47.7278351 L6.75,0 Z" id="Shape"></path>
            </g>
            <g id="Group" transform="translate(41.391509, 33.958763)">
                <g>
                    <g id="Shape" transform="translate(2.122642, 26.721649)" fill="#CD2027">
                        <path d="M2.37735849,25.6639175 L0.551886792,25.6639175 C0.254716981,25.6639175 -5.68434189e-14,25.4412371 -5.68434189e-14,25.1814433 C-5.68434189e-14,24.9216495 0.254716981,24.6989691 0.551886792,24.6989691 L2.37735849,24.6989691 C2.6745283,24.6989691 2.92924528,24.9216495 2.92924528,25.1814433 C2.92924528,25.4412371 2.6745283,25.6639175 2.37735849,25.6639175 Z"></path>
                        <path d="M2.37735849,24.142268 L0.551886792,24.142268 C0.254716981,24.142268 -5.68434189e-14,23.9195876 -5.68434189e-14,23.6597938 C-5.68434189e-14,23.4 0.254716981,23.1773196 0.551886792,23.1773196 L2.37735849,23.1773196 C2.6745283,23.1773196 2.92924528,23.4 2.92924528,23.6597938 C2.92924528,23.9195876 2.6745283,24.142268 2.37735849,24.142268 Z"></path>
                        <path d="M2.37735849,22.6020619 L0.551886792,22.6020619 C0.254716981,22.6020619 -5.68434189e-14,22.3793814 -5.68434189e-14,22.1195876 C-5.68434189e-14,21.8597938 0.254716981,21.6371134 0.551886792,21.6371134 L2.37735849,21.6371134 C2.6745283,21.6371134 2.92924528,21.8597938 2.92924528,22.1195876 C2.92924528,22.3793814 2.6745283,22.6020619 2.37735849,22.6020619 Z"></path>
                        <path d="M2.37735849,21.0618557 L0.551886792,21.0618557 C0.254716981,21.0618557 -5.68434189e-14,20.8391753 -5.68434189e-14,20.5793814 C-5.68434189e-14,20.3195876 0.254716981,20.0969072 0.551886792,20.0969072 L2.37735849,20.0969072 C2.6745283,20.0969072 2.92924528,20.3195876 2.92924528,20.5793814 C2.92924528,20.8391753 2.6745283,21.0618557 2.37735849,21.0618557 Z"></path>
                        <path d="M2.37735849,19.5216495 L0.551886792,19.5216495 C0.254716981,19.5216495 -5.68434189e-14,19.2989691 -5.68434189e-14,19.0391753 C-5.68434189e-14,18.7793814 0.254716981,18.556701 0.551886792,18.556701 L2.37735849,18.556701 C2.6745283,18.556701 2.92924528,18.7793814 2.92924528,19.0391753 C2.92924528,19.2989691 2.6745283,19.5216495 2.37735849,19.5216495 Z"></path>
                        <path d="M2.37735849,18 L0.551886792,18 C0.254716981,18 -5.68434189e-14,17.7773196 -5.68434189e-14,17.5175258 C-5.68434189e-14,17.257732 0.254716981,17.0350515 0.551886792,17.0350515 L2.37735849,17.0350515 C2.6745283,17.0350515 2.92924528,17.257732 2.92924528,17.5175258 C2.92924528,17.7773196 2.6745283,18 2.37735849,18 Z"></path>
                        <path d="M2.37735849,16.4597938 L0.551886792,16.4597938 C0.254716981,16.4597938 -5.68434189e-14,16.2371134 -5.68434189e-14,15.9773196 C-5.68434189e-14,15.7175258 0.254716981,15.4948454 0.551886792,15.4948454 L2.37735849,15.4948454 C2.6745283,15.4948454 2.92924528,15.7175258 2.92924528,15.9773196 C2.92924528,16.2371134 2.6745283,16.4597938 2.37735849,16.4597938 Z"></path>
                        <path d="M2.37735849,14.9010309 L0.551886792,14.9010309 C0.254716981,14.9010309 -5.68434189e-14,14.6783505 -5.68434189e-14,14.4185567 C-5.68434189e-14,14.1587629 0.254716981,13.9360825 0.551886792,13.9360825 L2.37735849,13.9360825 C2.6745283,13.9360825 2.92924528,14.1587629 2.92924528,14.4185567 C2.92924528,14.6783505 2.6745283,14.9010309 2.37735849,14.9010309 Z"></path>
                        <path d="M2.37735849,13.3793814 L0.551886792,13.3793814 C0.254716981,13.3793814 -5.68434189e-14,13.156701 -5.68434189e-14,12.8969072 C-5.68434189e-14,12.6371134 0.254716981,12.414433 0.551886792,12.414433 L2.37735849,12.414433 C2.6745283,12.414433 2.92924528,12.6371134 2.92924528,12.8969072 C2.92924528,13.156701 2.6745283,13.3793814 2.37735849,13.3793814 Z"></path>
                        <path d="M2.37735849,11.8391753 L0.551886792,11.8391753 C0.254716981,11.8391753 -5.68434189e-14,11.6164948 -5.68434189e-14,11.356701 C-5.68434189e-14,11.0969072 0.254716981,10.8742268 0.551886792,10.8742268 L2.37735849,10.8742268 C2.6745283,10.8742268 2.92924528,11.0969072 2.92924528,11.356701 C2.92924528,11.6164948 2.6745283,11.8391753 2.37735849,11.8391753 Z"></path>
                        <path d="M2.37735849,10.3175258 L0.551886792,10.3175258 C0.254716981,10.3175258 -5.68434189e-14,10.0948454 -5.68434189e-14,9.83505155 C-5.68434189e-14,9.57525773 0.254716981,9.35257732 0.551886792,9.35257732 L2.37735849,9.35257732 C2.6745283,9.35257732 2.92924528,9.57525773 2.92924528,9.83505155 C2.92924528,10.0948454 2.6745283,10.3175258 2.37735849,10.3175258 Z"></path>
                        <path d="M2.37735849,8.75876289 L0.551886792,8.75876289 C0.254716981,8.75876289 -5.68434189e-14,8.53608247 -5.68434189e-14,8.27628866 C-5.68434189e-14,8.01649485 0.254716981,7.79381443 0.551886792,7.79381443 L2.37735849,7.79381443 C2.6745283,7.79381443 2.92924528,8.01649485 2.92924528,8.27628866 C2.92924528,8.53608247 2.6745283,8.75876289 2.37735849,8.75876289 Z"></path>
                        <path d="M2.37735849,7.2371134 L0.551886792,7.2371134 C0.254716981,7.2371134 -5.68434189e-14,7.01443299 -5.68434189e-14,6.75463918 C-5.68434189e-14,6.49484536 0.254716981,6.27216495 0.551886792,6.27216495 L2.37735849,6.27216495 C2.6745283,6.27216495 2.92924528,6.49484536 2.92924528,6.75463918 C2.92924528,7.01443299 2.6745283,7.2371134 2.37735849,7.2371134 Z"></path>
                        <path d="M2.37735849,5.69690722 L0.551886792,5.69690722 C0.254716981,5.69690722 -5.68434189e-14,5.4742268 -5.68434189e-14,5.21443299 C-5.68434189e-14,4.95463918 0.254716981,4.73195876 0.551886792,4.73195876 L2.37735849,4.73195876 C2.6745283,4.73195876 2.92924528,4.95463918 2.92924528,5.21443299 C2.92924528,5.4742268 2.6745283,5.69690722 2.37735849,5.69690722 Z"></path>
                        <path d="M2.37735849,4.17525773 L0.551886792,4.17525773 C0.254716981,4.17525773 -5.68434189e-14,3.95257732 -5.68434189e-14,3.69278351 C-5.68434189e-14,3.43298969 0.254716981,3.21030928 0.551886792,3.21030928 L2.37735849,3.21030928 C2.6745283,3.21030928 2.92924528,3.43298969 2.92924528,3.69278351 C2.92924528,3.95257732 2.6745283,4.17525773 2.37735849,4.17525773 Z"></path>
                        <path d="M2.37735849,2.61649485 L0.551886792,2.61649485 C0.254716981,2.61649485 -5.68434189e-14,2.39381443 -5.68434189e-14,2.13402062 C-5.68434189e-14,1.8742268 0.254716981,1.65154639 0.551886792,1.65154639 L2.37735849,1.65154639 C2.6745283,1.65154639 2.92924528,1.8742268 2.92924528,2.13402062 C2.92924528,2.39381443 2.6745283,2.61649485 2.37735849,2.61649485 Z"></path>
                        <path d="M2.37735849,1.09484536 L0.551886792,1.09484536 C0.254716981,1.09484536 -5.68434189e-14,0.872164948 -5.68434189e-14,0.612371134 C-5.68434189e-14,0.35257732 0.254716981,0.129896907 0.551886792,0.129896907 L2.37735849,0.129896907 C2.6745283,0.129896907 2.92924528,0.35257732 2.92924528,0.612371134 C2.92924528,0.872164948 2.6745283,1.09484536 2.37735849,1.09484536 Z"></path>
                    </g>
                    <path d="M4.5,26.2762887 L2.6745283,26.2762887 C2.37735849,26.2762887 2.12264151,26.0536082 2.12264151,25.7938144 C2.12264151,25.5340206 2.37735849,25.3113402 2.6745283,25.3113402 L4.5,25.3113402 C4.79716981,25.3113402 5.05188679,25.5340206 5.05188679,25.7938144 C5.05188679,26.0536082 4.79716981,26.2762887 4.5,26.2762887 Z" id="Shape" fill="#CD2027"></path>
                    <path d="M4.5,24.7360825 L2.6745283,24.7360825 C2.37735849,24.7360825 2.12264151,24.5134021 2.12264151,24.2536082 C2.12264151,23.9938144 2.37735849,23.771134 2.6745283,23.771134 L4.5,23.771134 C4.79716981,23.771134 5.05188679,23.9938144 5.05188679,24.2536082 C5.05188679,24.5134021 4.79716981,24.7360825 4.5,24.7360825 Z" id="Shape" fill="#CD2027"></path>
                    <path d="M4.5,23.1958763 L2.6745283,23.1958763 C2.37735849,23.1958763 2.12264151,22.9731959 2.12264151,22.7134021 C2.12264151,22.4536082 2.37735849,22.2309278 2.6745283,22.2309278 L4.5,22.2309278 C4.79716981,22.2309278 5.05188679,22.4536082 5.05188679,22.7134021 C5.05188679,22.9731959 4.79716981,23.1958763 4.5,23.1958763 Z" id="Shape" fill="#CD2027"></path>
                    <path d="M4.5,21.6556701 L2.6745283,21.6556701 C2.37735849,21.6556701 2.12264151,21.4329897 2.12264151,21.1731959 C2.12264151,20.9134021 2.37735849,20.6907216 2.6745283,20.6907216 L4.5,20.6907216 C4.79716981,20.6907216 5.05188679,20.9134021 5.05188679,21.1731959 C5.05188679,21.4329897 4.79716981,21.6556701 4.5,21.6556701 Z" id="Shape" fill="#CD2027"></path>
                    <path d="M4.5,20.1340206 L2.6745283,20.1340206 C2.37735849,20.1340206 2.12264151,19.9113402 2.12264151,19.6515464 C2.12264151,19.3917526 2.37735849,19.1690722 2.6745283,19.1690722 L4.5,19.1690722 C4.79716981,19.1690722 5.05188679,19.3917526 5.05188679,19.6515464 C5.05188679,19.9113402 4.79716981,20.1340206 4.5,20.1340206 Z" id="Shape" fill="#CD2027"></path>
                    <path d="M4.5,18.5938144 L2.6745283,18.5938144 C2.37735849,18.5938144 2.12264151,18.371134 2.12264151,18.1113402 C2.12264151,17.8515464 2.37735849,17.628866 2.6745283,17.628866 L4.5,17.628866 C4.79716981,17.628866 5.05188679,17.8515464 5.05188679,18.1113402 C5.05188679,18.371134 4.79716981,18.5938144 4.5,18.5938144 Z" id="Shape" fill="#CD2027"></path>
                    <path d="M4.5,17.0536082 L2.6745283,17.0536082 C2.37735849,17.0536082 2.12264151,16.8309278 2.12264151,16.571134 C2.12264151,16.3113402 2.37735849,16.0886598 2.6745283,16.0886598 L4.5,16.0886598 C4.79716981,16.0886598 5.05188679,16.3113402 5.05188679,16.571134 C5.05188679,16.8309278 4.79716981,17.0536082 4.5,17.0536082 Z" id="Shape" fill="#CD2027"></path>
                    <path d="M4.5,15.5134021 L2.6745283,15.5134021 C2.37735849,15.5134021 2.12264151,15.2907216 2.12264151,15.0309278 C2.12264151,14.771134 2.37735849,14.5484536 2.6745283,14.5484536 L4.5,14.5484536 C4.79716981,14.5484536 5.05188679,14.771134 5.05188679,15.0309278 C5.05188679,15.2907216 4.79716981,15.5134021 4.5,15.5134021 Z" id="Shape" fill="#CD2027"></path>
                    <g id="Shape" fill="#CD2027">
                        <path d="M6.53773585,1.11340206 L4.71226415,1.11340206 C4.41509434,1.11340206 4.16037736,0.890721649 4.16037736,0.630927835 C4.16037736,0.371134021 4.41509434,0.148453608 4.71226415,0.148453608 L6.53773585,0.148453608 C6.83490566,0.148453608 7.08962264,0.371134021 7.08962264,0.630927835 C7.08962264,0.890721649 6.83490566,1.11340206 6.53773585,1.11340206 Z"></path>
                        <path d="M2.5259434,1.11340206 L0.700471698,1.11340206 C0.403301887,1.11340206 0.148584906,0.890721649 0.148584906,0.630927835 C0.148584906,0.371134021 0.403301887,0.148453608 0.700471698,0.148453608 L2.5259434,0.148453608 C2.82311321,0.148453608 3.07783019,0.371134021 3.07783019,0.630927835 C3.07783019,0.890721649 2.82311321,1.11340206 2.5259434,1.11340206 Z"></path>
                        <path d="M6.53773585,2.74639175 L4.71226415,2.74639175 C4.41509434,2.74639175 4.16037736,2.52371134 4.16037736,2.26391753 C4.16037736,2.00412371 4.41509434,1.7814433 4.71226415,1.7814433 L6.53773585,1.7814433 C6.83490566,1.7814433 7.08962264,2.00412371 7.08962264,2.26391753 C7.08962264,2.52371134 6.83490566,2.74639175 6.53773585,2.74639175 Z"></path>
                        <path d="M2.5259434,2.74639175 L0.700471698,2.74639175 C0.403301887,2.74639175 0.148584906,2.52371134 0.148584906,2.26391753 C0.148584906,2.00412371 0.403301887,1.7814433 0.700471698,1.7814433 L2.5259434,1.7814433 C2.82311321,1.7814433 3.07783019,2.00412371 3.07783019,2.26391753 C3.07783019,2.52371134 2.82311321,2.74639175 2.5259434,2.74639175 Z"></path>
                        <path d="M6.53773585,4.39793814 L4.71226415,4.39793814 C4.41509434,4.39793814 4.16037736,4.17525773 4.16037736,3.91546392 C4.16037736,3.6556701 4.41509434,3.43298969 4.71226415,3.43298969 L6.53773585,3.43298969 C6.83490566,3.43298969 7.08962264,3.6556701 7.08962264,3.91546392 C7.08962264,4.17525773 6.83490566,4.39793814 6.53773585,4.39793814 Z"></path>
                        <path d="M2.5259434,4.39793814 L0.700471698,4.39793814 C0.403301887,4.39793814 0.148584906,4.17525773 0.148584906,3.91546392 C0.148584906,3.6556701 0.403301887,3.43298969 0.700471698,3.43298969 L2.5259434,3.43298969 C2.82311321,3.43298969 3.07783019,3.6556701 3.07783019,3.91546392 C3.07783019,4.17525773 2.82311321,4.39793814 2.5259434,4.39793814 Z"></path>
                    </g>
                    <g id="Shape" transform="translate(0.000000, 4.824742)" fill="#CD2027">
                        <path d="M6.53773585,1.09484536 L4.71226415,1.09484536 C4.41509434,1.09484536 4.16037736,0.872164948 4.16037736,0.612371134 C4.16037736,0.35257732 4.41509434,0.129896907 4.71226415,0.129896907 L6.53773585,0.129896907 C6.83490566,0.129896907 7.08962264,0.35257732 7.08962264,0.612371134 C7.08962264,0.872164948 6.83490566,1.09484536 6.53773585,1.09484536 Z"></path>
                        <path d="M2.5259434,1.09484536 L0.700471698,1.09484536 C0.403301887,1.09484536 0.148584906,0.872164948 0.148584906,0.612371134 C0.148584906,0.35257732 0.403301887,0.129896907 0.700471698,0.129896907 L2.5259434,0.129896907 C2.82311321,0.129896907 3.07783019,0.35257732 3.07783019,0.612371134 C3.07783019,0.872164948 2.82311321,1.09484536 2.5259434,1.09484536 Z"></path>
                        <path d="M6.53773585,2.72783505 L4.71226415,2.72783505 C4.41509434,2.72783505 4.16037736,2.50515464 4.16037736,2.24536082 C4.16037736,1.98556701 4.41509434,1.7628866 4.71226415,1.7628866 L6.53773585,1.7628866 C6.83490566,1.7628866 7.08962264,1.98556701 7.08962264,2.24536082 C7.08962264,2.50515464 6.83490566,2.72783505 6.53773585,2.72783505 Z"></path>
                        <path d="M2.5259434,2.72783505 L0.700471698,2.72783505 C0.403301887,2.72783505 0.148584906,2.50515464 0.148584906,2.24536082 C0.148584906,1.98556701 0.403301887,1.7628866 0.700471698,1.7628866 L2.5259434,1.7628866 C2.82311321,1.7628866 3.07783019,1.98556701 3.07783019,2.24536082 C3.07783019,2.50515464 2.82311321,2.72783505 2.5259434,2.72783505 Z"></path>
                        <path d="M6.53773585,4.36082474 L4.71226415,4.36082474 C4.41509434,4.36082474 4.16037736,4.13814433 4.16037736,3.87835052 C4.16037736,3.6185567 4.41509434,3.39587629 4.71226415,3.39587629 L6.53773585,3.39587629 C6.83490566,3.39587629 7.08962264,3.6185567 7.08962264,3.87835052 C7.08962264,4.13814433 6.83490566,4.36082474 6.53773585,4.36082474 Z"></path>
                        <path d="M2.5259434,4.36082474 L0.700471698,4.36082474 C0.403301887,4.36082474 0.148584906,4.13814433 0.148584906,3.87835052 C0.148584906,3.6185567 0.403301887,3.39587629 0.700471698,3.39587629 L2.5259434,3.39587629 C2.82311321,3.39587629 3.07783019,3.6185567 3.07783019,3.87835052 C3.07783019,4.13814433 2.82311321,4.36082474 2.5259434,4.36082474 Z"></path>
                    </g>
                    <path d="M6.53773585,10.6701031 L4.71226415,10.6701031 C4.41509434,10.6701031 4.16037736,10.4474227 4.16037736,10.1876289 C4.16037736,9.92783505 4.41509434,9.70515464 4.71226415,9.70515464 L6.53773585,9.70515464 C6.83490566,9.70515464 7.08962264,9.92783505 7.08962264,10.1876289 C7.08962264,10.4474227 6.83490566,10.6701031 6.53773585,10.6701031 Z" id="Shape" fill="#CD2027"></path>
                    <path d="M2.5259434,10.6701031 L0.700471698,10.6701031 C0.403301887,10.6701031 0.148584906,10.4474227 0.148584906,10.1876289 C0.148584906,9.92783505 0.403301887,9.70515464 0.700471698,9.70515464 L2.5259434,9.70515464 C2.82311321,9.70515464 3.07783019,9.92783505 3.07783019,10.1876289 C3.07783019,10.4474227 2.82311321,10.6701031 2.5259434,10.6701031 Z" id="Shape" fill="#CD2027"></path>
                    <path d="M6.53773585,12.3216495 L4.71226415,12.3216495 C4.41509434,12.3216495 4.16037736,12.0989691 4.16037736,11.8391753 C4.16037736,11.5793814 4.41509434,11.356701 4.71226415,11.356701 L6.53773585,11.356701 C6.83490566,11.356701 7.08962264,11.5793814 7.08962264,11.8391753 C7.08962264,12.0989691 6.83490566,12.3216495 6.53773585,12.3216495 Z" id="Shape" fill="#CD2027"></path>
                    <path d="M2.5259434,12.3216495 L0.700471698,12.3216495 C0.403301887,12.3216495 0.148584906,12.0989691 0.148584906,11.8391753 C0.148584906,11.5793814 0.403301887,11.356701 0.700471698,11.356701 L2.5259434,11.356701 C2.82311321,11.356701 3.07783019,11.5793814 3.07783019,11.8391753 C3.07783019,12.0989691 2.82311321,12.3216495 2.5259434,12.3216495 Z" id="Shape" fill="#CD2027"></path>
                    <path d="M6.53773585,13.9546392 L4.71226415,13.9546392 C4.41509434,13.9546392 4.16037736,13.7319588 4.16037736,13.4721649 C4.16037736,13.2123711 4.41509434,12.9896907 4.71226415,12.9896907 L6.53773585,12.9896907 C6.83490566,12.9896907 7.08962264,13.2123711 7.08962264,13.4721649 C7.08962264,13.7319588 6.83490566,13.9546392 6.53773585,13.9546392 Z" id="Shape" fill="#CD2027"></path>
                    <path d="M2.5259434,13.9546392 L0.700471698,13.9546392 C0.403301887,13.9546392 0.148584906,13.7319588 0.148584906,13.4721649 C0.148584906,13.2123711 0.403301887,12.9896907 0.700471698,12.9896907 L2.5259434,12.9896907 C2.82311321,12.9896907 3.07783019,13.2123711 3.07783019,13.4721649 C3.07783019,13.7319588 2.82311321,13.9546392 2.5259434,13.9546392 Z" id="Shape" fill="#CD2027"></path>
                    <rect id="Rectangle-path" fill="#CD2027" x="2.18632075" y="11.3752577" width="2.9504717" height="3.5443299"></rect>
                    <polygon id="Shape" fill="#CD2027" points="3.12028302 13.1381443 0.955188679 17.1278351 6.26179245 17.1278351 4.05424528 13.1381443"></polygon>
                    <ellipse id="Oval" fill="#CC9E5C" cx="3.67216981" cy="15.7360825" rx="1.06132075" ry="1"></ellipse>
                </g>
                <path d="M4.5,53.9257732 L2.6745283,53.9257732 C2.37735849,53.9257732 2.12264151,53.7030928 2.12264151,53.443299 C2.12264151,53.1835052 2.37735849,52.9608247 2.6745283,52.9608247 L4.5,52.9608247 C4.79716981,52.9608247 5.05188679,53.1835052 5.05188679,53.443299 C5.05188679,53.7030928 4.79716981,53.9257732 4.5,53.9257732 Z" id="Shape" fill="#CD2027"></path>
            </g>
        </g>
    </g>
</svg>