<?xml version="1.0" encoding="UTF-8"?>
<svg width="90px" height="90px" viewBox="0 0 90 90" version="1.1" xmlns="http://www.w3.org/2000/svg" xmlns:xlink="http://www.w3.org/1999/xlink">
    <!-- Generator: Sketch 51.2 (57519) - http://www.bohemiancoding.com/sketch -->
    <title>Slice 1</title>
    <desc>Created with Sketch.</desc>
    <defs></defs>
    <g id="Page-1" stroke="none" stroke-width="1" fill="none" fill-rule="evenodd">
        <g id="Перешить_Куртка" transform="translate(0.000000, 19.000000)" fill-rule="nonzero">
            <g id="Group" transform="translate(47.243402, 0.000000)">
                <path d="M13.6055718,4.98918919 C9.50146628,5.83243243 5.27859238,9.16324324 4.92228739,11.187027 C4.57917889,13.2108108 3.47067449,17.4410811 2.90322581,21.0248649 C2.32258065,24.6086486 1.39882698,28.4594595 1.34604106,30.8064865 C1.29325513,33.1535135 0.475073314,44.1718919 0.250733138,51.4659459 L6.20234604,51.7189189 C6.37390029,47.6151351 7.19208211,34.3762162 7.58797654,32.4227027 C7.99706745,30.4691892 8.68328446,26.6886486 9.8973607,22.1210811 L10.7155425,36.8918919 L10.3856305,49.7232432 C13.6847507,50.96 16.6407625,51.48 20.8504399,51.48 L20.8900293,50.4259459 L21.8929619,50.5102703 L21.8929619,51.48 C26.1026393,51.48 29.058651,50.96 32.3577713,49.7232432 L32.0014663,36.7372973 L32.7272727,22.1210811 C33.941349,26.6886486 34.6407625,30.4691892 35.0366569,32.4227027 C35.4457478,34.3762162 36.2507331,47.6151351 36.4222874,51.7189189 L42.3870968,51.4518919 C42.1495601,44.1578378 41.3445748,33.1394595 41.2917889,30.7924324 C41.2390029,28.4454054 40.3020528,24.5945946 39.7346041,21.0108108 C39.1671554,17.427027 38.058651,13.1827027 37.7155425,11.172973 C37.372434,9.14918919 33.1495601,5.83243243 29.0322581,4.97513514 C29.0322581,4.97513514 26.7228739,1.50378378 26.4325513,1.12432432 C26.1422287,0.744864865 24.4662757,0.323243243 22.5527859,0.323243243 C20.6392962,0.323243243 17.4853372,0.196756757 16.2052786,1.13837838 C14.9252199,2.09405405 13.6055718,4.98918919 13.6055718,4.98918919 Z" id="Shape" fill="#CC9E5C"></path>
                <path d="M20.9164223,3.86486486 C20.9164223,3.83675676 20.9164223,3.80864865 20.9164223,3.78054054 C16.5483871,4.00540541 16.5747801,3.68216216 16.7463343,5.21405405 C16.931085,6.74594595 19.3856305,15.6281081 20.1378299,18.0875676 C20.8900293,20.547027 21.2595308,20.6875676 21.2595308,20.6875676 C21.2595308,20.6875676 21.2595308,20.6735135 21.2595308,20.6594595 C21.2991202,20.6735135 21.3255132,20.6875676 21.3255132,20.6875676 C21.3255132,20.6875676 21.6026393,20.4767568 22.3548387,18.0172973 C22.7771261,16.64 23.7668622,13.8994595 24.5454545,11.1308108 C25.1656891,8.93837838 25.5879765,6.70378378 25.8387097,5.21405405 C26.1686217,3.31675676 25.0865103,4.07567568 20.9164223,3.86486486 Z" id="Shape" fill="#4F372A"></path>
                <path d="M16.5087977,0.758918919 C15.1759531,2.38918919 11.9956012,7.99675676 11.4809384,9.16324324 C13.2228739,9.16324324 15.6510264,9.16324324 15.6510264,9.16324324 C15.6510264,9.16324324 17.2478006,10.3016216 18.356305,12.0583784 C17.8812317,10.4281081 17.4853372,9.0227027 17.3269795,8.32 C16.7991202,5.97297297 16.3372434,2.64216216 16.5087977,0.758918919 Z" id="Shape" fill="#936044"></path>
                <path d="M3.07478006,20.7718919 C4.90909091,23.1751351 4.55278592,28.9091892 4.18328446,31.6778378 C3.81378299,34.4464865 2.11143695,37.4259459 1.12170088,37.0886486 C1.30645161,33.8 1.39882698,30.0475676 1.39882698,30.0475676 L3.07478006,20.7718919 Z" id="Shape" fill="#936044"></path>
                <path d="M16.7331378,0.688648649 C16.1920821,1.15243243 16.1920821,4.04756757 16.7463343,4.17405405 C17.313783,4.28648649 20.2697947,3.80864865 21.5366569,3.8227027 C22.3812317,3.83675676 24.8225806,4.30054054 25.8914956,3.8227027 C26.4325513,3.58378378 26.1026393,2.71243243 26.1026393,2.22054054 C26.1290323,1.05405405 26.3269795,0.632432432 25.297654,0.548108108 C24.2683284,0.463783784 18.3431085,0.182702703 16.7331378,0.688648649 Z" id="Shape" fill="#936044"></path>
                <g opacity="0.2" transform="translate(0.131965, 0.843243)" fill="#FFFFFF" id="Shape">
                    <g>
                        <path d="M16.5615836,4.14594595 C13.9750733,6.68972973 12.4706745,7.57513514 11.3357771,8.20756757 C10.1876833,8.84 7.85190616,8.36216216 6.86217009,13 C5.87243402,17.6378378 3.77419355,25.7610811 3.58944282,29.4572973 C3.40469208,33.1535135 2.65249267,49.0345946 2.52052786,50.707027 C1.728739,50.6789189 0.118768328,50.6086486 0.118768328,50.6086486 L0.56744868,41.1643243 C0.56744868,41.1643243 1.21407625,29.3027027 1.34604106,28.347027 C1.47800587,27.3913514 4.80351906,10.3297297 4.80351906,10.3297297 C4.80351906,10.3297297 5.80645161,8.43243243 6.46627566,7.85621622 C7.12609971,7.28 10.9530792,4.45513514 13.7903226,3.89297297 C14.2258065,2.71243243 16.2052786,0.126486486 16.2052786,0.126486486 L16.5615836,4.14594595 Z"></path>
                    </g>
                </g>
                <path d="M26.1290323,0.758918919 C27.4618768,2.38918919 30.6422287,7.99675676 31.1568915,9.16324324 C29.414956,9.16324324 26.9868035,9.16324324 26.9868035,9.16324324 C26.9868035,9.16324324 25.3900293,10.3016216 24.2815249,12.0583784 C24.7565982,10.4281081 25.1524927,9.0227027 25.3108504,8.32 C25.8387097,5.97297297 26.3005865,2.64216216 26.1290323,0.758918919 Z" id="Shape" fill="#936044"></path>
                <polygon id="Shape" fill="#936044" points="0.448680352 47.9805405 6.34750733 48.2194595 6.20234604 51.7189189 0.250733138 51.4659459"></polygon>
                <polygon id="Shape" fill="#936044" points="42.0967742 47.9805405 36.1979472 48.2194595 36.3431085 51.7189189 42.2947214 51.4659459"></polygon>
                <g transform="translate(20.190616, 20.237838)">
                    <g>
                        <g transform="translate(0.527859, 9.135135)" fill="#000000" id="Shape">
                            <path d="M0.963343109,15.0318919 L0.211143695,15.0318919 C0.0923753666,15.0318919 -1.13686838e-13,14.9225169 -1.13686838e-13,14.7818919 C-1.13686838e-13,14.6412669 0.0923753666,14.5318919 0.211143695,14.5318919 L0.963343109,14.5318919 C1.08211144,14.5318919 1.1744868,14.6412669 1.1744868,14.7818919 C1.1744868,14.9225169 1.06891496,15.0318919 0.963343109,15.0318919 Z"></path>
                            <path d="M0.963343109,14.1324324 L0.211143695,14.1324324 C0.0923753666,14.1324324 -1.13686838e-13,14.0230574 -1.13686838e-13,13.8824324 C-1.13686838e-13,13.7418074 0.0923753666,13.6324324 0.211143695,13.6324324 L0.963343109,13.6324324 C1.08211144,13.6324324 1.1744868,13.7418074 1.1744868,13.8824324 C1.1744868,14.0230574 1.06891496,14.1324324 0.963343109,14.1324324 Z"></path>
                            <path d="M0.963343109,13.232973 L0.211143695,13.232973 C0.0923753666,13.232973 -1.13686838e-13,13.123598 -1.13686838e-13,12.982973 C-1.13686838e-13,12.842348 0.0923753666,12.732973 0.211143695,12.732973 L0.963343109,12.732973 C1.08211144,12.732973 1.1744868,12.842348 1.1744868,12.982973 C1.1744868,13.123598 1.06891496,13.232973 0.963343109,13.232973 Z"></path>
                            <path d="M0.963343109,12.3194595 L0.211143695,12.3194595 C0.0923753666,12.3194595 -1.13686838e-13,12.2100845 -1.13686838e-13,12.0694595 C-1.13686838e-13,11.9288345 0.0923753666,11.8194595 0.211143695,11.8194595 L0.963343109,11.8194595 C1.08211144,11.8194595 1.1744868,11.9288345 1.1744868,12.0694595 C1.1744868,12.2100845 1.06891496,12.3194595 0.963343109,12.3194595 Z"></path>
                            <path d="M0.963343109,11.42 L0.211143695,11.42 C0.0923753666,11.42 -1.13686838e-13,11.310625 -1.13686838e-13,11.17 C-1.13686838e-13,11.029375 0.0923753666,10.92 0.211143695,10.92 L0.963343109,10.92 C1.08211144,10.92 1.1744868,11.029375 1.1744868,11.17 C1.1744868,11.310625 1.06891496,11.42 0.963343109,11.42 Z"></path>
                            <path d="M0.963343109,10.5205405 L0.211143695,10.5205405 C0.0923753666,10.5205405 -1.13686838e-13,10.4111655 -1.13686838e-13,10.2705405 C-1.13686838e-13,10.1299155 0.0923753666,10.0205405 0.211143695,10.0205405 L0.963343109,10.0205405 C1.08211144,10.0205405 1.1744868,10.1299155 1.1744868,10.2705405 C1.1744868,10.4111655 1.06891496,10.5205405 0.963343109,10.5205405 Z"></path>
                            <path d="M0.963343109,9.62108108 L0.211143695,9.62108108 C0.0923753666,9.62108108 -1.13686838e-13,9.51170608 -1.13686838e-13,9.37108108 C-1.13686838e-13,9.23045608 0.0923753666,9.12108108 0.211143695,9.12108108 L0.963343109,9.12108108 C1.08211144,9.12108108 1.1744868,9.23045608 1.1744868,9.37108108 C1.1744868,9.51170608 1.06891496,9.62108108 0.963343109,9.62108108 Z"></path>
                            <path d="M0.963343109,8.70756757 L0.211143695,8.70756757 C0.0923753666,8.70756757 -1.13686838e-13,8.59819257 -1.13686838e-13,8.45756757 C-1.13686838e-13,8.31694257 0.0923753666,8.20756757 0.211143695,8.20756757 L0.963343109,8.20756757 C1.08211144,8.20756757 1.1744868,8.31694257 1.1744868,8.45756757 C1.1744868,8.59819257 1.06891496,8.70756757 0.963343109,8.70756757 Z"></path>
                            <path d="M0.963343109,7.80810811 L0.211143695,7.80810811 C0.0923753666,7.80810811 -1.13686838e-13,7.69873311 -1.13686838e-13,7.55810811 C-1.13686838e-13,7.41748311 0.0923753666,7.30810811 0.211143695,7.30810811 L0.963343109,7.30810811 C1.08211144,7.30810811 1.1744868,7.41748311 1.1744868,7.55810811 C1.1744868,7.69873311 1.06891496,7.80810811 0.963343109,7.80810811 Z"></path>
                            <path d="M0.963343109,6.90864865 L0.211143695,6.90864865 C0.0923753666,6.90864865 -1.13686838e-13,6.79927365 -1.13686838e-13,6.65864865 C-1.13686838e-13,6.51802365 0.0923753666,6.40864865 0.211143695,6.40864865 L0.963343109,6.40864865 C1.08211144,6.40864865 1.1744868,6.51802365 1.1744868,6.65864865 C1.1744868,6.79927365 1.06891496,6.90864865 0.963343109,6.90864865 Z"></path>
                            <path d="M0.963343109,6.00918919 L0.211143695,6.00918919 C0.0923753666,6.00918919 -1.13686838e-13,5.89981419 -1.13686838e-13,5.75918919 C-1.13686838e-13,5.61856419 0.0923753666,5.50918919 0.211143695,5.50918919 L0.963343109,5.50918919 C1.08211144,5.50918919 1.1744868,5.61856419 1.1744868,5.75918919 C1.1744868,5.89981419 1.06891496,6.00918919 0.963343109,6.00918919 Z"></path>
                            <path d="M0.963343109,5.09567568 L0.211143695,5.09567568 C0.0923753666,5.09567568 -1.13686838e-13,4.98630068 -1.13686838e-13,4.84567568 C-1.13686838e-13,4.70505068 0.0923753666,4.59567568 0.211143695,4.59567568 L0.963343109,4.59567568 C1.08211144,4.59567568 1.1744868,4.70505068 1.1744868,4.84567568 C1.1744868,4.98630068 1.06891496,5.09567568 0.963343109,5.09567568 Z"></path>
                            <path d="M0.963343109,4.19621622 L0.211143695,4.19621622 C0.0923753666,4.19621622 -1.13686838e-13,4.08684122 -1.13686838e-13,3.94621622 C-1.13686838e-13,3.80559122 0.0923753666,3.69621622 0.211143695,3.69621622 L0.963343109,3.69621622 C1.08211144,3.69621622 1.1744868,3.80559122 1.1744868,3.94621622 C1.1744868,4.08684122 1.06891496,4.19621622 0.963343109,4.19621622 Z"></path>
                            <path d="M0.963343109,3.29675676 L0.211143695,3.29675676 C0.0923753666,3.29675676 -1.13686838e-13,3.18738176 -1.13686838e-13,3.04675676 C-1.13686838e-13,2.90613176 0.0923753666,2.79675676 0.211143695,2.79675676 L0.963343109,2.79675676 C1.08211144,2.79675676 1.1744868,2.90613176 1.1744868,3.04675676 C1.1744868,3.18738176 1.06891496,3.29675676 0.963343109,3.29675676 Z"></path>
                            <path d="M0.963343109,2.3972973 L0.211143695,2.3972973 C0.0923753666,2.3972973 -1.13686838e-13,2.2879223 -1.13686838e-13,2.1472973 C-1.13686838e-13,2.0066723 0.0923753666,1.8972973 0.211143695,1.8972973 L0.963343109,1.8972973 C1.08211144,1.8972973 1.1744868,2.0066723 1.1744868,2.1472973 C1.1744868,2.2879223 1.06891496,2.3972973 0.963343109,2.3972973 Z"></path>
                            <path d="M0.963343109,1.48378378 L0.211143695,1.48378378 C0.0923753666,1.48378378 -1.13686838e-13,1.37440878 -1.13686838e-13,1.23378378 C-1.13686838e-13,1.09315878 0.0923753666,0.983783784 0.211143695,0.983783784 L0.963343109,0.983783784 C1.08211144,0.983783784 1.1744868,1.09315878 1.1744868,1.23378378 C1.1744868,1.37440878 1.06891496,1.48378378 0.963343109,1.48378378 Z"></path>
                            <path d="M0.963343109,0.584324324 L0.211143695,0.584324324 C0.0923753666,0.584324324 -1.13686838e-13,0.474949324 -1.13686838e-13,0.334324324 C-1.13686838e-13,0.193699324 0.0923753666,0.0843243243 0.211143695,0.0843243243 L0.963343109,0.0843243243 C1.08211144,0.0843243243 1.1744868,0.193699324 1.1744868,0.334324324 C1.1744868,0.474949324 1.06891496,0.584324324 0.963343109,0.584324324 Z"></path>
                        </g>
                        <path d="M1.49120235,8.82 L0.739002933,8.82 C0.620234604,8.82 0.527859238,8.710625 0.527859238,8.57 C0.527859238,8.429375 0.620234604,8.32 0.739002933,8.32 L1.49120235,8.32 C1.60997067,8.32 1.70234604,8.429375 1.70234604,8.57 C1.70234604,8.710625 1.59677419,8.82 1.49120235,8.82 Z" id="Shape" fill="#000000"></path>
                        <path d="M1.49120235,7.92054054 L0.739002933,7.92054054 C0.620234604,7.92054054 0.527859238,7.81116554 0.527859238,7.67054054 C0.527859238,7.52991554 0.620234604,7.42054054 0.739002933,7.42054054 L1.49120235,7.42054054 C1.60997067,7.42054054 1.70234604,7.52991554 1.70234604,7.67054054 C1.70234604,7.81116554 1.59677419,7.92054054 1.49120235,7.92054054 Z" id="Shape" fill="#000000"></path>
                        <path d="M1.49120235,7.00702703 L0.739002933,7.00702703 C0.620234604,7.00702703 0.527859238,6.89765203 0.527859238,6.75702703 C0.527859238,6.61640203 0.620234604,6.50702703 0.739002933,6.50702703 L1.49120235,6.50702703 C1.60997067,6.50702703 1.70234604,6.61640203 1.70234604,6.75702703 C1.70234604,6.89765203 1.59677419,7.00702703 1.49120235,7.00702703 Z" id="Shape" fill="#000000"></path>
                        <path d="M1.49120235,6.10756757 L0.739002933,6.10756757 C0.620234604,6.10756757 0.527859238,5.99819257 0.527859238,5.85756757 C0.527859238,5.71694257 0.620234604,5.60756757 0.739002933,5.60756757 L1.49120235,5.60756757 C1.60997067,5.60756757 1.70234604,5.71694257 1.70234604,5.85756757 C1.70234604,5.99819257 1.59677419,6.10756757 1.49120235,6.10756757 Z" id="Shape" fill="#000000"></path>
                        <path d="M1.49120235,5.20810811 L0.739002933,5.20810811 C0.620234604,5.20810811 0.527859238,5.09873311 0.527859238,4.95810811 C0.527859238,4.81748311 0.620234604,4.70810811 0.739002933,4.70810811 L1.49120235,4.70810811 C1.60997067,4.70810811 1.70234604,4.81748311 1.70234604,4.95810811 C1.70234604,5.09873311 1.59677419,5.20810811 1.49120235,5.20810811 Z" id="Shape" fill="#000000"></path>
                        <path d="M1.49120235,4.30864865 L0.739002933,4.30864865 C0.620234604,4.30864865 0.527859238,4.19927365 0.527859238,4.05864865 C0.527859238,3.91802365 0.620234604,3.80864865 0.739002933,3.80864865 L1.49120235,3.80864865 C1.60997067,3.80864865 1.70234604,3.91802365 1.70234604,4.05864865 C1.70234604,4.19927365 1.59677419,4.30864865 1.49120235,4.30864865 Z" id="Shape" fill="#000000"></path>
                        <path d="M1.49120235,3.39513514 L0.739002933,3.39513514 C0.620234604,3.39513514 0.527859238,3.28576014 0.527859238,3.14513514 C0.527859238,3.00451014 0.620234604,2.89513514 0.739002933,2.89513514 L1.49120235,2.89513514 C1.60997067,2.89513514 1.70234604,3.00451014 1.70234604,3.14513514 C1.70234604,3.28576014 1.59677419,3.39513514 1.49120235,3.39513514 Z" id="Shape" fill="#000000"></path>
                        <path d="M1.49120235,2.49567568 L0.739002933,2.49567568 C0.620234604,2.49567568 0.527859238,2.38630068 0.527859238,2.24567568 C0.527859238,2.10505068 0.620234604,1.99567568 0.739002933,1.99567568 L1.49120235,1.99567568 C1.60997067,1.99567568 1.70234604,2.10505068 1.70234604,2.24567568 C1.70234604,2.38630068 1.59677419,2.49567568 1.49120235,2.49567568 Z" id="Shape" fill="#000000"></path>
                        <rect id="Rectangle-path" fill="#000000" x="0.527859238" y="0.0562162162" width="1.22727273" height="2.08"></rect>
                        <polygon id="Shape" fill="#000000" points="0.923753666 1.11027027 0.0131964809 3.44324324 2.2170088 3.44324324 1.30645161 1.11027027"></polygon>
                        <ellipse id="Oval" fill="#CC9E5C" cx="1.14809384" cy="2.62810811" rx="1" ry="1"></ellipse>
                    </g>
                    <path d="M1.49120235,25.0664865 L0.739002933,25.0664865 C0.620234604,25.0664865 0.527859238,24.9571115 0.527859238,24.8164865 C0.527859238,24.6758615 0.620234604,24.5664865 0.739002933,24.5664865 L1.49120235,24.5664865 C1.60997067,24.5664865 1.70234604,24.6758615 1.70234604,24.8164865 C1.70234604,24.9571115 1.59677419,25.0664865 1.49120235,25.0664865 Z" id="Shape" fill="#000000"></path>
                </g>
                <g opacity="0.2" transform="translate(25.865103, 0.983784)" fill="#FFFFFF" id="Shape">
                    <g>
                        <path d="M0.0263929619,4.00540541 C2.61290323,6.54918919 4.11730205,7.43459459 5.25219941,8.06702703 C6.40029326,8.69945946 8.73607038,8.22162162 9.72580645,12.8594595 C10.7155425,17.4972973 12.813783,25.6205405 12.9985337,29.3167568 C13.1832845,33.012973 13.9354839,48.8940541 14.0674487,50.5664865 C14.8592375,50.5383784 16.4692082,50.4681081 16.4692082,50.4681081 L16.0205279,41.0237838 C16.0205279,41.0237838 15.3739003,29.1621622 15.2419355,28.2064865 C15.1099707,27.2508108 11.7844575,10.1891892 11.7844575,10.1891892 C11.7844575,10.1891892 10.7815249,8.29189189 10.1217009,7.71567568 C9.46187683,7.13945946 5.63489736,4.31459459 2.79765396,3.75243243 C2.36217009,2.57189189 0.395894428,0 0.395894428,0 L0.0263929619,4.00540541 Z"></path>
                    </g>
                </g>
                <g transform="translate(20.586510, 44.691892)" fill="#000000" id="Shape">
                    <g transform="translate(0.000000, 0.983784)">
                        <path d="M1.1085044,0.528108108 L0.356304985,0.528108108 C0.237536657,0.528108108 0.14516129,0.418733108 0.14516129,0.278108108 C0.14516129,0.137483108 0.237536657,0.0281081081 0.356304985,0.0281081081 L1.1085044,0.0281081081 C1.22727273,0.0281081081 1.31964809,0.137483108 1.31964809,0.278108108 C1.31964809,0.418733108 1.22727273,0.528108108 1.1085044,0.528108108 Z"></path>
                        <path d="M1.1085044,1.42756757 L0.356304985,1.42756757 C0.237536657,1.42756757 0.14516129,1.31819257 0.14516129,1.17756757 C0.14516129,1.03694257 0.237536657,0.927567568 0.356304985,0.927567568 L1.1085044,0.927567568 C1.22727273,0.927567568 1.31964809,1.03694257 1.31964809,1.17756757 C1.31964809,1.31819257 1.22727273,1.42756757 1.1085044,1.42756757 Z"></path>
                        <path d="M1.1085044,2.32702703 L0.356304985,2.32702703 C0.237536657,2.32702703 0.14516129,2.21765203 0.14516129,2.07702703 C0.14516129,1.93640203 0.237536657,1.82702703 0.356304985,1.82702703 L1.1085044,1.82702703 C1.22727273,1.82702703 1.31964809,1.93640203 1.31964809,2.07702703 C1.31964809,2.21765203 1.22727273,2.32702703 1.1085044,2.32702703 Z"></path>
                        <path d="M1.1085044,3.24054054 L0.356304985,3.24054054 C0.237536657,3.24054054 0.14516129,3.13116554 0.14516129,2.99054054 C0.14516129,2.84991554 0.237536657,2.74054054 0.356304985,2.74054054 L1.1085044,2.74054054 C1.22727273,2.74054054 1.31964809,2.84991554 1.31964809,2.99054054 C1.31964809,3.13116554 1.22727273,3.24054054 1.1085044,3.24054054 Z"></path>
                        <path d="M1.1085044,4.14 L0.356304985,4.14 C0.237536657,4.14 0.14516129,4.030625 0.14516129,3.89 C0.14516129,3.749375 0.237536657,3.64 0.356304985,3.64 L1.1085044,3.64 C1.22727273,3.64 1.31964809,3.749375 1.31964809,3.89 C1.31964809,4.030625 1.22727273,4.14 1.1085044,4.14 Z"></path>
                        <path d="M0.316715543,6.04324324 C0.197947214,6.04324324 0.105571848,5.94486486 0.105571848,5.81837838 L0.105571848,4.76432432 C0.105571848,4.63783784 0.197947214,4.53945946 0.316715543,4.53945946 L1.31964809,4.53945946 C1.43841642,4.53945946 1.53079179,4.63783784 1.53079179,4.76432432 L1.53079179,5.73405405 C1.53079179,5.86054054 1.43841642,5.95891892 1.31964809,5.95891892 C1.20087977,5.95891892 1.1085044,5.86054054 1.1085044,5.73405405 L1.1085044,4.98918919 L0.527859238,4.98918919 L0.527859238,5.81837838 C0.527859238,5.94486486 0.42228739,6.04324324 0.316715543,6.04324324 Z"></path>
                    </g>
                    <path d="M1.1085044,0.612432432 L0.356304985,0.612432432 C0.237536657,0.612432432 0.14516129,0.503057432 0.14516129,0.362432432 C0.14516129,0.221807432 0.237536657,0.112432432 0.356304985,0.112432432 L1.1085044,0.112432432 C1.22727273,0.112432432 1.31964809,0.221807432 1.31964809,0.362432432 C1.31964809,0.503057432 1.22727273,0.612432432 1.1085044,0.612432432 Z"></path>
                </g>
                <g transform="translate(21.510264, 17.145946)" fill="#000000" id="Shape">
                    <g transform="translate(0.000000, 0.983784)">
                        <path d="M1.35923754,0.618378378 C1.34604106,0.618378378 1.33284457,0.618378378 1.31964809,0.618378378 L0.580645161,0.44972973 C0.461876833,0.421621622 0.395894428,0.309189189 0.42228739,0.182702703 C0.448680352,0.0562162162 0.554252199,-0.0140540541 0.673020528,0.0140540541 L1.41202346,0.182702703 C1.53079179,0.210810811 1.59677419,0.323243243 1.57038123,0.44972973 C1.54398827,0.548108108 1.46480938,0.618378378 1.35923754,0.618378378 Z"></path>
                        <path d="M1.18768328,1.48972973 C1.1744868,1.48972973 1.16129032,1.48972973 1.14809384,1.48972973 L0.409090909,1.32108108 C0.290322581,1.29297297 0.224340176,1.18054054 0.250733138,1.05405405 C0.2771261,0.927567568 0.382697947,0.857297297 0.501466276,0.885405405 L1.24046921,1.05405405 C1.35923754,1.08216216 1.42521994,1.19459459 1.39882698,1.32108108 C1.37243402,1.41945946 1.28005865,1.48972973 1.18768328,1.48972973 Z"></path>
                        <path d="M1.01612903,2.37513514 C1.00293255,2.37513514 0.98973607,2.37513514 0.976539589,2.37513514 L0.237536657,2.20648649 C0.118768328,2.17837838 0.0527859238,2.06594595 0.0791788856,1.93945946 C0.105571848,1.81297297 0.211143695,1.7427027 0.329912023,1.77081081 L1.06891496,1.93945946 C1.18768328,1.96756757 1.25366569,2.08 1.22727273,2.20648649 C1.20087977,2.30486486 1.1085044,2.37513514 1.01612903,2.37513514 Z"></path>
                    </g>
                    <path d="M1.54398827,0.716756757 C1.53079179,0.716756757 1.51759531,0.716756757 1.50439883,0.716756757 L0.765395894,0.548108108 C0.646627566,0.52 0.580645161,0.407567568 0.607038123,0.281081081 C0.633431085,0.154594595 0.739002933,0.0843243243 0.857771261,0.112432432 L1.59677419,0.281081081 C1.71554252,0.309189189 1.78152493,0.421621622 1.75513196,0.548108108 C1.728739,0.646486486 1.63636364,0.716756757 1.54398827,0.716756757 Z"></path>
                </g>
                <g transform="translate(22.302053, 13.772973)" fill="#000000" id="Shape">
                    <g transform="translate(0.000000, 0.843243)">
                        <path d="M1.63636364,0.857297297 C1.60997067,0.857297297 1.58357771,0.857297297 1.55718475,0.843243243 L0.857771261,0.548108108 C0.752199413,0.505945946 0.69941349,0.365405405 0.739002933,0.252972973 C0.778592375,0.140540541 0.910557185,0.0843243243 1.01612903,0.126486486 L1.71554252,0.421621622 C1.82111437,0.463783784 1.87390029,0.604324324 1.83431085,0.716756757 C1.79472141,0.801081081 1.71554252,0.857297297 1.63636364,0.857297297 Z"></path>
                        <path d="M1.31964809,1.68648649 C1.29325513,1.68648649 1.26686217,1.68648649 1.24046921,1.67243243 L0.541055718,1.3772973 C0.435483871,1.33513514 0.382697947,1.19459459 0.42228739,1.08216216 C0.461876833,0.96972973 0.593841642,0.913513514 0.69941349,0.955675676 L1.39882698,1.25081081 C1.50439883,1.29297297 1.55718475,1.43351351 1.51759531,1.54594595 C1.47800587,1.64432432 1.39882698,1.68648649 1.31964809,1.68648649 Z"></path>
                        <path d="M1.00293255,2.52972973 C0.976539589,2.52972973 0.950146628,2.52972973 0.923753666,2.51567568 L0.224340176,2.22054054 C0.118768328,2.17837838 0.0659824047,2.03783784 0.105571848,1.92540541 C0.14516129,1.81297297 0.2771261,1.75675676 0.382697947,1.79891892 L1.08211144,2.09405405 C1.18768328,2.13621622 1.24046921,2.27675676 1.20087977,2.38918919 C1.16129032,2.47351351 1.08211144,2.52972973 1.00293255,2.52972973 Z"></path>
                    </g>
                    <path d="M1.95307918,0.871351351 C1.92668622,0.871351351 1.90029326,0.871351351 1.87390029,0.857297297 L1.1744868,0.562162162 C1.06891496,0.52 1.01612903,0.379459459 1.05571848,0.267027027 C1.09530792,0.154594595 1.22727273,0.0983783784 1.33284457,0.140540541 L2.03225806,0.435675676 C2.13782991,0.477837838 2.19061584,0.618378378 2.15102639,0.730810811 C2.11143695,0.815135135 2.03225806,0.871351351 1.95307918,0.871351351 Z"></path>
                </g>
                <g transform="translate(23.621701, 10.540541)" fill="#000000" id="Shape">
                    <g transform="translate(0.000000, 0.843243)">
                        <path d="M1.79472141,0.857297297 C1.75513196,0.857297297 1.71554252,0.843243243 1.68914956,0.829189189 L1.04252199,0.421621622 C0.936950147,0.365405405 0.910557185,0.224864865 0.963343109,0.112432432 C1.01612903,9.06482097e-15 1.14809384,-0.0281081081 1.25366569,0.0281081081 L1.90029326,0.435675676 C2.0058651,0.491891892 2.03225806,0.632432432 1.97947214,0.744864865 C1.9398827,0.829189189 1.87390029,0.857297297 1.79472141,0.857297297 Z"></path>
                        <path d="M1.37243402,1.63027027 C1.33284457,1.63027027 1.29325513,1.61621622 1.26686217,1.60216216 L0.620234604,1.19459459 C0.514662757,1.13837838 0.488269795,0.997837838 0.541055718,0.885405405 C0.593841642,0.772972973 0.725806452,0.744864865 0.831378299,0.801081081 L1.47800587,1.20864865 C1.58357771,1.26486486 1.60997067,1.40540541 1.55718475,1.51783784 C1.50439883,1.60216216 1.43841642,1.63027027 1.37243402,1.63027027 Z"></path>
                        <path d="M0.936950147,2.4172973 C0.897360704,2.4172973 0.857771261,2.40324324 0.831378299,2.38918919 L0.184750733,1.98162162 C0.0791788856,1.92540541 0.0527859238,1.78486486 0.105571848,1.67243243 C0.158357771,1.56 0.290322581,1.53189189 0.395894428,1.58810811 L1.04252199,1.99567568 C1.14809384,2.05189189 1.1744868,2.19243243 1.12170088,2.30486486 C1.08211144,2.37513514 1.00293255,2.4172973 0.936950147,2.4172973 Z"></path>
                    </g>
                    <path d="M2.23020528,0.927567568 C2.19061584,0.927567568 2.15102639,0.913513514 2.12463343,0.899459459 L1.47800587,0.491891892 C1.37243402,0.435675676 1.34604106,0.295135135 1.39882698,0.182702703 C1.4516129,0.0702702703 1.58357771,0.0421621622 1.68914956,0.0983783784 L2.33577713,0.505945946 C2.44134897,0.562162162 2.46774194,0.702702703 2.41495601,0.815135135 C2.36217009,0.885405405 2.29618768,0.927567568 2.23020528,0.927567568 Z"></path>
                </g>
                <g transform="translate(19.266862, 17.145946)" fill="#000000" id="Shape">
                    <g transform="translate(0.263930, 0.843243)">
                        <path d="M0.237536657,0.758918919 C0.14516129,0.758918919 0.0527859238,0.688648649 0.0263929619,0.576216216 C-4.97171748e-15,0.44972973 0.0791788856,0.337297297 0.184750733,0.309189189 L0.923753666,0.140540541 C1.04252199,0.112432432 1.14809384,0.196756757 1.1744868,0.309189189 C1.20087977,0.421621622 1.12170088,0.548108108 1.01612903,0.576216216 L0.2771261,0.744864865 C0.263929619,0.758918919 0.250733138,0.758918919 0.237536657,0.758918919 Z"></path>
                        <path d="M0.409090909,1.63027027 C0.316715543,1.63027027 0.224340176,1.56 0.197947214,1.44756757 C0.171554252,1.32108108 0.250733138,1.20864865 0.356304985,1.18054054 L1.09530792,1.01189189 C1.21407625,0.983783784 1.31964809,1.06810811 1.34604106,1.18054054 C1.37243402,1.30702703 1.29325513,1.41945946 1.18768328,1.44756757 L0.448680352,1.61621622 C0.435483871,1.63027027 0.42228739,1.63027027 0.409090909,1.63027027 Z"></path>
                        <path d="M0.580645161,2.51567568 C0.488269795,2.51567568 0.395894428,2.44540541 0.369501466,2.33297297 C0.343108504,2.20648649 0.42228739,2.09405405 0.527859238,2.06594595 L1.26686217,1.8972973 C1.3856305,1.86918919 1.49120235,1.95351351 1.51759531,2.06594595 C1.54398827,2.19243243 1.46480938,2.30486486 1.35923754,2.33297297 L0.620234604,2.50162162 C0.607038123,2.51567568 0.593841642,2.51567568 0.580645161,2.51567568 Z"></path>
                    </g>
                    <path d="M0.329912023,0.716756757 C0.237536657,0.716756757 0.14516129,0.646486486 0.118768328,0.534054054 C0.0923753666,0.407567568 0.171554252,0.295135135 0.2771261,0.267027027 L1.01612903,0.0983783784 C1.13489736,0.0702702703 1.24046921,0.154594595 1.26686217,0.267027027 C1.29325513,0.393513514 1.21407625,0.505945946 1.1085044,0.534054054 L0.369501466,0.702702703 C0.356304985,0.716756757 0.343108504,0.716756757 0.329912023,0.716756757 Z"></path>
                </g>
                <g opacity="0.1" transform="translate(9.897361, 22.064865)" fill="#000000" id="Shape">
                    <g>
                        <path d="M0.0131964809,0.0702702703 C1.41202346,2.86702703 3.3914956,17.7362162 3.41788856,28.9091892 C1.78152493,28.1362162 0.501466276,27.6724324 0.501466276,27.6724324 L0.857771261,13.8010811 L0.0131964809,0.0702702703 Z"></path>
                    </g>
                </g>
                <g opacity="0.1" transform="translate(29.164223, 22.064865)" fill="#000000" id="Shape">
                    <g>
                        <path d="M3.51026393,0.0702702703 C2.11143695,2.86702703 0.131964809,17.7362162 0.105571848,28.9091892 C1.74193548,28.1362162 3.02199413,27.6724324 3.02199413,27.6724324 L2.66568915,13.8010811 L3.51026393,0.0702702703 Z"></path>
                    </g>
                </g>
                <g transform="translate(18.079179, 13.772973)" fill="#000000" id="Shape">
                    <g transform="translate(0.395894, 0.843243)">
                        <path d="M0.224340176,0.857297297 C0.14516129,0.857297297 0.0659824047,0.801081081 0.0263929619,0.716756757 C-0.0131964809,0.604324324 0.0395894428,0.477837838 0.14516129,0.421621622 L0.84457478,0.126486486 C0.950146628,0.0843243243 1.06891496,0.140540541 1.12170088,0.252972973 C1.16129032,0.365405405 1.1085044,0.491891892 1.00293255,0.548108108 L0.303519062,0.843243243 C0.2771261,0.857297297 0.250733138,0.857297297 0.224340176,0.857297297 Z"></path>
                        <path d="M0.541055718,1.68648649 C0.461876833,1.68648649 0.382697947,1.63027027 0.343108504,1.54594595 C0.303519062,1.43351351 0.356304985,1.30702703 0.461876833,1.25081081 L1.16129032,0.955675676 C1.26686217,0.913513514 1.3856305,0.96972973 1.43841642,1.08216216 C1.47800587,1.19459459 1.42521994,1.32108108 1.31964809,1.3772973 L0.620234604,1.67243243 C0.593841642,1.68648649 0.56744868,1.68648649 0.541055718,1.68648649 Z"></path>
                        <path d="M0.857771261,2.52972973 C0.778592375,2.52972973 0.69941349,2.47351351 0.659824047,2.38918919 C0.620234604,2.27675676 0.673020528,2.15027027 0.778592375,2.09405405 L1.47800587,1.79891892 C1.58357771,1.75675676 1.70234604,1.81297297 1.75513196,1.92540541 C1.79472141,2.03783784 1.74193548,2.16432432 1.63636364,2.22054054 L0.936950147,2.51567568 C0.910557185,2.51567568 0.884164223,2.52972973 0.857771261,2.52972973 Z"></path>
                    </g>
                    <path d="M0.303519062,0.871351351 C0.224340176,0.871351351 0.14516129,0.815135135 0.105571848,0.730810811 C0.0659824047,0.618378378 0.118768328,0.491891892 0.224340176,0.435675676 L0.923753666,0.140540541 C1.02932551,0.0983783784 1.14809384,0.154594595 1.20087977,0.267027027 C1.25366569,0.379459459 1.18768328,0.505945946 1.08211144,0.562162162 L0.382697947,0.857297297 C0.356304985,0.857297297 0.329912023,0.871351351 0.303519062,0.871351351 Z"></path>
                </g>
                <g transform="translate(16.495601, 10.540541)" fill="#000000" id="Shape">
                    <g transform="translate(0.395894, 0.843243)">
                        <path d="M0.329912023,0.857297297 C0.263929619,0.857297297 0.184750733,0.815135135 0.14516129,0.744864865 C0.0923753666,0.632432432 0.118768328,0.505945946 0.224340176,0.435675676 L0.870967742,0.0281081081 C0.976539589,-0.0281081081 1.09530792,-9.91969269e-15 1.16129032,0.112432432 C1.21407625,0.224864865 1.18768328,0.351351351 1.08211144,0.421621622 L0.435483871,0.829189189 C0.409090909,0.857297297 0.369501466,0.857297297 0.329912023,0.857297297 Z"></path>
                        <path d="M0.765395894,1.63027027 C0.69941349,1.63027027 0.620234604,1.58810811 0.580645161,1.51783784 C0.527859238,1.40540541 0.554252199,1.27891892 0.659824047,1.20864865 L1.30645161,0.801081081 C1.41202346,0.744864865 1.53079179,0.772972973 1.59677419,0.885405405 C1.64956012,0.997837838 1.62316716,1.12432432 1.51759531,1.19459459 L0.870967742,1.60216216 C0.831378299,1.63027027 0.791788856,1.63027027 0.765395894,1.63027027 Z"></path>
                        <path d="M1.18768328,2.4172973 C1.12170088,2.4172973 1.04252199,2.37513514 1.00293255,2.30486486 C0.950146628,2.19243243 0.976539589,2.06594595 1.08211144,1.99567568 L1.728739,1.58810811 C1.83431085,1.53189189 1.95307918,1.56 2.01906158,1.67243243 C2.07184751,1.78486486 2.04545455,1.91135135 1.9398827,1.98162162 L1.29325513,2.38918919 C1.26686217,2.40324324 1.22727273,2.4172973 1.18768328,2.4172973 Z"></path>
                    </g>
                    <path d="M0.290322581,0.927567568 C0.224340176,0.927567568 0.14516129,0.885405405 0.105571848,0.815135135 C0.0527859238,0.702702703 0.0791788856,0.576216216 0.184750733,0.505945946 L0.831378299,0.0983783784 C0.936950147,0.0421621622 1.05571848,0.0702702703 1.12170088,0.182702703 C1.1744868,0.295135135 1.14809384,0.421621622 1.04252199,0.491891892 L0.395894428,0.899459459 C0.369501466,0.913513514 0.329912023,0.927567568 0.290322581,0.927567568 Z"></path>
                </g>
                <path d="M6.20234604,51.9859459 C6.20234604,51.9859459 6.20234604,51.9859459 6.20234604,51.9859459 L0.237536657,51.7189189 C0.105571848,51.7189189 0,51.5924324 0,51.4518919 C0.14516129,46.9686486 0.501466276,41.0237838 0.765395894,36.6810811 C0.936950147,33.8983784 1.06891496,31.6918919 1.09530792,30.7924324 C1.13489736,29.2183784 1.55718475,26.9837838 2.0058651,24.6227027 C2.23020528,23.4281081 2.46774194,22.1772973 2.66568915,20.9827027 C3.00879765,18.8464865 3.52346041,16.5275676 3.98533724,14.4897297 C4.2888563,13.1264865 4.55278592,11.9459459 4.69794721,11.1308108 C5.0542522,9.03675676 9.30351906,5.60756757 13.5659824,4.73621622 C13.6979472,4.70810811 13.829912,4.80648649 13.8431085,4.94702703 C13.8695015,5.08756757 13.7771261,5.22810811 13.6451613,5.24216216 C9.65982405,6.0572973 5.48973607,9.30378378 5.15982405,11.2291892 C5.01466276,12.0583784 4.75073314,13.2389189 4.44721408,14.6162162 C3.99853372,16.6540541 3.48387097,18.9589189 3.14076246,21.067027 C2.94281525,22.2756757 2.70527859,23.5264865 2.48093842,24.7210811 C2.03225806,27.0540541 1.62316716,29.2745946 1.58357771,30.8064865 C1.55718475,31.72 1.42521994,33.9264865 1.25366569,36.7091892 C0.98973607,40.9675676 0.633431085,46.7718919 0.488269795,51.212973 L5.96480938,51.4518919 C6.14956012,47.32 6.92815249,34.3762162 7.35043988,32.3664865 C7.41642229,32.0291892 7.49560117,31.6356757 7.58797654,31.1859459 C8.01026393,29.0497297 8.6568915,25.8313514 9.67302053,22.0508108 C9.69941349,21.9383784 9.80498534,21.8540541 9.92375367,21.8681081 C10.042522,21.8821622 10.1348974,21.9664865 10.1480938,22.092973 C10.1612903,22.1772973 10.9926686,30.1037838 10.9926686,36.5124324 C10.9926686,42.3027027 10.702346,48.3881081 10.6363636,49.5405405 C13.9090909,50.7491892 16.7859238,51.227027 20.8504399,51.227027 C20.9824047,51.227027 21.0879765,51.3394595 21.0879765,51.48 C21.0879765,51.6205405 20.9824047,51.732973 20.8504399,51.732973 C16.6671554,51.732973 13.7111437,51.2410811 10.3064516,49.9621622 C10.2008798,49.92 10.1348974,49.8216216 10.1480938,49.7091892 C10.1480938,49.6389189 10.5043988,42.892973 10.5043988,36.5124324 C10.5043988,31.7059459 10.0293255,26.0421622 9.79178886,23.4983784 C8.98680352,26.7027027 8.43255132,29.4151351 8.06304985,31.2983784 C7.97067449,31.7481081 7.8914956,32.1416216 7.8255132,32.4789189 C7.42961877,34.3621622 6.62463343,47.4043243 6.4398827,51.732973 C6.4398827,51.8735135 6.33431085,51.9859459 6.20234604,51.9859459 Z" id="Shape" fill="#000000"></path>
                <path d="M36.5542522,51.9859459 C36.4222874,51.9859459 36.3167155,51.8735135 36.3167155,51.732973 C36.1319648,47.4043243 35.3269795,34.3762162 34.931085,32.4789189 C34.8651026,32.1416216 34.7859238,31.7481081 34.6935484,31.2983784 C34.3240469,29.4151351 33.7697947,26.7027027 32.9648094,23.4983784 C32.7272727,26.0421622 32.2521994,31.7059459 32.2521994,36.5124324 C32.2521994,42.892973 32.6085044,49.6389189 32.6085044,49.7091892 C32.6085044,49.8216216 32.542522,49.9340541 32.4501466,49.9621622 C29.0454545,51.2410811 26.0894428,51.732973 21.9061584,51.732973 C21.7741935,51.732973 21.6686217,51.6205405 21.6686217,51.48 C21.6686217,51.3394595 21.7741935,51.227027 21.9061584,51.227027 C25.957478,51.227027 28.8475073,50.7491892 32.1202346,49.5405405 C32.0674487,48.3881081 31.7639296,42.3027027 31.7639296,36.5124324 C31.7639296,30.1037838 32.6085044,22.1632432 32.6085044,22.092973 C32.6217009,21.9664865 32.7140762,21.8821622 32.8328446,21.8681081 C32.9516129,21.8540541 33.0571848,21.9383784 33.0835777,22.0508108 C34.0865103,25.8313514 34.7331378,29.0497297 35.1686217,31.1859459 C35.2609971,31.6216216 35.340176,32.0151351 35.4061584,32.3664865 C35.8152493,34.3762162 36.6070381,47.3059459 36.7917889,51.4518919 L42.2683284,51.212973 C42.1231672,46.7718919 41.7668622,40.9675676 41.5029326,36.7091892 C41.3313783,33.9124324 41.1994135,31.72 41.1730205,30.8064865 C41.1334311,29.2745946 40.7111437,27.0681081 40.2756598,24.7210811 C40.0513196,23.5124324 39.813783,22.2756757 39.6158358,21.067027 C39.2727273,18.9448649 38.7580645,16.64 38.3093842,14.6162162 C38.0058651,13.2389189 37.7419355,12.0583784 37.5967742,11.2291892 C37.2668622,9.31783784 33.0967742,6.07135135 29.111437,5.24216216 C28.9794721,5.21405405 28.9002933,5.07351351 28.9134897,4.94702703 C28.9398827,4.80648649 29.058651,4.72216216 29.1906158,4.73621622 C33.4530792,5.62162162 37.702346,9.05081081 38.058651,11.1308108 C38.2038123,11.9459459 38.4677419,13.1264865 38.771261,14.4897297 C39.2331378,16.5275676 39.7478006,18.8464865 40.0909091,20.9827027 C40.2888563,22.1913514 40.526393,23.4281081 40.7507331,24.6227027 C41.1994135,26.9837838 41.6217009,29.2183784 41.6612903,30.7924324 C41.6876833,31.6918919 41.8196481,33.8983784 41.9912023,36.6810811 C42.255132,41.0237838 42.6246334,46.9686486 42.7565982,51.4518919 C42.7565982,51.5924324 42.6510264,51.7189189 42.5190616,51.7189189 L36.5542522,51.9859459 C36.5542522,51.9859459 36.5542522,51.9859459 36.5542522,51.9859459 Z" id="Shape" fill="#000000"></path>
                <path d="M21.6554252,20.8562162 C21.6422287,20.8562162 21.6290323,20.8562162 21.6158358,20.8562162 C21.483871,20.8421622 21.3914956,20.7016216 21.4178886,20.5610811 C21.6950147,18.5513514 22.6451613,15.3048649 23.872434,12.732973 C25.2580645,9.23351351 26.0630499,2.65621622 25.8914956,0.772972973 C25.8782991,0.660540541 25.9442815,0.562162162 26.0366569,0.505945946 C26.1290323,0.463783784 26.2478006,0.491891892 26.313783,0.576216216 C27.659824,2.22054054 30.8533724,7.84216216 31.3812317,9.03675676 C31.4208211,9.12108108 31.4076246,9.20540541 31.3680352,9.28972973 C31.3284457,9.36 31.2492669,9.41621622 31.170088,9.41621622 L27.0395894,9.41621622 C24.9941349,10.1891892 22.4340176,16.8227027 21.8929619,20.6313514 C21.8797654,20.7718919 21.7741935,20.8562162 21.6554252,20.8562162 Z M26.3929619,1.51783784 C26.3665689,3.52756757 25.8914956,7.4627027 25.0469208,10.6389189 C25.6539589,9.76756757 26.28739,9.13513514 26.9208211,8.91027027 C26.9472141,8.89621622 26.973607,8.89621622 27,8.89621622 L30.7741935,8.89621622 C30.0087977,7.40648649 27.7258065,3.41513514 26.3929619,1.51783784 Z" id="Shape" fill="#000000"></path>
                <path d="M20.9824047,20.8562162 C20.8636364,20.8562162 20.7580645,20.7578378 20.744868,20.6313514 C20.2170088,16.8227027 17.6568915,10.1891892 15.5982405,9.41621622 L11.4809384,9.41621622 C11.4017595,9.41621622 11.3225806,9.37405405 11.2829912,9.28972973 C11.2434018,9.21945946 11.2302053,9.12108108 11.2697947,9.03675676 C11.8108504,7.82810811 14.9912023,2.22054054 16.3372434,0.576216216 C16.4032258,0.491891892 16.5219941,0.463783784 16.6143695,0.505945946 C16.7067449,0.548108108 16.7727273,0.660540541 16.7595308,0.772972973 C16.5879765,2.65621622 17.3929619,9.23351351 18.7785924,12.732973 C20.0058651,15.3048649 20.9560117,18.5513514 21.2331378,20.5610811 C21.2463343,20.7016216 21.1671554,20.8281081 21.0351906,20.8562162 C21.0087977,20.8562162 20.9956012,20.8562162 20.9824047,20.8562162 Z M11.8768328,8.91027027 L15.6510264,8.91027027 C15.6774194,8.91027027 15.7038123,8.91027027 15.7302053,8.92432432 C16.3636364,9.13513514 16.9970674,9.76756757 17.6041056,10.652973 C16.7595308,7.4627027 16.2844575,3.54162162 16.2580645,1.53189189 C14.9120235,3.41513514 12.6290323,7.40648649 11.8768328,8.91027027 Z" id="Shape" fill="#000000"></path>
                <path d="M16.4956012,1.01189189 C16.3900293,1.01189189 16.297654,0.941621622 16.2580645,0.829189189 C16.2184751,0.688648649 16.297654,0.548108108 16.4164223,0.505945946 C18.356305,-0.112432432 24.4002933,-0.0281081081 26.1686217,0.505945946 C26.3005865,0.548108108 26.3665689,0.688648649 26.340176,0.829189189 C26.3005865,0.96972973 26.1686217,1.04 26.0366569,1.01189189 C24.3475073,0.505945946 18.3958944,0.421621622 16.5483871,1.01189189 C16.5483871,1.01189189 16.5219941,1.01189189 16.4956012,1.01189189 Z" id="Shape" fill="#000000"></path>
                <path d="M16.6671554,4.44108108 C16.5615836,4.44108108 16.4560117,4.35675676 16.4296188,4.24432432 C16.4032258,4.10378378 16.4824047,3.96324324 16.601173,3.93513514 C18.9237537,3.33081081 24.0571848,3.48540541 25.957478,3.79459459 C26.0894428,3.8227027 26.1818182,3.94918919 26.1554252,4.08972973 C26.1290323,4.23027027 26.0102639,4.32864865 25.8782991,4.30054054 C24.0703812,3.99135135 18.9501466,3.83675676 16.7199413,4.42702703 C16.7067449,4.44108108 16.6803519,4.44108108 16.6671554,4.44108108 Z" id="Shape" fill="#000000"></path>
                <path d="M36.2507331,48.4864865 C36.1187683,48.4864865 36.0131965,48.3740541 36.0131965,48.2335135 C36.0131965,48.092973 36.1187683,47.9664865 36.2507331,47.9664865 L42.255132,47.7275676 C42.3870968,47.7275676 42.5058651,47.84 42.5058651,47.9805405 C42.5058651,48.1210811 42.4002933,48.2475676 42.2683284,48.2475676 L36.2507331,48.4864865 C36.2507331,48.4864865 36.2507331,48.4864865 36.2507331,48.4864865 Z" id="Shape" fill="#000000"></path>
                <path d="M6.20234604,51.9859459 C6.20234604,51.9859459 6.20234604,51.9859459 6.20234604,51.9859459 L0.237536657,51.7189189 C0.171554252,51.7189189 0.105571848,51.6908108 0.0659824047,51.6345946 C0.0263929619,51.5783784 0,51.5221622 0,51.4518919 L0.197947214,47.9664865 C0.211143695,47.8259459 0.316715543,47.7135135 0.448680352,47.7275676 L6.34750733,47.9664865 C6.41348974,47.9664865 6.46627566,47.9945946 6.51906158,48.0508108 C6.55865103,48.107027 6.58504399,48.1632432 6.58504399,48.2335135 L6.4398827,51.732973 C6.4398827,51.8735135 6.33431085,51.9859459 6.20234604,51.9859459 Z M0.501466276,51.212973 L5.97800587,51.4518919 L6.09677419,48.4724324 L0.673020528,48.2475676 L0.501466276,51.212973 Z" id="Shape" fill="#000000"></path>
                <path d="M35.4721408,11.4681081 C35.3797654,11.4681081 35.3005865,11.4118919 35.2609971,11.3275676 C34.1920821,9.20540541 31.8035191,7.96864865 30.0747801,7.56108108 C29.9428152,7.53297297 29.8636364,7.39243243 29.8900293,7.25189189 C29.9164223,7.11135135 30.0483871,7.02702703 30.1803519,7.05513514 C31.9486804,7.47675676 34.3768328,8.72756757 35.5645161,10.8637838 C36.1979472,10.4983784 37.068915,9.88 37.0821114,9.86594595 C37.1876833,9.78162162 37.3460411,9.82378378 37.4120235,9.93621622 C37.4912023,10.0486486 37.4516129,10.2172973 37.3460411,10.2875676 C37.3064516,10.3156757 36.2375367,11.0745946 35.5777126,11.4259459 C35.5513196,11.4540541 35.5117302,11.4681081 35.4721408,11.4681081 Z" id="Shape" fill="#000000"></path>
                <path d="M7.21847507,11.4681081 C7.17888563,11.4681081 7.13929619,11.4540541 7.11290323,11.44 C6.45307918,11.0886486 5.38416422,10.3297297 5.34457478,10.3016216 C5.23900293,10.2172973 5.19941349,10.0627027 5.27859238,9.95027027 C5.35777126,9.83783784 5.50293255,9.79567568 5.6085044,9.88 C5.62170088,9.88 6.49266862,10.4983784 7.12609971,10.8778378 C8.31378299,8.74162162 10.7419355,7.49081081 12.5102639,7.06918919 C12.6422287,7.04108108 12.7741935,7.12540541 12.8005865,7.26594595 C12.8269795,7.40648649 12.7478006,7.54702703 12.6158358,7.57513514 C10.8870968,7.9827027 8.49853372,9.21945946 7.42961877,11.3416216 C7.39002933,11.4118919 7.31085044,11.4681081 7.21847507,11.4681081 Z" id="Shape" fill="#000000"></path>
                <path d="M1.14809384,37.44 C1.06891496,37.44 0.98973607,37.4259459 0.910557185,37.3978378 C0.804985337,37.3556757 0.739002933,37.2572973 0.739002933,37.1308108 C0.923753666,33.8421622 1.13489736,30.0194595 1.13489736,30.0194595 C1.13489736,30.0054054 1.13489736,29.9913514 1.13489736,29.9913514 L2.82404692,20.7156757 C2.8372434,20.6172973 2.91642229,20.532973 3.00879765,20.5189189 C3.10117302,20.4908108 3.19354839,20.532973 3.25953079,20.6032432 C5.3973607,23.4 4.59237537,30.3427027 4.42082111,31.7059459 C4.05131965,34.4464865 2.34897361,37.44 1.14809384,37.44 Z M1.62316716,30.0756757 C1.60997067,30.3427027 1.41202346,33.8140541 1.24046921,36.9059459 C2.04545455,36.7091892 3.58944282,34.1935135 3.93255132,31.6356757 C4.10410557,30.3848649 4.80351906,24.3135135 3.19354839,21.4183784 L1.62316716,30.0756757 Z" id="Shape" fill="#000000"></path>
                <path d="M39.7082111,20.7718919 C37.8739003,23.1751351 38.2302053,28.9091892 38.5997067,31.6778378 C38.9692082,34.4464865 40.6715543,37.4259459 41.6612903,37.0886486 C41.4765396,33.8 41.3841642,30.0475676 41.3841642,30.0475676 L39.7082111,20.7718919 Z" id="Shape" fill="#936044"></path>
                <path d="M41.6348974,37.44 C40.4340176,37.44 38.7316716,34.4464865 38.3621701,31.7059459 C38.1774194,30.3427027 37.3856305,23.4 39.5234604,20.6032432 C39.5762463,20.5189189 39.6818182,20.4908108 39.7741935,20.5189189 C39.8665689,20.547027 39.9325513,20.6172973 39.9589443,20.7156757 L41.6480938,29.9913514 C41.6480938,30.0054054 41.6480938,30.0194595 41.6480938,30.0194595 C41.6480938,30.0194595 41.8592375,33.8421622 42.0439883,37.1308108 C42.0571848,37.2432432 41.9780059,37.3556757 41.872434,37.3978378 C41.7932551,37.4259459 41.7140762,37.44 41.6348974,37.44 Z M39.5894428,21.4324324 C37.9926686,24.3275676 38.6920821,30.3989189 38.8504399,31.6497297 C39.1935484,34.2216216 40.7375367,36.7232432 41.542522,36.92 C41.3709677,33.8281081 41.1730205,30.3567568 41.159824,30.0897297 L39.5894428,21.4324324 Z" id="Shape" fill="#000000"></path>
            </g>
            <g id="Group">
                <path d="M13.6451613,4.98918919 C9.54105572,5.83243243 5.31818182,9.16324324 4.96187683,11.187027 C4.61876833,13.2108108 3.51026393,17.4410811 2.94281525,21.0248649 C2.36217009,24.6086486 1.43841642,28.4594595 1.3856305,30.8064865 C1.33284457,33.1535135 0.514662757,44.1718919 0.290322581,51.4659459 L6.25513196,51.732973 C6.42668622,47.6291892 7.24486804,34.3902703 7.64076246,32.4367568 C8.04985337,30.4832432 8.73607038,26.7027027 9.95014663,22.1351351 L9.76539589,49.7372973 C13.0645161,50.9740541 16.6803519,51.4940541 20.8900293,51.4940541 L20.9296188,50.44 L21.9325513,50.5243243 L21.9325513,51.4940541 C26.1422287,51.4940541 29.6392962,50.9740541 32.9252199,49.7372973 L32.7536657,22.1351351 C33.9677419,26.7027027 34.6671554,30.4832432 35.0630499,32.4367568 C35.4721408,34.3902703 36.2771261,47.6291892 36.4486804,51.732973 L42.4134897,51.4659459 C42.1759531,44.1718919 41.3709677,33.1535135 41.3181818,30.8064865 C41.2653959,28.4594595 40.3284457,24.6086486 39.7609971,21.0248649 C39.1803519,17.4410811 38.085044,13.1967568 37.7419355,11.187027 C37.398827,9.16324324 33.1759531,5.84648649 29.058651,4.98918919 C29.058651,4.98918919 26.7492669,1.51783784 26.4589443,1.13837838 C26.1686217,0.758918919 24.4926686,0.337297297 22.5791789,0.337297297 C20.6656891,0.337297297 17.5117302,0.210810811 16.2316716,1.15243243 C14.9516129,2.09405405 13.6451613,4.98918919 13.6451613,4.98918919 Z" id="Shape" fill="#CC9E5C"></path>
                <path d="M20.9560117,3.86486486 C20.9560117,3.83675676 20.9560117,3.80864865 20.9560117,3.78054054 C16.5879765,4.00540541 16.6143695,3.68216216 16.7859238,5.21405405 C16.9706745,6.74594595 19.4252199,15.6281081 20.1774194,18.0875676 C20.9296188,20.547027 21.2991202,20.6875676 21.2991202,20.6875676 C21.2991202,20.6875676 21.2991202,20.6735135 21.2991202,20.6594595 C21.3387097,20.6735135 21.3651026,20.6875676 21.3651026,20.6875676 C21.3651026,20.6875676 21.7346041,20.5610811 22.4868035,18.0875676 C23.2390029,15.6281081 25.6539589,6.73189189 25.8782991,5.21405405 C26.1554252,3.31675676 25.1260997,4.07567568 20.9560117,3.86486486 Z" id="Shape" fill="#4F372A"></path>
                <path d="M16.7595308,0.688648649 C16.2184751,1.15243243 16.2184751,4.04756757 16.7727273,4.17405405 C17.340176,4.28648649 20.2961877,3.80864865 21.5630499,3.8227027 C22.4076246,3.83675676 24.8489736,4.30054054 25.9178886,3.8227027 C26.4589443,3.58378378 26.1290323,2.71243243 26.1290323,2.22054054 C26.1554252,1.05405405 26.3533724,0.632432432 25.3240469,0.548108108 C24.3343109,0.463783784 18.3695015,0.182702703 16.7595308,0.688648649 Z" id="Shape" fill="#936044"></path>
                <path d="M16.5351906,0.758918919 C15.202346,2.38918919 12.0219941,7.99675676 11.5073314,9.16324324 C13.2492669,9.16324324 15.6774194,9.16324324 15.6774194,9.16324324 L14.0278592,11.3135135 L20.9692082,20.6032432 C20.9692082,20.6032432 17.8812317,10.667027 17.3533724,8.32 C16.8255132,5.97297297 16.3636364,2.64216216 16.5351906,0.758918919 Z" id="Shape" fill="#936044"></path>
                <g opacity="0.2" transform="translate(0.263930, 0.983784)" fill="#FFFFFF" id="Shape">
                    <g>
                        <path d="M16.4692082,4.00540541 C13.8826979,6.54918919 12.3782991,7.43459459 11.2434018,8.06702703 C10.1085044,8.69945946 7.75953079,8.22162162 6.76979472,12.8594595 C5.79325513,17.4972973 3.68181818,25.6205405 3.49706745,29.3167568 C3.31231672,33.012973 2.5601173,48.8940541 2.42815249,50.5664865 C1.63636364,50.5383784 0.0263929619,50.4681081 0.0263929619,50.4681081 L0.475073314,41.0237838 C0.475073314,41.0237838 1.12170088,29.1621622 1.25366569,28.2064865 C1.3856305,27.2508108 4.7111437,10.1891892 4.7111437,10.1891892 C4.7111437,10.1891892 5.71407625,8.29189189 6.37390029,7.71567568 C7.03372434,7.13945946 10.8607038,4.31459459 13.6979472,3.75243243 C14.1202346,2.57189189 16.0997067,0 16.0997067,0 L16.4692082,4.00540541 Z"></path>
                    </g>
                </g>
                <path d="M26.1554252,0.758918919 C27.4882698,2.38918919 30.6686217,7.99675676 31.1832845,9.16324324 C29.441349,9.16324324 27.0131965,9.16324324 27.0131965,9.16324324 L28.6627566,11.3135135 L21.6950147,20.7016216 C21.6950147,20.7016216 24.8093842,10.667027 25.3372434,8.32 C25.8651026,5.97297297 26.3269795,2.64216216 26.1554252,0.758918919 Z" id="Shape" fill="#936044"></path>
                <polygon id="Shape" fill="#936044" points="0.475073314 47.9805405 6.37390029 48.2194595 6.24193548 51.7189189 0.2771261 51.4659459"></polygon>
                <polygon id="Shape" fill="#936044" points="42.1231672 47.9805405 36.2243402 48.2194595 36.3695015 51.7189189 42.3343109 51.4659459"></polygon>
                <g transform="translate(11.348974, 38.648649)" fill="#936044" id="Shape">
                    <polygon points="16.7991202 0.112432432 19.9794721 7.63135135 18.9897361 9.05081081 15.3343109 1.02594595"></polygon>
                    <polygon points="3.19354839 0.112432432 0.0131964809 7.63135135 1.00293255 9.05081081 4.67155425 1.02594595"></polygon>
                </g>
                <g transform="translate(20.190616, 20.237838)">
                    <g>
                        <g transform="translate(0.527859, 9.135135)" fill="#000000" id="Shape">
                            <path d="M0.98973607,15.0318919 L0.237536657,15.0318919 C0.118768328,15.0318919 0.0263929619,14.9225169 0.0263929619,14.7818919 C0.0263929619,14.6412669 0.118768328,14.5318919 0.237536657,14.5318919 L0.98973607,14.5318919 C1.1085044,14.5318919 1.20087977,14.6412669 1.20087977,14.7818919 C1.20087977,14.9225169 1.1085044,15.0318919 0.98973607,15.0318919 Z"></path>
                            <path d="M0.98973607,14.1324324 L0.237536657,14.1324324 C0.118768328,14.1324324 0.0263929619,14.0230574 0.0263929619,13.8824324 C0.0263929619,13.7418074 0.118768328,13.6324324 0.237536657,13.6324324 L0.98973607,13.6324324 C1.1085044,13.6324324 1.20087977,13.7418074 1.20087977,13.8824324 C1.20087977,14.0230574 1.1085044,14.1324324 0.98973607,14.1324324 Z"></path>
                            <path d="M0.98973607,13.232973 L0.237536657,13.232973 C0.118768328,13.232973 0.0263929619,13.123598 0.0263929619,12.982973 C0.0263929619,12.842348 0.118768328,12.732973 0.237536657,12.732973 L0.98973607,12.732973 C1.1085044,12.732973 1.20087977,12.842348 1.20087977,12.982973 C1.20087977,13.123598 1.1085044,13.232973 0.98973607,13.232973 Z"></path>
                            <path d="M0.98973607,12.3194595 L0.237536657,12.3194595 C0.118768328,12.3194595 0.0263929619,12.2100845 0.0263929619,12.0694595 C0.0263929619,11.9288345 0.118768328,11.8194595 0.237536657,11.8194595 L0.98973607,11.8194595 C1.1085044,11.8194595 1.20087977,11.9288345 1.20087977,12.0694595 C1.20087977,12.2100845 1.1085044,12.3194595 0.98973607,12.3194595 Z"></path>
                            <path d="M0.98973607,11.42 L0.237536657,11.42 C0.118768328,11.42 0.0263929619,11.310625 0.0263929619,11.17 C0.0263929619,11.029375 0.118768328,10.92 0.237536657,10.92 L0.98973607,10.92 C1.1085044,10.92 1.20087977,11.029375 1.20087977,11.17 C1.20087977,11.310625 1.1085044,11.42 0.98973607,11.42 Z"></path>
                            <path d="M0.98973607,10.5205405 L0.237536657,10.5205405 C0.118768328,10.5205405 0.0263929619,10.4111655 0.0263929619,10.2705405 C0.0263929619,10.1299155 0.118768328,10.0205405 0.237536657,10.0205405 L0.98973607,10.0205405 C1.1085044,10.0205405 1.20087977,10.1299155 1.20087977,10.2705405 C1.20087977,10.4111655 1.1085044,10.5205405 0.98973607,10.5205405 Z"></path>
                            <path d="M0.98973607,9.62108108 L0.237536657,9.62108108 C0.118768328,9.62108108 0.0263929619,9.51170608 0.0263929619,9.37108108 C0.0263929619,9.23045608 0.118768328,9.12108108 0.237536657,9.12108108 L0.98973607,9.12108108 C1.1085044,9.12108108 1.20087977,9.23045608 1.20087977,9.37108108 C1.20087977,9.51170608 1.1085044,9.62108108 0.98973607,9.62108108 Z"></path>
                            <path d="M0.98973607,8.70756757 L0.237536657,8.70756757 C0.118768328,8.70756757 0.0263929619,8.59819257 0.0263929619,8.45756757 C0.0263929619,8.31694257 0.118768328,8.20756757 0.237536657,8.20756757 L0.98973607,8.20756757 C1.1085044,8.20756757 1.20087977,8.31694257 1.20087977,8.45756757 C1.20087977,8.59819257 1.1085044,8.70756757 0.98973607,8.70756757 Z"></path>
                            <path d="M0.98973607,7.80810811 L0.237536657,7.80810811 C0.118768328,7.80810811 0.0263929619,7.69873311 0.0263929619,7.55810811 C0.0263929619,7.41748311 0.118768328,7.30810811 0.237536657,7.30810811 L0.98973607,7.30810811 C1.1085044,7.30810811 1.20087977,7.41748311 1.20087977,7.55810811 C1.20087977,7.69873311 1.1085044,7.80810811 0.98973607,7.80810811 Z"></path>
                            <path d="M0.98973607,6.90864865 L0.237536657,6.90864865 C0.118768328,6.90864865 0.0263929619,6.79927365 0.0263929619,6.65864865 C0.0263929619,6.51802365 0.118768328,6.40864865 0.237536657,6.40864865 L0.98973607,6.40864865 C1.1085044,6.40864865 1.20087977,6.51802365 1.20087977,6.65864865 C1.20087977,6.79927365 1.1085044,6.90864865 0.98973607,6.90864865 Z"></path>
                            <path d="M0.98973607,6.00918919 L0.237536657,6.00918919 C0.118768328,6.00918919 0.0263929619,5.89981419 0.0263929619,5.75918919 C0.0263929619,5.61856419 0.118768328,5.50918919 0.237536657,5.50918919 L0.98973607,5.50918919 C1.1085044,5.50918919 1.20087977,5.61856419 1.20087977,5.75918919 C1.20087977,5.89981419 1.1085044,6.00918919 0.98973607,6.00918919 Z"></path>
                            <path d="M0.98973607,5.09567568 L0.237536657,5.09567568 C0.118768328,5.09567568 0.0263929619,4.98630068 0.0263929619,4.84567568 C0.0263929619,4.70505068 0.118768328,4.59567568 0.237536657,4.59567568 L0.98973607,4.59567568 C1.1085044,4.59567568 1.20087977,4.70505068 1.20087977,4.84567568 C1.20087977,4.98630068 1.1085044,5.09567568 0.98973607,5.09567568 Z"></path>
                            <path d="M0.98973607,4.19621622 L0.237536657,4.19621622 C0.118768328,4.19621622 0.0263929619,4.08684122 0.0263929619,3.94621622 C0.0263929619,3.80559122 0.118768328,3.69621622 0.237536657,3.69621622 L0.98973607,3.69621622 C1.1085044,3.69621622 1.20087977,3.80559122 1.20087977,3.94621622 C1.20087977,4.08684122 1.1085044,4.19621622 0.98973607,4.19621622 Z"></path>
                            <path d="M0.98973607,3.29675676 L0.237536657,3.29675676 C0.118768328,3.29675676 0.0263929619,3.18738176 0.0263929619,3.04675676 C0.0263929619,2.90613176 0.118768328,2.79675676 0.237536657,2.79675676 L0.98973607,2.79675676 C1.1085044,2.79675676 1.20087977,2.90613176 1.20087977,3.04675676 C1.20087977,3.18738176 1.1085044,3.29675676 0.98973607,3.29675676 Z"></path>
                            <path d="M0.98973607,2.3972973 L0.237536657,2.3972973 C0.118768328,2.3972973 0.0263929619,2.2879223 0.0263929619,2.1472973 C0.0263929619,2.0066723 0.118768328,1.8972973 0.237536657,1.8972973 L0.98973607,1.8972973 C1.1085044,1.8972973 1.20087977,2.0066723 1.20087977,2.1472973 C1.20087977,2.2879223 1.1085044,2.3972973 0.98973607,2.3972973 Z"></path>
                            <path d="M0.98973607,1.48378378 L0.237536657,1.48378378 C0.118768328,1.48378378 0.0263929619,1.37440878 0.0263929619,1.23378378 C0.0263929619,1.09315878 0.118768328,0.983783784 0.237536657,0.983783784 L0.98973607,0.983783784 C1.1085044,0.983783784 1.20087977,1.09315878 1.20087977,1.23378378 C1.20087977,1.37440878 1.1085044,1.48378378 0.98973607,1.48378378 Z"></path>
                            <path d="M0.98973607,0.584324324 L0.237536657,0.584324324 C0.118768328,0.584324324 0.0263929619,0.474949324 0.0263929619,0.334324324 C0.0263929619,0.193699324 0.118768328,0.0843243243 0.237536657,0.0843243243 L0.98973607,0.0843243243 C1.1085044,0.0843243243 1.20087977,0.193699324 1.20087977,0.334324324 C1.20087977,0.474949324 1.1085044,0.584324324 0.98973607,0.584324324 Z"></path>
                        </g>
                        <path d="M1.51759531,8.82 L0.765395894,8.82 C0.646627566,8.82 0.554252199,8.710625 0.554252199,8.57 C0.554252199,8.429375 0.646627566,8.32 0.765395894,8.32 L1.51759531,8.32 C1.63636364,8.32 1.728739,8.429375 1.728739,8.57 C1.728739,8.710625 1.63636364,8.82 1.51759531,8.82 Z" id="Shape" fill="#000000"></path>
                        <path d="M1.51759531,7.92054054 L0.765395894,7.92054054 C0.646627566,7.92054054 0.554252199,7.81116554 0.554252199,7.67054054 C0.554252199,7.52991554 0.646627566,7.42054054 0.765395894,7.42054054 L1.51759531,7.42054054 C1.63636364,7.42054054 1.728739,7.52991554 1.728739,7.67054054 C1.728739,7.81116554 1.63636364,7.92054054 1.51759531,7.92054054 Z" id="Shape" fill="#000000"></path>
                        <path d="M1.51759531,7.00702703 L0.765395894,7.00702703 C0.646627566,7.00702703 0.554252199,6.89765203 0.554252199,6.75702703 C0.554252199,6.61640203 0.646627566,6.50702703 0.765395894,6.50702703 L1.51759531,6.50702703 C1.63636364,6.50702703 1.728739,6.61640203 1.728739,6.75702703 C1.728739,6.89765203 1.63636364,7.00702703 1.51759531,7.00702703 Z" id="Shape" fill="#000000"></path>
                        <path d="M1.51759531,6.10756757 L0.765395894,6.10756757 C0.646627566,6.10756757 0.554252199,5.99819257 0.554252199,5.85756757 C0.554252199,5.71694257 0.646627566,5.60756757 0.765395894,5.60756757 L1.51759531,5.60756757 C1.63636364,5.60756757 1.728739,5.71694257 1.728739,5.85756757 C1.728739,5.99819257 1.63636364,6.10756757 1.51759531,6.10756757 Z" id="Shape" fill="#000000"></path>
                        <path d="M1.51759531,5.20810811 L0.765395894,5.20810811 C0.646627566,5.20810811 0.554252199,5.09873311 0.554252199,4.95810811 C0.554252199,4.81748311 0.646627566,4.70810811 0.765395894,4.70810811 L1.51759531,4.70810811 C1.63636364,4.70810811 1.728739,4.81748311 1.728739,4.95810811 C1.728739,5.09873311 1.63636364,5.20810811 1.51759531,5.20810811 Z" id="Shape" fill="#000000"></path>
                        <path d="M1.51759531,4.30864865 L0.765395894,4.30864865 C0.646627566,4.30864865 0.554252199,4.19927365 0.554252199,4.05864865 C0.554252199,3.91802365 0.646627566,3.80864865 0.765395894,3.80864865 L1.51759531,3.80864865 C1.63636364,3.80864865 1.728739,3.91802365 1.728739,4.05864865 C1.728739,4.19927365 1.63636364,4.30864865 1.51759531,4.30864865 Z" id="Shape" fill="#000000"></path>
                        <path d="M1.51759531,3.39513514 L0.765395894,3.39513514 C0.646627566,3.39513514 0.554252199,3.28576014 0.554252199,3.14513514 C0.554252199,3.00451014 0.646627566,2.89513514 0.765395894,2.89513514 L1.51759531,2.89513514 C1.63636364,2.89513514 1.728739,3.00451014 1.728739,3.14513514 C1.728739,3.28576014 1.63636364,3.39513514 1.51759531,3.39513514 Z" id="Shape" fill="#000000"></path>
                        <path d="M1.51759531,2.49567568 L0.765395894,2.49567568 C0.646627566,2.49567568 0.554252199,2.38630068 0.554252199,2.24567568 C0.554252199,2.10505068 0.646627566,1.99567568 0.765395894,1.99567568 L1.51759531,1.99567568 C1.63636364,1.99567568 1.728739,2.10505068 1.728739,2.24567568 C1.728739,2.38630068 1.63636364,2.49567568 1.51759531,2.49567568 Z" id="Shape" fill="#000000"></path>
                        <rect id="Rectangle-path" fill="#000000" x="0.56744868" y="0.0562162162" width="1.22727273" height="2.08"></rect>
                        <polygon id="Shape" fill="#000000" points="0.950146628 1.11027027 0.0527859238 3.44324324 2.24340176 3.44324324 1.33284457 1.11027027"></polygon>
                        <ellipse id="Oval" fill="#CC9E5C" cx="1.1744868" cy="2.62810811" rx="1" ry="1"></ellipse>
                    </g>
                    <path d="M1.51759531,25.0664865 L0.765395894,25.0664865 C0.646627566,25.0664865 0.554252199,24.9571115 0.554252199,24.8164865 C0.554252199,24.6758615 0.646627566,24.5664865 0.765395894,24.5664865 L1.51759531,24.5664865 C1.63636364,24.5664865 1.728739,24.6758615 1.728739,24.8164865 C1.728739,24.9571115 1.63636364,25.0664865 1.51759531,25.0664865 Z" id="Shape" fill="#000000"></path>
                </g>
                <g transform="translate(20.718475, 44.691892)" fill="#000000" id="Shape">
                    <g transform="translate(0.000000, 0.983784)">
                        <path d="M1.01612903,0.528108108 L0.263929619,0.528108108 C0.14516129,0.528108108 0.0527859238,0.418733108 0.0527859238,0.278108108 C0.0527859238,0.137483108 0.14516129,0.0281081081 0.263929619,0.0281081081 L1.01612903,0.0281081081 C1.13489736,0.0281081081 1.22727273,0.137483108 1.22727273,0.278108108 C1.22727273,0.418733108 1.12170088,0.528108108 1.01612903,0.528108108 Z"></path>
                        <path d="M1.01612903,1.42756757 L0.263929619,1.42756757 C0.14516129,1.42756757 0.0527859238,1.31819257 0.0527859238,1.17756757 C0.0527859238,1.03694257 0.14516129,0.927567568 0.263929619,0.927567568 L1.01612903,0.927567568 C1.13489736,0.927567568 1.22727273,1.03694257 1.22727273,1.17756757 C1.22727273,1.31819257 1.12170088,1.42756757 1.01612903,1.42756757 Z"></path>
                        <path d="M1.01612903,2.32702703 L0.263929619,2.32702703 C0.14516129,2.32702703 0.0527859238,2.21765203 0.0527859238,2.07702703 C0.0527859238,1.93640203 0.14516129,1.82702703 0.263929619,1.82702703 L1.01612903,1.82702703 C1.13489736,1.82702703 1.22727273,1.93640203 1.22727273,2.07702703 C1.22727273,2.21765203 1.12170088,2.32702703 1.01612903,2.32702703 Z"></path>
                        <path d="M1.01612903,3.24054054 L0.263929619,3.24054054 C0.14516129,3.24054054 0.0527859238,3.13116554 0.0527859238,2.99054054 C0.0527859238,2.84991554 0.14516129,2.74054054 0.263929619,2.74054054 L1.01612903,2.74054054 C1.13489736,2.74054054 1.22727273,2.84991554 1.22727273,2.99054054 C1.22727273,3.13116554 1.12170088,3.24054054 1.01612903,3.24054054 Z"></path>
                        <path d="M1.01612903,4.14 L0.263929619,4.14 C0.14516129,4.14 0.0527859238,4.030625 0.0527859238,3.89 C0.0527859238,3.749375 0.14516129,3.64 0.263929619,3.64 L1.01612903,3.64 C1.13489736,3.64 1.22727273,3.749375 1.22727273,3.89 C1.22727273,4.030625 1.12170088,4.14 1.01612903,4.14 Z"></path>
                        <path d="M0.211143695,6.04324324 C0.0923753666,6.04324324 0,5.94486486 0,5.81837838 L0,4.76432432 C0,4.63783784 0.0923753666,4.53945946 0.211143695,4.53945946 L1.21407625,4.53945946 C1.33284457,4.53945946 1.42521994,4.63783784 1.42521994,4.76432432 C1.42521994,4.89081081 1.33284457,4.98918919 1.21407625,4.98918919 L0.42228739,4.98918919 L0.42228739,5.81837838 C0.42228739,5.94486486 0.329912023,6.04324324 0.211143695,6.04324324 Z"></path>
                    </g>
                    <path d="M1.01612903,0.612432432 L0.263929619,0.612432432 C0.14516129,0.612432432 0.0527859238,0.503057432 0.0527859238,0.362432432 C0.0527859238,0.221807432 0.14516129,0.112432432 0.263929619,0.112432432 L1.01612903,0.112432432 C1.13489736,0.112432432 1.22727273,0.221807432 1.22727273,0.362432432 C1.22727273,0.503057432 1.12170088,0.612432432 1.01612903,0.612432432 Z"></path>
                </g>
                <path d="M20.9560117,20.8562162 C20.8900293,20.8562162 20.8108504,20.8281081 20.771261,20.7578378 L13.829912,11.4681081 C13.7639296,11.3697297 13.7639296,11.2432432 13.829912,11.1448649 L15.1627566,9.41621622 L11.5073314,9.41621622 C11.4281525,9.41621622 11.3489736,9.37405405 11.3093842,9.28972973 C11.2697947,9.20540541 11.2565982,9.12108108 11.2961877,9.03675676 C11.8372434,7.82810811 15.0175953,2.22054054 16.3636364,0.576216216 C16.4296188,0.491891892 16.5483871,0.463783784 16.6407625,0.505945946 C16.7331378,0.548108108 16.7991202,0.660540541 16.7859238,0.772972973 C16.6143695,2.64216216 17.0762463,5.95891892 17.5909091,8.24972973 C18.1055718,10.5545946 21.1671554,20.4205405 21.1935484,20.5189189 C21.2331378,20.6313514 21.1803519,20.7718919 21.0747801,20.8281081 C21.0351906,20.8562162 20.9956012,20.8562162 20.9560117,20.8562162 Z M14.3313783,11.3135135 L20.3093842,19.3102703 C19.4384164,16.4994595 17.5249267,10.2032432 17.1158358,8.37621622 C16.6671554,6.35243243 16.244868,3.51351351 16.2580645,1.54594595 C14.9252199,3.44324324 12.6422287,7.42054054 11.9032258,8.91027027 L15.6774194,8.91027027 C15.7697947,8.91027027 15.8621701,8.96648649 15.9017595,9.05081081 C15.941349,9.13513514 15.9281525,9.24756757 15.8753666,9.31783784 L14.3313783,11.3135135 Z" id="Shape" fill="#000000"></path>
                <path d="M6.24193548,51.9859459 C6.228739,51.9859459 6.228739,51.9859459 6.24193548,51.9859459 L0.263929619,51.7189189 C0.131964809,51.7189189 0.0263929619,51.5924324 0.0263929619,51.4518919 C0.171554252,46.9686486 0.527859238,41.0237838 0.791788856,36.6810811 C0.963343109,33.8983784 1.09530792,31.6918919 1.12170088,30.7924324 C1.16129032,29.2183784 1.58357771,26.9837838 2.03225806,24.6227027 C2.25659824,23.4281081 2.4941349,22.1772973 2.69208211,20.9827027 C3.03519062,18.8464865 3.54985337,16.5416216 4.01173021,14.4897297 C4.31524927,13.1264865 4.57917889,11.9459459 4.72434018,11.1308108 C5.08064516,9.03675676 9.32991202,5.60756757 13.5923754,4.73621622 C13.7243402,4.70810811 13.856305,4.80648649 13.8695015,4.94702703 C13.8958944,5.08756757 13.8035191,5.22810811 13.6715543,5.24216216 C9.68621701,6.0572973 5.51612903,9.30378378 5.18621701,11.2291892 C5.04105572,12.0583784 4.7771261,13.2389189 4.47360704,14.6162162 C4.02492669,16.6540541 3.51026393,18.9589189 3.16715543,21.067027 C2.96920821,22.2756757 2.73167155,23.5264865 2.50733138,24.7351351 C2.05865103,27.0681081 1.64956012,29.2886486 1.60997067,30.8205405 C1.58357771,31.7340541 1.4516129,33.9405405 1.28005865,36.7372973 C1.01612903,40.9956757 0.659824047,46.7859459 0.514662757,51.227027 L5.99120235,51.4659459 C6.17595308,47.3340541 6.95454545,34.3902703 7.37683284,32.3805405 C7.44281525,32.0432432 7.52199413,31.6497297 7.6143695,31.2 C8.03665689,29.0637838 8.68328446,25.8454054 9.69941349,22.0648649 C9.73900293,21.9383784 9.84457478,21.8681081 9.96334311,21.8821622 C10.0821114,21.8962162 10.1744868,22.0086486 10.1744868,22.1351351 L10.0029326,49.5545946 C13.1304985,50.707027 16.5879765,51.2410811 20.8768328,51.2410811 C21.0087977,51.2410811 21.1143695,51.3535135 21.1143695,51.4940541 C21.1143695,51.6345946 21.0087977,51.747027 20.8768328,51.747027 C16.4560117,51.747027 12.8929619,51.1848649 9.67302053,49.9762162 C9.58064516,49.9340541 9.51466276,49.8356757 9.51466276,49.7372973 L9.67302053,24.1027027 C8.94721408,27.04 8.4457478,29.5556757 8.08944282,31.3124324 C7.99706745,31.7621622 7.91788856,32.1556757 7.85190616,32.492973 C7.45601173,34.3762162 6.65102639,47.4183784 6.46627566,51.747027 C6.46627566,51.8735135 6.36070381,51.9859459 6.24193548,51.9859459 Z" id="Shape" fill="#000000"></path>
                <path d="M21.7082111,20.9545946 C21.6686217,20.9545946 21.6290323,20.9405405 21.5894428,20.9264865 C21.483871,20.8702703 21.431085,20.7437838 21.4706745,20.6172973 C21.4970674,20.5189189 24.585044,10.5686486 25.0997067,8.24972973 C25.601173,5.95891892 26.0762463,2.64216216 25.9046921,0.772972973 C25.8914956,0.660540541 25.957478,0.562162162 26.0498534,0.505945946 C26.1422287,0.463783784 26.2609971,0.491891892 26.3269795,0.576216216 C27.6730205,2.22054054 30.8665689,7.84216216 31.3944282,9.03675676 C31.4340176,9.12108108 31.4208211,9.20540541 31.3812317,9.28972973 C31.3416422,9.36 31.2624633,9.41621622 31.1832845,9.41621622 L27.5278592,9.41621622 L28.8607038,11.1448649 C28.9266862,11.2432432 28.9398827,11.3697297 28.8607038,11.4681081 L21.9061584,20.8562162 C21.8533724,20.9264865 21.78739,20.9545946 21.7082111,20.9545946 Z M26.4325513,1.54594595 C26.4457478,3.51351351 26.0366569,6.35243243 25.5747801,8.37621622 C25.1656891,10.2032432 23.2258065,16.5556757 22.3548387,19.3945946 L28.3592375,11.3135135 L26.8284457,9.31783784 C26.7756598,9.24756757 26.7624633,9.13513514 26.8020528,9.05081081 C26.8416422,8.96648649 26.9208211,8.91027027 27.026393,8.91027027 L30.8005865,8.91027027 C30.0483871,7.42054054 27.7653959,3.44324324 26.4325513,1.54594595 Z" id="Shape" fill="#000000"></path>
                <path d="M36.4618768,51.9859459 C36.329912,51.9859459 36.2243402,51.8735135 36.2243402,51.732973 C36.0395894,47.4043243 35.2346041,34.3762162 34.8387097,32.4789189 C34.7727273,32.1416216 34.6935484,31.7481081 34.601173,31.2983784 C34.244868,29.5416216 33.7434018,27.04 33.0175953,24.0886486 L33.1759531,49.7232432 C33.1759531,49.8356757 33.1099707,49.9340541 33.0175953,49.9621622 C29.797654,51.1708108 26.2741935,51.732973 21.9457478,51.732973 C21.813783,51.732973 21.7082111,51.6205405 21.7082111,51.48 L21.7082111,50.5102703 C21.7082111,50.3697297 21.813783,50.2572973 21.9457478,50.2572973 C22.0777126,50.2572973 22.1832845,50.3697297 22.1832845,50.5102703 L22.1832845,51.227027 C26.2741935,51.212973 29.6260997,50.6648649 32.7008798,49.5405405 L32.5293255,22.1210811 C32.5293255,21.9945946 32.6217009,21.8821622 32.7404692,21.8681081 C32.8592375,21.8540541 32.9780059,21.9243243 33.0043988,22.0508108 C34.0073314,25.8313514 34.6539589,29.0497297 35.0894428,31.1859459 C35.1818182,31.6356757 35.2609971,32.0291892 35.3269795,32.3664865 C35.7360704,34.3762162 36.5278592,47.3059459 36.71261,51.4518919 L42.1891496,51.212973 C42.0439883,46.7718919 41.6876833,40.9675676 41.4237537,36.7091892 C41.2521994,33.9124324 41.1202346,31.7059459 41.0938416,30.8064865 C41.0542522,29.2745946 40.6319648,27.0681081 40.1964809,24.7210811 C39.9721408,23.5124324 39.7346041,22.2756757 39.5366569,21.052973 C39.1935484,18.9308108 38.6788856,16.6259459 38.2302053,14.6021622 C37.9266862,13.2248649 37.6627566,12.0443243 37.5175953,11.2151351 C37.1876833,9.30378378 33.0175953,6.0572973 29.0322581,5.22810811 C28.9002933,5.2 28.8211144,5.05945946 28.8343109,4.93297297 C28.8607038,4.79243243 28.9794721,4.70810811 29.111437,4.72216216 C33.3739003,5.60756757 37.6231672,9.03675676 37.9794721,11.1167568 C38.1246334,11.9318919 38.388563,13.1124324 38.6920821,14.4756757 C39.1539589,16.5135135 39.6686217,18.8324324 40.0117302,20.9686486 C40.2096774,22.1772973 40.4472141,23.4140541 40.6715543,24.6086486 C41.1202346,26.9697297 41.542522,29.2043243 41.5821114,30.7783784 C41.6085044,31.6778378 41.7404692,33.8843243 41.9120235,36.667027 C42.1759531,41.0097297 42.5454545,46.9545946 42.6774194,51.4378378 C42.6774194,51.5783784 42.5718475,51.7048649 42.4398827,51.7048649 L36.4618768,51.9859459 C36.4618768,51.9859459 36.4618768,51.9859459 36.4618768,51.9859459 Z" id="Shape" fill="#000000"></path>
                <path d="M16.5351906,1.01189189 C16.4296188,1.01189189 16.3372434,0.941621622 16.297654,0.829189189 C16.2580645,0.688648649 16.3372434,0.548108108 16.4560117,0.505945946 C18.3958944,-0.112432432 24.4398827,-0.0281081081 26.2082111,0.505945946 C26.340176,0.548108108 26.4061584,0.688648649 26.3797654,0.829189189 C26.340176,0.96972973 26.2082111,1.04 26.0762463,1.01189189 C24.3870968,0.505945946 18.4222874,0.421621622 16.5879765,1.01189189 C16.5747801,1.01189189 16.5615836,1.01189189 16.5351906,1.01189189 Z" id="Shape" fill="#000000"></path>
                <path d="M16.6935484,4.44108108 C16.5879765,4.44108108 16.4824047,4.35675676 16.4560117,4.24432432 C16.4296188,4.10378378 16.5087977,3.96324324 16.627566,3.93513514 C18.9501466,3.33081081 24.0835777,3.48540541 25.983871,3.79459459 C26.1158358,3.8227027 26.2082111,3.94918919 26.1818182,4.08972973 C26.1554252,4.23027027 26.0366569,4.32864865 25.9046921,4.30054054 C24.0967742,3.99135135 18.9765396,3.83675676 16.7463343,4.42702703 C16.7331378,4.44108108 16.7199413,4.44108108 16.6935484,4.44108108 Z" id="Shape" fill="#000000"></path>
                <g transform="translate(11.085044, 38.367568)" fill="#000000" id="Shape">
                    <path d="M19.2536657,9.59891892 C19.2404692,9.59891892 19.2404692,9.59891892 19.2272727,9.59891892 C19.1480938,9.58486486 19.068915,9.5427027 19.0293255,9.45837838 L15.3739003,1.41945946 C15.3211144,1.29297297 15.3607038,1.15243243 15.4662757,1.08216216 L16.931085,0.168648649 C16.983871,0.126486486 17.0630499,0.126486486 17.1290323,0.140540541 C17.1950147,0.168648649 17.2478006,0.210810811 17.2741935,0.281081081 L20.4677419,7.81405405 C20.5073314,7.89837838 20.4941349,7.99675676 20.441349,8.08108108 L19.4384164,9.50054054 C19.398827,9.55675676 19.3328446,9.59891892 19.2536657,9.59891892 Z M15.914956,1.40540541 L19.3064516,8.84 L19.9794721,7.88432432 L16.957478,0.758918919 L15.914956,1.40540541 Z"></path>
                    <path d="M1.26686217,9.59891892 C1.18768328,9.59891892 1.12170088,9.55675676 1.06891496,9.50054054 L0.0659824047,8.08108108 C0.0131964809,8.01081081 -6.15132945e-15,7.91243243 0.0395894428,7.81405405 L3.23313783,0.281081081 C3.25953079,0.210810811 3.31231672,0.168648649 3.37829912,0.140540541 C3.44428152,0.112432432 3.51026393,0.126486486 3.57624633,0.168648649 L5.04105572,1.08216216 C5.14662757,1.15243243 5.18621701,1.29297297 5.13343109,1.41945946 L1.47800587,9.45837838 C1.43841642,9.5427027 1.37243402,9.59891892 1.28005865,9.59891892 C1.29325513,9.59891892 1.28005865,9.59891892 1.26686217,9.59891892 Z M0.554252199,7.88432432 L1.22727273,8.84 L4.61876833,1.40540541 L3.57624633,0.758918919 L0.554252199,7.88432432 Z"></path>
                </g>
                <path d="M36.2771261,48.4864865 C36.1451613,48.4864865 36.0395894,48.3740541 36.0395894,48.2335135 C36.0395894,48.092973 36.1451613,47.9664865 36.2771261,47.9664865 L42.2815249,47.7275676 C42.4134897,47.7275676 42.5322581,47.84 42.5322581,47.9805405 C42.5322581,48.1210811 42.4266862,48.2475676 42.2947214,48.2475676 L36.2771261,48.4864865 C36.2903226,48.4864865 36.2771261,48.4864865 36.2771261,48.4864865 Z" id="Shape" fill="#000000"></path>
                <path d="M6.24193548,51.9859459 C6.228739,51.9859459 6.228739,51.9859459 6.24193548,51.9859459 L0.263929619,51.7189189 C0.197947214,51.7189189 0.131964809,51.6908108 0.0923753666,51.6345946 C0.0527859238,51.5783784 0.0263929619,51.5221622 0.0263929619,51.4518919 L0.224340176,47.9664865 C0.237536657,47.8259459 0.343108504,47.7135135 0.475073314,47.7275676 L6.37390029,47.9664865 C6.4398827,47.9664865 6.49266862,47.9945946 6.54545455,48.0508108 C6.58504399,48.107027 6.61143695,48.1632432 6.61143695,48.2335135 L6.46627566,51.732973 C6.46627566,51.8735135 6.36070381,51.9859459 6.24193548,51.9859459 Z M0.527859238,51.212973 L6.00439883,51.4518919 L6.12316716,48.4724324 L0.69941349,48.2475676 L0.527859238,51.212973 Z" id="Shape" fill="#000000"></path>
                <g opacity="0.1" transform="translate(9.765396, 22.064865)" fill="#000000" id="Shape">
                    <g>
                        <path d="M0.171554252,0.0702702703 C1.57038123,2.86702703 3.54985337,17.7362162 3.57624633,28.9091892 C1.9398827,28.1362162 2.84217094e-14,27.6724324 2.84217094e-14,27.6724324 L0.171554252,0.0702702703 Z"></path>
                    </g>
                </g>
                <g opacity="0.2" transform="translate(25.865103, 0.843243)" fill="#FFFFFF" id="Shape">
                    <g>
                        <path d="M0.0527859238,4.14594595 C2.63929619,6.68972973 4.14369501,7.57513514 5.27859238,8.20756757 C6.41348974,8.84 8.76246334,8.36216216 9.75219941,13 C10.728739,17.6378378 12.840176,25.7610811 13.0249267,29.4572973 C13.2096774,33.1535135 13.9618768,49.0345946 14.0938416,50.707027 C14.8856305,50.6789189 16.4956012,50.6086486 16.4956012,50.6086486 L16.0469208,41.1643243 C16.0469208,41.1643243 15.4002933,29.3027027 15.2683284,28.347027 C15.1363636,27.3913514 11.8108504,10.3297297 11.8108504,10.3297297 C11.8108504,10.3297297 10.8079179,8.43243243 10.1480938,7.85621622 C9.48826979,7.28 5.66129032,4.45513514 2.82404692,3.89297297 C2.38856305,2.71243243 0.409090909,0.126486486 0.409090909,0.126486486 L0.0527859238,4.14594595 Z"></path>
                    </g>
                </g>
                <g opacity="0.1" transform="translate(29.428152, 22.064865)" fill="#000000" id="Shape">
                    <g>
                        <path d="M3.28592375,0.0702702703 C1.88709677,2.86702703 0.131964809,17.6097297 0.105571848,28.7686486 C1.74193548,27.9956757 3.45747801,27.6724324 3.45747801,27.6724324 L3.28592375,0.0702702703 Z"></path>
                    </g>
                </g>
            </g>
            <g id="Group" transform="translate(38.401760, 20.659459)">
                <path d="M5.09384164,12.8594595 C4.81671554,12.8594595 4.60557185,12.6064865 4.60557185,12.3113514 L4.60557185,8.41837838 L1.05571848,8.41837838 C0.778592375,8.41837838 0.56744868,8.16540541 0.56744868,7.87027027 L0.56744868,5.64972973 C0.56744868,5.35459459 0.804985337,5.10162162 1.05571848,5.10162162 L4.57917889,5.10162162 L4.57917889,1.20864865 C4.57917889,0.913513514 4.81671554,0.660540541 5.06744868,0.660540541 L6.08357771,0.660540541 C6.21554252,0.660540541 6.34750733,0.730810811 6.45307918,0.815135135 L11.5073314,6.38054054 C11.7052786,6.59135135 11.7052786,6.95675676 11.5073314,7.15351351 L6.45307918,12.7189189 C6.36070381,12.8313514 6.24193548,12.8735135 6.08357771,12.8735135 L5.09384164,12.8735135 L5.09384164,12.8594595 Z" id="Shape" fill="#FAE7AA"></path>
                <path d="M6.10997067,1.20864865 L11.1642229,6.77405405 L6.10997067,12.3394595 L5.09384164,12.3394595 L5.09384164,7.89837838 L1.05571848,7.89837838 L1.05571848,5.67783784 L5.09384164,5.67783784 L5.09384164,1.23675676 L6.10997067,1.23675676 L6.10997067,1.20864865 Z M6.10997067,0.0983783784 L5.09384164,0.0983783784 C4.53958944,0.0983783784 4.07771261,0.604324324 4.07771261,1.2227027 L4.07771261,4.56756757 L1.04252199,4.56756757 C0.488269795,4.56756757 0.0263929619,5.07351351 0.0263929619,5.69189189 L0.0263929619,7.91243243 C0.0263929619,8.53081081 0.475073314,9.03675676 1.04252199,9.03675676 L4.07771261,9.03675676 L4.07771261,12.3816216 C4.07771261,13 4.52639296,13.5059459 5.09384164,13.5059459 L6.10997067,13.5059459 C6.37390029,13.5059459 6.62463343,13.3935135 6.82258065,13.1827027 L11.8768328,7.6172973 C12.2595308,7.18162162 12.2595308,6.47891892 11.8768328,6.04324324 L6.82258065,0.477837838 C6.62463343,0.210810811 6.36070381,0.0983783784 6.10997067,0.0983783784 Z" id="Shape" fill="#CC2128"></path>
            </g>
        </g>
    </g>
</svg>