<?xml version="1.0" encoding="utf-8"?>
<!-- Generator: Adobe Illustrator 22.0.1, SVG Export Plug-In . SVG Version: 6.00 Build 0)  -->
<svg version="1.1" id="Слой_1" xmlns="http://www.w3.org/2000/svg" xmlns:xlink="http://www.w3.org/1999/xlink" x="0px" y="0px"
	 viewBox="0 0 90 90" style="enable-background:new 0 0 90 90;" xml:space="preserve">
<style type="text/css">
	.st0{fill:none;stroke:#AA9748;stroke-width:1.688;stroke-miterlimit:10;}
	.st1{fill:none;stroke:#AA9748;stroke-width:0.9646;stroke-miterlimit:10;}
	.st2{fill:#492F2A;}
	.st3{fill:#15080A;}
	.st4{fill:none;stroke:#190B0E;stroke-width:1.0986;stroke-linecap:round;stroke-miterlimit:10;}
	.st5{fill:none;stroke:#190B0E;stroke-width:0.9155;stroke-linecap:round;stroke-miterlimit:10;}
	.st6{fill:#6D4629;}
	.st7{fill:#835E3A;}
	.st8{fill:none;stroke:#4F3100;stroke-width:1.1866;stroke-linecap:round;stroke-miterlimit:10;}
	.st9{fill:none;stroke:#4F3100;stroke-width:0.9888;stroke-linecap:round;stroke-miterlimit:10;}
	.st10{fill:#281815;}
	.st11{fill:none;stroke:#190B0E;stroke-width:1.4053;stroke-miterlimit:10;}
	.st12{fill:none;stroke:#190B0E;stroke-width:1.0142;stroke-linecap:round;stroke-miterlimit:10;}
	.st13{fill:#725631;stroke:#4F3100;stroke-width:0.7841;stroke-miterlimit:10;}
</style>
<g>
	<path class="st0" d="M78,20.1C70.2,10.5,58.3,4.3,45,4.3C21.7,4.3,2.8,23.2,2.8,46.5c0,4.3,0.6,8.5,1.8,12.4"/>
	<path class="st0" d="M11.8,72.5c7.7,9.9,19.7,16.2,33.2,16.2c23.3,0,42.2-18.9,42.2-42.2c0-4.1-0.6-8.1-1.7-11.8"/>
	<path class="st1" d="M12.4,25.2c-4,6.1-6.3,13.4-6.3,21.3c0,1.9,0.1,3.8,0.4,5.7"/>
	<path class="st1" d="M30.4,10.4c-4.9,2-9.2,4.9-12.9,8.5"/>
	<path class="st1" d="M68.7,77.3c7.7-5.9,13.1-14.6,14.7-24.6c0.3-2,0.5-4.1,0.5-6.2"/>
	<path class="st1" d="M35.9,84.3c2.9,0.7,6,1.1,9.1,1.1c5.3,0,10.3-1,14.8-2.9"/>
	<path class="st1" d="M45,1.3c-15.6,0-29.3,7.9-37.5,19.9"/>
	<polyline class="st0" points="11.8,84.5 11.8,72.5 23.5,72.5 	"/>
	<polyline class="st0" points="78,7.6 78,19.7 66.6,19.7 	"/>
</g>
<g>
	<path class="st2" d="M45,7.9c8.4,0,14,2,12.7,8.1c4.5,0,5.7,2.9,6.6,7.9s3.9,22.7,4.6,27.2c0.7,4.5,2.7,10.5-0.9,10.5
		c-3.5,0-4.5-0.5-5-3.9c-0.4-3.1-3.2-16.5-3.7-19.2c0-0.1-0.1-0.1-0.1,0c-0.4,12.4,0.9,23,1.4,28.6c0.5,5.6,1.7,14.5-1.7,16.2
		c-3.4,1.7-9.4,1.8-13.9,1.8c-4.5,0-10.5-0.1-13.9-1.8c-3.4-1.7-2.2-10.6-1.7-16.2c0.5-5.5,1.8-16.2,1.4-28.6c0-0.1-0.1-0.1-0.1,0
		c-0.5,2.7-3.3,16.1-3.7,19.2c-0.5,3.4-1.5,3.9-5,3.9s-1.6-6-0.9-10.5s3.8-22.2,4.6-27.2c0.9-5,2.1-7.9,6.6-7.9
		C31,9.8,36.6,7.9,45,7.9z"/>
	<path class="st3" d="M45,8.8c4.2,0,8.2,2.3,5.8,6.2S45,22,45,22s-3.4-3-5.8-7S40.8,8.8,45,8.8z"/>
	<path class="st4" d="M45,8.8c4.2,0,8.2,2.3,5.8,6.2S45,22,45,22s-3.4-3-5.8-7S40.8,8.8,45,8.8z"/>
	<g>
		<g>
			<g>
				<g>
					<line class="st5" x1="23.1" y1="55.5" x2="23.5" y2="53.8"/>
				</g>
				<g>
					<line class="st5" x1="24.8" y1="55.9" x2="25.3" y2="54.3"/>
				</g>
				<g>
					<line class="st5" x1="24.3" y1="54.5" x2="24.7" y2="52.9"/>
				</g>
			</g>
			<g>
				<g>
					<line class="st5" x1="24.6" y1="40.4" x2="25.1" y2="38.5"/>
				</g>
				<g>
					<line class="st5" x1="26.6" y1="41" x2="27.1" y2="39.1"/>
				</g>
				<g>
					<line class="st5" x1="26" y1="39.3" x2="26.6" y2="37.5"/>
				</g>
			</g>
			<g>
				<g>
					<line class="st5" x1="33.2" y1="73.2" x2="33.8" y2="71.4"/>
				</g>
				<g>
					<line class="st5" x1="34.6" y1="75.5" x2="35.8" y2="72"/>
				</g>
				<g>
					<line class="st5" x1="34.6" y1="72.2" x2="35.2" y2="70.4"/>
				</g>
			</g>
			<g>
				<g>
					<line class="st5" x1="32.9" y1="28.5" x2="33.5" y2="26.9"/>
				</g>
				<g>
					<line class="st5" x1="34.6" y1="29" x2="35.1" y2="27.5"/>
				</g>
				<g>
					<line class="st5" x1="34.2" y1="27.7" x2="34.7" y2="26.1"/>
				</g>
			</g>
			<g>
				<g>
					<line class="st5" x1="34.3" y1="15.9" x2="34.4" y2="14.3"/>
				</g>
				<g>
					<line class="st5" x1="36" y1="16" x2="36.1" y2="14.4"/>
				</g>
				<g>
					<line class="st5" x1="35.2" y1="14.8" x2="35.3" y2="13.2"/>
				</g>
			</g>
			<g>
				<g>
					<line class="st5" x1="28.3" y1="22.1" x2="28.9" y2="20.6"/>
				</g>
				<g>
					<line class="st5" x1="29.9" y1="22.8" x2="30.5" y2="21.3"/>
				</g>
				<g>
					<line class="st5" x1="29.5" y1="21.4" x2="30.1" y2="19.9"/>
				</g>
			</g>
			<g>
				<g>
					<line class="st5" x1="36.9" y1="42.5" x2="37.2" y2="40.7"/>
				</g>
				<g>
					<line class="st5" x1="38.8" y1="42.8" x2="39.1" y2="41.1"/>
				</g>
				<g>
					<line class="st5" x1="38.1" y1="41.4" x2="38.4" y2="39.7"/>
				</g>
			</g>
			<g>
				<g>
					<line class="st5" x1="33.5" y1="55.8" x2="33.6" y2="52.7"/>
				</g>
				<g>
					<line class="st5" x1="35.3" y1="54.4" x2="35.3" y2="52.7"/>
				</g>
				<g>
					<line class="st5" x1="34.5" y1="53.2" x2="34.5" y2="51.6"/>
				</g>
			</g>
			<g>
				<g>
					<line class="st5" x1="66.9" y1="55.5" x2="66.5" y2="53.8"/>
				</g>
				<g>
					<line class="st5" x1="65.2" y1="55.9" x2="64.7" y2="54.3"/>
				</g>
				<g>
					<line class="st5" x1="65.7" y1="54.5" x2="65.3" y2="52.9"/>
				</g>
			</g>
			<g>
				<g>
					<line class="st5" x1="65.4" y1="40.4" x2="64.9" y2="38.5"/>
				</g>
				<g>
					<line class="st5" x1="63.4" y1="41" x2="62.9" y2="39.1"/>
				</g>
				<g>
					<line class="st5" x1="64" y1="39.3" x2="63.4" y2="37.5"/>
				</g>
			</g>
			<g>
				<g>
					<line class="st5" x1="56.8" y1="73.2" x2="56.2" y2="71.4"/>
				</g>
				<g>
					<line class="st5" x1="55.4" y1="75.5" x2="54.2" y2="72"/>
				</g>
				<g>
					<line class="st5" x1="55.4" y1="72.2" x2="54.8" y2="70.4"/>
				</g>
			</g>
			<g>
				<g>
					<line class="st5" x1="57.1" y1="28.5" x2="56.5" y2="26.9"/>
				</g>
				<g>
					<line class="st5" x1="55.4" y1="29" x2="54.9" y2="27.5"/>
				</g>
				<g>
					<line class="st5" x1="55.8" y1="27.7" x2="55.3" y2="26.1"/>
				</g>
			</g>
			<g>
				<g>
					<line class="st5" x1="55.7" y1="15.9" x2="55.6" y2="14.3"/>
				</g>
				<g>
					<line class="st5" x1="54" y1="16" x2="53.9" y2="14.4"/>
				</g>
				<g>
					<line class="st5" x1="54.8" y1="14.8" x2="54.7" y2="13.2"/>
				</g>
			</g>
			<g>
				<g>
					<line class="st5" x1="61.7" y1="22.1" x2="61.1" y2="20.6"/>
				</g>
				<g>
					<line class="st5" x1="60.1" y1="22.8" x2="59.5" y2="21.3"/>
				</g>
				<g>
					<line class="st5" x1="60.5" y1="21.4" x2="59.9" y2="19.9"/>
				</g>
			</g>
			<g>
				<g>
					<line class="st5" x1="53.9" y1="42.3" x2="53.6" y2="40.6"/>
				</g>
				<g>
					<line class="st5" x1="52.1" y1="42.7" x2="51.7" y2="40.9"/>
				</g>
				<g>
					<line class="st5" x1="52.7" y1="41.2" x2="52.4" y2="39.5"/>
				</g>
			</g>
			<g>
				<g>
					<line class="st5" x1="56.5" y1="55.8" x2="56.4" y2="52.7"/>
				</g>
				<g>
					<line class="st5" x1="54.7" y1="54.4" x2="54.7" y2="52.7"/>
				</g>
				<g>
					<line class="st5" x1="55.5" y1="53.2" x2="55.5" y2="51.6"/>
				</g>
			</g>
		</g>
	</g>
	<path class="st4" d="M32.3,15.9c1.1,3,9,8.5,12.7,8.5"/>
	<path class="st4" d="M57.7,15.9c-1.1,3-9,8.5-12.7,8.5"/>
	<path class="st4" d="M45,7.9c8.4,0,14,2,12.7,8.1c4.5,0,5.7,2.9,6.6,7.9s3.9,22.7,4.6,27.2c0.7,4.5,2.7,10.5-0.9,10.5
		c-3.5,0-4.5-0.5-5-3.9c-0.4-3.1-3.2-16.5-3.7-19.2c0-0.1-0.1-0.1-0.1,0c-0.4,12.4,0.9,23,1.4,28.6c0.5,5.6,1.7,14.5-1.7,16.2
		c-3.4,1.7-9.4,1.8-13.9,1.8c-4.5,0-10.5-0.1-13.9-1.8c-3.4-1.7-2.2-10.6-1.7-16.2c0.5-5.5,1.8-16.2,1.4-28.6c0-0.1-0.1-0.1-0.1,0
		c-0.5,2.7-3.3,16.1-3.7,19.2c-0.5,3.4-1.5,3.9-5,3.9s-1.6-6-0.9-10.5s3.8-22.2,4.6-27.2c0.9-5,2.1-7.9,6.6-7.9
		C31,9.8,36.6,7.9,45,7.9z"/>
	<line class="st4" x1="45" y1="24.5" x2="45" y2="85.1"/>
</g>
</svg>
