<?xml version="1.0" encoding="utf-8"?>
<!-- Generator: Adobe Illustrator 22.0.1, SVG Export Plug-In . SVG Version: 6.00 Build 0)  -->
<svg version="1.1" id="Слой_1" xmlns="http://www.w3.org/2000/svg" xmlns:xlink="http://www.w3.org/1999/xlink" x="0px" y="0px"
	 viewBox="0 0 90 90" style="enable-background:new 0 0 90 90;" xml:space="preserve">
<style type="text/css">
	.st0{fill:none;stroke:#CD2027;stroke-miterlimit:10;}
	.st1{fill:#FFD2A3;}
	.st2{fill:#B2BC2E;}
	.st3{fill:#C96214;}
	.st4{fill:#895F00;}
	.st5{fill:#D39750;}
	.st6{fill:#F7655E;}
	.st7{fill:#130D05;}
	.st8{fill:#EAC060;}
	.st9{fill:#33C176;}
	.st10{fill:#FDD5A8;}
	.st11{fill:#442B0E;}
	.st12{fill:#6829E2;}
	.st13{fill:#FCFAE3;}
	.st14{fill:#402312;}
	.st15{fill:#CCCBCB;}
	.st16{fill:#B7B7B7;}
	.st17{fill:none;stroke:#777777;stroke-width:1.0032;stroke-linecap:round;stroke-linejoin:round;stroke-miterlimit:10;}
	.st18{fill:#F0CFB5;}
	.st19{fill:#D3A98C;}
	.st20{fill:#FFFFFF;}
	.st21{fill:#E2E2E2;}
	.st22{fill:none;stroke:#353334;stroke-width:1.2083;stroke-miterlimit:10;}
	.st23{fill:none;stroke:#353334;stroke-width:1.3359;stroke-miterlimit:10;}
	.st24{fill:none;stroke:#777777;stroke-width:0.8704;stroke-linecap:round;stroke-linejoin:round;stroke-miterlimit:10;}
	.st25{fill:#2D2D2D;}
	.st26{fill:#6868D8;}
	.st27{opacity:0.3;fill:#FFFFFF;}
	.st28{fill:#69D688;}
	.st29{fill:none;stroke:#3A4A70;stroke-width:0.9419;stroke-miterlimit:10;}
	.st30{fill:#705E51;}
</style>
<path class="st0" d="M17.1,29.2c4.7-1.7,11-1,17.1,2.2"/>
<path class="st0" d="M68.6,29.6c9.5-10.7,22.7,2.4,15.5,9.8c-4.8,5-16.5,12.2-18.2,21.7"/>
<g>
	<polygon class="st1" points="43.2,26.4 43.2,35.9 24.8,34.5 23.6,26.4 23.6,10.9 32.1,3.5 40.8,6.7 44.2,13.3 	"/>
	<path class="st2" d="M25.6,29.6c1,4.9,13.2,7.3,17.2,0c3.1-0.1,6.3,0.9,7.8,4.5c1.5,3.5-17.1,15.2-17.1,15.2S17.3,38.3,17.3,35
		C17.3,31.7,22.4,30.4,25.6,29.6z"/>
	<path class="st3" d="M31.4,6.3c3.4,0,10.9,3,10.9,8.2c0,3.3-4.2,4.5-4.1,7.4s1.8,8.7,6.6,9.9c0-8.3,0-19.8,0-19.8
		c0-3.3-4.5-11.7-10.9-11.7S22.4,7.4,22.4,13s0,19.2,0,19.2c5.1-1.3,7.1-5.4,7.3-8.8s-5-5.9-5-9.1S27.5,7.8,31.4,6.3z"/>
	<g>
		<path class="st4" d="M64.8,23.8c2.3-0.1,4.6-0.6,6.5-1.4c1.5-0.6,2.3-2.3,1.8-3.9c-0.7-1.9-0.2-4.7-0.2-6.5c0-2.7-2.2-12-11.6-12
			C52,0,49.8,9.2,49.8,12c0,1.9,0.5,4.6-0.2,6.5c-0.5,1.6,0.2,3.3,1.8,3.9c1.9,0.8,4.2,1.3,6.5,1.4"/>
		<path class="st1" d="M60.7,25.9c-2.6-1.3-5.6-4.8-6.1-5.9c-0.2-0.5-0.6-1.7-1-3c-0.2-0.6-0.8-1.1-1-1.7c-0.1-0.4,0.3-1,0.3-1.4
			c-0.1-0.5-0.1-0.9-0.1-1.1C57.3,1.9,62,15,69.9,12.6c0,0.4,0,0.8-0.1,1.3c-0.1,0.5,0.3,0.9,0.2,1.4c-0.1,0.4-0.6,0.9-0.7,1.3
			c-0.5,1.8-1.2,3.6-1.8,4.4C66.3,22.4,62.1,26.6,60.7,25.9z"/>
		<path class="st1" d="M68.6,32.6c-1.5-1.2-4.2-6.8-2.7-10l-4.6,0.2l-4.6-0.2c1.5,3.2-1.2,8.8-2.7,10c3.7,1.5,6,1.5,7.3,1.5
			C62.7,34.1,64.9,34.1,68.6,32.6z"/>
		<path class="st5" d="M56.4,28.5c0.8,1.7,2.1,3.7,5.3,4.3c3.1-0.9,3.9-2.8,4.5-4.3c2.8-0.1,9.6,1.6,10.6,4.3c1.5,3.9-16,16-16,16
			s-15.1-11.4-15.1-15S53.4,29.4,56.4,28.5z"/>
	</g>
</g>
<polygon class="st1" points="28.3,59.2 28.3,68.7 9.9,67.3 8.6,59.2 8.6,43.7 17.2,36.3 25.9,39.5 29.3,46.1 "/>
<path class="st6" d="M10.7,62.4c1,4.9,13.2,7.3,17.2,0c3.1-0.1,6.3,0.9,7.8,4.5C37.3,70.4,18.7,82,18.7,82S2.4,71.1,2.4,67.8
	C2.4,64.5,7.5,63.2,10.7,62.4z"/>
<path class="st7" d="M16.5,39c2.3,4.1,9.5,7.8,10.9,8.2c0.6,2.3-4.2,4.5-4.1,7.4c0.1,2.9,1.8,8.7,6.6,9.9c0-8.3,0-19.8,0-19.8
	c0-3.3-4.5-11.7-10.9-11.7S7.4,40.2,7.4,45.8s0,19.2,0,19.2c5.1-1.3,7.1-5.4,7.3-8.8c0.2-3.4-5-5.9-5-9.1C9.7,44,12.6,40.6,16.5,39z
	"/>
<g>
	<path class="st8" d="M49.9,56.6c4-0.2,7.9-1.6,10-3.4c-2.9-1.1-2-5.7-1.9-8.4c0-2.7-2.2-12-11.6-12s-11.6,9.2-11.6,12
		c0,2.7,1,7.4-1.9,8.4c2.1,1.8,6,3.2,10,3.4"/>
	<path class="st1" d="M45.8,58.7c-2.6-1.3-5.6-4.8-6.1-5.9c-0.2-0.5-0.6-1.7-1-3c-0.2-0.6-0.8-1.1-1-1.7c-0.1-0.4,0.3-1,0.3-1.4
		c-0.1-0.5-0.1-0.9-0.1-1.1c0.9-0.1,2.8-0.3,3.1-0.9c0.4,0.2,1.1,0.5,1.8,0.4c0.6,0,1.2-0.4,1.5-0.3c0.9,0.3,3.1,0.6,3.8,0
		c1,0.2,3,0.5,3.4-0.2c0.8,0.5,2.8,1.1,3.4,0.7c0,0.4,0,0.8-0.1,1.3c-0.1,0.5,0.3,0.9,0.2,1.4c-0.1,0.4-0.6,0.9-0.7,1.3
		c-0.5,1.8-1.2,3.6-1.8,4.4C51.4,55.2,47.1,59.4,45.8,58.7z"/>
	<path class="st1" d="M53.7,65.4c-1.5-1.2-4.2-6.8-2.7-10l-4.6,0.2l-4.6-0.2c1.5,3.2-1.2,8.8-2.7,10c3.7,1.5,6,1.5,7.3,1.5
		C47.7,66.8,50,66.9,53.7,65.4z"/>
	<path class="st9" d="M41.4,61.3c0.8,1.7,2.1,3.7,5.3,4.3c3.1-0.9,3.9-2.8,4.5-4.3c2.8-0.1,9.6,1.6,10.6,4.3c1.5,3.9-16,16-16,16
		s-15.1-11.4-15.1-15C30.9,63,38.4,62.2,41.4,61.3z"/>
</g>
<polygon class="st3" points="26.7,6.6 26.7,10.8 39.6,10.8 39.6,5.9 30.7,3.7 "/>
<g>
	<path class="st10" d="M77.9,58.4c0.2-2.1,6.2-7.7,6.2-7.7l-0.5-6.8l-6.1-1h-3.8H70l-6.1,1l-0.5,6.8c0,0,5.9,5.7,6.2,7.7
		c0.5,3.8-1.8,6-2.4,7.5c1.8,1.9,5.6,2.1,6.5,2.1c0.9,0,4.7-0.2,6.5-2.1C79.7,64.4,77.6,62.2,77.9,58.4z"/>
	<path class="st11" d="M85,41.8c-0.7-3.4-4.5-9-11.3-9s-10.6,5.6-11.3,9c-0.7,3.4-1.8,13.8,7.1,16.6c0,0,0.2-2.1-1.3-3.8
		c-4.7-3.4-4.5-8.4-2-10.5c3.1,0,7.4,0,7.4,0s4.2,0,7.4,0c2.6,2.1,2.8,6.9-2,10.5c-1.5,2-1.3,3.8-1.3,3.8
		C86.8,55.6,85.7,45.2,85,41.8z"/>
	<path class="st12" d="M68.3,63.9c0.6,2.8,3.2,4.3,5.7,4.1c1.9-0.1,3.6-1,5.3-4.2c3.1-0.1,6.6,1.7,8.1,4C89.5,71,73.3,82,73.3,82
		S59.4,71.8,59.4,68.5S65.1,64.6,68.3,63.9z"/>
</g>
<g>
	<g>
		<g>
			<g>
				<path class="st13" d="M76.4,74.5c0.7,0,1.3,0.3,1.5,0.7c0.3,0.5,0.2,1.3-0.2,2c-0.4,0.7-1.2,1.4-2.1,2c-0.3,0.2-0.7,0.4-1,0.5
					l-19.1,9.9c-0.1,0-0.1,0.1-0.2,0.1c-0.2,0-0.3-0.1-0.4-0.3c-0.1-0.2,0-0.4,0.2-0.5l17.4-12.7c0.3-0.2,0.6-0.5,0.9-0.7
					C74.4,74.9,75.5,74.5,76.4,74.5L76.4,74.5z M72.3,78.7c0.5-0.1,1.6-0.6,2.4-1.1c1-0.6,1.1-1,1.2-1c0-0.1-0.1-0.1-0.1-0.1
					c-0.2,0-0.5,0.1-1.4,0.6C73.4,77.7,72.6,78.4,72.3,78.7z"/>
			</g>
		</g>
		<g>
			<g>
				<path class="st14" d="M55.4,89.4c-0.1,0-0.2-0.2-0.1-0.2l17.4-12.7c0.3-0.2,0.6-0.5,0.9-0.7c1-0.6,2.1-1,2.9-0.9
					c0.6,0,1,0.2,1.3,0.6c0.5,0.9-0.4,2.5-2.2,3.6c-0.3,0.2-0.7,0.4-1,0.5L55.4,89.4C55.4,89.4,55.4,89.4,55.4,89.4 M75.8,76.2
					c-0.3,0-0.8,0.2-1.6,0.6c-1.1,0.7-2.5,1.9-2.3,2.2c0,0.1,0.1,0.1,0.2,0.1c0.5,0,1.9-0.6,2.8-1.2c1.1-0.7,1.5-1.2,1.3-1.5
					C76.1,76.3,75.9,76.2,75.8,76.2 M55.3,90c0.1,0,0.3,0,0.4-0.1L74.8,80c0.4-0.1,0.7-0.3,1.1-0.6c2.1-1.3,3.1-3.2,2.4-4.4
					c-0.3-0.5-1-0.8-1.8-0.9c-1,0-2.1,0.4-3.2,1c-0.3,0.2-0.7,0.5-1,0.7L54.9,88.6c-0.3,0.2-0.4,0.5-0.3,0.8
					C54.7,89.8,55,90,55.3,90L55.3,90z M74.5,77.4L74.5,77.4L74.5,77.4L74.5,77.4L74.5,77.4L74.5,77.4z"/>
			</g>
		</g>
	</g>
</g>
<path class="st0" d="M65.9,61.1c-1.4,8.5,1.3,14.3,7.6,17"/>
<path class="st0" d="M76.1,79.1c3.1,1,8.6,0.6,10.9-6.3c3.9-12.1-9.4-17.5-22.8-9c-2.6,1.7-14.4,7.2-21.2,9
	c-14.3,3.8-9.5,14.6-2.2,16.4c9.5,2.3,19.9-6,14.8-14.5s-14.3-11.2-25.3-6.2c-38,17.2-35-31.4-13.3-39.1"/>
<g>
	<g>
		<g>
			<g>
				<path class="st13" d="M11,59c0.7,0,1.4,0.2,2,0.5c1,0.5,1.7,1.4,2.1,2.5c0.3,1.1,0.2,2.2-0.3,3.2c-0.7,1.3-2,2.1-3.4,2.2
					c-0.1,0-0.2,0.1-0.3,0.2c-0.1,0.1-0.1,0.2,0,0.3l0.1,0.1l16.5,21.2l-1.2,0.4l-7.3-3.9L8,66.5c-0.1-0.1-2.1-2.6-0.7-5.3
					C8,59.9,9.5,59,11,59z M11,65.5c0.9,0,1.6-0.5,2-1.2c0.3-0.5,0.4-1.2,0.2-1.7c-0.2-0.6-0.6-1.1-1.1-1.4C11.8,61.1,11.4,61,11,61
					c-0.9,0-1.6,0.5-2,1.2c-0.3,0.5-0.4,1.2-0.2,1.7C9,64.5,9.4,65,10,65.3C10.3,65.4,10.7,65.5,11,65.5z"/>
			</g>
		</g>
		<g>
			<g>
				<path class="st14" d="M26.5,89.3l-7.1-3.8L8.3,66.4c0,0,0-0.1-0.1-0.1c0,0-2-2.4-0.7-4.9c0.7-1.3,2-2.1,3.5-2.1
					c0.6,0,1.3,0.2,1.9,0.5c1.9,1,2.6,3.4,1.6,5.3c-0.6,1.2-1.8,1.9-3.1,2.1c-0.2,0-0.4,0.1-0.5,0.3c-0.1,0.2-0.1,0.4,0,0.6l0.1,0.1
					c0,0,0,0.1,0.1,0.1l16.1,20.8L26.5,89.3 M11,60.6c-1,0-1.9,0.5-2.3,1.4c-0.3,0.6-0.4,1.3-0.2,2c0.2,0.7,0.7,1.2,1.3,1.5
					c0.4,0.2,0.8,0.3,1.2,0.3c1,0,1.9-0.5,2.3-1.4c0.7-1.3,0.2-2.9-1.1-3.5C11.9,60.7,11.5,60.6,11,60.6 M26.5,90l1.8-0.5L11.5,67.9
					l-0.1-0.1c1.5-0.1,2.9-1,3.6-2.4c1.2-2.2,0.3-5-1.9-6.2c-0.7-0.4-1.4-0.5-2.2-0.5c-1.6,0-3.2,0.9-4,2.4
					c-1.5,2.9,0.7,5.6,0.7,5.6L18.9,86L26.5,90L26.5,90z M11,61.3c0.3,0,0.6,0.1,0.9,0.2c1,0.5,1.3,1.7,0.8,2.6c-0.4,0.7-1,1-1.7,1
					c-0.3,0-0.6-0.1-0.9-0.2c-1-0.5-1.3-1.7-0.8-2.6C9.7,61.7,10.3,61.3,11,61.3L11,61.3z"/>
			</g>
		</g>
	</g>
	<g>
		<g>
			<g>
				<path class="st13" d="M35.1,73.5l0.4,1.2L8.8,72.8l-0.2,0c-0.1,0-0.2,0.1-0.3,0.2c0,0.1,0,0.2,0,0.3c0.7,1.3,0.7,2.8,0,4.1
					c-0.7,1.4-2.2,2.2-3.7,2.2c-0.7,0-1.4-0.2-2-0.5c-1-0.5-1.7-1.4-2.1-2.5c-0.3-1.1-0.2-2.2,0.3-3.2C2,71.3,4.2,71,5.2,71
					c0.2,0,0.4,0,0.4,0l22.2-1.5L35.1,73.5z M4.6,77.7c0.9,0,1.6-0.5,2-1.2c0.3-0.5,0.4-1.2,0.2-1.7c-0.2-0.6-0.6-1.1-1.1-1.4
					c-0.3-0.2-0.7-0.3-1.1-0.3c-0.9,0-1.6,0.5-2,1.2c-0.6,1.1-0.2,2.5,1,3.1C3.8,77.6,4.2,77.7,4.6,77.7z"/>
			</g>
		</g>
		<g>
			<g>
				<path class="st14" d="M4.6,79.3c-0.6,0-1.3-0.2-1.9-0.5c-1.9-1-2.6-3.4-1.6-5.3c1-2,3.2-2.2,4-2.2c0.2,0,0.4,0,0.4,0l0,0
					c0,0,0,0,0.1,0c0,0,0,0,0,0l22.1-1.5l7.1,3.8l0.2,0.6L8.8,72.5c0,0,0,0,0,0c0,0,0,0-0.1,0l-0.1,0c-0.2,0-0.4,0.1-0.5,0.3
					s-0.1,0.4,0,0.6c0.7,1.2,0.7,2.6,0,3.8C7.4,78.5,6,79.3,4.6,79.3 M4.6,72.8c-1,0-1.9,0.5-2.3,1.4c-0.7,1.3-0.2,2.9,1.1,3.5
					C3.7,77.9,4.2,78,4.6,78c1,0,1.9-0.5,2.3-1.4c0.7-1.3,0.2-2.9-1.1-3.5C5.4,72.9,5,72.8,4.6,72.8 M4.6,80c1.6,0,3.2-0.9,4-2.4
					c0.8-1.4,0.7-3.1,0-4.4l0.1,0L35.9,75l-0.5-1.8l-7.5-4L5.6,70.7c0,0-0.2,0-0.4,0c-1,0-3.4,0.2-4.6,2.5c-1.2,2.2-0.3,5,1.9,6.2
					C3.1,79.8,3.9,80,4.6,80L4.6,80z M4.6,73.4c0.3,0,0.6,0.1,0.9,0.2c1,0.5,1.3,1.7,0.8,2.6c-0.4,0.7-1,1-1.7,1
					c-0.3,0-0.6-0.1-0.9-0.2c-1-0.5-1.3-1.7-0.8-2.6C3.2,73.8,3.9,73.4,4.6,73.4L4.6,73.4z"/>
			</g>
		</g>
	</g>
	<g>
		<ellipse class="st15" cx="13.2" cy="71.8" rx="0.6" ry="0.6"/>
		<path class="st14" d="M13.2,71.1c0.4,0,0.7,0.3,0.7,0.7s-0.3,0.7-0.7,0.7c-0.4,0-0.7-0.3-0.7-0.7S12.8,71.1,13.2,71.1z M13.2,72.4
			c0.3,0,0.6-0.3,0.6-0.6c0-0.3-0.3-0.6-0.6-0.6c-0.3,0-0.6,0.3-0.6,0.6C12.6,72.1,12.8,72.4,13.2,72.4z"/>
	</g>
</g>
</svg>
