<?xml version="1.0" encoding="UTF-8"?>
<svg width="90px" height="90px" viewBox="0 0 90 90" version="1.1" xmlns="http://www.w3.org/2000/svg" xmlns:xlink="http://www.w3.org/1999/xlink">
    <!-- Generator: Sketch 51.2 (57519) - http://www.bohemiancoding.com/sketch -->
    <title>Slice 1</title>
    <desc>Created with Sketch.</desc>
    <defs></defs>
    <g id="Page-1" stroke="none" stroke-width="1" fill="none" fill-rule="evenodd">
        <g id="Вышивка_На-куртках" transform="translate(10.000000, 0.000000)" fill-rule="nonzero">
            <path d="M22.4416873,8.55371901 C15.7022333,10.0227273 8.78908189,15.7871901 8.21588089,19.2830579 C7.6426799,22.7789256 5.85359801,30.1239669 4.89826303,36.3347107 C3.94292804,42.5454545 2.43176179,49.2024793 2.34491315,53.2747934 C2.25806452,57.3471074 0.920595533,76.4256198 0.538461538,89.0702479 L10.3002481,89.5165289 C10.5781638,82.3946281 11.9156328,59.4855372 12.5756824,56.0826446 C13.235732,52.6983471 14.382134,46.1528926 16.3622829,38.231405 L16.0843672,86.0950413 C21.4863524,88.2334711 27.4094293,89.1446281 34.3225806,89.1446281 L34.3920596,87.322314 L36.0248139,87.4710744 L36.0248139,89.1446281 C42.9379653,89.1446281 48.6526055,88.2334711 54.0545906,86.0950413 L53.7766749,38.268595 C55.7741935,46.1714876 56.9032258,52.7169421 57.5632754,56.1198347 C58.2233251,59.5041322 59.560794,82.4318182 59.8387097,89.553719 L69.6004963,89.107438 C69.2183623,76.4628099 67.898263,57.3657025 67.7940447,53.3119835 C67.707196,49.2396694 66.17866,42.5826446 65.2406948,36.3719008 C64.2853598,30.161157 62.4962779,22.8161157 61.9230769,19.3202479 C61.3498759,15.8243802 54.4367246,10.0599174 47.6972705,8.59090909 C47.6972705,8.59090909 43.91067,2.5661157 43.4416873,1.91528926 C42.9727047,1.26446281 40.2109181,0.520661157 37.0843672,0.520661157 C33.9578164,0.520661157 28.764268,0.316115702 26.6799007,1.95247934 C24.5955335,3.58884298 22.4416873,8.55371901 22.4416873,8.55371901 Z" id="Shape" fill="#565045"></path>
            <path d="M34.426799,6.61983471 C34.426799,6.58264463 34.426799,6.5268595 34.426799,6.48966942 C27.2531017,6.88016529 27.3052109,6.32231405 27.6004963,8.98140496 C27.8957816,11.6404959 31.942928,27.018595 33.1588089,31.2954545 C34.3920596,35.572314 34.9826303,35.7954545 34.9826303,35.7954545 C34.9826303,35.7954545 34.9826303,35.7768595 34.9826303,35.7582645 C35.0347395,35.7954545 35.0868486,35.7954545 35.0868486,35.7954545 C35.0868486,35.7954545 35.6947891,35.572314 36.91067,31.2954545 C38.1439206,27.018595 42.1042184,11.6219008 42.4689826,8.98140496 C42.955335,5.65289256 41.2531017,6.95454545 34.426799,6.61983471 Z" id="Shape" fill="#50382B"></path>
            <path d="M27.5657568,1.11570248 C26.6799007,1.91528926 26.662531,6.93595041 27.6004963,7.14049587 C28.5210918,7.34504132 33.3672457,6.48966942 35.4516129,6.5268595 C36.8411911,6.54545455 40.8362283,7.36363636 42.5905707,6.5268595 C43.4590571,6.1177686 42.9379653,4.61157025 42.9379653,3.75619835 C42.9900744,1.72933884 43.3027295,0.98553719 41.6352357,0.855371901 C39.9503722,0.70661157 30.2059553,0.241735537 27.5657568,1.11570248 Z" id="Shape" fill="#936145"></path>
            <path d="M27.1836228,1.22727273 C24.9950372,4.05371901 19.7841191,13.7603306 18.9330025,15.7871901 C21.7816377,15.7871901 25.7593052,15.7871901 25.7593052,15.7871901 L23.0496278,19.5061983 L34.426799,35.5909091 C34.426799,35.5909091 29.3548387,18.3719008 28.5037221,14.2995868 C27.6526055,10.2272727 26.9057072,4.5 27.1836228,1.22727273 Z" id="Shape" fill="#936145"></path>
            <g id="Group" opacity="0.2" transform="translate(0.521092, 1.487603)" fill="#FFFFFF">
                <g id="Shape">
                    <path d="M26.9925558,7.0661157 C22.7543424,11.4545455 20.2878412,13.0165289 18.4119107,14.1136364 C16.5359801,15.2107438 12.6972705,14.392562 11.0818859,22.4256198 C9.46650124,30.4586777 6.02729529,44.553719 5.7146402,50.9504132 C5.40198511,57.3471074 4.18610422,84.8677686 3.96029777,87.7871901 C2.65756824,87.731405 0.017369727,87.6012397 0.017369727,87.6012397 L0.76426799,71.2376033 C0.76426799,71.2376033 1.82382134,50.6900826 2.04962779,49.0165289 C2.27543424,47.3615702 7.71215881,17.7954545 7.71215881,17.7954545 C7.71215881,17.7954545 9.36228288,14.5041322 10.439206,13.5 C11.516129,12.4958678 17.7866005,7.6053719 22.4416873,6.61983471 C23.1712159,4.55578512 26.4019851,0.111570248 26.4019851,0.111570248 L26.9925558,7.0661157 Z"></path>
                </g>
            </g>
            <path d="M42.955335,1.22727273 C45.1439206,4.05371901 50.3548387,13.7603306 51.2059553,15.7871901 C48.3573201,15.7871901 44.3796526,15.7871901 44.3796526,15.7871901 L47.08933,19.5061983 L35.6774194,35.7768595 C35.6774194,35.7768595 40.7841191,18.3904959 41.6352357,14.3181818 C42.4863524,10.2458678 43.2506203,4.5 42.955335,1.22727273 Z" id="Shape" fill="#936145"></path>
            <polygon id="Shape" fill="#936145" points="0.868486352 83.0454545 10.5434243 83.4731405 10.3002481 89.535124 0.538461538 89.088843"></polygon>
            <polygon id="Shape" fill="#936145" points="69.1315136 83.0454545 59.4565757 83.4731405 59.6997519 89.535124 69.4615385 89.088843"></polygon>
            <g id="Group" transform="translate(18.585608, 66.942149)" fill="#936145">
                <polygon id="Shape" points="27.6352357 0.130165289 32.8635236 13.1652893 31.2133995 15.6198347 25.2208437 1.7107438"></polygon>
                <polygon id="Shape" points="5.34987593 0.130165289 0.121588089 13.1652893 1.75434243 15.6198347 7.74689826 1.7107438"></polygon>
            </g>
            <g id="Group" transform="translate(34.044665, 77.541322)" fill="#010101">
                <g transform="translate(0.000000, 1.487603)" id="Shape">
                    <path d="M1.65012407,0.83677686 L0.416873449,0.83677686 C0.225806452,0.83677686 0.0694789082,0.669421488 0.0694789082,0.464876033 C0.0694789082,0.260330579 0.225806452,0.0929752066 0.416873449,0.0929752066 L1.65012407,0.0929752066 C1.84119107,0.0929752066 1.99751861,0.260330579 1.99751861,0.464876033 C1.99751861,0.669421488 1.85856079,0.83677686 1.65012407,0.83677686 Z"></path>
                    <path d="M1.65012407,2.39876033 L0.416873449,2.39876033 C0.225806452,2.39876033 0.0694789082,2.23140496 0.0694789082,2.0268595 C0.0694789082,1.82231405 0.225806452,1.65495868 0.416873449,1.65495868 L1.65012407,1.65495868 C1.84119107,1.65495868 1.99751861,1.82231405 1.99751861,2.0268595 C1.99751861,2.23140496 1.85856079,2.39876033 1.65012407,2.39876033 Z"></path>
                    <path d="M1.65012407,3.9607438 L0.416873449,3.9607438 C0.225806452,3.9607438 0.0694789082,3.79338843 0.0694789082,3.58884298 C0.0694789082,3.38429752 0.225806452,3.21694215 0.416873449,3.21694215 L1.65012407,3.21694215 C1.84119107,3.21694215 1.99751861,3.38429752 1.99751861,3.58884298 C1.99751861,3.79338843 1.85856079,3.9607438 1.65012407,3.9607438 Z"></path>
                    <path d="M1.65012407,5.54132231 L0.416873449,5.54132231 C0.225806452,5.54132231 0.0694789082,5.37396694 0.0694789082,5.16942149 C0.0694789082,4.96487603 0.225806452,4.79752066 0.416873449,4.79752066 L1.65012407,4.79752066 C1.84119107,4.79752066 1.99751861,4.96487603 1.99751861,5.16942149 C1.99751861,5.37396694 1.85856079,5.54132231 1.65012407,5.54132231 Z"></path>
                    <path d="M1.65012407,7.10330579 L0.416873449,7.10330579 C0.225806452,7.10330579 0.0694789082,6.93595041 0.0694789082,6.73140496 C0.0694789082,6.5268595 0.225806452,6.35950413 0.416873449,6.35950413 L1.65012407,6.35950413 C1.84119107,6.35950413 1.99751861,6.5268595 1.99751861,6.73140496 C1.99751861,6.93595041 1.85856079,7.10330579 1.65012407,7.10330579 Z"></path>
                    <path d="M0.347394541,10.4876033 C0.156327543,10.4876033 0,10.3202479 0,10.1157025 L0,8.29338843 C0,8.08884298 0.156327543,7.9214876 0.347394541,7.9214876 L1.98014888,7.9214876 C2.17121588,7.9214876 2.32754342,8.08884298 2.32754342,8.29338843 C2.32754342,8.49793388 2.17121588,8.66528926 1.98014888,8.66528926 L0.694789082,8.66528926 L0.694789082,10.1157025 C0.694789082,10.3202479 0.538461538,10.4876033 0.347394541,10.4876033 Z"></path>
                </g>
                <path d="M1.65012407,0.780991736 L0.416873449,0.780991736 C0.225806452,0.780991736 0.0694789082,0.613636364 0.0694789082,0.409090909 C0.0694789082,0.204545455 0.225806452,0.0371900826 0.416873449,0.0371900826 L1.65012407,0.0371900826 C1.84119107,0.0371900826 1.99751861,0.204545455 1.99751861,0.409090909 C1.99751861,0.613636364 1.85856079,0.780991736 1.65012407,0.780991736 Z" id="Shape"></path>
            </g>
            <path d="M34.426799,36.0371901 C34.3052109,36.0371901 34.1836228,35.981405 34.0967742,35.8698347 L22.719603,19.785124 C22.6153846,19.6363636 22.6153846,19.4132231 22.719603,19.2644628 L24.9081886,16.2334711 L18.9330025,16.2334711 C18.7940447,16.2334711 18.6724566,16.1590909 18.5856079,16.0289256 C18.516129,15.8987603 18.4987593,15.75 18.5508685,15.6198347 C19.4193548,13.5371901 24.6476427,3.81198347 26.853598,0.948347107 C26.9751861,0.799586777 27.1662531,0.743801653 27.3225806,0.818181818 C27.4789082,0.892561983 27.5831266,1.0785124 27.5657568,1.26446281 C27.2878412,4.51859504 28.0521092,10.2644628 28.8858561,14.2252066 C29.719603,18.2231405 34.7394541,35.3119835 34.7915633,35.4793388 C34.8436725,35.6838843 34.7741935,35.9070248 34.5831266,36 C34.5483871,36.0371901 34.4962779,36.0371901 34.426799,36.0371901 Z M23.5707196,19.5247934 L33.3498759,33.3595041 C31.9255583,28.4690083 28.7816377,17.5909091 28.1215881,14.4297521 C27.3920596,10.9152893 26.6972705,6.02479339 26.7320099,2.62190083 C24.5434243,5.93181818 20.808933,12.8305785 19.5930521,15.3780992 L25.7766749,15.3780992 C25.9330025,15.3780992 26.0719603,15.4710744 26.1414392,15.6198347 C26.2109181,15.768595 26.1935484,15.9545455 26.08933,16.0847107 L23.5707196,19.5247934 Z" id="Shape" fill="#010101"></path>
            <path d="M10.3002481,89.9628099 C10.3002481,89.9628099 10.2828784,89.9628099 10.2828784,89.9628099 L0.521091811,89.5165289 C0.29528536,89.4979339 0.121588089,89.3119835 0.138957816,89.0702479 C0.364764268,81.3161157 0.972704715,70.9958678 1.40694789,63.4834711 C1.68486352,58.6487603 1.91066998,54.8367769 1.94540943,53.2747934 C2.01488834,50.5413223 2.70967742,46.6921488 3.43920596,42.6012397 C3.80397022,40.518595 4.20347395,38.3801653 4.51612903,36.2789256 C5.08933002,32.5785124 5.92307692,28.5805785 6.66997519,25.0475207 C7.17369727,22.6859504 7.60794045,20.6404959 7.8337469,19.2272727 C8.42431762,15.6198347 15.3895782,9.66942149 22.3722084,8.1446281 C22.5980149,8.08884298 22.8064516,8.25619835 22.8585608,8.47933884 C22.91067,8.72107438 22.7543424,8.94421488 22.5459057,9 C16.0148883,10.4318182 9.18858561,16.0475207 8.63275434,19.3760331 C8.40694789,20.8078512 7.97270471,22.8533058 7.46898263,25.2334711 C6.72208437,28.7479339 5.88833747,32.7458678 5.31513648,36.427686 C5.00248139,38.5289256 4.60297767,40.6859504 4.2382134,42.768595 C3.50868486,46.822314 2.83126551,50.6528926 2.7617866,53.3119835 C2.72704715,54.892562 2.50124069,58.7045455 2.22332506,63.5578512 C1.78908189,70.9400826 1.21588089,81 0.972704715,88.6983471 L9.93548387,89.107438 C10.2307692,81.9483471 11.516129,59.5227273 12.1935484,56.0454545 C12.3151365,55.4504132 12.4367246,54.7809917 12.5756824,54.018595 C13.2704715,50.3181818 14.3300248,44.7396694 15.9801489,38.1942149 C16.0322581,37.9896694 16.2233251,37.8409091 16.4317618,37.8780992 C16.6401985,37.9152893 16.7791563,38.1012397 16.7791563,38.3057851 L16.5012407,85.7789256 C21.6253102,87.768595 27.2878412,88.6983471 34.3225806,88.6983471 C34.5483871,88.6983471 34.7220844,88.8842975 34.7220844,89.1260331 C34.7220844,89.3677686 34.5483871,89.553719 34.3225806,89.553719 C27.0794045,89.553719 21.2431762,88.5681818 15.9454094,86.4855372 C15.7890819,86.4297521 15.6848635,86.2623967 15.6848635,86.0764463 L15.9454094,41.7458678 C14.764268,46.803719 13.9478908,51.1177686 13.3746898,54.1487603 C13.235732,54.911157 13.0967742,55.5991736 12.9925558,56.1942149 C12.3498759,59.4669421 11.0297767,82.0599174 10.7171216,89.553719 C10.7171216,89.6652893 10.6650124,89.7768595 10.5781638,89.8512397 C10.5086849,89.9256198 10.4044665,89.9628099 10.3002481,89.9628099 Z" id="Shape" fill="#010101"></path>
            <path d="M35.6600496,36.2231405 C35.5905707,36.2231405 35.5384615,36.2045455 35.4689826,36.1673554 C35.2952854,36.0743802 35.2084367,35.8512397 35.2605459,35.6466942 C35.3126551,35.4793388 40.3672457,18.2231405 41.2183623,14.2252066 C42.0521092,10.2644628 42.8163772,4.5 42.5384615,1.26446281 C42.5210918,1.0785124 42.6253102,0.892561983 42.7816377,0.818181818 C42.9379653,0.743801653 43.1290323,0.799586777 43.2506203,0.948347107 C45.4565757,3.81198347 50.6848635,13.5371901 51.5533499,15.6198347 C51.6054591,15.75 51.6054591,15.9173554 51.5186104,16.0289256 C51.4491315,16.1590909 51.3101737,16.2334711 51.1712159,16.2334711 L45.17866,16.2334711 L47.3672457,19.2644628 C47.471464,19.4132231 47.4888337,19.6363636 47.3672457,19.785124 L35.955335,36.0557851 C35.9205955,36.1487603 35.7990074,36.2231405 35.6600496,36.2231405 Z M43.4243176,2.60330579 C43.4416873,6.02479339 42.764268,10.9152893 42.0347395,14.411157 C41.3746898,17.572314 38.1960298,28.5619835 36.7717122,33.4896694 L46.5856079,19.5061983 L44.0669975,16.0475207 C43.9801489,15.9173554 43.9627792,15.731405 44.0148883,15.5826446 C44.0843672,15.4338843 44.2233251,15.3409091 44.3796526,15.3409091 L50.5632754,15.3409091 C49.3473945,12.8119835 45.6129032,5.91322314 43.4243176,2.60330579 Z" id="Shape" fill="#010101"></path>
            <path d="M59.8387097,89.9628099 C59.7344913,89.9628099 59.630273,89.9256198 59.560794,89.8512397 C59.4739454,89.7768595 59.439206,89.6652893 59.4218362,89.553719 C59.1265509,82.0599174 57.7890819,59.4669421 57.146402,56.1942149 C57.0248139,55.5991736 56.9032258,54.9297521 56.764268,54.1487603 C56.191067,51.1177686 55.3746898,46.803719 54.1935484,41.7458678 L54.4540943,86.0764463 C54.4540943,86.2623967 54.3498759,86.4297521 54.1935484,86.4855372 C48.9131514,88.5867769 43.1290323,89.553719 36.0248139,89.553719 C35.7990074,89.553719 35.6253102,89.3677686 35.6253102,89.1260331 L35.6253102,87.4524793 C35.6253102,87.2107438 35.7990074,87.0247934 36.0248139,87.0247934 C36.2506203,87.0247934 36.4243176,87.2107438 36.4243176,87.4524793 L36.4243176,88.6983471 C43.1290323,88.661157 48.617866,87.731405 53.6377171,85.7789256 L53.3598015,38.25 C53.3598015,38.0268595 53.516129,37.8409091 53.707196,37.822314 C53.9156328,37.785124 54.1066998,37.9338843 54.1588089,38.1384298 C55.808933,44.6838843 56.8684864,50.2809917 57.5632754,53.9628099 C57.7022333,54.7252066 57.8411911,55.4132231 57.9454094,55.9896694 C58.6228288,59.4669421 59.9081886,81.892562 60.2034739,89.0516529 L69.1662531,88.642562 C68.9230769,80.9442149 68.3498759,70.8842975 67.9156328,63.5020661 C67.6377171,58.6673554 67.4119107,54.8553719 67.3771712,53.2561983 C67.3076923,50.5971074 66.630273,46.7665289 65.9007444,42.7128099 C65.5186104,40.6301653 65.1364764,38.4731405 64.8238213,36.3719008 C64.2679901,32.6900826 63.4168734,28.7107438 62.6699752,25.177686 C62.1662531,22.7975207 61.7320099,20.7520661 61.5062035,19.3202479 C60.9677419,15.9917355 54.1240695,10.357438 47.5930521,8.94421488 C47.3672457,8.88842975 47.2282878,8.66528926 47.280397,8.42355372 C47.3325062,8.18181818 47.5409429,8.03305785 47.7667494,8.08884298 C54.7493797,9.61363636 61.7146402,15.5640496 62.3052109,19.1714876 C62.5310174,20.5847107 62.9652605,22.6301653 63.4689826,24.9917355 C64.2158809,28.5247934 65.0669975,32.5227273 65.6228288,36.2231405 C65.9354839,38.3243802 66.3349876,40.4628099 66.6997519,42.5454545 C67.4292804,46.6363636 68.1240695,50.5041322 68.1935484,53.2190083 C68.2282878,54.7809917 68.4540943,58.5929752 68.7320099,63.427686 C69.1662531,70.9586777 69.7568238,81.2603306 70,89.0144628 C70,89.2561983 69.8263027,89.4607438 69.617866,89.4607438 L59.8560794,89.9070248 C59.8560794,89.9628099 59.8387097,89.9628099 59.8387097,89.9628099 Z" id="Shape" fill="#010101"></path>
            <path d="M27.1836228,1.65495868 C27.0099256,1.65495868 26.853598,1.54338843 26.8014888,1.35743802 C26.7320099,1.13429752 26.853598,0.892561983 27.0620347,0.818181818 C30.2580645,-0.241735537 40.1588089,-0.0929752066 43.0769231,0.818181818 C43.2853598,0.892561983 43.4243176,1.13429752 43.3548387,1.35743802 C43.2853598,1.58057851 43.0595533,1.7107438 42.8511166,1.65495868 C40.08933,0.780991736 30.3275434,0.650826446 27.3052109,1.65495868 C27.2704715,1.65495868 27.2183623,1.65495868 27.1836228,1.65495868 Z" id="Shape" fill="#010101"></path>
            <path d="M27.4441687,7.6053719 C27.2704715,7.6053719 27.0967742,7.47520661 27.044665,7.27066116 C26.9925558,7.02892562 27.1141439,6.80578512 27.3399504,6.73140496 C31.1612903,5.6714876 39.5682382,5.95041322 42.6774194,6.50826446 C42.9032258,6.54545455 43.0421836,6.76859504 43.0074442,7.01033058 C42.9727047,7.25206612 42.764268,7.40082645 42.5384615,7.36363636 C39.5682382,6.84297521 31.1960298,6.56404959 27.5310174,7.58677686 C27.5136476,7.6053719 27.4789082,7.6053719 27.4441687,7.6053719 Z" id="Shape" fill="#010101"></path>
            <g id="Group" transform="translate(18.238213, 66.570248)" fill="#010101">
                <path d="M31.560794,16.4380165 C31.5434243,16.4380165 31.5434243,16.4380165 31.5260546,16.4380165 C31.3870968,16.4194215 31.248139,16.3264463 31.1960298,16.177686 L25.2034739,2.25 C25.1166253,2.04545455 25.1861042,1.80371901 25.3598015,1.69214876 L27.7568238,0.111570248 C27.8610422,0.0371900826 27.9826303,0.0371900826 28.0868486,0.0743801653 C28.191067,0.111570248 28.2952854,0.204545455 28.3300248,0.316115702 L33.5583127,13.3512397 C33.6104218,13.5 33.5930521,13.6487603 33.5235732,13.7789256 L31.8908189,16.2334711 C31.82134,16.3636364 31.6997519,16.4380165 31.560794,16.4380165 Z M26.08933,2.25 L31.6476427,15.1363636 L32.7419355,13.481405 L27.7915633,1.13429752 L26.08933,2.25 Z" id="Shape"></path>
                <path d="M2.10173697,16.4380165 C1.96277916,16.4380165 1.84119107,16.3636364 1.77171216,16.2520661 L0.138957816,13.7975207 C0.0521091811,13.6673554 0.0347394541,13.518595 0.104218362,13.3698347 L5.3325062,0.334710744 C5.38461538,0.223140496 5.47146402,0.130165289 5.57568238,0.0929752066 C5.67990074,0.055785124 5.81885856,0.0743801653 5.9057072,0.130165289 L8.30272953,1.7107438 C8.4764268,1.82231405 8.54590571,2.06404959 8.45905707,2.26859504 L2.46650124,16.177686 C2.41439206,16.3264463 2.27543424,16.4194215 2.13647643,16.4380165 C2.1191067,16.4380165 2.10173697,16.4380165 2.10173697,16.4380165 Z M0.920595533,13.481405 L2.01488834,15.1363636 L7.57320099,2.25 L5.87096774,1.13429752 L0.920595533,13.481405 Z" id="Shape"></path>
            </g>
            <path d="M59.5434243,83.9008264 C59.3349876,83.9008264 59.1439206,83.714876 59.1439206,83.4917355 C59.1265509,83.25 59.3176179,83.0454545 59.5260546,83.0454545 L69.3573201,82.6177686 C69.5831266,82.6177686 69.7741935,82.803719 69.7741935,83.0268595 C69.7915633,83.268595 69.6004963,83.4731405 69.3920596,83.4731405 L59.5434243,83.9008264 C59.560794,83.9008264 59.5434243,83.9008264 59.5434243,83.9008264 Z" id="Shape" fill="#010101"></path>
            <path d="M10.3002481,89.9628099 C10.3002481,89.9628099 10.2828784,89.9628099 10.2828784,89.9628099 L0.521091811,89.5165289 C0.416873449,89.5165289 0.312655087,89.4607438 0.243176179,89.3677686 C0.17369727,89.2747934 0.138957816,89.1632231 0.138957816,89.0516529 L0.46898263,83.0082645 C0.486352357,82.785124 0.660049628,82.5991736 0.868486352,82.5991736 C0.868486352,82.5991736 0.885856079,82.5991736 0.885856079,82.5991736 L10.560794,83.0268595 C10.7866005,83.0454545 10.9602978,83.231405 10.942928,83.4731405 L10.7171216,89.535124 C10.7171216,89.6466942 10.6650124,89.7582645 10.5781638,89.8326446 C10.5086849,89.9256198 10.4044665,89.9628099 10.3002481,89.9628099 Z M0.972704715,88.661157 L9.91811414,89.0702479 L10.1091811,83.8822314 L1.25062035,83.4917355 L0.972704715,88.661157 Z" id="Shape" fill="#010101"></path>
            <g id="Group" opacity="0.2" transform="translate(15.980149, 38.119835)" fill="#010101">
                <g id="Shape">
                    <path d="M0.399503722,0.148760331 C2.69230769,5.00206612 5.94044665,30.7561983 5.9751861,50.1136364 C3.30024814,48.7747934 0.121588089,47.9752066 0.121588089,47.9752066 L0.399503722,0.148760331 Z"></path>
                </g>
            </g>
            <g id="Group" opacity="0.2" transform="translate(42.555831, 1.487603)" fill="#FFFFFF">
                <g id="Shape">
                    <path d="M0.017369727,7.0661157 C4.25558313,11.4545455 6.72208437,13.0165289 8.59801489,14.1136364 C10.4739454,15.2107438 14.3126551,14.392562 15.9280397,22.4256198 C17.5434243,30.4586777 21,44.535124 21.2952854,50.9318182 C21.5905707,57.3285124 22.8238213,84.8491736 23.0496278,87.768595 C24.3523573,87.7128099 26.9925558,87.5826446 26.9925558,87.5826446 L26.2456576,71.2190083 C26.2456576,71.2190083 25.1861042,50.6714876 24.9602978,48.9979339 C24.7344913,47.3429752 19.2977667,17.7768595 19.2977667,17.7768595 C19.2977667,17.7768595 17.6476427,14.4855372 16.5707196,13.481405 C15.4937965,12.4772727 9.22332506,7.58677686 4.56823821,6.60123967 C3.83870968,4.53719008 0.607940447,0.0929752066 0.607940447,0.0929752066 L0.017369727,7.0661157 Z"></path>
                </g>
            </g>
            <g id="Group" opacity="0.2" transform="translate(48.461538, 38.119835)" fill="#010101">
                <g id="Shape">
                    <path d="M5.24565757,0.148760331 C2.9528536,5.00206612 0.0694789082,30.5330579 0.0347394541,49.8904959 C2.70967742,48.5516529 5.5235732,47.9752066 5.5235732,47.9752066 L5.24565757,0.148760331 Z"></path>
                </g>
            </g>
            <g id="Group" transform="translate(24.491315, 37.747934)">
                <path d="M20.4615385,11.268595 C21.0694789,10.6177686 21.2779156,9.18595041 20.4441687,7.56818182 C19.6104218,5.95041322 16.292804,0.0185950413 10.5434243,0.0185950413 C10.5434243,0.0185950413 10.5434243,0.0185950413 10.5434243,0.0185950413 C10.5434243,0.0185950413 10.5434243,0.0185950413 10.5434243,0.0185950413 C10.5434243,0.0185950413 10.5434243,0.0185950413 10.5434243,0.0185950413 C10.5434243,0.0185950413 10.5434243,0.0185950413 10.5434243,0.0185950413 C4.79404467,0.0185950413 1.4764268,5.95041322 0.642679901,7.56818182 C-0.191066998,9.18595041 0.017369727,10.6177686 0.625310174,11.268595 L0.903225806,13.7789256 C1.51116625,14.4297521 2.3101737,16.2334711 1.37220844,17.088843 C0.434243176,17.9442149 0.521091811,18.8553719 0.920595533,19.5991736 C1.32009926,20.3429752 2.29280397,20.4173554 3.68238213,20.4173554 C4.81141439,20.4173554 4.35980149,22.3326446 3.94292804,22.5929752 C3.94292804,22.5929752 3.94292804,24.9173554 3.94292804,26.4049587 C4.63771712,27.2231405 8.94540943,29.5847107 10.560794,29.5847107 C10.560794,29.5847107 10.560794,29.5847107 10.560794,29.5847107 C10.560794,29.5847107 10.560794,29.5847107 10.560794,29.5847107 C12.1761787,29.5847107 16.483871,27.2045455 17.17866,26.4049587 C17.17866,24.9359504 17.17866,22.5929752 17.17866,22.5929752 C16.7444169,22.3140496 16.3101737,20.4173554 17.439206,20.4173554 C18.8114144,20.4173554 19.7841191,20.3615702 20.2009926,19.5991736 C20.6004963,18.8553719 20.6873449,17.9442149 19.7493797,17.088843 C18.8114144,16.2334711 19.6104218,14.4297521 20.2183623,13.7789256 L20.4615385,11.268595 Z" id="Shape" fill="#FFFFFF"></path>
                <path d="M9.08436725,13.2954545 C9.08436725,12.142562 8.00744417,11.8264463 6.40942928,11.8264463 C4.81141439,11.8264463 3.57816377,11.8636364 2.91811414,13.1652893 C2.24069479,14.4669421 2.70967742,15.1921488 3.23076923,15.9731405 C3.75186104,16.7541322 4.22084367,17.088843 5.3325062,17.088843 C6.44416873,17.088843 7.66004963,16.6239669 8.0942928,16.0289256 C8.52853598,15.4524793 9.08436725,14.3553719 9.08436725,13.2954545 Z" id="Shape" fill="#565045"></path>
                <path d="M12.0024814,13.2954545 C12.0024814,12.142562 13.0794045,11.8264463 14.6774194,11.8264463 C16.2754342,11.8264463 17.5086849,11.8636364 18.1687345,13.1652893 C18.8461538,14.4669421 18.3771712,15.1921488 17.8560794,15.9731405 C17.3349876,16.7541322 16.866005,17.088843 15.7543424,17.088843 C14.6426799,17.088843 13.426799,16.6239669 12.9925558,16.0289256 C12.5583127,15.4524793 12.0024814,14.3553719 12.0024814,13.2954545 Z" id="Shape" fill="#565045"></path>
                <path d="M11.5856079,16.7727273 C11.0645161,16.1590909 11.0818859,15.0991736 10.5434243,15.0805785 C10.5434243,15.0805785 10.5434243,15.0805785 10.5434243,15.0805785 C10.5434243,15.0805785 10.5434243,15.0805785 10.5434243,15.0805785 C9.98759305,15.0805785 10.0223325,16.1404959 9.50124069,16.7727273 C8.98014888,17.4049587 7.6426799,18.9855372 7.60794045,19.357438 C7.57320099,19.7293388 8.7369727,20.5475207 9.15384615,20.268595 C9.55334988,19.9896694 10.0918114,18.3719008 10.5434243,18.3719008 C11.0124069,18.3719008 11.5334988,19.9896694 11.9330025,20.268595 C12.3325062,20.5475207 13.5136476,19.7293388 13.4789082,19.357438 C13.4615385,18.9855372 12.1240695,17.3863636 11.5856079,16.7727273 Z" id="Shape" fill="#565045"></path>
                <path d="M14.7816377,21.2541322 C14.7816377,21.6260331 14.7295285,22.6301653 14.4689826,22.4442149 C14.2084367,22.2582645 13.4962779,21.2541322 13.4962779,21.2541322 L12.9578164,21.2541322 L12.9578164,22.4442149 L12.1414392,22.4442149 L12.1414392,21.2541322 C12.1414392,21.2541322 11.5508685,21.2541322 11.1166253,21.2541322 C11.1166253,22.3512397 10.9081886,22.4442149 10.560794,22.4442149 C10.2133995,22.4442149 10.0049628,22.3512397 10.0049628,21.2541322 C9.55334988,21.2541322 8.98014888,21.2541322 8.98014888,21.2541322 L8.98014888,22.4442149 L8.16377171,22.4442149 L8.16377171,21.2541322 L7.62531017,21.2541322 C7.62531017,21.2541322 6.89578164,22.2582645 6.65260546,22.4442149 C6.39205955,22.6301653 6.33995037,21.6260331 6.33995037,21.2541322 C6.06203474,21.2541322 5.78411911,21.2541322 5.78411911,21.2541322 L5.78411911,23.5971074 C5.78411911,23.5971074 6.28784119,24.1363636 6.51364764,24.4524793 C6.73945409,24.768595 6.82630273,22.8533058 7.33002481,22.8533058 C7.59057072,23.1322314 7.62531017,24.2665289 7.62531017,24.8057851 C7.79900744,24.8057851 8.35483871,24.8057851 8.35483871,24.8057851 C8.35483871,24.8057851 8.33746898,23.5413223 8.61538462,23.5413223 C9.13647643,23.9318182 8.84119107,24.9731405 9.1191067,24.9731405 C9.39702233,24.9731405 9.93548387,24.9731405 9.93548387,24.9731405 L9.93548387,23.5971074 L10.5781638,23.5413223 L11.2208437,23.5971074 L11.2208437,24.9731405 C11.2208437,24.9731405 11.7593052,24.9731405 12.0372208,24.9731405 C12.3151365,24.9731405 12.0024814,23.9318182 12.5409429,23.5413223 C12.8188586,23.5413223 12.8014888,24.8057851 12.8014888,24.8057851 C12.8014888,24.8057851 13.3573201,24.8057851 13.5310174,24.8057851 C13.5310174,24.2665289 13.5657568,23.1322314 13.8263027,22.8533058 C14.3300248,22.8533058 14.4168734,24.768595 14.6426799,24.4524793 C14.8684864,24.1363636 15.3722084,23.5971074 15.3722084,23.5971074 L15.3722084,21.2541322 C15.337469,21.2541322 15.0421836,21.2541322 14.7816377,21.2541322 Z" id="Shape" fill="#565045"></path>
            </g>
            <g id="Group" transform="translate(33.176179, 34.958678)">
                <g>
                    <g transform="translate(0.868486, 15.991736)" fill="#010101" id="Shape">
                        <path d="M1.61538462,25.8099174 L0.382133995,25.8099174 C0.191066998,25.8099174 0.0347394541,25.642562 0.0347394541,25.4380165 C0.0347394541,25.2334711 0.191066998,25.0661157 0.382133995,25.0661157 L1.61538462,25.0661157 C1.80645161,25.0661157 1.96277916,25.2334711 1.96277916,25.4380165 C1.96277916,25.642562 1.82382134,25.8099174 1.61538462,25.8099174 Z"></path>
                        <path d="M1.61538462,24.2479339 L0.382133995,24.2479339 C0.191066998,24.2479339 0.0347394541,24.0805785 0.0347394541,23.8760331 C0.0347394541,23.6714876 0.191066998,23.5041322 0.382133995,23.5041322 L1.61538462,23.5041322 C1.80645161,23.5041322 1.96277916,23.6714876 1.96277916,23.8760331 C1.96277916,24.0805785 1.82382134,24.2479339 1.61538462,24.2479339 Z"></path>
                        <path d="M1.61538462,22.6859504 L0.382133995,22.6859504 C0.191066998,22.6859504 0.0347394541,22.518595 0.0347394541,22.3140496 C0.0347394541,22.1095041 0.191066998,21.9421488 0.382133995,21.9421488 L1.61538462,21.9421488 C1.80645161,21.9421488 1.96277916,22.1095041 1.96277916,22.3140496 C1.96277916,22.518595 1.82382134,22.6859504 1.61538462,22.6859504 Z"></path>
                        <path d="M1.61538462,21.1053719 L0.382133995,21.1053719 C0.191066998,21.1053719 0.0347394541,20.9380165 0.0347394541,20.7334711 C0.0347394541,20.5289256 0.191066998,20.3615702 0.382133995,20.3615702 L1.61538462,20.3615702 C1.80645161,20.3615702 1.96277916,20.5289256 1.96277916,20.7334711 C1.96277916,20.9380165 1.82382134,21.1053719 1.61538462,21.1053719 Z"></path>
                        <path d="M1.61538462,19.5433884 L0.382133995,19.5433884 C0.191066998,19.5433884 0.0347394541,19.3760331 0.0347394541,19.1714876 C0.0347394541,18.9669421 0.191066998,18.7995868 0.382133995,18.7995868 L1.61538462,18.7995868 C1.80645161,18.7995868 1.96277916,18.9669421 1.96277916,19.1714876 C1.96277916,19.3760331 1.82382134,19.5433884 1.61538462,19.5433884 Z"></path>
                        <path d="M1.61538462,17.981405 L0.382133995,17.981405 C0.191066998,17.981405 0.0347394541,17.8140496 0.0347394541,17.6095041 C0.0347394541,17.4049587 0.191066998,17.2376033 0.382133995,17.2376033 L1.61538462,17.2376033 C1.80645161,17.2376033 1.96277916,17.4049587 1.96277916,17.6095041 C1.96277916,17.8140496 1.82382134,17.981405 1.61538462,17.981405 Z"></path>
                        <path d="M1.61538462,16.4194215 L0.382133995,16.4194215 C0.191066998,16.4194215 0.0347394541,16.2520661 0.0347394541,16.0475207 C0.0347394541,15.8429752 0.191066998,15.6756198 0.382133995,15.6756198 L1.61538462,15.6756198 C1.80645161,15.6756198 1.96277916,15.8429752 1.96277916,16.0475207 C1.96277916,16.2520661 1.82382134,16.4194215 1.61538462,16.4194215 Z"></path>
                        <path d="M1.61538462,14.838843 L0.382133995,14.838843 C0.191066998,14.838843 0.0347394541,14.6714876 0.0347394541,14.4669421 C0.0347394541,14.2623967 0.191066998,14.0950413 0.382133995,14.0950413 L1.61538462,14.0950413 C1.80645161,14.0950413 1.96277916,14.2623967 1.96277916,14.4669421 C1.96277916,14.6714876 1.82382134,14.838843 1.61538462,14.838843 Z"></path>
                        <path d="M1.61538462,13.2768595 L0.382133995,13.2768595 C0.191066998,13.2768595 0.0347394541,13.1095041 0.0347394541,12.9049587 C0.0347394541,12.7004132 0.191066998,12.5330579 0.382133995,12.5330579 L1.61538462,12.5330579 C1.80645161,12.5330579 1.96277916,12.7004132 1.96277916,12.9049587 C1.96277916,13.1095041 1.82382134,13.2768595 1.61538462,13.2768595 Z"></path>
                        <path d="M1.61538462,11.7334711 L0.382133995,11.7334711 C0.191066998,11.7334711 0.0347394541,11.5661157 0.0347394541,11.3615702 C0.0347394541,11.1570248 0.191066998,10.9896694 0.382133995,10.9896694 L1.61538462,10.9896694 C1.80645161,10.9896694 1.96277916,11.1570248 1.96277916,11.3615702 C1.96277916,11.5661157 1.82382134,11.7334711 1.61538462,11.7334711 Z"></path>
                        <path d="M1.61538462,10.1714876 L0.382133995,10.1714876 C0.191066998,10.1714876 0.0347394541,10.0041322 0.0347394541,9.79958678 C0.0347394541,9.59504132 0.191066998,9.42768595 0.382133995,9.42768595 L1.61538462,9.42768595 C1.80645161,9.42768595 1.96277916,9.59504132 1.96277916,9.79958678 C1.96277916,10.0041322 1.82382134,10.1714876 1.61538462,10.1714876 Z"></path>
                        <path d="M1.61538462,8.59090909 L0.382133995,8.59090909 C0.191066998,8.59090909 0.0347394541,8.42355372 0.0347394541,8.21900826 C0.0347394541,8.01446281 0.191066998,7.84710744 0.382133995,7.84710744 L1.61538462,7.84710744 C1.80645161,7.84710744 1.96277916,8.01446281 1.96277916,8.21900826 C1.96277916,8.42355372 1.82382134,8.59090909 1.61538462,8.59090909 Z"></path>
                        <path d="M1.61538462,7.02892562 L0.382133995,7.02892562 C0.191066998,7.02892562 0.0347394541,6.86157025 0.0347394541,6.65702479 C0.0347394541,6.45247934 0.191066998,6.28512397 0.382133995,6.28512397 L1.61538462,6.28512397 C1.80645161,6.28512397 1.96277916,6.45247934 1.96277916,6.65702479 C1.96277916,6.86157025 1.82382134,7.02892562 1.61538462,7.02892562 Z"></path>
                        <path d="M1.61538462,5.46694215 L0.382133995,5.46694215 C0.191066998,5.46694215 0.0347394541,5.29958678 0.0347394541,5.09504132 C0.0347394541,4.89049587 0.191066998,4.7231405 0.382133995,4.7231405 L1.61538462,4.7231405 C1.80645161,4.7231405 1.96277916,4.89049587 1.96277916,5.09504132 C1.96277916,5.29958678 1.82382134,5.46694215 1.61538462,5.46694215 Z"></path>
                        <path d="M1.61538462,3.90495868 L0.382133995,3.90495868 C0.191066998,3.90495868 0.0347394541,3.73760331 0.0347394541,3.53305785 C0.0347394541,3.3285124 0.191066998,3.16115702 0.382133995,3.16115702 L1.61538462,3.16115702 C1.80645161,3.16115702 1.96277916,3.3285124 1.96277916,3.53305785 C1.96277916,3.73760331 1.82382134,3.90495868 1.61538462,3.90495868 Z"></path>
                        <path d="M1.61538462,2.32438017 L0.382133995,2.32438017 C0.191066998,2.32438017 0.0347394541,2.15702479 0.0347394541,1.95247934 C0.0347394541,1.74793388 0.191066998,1.58057851 0.382133995,1.58057851 L1.61538462,1.58057851 C1.80645161,1.58057851 1.96277916,1.74793388 1.96277916,1.95247934 C1.96277916,2.15702479 1.82382134,2.32438017 1.61538462,2.32438017 Z"></path>
                        <path d="M1.61538462,0.762396694 L0.382133995,0.762396694 C0.191066998,0.762396694 0.0347394541,0.595041322 0.0347394541,0.390495868 C0.0347394541,0.185950413 0.191066998,0.0185950413 0.382133995,0.0185950413 L1.61538462,0.0185950413 C1.80645161,0.0185950413 1.96277916,0.185950413 1.96277916,0.390495868 C1.96277916,0.595041322 1.82382134,0.762396694 1.61538462,0.762396694 Z"></path>
                    </g>
                    <path d="M2.48387097,15.1921488 L1.25062035,15.1921488 C1.05955335,15.1921488 0.903225806,15.0247934 0.903225806,14.8202479 C0.903225806,14.6157025 1.05955335,14.4483471 1.25062035,14.4483471 L2.48387097,14.4483471 C2.67493797,14.4483471 2.83126551,14.6157025 2.83126551,14.8202479 C2.83126551,15.0247934 2.69230769,15.1921488 2.48387097,15.1921488 Z" id="Shape" fill="#010101"></path>
                    <path d="M2.48387097,13.6301653 L1.25062035,13.6301653 C1.05955335,13.6301653 0.903225806,13.4628099 0.903225806,13.2582645 C0.903225806,13.053719 1.05955335,12.8863636 1.25062035,12.8863636 L2.48387097,12.8863636 C2.67493797,12.8863636 2.83126551,13.053719 2.83126551,13.2582645 C2.83126551,13.4628099 2.69230769,13.6301653 2.48387097,13.6301653 Z" id="Shape" fill="#010101"></path>
                    <path d="M2.48387097,12.0495868 L1.25062035,12.0495868 C1.05955335,12.0495868 0.903225806,11.8822314 0.903225806,11.677686 C0.903225806,11.4731405 1.05955335,11.3057851 1.25062035,11.3057851 L2.48387097,11.3057851 C2.67493797,11.3057851 2.83126551,11.4731405 2.83126551,11.677686 C2.83126551,11.8822314 2.69230769,12.0495868 2.48387097,12.0495868 Z" id="Shape" fill="#010101"></path>
                    <path d="M2.48387097,10.5061983 L1.25062035,10.5061983 C1.05955335,10.5061983 0.903225806,10.338843 0.903225806,10.1342975 C0.903225806,9.92975207 1.05955335,9.76239669 1.25062035,9.76239669 L2.48387097,9.76239669 C2.67493797,9.76239669 2.83126551,9.92975207 2.83126551,10.1342975 C2.83126551,10.338843 2.69230769,10.5061983 2.48387097,10.5061983 Z" id="Shape" fill="#010101"></path>
                    <path d="M2.48387097,8.94421488 L1.25062035,8.94421488 C1.05955335,8.94421488 0.903225806,8.7768595 0.903225806,8.57231405 C0.903225806,8.3677686 1.05955335,8.20041322 1.25062035,8.20041322 L2.48387097,8.20041322 C2.67493797,8.20041322 2.83126551,8.3677686 2.83126551,8.57231405 C2.83126551,8.7768595 2.69230769,8.94421488 2.48387097,8.94421488 Z" id="Shape" fill="#010101"></path>
                    <path d="M2.48387097,7.3822314 L1.25062035,7.3822314 C1.05955335,7.3822314 0.903225806,7.21487603 0.903225806,7.01033058 C0.903225806,6.80578512 1.05955335,6.63842975 1.25062035,6.63842975 L2.48387097,6.63842975 C2.67493797,6.63842975 2.83126551,6.80578512 2.83126551,7.01033058 C2.83126551,7.21487603 2.69230769,7.3822314 2.48387097,7.3822314 Z" id="Shape" fill="#010101"></path>
                    <path d="M2.48387097,5.80165289 L1.25062035,5.80165289 C1.05955335,5.80165289 0.903225806,5.63429752 0.903225806,5.42975207 C0.903225806,5.22520661 1.05955335,5.05785124 1.25062035,5.05785124 L2.48387097,5.05785124 C2.67493797,5.05785124 2.83126551,5.22520661 2.83126551,5.42975207 C2.83126551,5.63429752 2.69230769,5.80165289 2.48387097,5.80165289 Z" id="Shape" fill="#010101"></path>
                    <path d="M2.48387097,4.23966942 L1.25062035,4.23966942 C1.05955335,4.23966942 0.903225806,4.07231405 0.903225806,3.8677686 C0.903225806,3.66322314 1.05955335,3.49586777 1.25062035,3.49586777 L2.48387097,3.49586777 C2.67493797,3.49586777 2.83126551,3.66322314 2.83126551,3.8677686 C2.83126551,4.07231405 2.69230769,4.23966942 2.48387097,4.23966942 Z" id="Shape" fill="#010101"></path>
                    <rect id="Rectangle-path" fill="#010101" x="0.920595533" y="0.130165289" width="2.01488834" height="3.60743802"></rect>
                    <polygon id="Shape" fill="#010101" points="1.56327543 1.9338843 0.0694789082 5.98760331 3.68238213 5.98760331 2.18858561 1.9338843"></polygon>
                    <ellipse id="Oval" fill="#CC9E5D" cx="1.9280397" cy="4.57438017" rx="1" ry="1"></ellipse>
                </g>
                <path d="M2.48387097,43.3636364 L1.25062035,43.3636364 C1.05955335,43.3636364 0.903225806,43.196281 0.903225806,42.9917355 C0.903225806,42.7871901 1.05955335,42.6198347 1.25062035,42.6198347 L2.48387097,42.6198347 C2.67493797,42.6198347 2.83126551,42.7871901 2.83126551,42.9917355 C2.83126551,43.196281 2.69230769,43.3636364 2.48387097,43.3636364 Z" id="Shape" fill="#010101"></path>
            </g>
            <g id="Group" transform="translate(60.272953, 83.677686)" fill="#FFFFFF">
                <path d="M3.35235732,5.16942149 C2.39702233,5.16942149 1.54590571,4.87190083 0.903225806,4.2768595 C-0.138957816,3.30991736 -0.0347394541,1.87809917 0.59057072,1.00413223 C1.14640199,0.223140496 2.24069479,-0.204545455 3.38709677,0.650826446 C3.57816377,0.799586777 3.63027295,1.0785124 3.50868486,1.30165289 C3.36972705,1.50619835 3.10918114,1.56198347 2.90074442,1.43181818 C1.99751861,0.762396694 1.44168734,1.3946281 1.2853598,1.59917355 C0.903225806,2.13842975 0.833746898,3.01239669 1.4764268,3.60743802 C2.27543424,4.35123967 3.64764268,4.46280992 5.00248139,3.92355372 C6.21836228,3.44008264 7.59057072,2.26859504 7.81637717,0.483471074 C7.85111663,0.223140496 8.05955335,0.055785124 8.30272953,0.0929752066 C8.54590571,0.130165289 8.70223325,0.371900826 8.6674938,0.613636364 C8.42431762,2.45454545 7.13895782,4.05371901 5.29776675,4.79752066 C4.63771712,5.0392562 3.97766749,5.16942149 3.35235732,5.16942149 Z" id="Shape"></path>
                <path d="M2.51861042,4.61157025 C1.44168734,4.61157025 0.59057072,4.10950413 0.260545906,3.25413223 C0.17369727,3.01239669 0.277915633,2.75206612 0.503722084,2.64049587 C0.729528536,2.54752066 0.972704715,2.65909091 1.07692308,2.90082645 C1.30272953,3.49586777 2.06699752,3.79338843 2.97022333,3.66322314 C4.02977667,3.49586777 5.34987593,2.67768595 5.5235732,0.929752066 C5.54094293,0.669421488 5.76674938,0.502066116 6.00992556,0.520661157 C6.25310174,0.539256198 6.42679901,0.780991736 6.39205955,1.04132231 C6.18362283,3.17975207 4.58560794,4.35123967 3.10918114,4.59297521 C2.88337469,4.61157025 2.69230769,4.61157025 2.51861042,4.61157025 Z" id="Shape"></path>
            </g>
            <g id="Group" transform="translate(1.389578, 83.677686)" fill="#FFFFFF">
                <path d="M5.3325062,5.16942149 C4.70719603,5.16942149 4.0471464,5.0392562 3.38709677,4.77892562 C1.54590571,4.03512397 0.243176179,2.43595041 0.017369727,0.595041322 C-0.017369727,0.334710744 0.156327543,0.111570248 0.382133995,0.0743801653 C0.625310174,0.0371900826 0.833746898,0.223140496 0.868486352,0.464876033 C1.0942928,2.25 2.48387097,3.4214876 3.68238213,3.90495868 C5.01985112,4.44421488 6.40942928,4.31404959 7.20843672,3.58884298 C7.85111663,2.99380165 7.78163772,2.11983471 7.39950372,1.58057851 C7.24317618,1.37603306 6.68734491,0.743801653 5.78411911,1.41322314 C5.59305211,1.56198347 5.31513648,1.50619835 5.17617866,1.28305785 C5.03722084,1.0785124 5.08933002,0.780991736 5.29776675,0.632231405 C6.44416873,-0.204545455 7.52109181,0.204545455 8.0942928,0.98553719 C8.71960298,1.85950413 8.82382134,3.30991736 7.78163772,4.25826446 C7.15632754,4.87190083 6.28784119,5.16942149 5.3325062,5.16942149 Z" id="Shape"></path>
                <path d="M6.18362283,4.61157025 C6.00992556,4.61157025 5.81885856,4.59297521 5.62779156,4.57438017 C4.15136476,4.35123967 2.55334988,3.16115702 2.34491315,1.02272727 C2.32754342,0.762396694 2.48387097,0.539256198 2.72704715,0.502066116 C2.97022333,0.483471074 3.17866005,0.650826446 3.2133995,0.911157025 C3.38709677,2.65909091 4.6898263,3.47727273 5.76674938,3.6446281 C6.66997519,3.77479339 7.43424318,3.47727273 7.66004963,2.8822314 C7.74689826,2.64049587 8.00744417,2.52892562 8.23325062,2.62190083 C8.45905707,2.71487603 8.56327543,2.99380165 8.4764268,3.23553719 C8.11166253,4.10950413 7.24317618,4.61157025 6.18362283,4.61157025 Z" id="Shape"></path>
            </g>
            <g id="Group" transform="translate(43.076923, 5.764463)" fill="#FFFFFF">
                <path d="M3.50868486,9.37190083 C3.28287841,9.37190083 3.03970223,9.33471074 2.77915633,9.24173554 C1.45905707,8.7768595 0.451612903,7.32644628 0.121588089,5.46694215 C-0.225806452,3.38429752 0.382133995,1.37603306 1.7369727,0.223140496 C1.9280397,0.055785124 2.20595533,0.0929752066 2.34491315,0.297520661 C2.50124069,0.502066116 2.46650124,0.780991736 2.27543424,0.948347107 C0.955334988,2.08264463 0.746898263,3.94214876 0.972704715,5.29958678 C1.23325062,6.80578512 2.04962779,8.01446281 3.03970223,8.3677686 C3.83870968,8.64669421 4.51612903,8.12603306 4.74193548,7.51239669 C4.82878412,7.27066116 5.03722084,6.4338843 4.0471464,5.95041322 C3.82133995,5.83884298 3.73449132,5.55991736 3.83870968,5.33677686 C3.94292804,5.09504132 4.20347395,5.00206612 4.41191067,5.11363636 C5.67990074,5.72727273 5.88833747,6.93595041 5.55831266,7.86570248 C5.2630273,8.66528926 4.48138958,9.37190083 3.50868486,9.37190083 Z" id="Shape"></path>
                <path d="M3.63027295,9.33471074 C2.69230769,9.33471074 1.84119107,8.62809917 1.37220844,7.47520661 C0.781637717,5.98760331 0.920595533,3.88636364 2.5707196,2.54752066 C2.7617866,2.39876033 3.03970223,2.43595041 3.17866005,2.64049587 C3.31761787,2.84504132 3.28287841,3.14256198 3.09181141,3.29132231 C1.82382134,4.31404959 1.70223325,5.95041322 2.17121588,7.10330579 C2.43176179,7.77272727 3.02233251,8.51652893 3.80397022,8.38636364 C4.0471464,8.34917355 4.25558313,8.51652893 4.30769231,8.7768595 C4.34243176,9.03719008 4.18610422,9.26033058 3.94292804,9.3161157 C3.83870968,9.33471074 3.73449132,9.33471074 3.63027295,9.33471074 Z" id="Shape"></path>
            </g>
            <g id="Group" transform="translate(38.387097, 17.479339)" fill="#FFFFFF">
                <path d="M0.486352357,11.8450413 C0.416873449,11.8450413 0.347394541,11.8264463 0.29528536,11.7892562 C0.0868486352,11.677686 -6.93195501e-15,11.3987603 0.104218362,11.1570248 C0.885856079,9.46487603 2.13647643,7.9214876 3.23076923,6.56404959 C4.20347395,5.3553719 5.12406948,4.20247934 5.48883375,3.23553719 C5.9057072,2.15702479 5.36724566,1.56198347 5.12406948,1.37603306 C4.67245658,1.02272727 4.08188586,0.98553719 3.71712159,1.30165289 C3.52605459,1.46900826 3.24813896,1.43181818 3.10918114,1.22727273 C2.9528536,1.02272727 2.98759305,0.725206612 3.17866005,0.576446281 C3.8560794,-2.24820162e-15 4.8808933,0.0185950413 5.64516129,0.632231405 C6.30521092,1.15289256 6.82630273,2.21280992 6.30521092,3.58884298 C5.88833747,4.70454545 4.91563275,5.8946281 3.90818859,7.17768595 C2.84863524,8.49793388 1.65012407,10.0041322 0.903225806,11.5847107 C0.799007444,11.7520661 0.642679901,11.8450413 0.486352357,11.8450413 Z" id="Shape"></path>
                <path d="M2.83126551,5.16942149 C2.67493797,5.16942149 2.53598015,5.15082645 2.39702233,5.1322314 C2.15384615,5.07644628 2.01488834,4.83471074 2.04962779,4.59297521 C2.10173697,4.33264463 2.32754342,4.1838843 2.55334988,4.22107438 C3.33498759,4.38842975 4.82878412,3.71900826 5.3325062,2.7892562 C5.57568238,2.32438017 5.5235732,1.89669421 5.15880893,1.45041322 C5.00248139,1.26446281 5.01985112,0.966942149 5.19354839,0.799586777 C5.36724566,0.632231405 5.64516129,0.650826446 5.80148883,0.83677686 C6.40942928,1.58057851 6.51364764,2.43595041 6.07940447,3.25413223 C5.5235732,4.31404959 4.01240695,5.16942149 2.83126551,5.16942149 Z" id="Shape"></path>
            </g>
            <g id="Group" transform="translate(21.191067, 5.764463)" fill="#FFFFFF">
                <path d="M2.34491315,9.37190083 C1.37220844,9.37190083 0.59057072,8.66528926 0.29528536,7.84710744 C-0.0347394541,6.91735537 0.17369727,5.70867769 1.44168734,5.09504132 C1.6674938,4.98347107 1.91066998,5.09504132 2.01488834,5.31818182 C2.1191067,5.55991736 2.01488834,5.82024793 1.80645161,5.93181818 C0.799007444,6.4338843 1.0248139,7.25206612 1.11166253,7.49380165 C1.33746898,8.12603306 2.01488834,8.62809917 2.81389578,8.34917355 C3.82133995,7.99586777 4.62034739,6.78719008 4.8808933,5.28099174 C5.10669975,3.92355372 4.89826303,2.06404959 3.57816377,0.929752066 C3.38709677,0.762396694 3.36972705,0.483471074 3.50868486,0.27892562 C3.66501241,0.0743801653 3.92555831,0.055785124 4.11662531,0.204545455 C5.47146402,1.37603306 6.07940447,3.38429752 5.73200993,5.44834711 C5.41935484,7.30785124 4.39454094,8.75826446 3.07444169,9.2231405 C2.81389578,9.33471074 2.5707196,9.37190083 2.34491315,9.37190083 Z" id="Shape"></path>
                <path d="M2.22332506,9.33471074 C2.1191067,9.33471074 2.01488834,9.33471074 1.91066998,9.3161157 C1.6674938,9.27892562 1.51116625,9.03719008 1.54590571,8.7768595 C1.58064516,8.51652893 1.80645161,8.34917355 2.04962779,8.38636364 C2.83126551,8.51652893 3.42183623,7.77272727 3.68238213,7.10330579 C4.13399504,5.95041322 4.02977667,4.31404959 2.7617866,3.29132231 C2.5707196,3.14256198 2.53598015,2.84504132 2.67493797,2.64049587 C2.81389578,2.43595041 3.09181141,2.39876033 3.28287841,2.54752066 C4.93300248,3.88636364 5.0719603,5.96900826 4.48138958,7.47520661 C4.01240695,8.64669421 3.1439206,9.33471074 2.22332506,9.33471074 Z" id="Shape"></path>
            </g>
            <g id="Group" transform="translate(25.186104, 17.479339)" fill="#FFFFFF">
                <path d="M6.06203474,11.8450413 C5.9057072,11.8450413 5.74937965,11.7520661 5.67990074,11.5847107 C4.93300248,10.0041322 3.73449132,8.49793388 2.67493797,7.17768595 C1.65012407,5.91322314 0.694789082,4.70454545 0.277915633,3.58884298 C-0.243176179,2.21280992 0.277915633,1.15289256 0.937965261,0.632231405 C1.71960298,0.0185950413 2.72704715,-0.0185950413 3.4044665,0.576446281 C3.5955335,0.743801653 3.63027295,1.02272727 3.47394541,1.22727273 C3.31761787,1.43181818 3.05707196,1.46900826 2.86600496,1.30165289 C2.50124069,0.98553719 1.91066998,1.02272727 1.45905707,1.37603306 C1.21588089,1.58057851 0.677419355,2.15702479 1.0942928,3.23553719 C1.45905707,4.20247934 2.37965261,5.3553719 3.35235732,6.56404959 C4.44665012,7.9214876 5.67990074,9.46487603 6.47890819,11.1570248 C6.58312655,11.3801653 6.49627792,11.6590909 6.28784119,11.7892562 C6.18362283,11.8264463 6.13151365,11.8450413 6.06203474,11.8450413 Z" id="Shape"></path>
                <path d="M3.71712159,5.16942149 C2.53598015,5.16942149 1.0248139,4.31404959 0.451612903,3.23553719 C0.017369727,2.41735537 0.104218362,1.56198347 0.729528536,0.818181818 C0.885856079,0.632231405 1.16377171,0.613636364 1.33746898,0.780991736 C1.51116625,0.948347107 1.52853598,1.24586777 1.37220844,1.43181818 C1.00744417,1.85950413 0.955334988,2.30578512 1.19851117,2.77066116 C1.70223325,3.70041322 3.17866005,4.36983471 3.97766749,4.20247934 C4.22084367,4.14669421 4.44665012,4.31404959 4.48138958,4.57438017 C4.53349876,4.83471074 4.37717122,5.07644628 4.13399504,5.11363636 C4.01240695,5.15082645 3.8560794,5.16942149 3.71712159,5.16942149 Z" id="Shape"></path>
            </g>
        </g>
    </g>
</svg>