<?xml version="1.0" encoding="utf-8"?>
<!-- Generator: Adobe Illustrator 22.0.1, SVG Export Plug-In . SVG Version: 6.00 Build 0)  -->
<svg version="1.1" id="Слой_1" xmlns="http://www.w3.org/2000/svg" xmlns:xlink="http://www.w3.org/1999/xlink" x="0px" y="0px"
	 viewBox="0 0 90 90" style="enable-background:new 0 0 90 90;" xml:space="preserve">
<style type="text/css">
	.st0{fill:none;stroke:#CD2027;stroke-miterlimit:10;}
	.st1{fill:#FFD2A3;}
	.st2{fill:#B2BC2E;}
	.st3{fill:#C96214;}
	.st4{fill:#895F00;}
	.st5{fill:#D39750;}
	.st6{fill:#F7655E;}
	.st7{fill:#130D05;}
	.st8{fill:#EAC060;}
	.st9{fill:#33C176;}
	.st10{fill:#FDD5A8;}
	.st11{fill:#442B0E;}
	.st12{fill:#6829E2;}
	.st13{fill:#FCFAE3;}
	.st14{fill:#402312;}
	.st15{fill:#CCCBCB;}
	.st16{fill:#B7B7B7;}
	.st17{fill:none;stroke:#777777;stroke-width:1.0032;stroke-linecap:round;stroke-linejoin:round;stroke-miterlimit:10;}
	.st18{fill:#F0CFB5;}
	.st19{fill:#D3A98C;}
	.st20{fill:#FFFFFF;}
	.st21{fill:#E2E2E2;}
	.st22{fill:none;stroke:#353334;stroke-width:1.2083;stroke-miterlimit:10;}
	.st23{fill:none;stroke:#353334;stroke-width:1.3359;stroke-miterlimit:10;}
	.st24{fill:none;stroke:#777777;stroke-width:0.8704;stroke-linecap:round;stroke-linejoin:round;stroke-miterlimit:10;}
	.st25{fill:#2D2D2D;}
	.st26{fill:#6868D8;}
	.st27{opacity:0.3;fill:#FFFFFF;}
	.st28{fill:#69D688;}
	.st29{fill:none;stroke:#3A4A70;stroke-width:0.9419;stroke-miterlimit:10;}
	.st30{fill:#705E51;}
</style>
<path class="st16" d="M89.6,86H30.5l-11.2-0.7l-2.7-0.6c-2.7-1.2-3.3-3.9-2.2-6.6l1.1-3.9l10.1-16c0,0,2.1-2.6,3.5-3.1
	s10.5-4.6,13.8-5.1c1.8-2.5,2.7-4.3,5.2-4.5c2.5-0.1,7.7,0.1,7.7,0.1s8.5-0.2,9.8,0.4c1.7,3.1,2.2,4.1,4.4,4.5
	c2.2,0.4,9.1,2.6,12.8,5.4C85.4,59.3,89.6,86,89.6,86z"/>
<path class="st17" d="M45.7,46.1c1.8-0.5,5.8-0.8,9.7-0.8h0.1c4,0,7.9,0.3,9.7,0.8"/>
<path class="st17" d="M46.1,51.4c1.9-0.3,5.6-0.6,9.3-0.5h0.1c3.7,0,7.4,0.2,9.3,0.5"/>
<path class="st18" d="M55.6,46.2l-9-3.6l0.1,11.6c3.8,3.8,6.6,4.3,8.8,4.3c2.2,0,4.8-0.6,8.6-4.4l0.4-11.5L55.6,46.2z"/>
<path class="st19" d="M55.5,46.5h-6.3c0.1,2.2,2.9,5.4,6.3,5.4s6.1-3.1,6.3-5.4H55.5z"/>
<g>
	<path class="st20" d="M32.2,27.7c4-2.8,6.5-7,6.5-11.6c0-8.4-8.2-15.3-18.3-15.3S2,7.6,2,16.1s8.2,15.3,18.3,15.3
		c1.6,0,3.2-0.2,4.7-0.5c2.5,2.9,7.1,4.9,11,5.7c0.1,0,0.2-0.1,0.1-0.2C34.4,34.8,32.5,31.2,32.2,27.7z"/>
	<path class="st21" d="M10.8,3.1c-7.8,4.4-9.7,26.4,16,24.8c0.6,2.3,4.1,6.4,8.8,7.9c-1.2,0.3-3.3,0-3.3,0l-7.3-5
		c-8.8,0.7-15.3-0.1-19.9-6.3C1.5,16.6,0.1,8.2,10.8,3.1z"/>
	<path class="st22" d="M32.2,27.7c4-2.8,6.5-7,6.5-11.6c0-8.4-8.2-15.3-18.3-15.3S2,7.6,2,16.1s8.2,15.3,18.3,15.3
		c1.6,0,3.2-0.2,4.7-0.5c2.5,2.9,7.1,4.9,11,5.7c0.1,0,0.2-0.1,0.1-0.2C34.4,34.8,32.5,31.2,32.2,27.7z"/>
	<line class="st23" x1="30" y1="10.6" x2="11.7" y2="10.6"/>
	<line class="st23" x1="30" y1="15.6" x2="11.7" y2="15.6"/>
	<line class="st23" x1="30" y1="20.6" x2="11.7" y2="20.6"/>
</g>
<path class="st18" d="M71.4,29.9c-0.1-0.5-1.5-1.1-1.5-1.1l-3.1-8.3l-10.8-0.7c0,0,0,0,0,0l-0.2,0l-0.2,0c0,0,0,0,0,0l-10.8,0.7
	l-3.1,8.3c0,0-1.3,0.6-1.5,1.1c-0.1,0.5,1.3,6.5,2,6.9c0.8,0.4,2.4,0.6,2.4,0.6s0.8,4.4,1.6,5.6c0.4,0.6,4.9,7.2,9.4,7.2
	c4.6,0,9.3-6.6,9.7-7.2c0.8-1.2,1.6-5.6,1.6-5.6s1.7-0.2,2.4-0.6C70.1,36.4,71.5,30.4,71.4,29.9z"/>
<path class="st11" d="M44.1,35.9c0-4,1.3-10.2,2-11.1c3.1-1.7,6.9-2.7,6.9-2.7l-2.1,2.6l8-3.6l-1.2,2.3l7.2-1.2
	c1.4,2.7,1.4,13.4,1.4,13.4s2.4-7.1,3.6-10c1.9-4.5,0.1-13.7-9.3-14.7c-8.7-3.6-15.9,1.3-18.1,6.1c-2.2,4.8-1.7,10.1-1.3,11.9
	C42.5,32,44.1,35.9,44.1,35.9z"/>
<path class="st11" d="M53.2,28.3c-1.2-0.4-3.9-0.9-5.1-0.6c-1.4,0.7-2.2,1.9-2.2,1.9l2.6-0.7c0,0,2.8,0.2,3.5,0.3
	C53.6,29.4,54.4,28.9,53.2,28.3z"/>
<path class="st11" d="M57.6,28.3c1.2-0.4,3.9-0.9,5.1-0.6c1.4,0.7,2.2,1.9,2.2,1.9L62.3,29c0,0-2.8,0.2-3.5,0.3
	C57.2,29.4,56.4,28.9,57.6,28.3z"/>
<path class="st20" d="M52.5,77.1c0,0-5.6-17.7-5.9-22.8c2,1.1,9,4.5,9,4.5s8.1-3.5,9.4-5.2c-0.3,2.5-5.9,22-5.9,22l-2.8,2.6
	L52.5,77.1z"/>
<path class="st24" d="M68.4,50.2c7.2,1.5,15.4,4.7,16.1,8.2c0.6,3.5,2.4,13.4,3.4,19.6c0.5,2.8,1,5.7,1.7,8.4"/>
<path class="st24" d="M32.3,74.5c0.9-7.2,0.8-13.5-5.8-17"/>
<path class="st24" d="M75.5,85.9c0-6.5-0.6-23.6,8.4-28.4"/>
<polygon class="st25" points="53.1,62 55.5,63.9 58,62 55.5,58.7 "/>
<path class="st17" d="M55.5,86.7C52,75.7,48,62.5,47.4,59.9c-1.1-4.7-2-10-1.6-13.8c-2.7,3.3-9.1,13.2-10.2,15.5c3.5,0,8.4,0,8.4,0
	l-4.4,4.7l12.9,22.4"/>
<path class="st17" d="M55.2,87.7c3.6-11.3,7.9-25.1,8.5-27.8c1.1-4.7,2-10,1.6-13.8c2.7,3.3,9.1,13.2,10.2,15.5c-3.5,0-8.4,0-8.4,0
	l4.4,4.7L59.3,87.4"/>
<polyline class="st25" points="55,61.5 52.5,77.1 54.7,84.2 56,84.4 58.5,76.9 56,61.5 "/>
<path class="st17" d="M55.3,58.7c0,0-8-3.6-9.2-5.2c0.2,3.5,1.5,7.4,1.5,7.4l4.8,2.7L55.3,58.7z"/>
<path class="st17" d="M55.7,58.7c0,0,8.1-3.6,9.2-5.2c-0.2,3.5-1.5,7.4-1.5,7.4l-4.8,2.7L55.7,58.7z"/>
<path class="st11" d="M47.7,32.8l1.7,0.3c0,0,0,0,0,0c-0.1,0.6,0.3,1.1,0.9,1.2c0.6,0.1,1.1-0.3,1.2-0.8l0.8,0.1l0.2-1.2l-3.9-0.2
	L47.7,32.8z"/>
<path class="st11" d="M63.3,32.7l-0.9-0.5l-3.9,0.2l0.2,1.2l0.8-0.2c0.1,0.6,0.7,0.9,1.2,0.8c0.6-0.1,1-0.7,0.9-1.2c0,0,0,0,0,0
	L63.3,32.7z"/>
<path class="st19" d="M53.8,38.6c-0.3,2.1,0.1,2.7,1.8,2.7c1.4,0,2-0.8,1.4-3c-0.2,0.8,0,2.2-1.4,2.2C54.1,40.5,54,39.5,53.8,38.6z"
	/>
<polygon class="st19" points="58.5,44.4 55.3,45 52.1,44.4 52.1,43.8 55.3,44.3 58.5,43.8 "/>
<g>
	<g>
		<g>
			<path class="st26" d="M65.3,84.8l-1-0.3l-3.5-1.8l-2-2.7l-3.9-4.5l-6.7-8c0,0-0.1-0.6,0.1-0.8c0.2-0.3,1.5-1.2,1.5-1.2l1-0.5
				l12.5,14.6L65.3,84.8z"/>
			<path class="st26" d="M48.6,66.5c0.4-0.4,1.7-1.2,1.7-1.5c-1.1-1.1-2.2-1.9-2.9-1.3c-0.3,0.7-0.1,1.5,0.2,2
				c0.3,0.4,0.9,1.1,0.9,1.1L48.6,66.5z"/>
			<path class="st27" d="M49.7,65.5c-0.5-0.6-1.7-2.1-2.4-1.6c0.4-0.4,1.1-0.4,1.1-0.4l0.7,0.4l1.2,1.3L49.7,65.5z"/>
			<path class="st28" d="M50.8,69.8c0.6-0.6,1.9-1.7,2.5-1.9c-0.6-0.6-2.6-2.9-2.6-2.9s-0.7,0.1-1,0.5c-0.3,0.4-1.5,1.2-1.7,1.7
				c0.4,0.7,2.4,2.9,2.4,2.9L50.8,69.8z"/>
			<path class="st27" d="M64.2,84.4c-0.7-1.8-1.3-3.9-2.2-4.7s-4.5-4.8-4.5-4.8l-8-9.2c0,0,0.7-0.6,1-0.6c0.2,0,0.4-0.1,0.4-0.1
				l12.5,14.4l1.2,3.1l0.8,2.3L64.2,84.4z"/>
			<path class="st29" d="M55.9,76.8c-3.5-4.2-7.9-9.5-7.9-9.5c0.2-0.7,2-2.2,2.8-2.3c0,0,12,13.9,12.5,14.4s2,5.4,2,5.4
				s-3.9-1.5-5.2-3c-0.2-0.3-0.8-0.9-1.5-1.8"/>
			<path class="st29" d="M53.3,68c-0.9,0.2-2.7,1.7-2.8,2.4"/>
			<path class="st29" d="M50.3,65.2c-0.5-0.7-1.7-2.2-2.8-1.5c-1.1,0.7,0.2,2.3,0.9,3"/>
		</g>
		<path class="st29" d="M63.2,79.3c-0.9,0.2-2.6,1.6-3,2.6"/>
	</g>
	<g>
		<path class="st1" d="M58,84.2c2.1-1.2,2.9-3.4,1.7-4.6c-1.9-1.8-0.4-2.9,0.8-3.7c0.8-0.5,0.8-1.7,0-2.2c-1.8-1.1-4.4-0.5-5.8-0.1
			c-1.7,0.4-3.2,1.6-3.9,1.9c-0.4,0.2-0.6,0.3-1,0.6c-1.6,1.1-3,1.4-5.4,1c-2.4-0.3-2.2,0.8-2.3,1.6c-0.1,0.8-0.4,4-0.4,4
			c-0.1,0.8,0.3,1.6,2.9,1.9c2.6,0.2,5.6,0.8,5.6,0.8C52.5,85.6,56.8,85,58,84.2z"/>
	</g>
</g>
<rect x="39.2" y="75.7" class="st16" width="9.4" height="10.1"/>
<line class="st24" x1="26.8" y1="75.7" x2="48.8" y2="75.7"/>
<line class="st24" x1="48.8" y1="75.7" x2="48.8" y2="85.5"/>
<path class="st24" d="M42.3,50.2c-7.2,1.5-13.8,4.3-15.8,7.3C24.7,60,11.4,76.6,14.6,83.2c1.8,3.7,17.9,2.6,34.2,2.6"/>
<rect y="86" class="st30" width="90" height="4"/>
<line class="st24" x1="39.1" y1="75.7" x2="39.1" y2="81.1"/>
</svg>
