<?xml version="1.0" encoding="UTF-8"?>
<svg width="90px" height="90px" viewBox="0 0 90 90" version="1.1" xmlns="http://www.w3.org/2000/svg" xmlns:xlink="http://www.w3.org/1999/xlink">
    <!-- Generator: Sketch 51.2 (57519) - http://www.bohemiancoding.com/sketch -->
    <title>Slice 1</title>
    <desc>Created with Sketch.</desc>
    <defs></defs>
    <g id="Page-1" stroke="none" stroke-width="1" fill="none" fill-rule="evenodd">
        <g id="Перешить_Жакет" transform="translate(0.000000, 18.000000)" fill-rule="nonzero">
            <g id="Group" transform="translate(48.775168, 0.000000)">
                <polygon id="Shape" fill="#AF3C3C" points="23.3003356 51.5628169 20.3557047 51.4647887 21.7751678 47.7397183"></polygon>
                <path d="M40.6510067,53.8174648 L40.6057047,46.5633803 L40.3187919,39.9628169 L40.0318792,33.0191549 L38.9597315,24.0005634 C38.9597315,24.0005634 36.9362416,9.73746479 36.1812081,8.07098592 C35.4412752,7.82591549 32.1644295,6.50253521 29.6879195,5.65295775 C28.1174497,2.98985915 26.3808725,1.16 25.6258389,1.02929577 C23.9194631,0.735211268 22.1073826,0.375774648 22.1073826,0.375774648 C22.1073826,0.375774648 17.4412752,0.751549296 15.7197987,1.02929577 C14.9496644,1.16 12.7902685,3.30028169 11.3557047,5.65295775 C8.71308725,6.66591549 5.91946309,7.79323944 5.1795302,8.03830986 C4.19798658,10.2276056 3.33724832,17.0895775 3.33724832,17.0895775 L1.04194631,34.0811268 L0.468120805,53.5887324 L0.317114094,56.251831 L4.96812081,56.3825352 C4.96812081,56.3825352 5.67785235,44.3904225 6.05536913,40.0771831 C6.43288591,35.7639437 8.26006711,26.0591549 8.53187919,23.0529577 C9.72483221,23.7064789 11.0838926,30.8952113 11.3708054,32.496338 C11.6728188,34.0974648 10.6912752,38.0022535 9.87583893,41.204507 C9.06040268,44.3904225 7.24832215,48.1971831 6.91610738,50.6805634 C6.58389262,53.1639437 6.82550336,53.2129577 10.9781879,54.9611268 C10.9781879,54.9611268 15.2516779,56.6439437 18.3020134,57.5261972 C18.8003356,57.6405634 20.9748322,50.2884507 21.7449664,48.0664789 C22.5151007,50.2721127 24.9765101,56.2191549 25.3691275,57.5261972 C28.4194631,56.6439437 30.3674497,55.7453521 30.3674497,55.7453521 C34.5352349,54.0135211 34.807047,53.2783099 34.3238255,51.023662 C33.795302,48.5729577 32.2852349,44.9132394 31.4697987,41.7273239 C30.6543624,38.5414085 29.5067114,33.8523944 29.8087248,32.2512676 C30.1107383,30.6501408 31.454698,23.3470423 32.6325503,22.7098592 C33.0704698,25.0135211 34.3842282,35.8456338 34.5503356,37.0383099 C34.852349,39.2439437 36.2718121,56.3825352 36.2718121,56.3825352 L40.7718121,56.4478873 L40.6510067,53.8174648 Z" id="Shape" fill="#EA5353"></path>
                <path d="M24.7651007,35.1430986 C24.0251678,35.1430986 23.4211409,34.4895775 23.4211409,33.6890141 C23.4211409,32.8884507 24.0251678,32.2349296 24.7651007,32.2349296 C25.5050336,32.2349296 26.1090604,32.8884507 26.1090604,33.6890141 C26.1090604,34.4895775 25.5050336,35.1430986 24.7651007,35.1430986 Z M24.7651007,32.8394366 C24.3271812,32.8394366 23.9647651,33.2315493 23.9647651,33.7053521 C23.9647651,34.1791549 24.3271812,34.5712676 24.7651007,34.5712676 C25.2030201,34.5712676 25.5654362,34.1791549 25.5654362,33.7053521 C25.5654362,33.2315493 25.2030201,32.8394366 24.7651007,32.8394366 Z" id="Shape" fill="#000000"></path>
                <path d="M22.9077181,40.4529577 C22.1677852,40.4529577 21.5637584,39.7994366 21.5637584,38.9988732 C21.5637584,38.1983099 22.1677852,37.5447887 22.9077181,37.5447887 C23.647651,37.5447887 24.2516779,38.1983099 24.2516779,38.9988732 C24.2516779,39.7994366 23.647651,40.4529577 22.9077181,40.4529577 Z M22.9077181,38.1329577 C22.4697987,38.1329577 22.1073826,38.5250704 22.1073826,38.9988732 C22.1073826,39.4726761 22.4697987,39.8647887 22.9077181,39.8647887 C23.3456376,39.8647887 23.7080537,39.4726761 23.7080537,38.9988732 C23.7080537,38.5250704 23.3456376,38.1329577 22.9077181,38.1329577 Z" id="Shape" fill="#000000"></path>
                <path d="M29.9748322,8.10366197 C31.590604,8.44676056 33.5536913,8.93690141 34.5201342,9.32901408 C35.5771812,14.491831 37.4043624,23.2980282 37.7365772,27.0230986 C38.0687919,30.731831 38.8993289,43.3938028 39.0654362,47.3312676 C39.2315436,51.2687324 39.3372483,56.4152113 39.3372483,56.4152113 L40.8171141,56.4805634 L40.6812081,42.6749296 L39.6845638,28.2647887 L38.1744966,17.1385915 L36.090604,7.90760563 L29.9899329,5.86535211 C29.9899329,5.86535211 27.135906,2.12394366 25.897651,1.12732394 C25.3993289,0.735211268 26.1543624,3.18591549 26.0033557,3.18591549 C27.2718121,4.67267606 29.0989933,6.56788732 29.9748322,8.10366197 Z" id="Shape" fill="#AF3C3C"></path>
                <path d="M11.385906,8.10366197 C9.77013423,8.44676056 7.80704698,8.93690141 6.84060403,9.32901408 C5.78355705,14.491831 3.95637584,23.2980282 3.62416107,27.0230986 C3.29194631,30.748169 2.4614094,43.3938028 2.29530201,47.3312676 C2.12919463,51.2687324 2.02348993,56.4152113 2.02348993,56.4152113 L0.543624161,56.4805634 L0.679530201,42.6749296 L1.6761745,28.2647887 L3.18624161,17.1385915 L5.27013423,7.90760563 L11.3708054,5.86535211 C11.3708054,5.86535211 14.2248322,2.12394366 15.4630872,1.12732394 C15.9614094,0.735211268 15.2063758,3.18591549 15.3573826,3.18591549 C14.0738255,4.67267606 12.2466443,6.56788732 11.385906,8.10366197 Z" id="Shape" fill="#AF3C3C"></path>
                <path d="M20.0838926,19.9160563 C18.6191275,17.3509859 16.2181208,11.7960563 15.7802013,8.49577465 C15.0251678,3.69239437 15.5234899,0.882253521 16.6107383,0.669859155 C19.057047,0.212394366 25.0671141,-0.310422535 25.8674497,1.81352113 C26.0184564,7.15605634 25.4295302,13.9526761 21.1107383,20.1938028 C20.6879195,20.7983099 20.3255034,20.3408451 20.0838926,19.9160563 Z" id="Shape" fill="#AF3C3C"></path>
                <path d="M23.7986577,32.8394366 C23.738255,32.8394366 23.692953,32.8230986 23.6325503,32.7904225 C18.7550336,28.983662 14.9647651,22.7752113 12.3674497,14.3447887 L12.3372483,14.2304225 C11.6728188,12.0738028 10.5402685,6.82929577 11.4765101,5.2771831 C12.216443,4.05183099 15.1157718,0.669859155 15.9916107,0.669859155 C16.0822148,0.669859155 16.1728188,0.718873239 16.2332215,0.816901408 C16.2785235,0.914929577 16.2785235,1.01295775 16.2332215,1.11098592 C15.2063758,3.08788732 15.4026846,6.45352113 16.8221477,11.7307042 C18.3171141,17.2366197 20.7030201,21.8439437 28.5402685,29.0980282 C28.6006711,29.1633803 28.6459732,29.2450704 28.6308725,29.3430986 C28.6308725,29.4411268 28.5855705,29.5228169 28.5100671,29.571831 C28.3590604,29.6861972 24.7197987,32.3819718 23.9194631,32.8394366 C23.8892617,32.8230986 23.8439597,32.8394366 23.7986577,32.8394366 Z M15.4177852,1.60112676 C14.4362416,2.4343662 12.6241611,4.46028169 11.9446309,5.57126761 C11.25,6.71492958 12.0201342,11.2569014 12.8657718,14.0180282 L12.8959732,14.1323944 C15.4328859,22.3667606 19.102349,28.428169 23.8137584,32.1695775 C24.6442953,31.6467606 27.0604027,29.8822535 27.9060403,29.2450704 C20.1744966,22.04 17.7885906,17.383662 16.2785235,11.8450704 C14.9949664,7.0743662 14.7080537,3.77408451 15.4177852,1.60112676 Z" id="Shape" fill="#000000"></path>
                <path d="M23.647651,24.8338028 C23.5872483,24.8338028 23.5268456,24.8174648 23.4815436,24.7684507 C23.3607383,24.6704225 23.3305369,24.4907042 23.4211409,24.36 C26.6979866,19.5566197 28.2231544,14.9166197 28.4949664,14.0343662 C29.340604,11.2732394 30.1107383,6.73126761 29.4161074,5.58760563 C28.7365772,4.47661972 26.9244966,2.45070423 25.942953,1.61746479 C26.6526846,3.79042254 26.3657718,7.09070423 25.0671141,11.8777465 C24.1157718,15.3904225 22.8322148,18.2005634 20.8993289,20.9943662 C20.8087248,21.1250704 20.6426174,21.1577465 20.5218121,21.0597183 C20.4010067,20.9616901 20.3708054,20.7819718 20.4614094,20.6512676 C22.364094,17.9064789 23.6174497,15.1616901 24.5536913,11.7307042 C25.9731544,6.46985915 26.1694631,3.08788732 25.1426174,1.11098592 C25.0973154,1.01295775 25.0973154,0.898591549 25.1426174,0.816901408 C25.1879195,0.718873239 25.2785235,0.669859155 25.3842282,0.669859155 C26.2449664,0.669859155 29.159396,4.06816901 29.8993289,5.2771831 C30.8355705,6.82929577 29.7030201,12.0901408 29.0385906,14.2304225 C28.7667785,15.1290141 27.2114094,19.8507042 23.8741611,24.7194366 C23.8137584,24.8011268 23.7231544,24.8338028 23.647651,24.8338028 Z" id="Shape" fill="#000000"></path>
                <path d="M8.87919463,21.468169 C10.057047,21.9583099 13.0620805,29.4574648 13.5,34.3425352 C13.9228188,39.2439437 13.2130872,44.8315493 8.35067114,54.1442254 C7.03691275,53.7684507 6.37248322,52.5430986 7.06711409,50.5335211 C7.76174497,48.5402817 9.5738255,42.7729577 9.73993289,42.1521127 C9.90604027,41.5476056 11.4161074,35.8946479 11.4161074,33.5909859 C11.4010067,29.7515493 9.54362416,24.5723944 8.81879195,22.7425352 C8.74328859,20.5859155 8.87919463,21.468169 8.87919463,21.468169 Z" id="Shape" fill="#CC3E3E"></path>
                <path d="M32.5419463,21.468169 C31.364094,21.9583099 28.3590604,29.4574648 27.9211409,34.3425352 C27.4983221,39.2439437 28.2080537,44.8315493 33.0704698,54.1442254 C34.3842282,53.7684507 35.0486577,52.5430986 34.3540268,50.5335211 C33.659396,48.5402817 31.8473154,42.7729577 31.6812081,42.1521127 C31.5151007,41.5476056 30.0050336,35.8946479 30.0050336,33.5909859 C30.0201342,29.7515493 31.8775168,24.5723944 32.602349,22.7425352 C32.6778523,20.5859155 32.5419463,21.468169 32.5419463,21.468169 Z" id="Shape" fill="#CC3E3E"></path>
                <path d="M18.4681208,57.8692958 C18.4379195,57.8692958 18.4228188,57.8692958 18.3926174,57.8529577 L14.466443,56.6602817 C14.3909396,56.6439437 14.3305369,56.5785915 14.3003356,56.5132394 C14.2701342,56.4478873 14.2550336,56.3498592 14.2852349,56.268169 L22.5302013,31.5814085 C22.5755034,31.4343662 22.7416107,31.3526761 22.8775168,31.4016901 C23.0134228,31.4507042 23.0889262,31.6304225 23.0436242,31.7774648 L14.9043624,56.1538028 L18.3020134,57.1830986 L28.102349,29.1633803 C28.1627517,29.016338 28.3137584,28.9346479 28.4496644,28.983662 C28.5855705,29.0490141 28.6610738,29.2123944 28.6157718,29.3594366 L18.7248322,57.6732394 C18.6795302,57.7876056 18.5738255,57.8692958 18.4681208,57.8692958 Z" id="Shape" fill="#000000"></path>
                <path d="M4.98322148,56.7092958 L0.407718121,56.7092958 C0.332214765,56.7092958 0.256711409,56.6766197 0.211409396,56.6276056 C0.166107383,56.5785915 0.13590604,56.4969014 0.13590604,56.4152113 C0.13590604,56.3008451 0.332214765,45.4360563 0.951342282,35.388169 C1.61577181,24.6867606 3.5033557,13.5605634 4.96812081,7.76056338 C4.99832215,7.66253521 5.05872483,7.58084507 5.14932886,7.54816901 L11.5218121,5.37521127 C11.6728188,5.32619718 11.8238255,5.40788732 11.8691275,5.57126761 C11.9144295,5.73464789 11.8389262,5.89802817 11.6879195,5.94704225 L5.46644295,8.07098592 C4.00167785,13.8873239 2.15939597,24.8664789 1.49496644,35.4371831 C0.936241611,44.5374648 0.724832215,54.3076056 0.679530201,56.1374648 L4.7114094,56.1374648 C5.1795302,43.7369014 7.36912752,27.284507 8.41107383,22.3994366 C8.44127517,22.2687324 8.53187919,22.1870423 8.65268456,22.1707042 C8.77348993,22.1543662 8.87919463,22.2360563 8.92449664,22.3504225 C11.9446309,29.9476056 12.307047,33.4766197 10.6912752,39.4890141 C10.0721477,41.776338 9.37751678,43.7859155 8.77348993,45.5504225 C7.77684564,48.4259155 6.99161074,50.7132394 7.03691275,52.7391549 C8.13926174,54.1932394 11.8389262,55.2878873 13.6510067,55.8270423 C14.0587248,55.9577465 14.3909396,56.0394366 14.6174497,56.1211268 C14.7684564,56.1701408 14.8439597,56.3335211 14.7986577,56.4969014 C14.7533557,56.6602817 14.602349,56.7419718 14.4513423,56.6929577 C14.2399329,56.6112676 13.9228188,56.5295775 13.5151007,56.3988732 C11.4765101,55.7943662 7.70134228,54.6670423 6.56879195,53.0169014 C6.5385906,52.9678873 6.52348993,52.9188732 6.50838926,52.8535211 C6.41778523,50.6969014 7.23322148,48.3278873 8.27516779,45.3380282 C8.87919463,43.5898592 9.5738255,41.5966197 10.1778523,39.3256338 C11.7181208,33.64 11.4614094,30.3887324 8.77348993,23.4450704 C7.67114094,29.2450704 5.67785235,44.7335211 5.25503356,56.4478873 C5.23993289,56.5785915 5.11912752,56.7092958 4.98322148,56.7092958 Z" id="Shape" fill="#000000"></path>
                <path d="M25.3540268,57.6895775 C25.2483221,57.6895775 25.1426174,57.6078873 25.0973154,57.4935211 C24.5083893,55.7126761 21.5486577,48.3115493 21.5184564,48.2298592 C21.4580537,48.0828169 21.5184564,47.9030986 21.6543624,47.8377465 C21.7902685,47.7723944 21.9563758,47.8377465 22.0167785,47.9847887 C22.1375839,48.2788732 24.7651007,54.8794366 25.5201342,57.0197183 C25.7315436,56.9543662 26.0184564,56.8726761 26.3506711,56.7746479 C28.5704698,56.1538028 33.1610738,54.8467606 34.2483221,53.0659155 C34.3087248,50.9909859 33.4781879,48.5239437 32.4362416,45.4033803 C31.8473154,43.6388732 31.1828859,41.6456338 30.5788591,39.44 C28.9630872,33.4276056 29.3255034,29.8985915 32.3456376,22.3014085 C32.3909396,22.1870423 32.511745,22.1053521 32.6174497,22.1216901 C32.738255,22.1380282 32.8288591,22.2197183 32.8590604,22.3504225 C33.9010067,27.235493 36.090604,43.6878873 36.5587248,56.0884507 L40.590604,56.0884507 C40.5604027,54.2585915 40.3489933,44.4884507 39.7751678,35.388169 C39.1258389,24.8174648 37.2684564,13.8546479 35.8036913,8.02197183 L29.5822148,5.89802817 C29.4312081,5.84901408 29.3557047,5.6856338 29.4010067,5.52225352 C29.4463087,5.35887324 29.5973154,5.2771831 29.7483221,5.32619718 L36.1208054,7.49915493 C36.2114094,7.53183099 36.2718121,7.61352113 36.3020134,7.7115493 C37.7818792,13.5278873 39.6694631,24.6540845 40.3187919,35.3391549 C40.9379195,45.3870423 41.1342282,56.268169 41.1342282,56.3661972 C41.1342282,56.4478873 41.1040268,56.5295775 41.0587248,56.5785915 C41.0134228,56.6276056 40.9379195,56.6602817 40.8624161,56.6602817 L36.2869128,56.6602817 C36.135906,56.6602817 36.0151007,56.5295775 36.0151007,56.3825352 C35.5922819,44.668169 33.5989933,29.1797183 32.4966443,23.3797183 C29.8087248,30.3070423 29.5520134,33.5583099 31.0922819,39.2602817 C31.6812081,41.4495775 32.3456376,43.4264789 32.9345638,45.1746479 C34.0067114,48.3932394 34.8674497,50.9419718 34.7768456,53.1476056 C34.7768456,53.1966197 34.761745,53.2456338 34.7315436,53.2946479 C33.5989933,55.3042254 28.9630872,56.6276056 26.4714765,57.3301408 C26.0033557,57.4608451 25.6409396,57.5752113 25.4295302,57.6405634 C25.4144295,57.6895775 25.3842282,57.6895775 25.3540268,57.6895775 Z" id="Shape" fill="#000000"></path>
                <path d="M25.3691275,1.24169014 C25.3389262,1.24169014 25.2936242,1.24169014 25.2634228,1.22535211 C23.7080537,0.490140845 18.8003356,0.506478873 16.0520134,1.24169014 C15.9010067,1.2743662 15.75,1.17633803 15.7197987,1.02929577 C15.6895973,0.865915493 15.7802013,0.702535211 15.9161074,0.669859155 C18.8003356,-0.098028169 23.8137584,-0.098028169 25.4748322,0.686197183 C25.6107383,0.751549296 25.6711409,0.931267606 25.6107383,1.07830986 C25.5805369,1.17633803 25.4899329,1.24169014 25.3691275,1.24169014 Z" id="Shape" fill="#000000"></path>
                <path d="M15.3271812,4.95042254 C15.2214765,4.95042254 15.1157718,4.88507042 15.0704698,4.7543662 C15.0100671,4.60732394 15.0855705,4.42760563 15.2214765,4.36225352 C18.2416107,3.0715493 23.557047,3.31661972 26.0486577,4.05183099 C26.1996644,4.10084507 26.2751678,4.26422535 26.2449664,4.41126761 C26.1996644,4.57464789 26.0486577,4.65633803 25.9127517,4.62366197 C23.4966443,3.90478873 18.3473154,3.67605634 15.4328859,4.91774648 C15.4026846,4.95042254 15.3573826,4.95042254 15.3271812,4.95042254 Z" id="Shape" fill="#000000"></path>
                <path d="M28.0419463,44.3087324 C27.1208054,44.3087324 26.3506711,44.0146479 25.852349,43.4591549 C25.4144295,42.9853521 25.2030201,42.364507 25.2030201,41.5966197 C25.2030201,41.4495775 25.2936242,41.3352113 25.4295302,41.3025352 C26.3808725,41.1228169 31.0620805,40.028169 31.1224832,40.011831 C31.1979866,39.995493 31.2734899,40.011831 31.3489933,40.0608451 C31.409396,40.1098592 31.454698,40.1915493 31.454698,40.2732394 C31.6963087,42.92 31.1073826,43.5898592 29.3104027,44.1126761 C28.9026846,44.2433803 28.4647651,44.3087324 28.0419463,44.3087324 Z M25.7768456,41.8580282 C25.807047,42.348169 25.9731544,42.7402817 26.2449664,43.0507042 C26.6375839,43.475493 27.2869128,43.7205634 28.0419463,43.7205634 C28.4043624,43.7205634 28.7969799,43.6715493 29.159396,43.5571831 C30.5637584,43.1487324 31.0771812,42.7892958 30.9261745,40.6816901 C29.9446309,40.9104225 26.8942953,41.6129577 25.7768456,41.8580282 Z" id="Shape" fill="#000000"></path>
                <path d="M13.3791946,44.3087324 C13.3791946,44.3087324 13.3791946,44.3087324 13.3791946,44.3087324 C12.9563758,44.3087324 12.533557,44.2433803 12.1258389,44.1290141 C10.3288591,43.6061972 9.72483221,42.936338 9.98154362,40.2895775 C9.9966443,40.2078873 10.0268456,40.1261972 10.0872483,40.0771831 C10.147651,40.028169 10.2231544,40.011831 10.3137584,40.028169 C10.3590604,40.044507 15.0402685,41.1391549 16.0067114,41.3188732 C16.1426174,41.3515493 16.2332215,41.4659155 16.2332215,41.6129577 C16.2332215,42.3808451 16.0218121,43.0016901 15.5838926,43.475493 C15.0704698,44.0146479 14.2852349,44.3087324 13.3791946,44.3087324 Z M10.4798658,40.6816901 C10.3288591,42.7892958 10.8573826,43.1487324 12.2466443,43.5571831 C12.6090604,43.6552113 13.0016779,43.7205634 13.364094,43.7205634 C14.1342282,43.7205634 14.7684564,43.491831 15.1610738,43.0507042 C15.4328859,42.7402817 15.5989933,42.348169 15.6291946,41.8580282 C14.5268456,41.6129577 11.4765101,40.9104225 10.4798658,40.6816901 Z" id="Shape" fill="#000000"></path>
                <path d="M23.0889262,51.8569014 L20.5671141,51.8569014 C20.4161074,51.8569014 20.295302,51.7261972 20.295302,51.5628169 C20.295302,51.3994366 20.4161074,51.2687324 20.5671141,51.2687324 L23.0889262,51.2687324 C23.2399329,51.2687324 23.3607383,51.3994366 23.3607383,51.5628169 C23.3607383,51.7261972 23.2399329,51.8569014 23.0889262,51.8569014 Z" id="Shape" fill="#000000"></path>
                <path d="M8.68288591,22.7425352 C8.66778523,22.7425352 8.65268456,22.7425352 8.62248322,22.7425352 C8.47147651,22.7098592 8.38087248,22.5628169 8.41107383,22.3994366 C9.07550336,18.7397183 8.77348993,10.5216901 5.08892617,8.08732394 C4.95302013,8.0056338 4.92281879,7.82591549 4.99832215,7.67887324 C5.0738255,7.53183099 5.23993289,7.49915493 5.37583893,7.58084507 C9.28691275,10.1785915 9.63422819,18.7233803 8.95469799,22.5138028 C8.92449664,22.644507 8.80369128,22.7425352 8.68288591,22.7425352 Z" id="Shape" fill="#000000"></path>
                <path d="M32.557047,22.7425352 C32.4211409,22.7425352 32.3154362,22.644507 32.2852349,22.4974648 C31.6057047,18.7070423 31.9530201,10.1459155 35.864094,7.56450704 C36,7.4828169 36.1661074,7.51549296 36.2416107,7.66253521 C36.3171141,7.80957746 36.2869128,7.98929577 36.1510067,8.07098592 C32.466443,10.5053521 32.1644295,18.7397183 32.8288591,22.3830986 C32.8590604,22.5464789 32.7533557,22.6935211 32.6174497,22.7261972 C32.602349,22.7425352 32.5872483,22.7425352 32.557047,22.7425352 Z" id="Shape" fill="#000000"></path>
            </g>
            <path d="M44.0033557,50.6478873 L43.6711409,43.2957746 L43.2483221,35.7966197 L42.7197987,29.0490141 L41.8741611,21.8766197 L40.7869128,14.8022535 L39.442953,7.92394366 C39.442953,7.92394366 39.3372483,5.96338028 38.0234899,5.52225352 C36.7097315,5.08112676 28.5855705,1.71549296 26.864094,1.42140845 C25.1577181,1.12732394 22.5302013,0.98028169 22.5151007,0.98028169 C22.5151007,0.98028169 19.8875839,1.14366197 18.1661074,1.42140845 C16.4446309,1.71549296 8.33557047,5.06478873 7.00671141,5.52225352 C5.69295302,5.96338028 5.58724832,7.92394366 5.58724832,7.92394366 L4.24328859,14.8022535 L3.15604027,21.8766197 L2.31040268,29.0490141 L1.78187919,35.7966197 L1.3590604,43.2957746 L1.02684564,50.6478873 L0.875838926,53.3109859 L6.01006711,53.4253521 C6.01006711,53.4253521 7.52013423,41.8580282 7.88255034,37.5611268 C8.26006711,33.2478873 9.43791946,24.6050704 9.70973154,21.6152113 C10.9026846,22.2687324 11.7030201,28.5261972 11.9899329,30.1273239 C12.2919463,31.7284507 12.0805369,35.8946479 11.2651007,39.0805634 C10.4496644,42.2664789 8.09395973,46.4 7.76174497,48.8997183 C7.4295302,51.3830986 8.41107383,51.3340845 12.5788591,53.0822535 C12.5788591,53.0822535 16.8674497,54.3402817 19.9177852,55.2388732 C20.4161074,55.3532394 23.0587248,47.4946479 23.8288591,45.2890141 C24.5989933,47.4946479 26.2449664,53.7030986 26.6526846,55.0101408 C29.7030201,54.1278873 32.2248322,53.2456338 32.2248322,53.2456338 C36.3926174,51.5138028 37.7214765,51.1707042 37.238255,48.9160563 C36.7097315,46.4653521 34.5503356,42.2991549 33.7348993,39.0969014 C32.9194631,35.9109859 32.7080537,31.7284507 33.0100671,30.143662 C33.3120805,28.5425352 34.1124161,22.2850704 35.2902685,21.6315493 C35.7281879,23.9352113 36.2416107,33.3295775 36.4077181,34.5222535 C36.7097315,36.7278873 39.0050336,53.4416901 39.0050336,53.4416901 L44.1392617,53.3273239 L44.0033557,50.6478873 Z" id="Shape" fill="#EA5353"></path>
            <polygon id="Shape" fill="#EA5353" points="6.02516779 53.4253521 0.422818792 53.4253521 1.22315436 57.4608451 5.64765101 57.3138028 6.62919463 53.6050704"></polygon>
            <path d="M16.8674497,4.70535211 C15.2516779,5.0484507 8.15436242,7.35211268 7.20302013,7.74422535 C6.14597315,12.9070423 4.68120805,23.2980282 4.33389262,27.0067606 C4.00167785,30.715493 3.17114094,43.3774648 3.00503356,47.3149296 C2.83892617,51.2523944 2.67281879,53.6377465 2.67281879,53.6377465 L1.96308725,53.6377465 L2.18959732,57.411831 L0.92114094,57.2157746 L0.302013423,53.6377465 L1.01174497,53.1149296 L1.37416107,42.6585915 L2.37080537,28.2484507 L3.88087248,17.1222535 L5.81375839,6.8456338 L6.52348993,5.63661972 L9.2114094,4.72169014 L11.8389262,3.82309859 C11.8389262,3.82309859 16.7013423,1.60112676 17.2751678,1.61737513 C16.8825503,3.85577465 16.8221477,4.21521127 16.8674497,4.70535211 Z" id="Shape" fill="#AF3C3C"></path>
            <polygon id="Shape" fill="#EA5353" points="44.1543624 53.6540845 38.5520134 53.6540845 39.352349 57.7059155 43.7919463 57.5588732 44.7734899 53.8338028"></polygon>
            <path d="M18.4077181,10.9628169 C17.3355705,7.90760563 16.2785235,4.49295775 17.2449664,1.58478873 C21.216443,0.441126761 26.5771812,1.38873239 27.6946309,1.63380282 C28.1174497,3.61070423 28.8271812,5.86535211 27.9211409,8.78985915 C27.0151007,11.7143662 25.4597315,20.2101408 23.5419463,23.5430986 C22.9832215,23.3797183 19.4194631,13.8709859 18.4077181,10.9628169 Z" id="Shape" fill="#AF3C3C"></path>
            <path d="M28.102349,4.70535211 C29.7181208,5.0484507 36.8154362,7.35211268 37.7667785,7.74422535 C38.8238255,12.9070423 40.2885906,23.2980282 40.635906,27.0067606 C40.9681208,30.715493 41.7986577,43.3774648 41.9647651,47.3149296 C42.1308725,51.2523944 42.2969799,53.6377465 42.2969799,53.6377465 L42.9916107,53.6377465 L42.7651007,57.411831 L44.033557,57.2157746 L44.6526846,53.6377465 L43.942953,53.1149296 L43.5805369,42.6585915 L42.5838926,28.2484507 L41.0738255,17.1222535 L39.1409396,6.8456338 L38.4312081,5.63661972 L35.7432886,4.72169014 L33.1157718,3.82309859 C33.1157718,3.82309859 28.2533557,1.60112676 27.6795302,1.61737513 C28.0872483,3.85577465 28.147651,4.21521127 28.102349,4.70535211 Z" id="Shape" fill="#AF3C3C"></path>
            <path d="M35.909396,15.3087324 C35.5167785,18.004507 30.9865772,26.8597183 30.5637584,31.7611268 C30.1409396,36.6625352 30.8506711,42.2501408 35.7130872,51.5628169 C37.0268456,51.1870423 37.6912752,49.9616901 36.9966443,47.9521127 C36.3020134,45.9588732 34.1275168,40.7307042 33.9614094,40.1261972 C33.795302,39.5216901 32.3607383,33.2969014 32.647651,31.0259155 C32.9345638,28.7549296 34.6862416,22.4484507 35.4110738,20.6022535 C35.4714765,18.4292958 35.909396,15.3087324 35.909396,15.3087324 Z" id="Shape" fill="#CC3E3E"></path>
            <path d="M9.27181208,15.3087324 C9.66442953,18.004507 14.1946309,26.8597183 14.6174497,31.7611268 C15.0402685,36.6625352 14.3305369,42.2501408 9.46812081,51.5628169 C8.15436242,51.1870423 7.48993289,49.9616901 8.18456376,47.9521127 C8.87919463,45.9425352 11.0536913,40.7307042 11.2197987,40.1261972 C11.385906,39.5216901 12.8204698,33.2969014 12.533557,31.0259155 C12.261745,28.7549296 10.4949664,22.4484507 9.77013423,20.6022535 C9.70973154,18.4292958 9.27181208,15.3087324 9.27181208,15.3087324 Z" id="Shape" fill="#CC3E3E"></path>
            <polygon id="Shape" fill="#AF3C3C" points="25.0973154 49.4225352 24.7651007 50.0107042 22.2885906 50.0107042 22.2130872 49.4225352 23.5419463 44.2270423"></polygon>
            <g id="Group" transform="translate(0.000000, 0.653521)" fill="#000000">
                <path d="M24.5838926,37.2016901 C24.5687919,37.2016901 24.5536913,37.2016901 24.5536913,37.2016901 C24.4026846,37.1853521 24.2969799,37.0383099 24.3120805,36.8749296 C25.3238255,28.5588732 22.0620805,20.3898592 19.6761745,14.4264789 C18.8909396,12.4659155 18.2265101,10.7830986 17.864094,9.47605634 C16.3389262,3.83943662 16.2332215,2.97352113 17.0033557,1.35605634 C16.6862416,1.47042254 16.2936242,1.66647887 15.8255034,1.89521127 C15.0704698,2.25464789 14.1493289,2.69577465 12.9563758,3.15323944 C12.8053691,3.20225352 12.6543624,3.12056338 12.6090604,2.97352113 C12.5637584,2.82647887 12.6392617,2.64676056 12.7751678,2.59774648 C13.9379195,2.15661972 14.8590604,1.71549296 15.5989933,1.35605634 C16.5050336,0.931267606 17.0939597,0.637183099 17.5318792,0.637183099 C17.6224832,0.637183099 17.7130872,0.686197183 17.7734899,0.784225352 C17.8187919,0.882253521 17.8187919,0.98028169 17.7734899,1.07830986 C16.8221477,2.92450704 16.716443,3.12056338 18.3926174,9.31267606 C18.7399329,10.5870423 19.4043624,12.2535211 20.1744966,14.1977465 C22.4395973,19.8833803 25.8674497,28.4608451 24.8557047,36.9566197 C24.840604,37.0873239 24.7197987,37.2016901 24.5838926,37.2016901 Z" id="Shape"></path>
                <path d="M23.2399329,23.9678873 C23.2097315,23.9678873 23.1644295,23.9678873 23.1342282,23.9515493 C22.9983221,23.8861972 22.9228188,23.7228169 22.9832215,23.5594366 L22.9983221,23.5104225 C28.7969799,8.05464789 28.5251678,2.79380282 27.2869128,1.11098592 C27.2265101,1.02929577 27.2114094,0.898591549 27.2567114,0.80056338 C27.3020134,0.702535211 27.3926174,0.637183099 27.4983221,0.637183099 C27.9513423,0.637183099 28.7063758,0.996619718 29.7332215,1.50309859 C30.4731544,1.86253521 31.3036913,2.27098592 32.1644295,2.59774648 C32.3003356,2.64676056 32.3758389,2.82647887 32.3305369,2.97352113 C32.2852349,3.12056338 32.1191275,3.20225352 31.9832215,3.15323944 C31.1073826,2.81014085 30.261745,2.40169014 29.5067114,2.04225352 C28.9781879,1.78084507 28.4647651,1.53577465 28.0721477,1.38873239 C29.4312081,4.50929577 27.9060403,12.0247887 23.511745,23.755493 L23.4966443,23.804507 C23.4513423,23.9025352 23.3607383,23.9678873 23.2399329,23.9678873 Z" id="Shape"></path>
                <path d="M20.159396,54.9284507 C20.1442953,54.9284507 20.114094,54.9284507 20.0989933,54.9284507 L16.5503356,54.0952113 C16.3993289,54.0625352 16.3087248,53.8991549 16.3389262,53.7357746 C16.3691275,53.5723944 16.5201342,53.4743662 16.6711409,53.5070423 L19.9932886,54.2912676 C20.5369128,52.771831 23.5419463,44.1290141 24.3120805,36.8749296 C24.3271812,36.7115493 24.4630872,36.5971831 24.614094,36.6135211 C24.7651007,36.6298592 24.8708054,36.7769014 24.8557047,36.9402817 C24.0100671,44.9622535 20.4463087,54.6507042 20.4161074,54.7487324 C20.3708054,54.8467606 20.2651007,54.9284507 20.159396,54.9284507 Z" id="Shape"></path>
                <path d="M16.6107383,54.0952113 C16.5805369,54.0952113 16.5503356,54.0952113 16.5201342,54.0788732 C16.3540268,54.0135211 16.0973154,53.931831 15.795302,53.8338028 C13.5151007,53.0985915 8.77348993,51.5791549 7.50503356,49.7492958 C7.47483221,49.7002817 7.45973154,49.6512676 7.44463087,49.5859155 C7.35402685,47.56 7.91275168,46.3673239 8.68288591,44.7008451 C9.33221477,43.2957746 10.147651,41.5476056 10.9328859,38.6230986 C12.533557,32.6760563 12.6392617,29.1143662 9.90604027,21.9092958 C9.51342282,26.2388732 8.59228188,33.6726761 7.6409396,41.4985915 C7.18791946,45.256338 6.70469799,49.1284507 6.26677852,52.9025352 C6.25167785,53.0495775 6.13087248,53.1639437 5.99496644,53.1639437 C5.99496644,53.1639437 5.99496644,53.1639437 5.99496644,53.1639437 L0.906040268,53.0822535 C0.830536913,53.0822535 0.755033557,53.0495775 0.709731544,52.9842254 C0.66442953,52.9188732 0.634228188,52.8535211 0.634228188,52.771831 C0.634228188,52.6901408 0.875838926,45.1256338 1.52516779,34.4569014 C2.21979866,23.0856338 4.22818792,11.2569014 5.79865772,5.09746479 C5.82885906,4.99943662 5.88926174,4.91774648 5.97986577,4.88507042 L12.7449664,2.58140845 C12.8959732,2.53239437 13.0469799,2.61408451 13.0922819,2.77746479 C13.1375839,2.94084507 13.0620805,3.10422535 12.9110738,3.15323944 L6.31208054,5.3915493 C4.75671141,11.583662 2.79362416,23.2490141 2.09899329,34.4895775 C1.51006711,43.9656338 1.26845638,50.9746479 1.20805369,52.4940845 L5.76845638,52.5757746 C6.20637584,48.8997183 6.67449664,45.1092958 7.11241611,41.4332394 C8.16946309,32.8394366 9.15100671,24.7357746 9.48322148,20.6839437 C9.49832215,20.5532394 9.58892617,20.4388732 9.70973154,20.4225352 C9.83053691,20.4061972 9.95134228,20.4715493 10.011745,20.6022535 C13.2432886,28.7059155 13.1979866,32.4146479 11.4765101,38.8028169 C10.6761745,41.776338 9.84563758,43.5571831 9.19630872,44.9785915 C8.44127517,46.5960563 7.94295302,47.6743662 8.0033557,49.4878873 C9.24161074,51.1380282 13.9379195,52.6411268 15.9463087,53.2946479 C16.2634228,53.3926761 16.5050336,53.4743662 16.6862416,53.5397183 C16.8372483,53.5887324 16.9127517,53.7521127 16.8674497,53.915493 C16.8372483,54.0135211 16.7315436,54.0952113 16.6107383,54.0952113 Z" id="Shape"></path>
                <path d="M26.6677852,54.6343662 C26.5469799,54.6343662 26.4412752,54.5526761 26.4110738,54.4219718 L23.2852349,43.1160563 C23.2399329,42.9526761 23.3305369,42.7892958 23.466443,42.7402817 C23.6174497,42.6912676 23.7684564,42.7892958 23.8137584,42.936338 L26.864094,53.9971831 C29.4312081,53.4580282 35.5469799,51.3014085 36.9362416,49.4715493 C36.9966443,47.6580282 36.4983221,46.5797183 35.7432886,44.9622535 C35.0788591,43.5408451 34.2634228,41.76 33.4630872,38.7864789 C31.7416107,32.3983099 31.7114094,28.6895775 34.9278523,20.5859155 C34.9731544,20.4552113 35.1090604,20.3898592 35.2298658,20.4061972 C35.3506711,20.4225352 35.4563758,20.5369014 35.4563758,20.6839437 C35.7734899,25.5853521 36.4681208,30.6828169 37.2080537,36.0580282 C37.9026846,41.188169 38.6275168,46.4980282 39.1862416,52.5594366 L43.6711409,52.4777465 C43.6409396,50.9746479 43.4446309,43.9492958 42.8557047,34.4732394 C42.1610738,23.2326761 40.1979866,11.5673239 38.6426174,5.37521127 L32.0134228,3.12056338 C31.8624161,3.0715493 31.7869128,2.90816901 31.8322148,2.74478873 C31.8775168,2.58140845 32.0285235,2.49971831 32.1795302,2.54873239 L38.9446309,4.85239437 C39.0352349,4.88507042 39.0956376,4.96676056 39.1258389,5.06478873 C40.6963087,11.2405634 42.704698,23.0529577 43.3993289,34.4242254 C44.0637584,45.1092958 44.2147651,52.6738028 44.2147651,52.755493 C44.2147651,52.8371831 44.1845638,52.9188732 44.1392617,52.9678873 C44.0939597,53.0169014 44.0184564,53.0495775 43.942953,53.0659155 L38.9295302,53.1476056 C38.7785235,53.1476056 38.6728188,53.0332394 38.6577181,52.8861972 C38.0989933,46.7267606 37.3741611,41.3515493 36.6644295,36.1397183 C35.9848993,31.1892958 35.3506711,26.4839437 35.0033557,21.9419718 C32.2852349,29.1143662 32.3909396,32.6760563 33.9916107,38.6067606 C34.7768456,41.5312676 35.5922819,43.2794366 36.2416107,44.684507 C37.011745,46.3509859 37.5704698,47.543662 37.4798658,49.5695775 C37.4798658,49.6349296 37.4647651,49.6839437 37.4194631,49.7329577 C35.9244966,51.9059155 28.8724832,54.2095775 26.7130872,54.6180282 C26.6979866,54.6343662 26.6828859,54.6343662 26.6677852,54.6343662 Z" id="Shape"></path>
                <path d="M35.1845638,21.0107042 C35.1845638,21.0107042 35.1845638,21.0107042 35.1845638,21.0107042 C35.0184564,21.0107042 34.897651,20.863662 34.9127517,20.7002817 C35.0486577,16.3053521 36.7248322,6.63323944 38.6879195,4.93408451 C38.8087248,4.83605634 38.9748322,4.85239437 39.0805369,4.98309859 C39.1711409,5.11380282 39.1560403,5.29352113 39.0352349,5.40788732 C37.3439597,6.87830986 35.6073826,16.0112676 35.4714765,20.7329577 C35.4563758,20.88 35.3355705,21.0107042 35.1845638,21.0107042 Z" id="Shape"></path>
                <path d="M9.72483221,21.0107042 C9.5738255,21.0107042 9.45302013,20.88 9.45302013,20.7166197 C9.31711409,15.9949296 7.58053691,6.86197183 5.88926174,5.3915493 C5.76845638,5.29352113 5.7533557,5.09746479 5.84395973,4.96676056 C5.93456376,4.83605634 6.11577181,4.81971831 6.23657718,4.91774648 C8.18456376,6.61690141 9.87583893,16.2890141 10.011745,20.6839437 C10.011745,20.863662 9.8909396,21.0107042 9.72483221,21.0107042 C9.73993289,21.0107042 9.73993289,21.0107042 9.72483221,21.0107042 Z" id="Shape"></path>
                <path d="M27.5134228,1.22535211 C27.4832215,1.22535211 27.4530201,1.22535211 27.4379195,1.20901408 C24.9765101,0.408450704 20.385906,0.408450704 17.6073826,1.20901408 C17.4563758,1.25802817 17.3053691,1.16 17.2751678,0.996619718 C17.2298658,0.833239437 17.3204698,0.669859155 17.4714765,0.637183099 C20.3255034,-0.196056338 25.0520134,-0.196056338 27.6040268,0.637183099 C27.7550336,0.686197183 27.8305369,0.849577465 27.7852349,1.01295775 C27.7399329,1.12732394 27.6191275,1.22535211 27.5134228,1.22535211 Z" id="Shape"></path>
                <path d="M25.1879195,49.7002817 L22.2885906,49.7002817 C22.1073826,49.7002817 21.9714765,49.5532394 21.9714765,49.3571831 C21.9714765,49.1611268 22.1073826,49.0140845 22.2885906,49.0140845 L25.1879195,49.0140845 C25.3691275,49.0140845 25.5050336,49.1611268 25.5050336,49.3571831 C25.5050336,49.5532394 25.3540268,49.7002817 25.1879195,49.7002817 Z" id="Shape"></path>
                <path d="M5.82885906,57.1504225 L0.966442953,57.1504225 C0.875838926,57.1504225 0.80033557,57.1177465 0.739932886,57.0523944 C0.679530201,56.9870423 0.649328859,56.9053521 0.649328859,56.823662 C0.634228188,56.6112676 0.241610738,54.2749296 0.0151006711,52.8208451 C3.47465112e-15,52.7228169 0.0302013423,52.6084507 0.0906040268,52.5430986 C0.151006711,52.4614085 0.241610738,52.4287324 0.332214765,52.4287324 L6.50838926,52.5430986 C6.59899329,52.5430986 6.68959732,52.5921127 6.75,52.6738028 C6.81040268,52.755493 6.84060403,52.8535211 6.81040268,52.9515493 L6.14597315,56.8890141 C6.11577181,57.0360563 5.97986577,57.1504225 5.82885906,57.1504225 Z M1.23825503,56.4642254 L5.57214765,56.4642254 L6.11577181,53.2129577 L0.694630872,53.1149296 C1.02684564,55.1571831 1.17785235,56.0557746 1.23825503,56.4642254 Z" id="Shape"></path>
                <path d="M43.9731544,57.1504225 L39.1107383,57.1504225 C38.9597315,57.1504225 38.8238255,57.0360563 38.7936242,56.8726761 L38.1291946,52.9352113 C38.114094,52.8371831 38.1442953,52.7391549 38.1895973,52.6574648 C38.25,52.5757746 38.340604,52.5267606 38.4312081,52.5267606 L44.6073826,52.4123944 C44.6979866,52.4123944 44.7885906,52.4614085 44.8489933,52.5267606 C44.909396,52.6084507 44.9395973,52.7064789 44.9244966,52.804507 C44.6828859,54.2422535 44.3053691,56.5949296 44.2902685,56.8073239 C44.2902685,56.8890141 44.2600671,56.9707042 44.1996644,57.0360563 C44.1392617,57.1177465 44.0486577,57.1504225 43.9731544,57.1504225 Z M39.3674497,56.4642254 L43.7013423,56.4642254 C43.761745,56.0557746 43.897651,55.1571831 44.2298658,53.1149296 L38.8087248,53.2129577 L39.3674497,56.4642254 Z" id="Shape"></path>
            </g>
            <path d="M16.8674497,4.44394366 C16.7466443,4.44394366 16.6258389,4.34591549 16.5956376,4.21521127 C16.5654362,4.05183099 16.6560403,3.8884507 16.7919463,3.85577465 C19.2231544,3.21859155 26.3657718,3.28394366 28.2986577,3.70873239 C28.4496644,3.74140845 28.5402685,3.90478873 28.5100671,4.05183099 C28.4798658,4.21521127 28.3288591,4.31323944 28.192953,4.28056338 C26.3506711,3.87211268 19.238255,3.82309859 16.9278523,4.42760563 C16.9127517,4.44394366 16.8825503,4.44394366 16.8674497,4.44394366 Z" id="Shape" fill="#000000"></path>
            <path d="M22.5604027,35.7476056 C21.8204698,35.7476056 21.216443,35.0940845 21.216443,34.2935211 C21.216443,33.4929577 21.8204698,32.8394366 22.5604027,32.8394366 C23.3003356,32.8394366 23.9043624,33.4929577 23.9043624,34.2935211 C23.9043624,35.0940845 23.3003356,35.7476056 22.5604027,35.7476056 Z M22.5604027,33.4276056 C22.1224832,33.4276056 21.7600671,33.8197183 21.7600671,34.2935211 C21.7600671,34.7673239 22.1224832,35.1594366 22.5604027,35.1594366 C22.9983221,35.1594366 23.3607383,34.7673239 23.3607383,34.2935211 C23.3607383,33.8197183 22.9983221,33.4276056 22.5604027,33.4276056 Z" id="Shape" fill="#000000"></path>
            <g id="Group" transform="translate(39.714765, 26.630986)">
                <path d="M5.90436242,14.8839437 C5.58724832,14.8839437 5.34563758,14.5898592 5.34563758,14.2467606 L5.34563758,9.72112676 L1.28355705,9.72112676 C0.966442953,9.72112676 0.724832215,9.42704225 0.724832215,9.08394366 L0.724832215,6.50253521 C0.724832215,6.15943662 0.996644295,5.86535211 1.28355705,5.86535211 L5.31543624,5.86535211 L5.31543624,1.33971831 C5.31543624,0.996619718 5.58724832,0.702535211 5.87416107,0.702535211 L7.03691275,0.702535211 C7.18791946,0.702535211 7.33892617,0.784225352 7.45973154,0.882253521 L13.2432886,7.35211268 C13.4697987,7.5971831 13.4697987,8.02197183 13.2432886,8.25070423 L7.45973154,14.7205634 C7.35402685,14.8512676 7.21812081,14.9002817 7.03691275,14.9002817 L5.90436242,14.9002817 L5.90436242,14.8839437 Z" id="Shape" fill="#FAE7AA"></path>
                <path d="M7.05201342,1.35605634 L12.8355705,7.82591549 L7.05201342,14.2957746 L5.88926174,14.2957746 L5.88926174,9.13295775 L1.26845638,9.13295775 L1.26845638,6.53521127 L5.88926174,6.53521127 L5.88926174,1.37239437 L7.05201342,1.37239437 L7.05201342,1.35605634 Z M7.05201342,0.0490140845 L5.88926174,0.0490140845 C5.25503356,0.0490140845 4.72651007,0.637183099 4.72651007,1.35605634 L4.72651007,5.22816901 L1.2533557,5.22816901 C0.619127517,5.22816901 0.0906040268,5.81633803 0.0906040268,6.53521127 L0.0906040268,9.11661972 C0.0906040268,9.83549296 0.604026846,10.423662 1.2533557,10.423662 L4.72651007,10.423662 L4.72651007,14.3121127 C4.72651007,15.0309859 5.23993289,15.6191549 5.88926174,15.6191549 L7.05201342,15.6191549 C7.35402685,15.6191549 7.6409396,15.4884507 7.86744966,15.2433803 L13.6510067,8.77352113 C14.0889262,8.26704225 14.0889262,7.45014085 13.6510067,6.94366197 L7.86744966,0.473802817 C7.6409396,0.17971831 7.35402685,0.0490140845 7.05201342,0.0490140845 Z" id="Shape" fill="#CC2128"></path>
            </g>
        </g>
    </g>
</svg>