<?xml version="1.0" encoding="UTF-8"?>
<svg width="90px" height="90px" viewBox="0 0 90 90" version="1.1" xmlns="http://www.w3.org/2000/svg" xmlns:xlink="http://www.w3.org/1999/xlink">
    <!-- Generator: Sketch 51.2 (57519) - http://www.bohemiancoding.com/sketch -->
    <title>Slice 1</title>
    <desc>Created with Sketch.</desc>
    <defs></defs>
    <g id="Page-1" stroke="none" stroke-width="1" fill="none" fill-rule="evenodd">
        <g id="Перешить_Пальто" transform="translate(0.000000, 12.000000)" fill-rule="nonzero">
            <path d="M75.6061644,63.4287841 C72.5085616,64.6243176 71.4760274,64.6079404 71.1678082,64.9027295 C70.6438356,66.2620347 69.7962329,65.4431762 67.4075342,65.3449132 C65.9434932,65.2794045 61.5513699,63.9037221 59.5941781,62.2004963 C57.5753425,60.448139 56.3732877,61.1359801 57.2054795,58.8431762 C57.8681507,57.0580645 57.6832192,45.1354839 58.2688356,42.564268 C58.8544521,39.9930521 59.8715753,35.9315136 59.8561644,35.1781638 C59.8407534,34.4248139 61.0428082,24.008933 59.5941781,22.3712159 C58.0376712,23.5012407 58.4537671,24.2382134 58.2534247,24.7295285 C58.0376712,25.2044665 52.9058219,36.7831266 52.9674658,37.9950372 C52.9520548,39.7965261 52.3664384,41.0739454 52.0273973,41.2540943 C51.6883562,41.417866 46.7414384,39.7637717 46.8339041,39.3543424 C46.9263699,38.9449132 47.4503425,36.6521092 48.0821918,35.9970223 C48.7140411,35.3419355 48.9143836,32.7379653 48.9143836,32.7379653 L52.3664384,20.2585608 C52.3664384,20.2585608 54.7705479,10.8744417 55.4486301,10.3012407 C56.1421233,9.71166253 61.489726,8.5325062 61.6592466,7.76277916 C61.7517123,7.38610422 63.5393836,3.57022333 68.3938356,3.93052109 C69.8886986,4.04516129 71.3373288,4.27444169 72.7705479,4.92952854 C73.7106164,5.37171216 74.0034247,7.12406948 74.8202055,7.64813896 C76.9160959,9.00744417 79.0736301,9.17121588 79.3664384,9.23672457 C80.5222603,9.49875931 81.2619863,10.4322581 82.0479452,13.0853598 C82.8339041,15.7384615 88.1815068,35.0471464 88.1815068,35.0471464 C88.1815068,35.0471464 88.5359589,36.635732 88.9520548,36.635732 C89.5222603,37.8476427 89.5222603,38.928536 89.5222603,38.928536 C89.5222603,38.928536 90.2619863,39.7637717 87.9195205,40.271464 C85.5770548,40.7791563 84.4828767,41.8764268 84.0976027,40.7300248 C83.7123288,39.5836228 83.265411,38.2079404 83.265411,38.2079404 C83.265411,38.2079404 83.5273973,37.7985112 82.9880137,36.4555831 C82.4486301,35.1126551 77.3167808,22.6332506 77.1164384,22.3057072 C76.9160959,21.9781638 76.6078767,23.1736973 76.4691781,23.4848635 C76.3304795,23.8124069 75.9914384,30.9037221 76.3767123,33.9662531 C76.7003425,35.5220844 77.609589,40.5007444 77.9486301,41.7126551 C78.2260274,46.0034739 79.7517123,60.3007444 79.7517123,60.3007444 L75.6061644,63.4287841 Z" id="Shape" fill="#7F96A5"></path>
            <path d="M83.1883562,38.3880893 L84.1130137,41.0739454 C84.1592466,41.22134 84.3133562,41.3032258 84.4366438,41.2540943 L89.3527397,39.8292804 C89.4914384,39.7801489 89.5839041,39.6327543 89.5530822,39.4853598 L88.9674658,36.8158809 C88.9366438,36.6521092 88.7825342,36.5538462 88.6284247,36.6029777 L83.3732877,37.9950372 C83.2191781,38.0441687 83.1267123,38.2243176 83.1883562,38.3880893 Z" id="Shape" fill="#AAC1CE"></path>
            <path d="M53.0753425,38.3880893 L52.1506849,41.0739454 C52.1044521,41.22134 51.9503425,41.3032258 51.8270548,41.2540943 L46.9109589,39.8292804 C46.7722603,39.7801489 46.6797945,39.6327543 46.7106164,39.4853598 L47.2962329,36.8158809 C47.3270548,36.6521092 47.4811644,36.5538462 47.635274,36.6029777 L52.890411,38.0277916 C53.0445205,38.0441687 53.1369863,38.2243176 53.0753425,38.3880893 Z" id="Shape" fill="#AAC1CE"></path>
            <path d="M71.0753425,65.0009926 L71.0291096,64.3622829 C75.0359589,64.0674938 75.9297945,63.2322581 77.5787671,61.692804 C78.0565068,61.2506203 78.5958904,60.742928 79.2739726,60.2024814 C78.8886986,58.7776675 78.5804795,54.6342432 78.2414384,50.2615385 C77.9486301,46.3310174 77.625,42.2694789 77.3013699,40.942928 L77.8869863,40.7791563 C78.2260274,42.1712159 78.5342466,46.0689826 78.8424658,50.2124069 C79.1815068,54.6014888 79.5205479,59.1379653 79.9058219,60.2024814 L79.9828767,60.4317618 L79.7979452,60.5791563 C79.0428082,61.1687345 78.4726027,61.7091811 77.9640411,62.1841191 C76.2996575,63.7399504 75.2825342,64.6898263 71.0753425,65.0009926 Z" id="Shape" fill="#000000"></path>
            <path d="M77.3167808,40.942928 C75.6678082,35.0635236 74.989726,25.2699752 76.6386986,21.9454094 L76.9006849,21.42134 L77.1780822,21.9454094 C77.9794521,23.4848635 81.1849315,31.280397 83.7739726,37.8476427 L83.2191781,38.0933002 C80.8767123,32.1647643 78.0565068,25.2372208 76.9469178,22.8461538 C75.8373288,26.2526055 76.2534247,34.8342432 77.9178082,40.746402 L77.3167808,40.942928 Z" id="Shape" fill="#000000"></path>
            <path d="M88.1660959,36.7012407 C86.1780822,28.5617866 83.5736301,19.7508685 82.1866438,15.017866 C81.6010274,13.0034739 81.2003425,11.6769231 81.1078767,11.2674938 C80.8458904,10.0883375 76.484589,8.5325062 74.635274,8.15583127 L74.7431507,7.51712159 C75.5907534,7.6808933 81.2773973,9.25310174 81.6934932,11.1037221 C81.7859589,11.4967742 82.1866438,12.8724566 82.7568493,14.8049628 C84.1592466,19.5379653 86.7636986,28.3652605 88.7517123,36.5210918 L88.1660959,36.7012407 Z" id="Shape" fill="#000000"></path>
            <path d="M48.0821918,36.733995 L47.4965753,36.5702233 C49.484589,28.4143921 52.0890411,19.5707196 53.4914384,14.82134 C54.0616438,12.9052109 54.4623288,11.5131514 54.5547945,11.1200993 C54.9400685,9.43325062 59.3784247,8.05756824 61.6746575,7.71364764 L61.7671233,8.35235732 C58.9931507,8.77816377 55.3869863,10.2193548 55.1558219,11.2674938 C55.0633562,11.6769231 54.6780822,13.0034739 54.0770548,15.017866 C52.6746575,19.7672457 50.0702055,28.5945409 48.0821918,36.733995 Z" id="Shape" fill="#000000"></path>
            <path d="M71.3681507,65.901737 L71.0599315,65.901737 C64.494863,65.8198511 60.3493151,64.2640199 56.7277397,60.546402 L56.5890411,60.3990074 L56.6660959,60.2024814 C57.0513699,59.1543424 57.3133562,54.617866 57.5753425,50.2451613 C57.8373288,46.0198511 58.0684932,42.0074442 58.4229452,40.6153846 C59.8715753,34.9652605 60.5342466,26.3836228 59.3630137,22.862531 C58.2534247,25.253598 55.4332192,32.1811414 53.0907534,38.1096774 L52.5359589,37.8640199 C55.125,31.2967742 58.3304795,23.4848635 59.1318493,21.9617866 L59.4092466,21.4377171 L59.6712329,21.9617866 C61.2431507,25.155335 60.6267123,34.5394541 59.0239726,40.7791563 C58.6849315,42.1220844 58.4383562,46.2655087 58.2071918,50.2779156 C57.9452055,54.6669975 57.6986301,58.826799 57.3133562,60.2188586 C60.734589,63.6580645 64.6643836,65.1320099 70.7979452,65.2466501 L70.7979452,11.6933002 L71.3989726,11.6933002 L71.3989726,65.901737 L71.3681507,65.901737 Z" id="Shape" fill="#000000"></path>
            <ellipse id="Oval" fill="#000000" cx="68.2243151" cy="13.7404467" rx="1.10958904" ry="1.17915633"></ellipse>
            <ellipse id="Oval" fill="#000000" cx="68.2243151" cy="22.2401985" rx="1.10958904" ry="1.17915633"></ellipse>
            <ellipse id="Oval" fill="#000000" cx="68.2243151" cy="22.2401985" rx="1.10958904" ry="1.17915633"></ellipse>
            <ellipse id="Oval" fill="#000000" cx="68.2243151" cy="30.7399504" rx="1.10958904" ry="1.17915633"></ellipse>
            <ellipse id="Oval" fill="#000000" cx="68.2243151" cy="30.7399504" rx="1.10958904" ry="1.17915633"></ellipse>
            <ellipse id="Oval" fill="#000000" cx="68.2243151" cy="39.2560794" rx="1.10958904" ry="1.17915633"></ellipse>
            <ellipse id="Oval" fill="#000000" cx="68.2243151" cy="39.2560794" rx="1.10958904" ry="1.17915633"></ellipse>
            <ellipse id="Oval" fill="#000000" cx="68.2243151" cy="47.7558313" rx="1.10958904" ry="1.17915633"></ellipse>
            <path d="M51.8732877,41.5816377 C51.8270548,41.5816377 51.765411,41.5816377 51.7191781,41.5652605 L46.8030822,40.1404467 C46.494863,40.0585608 46.3253425,39.7310174 46.3869863,39.4034739 L46.9726027,36.733995 C47.0342466,36.4555831 47.265411,36.2590571 47.5428082,36.2590571 C47.5890411,36.2590571 47.635274,36.2590571 47.6815068,36.2754342 L52.9366438,37.7002481 C53.0907534,37.7493797 53.2294521,37.8476427 53.3065068,38.0114144 C53.3835616,38.1588089 53.3989726,38.3389578 53.3373288,38.5027295 L52.4126712,41.1885856 C52.3356164,41.417866 52.1044521,41.5816377 51.8732877,41.5816377 Z M46.9880137,39.5181141 L51.8424658,40.9265509 L52.7517123,38.3062035 L47.5582192,36.8977667 L46.9880137,39.5181141 Z" id="Shape" fill="#000000"></path>
            <path d="M84.359589,41.5816377 C84.1130137,41.5816377 83.8972603,41.417866 83.8202055,41.1722084 L82.8955479,38.4863524 C82.8339041,38.3225806 82.8493151,38.1424318 82.9263699,37.9950372 C83.0034247,37.8476427 83.1421233,37.7330025 83.2962329,37.683871 L88.5513699,36.2590571 C88.5976027,36.2426799 88.6438356,36.2426799 88.6900685,36.2426799 C88.9674658,36.2426799 89.1986301,36.439206 89.260274,36.7176179 L89.8458904,39.3870968 C89.9229452,39.7146402 89.7380137,40.0258065 89.4297945,40.1240695 L84.5136986,41.5488834 C84.4674658,41.5652605 84.4058219,41.5816377 84.359589,41.5816377 Z M83.4811644,38.3062035 L84.390411,40.9265509 L89.244863,39.5181141 L88.6746575,36.8977667 L83.4811644,38.3062035 Z" id="Shape" fill="#000000"></path>
            <path d="M59.0702055,22.1746898 C58.5616438,20.0292804 57.005137,13.4784119 54.9863014,10.6124069 L55.4640411,10.2193548 C57.5599315,13.1836228 59.0856164,19.5870968 59.6558219,22.0109181 L59.0702055,22.1746898 Z" id="Shape" fill="#000000"></path>
            <path d="M77.2859589,22.1746898 L76.7003425,22.0109181 C77.2705479,19.6034739 78.7962329,13.1836228 80.8921233,10.2193548 L81.369863,10.6124069 C79.3510274,13.4784119 77.7945205,20.0292804 77.2859589,22.1746898 Z" id="Shape" fill="#000000"></path>
            <path d="M68.1318493,10.1702233 C65.7893836,9.48238213 63.015411,7.17320099 63.4777397,5.35533499 C64.2482877,4.40545906 67.0222603,3.83225806 69.1335616,3.89776675 C71.4760274,4.35632754 72.9708904,4.79851117 72.9708904,6.10868486 C72.9554795,7.40248139 69.4109589,9.92456576 68.1318493,10.1702233 Z" id="Shape" fill="#3F4C4F"></path>
            <path d="M72.5856164,4.97866005 C74.2037671,7.14044665 70.2123288,9.43325062 68.2243151,10.235732 L74.0034247,13.1836228 C74.5119863,11.5459057 75.3287671,8.46699752 74.3424658,7.05856079 L72.5856164,4.97866005 Z" id="Shape" fill="#AAC1CE"></path>
            <path d="M63.8784247,4.97866005 C62.260274,7.14044665 66.2517123,9.43325062 68.239726,10.235732 L62.4606164,13.1836228 C61.9520548,11.5459057 61.135274,8.46699752 62.1215753,7.05856079 L63.8784247,4.97866005 Z" id="Shape" fill="#AAC1CE"></path>
            <path d="M62.3065068,13.5602978 L62.2140411,13.2818859 C61.2431507,10.1047146 61.135274,8.0248139 61.9058219,6.91116625 C63.0462329,5.25707196 63.8630137,4.48734491 64.9109589,4.11066998 C65.8818493,3.75037221 67.3150685,3.76674938 68.0856164,3.76674938 L68.239726,3.76674938 L68.239726,4.29081886 L68.0856164,4.29081886 C67.3458904,4.29081886 65.9589041,4.29081886 65.0804795,4.61836228 C64.7260274,4.74937965 64.3869863,4.92952854 64.0633562,5.19156328 C63.7859589,5.58461538 63.6934932,5.97766749 63.8013699,6.41985112 C64.2020548,7.95930521 66.9297945,9.44962779 68.3321918,10.0228288 L68.8715753,10.235732 L62.3065068,13.5602978 Z M63.2465753,5.96129032 C62.9537671,6.30521092 62.6455479,6.7146402 62.2910959,7.22233251 C61.6592466,8.13945409 61.7517123,10.0228288 62.5839041,12.8233251 L67.6078767,10.2684864 C66.4212329,9.7280397 63.755137,8.30322581 63.3082192,6.55086849 C63.2619863,6.33796526 63.2465753,6.15781638 63.2465753,5.96129032 Z" id="Shape" fill="#000000"></path>
            <path d="M74.1575342,13.5602978 L67.6078767,10.2193548 L68.1472603,10.0064516 C69.5342466,9.43325062 72.2773973,7.94292804 72.6780822,6.40347395 C72.7859589,5.97766749 72.7089041,5.56823821 72.4160959,5.1751861 C72.0924658,4.91315136 71.7534247,4.73300248 71.3989726,4.60198511 C70.5205479,4.27444169 69.1335616,4.27444169 68.3938356,4.27444169 L68.239726,4.27444169 L68.239726,3.75037221 L68.3938356,3.75037221 C69.1643836,3.75037221 70.5976027,3.75037221 71.5684932,4.0942928 C72.6164384,4.48734491 73.4332192,5.24069479 74.5736301,6.89478908 C75.3441781,8.00843672 75.2363014,10.0883375 74.265411,13.2655087 L74.1575342,13.5602978 Z M68.8407534,10.2684864 L73.864726,12.8233251 C74.6969178,10.0228288 74.7893836,8.13945409 74.1575342,7.22233251 C73.8184932,6.7146402 73.510274,6.30521092 73.2020548,5.96129032 C73.2020548,6.15781638 73.1866438,6.33796526 73.140411,6.53449132 C72.6934932,8.30322581 70.0119863,9.71166253 68.8407534,10.2684864 Z" id="Shape" fill="#000000"></path>
            <path d="M64.0325342,7.54987593 L63.8630137,7.05856079 C65.9743151,6.23970223 71.4760274,6.33796526 72.7089041,6.89478908 L72.5239726,7.38610422 C71.3835616,6.86203474 66.0205479,6.76377171 64.0325342,7.54987593 Z" id="Shape" fill="#000000"></path>
            <path d="M34.0119863,62.4297767 C30.9143836,63.6253102 25.135274,64.6243176 24.8116438,64.9191067 C24.2876712,66.2784119 23.4400685,65.4595533 21.0513699,65.3612903 C19.5873288,65.2957816 11.2037671,63.5598015 8.92294521,62.2168734 C6.64212329,60.8739454 6.2260274,60.7920596 6.81164384,58.9905707 C7.39726027,57.1727047 11.3270548,45.1682382 11.9126712,42.5970223 C12.4982877,40.0258065 12.744863,40.8119107 11.7893836,40.2878412 C10.8339041,39.7637717 11.265411,39.3379653 11.6506849,38.6501241 C12.0359589,37.9622829 13.515411,35.9478908 13.5,35.1945409 C13.484589,34.4411911 14.6866438,24.0253102 13.2380137,22.3875931 C11.6815068,23.5176179 12.0976027,24.2545906 11.8972603,24.7459057 C11.6815068,25.2208437 6.54965753,36.7995037 6.61130137,38.0114144 C6.59589041,39.8129032 6.01027397,41.0903226 5.67123288,41.2704715 C5.33219178,41.4342432 0.385273973,39.7801489 0.477739726,39.3707196 C0.570205479,38.9612903 1.09417808,36.6684864 1.7260274,36.0133995 C2.34246575,35.3583127 2.55821918,32.7543424 2.55821918,32.7543424 L6.01027397,20.274938 C6.01027397,20.274938 8.41438356,10.8908189 9.09246575,10.3176179 C9.7859589,9.7280397 12.4366438,8.82729529 12.6215753,8.05756824 C12.8065068,7.28784119 13.5770548,6.9439206 11.8972603,6.43622829 C11.4349315,6.05955335 12.0667808,5.30620347 12.6061644,4.86401985 C13.1455479,4.42183623 16.135274,0.753349876 18.2003425,0.507692308 C20.265411,0.262034739 23.0393836,0.491315136 24.6113014,0.458560794 C27,0.80248139 30.6215753,2.91513648 31.7773973,5.6337469 C32.1934932,6.20694789 31.9315068,6.43622829 31.6386986,6.50173697 C31.3458904,6.58362283 30.4828767,6.61637717 30.9914384,7.63176179 C31.5,8.6471464 31.885274,8.991067 33.0410959,9.26947891 C34.1969178,9.53151365 34.9366438,10.4650124 35.7226027,13.1181141 C36.4931507,15.7548387 41.8561644,35.0799007 41.8561644,35.0799007 C41.8561644,35.0799007 42.2106164,36.6684864 42.6267123,36.6684864 C43.1969178,37.880397 43.1969178,38.9612903 43.1969178,38.9612903 C43.1969178,38.9612903 43.9366438,39.7965261 41.5941781,40.3042184 C39.2517123,40.8119107 38.1575342,41.9091811 37.7722603,40.7627792 C37.3869863,39.6163772 36.9400685,38.2406948 36.9400685,38.2406948 C36.9400685,38.2406948 37.2020548,37.8312655 36.6626712,36.4883375 C36.1232877,35.1454094 30.9914384,22.666005 30.7910959,22.3384615 C30.5907534,22.0109181 30.2825342,23.2064516 30.1438356,23.5176179 C30.005137,23.8451613 29.6660959,30.9364764 30.0513699,33.9990074 C30.375,35.5548387 30.4058219,36.062531 30.9914384,36.2099256 C31.7619863,36.6521092 33.4109589,39.7146402 33.0719178,40.271464 C32.7328767,40.8282878 31.2842466,40.5334988 31.6386986,41.7617866 C31.9931507,42.9736973 37.4486301,60.3498759 37.4486301,60.3498759 L34.0119863,62.4297767 Z" id="Shape" fill="#7F96A5"></path>
            <path d="M20.9589041,20.4059553 C19.5873288,17.9002481 17.9075342,12.3647643 17.7071918,8.48337469 C17.5068493,4.60198511 18.369863,1.22828784 20.25,0.376674938 C22.0530822,0.376674938 23.6558219,0.311166253 24.3184932,0.999007444 C26.244863,4.47096774 26.1061644,7.81191067 25.9982877,9.59702233 C25.890411,11.382134 24.0873288,17.8019851 21.9606164,21.1101737 C21.6523973,21.6506203 21.2671233,20.9955335 20.9589041,20.4059553 Z" id="Shape" fill="#3F4C4F"></path>
            <path d="M36.9400685,38.3880893 L37.864726,41.0739454 C37.9109589,41.22134 38.0650685,41.3032258 38.1883562,41.2540943 L43.1044521,39.8292804 C43.2431507,39.7801489 43.3356164,39.6327543 43.3047945,39.4853598 L42.7191781,36.8158809 C42.6883562,36.6521092 42.5342466,36.5538462 42.380137,36.6029777 L37.125,38.0277916 C36.9708904,38.0441687 36.8784247,38.2243176 36.9400685,38.3880893 Z" id="Shape" fill="#AAC1CE"></path>
            <path d="M6.84246575,38.3880893 L5.91780822,41.0739454 C5.87157534,41.22134 5.71746575,41.3032258 5.59417808,41.2540943 L0.678082192,39.8292804 C0.539383562,39.7801489 0.446917808,39.6327543 0.477739726,39.4853598 L1.06335616,36.8158809 C1.09417808,36.6521092 1.24828767,36.5538462 1.40239726,36.6029777 L6.65753425,38.0277916 C6.81164384,38.0441687 6.88869863,38.2243176 6.84246575,38.3880893 Z" id="Shape" fill="#AAC1CE"></path>
            <path d="M24.8270548,65.0009926 L24.7808219,64.3622829 C29.8510274,64.0019851 33.8578767,62.6263027 37.0325342,60.2024814 C36.1078767,57.5493797 31.7619863,43.7761787 31.0684932,40.942928 L31.6541096,40.7791563 C32.3784247,43.6942928 36.9863014,58.2699752 37.6797945,60.2024814 L37.7568493,60.4317618 L37.5719178,60.5791563 C34.2893836,63.1667494 30.1284247,64.6079404 24.8270548,65.0009926 Z" id="Shape" fill="#000000"></path>
            <path d="M36.9554795,38.0933002 C34.6130137,32.1483871 31.7773973,25.2044665 30.6678082,22.8297767 C29.4349315,26.2198511 30.1438356,32.426799 30.7140411,35.964268 L30.1130137,36.0789082 C29.4965753,32.2466501 28.7260274,25.3027295 30.390411,21.9454094 L30.6523973,21.42134 L30.9297945,21.9454094 C31.7311644,23.4848635 34.9366438,31.280397 37.5256849,37.8476427 L36.9554795,38.0933002 Z" id="Shape" fill="#000000"></path>
            <path d="M41.9178082,36.7012407 C39.9297945,28.5617866 37.3253425,19.7508685 35.9383562,15.017866 C35.3527397,13.0034739 34.9520548,11.6769231 34.859589,11.2674938 C34.5667808,9.92456576 32.8253425,9.43325062 31.5308219,9.17121588 L31.6386986,8.5325062 C33.0873288,8.82729529 35.0599315,9.41687345 35.4297945,11.1200993 C35.5222603,11.5131514 35.9229452,12.8888337 36.4931507,14.82134 C37.8955479,19.5543424 40.5,28.3816377 42.4880137,36.537469 L41.9178082,36.7012407 Z" id="Shape" fill="#000000"></path>
            <path d="M21.6523973,21.6506203 C23.8099315,17.4580645 25.3818493,14.4282878 25.890411,10.3995037 C26.4914384,5.55186104 25.489726,1.76873449 23.7636986,0.474937965 C27.5239726,0.474937965 29.1729452,1.94888337 32.255137,6.30521092 L30.5753425,6.7146402 C30.5753425,6.7146402 31.2996575,8.58163772 31.9777397,9.41687345 C31.5770548,14.5920596 27.8167808,20.7007444 22.8544521,23.1900744" id="Shape" fill="#AAC1CE"></path>
            <path d="M23.3013699,24.0908189 C19.9263699,19.7508685 18.3544521,14.4282878 17.8613014,10.3995037 C17.260274,5.55186104 18.2619863,1.76873449 19.9880137,0.474937965 C16.2277397,0.474937965 14.5787671,1.94888337 11.4965753,6.30521092 L13.1763699,6.7146402 C13.1763699,6.7146402 12.4520548,8.58163772 11.7739726,9.41687345 C12.1746575,14.6084367 15.9041096,21.9126551 23.3013699,24.0908189" id="Shape" fill="#AAC1CE"></path>
            <path d="M22.9931507,23.5012407 L22.7311644,22.9116625 C27.8167808,20.3568238 31.3613014,13.7568238 31.7773973,9.04019851 C31.114726,8.20496278 30.359589,6.96029777 30.3287671,6.91116625 L30.0976027,6.51811414 L31.7465753,6.10868486 C29.0804795,2.391067 27.5547945,1.01538462 24.5958904,0.818858561 C26.0907534,2.62034739 26.7380137,6.30521092 26.2140411,10.4322581 C25.7054795,14.4774194 24.1489726,17.4908189 22.0068493,21.6833747 L21.9452055,21.8143921 L21.4058219,21.5032258 L21.4674658,21.3722084 C23.5787671,17.2615385 25.119863,14.2808933 25.6130137,10.3503722 C26.260274,5.22431762 25.0736301,1.83424318 23.609589,0.736972705 L22.8082192,0.163771712 L23.7636986,0.163771712 C27.6164384,0.163771712 29.3270548,1.65409429 32.5017123,6.12506203 L32.7791096,6.51811414 L31.0839041,6.9439206 C31.3767123,7.40248139 31.885274,8.18858561 32.3321918,8.72903226 L32.4092466,8.82729529 L32.3938356,8.95831266 C31.9623288,14.5756824 27.739726,21.0937965 22.9931507,23.5012407 Z" id="Shape" fill="#000000"></path>
            <path d="M24.1489726,24.680397 L23.2243151,24.4019851 C18.9092466,23.1245658 16.1506849,20.1111663 14.5787671,17.8183623 C12.744863,15.116129 11.5119863,11.7915633 11.2962329,8.94193548 L11.2808219,8.81091811 L11.3578767,8.71265509 C11.7893836,8.17220844 12.3287671,7.40248139 12.6523973,6.9439206 L10.9726027,6.51811414 L11.25,6.12506203 C14.4246575,1.65409429 16.135274,0.163771712 19.9880137,0.163771712 L20.9434932,0.163771712 L20.1575342,0.753349876 C18.6934932,1.85062035 17.5068493,5.24069479 18.1541096,10.3667494 C18.4469178,12.7414392 19.5719178,18.8009926 23.5325342,23.8942928 L24.1489726,24.680397 Z M11.9280822,9.02382134 C12.3133562,13.4129032 15.4880137,20.8808933 22.4691781,23.4684864 C18.8938356,18.4243176 17.8613014,12.7414392 17.5684932,10.4322581 C17.0445205,6.30521092 17.6917808,2.62034739 19.1866438,0.818858561 C16.2277397,1.01538462 14.7020548,2.391067 12.0359589,6.10868486 L13.7003425,6.51811414 L13.4383562,6.91116625 C13.3921233,6.96029777 12.5907534,8.18858561 11.9280822,9.02382134 Z" id="Shape" fill="#000000"></path>
            <path d="M1.84931507,36.733995 L1.26369863,36.5702233 C3.25171233,28.4143921 5.85616438,19.5707196 7.25856164,14.82134 C7.82876712,12.9052109 8.22945205,11.5131514 8.32191781,11.1200993 C8.70719178,9.38411911 10.1712329,8.86004963 11.5582192,8.58163772 L11.6660959,9.22034739 C10.2174658,9.51513648 9.20034247,9.97369727 8.90753425,11.2674938 C8.81506849,11.6769231 8.42979452,13.0034739 7.82876712,15.017866 C6.44178082,19.7672457 3.83732877,28.5945409 1.84931507,36.733995 Z" id="Shape" fill="#000000"></path>
            <path d="M6.76541096,38.0933002 L6.21061644,37.8476427 C8.63013699,31.5588089 12.005137,23.5503722 12.8527397,21.9454094 L13.130137,21.42134 L13.3921233,21.9454094 C15.1027397,25.4173697 14.3013699,32.4104218 13.6541096,36.2754342 L13.0530822,36.160794 C13.6386986,32.5905707 14.3784247,26.301737 13.0993151,22.8297767 C11.9434932,25.253598 8.92294521,32.4759305 6.76541096,38.0933002 Z" id="Shape" fill="#000000"></path>
            <path d="M25.119863,65.901737 L24.8116438,65.901737 C21.6215753,65.8689826 10.8493151,65.3612903 6.16438356,60.546402 L6.02568493,60.3990074 L6.10273973,60.2024814 C6.90410959,57.9751861 11.4811644,43.3831266 12.1746575,40.6153846 L12.760274,40.7791563 C12.0821918,43.4813896 7.72089041,57.4347395 6.73458904,60.2352357 C11.1883562,64.6079404 21.0976027,65.1975186 24.5188356,65.2630273 L24.5188356,34.146402 C24.5188356,32.1156328 24.5188356,25.9414392 23.1010274,24.3200993 L23.5479452,23.8779156 C24.9657534,25.4992556 25.135274,30.51067 25.135274,34.146402 L25.135274,65.901737 L25.119863,65.901737 Z" id="Shape" fill="#000000"></path>
            <ellipse id="Oval" fill="#000000" cx="22.4537671" cy="42.1875931" rx="1.10958904" ry="1.17915633"></ellipse>
            <ellipse id="Oval" fill="#000000" cx="22.4537671" cy="34.6704715" rx="1.10958904" ry="1.17915633"></ellipse>
            <ellipse id="Oval" fill="#000000" cx="22.4537671" cy="27.2843672" rx="1.10958904" ry="1.17915633"></ellipse>
            <path d="M15.4571918,41.6307692 C15.4571918,41.6307692 15.4571918,41.6307692 15.4571918,41.6307692 C15.3493151,41.6307692 15.2260274,41.6143921 15.0719178,41.5980149 C11.1883562,40.9265509 10.9571918,40.3042184 10.880137,40.1076923 L10.864726,40.074938 C10.7414384,39.6163772 11.1421233,38.8957816 11.8664384,37.6511166 C12.0513699,37.3235732 12.2517123,36.9960298 12.4058219,36.7012407 C12.8989726,35.7841191 13.869863,35.6531017 14.640411,35.6531017 C15.0256849,35.6531017 15.4417808,35.6858561 15.8732877,35.7186104 C16.0273973,35.7349876 16.1815068,35.7349876 16.3356164,35.7513648 C16.9366438,35.7841191 17.3835616,35.8823821 17.5993151,36.2263027 C17.8613014,36.635732 17.7071918,37.1925558 17.4143836,38.1915633 C17.3373288,38.4372208 17.260274,38.7156328 17.1678082,39.0431762 C16.7054795,40.8119107 16.3202055,41.6307692 15.4571918,41.6307692 Z M11.4503425,39.8784119 C11.6044521,40.0913151 12.6986301,40.5334988 15.1643836,40.9593052 C15.2876712,40.9756824 15.380137,40.9920596 15.4571918,40.9920596 C15.7808219,40.9920596 16.0582192,40.8282878 16.6130137,38.8794045 C16.7054795,38.551861 16.7825342,38.2734491 16.859589,38.0277916 C17.0599315,37.3563275 17.2294521,36.7667494 17.1369863,36.6193548 C17.0907534,36.5538462 16.9212329,36.4555831 16.3356164,36.4228288 C16.1815068,36.4064516 16.0119863,36.4064516 15.8578767,36.3900744 C15.4417808,36.3573201 15.0410959,36.3245658 14.6712329,36.3245658 C13.7311644,36.3245658 13.2380137,36.537469 12.9606164,37.0451613 C12.7910959,37.3563275 12.6061644,37.683871 12.4058219,38.0114144 C12.0359589,38.6009926 11.4657534,39.6 11.4503425,39.8784119 Z" id="Shape" fill="#000000"></path>
            <path d="M28.9571918,41.6307692 C28.0941781,41.6307692 27.7089041,40.7955335 27.2311644,39.0431762 C27.1386986,38.7320099 27.0616438,38.453598 26.984589,38.1915633 C26.6917808,37.1925558 26.5222603,36.635732 26.7996575,36.2263027 C27.015411,35.8823821 27.4623288,35.7841191 28.0633562,35.7513648 C28.2174658,35.7349876 28.3715753,35.7349876 28.5256849,35.7186104 C28.9571918,35.6858561 29.3578767,35.6531017 29.7585616,35.6531017 C30.5445205,35.6531017 31.5,35.7677419 31.9931507,36.7012407 C32.1472603,36.9960298 32.3476027,37.3235732 32.5325342,37.6511166 C33.2568493,38.8957816 33.6729452,39.6327543 33.5342466,40.074938 L33.5188356,40.1076923 C33.4417808,40.3205955 33.2106164,40.942928 29.3270548,41.5980149 C29.1883562,41.6307692 29.0804795,41.6307692 28.9571918,41.6307692 Z M29.7585616,36.3081886 C29.3886986,36.3081886 28.9880137,36.3409429 28.5719178,36.3736973 C28.4178082,36.3900744 28.2636986,36.3900744 28.0941781,36.4064516 C27.5085616,36.439206 27.3390411,36.537469 27.2928082,36.6029777 C27.1849315,36.7503722 27.369863,37.3399504 27.5702055,38.0114144 C27.6472603,38.257072 27.7243151,38.551861 27.8167808,38.8630273 C28.3561644,40.8282878 28.6489726,40.9756824 28.9726027,40.9756824 C29.0496575,40.9756824 29.1421233,40.9593052 29.265411,40.942928 C31.7157534,40.5171216 32.8099315,40.074938 32.9794521,39.8620347 C32.9794521,39.5836228 32.3938356,38.5846154 32.0393836,37.97866 C31.8544521,37.6511166 31.6541096,37.307196 31.484589,37.0124069 C31.1917808,36.5210918 30.6986301,36.3081886 29.7585616,36.3081886 Z" id="Shape" fill="#000000"></path>
            <path d="M20.0342466,0.80248139 L19.9880137,0.163771712 C21.005137,0.0655086849 22.9469178,-0.0163771712 23.8253425,0.163771712 L23.7020548,0.80248139 C22.9315068,0.638709677 21.0667808,0.704218362 20.0342466,0.80248139 Z" id="Shape" fill="#000000"></path>
            <path d="M5.625,41.5816377 C5.57876712,41.5816377 5.51712329,41.5816377 5.47089041,41.5652605 L0.554794521,40.1404467 C0.246575342,40.0585608 0.0770547945,39.7310174 0.13869863,39.4034739 L0.724315068,36.733995 C0.785958904,36.4555831 1.01712329,36.2590571 1.29452055,36.2590571 C1.34075342,36.2590571 1.3869863,36.2590571 1.43321918,36.2754342 L6.68835616,37.7002481 C6.84246575,37.7493797 6.98116438,37.8476427 7.05821918,38.0114144 C7.13527397,38.1751861 7.15068493,38.3389578 7.0890411,38.5027295 L6.16438356,41.1885856 C6.08732877,41.417866 5.87157534,41.5816377 5.625,41.5816377 Z M0.739726027,39.5181141 L5.59417808,40.9265509 L6.50342466,38.3062035 L1.30993151,36.8977667 L0.739726027,39.5181141 Z" id="Shape" fill="#000000"></path>
            <path d="M38.1113014,41.5816377 C38.1113014,41.5816377 38.1113014,41.5816377 38.1113014,41.5816377 C37.864726,41.5816377 37.6489726,41.417866 37.5719178,41.1722084 L36.6472603,38.4863524 C36.5856164,38.3225806 36.6010274,38.1424318 36.6780822,37.9950372 C36.755137,37.8476427 36.8938356,37.7330025 37.0479452,37.683871 L42.3030822,36.2590571 C42.3493151,36.2426799 42.3955479,36.2426799 42.4417808,36.2426799 C42.7191781,36.2426799 42.9503425,36.439206 43.0119863,36.7176179 L43.5976027,39.3870968 C43.6746575,39.7146402 43.489726,40.0258065 43.1815068,40.1240695 L38.265411,41.5488834 C38.2191781,41.5652605 38.1729452,41.5816377 38.1113014,41.5816377 Z M37.2328767,38.3062035 L38.1421233,40.9265509 L42.9965753,39.5181141 L42.4263699,36.8977667 L37.2328767,38.3062035 Z" id="Shape" fill="#000000"></path>
            <path d="M12.8219178,22.1746898 C12.3133562,20.0292804 10.7568493,13.4784119 8.7380137,10.6124069 L9.21575342,10.2193548 C11.3116438,13.1836228 12.8373288,19.6034739 13.4075342,22.0109181 L12.8219178,22.1746898 Z" id="Shape" fill="#000000"></path>
            <path d="M31.0376712,22.1746898 L30.4520548,22.0109181 C31.0222603,19.6034739 32.5479452,13.1836228 34.6438356,10.2193548 L35.1215753,10.6124069 C33.1027397,13.4784119 31.5462329,20.0292804 31.0376712,22.1746898 Z" id="Shape" fill="#000000"></path>
            <g id="Group" transform="translate(40.068493, 27.349876)">
                <path d="M5.93321918,14.9032258 C5.60958904,14.9032258 5.3630137,14.6084367 5.3630137,14.2645161 L5.3630137,9.7280397 L1.21746575,9.7280397 C0.893835616,9.7280397 0.647260274,9.43325062 0.647260274,9.08933002 L0.647260274,6.50173697 C0.647260274,6.15781638 0.924657534,5.8630273 1.21746575,5.8630273 L5.33219178,5.8630273 L5.33219178,1.32655087 C5.33219178,0.982630273 5.60958904,0.687841191 5.90239726,0.687841191 L7.0890411,0.687841191 C7.24315068,0.687841191 7.39726027,0.769727047 7.52054795,0.867990074 L13.4229452,7.35334988 C13.6541096,7.59900744 13.6541096,8.0248139 13.4229452,8.25409429 L7.52054795,14.7394541 C7.41267123,14.8704715 7.2739726,14.919603 7.0890411,14.919603 L5.93321918,14.919603 L5.93321918,14.9032258 Z" id="Shape" fill="#FAE7AA"></path>
                <path d="M7.11986301,1.32655087 L13.0222603,7.81191067 L7.11986301,14.2972705 L5.93321918,14.2972705 L5.93321918,9.12208437 L1.21746575,9.12208437 L1.21746575,6.53449132 L5.93321918,6.53449132 L5.93321918,1.35930521 L7.11986301,1.35930521 L7.11986301,1.32655087 Z M7.11986301,0.0163771712 L5.93321918,0.0163771712 C5.2859589,0.0163771712 4.74657534,0.605955335 4.74657534,1.32655087 L4.74657534,5.22431762 L1.20205479,5.22431762 C0.554794521,5.22431762 0.0154109589,5.81389578 0.0154109589,6.53449132 L0.0154109589,9.12208437 C0.0154109589,9.8426799 0.539383562,10.4322581 1.20205479,10.4322581 L4.74657534,10.4322581 L4.74657534,14.3300248 C4.74657534,15.0506203 5.27054795,15.6401985 5.93321918,15.6401985 L7.11986301,15.6401985 C7.42808219,15.6401985 7.72089041,15.5091811 7.95205479,15.2635236 L13.8544521,8.77816377 C14.3013699,8.27047146 14.3013699,7.4516129 13.8544521,6.9439206 L7.95205479,0.458560794 C7.72089041,0.163771712 7.41267123,0.0163771712 7.11986301,0.0163771712 Z" id="Shape" fill="#CC2128"></path>
            </g>
        </g>
    </g>
</svg>