<?xml version="1.0" encoding="iso-8859-1"?>
<!-- Generator: Adobe Illustrator 21.1.0, SVG Export Plug-In . SVG Version: 6.00 Build 0)  -->
<svg version="1.1" id="platie_x5F_003" xmlns="http://www.w3.org/2000/svg" xmlns:xlink="http://www.w3.org/1999/xlink" x="0px"
	 y="0px" viewBox="0 0 90 90" style="enable-background:new 0 0 90 90;" xml:space="preserve">
<rect style="fill:none;" width="90" height="90"/>
<g>
	<g>
		<path style="fill:#E4AEC6;" d="M11,22.5c-0.109,0-0.218-0.036-0.307-0.105l-9-7c-0.167-0.13-0.234-0.352-0.167-0.553
			c1.028-3.086,4.045-6.187,6.25-7.289C7.848,7.517,7.924,7.5,8,7.5c0.163,0,0.321,0.079,0.417,0.223l4,6
			c0.066,0.1,0.095,0.22,0.08,0.339l-1,8c-0.022,0.178-0.139,0.331-0.305,0.4C11.13,22.487,11.064,22.5,11,22.5z"/>
		<path style="fill:#42210B;" d="M8,8l4,6l-1,8l-9-7C3,12,6,9,8,8 M7.999,7C7.848,7,7.696,7.034,7.553,7.106
			c-2.294,1.147-5.432,4.371-6.501,7.578c-0.134,0.402,0,0.845,0.335,1.106l9,7C10.565,22.928,10.781,23,11,23
			c0.129,0,0.259-0.025,0.383-0.076c0.332-0.138,0.565-0.443,0.61-0.8l1-8c0.03-0.238-0.027-0.479-0.16-0.679l-4-6
			C8.641,7.159,8.325,7,7.999,7L7.999,7z"/>
	</g>
	<g>
		<path style="fill:#E4AEC6;" d="M35,22.5c-0.064,0-0.13-0.013-0.191-0.038c-0.166-0.069-0.282-0.222-0.305-0.4l-1-8
			c-0.015-0.119,0.014-0.24,0.08-0.339l4-6C37.68,7.58,37.838,7.5,38,7.5c0.075,0,0.152,0.017,0.223,0.053
			c2.205,1.103,5.222,4.203,6.25,7.289c0.067,0.201,0,0.423-0.167,0.553l-9,7C35.218,22.464,35.109,22.5,35,22.5z"/>
		<path style="fill:#42210B;" d="M38,8c2,1,5,4,6,7l-9,7l-1-8L38,8 M38.001,7c-0.325,0-0.642,0.159-0.833,0.445l-4,6
			c-0.133,0.2-0.19,0.441-0.16,0.679l1,8c0.045,0.357,0.277,0.662,0.61,0.8C34.741,22.975,34.871,23,35,23
			c0.219,0,0.436-0.072,0.614-0.211l9-7c0.335-0.26,0.469-0.703,0.335-1.106c-1.069-3.208-4.207-6.431-6.501-7.578
			C38.304,7.034,38.151,7,38.001,7L38.001,7z"/>
	</g>
	<g>
		<path style="fill:#AA8396;" d="M15,23.5c-0.276,0-0.5-0.224-0.5-0.5V6c0-0.202,0.122-0.385,0.309-0.462
			C14.871,5.512,14.936,5.5,15,5.5c0.13,0,0.258,0.051,0.354,0.146C15.37,5.662,17.336,7.5,23,7.5s7.63-1.838,7.649-1.856
			C30.745,5.551,30.872,5.502,31,5.502c0.065,0,0.131,0.013,0.194,0.039C31.378,5.62,31.5,5.799,31.5,6v17
			c0,0.276-0.224,0.5-0.5,0.5H15z"/>
		<path style="fill:#42210B;" d="M31,6v17h-8h-8V6c0,0,2,2,8,2S31,6,31,6 M31,5c-0.255,0-0.506,0.098-0.697,0.282
			C30.242,5.338,28.337,7,23,7c-5.4,0-7.287-1.702-7.305-1.719c-0.191-0.178-0.441-0.273-0.694-0.273
			c-0.133,0-0.267,0.026-0.393,0.081C14.243,5.248,14,5.602,14,6v17c0,0.552,0.448,1,1,1h8h8c0.552,0,1-0.448,1-1V6
			c0-0.404-0.244-0.769-0.617-0.924C31.259,5.025,31.129,5,31,5L31,5z"/>
	</g>
	<path style="fill:#E4AEC6;" d="M40,58c-3-14-6-18-6-22s3-9,3-17c0-4-1-7,1-11c0,0-3-2-7-2c0,0,1,9-8,9s-8-9-8-9c-4,0-7,2-7,2
		c2,4,1,7,1,11c0,8,3,13,3,17s-3,8-6,22S3,79,3,79s0,1,2,1c3,0,1,2,4,2c2,0,1,1,4,1s1,1,4,1s1-1,3-1s0,1,2,1c1,0,1,0,1,0s0,0,1,0
		c2,0,0-1,2-1s0,1,3,1s1-1,4-1s2-1,4-1c3,0,1-2,4-2c2,0,2-1,2-1S43,72,40,58z"/>
	<g>
		<path style="fill:#F6D3D7;" d="M31,6c0,0,0.116,1.088-0.104,2.503c0.305,0.038,5.23,0.839,6.399,1.239
			C37.473,9.178,37.699,8.601,38,8C38,8,35,6,31,6z"/>
		<path style="fill:#F6D3D7;" d="M13,15c1-3,0.813-5.548,1-8c-2.763,0.523-6,1-6,1c2,4,1,7,1,11c0,8,3,13,3,17s-3,8-6,22S3,79,3,79
			s0,1,2,1c0.066,0,2.117,0.006,2.178,0.008C7.579,75.849,6.703,71.721,9,61c3-14,6-18,6-22s-3-11-3-19
			C12,16.639,12.778,15.665,13,15z"/>
	</g>
	<g>
		<path style="fill:#42210B;" d="M31,6c4,0,7,2,7,2c-2,4-1,7-1,11c0,8-3,13-3,17s3,8,6,22s3,21,3,21s0,1-2,1c-3,0-1,2-4,2
			c-2,0-1,1-4,1s-1,1-4,1s-1-1-3-1s0,1-2,1c-1,0-1,0-1,0s0,0-1,0c-2,0,0-1-2-1s0,1-3,1s-1-1-4-1s-2-1-4-1c-3,0-1-2-4-2c-2,0-2-1-2-1
			s0-7,3-21s6-18,6-22s-3-9-3-17c0-4,1-7-1-11c0,0,3-2,7-2c0,0-1,9,8,9S31,6,31,6 M31,5c-0.284,0-0.555,0.121-0.745,0.333
			c-0.189,0.211-0.28,0.493-0.249,0.775c0.006,0.054,0.354,3.633-1.7,5.917C27.128,13.336,25.343,14,23,14
			c-2.348,0-4.136-0.667-5.314-1.984c-2.065-2.307-1.696-5.87-1.692-5.906c0.031-0.283-0.059-0.565-0.249-0.777S15.284,5,15,5
			c-4.254,0-7.422,2.079-7.555,2.168c-0.42,0.28-0.565,0.828-0.34,1.279c1.361,2.723,1.207,4.96,1.028,7.55
			C8.068,16.948,8,17.932,8,19c0,4.824,1.064,8.605,1.92,11.644C10.499,32.703,11,34.481,11,36c0,1.685-0.628,3.491-1.578,6.226
			c-1.172,3.372-2.777,7.99-4.4,15.564C2.034,71.734,2,78.71,2,79c0,0.082,0.034,2,3,2c0.882,0,0.943,0.122,1.106,0.447
			C6.481,82.198,7.046,83,9,83c0.588,0,0.7,0.078,0.946,0.248C10.543,83.659,11.185,84,13,84c1.086,0,1.215,0.13,1.293,0.207
			C14.819,84.733,15.382,85,17,85c1.577,0,2.326-0.263,2.735-0.991C19.798,84.004,19.885,84,20,84c0.026,0,0.051,0,0.074,0.001
			C20.282,84.671,20.928,85,22,85h1h1c1.082,0,1.73-0.336,1.931-1c0.022,0,0.044,0,0.069,0c0.117,0,0.205,0.004,0.269,0.009
			C26.693,84.743,27.443,85,29,85c1.618,0,2.181-0.267,2.707-0.793C31.785,84.13,31.914,84,33,84c1.815,0,2.457-0.341,3.054-0.752
			C36.3,83.078,36.412,83,37,83c1.954,0,2.519-0.802,2.894-1.553C40.057,81.122,40.118,81,41,81c2.966,0,3-1.918,3-2
			c0-0.29-0.034-7.266-3.022-21.21c-1.623-7.574-3.228-12.192-4.4-15.564C35.628,39.491,35,37.685,35,36
			c0-1.519,0.501-3.297,1.08-5.356C36.936,27.605,38,23.824,38,19c0-1.068-0.068-2.052-0.134-3.003
			c-0.179-2.59-0.333-4.827,1.028-7.55c0.226-0.451,0.08-1-0.34-1.279C38.422,7.079,35.254,5,31,5L31,5z"/>
	</g>
	<g>
		<path style="fill:#FCEAAE;" d="M11,38.5c-0.276,0-0.5-0.224-0.5-0.5v-4c0-0.276,0.224-0.5,0.5-0.5h24c0.276,0,0.5,0.224,0.5,0.5v4
			c0,0.276-0.224,0.5-0.5,0.5H11z"/>
		<path style="fill:#42210B;" d="M35,34v4H11v-4H35 M35,33H11c-0.552,0-1,0.448-1,1v4c0,0.552,0.448,1,1,1h24c0.552,0,1-0.448,1-1
			v-4C36,33.448,35.552,33,35,33L35,33z"/>
	</g>
	<g>
		<circle style="fill:#FCEAAE;" cx="23" cy="36" r="4.5"/>
		<path style="fill:#42210B;" d="M23,32c2.209,0,4,1.791,4,4s-1.791,4-4,4s-4-1.791-4-4S20.791,32,23,32 M23,31
			c-2.757,0-5,2.243-5,5s2.243,5,5,5s5-2.243,5-5S25.757,31,23,31L23,31z"/>
	</g>
	<path style="fill:none;stroke:#42210B;stroke-linecap:round;stroke-linejoin:round;stroke-miterlimit:10;" d="M25.5,82.5
		c0-8.254-1-29-1-29"/>
	<path style="fill:none;stroke:#42210B;stroke-linecap:round;stroke-linejoin:round;stroke-miterlimit:10;" d="M13.5,82.5
		c0-13,2-22,2-22"/>
	<path style="fill:none;stroke:#42210B;stroke-linecap:round;stroke-linejoin:round;stroke-miterlimit:10;" d="M35.5,57.5
		c0,0,3,19,3,24"/>
	<g>
		<path style="fill:#FCEAAE;" d="M18,21.5c-0.111,0-0.222-0.037-0.313-0.109C12.457,17.206,11.5,12.924,11.5,6
			c0-0.276,0.224-0.5,0.5-0.5h3c0.276,0,0.5,0.224,0.5,0.5c0,5.64,2.523,8.5,7.5,8.5c0.257,0,0.472,0.195,0.498,0.451
			s-0.147,0.489-0.399,0.54C18.552,16.399,18.5,20.813,18.5,21c0,0.192-0.11,0.367-0.283,0.451C18.148,21.484,18.074,21.5,18,21.5z"
			/>
		<path style="fill:#42210B;" d="M15,6c0,5,2,9,8,9c-5,1-5,6-5,6c-5-4-6-8-6-15H15 M15,5h-3c-0.552,0-1,0.448-1,1
			c0,7.084,0.986,11.469,6.375,15.781C17.556,21.926,17.777,22,18,22c0.147,0,0.295-0.032,0.433-0.099C18.78,21.735,19,21.384,19,21
			c0.002-0.167,0.084-4.197,4.196-5.019c0.504-0.101,0.85-0.568,0.799-1.079S23.514,14,23,14c-4.71,0-7-2.617-7-8
			C16,5.448,15.552,5,15,5L15,5z"/>
	</g>
	<g>
		<path style="fill:#FCEAAE;" d="M28,21.5c-0.073,0-0.147-0.016-0.216-0.049c-0.173-0.083-0.283-0.258-0.284-0.45
			c-0.001-0.188-0.072-4.605-4.598-5.511c-0.252-0.05-0.425-0.284-0.399-0.54S22.743,14.5,23,14.5c4.977,0,7.5-2.86,7.5-8.5
			c0-0.276,0.224-0.5,0.5-0.5h3c0.276,0,0.5,0.224,0.5,0.5c0,6.924-0.957,11.206-6.188,15.391C28.222,21.462,28.112,21.5,28,21.5z"
			/>
		<path style="fill:#42210B;" d="M34,6h0.005 M34,6c0,7-1,11-6,15c0,0,0-5-5-6c6,0,8-4,8-9H34 M34.005,5H34h-3c-0.552,0-1,0.448-1,1
			c0,5.383-2.29,8-7,8c-0.514,0-0.944,0.39-0.995,0.901s0.295,0.978,0.799,1.079C26.952,16.81,27,20.829,27,21
			c0,0.384,0.22,0.735,0.567,0.901C27.705,21.968,27.853,22,28,22c0.223,0,0.444-0.074,0.625-0.219
			c5.371-4.297,6.369-8.667,6.375-15.709C35.002,6.048,35.002,6.024,35.002,6C35.002,5.448,34.557,5,34.005,5L34.005,5z M34,7h0.005
			H34L34,7z"/>
	</g>
</g>
<g>
	<path style="fill:#FCEAAE;" d="M52.007,42.088c-0.831,0-1.507-0.674-1.507-1.502V39c0-0.276-0.224-0.5-0.5-0.5h-7
		c-0.827,0-1.5-0.673-1.5-1.5s0.673-1.5,1.5-1.5h7c0.276,0,0.5-0.224,0.5-0.5v-1.586c0-0.828,0.676-1.502,1.507-1.502
		c0.395,0,0.769,0.157,1.053,0.441l4.293,4.293c0.195,0.195,0.195,0.512,0,0.707l-4.293,4.293
		C52.776,41.931,52.402,42.088,52.007,42.088L52.007,42.088z"/>
	<path style="fill:#CE171F;" d="M52.007,32.412c0.246,0,0.496,0.091,0.7,0.295L57,37l-4.293,4.293
		c-0.204,0.204-0.454,0.295-0.7,0.295c-0.514,0-1.007-0.399-1.007-1.002V39c0-0.552-0.448-1-1-1h-7c-0.552,0-1-0.448-1-1
		s0.448-1,1-1h7c0.552,0,1-0.448,1-1v-1.586C51,32.811,51.493,32.412,52.007,32.412 M52.007,31.412C50.9,31.412,50,32.31,50,33.414
		V35h-7c-1.103,0-2,0.897-2,2s0.897,2,2,2h7v1.586c0,1.104,0.9,2.002,2.007,2.002c0.528,0,1.028-0.209,1.407-0.588l4.293-4.293
		c0.391-0.391,0.391-1.024,0-1.414L53.414,32C53.035,31.621,52.535,31.412,52.007,31.412L52.007,31.412z"/>
</g>
<g>
	<g>
		<path style="fill:#AA8396;" d="M67,21.5c-0.276,0-0.5-0.224-0.5-0.5V4c0-0.232,0.16-0.434,0.385-0.487
			C66.923,3.504,66.962,3.5,67,3.5c0.186,0,0.361,0.104,0.447,0.276C67.451,3.781,68.501,5.5,74,5.5s6.549-1.719,6.559-1.736
			c0.092-0.16,0.263-0.257,0.441-0.257c0.042,0,0.083,0.005,0.125,0.017C81.344,3.582,81.5,3.773,81.5,4v17
			c0,0.276-0.224,0.5-0.5,0.5H67z"/>
		<path style="fill:#42210B;" d="M81,4v17h-7h-7V4c0,0,1,2,7,2S81,4,81,4 M80.996,2.943c-0.39,0-0.732,0.206-0.88,0.581
			C79.962,3.713,78.732,5,74,5s-5.962-1.287-6.116-1.476c-0.148-0.375-0.49-0.581-0.88-0.581c-0.065,0-0.132,0.006-0.199,0.018
			C66.326,3.044,66,3.514,66,4v17c0,0.552,0.448,1,1,1h7h7c0.552,0,1-0.448,1-1V4c0-0.486-0.326-0.956-0.805-1.039
			C81.128,2.949,81.061,2.943,80.996,2.943L80.996,2.943z"/>
	</g>
	<path style="fill:#E4AEC6;" d="M87,49c0-10-5-12-5-18s3-9,3-17c0-4-1-10-1-10s-1,0-3,0c0,0,2,16-7,16S67,4,67,4c-2,0-3,0-3,0
		s-1,6-1,10c0,8,3,11,3,17s-5,8-5,18c0,14,4,34,4,34s2,1,9,1s9-1,9-1S87,63,87,49z"/>
	<g>
		<path style="fill:#F6D3D7;" d="M77,21c9,0,7-16,7-16c0.056,0,0.102,0,0.156,0C84.062,4.375,84,4,84,4s-1,0-3,0c0,0,2,16-7,16
			c-0.146,0-0.281-0.016-0.421-0.024C74.491,20.618,75.614,21,77,21z"/>
		<path style="fill:#F6D3D7;" d="M64,50c0-10,5-12,5-18s-3-9-3-17c0-3.02,0.57-7.176,0.849-9.033C66.904,4.768,67,4,67,4
			c-2,0-3,0-3,0s-1,6-1,10c0,8,3,11,3,17s-5,8-5,18c0,14,4,34,4,34s0.755,0.373,2.934,0.664C67.422,81.034,64,62.954,64,50z"/>
	</g>
	<g>
		<path style="fill:#42210B;" d="M84,4c0,0,1,6,1,10c0,8-3,11-3,17s5,8,5,18c0,14-4,34-4,34s-2,1-9,1s-9-1-9-1s-4-20-4-34
			c0-10,5-12,5-18s-3-9-3-17c0-4,1-10,1-10s1,0,3,0c0,0-2,16,7,16s7-16,7-16C83,4,84,4,84,4 M84,3h-3
			c-0.287,0-0.56,0.123-0.749,0.338c-0.19,0.215-0.278,0.501-0.243,0.786c0.012,0.093,1.121,9.388-2.304,13.264
			C76.745,18.472,75.534,19,74,19s-2.745-0.528-3.704-1.613c-3.424-3.876-2.315-13.17-2.304-13.264
			c0.035-0.284-0.053-0.571-0.243-0.786C67.56,3.123,67.287,3,67,3h-3c-0.489,0-0.906,0.353-0.986,0.836
			C62.972,4.084,62,9.964,62,14c0,4.435,0.905,7.431,1.704,10.074C64.399,26.376,65,28.363,65,31c0,2.377-0.888,4.108-1.916,6.112
			C61.71,39.79,60,43.123,60,49c0,13.938,3.979,33.995,4.019,34.196c0.061,0.303,0.257,0.56,0.533,0.698
			C64.779,84.008,66.967,85,74,85s9.221-0.992,9.447-1.106c0.276-0.138,0.473-0.396,0.533-0.698C84.021,82.995,88,62.938,88,49
			c0-5.877-1.71-9.21-3.084-11.888C83.888,35.108,83,33.377,83,31c0-2.637,0.601-4.624,1.296-6.926C85.095,21.431,86,18.435,86,14
			c0-4.036-0.972-9.916-1.014-10.164C84.906,3.353,84.489,3,84,3L84,3z"/>
	</g>
</g>
</svg>
