<?xml version="1.0" encoding="UTF-8"?>
<svg width="90px" height="90px" viewBox="0 0 90 90" version="1.1" xmlns="http://www.w3.org/2000/svg" xmlns:xlink="http://www.w3.org/1999/xlink">
    <!-- Generator: Sketch 51.2 (57519) - http://www.bohemiancoding.com/sketch -->
    <title>Slice 1</title>
    <desc>Created with Sketch.</desc>
    <defs></defs>
    <g id="Page-1" stroke="none" stroke-width="1" fill="none" fill-rule="evenodd">
        <g id="Индивидуальный-пошив_Пошив-женской-одежды" transform="translate(7.000000, 0.000000)" fill-rule="nonzero">
            <g id="Group" transform="translate(0.000000, 4.075472)">
                <path d="M39.9549133,71.7792453 C34.617341,72.4584906 18.1872832,79.8792453 4.74450867,81.2377358 C9.79653179,69.3169811 10.5872832,54.6283019 8.14913295,41.6716981 C6.52369942,32.9773585 -0.680924855,22.2283019 1.05433526,13.4150943 C1.49364162,11.2075472 3.73410405,7.21698113 8.19306358,6.40188679 L40.0867052,0.628301887" id="Shape" fill="#E1ACC4"></path>
                <g opacity="0.2" transform="translate(1.098266, 17.830189)" fill="#FFFFFF" id="Shape">
                    <g>
                        <path d="M8.50057803,6.3 C9.29132948,11.6660377 17.2427746,16.3018868 20.2739884,29.3264151 C23.2612717,42.1471698 21.1526012,52.6924528 19.3514451,59.9773585 C15.7710983,61.4207547 3.44855491,63.4075472 3.44855491,63.4075472 C6.65549133,55.7320755 8.93988439,40.9584906 8.01734104,30.6339623 C7.09479769,20.309434 -0.219653179,6.82641509 0.0658959538,0.118867925 C1.82312139,2.78490566 3.95375723,6.01132075 8.50057803,6.3 Z"></path>
                    </g>
                </g>
                <path d="M16.5398844,11.0037736 L26.7098266,9.16981132 L39.8890173,6.40188679 L39.9768786,0.662264151 L9.59884393,6.14716981 C9.59884393,6.14716981 15.0023121,7.13207547 16.5398844,11.0037736 Z" id="Shape" fill="#F4D2D5"></path>
                <g opacity="0.1" transform="translate(15.595376, 13.754717)" fill="#000000" id="Shape">
                    <g>
                        <polygon points="6.19421965 4.0754717 24.2936416 0.0679245283 24.2936416 3.26037736 0.0658959538 9.39056604 0.0658959538 8.50754717 3.09710983 4.72075472"></polygon>
                    </g>
                </g>
                <g opacity="0.1" transform="translate(1.098266, 6.283019)" fill="#000000" id="Shape">
                    <g>
                        <path d="M17.132948,9.40754717 C17.0011561,12.0735849 15.7491329,16.7264151 10.1040462,17.9320755 C4.45895954,19.1377358 0.834682081,13.5169811 0.285549133,10.8509434 C-0.263583815,8.18490566 -0.219653179,1.40943396 5.8867052,0.0679245283 C11.2242775,0.169811321 16.1884393,2.83584906 17.132948,9.40754717 Z"></path>
                    </g>
                </g>
                <path d="M12.1907514,15.4528302 C12.1468208,16.2339623 11.7953757,17.5924528 10.1260116,17.9490566 C8.47861272,18.3056604 7.42427746,16.6584906 7.24855491,15.8773585 C7.09479769,15.0962264 7.09479769,13.109434 8.89595376,12.7188679 C10.4554913,12.7698113 11.9271676,13.5339623 12.1907514,15.4528302 Z" id="Shape" fill="#956E83"></path>
                <g fill="#000000" id="Shape">
                    <path d="M10.2797688,24.7584906 C10.2797688,24.7584906 10.2797688,24.7584906 10.2797688,24.7584906 C5.44739884,24.7584906 1.16416185,21.1245283 0.285549133,16.3018868 C-0.658959538,11.1226415 2.76763006,6.45283019 7.88554913,5.90943396 C8.2150289,5.8754717 8.56647399,5.85849057 8.89595376,5.85849057 C13.7283237,5.85849057 18.0115607,9.49245283 18.8901734,14.3150943 C19.3294798,16.7943396 18.8242775,19.2396226 17.4184971,21.1924528 C15.9907514,23.1962264 13.816185,24.4358491 11.2901734,24.7075472 C10.9606936,24.7415094 10.6092486,24.7584906 10.2797688,24.7584906 Z M8.91791908,6.84339623 C8.63236994,6.84339623 8.36878613,6.86037736 8.08323699,6.89433962 C3.64624277,7.36981132 0.724855491,11.5301887 1.55953757,16.1660377 C2.35028902,20.4962264 6.08439306,23.7566038 10.2797688,23.7566038 C10.2797688,23.7566038 10.2797688,23.7566038 10.2797688,23.7566038 C10.5653179,23.7566038 10.8289017,23.7396226 11.1144509,23.7056604 C13.2231214,23.4849057 15.0682081,22.3981132 16.2982659,20.6830189 C17.5722543,18.9169811 18.033526,16.6924528 17.616185,14.4169811 C16.8473988,10.1037736 13.0913295,6.84339623 8.91791908,6.84339623 Z"></path>
                    <path d="M5.66705202,10.8169811 C5.5132948,10.8169811 5.33757225,10.7660377 5.22774566,10.6811321 C4.98612717,10.4943396 4.96416185,10.1716981 5.22774566,9.98490566 C6.1283237,9.27169811 7.2265896,8.84716981 8.41271676,8.71132075 C9.48901734,8.59245283 10.5872832,8.74528302 11.5976879,9.13584906 C11.9052023,9.25471698 12.0369942,9.56037736 11.883237,9.79811321 C11.7294798,10.0358491 11.334104,10.1377358 11.0265896,10.0188679 C10.2138728,9.71320755 9.40115607,9.59433962 8.56647399,9.69622642 C7.66589595,9.79811321 6.83121387,10.1377358 6.1283237,10.6811321 C5.99653179,10.7830189 5.84277457,10.8169811 5.66705202,10.8169811 Z"></path>
                    <path d="M10.0601156,21.9396226 C8.12716763,21.9396226 6.21618497,21.1075472 4.85433526,19.6471698 C4.6566474,19.4264151 4.70057803,19.1207547 4.98612717,18.9509434 C5.2716763,18.7981132 5.66705202,18.8320755 5.8867052,19.0528302 C7.16069364,20.3943396 8.91791908,21.090566 10.6092486,20.9207547 C12.5641618,20.7169811 14.1676301,19.3754717 14.7606936,17.4226415 C14.8485549,17.1509434 15.1780347,16.9981132 15.5294798,17.0490566 C15.8809249,17.1169811 16.0786127,17.3716981 16.0127168,17.6433962 C15.2878613,19.9867925 13.2890173,21.6169811 10.7849711,21.8886792 C10.5433526,21.9226415 10.3017341,21.9396226 10.0601156,21.9396226 Z"></path>
                    <path d="M9.79653179,18.4415094 C9.79653179,18.4415094 9.79653179,18.4415094 9.79653179,18.4415094 C8.14913295,18.4415094 6.69942197,17.2358491 6.41387283,15.6566038 C6.10635838,13.9415094 7.29248555,12.3792453 9.04971098,12.1924528 C9.15953757,12.1754717 9.29132948,12.1754717 9.40115607,12.1754717 C11.0485549,12.1754717 12.4982659,13.3811321 12.783815,14.9603774 C13.0913295,16.6754717 11.9052023,18.2377358 10.1479769,18.4245283 C10.0381503,18.4415094 9.90635838,18.4415094 9.79653179,18.4415094 Z M9.37919075,13.1603774 C9.3132948,13.1603774 9.24739884,13.1603774 9.20346821,13.1773585 C8.17109827,13.2962264 7.46820809,14.3660377 7.66589595,15.5207547 C7.86358382,16.6075472 8.78612717,17.4566038 9.79653179,17.4566038 C9.79653179,17.4566038 9.79653179,17.4566038 9.79653179,17.4566038 C9.86242775,17.4566038 9.9283237,17.4566038 9.97225434,17.4396226 C11.0046243,17.3207547 11.7075145,16.2509434 11.5098266,15.0962264 C11.3121387,14.009434 10.3895954,13.1603774 9.37919075,13.1603774 Z"></path>
                    <path d="M7.9734104,6.89433962 C7.68786127,6.89433962 7.42427746,6.74150943 7.3583815,6.50377358 C7.27052023,6.23207547 7.49017341,5.97735849 7.8416185,5.90943396 L39.7352601,0.135849057 C40.0867052,0.0679245283 40.416185,0.237735849 40.5040462,0.509433962 C40.5919075,0.781132075 40.3722543,1.03584906 40.0208092,1.10377358 L8.12716763,6.87735849 C8.08323699,6.89433962 8.03930636,6.89433962 7.9734104,6.89433962 Z"></path>
                    <path d="M11.817341,24.6226415 C11.5537572,24.6226415 11.2901734,24.4867925 11.2023121,24.2830189 C11.0924855,24.0283019 11.2682081,23.7396226 11.6196532,23.654717 L39.5375723,16.5396226 C39.867052,16.454717 40.2404624,16.590566 40.350289,16.8622642 C40.4601156,17.1339623 40.2843931,17.4056604 39.932948,17.490566 L12.0150289,24.5886792 C11.9491329,24.6056604 11.883237,24.6226415 11.817341,24.6226415 Z"></path>
                    <path d="M17.9676301,19.2396226 C17.7040462,19.2396226 17.4404624,19.1037736 17.3526012,18.8830189 C17.2427746,18.6283019 17.4404624,18.3396226 17.7699422,18.2716981 L22.7121387,17.1 C23.0416185,17.0150943 23.4150289,17.1679245 23.5028902,17.4226415 C23.6127168,17.6773585 23.4150289,17.9660377 23.0855491,18.0339623 L18.1433526,19.2056604 C18.099422,19.2226415 18.033526,19.2396226 17.9676301,19.2396226 Z"></path>
                    <path d="M17.1109827,11.7509434 C16.8254335,11.7509434 16.583815,11.6150943 16.4959538,11.3943396 C16.4080925,11.1396226 16.6057803,10.8509434 16.9352601,10.7830189 L31.4323699,7.64150943 C31.783815,7.57358491 32.1352601,7.72641509 32.2231214,7.98113208 C32.3109827,8.23584906 32.1132948,8.5245283 31.783815,8.59245283 L17.2867052,11.7339623 C17.2208092,11.7339623 17.1768786,11.7509434 17.1109827,11.7509434 Z"></path>
                    <path d="M4.54682081,81.7301887 C4.34913295,81.7301887 4.1734104,81.6622642 4.06358382,81.5433962 C3.93179191,81.4075472 3.88786127,81.2377358 3.95375723,81.0679245 C8.6982659,69.8943396 9.9283237,55.545283 7.33641618,41.7226415 C6.7433526,38.5301887 5.42543353,35.1169811 4.0416185,31.5 C1.66936416,25.3698113 -0.746820809,19.0188679 0.219653179,13.3471698 C0.263583815,13.0754717 0.593063584,12.8886792 0.944508671,12.9226415 C1.29595376,12.9566038 1.53757225,13.2113208 1.49364162,13.4830189 C0.549132948,18.9509434 2.9433526,25.1830189 5.24971098,31.2283019 C6.65549133,34.8792453 7.9734104,38.3433962 8.58843931,41.5867925 C11.1583815,55.2566038 10.016185,69.4188679 5.46936416,80.6264151 C13.5745665,79.6415094 22.8219653,76.5169811 29.6531792,74.2245283 C34.0901734,72.7301887 37.582659,71.5584906 39.6473988,71.2867925 C39.9988439,71.2358491 40.3283237,71.4226415 40.3942197,71.6943396 C40.4601156,71.9660377 40.2184971,72.2207547 39.867052,72.2716981 C37.9560694,72.509434 34.3537572,73.7320755 30.1583815,75.1415094 C22.9757225,77.5528302 13.1572254,80.8641509 4.63468208,81.7301887 C4.59075145,81.7301887 4.56878613,81.7301887 4.54682081,81.7301887 Z"></path>
                </g>
                <path d="M18.5387283,39.6849057 C18.2751445,39.6849057 18.0115607,39.5490566 17.9236994,39.345283 C17.132948,37.4433962 15.2878613,34.7433962 13.5086705,32.145283 C11.3560694,28.9867925 9.3132948,26.0150943 9.04971098,24.3339623 C9.00578035,24.0622642 9.24739884,23.8075472 9.59884393,23.7735849 C9.95028902,23.7396226 10.2797688,23.9264151 10.3236994,24.1981132 C10.5653179,25.6924528 12.6520231,28.7320755 14.6508671,31.6698113 C16.4520231,34.3188679 18.3190751,37.0528302 19.1537572,39.0396226 C19.2635838,39.2943396 19.065896,39.5830189 18.7364162,39.6679245 C18.6705202,39.6679245 18.6046243,39.6849057 18.5387283,39.6849057 Z" id="Shape" fill="#000000"></path>
                <path d="M20.5375723,77.9603774 C20.4716763,77.9603774 20.4277457,77.9603774 20.3618497,77.9433962 C20.0104046,77.8754717 19.8127168,77.6037736 19.9225434,77.3320755 C20.9988439,74.2924528 22.1630058,64.4264151 22.2069364,62.4056604 C22.2069364,62.1339623 22.4924855,61.9132075 22.8439306,61.9132075 C22.8439306,61.9132075 22.8439306,61.9132075 22.8439306,61.9132075 C23.1953757,61.9132075 23.4809249,62.1509434 23.4809249,62.4226415 C23.4369942,64.5283019 22.2728324,74.4283019 21.1526012,77.6037736 C21.0647399,77.8245283 20.8011561,77.9603774 20.5375723,77.9603774 Z" id="Shape" fill="#000000"></path>
                <path d="M33.0578035,74.1226415 C33.0138728,74.1226415 32.9919075,74.1226415 32.9479769,74.1226415 C32.5965318,74.0716981 32.3549133,73.8169811 32.4208092,73.5622642 C32.750289,72.0339623 33.1456647,67.9584906 33.0797688,67.2622642 C33.0578035,66.990566 33.3213873,66.7528302 33.6728324,66.7358491 C34.0242775,66.7188679 34.3317919,66.9226415 34.3537572,67.1943396 C34.4416185,68.0264151 34.0023121,72.1698113 33.6947977,73.7150943 C33.6289017,73.9528302 33.3653179,74.1226415 33.0578035,74.1226415 Z" id="Shape" fill="#000000"></path>
                <path d="M22.0751445,29.1735849 C21.833526,29.1735849 21.6138728,29.0716981 21.5040462,28.8849057 C21.1965318,28.409434 20.6254335,27.5773585 20.0104046,26.6943396 C18.9560694,25.2169811 17.7699422,23.5358491 17.3965318,22.7207547 C17.2867052,22.4660377 17.4404624,22.1773585 17.7919075,22.0924528 C18.1213873,22.0075472 18.4947977,22.1264151 18.6046243,22.3981132 C18.9560694,23.145283 20.1641618,24.8603774 21.1306358,26.2358491 C21.7676301,27.1188679 22.3606936,27.9679245 22.6682081,28.4773585 C22.8219653,28.7320755 22.6901734,29.0207547 22.3606936,29.1396226 C22.2508671,29.1566038 22.1630058,29.1735849 22.0751445,29.1735849 Z" id="Shape" fill="#000000"></path>
                <path d="M35.8254335,29.9037736 C35.5618497,29.9037736 35.2982659,29.7679245 35.2104046,29.5641509 C34.0023121,26.5924528 30.8393064,21.9396226 28.9283237,19.9358491 C28.7086705,19.7150943 28.7745665,19.409434 29.0601156,19.2396226 C29.3456647,19.0698113 29.7410405,19.1207547 29.9606936,19.3415094 C31.9595376,21.4471698 35.166474,26.1509434 36.4404624,29.2584906 C36.550289,29.5132075 36.3526012,29.8018868 36.0231214,29.8867925 C35.9572254,29.9037736 35.8913295,29.9037736 35.8254335,29.9037736 Z" id="Shape" fill="#000000"></path>
            </g>
            <g id="Group" transform="translate(39.098266, 0.000000)">
                <path d="M13.267052,2.86981132 C13.1791908,2.81886792 13.0693642,2.80188679 12.9595376,2.80188679 C12.8716763,2.80188679 12.783815,2.81886792 12.6959538,2.85283019 C12.6520231,2.86981132 7.90751445,4.61886792 0.966473988,4.61886792 L0.966473988,23.1113208 L12.9375723,23.1113208 C13.267052,23.1113208 13.5306358,22.9075472 13.5306358,22.6528302 L13.5745665,3.26037736 C13.5306358,3.10754717 13.4427746,2.95471698 13.267052,2.86981132 Z" id="Shape" fill="#A88194"></path>
                <path d="M13.5745665,2.47924528 C13.3768786,2.37735849 13.1572254,2.34339623 12.9375723,2.34339623 C12.7618497,2.34339623 12.5861272,2.37735849 12.4104046,2.44528302 C12.366474,2.46226415 7.70982659,4.16037736 0.922543353,4.16037736 L0.922543353,5.07735849 C8.10520231,5.07735849 12.9156069,3.26037736 12.9156069,3.26037736 L12.8716763,22.6528302 L0.922543353,22.6528302 C0.922543353,22.9924528 0.922543353,23.2981132 0.922543353,23.5698113 L12.8716763,23.5698113 C13.5306358,23.5698113 14.0578035,23.1622642 14.0578035,22.6528302 L14.1017341,3.26037736 C14.1456647,2.95471698 13.9260116,2.6490566 13.5745665,2.47924528 Z" id="Shape" fill="#3F2414"></path>
                <path d="M24.8647399,53.1849057 C21.2843931,40.2283019 16.4959538,36.5264151 16.4959538,32.8415094 C16.4959538,26.3716981 18.8901734,23.5867925 18.8901734,13.4150943 C18.8901734,12.4981132 21.2843931,5.09433962 21.2843931,5.09433962 C21.2843931,5.09433962 17.7040462,3.22641509 12.9156069,3.22641509 C12.9156069,3.22641509 11.7294798,11.5471698 0.944508671,11.5471698 L0.944508671,84.6169811 C6.91907514,84.6169811 5.73294798,83.7 8.12716763,83.7 C10.5213873,83.7 11.7075145,84.6169811 14.1017341,84.6169811 C16.4959538,84.6169811 16.5398844,83.7 18.8901734,83.7 C23.6786127,83.7 22.4705202,82.7830189 26.0728324,82.7830189 C30.8612717,82.7830189 28.467052,80.9320755 32.0473988,80.9320755 C34.4416185,80.9320755 35.6277457,79.0811321 35.6277457,79.0811321 C32.0473988,74.445283 28.467052,66.1245283 24.8647399,53.1849057 Z" id="Shape" fill="#E1ACC4"></path>
                <path d="M5.73294798,12.4811321 C12.9156069,12.4811321 16.4959538,6.01132075 16.4959538,6.01132075 C20.0763006,6.92830189 20.0763006,6.92830189 21.2843931,5.09433962 C19.7687861,4.60188679 15.3976879,3.22641509 12.9156069,3.22641509 C12.9156069,3.22641509 11.7294798,11.5471698 0.944508671,11.5471698 C0.658959538,11.5471698 0.41734104,11.5132075 0.153757225,11.5132075 C1.64739884,12.090566 3.47052023,12.4811321 5.73294798,12.4811321 Z" id="Shape" fill="#F4D2D5"></path>
                <path d="M7.51213873,83.6660377 C7.24855491,83.6660377 7.00693642,83.5132075 6.96300578,83.2924528 C6.26011561,78.8943396 5.95260116,69.0283019 5.84277457,61.5056604 C5.84277457,61.2679245 6.08439306,61.0811321 6.39190751,61.0811321 C6.69942197,61.0811321 6.94104046,61.2679245 6.94104046,61.5056604 C7.05086705,68.9943396 7.3583815,78.8433962 8.06127168,83.190566 C8.10520231,83.4283019 7.88554913,83.6320755 7.57803468,83.6660377 C7.57803468,83.6660377 7.55606936,83.6660377 7.51213873,83.6660377 Z" id="Shape" fill="#3F2414"></path>
                <path d="M19.9445087,83.6660377 C19.7028902,83.6660377 19.4612717,83.5301887 19.417341,83.3264151 C18.6265896,80.5584906 17.8797688,77.2811321 17.1768786,73.5792453 C17.132948,73.3415094 17.3526012,73.1377358 17.6381503,73.1037736 C17.9456647,73.0698113 18.2092486,73.2396226 18.2531792,73.4603774 C18.934104,77.1283019 19.6809249,80.3886792 20.4716763,83.1396226 C20.5375723,83.3603774 20.3618497,83.5981132 20.0543353,83.6490566 C20.0104046,83.6660377 19.9884393,83.6660377 19.9445087,83.6660377 Z" id="Shape" fill="#3F2414"></path>
                <path d="M12.7618497,83.6660377 C12.4982659,83.6660377 12.2566474,83.5132075 12.2127168,83.309434 C11.0265896,77.790566 11.0046243,69.4528302 11.0046243,69.3679245 C11.0046243,69.1301887 11.2462428,68.9433962 11.5537572,68.9433962 C11.8612717,68.9433962 12.1028902,69.1301887 12.1028902,69.3679245 C12.1028902,69.4528302 12.1248555,77.7226415 13.2890173,83.1735849 C13.332948,83.4113208 13.1352601,83.6320755 12.8277457,83.6660377 C12.8277457,83.6660377 12.783815,83.6660377 12.7618497,83.6660377 Z" id="Shape" fill="#3F2414"></path>
                <path d="M36.6601156,78.6056604 C33.0138728,73.9188679 29.4554913,65.2924528 26.0289017,52.9811321 C23.9641618,45.509434 21.5260116,41.145283 19.7687861,37.9698113 C18.516763,35.7113208 17.6820809,34.2339623 17.6820809,32.8245283 C17.6820809,30.0226415 18.1433526,27.9679245 18.6705202,25.5735849 C19.3294798,22.5509434 20.0763006,19.1377358 20.0763006,13.3981132 C20.0982659,12.8377358 21.2843931,8.83018868 22.4265896,5.29811321 C22.5583815,4.9245283 22.3606936,4.51698113 21.9213873,4.29622642 C21.7676301,4.21132075 17.9676301,2.29245283 12.8716763,2.29245283 C12.2566474,2.29245283 11.7514451,2.6490566 11.6855491,3.10754717 C11.6416185,3.41320755 10.4554913,10.6132075 0.900578035,10.6132075 L0.900578035,11.5471698 C11.6635838,11.5471698 12.8716763,3.22641509 12.8716763,3.22641509 C17.6601156,3.22641509 21.2404624,5.07735849 21.2404624,5.07735849 C21.2404624,5.07735849 18.8901734,12.4811321 18.8901734,13.3981132 C18.8901734,23.5698113 16.4959538,26.354717 16.4959538,32.8245283 C16.4959538,36.5264151 21.2843931,40.2283019 24.8647399,53.1679245 C28.4450867,66.1075472 32.0473988,74.445283 35.6277457,79.0641509 C35.6277457,79.0641509 34.4416185,80.9150943 32.0473988,80.9150943 C28.467052,80.9150943 30.8612717,82.7660377 26.0728324,82.7660377 C22.4924855,82.7660377 23.6786127,83.6830189 18.8901734,83.6830189 C16.5398844,83.6830189 16.4959538,84.6 14.1017341,84.6 C11.7075145,84.6 10.5213873,83.6830189 8.12716763,83.6830189 C5.73294798,83.6830189 5.73294798,84.6 0.944508671,84.6 L0.944508671,85.5169811 C3.95375723,85.5169811 5.22774566,85.1603774 6.26011561,84.8886792 C6.89710983,84.7188679 7.33641618,84.6 8.10520231,84.6 C9.11560694,84.6 9.86242775,84.7867925 10.7190751,85.0075472 C11.6416185,85.245283 12.6959538,85.5169811 14.0797688,85.5169811 C15.5514451,85.5169811 16.3641618,85.2113208 17.0231214,84.9566038 C17.5722543,84.7528302 17.9676301,84.6 18.8682081,84.6 C21.6578035,84.6 22.6462428,84.2943396 23.5248555,84.0226415 C24.1398844,83.8358491 24.6231214,83.6830189 26.0508671,83.6830189 C28.9722543,83.6830189 29.8508671,83.0207547 30.5537572,82.2735849 C30.8612717,81.9509434 30.9710983,81.8320755 32.0254335,81.8320755 C35.1225434,81.8320755 36.616185,79.5735849 36.6820809,79.4716981 C36.9017341,79.2169811 36.8797688,78.8773585 36.6601156,78.6056604 Z" id="Shape" fill="#3F2414"></path>
                <g transform="translate(0.878613, 30.056604)" id="Shape">
                    <path d="M16.8254335,0.458490566 L0.0658959538,0.458490566 L0.0658959538,5.07735849 L16.8254335,5.07735849 C17.1549133,5.07735849 17.4184971,4.87358491 17.4184971,4.61886792 L17.4184971,0.916981132 C17.4184971,0.662264151 17.1549133,0.458490566 16.8254335,0.458490566 Z" fill="#FAE7AA"></path>
                    <path d="M16.8254335,0 L0.0658959538,0 L0.0658959538,0.916981132 L16.8254335,0.916981132 L16.8254335,4.61886792 L0.0658959538,4.61886792 L0.0658959538,5.53584906 L16.8254335,5.53584906 C17.4843931,5.53584906 18.0115607,5.12830189 18.0115607,4.61886792 L18.0115607,0.916981132 C18.0115607,0.40754717 17.4843931,0 16.8254335,0 Z" fill="#3F2414"></path>
                </g>
                <g transform="translate(0.878613, 28.188679)" id="Shape">
                    <path d="M2.46011561,0.475471698 L0.0658959538,0.475471698 L0.0658959538,8.79622642 L2.46011561,8.79622642 C4.10751445,8.79622642 5.44739884,7.76037736 5.44739884,6.48679245 L5.44739884,2.78490566 C5.44739884,1.51132075 4.10751445,0.475471698 2.46011561,0.475471698 Z" fill="#FAE7AA"></path>
                    <path d="M2.46011561,0.0169811321 L0.0658959538,0.0169811321 L0.0658959538,0.933962264 L2.46011561,0.933962264 C3.77803468,0.933962264 4.85433526,1.76603774 4.85433526,2.78490566 L4.85433526,6.48679245 C4.85433526,7.50566038 3.77803468,8.33773585 2.46011561,8.33773585 L0.0658959538,8.33773585 L0.0658959538,9.25471698 L2.46011561,9.25471698 C4.43699422,9.25471698 6.04046243,8.01509434 6.04046243,6.48679245 L6.04046243,2.78490566 C6.04046243,1.25660377 4.43699422,0.0169811321 2.46011561,0.0169811321 Z" fill="#3F2414"></path>
                </g>
                <path d="M0.944508671,89.8981132 C0.571098266,89.8981132 0.285549133,89.6773585 0.285549133,89.3886792 L0.285549133,0.628301887 C0.285549133,0.339622642 0.571098266,0.118867925 0.944508671,0.118867925 C1.31791908,0.118867925 1.60346821,0.339622642 1.60346821,0.628301887 L1.60346821,89.3886792 C1.60346821,89.6773585 1.29595376,89.8981132 0.944508671,89.8981132 Z" id="Shape" fill="#CE2029"></path>
            </g>
        </g>
    </g>
</svg>