<?xml version="1.0" encoding="utf-8"?>
<!-- Generator: Adobe Illustrator 22.0.1, SVG Export Plug-In . SVG Version: 6.00 Build 0)  -->
<svg version="1.1" id="Слой_1" xmlns="http://www.w3.org/2000/svg" xmlns:xlink="http://www.w3.org/1999/xlink" x="0px" y="0px"
	 viewBox="0 0 90 90" style="enable-background:new 0 0 90 90;" xml:space="preserve">
<style type="text/css">
	.st0{fill:none;stroke:#AA9748;stroke-width:1.688;stroke-miterlimit:10;}
	.st1{fill:none;stroke:#AA9748;stroke-width:0.9646;stroke-miterlimit:10;}
	.st2{fill:#AA8396;}
	.st3{fill:#42210B;}
	.st4{fill:#E4AEC6;}
	.st5{fill:#F6D3D7;}
	.st6{fill:#FCEAAE;}
	.st7{fill:none;stroke:#42210B;stroke-width:0.8222;stroke-linecap:round;stroke-linejoin:round;stroke-miterlimit:10;}
	.st8{fill:#FFFFFF;}
	.st9{fill:none;stroke:#C1C1C1;stroke-width:0.8971;stroke-miterlimit:10;}
	.st10{fill:none;stroke:#5B5B5B;stroke-width:0.8971;stroke-miterlimit:10;}
	.st11{fill:#CAE5FF;}
	.st12{fill:#DCEFFF;}
	.st13{fill:#A3C6D1;}
	.st14{fill:none;stroke:#000000;stroke-width:0.4707;stroke-miterlimit:10;}
	.st15{fill:none;stroke:#000000;stroke-width:0.5883;stroke-miterlimit:10;}
	.st16{fill:#CD2027;}
	.st17{opacity:0.8;fill:#ABCAD8;}
	.st18{opacity:0.8;fill:#A3C6D1;}
	.st19{fill:none;stroke:#000000;stroke-width:0.6594;stroke-miterlimit:10;}
	.st20{fill:#F2C768;stroke:#000000;stroke-width:0.538;stroke-miterlimit:10;}
	.st21{fill:#F7D694;}
	.st22{fill:none;stroke:#000000;stroke-width:0.538;stroke-miterlimit:10;}
	.st23{fill:#BED8E7;}
	.st24{fill:#7EA2BC;}
	.st25{fill:none;stroke:#000000;stroke-width:0.5547;stroke-linecap:round;stroke-linejoin:round;stroke-miterlimit:10;}
	.st26{fill:#C8C9C2;}
	.st27{opacity:0.5;fill:url(#);}
	.st28{fill:#837F7B;}
	.st29{fill:none;stroke:#000000;stroke-width:0.5999;stroke-linecap:round;stroke-linejoin:round;stroke-miterlimit:10;}
	.st30{fill:#C9CAC3;}
	.st31{opacity:0.15;}
	.st32{fill:#847F7B;}
	.st33{fill:none;stroke:#000000;stroke-width:0.5597;stroke-linecap:round;stroke-linejoin:round;stroke-miterlimit:10;}
	.st34{opacity:0.1;}
	.st35{fill:none;stroke:#000000;stroke-width:0.5092;stroke-linecap:round;stroke-linejoin:round;stroke-miterlimit:10;}
	.st36{fill:none;stroke:#000000;stroke-width:0.3879;stroke-linecap:round;stroke-linejoin:round;stroke-miterlimit:10;}
	.st37{fill:#D8BF48;}
	.st38{fill:none;stroke:#000000;stroke-width:0.5749;stroke-miterlimit:10;}
	.st39{fill:#FCE34F;}
	.st40{fill:#E5CB4C;}
	.st41{fill:#55D89C;}
	.st42{fill:none;stroke:#266635;stroke-width:0.7685;stroke-miterlimit:10;}
	.st43{fill:none;stroke:#266635;stroke-width:0.7872;stroke-miterlimit:10;}
	.st44{fill:#C66D6D;}
	.st45{fill:none;stroke:#560000;stroke-width:0.9048;stroke-miterlimit:10;}
	.st46{fill:#E88787;}
	.st47{fill:#FFB6B6;}
	.st48{fill:#FFD2D2;}
	.st49{fill:#D0B18A;}
	.st50{fill:#DFC6A9;}
	.st51{fill:none;stroke:#000000;stroke-width:0.7604;stroke-linecap:round;stroke-linejoin:round;stroke-miterlimit:10;}
	.st52{fill:#EA5353;}
	.st53{fill:#AF3C3C;}
	.st54{fill:#CC3E3E;}
	.st55{fill:none;stroke:#000000;stroke-width:0.6963;stroke-linecap:round;stroke-linejoin:round;stroke-miterlimit:10;}
	.st56{fill:none;stroke:#000000;stroke-width:0.8055;stroke-linecap:round;stroke-linejoin:round;stroke-miterlimit:10;}
	.st57{fill:#466375;}
	.st58{fill:#5A7D9C;}
	.st59{fill:#688BA9;}
	.st60{fill:#C4C3C3;}
	.st61{fill:none;stroke:#000000;stroke-width:0.3587;stroke-linecap:round;stroke-linejoin:round;stroke-miterlimit:10;}
	.st62{fill:#CB9D5C;}
	.st63{fill:#4F372A;}
	.st64{fill:#926044;}
	.st65{opacity:0.2;fill:#FFFFFF;}
	.st66{fill:none;stroke:#000000;stroke-width:0.5272;stroke-linecap:round;stroke-linejoin:round;stroke-miterlimit:10;}
	.st67{fill:none;stroke:#000000;stroke-width:0.6063;stroke-linecap:round;stroke-linejoin:round;stroke-miterlimit:10;}
	.st68{fill:#54A6C3;}
	.st69{fill:none;stroke:#000000;stroke-width:0.7785;stroke-linecap:round;stroke-miterlimit:10;}
	.st70{fill:#CEE7CC;}
	.st71{fill:none;stroke:#94BB93;stroke-width:0.5403;stroke-miterlimit:10;}
	.st72{fill:#92BB98;}
	.st73{fill:none;stroke:#000000;stroke-width:0.6577;stroke-linecap:round;stroke-linejoin:round;stroke-miterlimit:10;}
</style>
<g>
	<path class="st0" d="M78,20C70.2,10.3,58.3,4.1,45,4.1C21.7,4.1,2.8,23,2.8,46.3c0,4.3,0.6,8.5,1.8,12.4"/>
	<path class="st0" d="M11.8,72.3c7.7,9.9,19.7,16.2,33.2,16.2c23.3,0,42.2-18.9,42.2-42.2c0-4.1-0.6-8.1-1.7-11.8"/>
	<path class="st1" d="M12.4,25.1c-4,6.1-6.3,13.4-6.3,21.3c0,1.9,0.1,3.8,0.4,5.7"/>
	<path class="st1" d="M30.4,10.3c-4.9,2-9.2,4.9-12.9,8.5"/>
	<path class="st1" d="M68.7,77.2c7.7-5.9,13.1-14.6,14.7-24.6c0.3-2,0.5-4.1,0.5-6.2"/>
	<path class="st1" d="M35.9,84.2c2.9,0.7,6,1.1,9.1,1.1c5.3,0,10.3-1,14.8-2.9"/>
	<path class="st1" d="M45,1.2c-15.6,0-29.3,7.9-37.5,19.9"/>
	<polyline class="st0" points="11.8,84.4 11.8,72.3 23.5,72.3 	"/>
	<polyline class="st0" points="78,7.4 78,19.6 66.6,19.6 	"/>
</g>
<g>
	<g>
		<g>
			<path class="st62" d="M35.6,15.8c-5,1-10.2,5-10.6,7.5s-1.8,7.6-2.5,11.9c-0.7,4.3-1.8,9-1.9,11.8c-0.1,2.8-1.1,16.1-1.3,24.9
				l7.3,0.3c0.2-5,1.2-20.9,1.7-23.3c0.5-2.4,1.3-6.9,2.8-12.4l-0.2,33.3c4,1.5,8.4,2.1,13.6,2.1l0.1-1.3l1.2,0.1v1.2
				c5.1,0,9.4-0.6,13.4-2.1l-0.2-33.3c1.5,5.5,2.3,10.1,2.8,12.4c0.5,2.4,1.5,18.3,1.7,23.3l7.3-0.3c-0.3-8.8-1.3-22.1-1.3-24.9
				c-0.1-2.8-1.2-7.5-1.9-11.8c-0.7-4.3-2.1-9.4-2.5-11.9s-5.6-6.4-10.6-7.5c0,0-2.8-4.2-3.2-4.7c-0.4-0.5-2.4-1-4.7-1
				c-2.3,0-6.2-0.1-7.8,1C37.2,12.3,35.6,15.8,35.6,15.8z"/>
			<path class="st63" d="M44.5,14.5C44.5,14.4,44.5,14.4,44.5,14.5c-5.3,0.2-5.3-0.2-5.1,1.6c0.2,1.8,3.2,12.6,4.1,15.5
				c0.9,3,1.4,3.1,1.4,3.1s0,0,0,0c0,0,0.1,0,0.1,0s0.4-0.2,1.4-3.1c0.9-3,3.9-13.7,4.1-15.5C50.9,13.8,49.6,14.7,44.5,14.5z"/>
			<path class="st64" d="M39.4,10.6c-0.7,0.6-0.7,4.1,0,4.2c0.7,0.1,4.3-0.4,5.9-0.4c1,0,4,0.6,5.3,0c0.7-0.3,0.3-1.3,0.3-1.9
				c0-1.4,0.3-1.9-1-2C48.6,10.3,41.4,10,39.4,10.6z"/>
			<path class="st64" d="M39.1,10.7c-1.6,2-5.5,8.7-6.2,10.1c2.1,0,5.1,0,5.1,0l-2,2.6l8.5,11.2c0,0-3.8-12-4.4-14.8
				S38.9,13,39.1,10.7z"/>
			<path class="st65" d="M39.4,15.8c-3.2,3.1-5,4.1-6.4,4.9c-1.4,0.8-4.3,0.2-5.5,5.8c-1.2,5.6-3.8,15.4-4,19.9S22.4,70,22.2,72
				c-1,0-2.9-0.1-2.9-0.1l0.6-11.4c0,0,0.8-14.3,1-15.5S25,23.3,25,23.3s1.2-2.3,2-3c0.8-0.7,5.5-4.1,8.9-4.8c0.5-1.4,3-4.5,3-4.5
				L39.4,15.8z"/>
			<path class="st64" d="M50.9,10.7c1.6,2,5.5,8.7,6.2,10.1c-2.1,0-5.1,0-5.1,0l2,2.6l-8.5,11.3c0,0,3.8-12.1,4.4-14.9
				S51.1,13,50.9,10.7z"/>
			<polygon class="st64" points="19.5,67.7 26.7,68 26.5,72.2 19.3,71.9 			"/>
			<polygon class="st64" points="70.4,67.7 63.2,68 63.4,72.2 70.6,71.9 			"/>
			<g>
				<g>
					<polygon class="st64" points="53.3,56.6 57.2,65.6 56,67.4 51.5,57.7 					"/>
					<polygon class="st64" points="36.7,56.6 32.8,65.6 34,67.4 38.5,57.7 					"/>
				</g>
			</g>
			<g>
				<g>
					<g>
						<line class="st66" x1="44.5" y1="63" x2="45.4" y2="63"/>
						<line class="st66" x1="44.5" y1="62" x2="45.4" y2="62"/>
						<line class="st66" x1="44.5" y1="60.9" x2="45.4" y2="60.9"/>
						<line class="st66" x1="44.5" y1="59.8" x2="45.4" y2="59.8"/>
						<line class="st66" x1="44.5" y1="58.7" x2="45.4" y2="58.7"/>
						<line class="st66" x1="44.5" y1="57.6" x2="45.4" y2="57.6"/>
						<line class="st66" x1="44.5" y1="56.5" x2="45.4" y2="56.5"/>
						<line class="st66" x1="44.5" y1="55.4" x2="45.4" y2="55.4"/>
						<line class="st66" x1="44.5" y1="54.3" x2="45.4" y2="54.3"/>
						<line class="st66" x1="44.5" y1="53.2" x2="45.4" y2="53.2"/>
						<line class="st66" x1="44.5" y1="52.2" x2="45.4" y2="52.2"/>
						<line class="st66" x1="44.5" y1="51.1" x2="45.4" y2="51.1"/>
						<line class="st66" x1="44.5" y1="50" x2="45.4" y2="50"/>
						<line class="st66" x1="44.5" y1="48.9" x2="45.4" y2="48.9"/>
						<line class="st66" x1="44.5" y1="47.8" x2="45.4" y2="47.8"/>
						<line class="st66" x1="44.5" y1="46.7" x2="45.4" y2="46.7"/>
						<line class="st66" x1="44.5" y1="45.6" x2="45.4" y2="45.6"/>
					</g>
					<line class="st66" x1="44.5" y1="44.5" x2="45.4" y2="44.5"/>
					<line class="st66" x1="44.5" y1="43.4" x2="45.4" y2="43.4"/>
					<line class="st66" x1="44.5" y1="42.3" x2="45.4" y2="42.3"/>
					<line class="st66" x1="44.5" y1="41.2" x2="45.4" y2="41.2"/>
					<line class="st66" x1="44.5" y1="40.2" x2="45.4" y2="40.2"/>
					<line class="st66" x1="44.5" y1="39.1" x2="45.4" y2="39.1"/>
					<line class="st66" x1="44.5" y1="38" x2="45.4" y2="38"/>
					<line class="st66" x1="44.5" y1="36.9" x2="45.4" y2="36.9"/>
					<rect x="44.3" y="34.3" width="1.5" height="2.5"/>
					<polygon points="44.7,35.5 43.6,38.4 46.3,38.4 45.2,35.5 					"/>
					<ellipse class="st62" cx="45" cy="37.4" rx="0.5" ry="0.7"/>
				</g>
				<g>
					<line class="st66" x1="44.5" y1="64.1" x2="45.4" y2="64.1"/>
				</g>
			</g>
			<g>
				<g>
					<g>
						<line class="st66" x1="45.5" y1="65.2" x2="44.5" y2="65.2"/>
						<line class="st66" x1="45.5" y1="66.3" x2="44.5" y2="66.3"/>
						<line class="st66" x1="45.5" y1="67.4" x2="44.5" y2="67.4"/>
						<line class="st66" x1="45.5" y1="68.5" x2="44.5" y2="68.5"/>
						<line class="st66" x1="45.5" y1="69.6" x2="44.5" y2="69.6"/>
						<polyline class="st66" points="44.5,71.9 44.5,70.7 45.7,70.7 						"/>
					</g>
				</g>
				<g>
					<line class="st66" x1="45.5" y1="64.1" x2="44.5" y2="64.1"/>
				</g>
			</g>
			<path class="st67" d="M39.1,10.7c-1.6,2-5.5,8.7-6.2,10.1c2.1,0,5.1,0,5.1,0l-2,2.6l8.5,11.2c0,0-3.8-12-4.4-14.8
				S38.9,13,39.1,10.7z"/>
			<path class="st67" d="M35.6,15.8c-5,1-10.2,5-10.6,7.5s-1.8,7.6-2.5,11.9c-0.7,4.3-1.8,9-1.9,11.8c-0.1,2.8-1.1,16.1-1.3,24.9
				l7.3,0.3c0.2-5,1.2-20.9,1.7-23.3c0.5-2.4,1.3-6.9,2.8-12.4l-0.2,33.3c4,1.5,8.4,2.1,13.6,2.1"/>
			<path class="st67" d="M50.9,10.7c1.6,2,5.5,8.7,6.2,10.1c-2.1,0-5.1,0-5.1,0l2,2.6l-8.5,11.3c0,0,3.8-12.1,4.4-14.9
				S51.1,13,50.9,10.7z"/>
			<path class="st67" d="M54.4,15.8c5,1,10.2,5,10.6,7.5s1.8,7.6,2.5,11.9c0.7,4.3,1.8,9,1.9,11.8c0.1,2.8,1.1,16.1,1.3,24.9
				l-7.3,0.3c-0.2-5-1.2-20.9-1.7-23.3c-0.5-2.4-1.3-6.9-2.8-12.4l0.2,33.3c-4,1.5-8.3,2.1-13.4,2.1v-1.2"/>
			<path class="st67" d="M39.1,10.7c2.3-0.7,9.5-0.6,11.8,0"/>
			<path class="st67" d="M50.6,14.7c-2.3-0.4-8.5-0.6-11.3,0.2"/>
			<g>
				<polygon class="st67" points="53.3,56.6 57.2,65.6 56,67.4 51.5,57.7 				"/>
				<polygon class="st67" points="36.7,56.6 32.8,65.6 34,67.4 38.5,57.7 				"/>
			</g>
			<line class="st67" x1="63.2" y1="68" x2="70.6" y2="67.7"/>
			<polygon class="st67" points="19.5,67.7 26.7,68 26.5,72.2 19.3,71.9 			"/>
			<path class="st34" d="M31.1,36.5c1.7,3.4,4.1,21.3,4.2,34.8c-2-0.9-4.4-1.5-4.4-1.5L31.1,36.5z"/>
			<path class="st65" d="M50.6,15.8c3.2,3.1,5,4.1,6.4,4.9c1.4,0.8,4.3,0.2,5.5,5.8c1.2,5.6,3.8,15.4,4,19.9
				c0.2,4.5,1.1,23.6,1.3,25.7c1,0,2.9-0.1,2.9-0.1l-0.6-11.4c0,0-0.8-14.3-1-15.5S65,23.3,65,23.3s-1.2-2.3-2-3s-5.5-4.1-8.9-4.8
				c-0.5-1.4-3-4.5-3-4.5L50.6,15.8z"/>
			<path class="st34" d="M58.9,36.5C57.2,39.9,55,57.7,55,71.1c2-0.9,4.1-1.3,4.1-1.3L58.9,36.5z"/>
		</g>
	</g>
	<g>
		<g>
			<polygon class="st68" points="42.8,74.3 46.5,74.3 61.1,44.7 66.3,44.7 66.3,42.4 52.2,42.4 52.2,44.7 57.5,44.7 45.9,68.2 
				43.1,62.6 50,49.1 54.1,49.1 54.1,46.7 39.3,46.7 39.3,49.1 43.5,49.1 39.9,56.3 34.1,44.7 38.4,44.7 38.4,42.4 23.5,42.4 
				23.5,44.7 27.6,44.7 36.8,62.6 29.5,77.1 25.9,77.1 25.9,79.5 60,79.5 64.3,70.2 57.2,77.1 35.6,77.1 40,68.7 			"/>
			<polygon class="st69" points="42.8,74.3 46.5,74.3 61.1,44.7 66.3,44.7 66.3,42.4 52.2,42.4 52.2,44.7 57.5,44.7 45.9,68.2 
				43.1,62.6 50,49.1 54.1,49.1 54.1,46.7 39.3,46.7 39.3,49.1 43.5,49.1 39.9,56.3 34.1,44.7 38.4,44.7 38.4,42.4 23.5,42.4 
				23.5,44.7 27.6,44.7 36.8,62.6 29.5,77.1 25.9,77.1 25.9,79.5 60,79.5 64.3,70.2 57.2,77.1 35.6,77.1 40,68.7 			"/>
		</g>
	</g>
</g>
</svg>
