<?xml version="1.0" encoding="utf-8"?>
<!-- Generator: Adobe Illustrator 22.0.1, SVG Export Plug-In . SVG Version: 6.00 Build 0)  -->
<svg version="1.1" id="Слой_1" xmlns="http://www.w3.org/2000/svg" xmlns:xlink="http://www.w3.org/1999/xlink" x="0px" y="0px"
	 viewBox="0 0 90 90" style="enable-background:new 0 0 90 90;" xml:space="preserve">
<style type="text/css">
	.st0{fill:#C2F2F1;}
	.st1{fill:#E1FFFF;}
	.st2{fill:#DBBB83;}
	.st3{fill:none;stroke:#231F20;stroke-width:1.3391;stroke-miterlimit:10;}
	.st4{fill:#231F20;}
	.st5{fill:none;stroke:#231F20;stroke-width:1.3168;stroke-miterlimit:10;}
</style>
<polygon class="st0" points="32.6,2.3 15.4,19.3 16.3,19.5 32.8,19.5 "/>
<polygon class="st1" points="32.8,2.4 72.4,2.4 72.4,88 15.6,88 15.6,19.5 32.8,19.5 "/>
<g>
	<path class="st2" d="M46.2,10.1c-3.2,0.7-6.5,3.2-6.8,4.8s-1.1,4.8-1.6,7.6c-0.5,2.8-1.2,5.7-1.2,7.6c0,1.8-0.7,10.3-0.9,16
		l4.7,0.2c0.1-3.2,0.8-13.4,1.1-14.9c0.3-1.5,0.6-8,1.8-8l-0.1,21.3c2.6,1,5.4,1.4,8.7,1.4h0.8c3.3,0,6-0.4,8.6-1.4l-0.1-21.3
		c0.7,0,1.5,6.4,1.8,8c0.3,1.5,1,11.7,1.1,14.9l4.7-0.2c-0.2-5.6-0.8-14.1-0.9-16c0-1.8-0.8-4.8-1.2-7.6s-1.3-6-1.6-7.6
		c-0.3-1.6-3.6-4.1-6.8-4.8L56,6.8c-1.4-0.4-6.1-0.5-7.5,0L46.2,10.1z"/>
</g>
<g>
	<path class="st3" d="M48.5,6.8c-1.1,1.3-3.5,5.6-3.9,6.5h3.3l-2.6,3l6.7,5.8c0,0,0,0,0,0c-0.2-0.7-2.4-7.7-2.8-9.4
		C48.7,10.8,48.4,8.3,48.5,6.8C48.5,6.8,48.5,6.8,48.5,6.8z"/>
	<path class="st3" d="M46.2,10.1c-3.2,0.7-6.5,3.2-6.8,4.8s-1.1,4.8-1.6,7.6s-1.2,5.7-1.2,7.6c0,1.8-0.7,10.3-0.9,16l4.7,0.2
		c0.1-3.2,0.8-13.4,1.1-14.9s0.6-8,1.8-8l-0.1,21.3c2.6,1,5.4,1.4,8.7,1.4"/>
	<path class="st3" d="M56,6.8c1.1,1.4,3.5,5.6,3.9,6.5h-3.3l2.6,3l-6.7,5.8c0,0-0.1,0-0.1,0c0.3-1.1,2.4-7.8,2.8-9.4
		C55.8,10.9,56.1,8.3,56,6.8C56,6.8,56,6.8,56,6.8z"/>
	<path class="st3" d="M58.3,10.1c3.2,0.7,6.5,3.2,6.8,4.8s1.1,4.8,1.6,7.6s1.2,5.7,1.2,7.6c0,1.8,0.7,10.3,0.9,16l-4.7,0.2
		C64,43,63.3,32.8,63,31.3s-1.1-8-1.8-8l0.1,21.3c-2.6,1-5.3,1.4-8.6,1.4"/>
	<path class="st3" d="M48.5,6.8c1.4-0.5,6.1-0.4,7.5,0"/>
	<path class="st3" d="M55.9,9.4c-1.5-0.2-5.5-0.4-7.2,0.1"/>
	<g>
		<line class="st3" x1="59.3" y1="43.1" x2="56.4" y2="36.9"/>
		<line class="st3" x1="45.2" y1="43.1" x2="48.1" y2="36.9"/>
	</g>
	<line class="st3" x1="63.9" y1="43.5" x2="68.6" y2="43.3"/>
	<polygon class="st3" points="35.9,43.3 40.6,43.5 40.4,46.2 35.8,46 	"/>
	<polygon class="st4" points="50.7,25.7 53.9,25.7 52.3,21.2 	"/>
	<line class="st3" x1="52.3" y1="25" x2="52.3" y2="46.2"/>
</g>
<polygon class="st5" points="32.8,2.4 72.4,2.4 72.4,88 15.6,88 15.6,19.5 32.8,19.5 "/>
<line class="st5" x1="15.4" y1="19.3" x2="32.6" y2="2.3"/>
<line class="st5" x1="21.4" y1="55.3" x2="48.6" y2="55.3"/>
<line class="st5" x1="59.6" y1="55.3" x2="65.8" y2="55.3"/>
<line class="st5" x1="21.4" y1="63.1" x2="48.6" y2="63.1"/>
<line class="st5" x1="59.6" y1="63.1" x2="65.8" y2="63.1"/>
<line class="st5" x1="21.4" y1="70.9" x2="48.6" y2="70.9"/>
<line class="st5" x1="59.6" y1="70.9" x2="65.8" y2="70.9"/>
<line class="st5" x1="21.4" y1="78.8" x2="48.6" y2="78.8"/>
<line class="st5" x1="59.6" y1="78.8" x2="65.8" y2="78.8"/>
</svg>
