<?xml version="1.0" encoding="UTF-8"?>
<svg width="90px" height="90px" viewBox="0 0 90 90" version="1.1" xmlns="http://www.w3.org/2000/svg" xmlns:xlink="http://www.w3.org/1999/xlink">
    <!-- Generator: Sketch 51.2 (57519) - http://www.bohemiancoding.com/sketch -->
    <title>Slice 1</title>
    <desc>Created with Sketch.</desc>
    <defs></defs>
    <g id="Page-1" stroke="none" stroke-width="1" fill="none" fill-rule="evenodd">
        <g id="Ремонт_Пуховик" transform="translate(0.000000, 4.000000)" fill-rule="nonzero">
            <path d="M81.2898032,46.5043307 C77.216458,40.6448819 69.7781753,38.9015748 59.7960644,41.484252 L59.4418605,40.0799213 C65.0125224,38.6433071 69.8747764,38.4980315 73.8998211,39.6440945 C77.5223614,40.6610236 80.4042934,42.6948819 82.4812165,45.6811024 L81.2898032,46.5043307 Z" id="Shape" fill="#CD2027"></path>
            <path d="M79.647585,74.5102362 L78.6654741,73.4448819 C78.9552773,73.1704724 79.2450805,72.8799213 79.5187835,72.5732283 C83.5599284,68.0858268 85.4436494,59.5145669 83.9141324,52.6543307 L85.3309481,52.3314961 C86.9892665,59.7405512 85.0089445,68.6507874 80.5974955,73.5417323 C80.2915921,73.8968504 79.9695886,74.219685 79.647585,74.5102362 Z" id="Shape" fill="#CD2027"></path>
            <path d="M19.1753131,81.9354331 C14.5223614,81.9354331 11.8336315,79.5787402 10.529517,77.9161417 C7.5509839,74.1551181 7.13237925,68.3602362 9.49910555,63.8405512 C11.2057245,60.5799213 14.8926655,58.061811 18.8050089,55.3822835 C24.7298748,51.3307087 30.8479428,47.1338583 31.0411449,39.9507874 C31.234347,32.3318898 25.3738819,29.6362205 19.7227191,27.0374016 C16.4865832,25.5523622 13.4436494,24.1480315 11.431127,21.888189 C8.45259392,18.5629921 7.92128801,13.2685039 10.0948122,8.73267717 C11.9946333,4.77795276 15.4722719,2.53425197 19.4168157,2.76023622 C23.5545617,2.98622047 25.7924866,5.89173228 28.1753131,8.97480315 C31.2182469,12.9133858 34.6636852,17.3685039 42.9713775,18.4177165 C52.4221825,19.6122047 55.4490161,17.723622 59.6189624,15.0925197 C62.0661896,13.5590551 64.8354204,11.815748 69.391771,10.3791339 C76.7978533,8.03858268 81.0483005,9.39448819 83.2862254,10.9602362 C85.7012522,12.6389764 87.1985689,15.4799213 87.391771,18.7889764 C87.568873,21.9688976 85.137746,25.4716535 81.5957066,27.1019685 C77.4418605,29.0066929 72.90161,28.0220472 69.1019678,24.357874 L70.1001789,23.3086614 C73.4329159,26.5208661 77.4096601,27.4248031 80.9838998,25.7783465 C83.9624329,24.4062992 86.0876565,21.4362205 85.9427549,18.869685 C85.8461538,17.1909449 85.2665474,14.107874 82.4651163,12.1547244 C79.6153846,10.1854331 75.2522361,10.0562992 69.8264758,11.7673228 C65.4472272,13.1555118 62.7584973,14.8503937 60.391771,16.3354331 C56.1252236,19.0149606 52.7602862,21.1295276 42.7942755,19.8704724 C33.8908766,18.7405512 30.0912343,13.8173228 27.0322004,9.87874016 C24.6654741,6.82795276 22.8139535,4.42283465 19.3363148,4.22913386 C16.0035778,4.0515748 13.0411449,5.97244094 11.4150268,9.37834646 C9.51520572,13.3330709 9.96601073,18.0787402 12.5259392,20.9358268 C14.3291592,22.969685 17.2593918,24.3094488 20.3506261,25.7299213 C26.1627907,28.4094488 32.7477639,31.4279528 32.5223614,39.9992126 C32.313059,47.9248031 25.5992844,52.5251969 19.6583184,56.5929134 C15.9069767,59.1594488 12.3649374,61.5968504 10.8193202,64.5346457 C8.71019678,68.5700787 9.08050089,73.7031496 11.7048301,77.0283465 C14.2003578,80.1759843 18.2415027,81.2251969 23.0715564,79.95 L23.4418605,81.3543307 C21.8479428,81.757874 20.4472272,81.9354331 19.1753131,81.9354331 Z" id="Shape" fill="#CD2027"></path>
            <g id="Group" transform="translate(18.515206, 0.000000)">
                <rect id="Rectangle-path" fill="#344851" x="50.0876565" y="75.4948819" width="7.66368515" height="4.08385827"></rect>
                <rect id="Rectangle-path" fill="#344851" x="1.57781753" y="75.4948819" width="7.66368515" height="4.08385827"></rect>
                <path d="M58.7495528,58.9011811 C58.7495528,54.203937 58.4597496,49.1515748 58.1538462,44.9547244 C57.8318426,40.757874 57.236136,36.6417323 56.431127,34.1074803 C55.6261181,31.5893701 55.6744186,27.4409449 52.7602862,23.3893701 C49.8461538,19.3377953 45.9499106,18.030315 44.2754919,17.3846457 C42.6010733,16.7551181 41.9570662,16.6582677 41.6350626,15.7866142 C43.0035778,11.815748 42.1663685,8.10314961 41.490161,5.89173228 C40.7978533,3.68031496 36.4991055,0.613385827 30.0429338,0.613385827 L30.0429338,0.629527559 C23.7155635,0.726377953 18.5957066,3.72874016 17.9194991,5.89173228 C17.2271914,8.10314961 16.3899821,11.815748 17.7745975,15.7866142 C17.4525939,16.6582677 16.8085868,16.7551181 15.1341682,17.3846457 C13.4597496,18.0141732 9.56350626,19.3377953 6.64937388,23.3893701 C3.7352415,27.4409449 3.79964222,31.5893701 2.97853309,34.1074803 C2.17352415,36.6255906 1.56171735,40.7417323 1.25581395,44.9547244 C0.933810376,49.1515748 0.660107335,54.2200787 0.660107335,58.9011811 C0.660107335,63.5822835 0.885509839,66.4232283 0.821109123,69.0059055 C0.756708408,71.5885827 0.595706619,74.6555118 1.59391771,75.6885827 C4.02504472,75.4948819 8.91949911,75.3496063 10.1270125,74.9299213 C10.3363148,72.3149606 10.1270125,64.7767717 10.2075134,63.5015748 C10.2880143,62.2425197 10.6905188,55.4307087 11.0769231,52.2992126 C11.4472272,49.1677165 12.509839,42.8240157 13.4597496,42.388189 C13.4597496,44.5350394 13.9910555,46.9562992 13.6207513,50.3783465 C13.4597496,54.4299213 14.2647585,57.7228346 13.5563506,59.4822835 C13.4597496,63.1141732 14.5062612,67.9889764 13.4758497,69.9098425 C13.4758497,74.1389764 12.9123435,78.4326772 14.6994633,78.6586614 C16.4865832,78.9007874 27.7567084,78.6586614 27.7567084,78.6586614 L29.4472272,78.2551181 L31.6851521,78.6586614 C31.6851521,78.6586614 42.9552773,78.9007874 44.7423971,78.6586614 C46.529517,78.4165354 45.9660107,74.1228346 45.9660107,69.9098425 C44.9355993,67.9889764 45.9982111,63.1141732 45.8855098,59.4822835 C45.177102,57.7228346 45.9821109,54.4299213 45.8211091,50.3783465 C45.450805,46.9562992 45.9821109,44.5350394 45.9821109,42.388189 C46.9159213,42.8240157 47.9946333,49.1677165 48.3649374,52.2992126 C48.7352415,55.4307087 49.1538462,62.2425197 49.234347,63.5015748 C49.3148479,64.7606299 49.1055456,72.2988189 49.3148479,74.9299213 C50.5223614,75.365748 55.4168157,75.4948819 57.8479428,75.6885827 C58.8461538,74.6555118 58.6851521,71.5885827 58.6207513,69.0059055 C58.5241503,66.4232283 58.7495528,63.5984252 58.7495528,58.9011811 Z" id="Shape" fill="#5F7C8E"></path>
                <path d="M27.9177102,12.8003937 C23.6028623,11.9610236 19.8193202,9.57204724 20.2701252,6.23070866 C22.7012522,3.68031496 25.3899821,3.30905512 27.1932021,2.90551181 C28.9964222,2.5019685 34.1001789,3.35748031 35.1949911,3.85787402 C36.2898032,4.35826772 39.6386404,6.34370079 38.4150268,8.86181102 C37.1914132,11.3799213 31.2665474,13.5913386 27.9177102,12.8003937 Z" id="Shape" fill="#344851"></path>
                <g opacity="0.2" transform="translate(0.483005, 1.291339)" fill="#FFFFFF" id="Shape">
                    <path d="M18.3381038,8.58740157 C17.549195,4.03543307 20.6726297,0.839370079 23.667263,0 C20.6726297,0.56496063 18.3703041,3.11535433 17.4042934,4.6488189 C16.4382826,6.18228346 16.2772809,11.5090551 16.9695886,13.4622047 C17.3559928,14.5759843 18,15.076378 19.078712,15.4314961 L16.4221825,15.4314961 L12.960644,16.6582677 L8.85509839,18.8051181 L9.14490161,20.5807087 C8.72629696,19.2732283 7.50268336,20.1448819 6.26296959,21.5976378 C5.02325581,23.0665354 2.57602862,29.7169291 2.54382826,30.6692913 C2.52772809,31.2181102 2.78533095,31.6862205 3.38103757,32.0090551 C2.76923077,32.1704724 2.51162791,33.1228346 2.18962433,33.8976378 C1.7549195,34.8984252 0.901610018,40.1444882 0.982110912,41.3712598 C1.01431127,42.0169291 1.11091234,42.5011811 1.4490161,42.807874 C0.901610018,43.3082677 0.499105546,44.9870079 0.273703041,45.7295276 C0.0161001789,46.5850394 0.273703041,50.9271654 0.273703041,52.5897638 C0.273703041,53.5098425 0.563506261,54.026378 1.09481216,54.2685039 C0.660107335,54.3492126 0.370304114,54.6074803 0.241502683,55.1401575 C-0.0161001789,56.2055118 0.418604651,60.8704724 0.257602862,62.3070866 C0.161001789,63.1141732 0.466905188,63.5661417 1.03041145,63.7598425 C0.644007156,63.8566929 0.370304114,64.1472441 0.241502683,64.696063 C-0.0161001789,65.8582677 0.418604651,70.9429134 0.257602862,72.4925197 C0.0966010733,74.0582677 1.19141324,74.3972441 2.72093023,74.1066929 C2.07692308,73.8484252 2.07692308,70.4425197 2.07692308,68.9574803 C2.07692308,67.4724409 2.07692308,64.8897638 2.80143113,64.0181102 C2.60822898,63.9535433 2.43112701,63.8889764 2.27012522,63.8405512 C2.41502683,63.8244094 2.57602862,63.8082677 2.73703041,63.7759843 C2.09302326,63.5338583 2.09302326,60.0311024 2.09302326,58.6751969 C2.09302326,57.3192913 2.09302326,55.3177165 2.81753131,54.5267717 C2.72093023,54.4944882 2.62432916,54.4622047 2.52772809,54.4299213 C2.62432916,54.4299213 2.72093023,54.4137795 2.81753131,54.3976378 C1.43291592,53.4614173 2.07692308,48.8125984 2.18962433,47.4082677 C2.2862254,46.0200787 2.78533095,43.5826772 3.67084079,43.4374016 C3.67084079,43.4374016 3.41323792,43.2598425 3.07513417,43.0661417 C2.41502683,42.0976378 3.02683363,39.1437008 3.44543828,37.0775591 C3.88014311,34.9468504 4.13774597,32.9775591 5.50626118,32.7515748 C5.50626118,32.7515748 5.31305903,32.6870079 4.6529517,32.380315 C4.84615385,32.4125984 5.05545617,32.4287402 5.28085868,32.4448819 C4.57245081,31.7669291 5.63506261,28.6677165 6.50447227,26.3755906 C7.37388193,24.0834646 8.40429338,22.5822835 10.0304114,22.6307087 C10.0304114,22.6307087 10.0304114,22.6307087 10.0304114,22.6145669 C10.2719141,22.969685 10.5617174,23.3570866 10.9642218,23.7606299 C10.2719141,22.2271654 10.7227191,21.0811024 11.8980322,19.6444882 C13.0733453,18.207874 16.647585,16.7228346 21.509839,16.0933071 L19.9642218,15.6574803 C20.608229,15.8027559 21.3649374,15.9480315 22.2665474,16.1255906 C20.9302326,15.3830709 19.1431127,13.1555118 18.3381038,8.58740157 Z"></path>
                </g>
                <rect id="Rectangle-path" fill="#344851" x="28.1592129" y="11.4767717" width="3.04293381" height="11.4122047"></rect>
                <g opacity="0.2" transform="translate(35.098390, 1.291339)" fill="#FFFFFF" id="Shape">
                    <path d="M5.42576029,8.58740157 C6.21466905,4.01929134 3.09123435,0.839370079 0.0966010733,0 C3.09123435,0.56496063 5.39355993,3.11535433 6.35957066,4.6488189 C7.3255814,6.18228346 7.48658318,11.5090551 6.79427549,13.4622047 C6.4078712,14.5759843 5.76386404,15.076378 4.68515206,15.4314961 L7.34168157,15.4314961 L10.80322,16.6582677 L14.9087657,18.8051181 L14.6189624,20.5807087 C15.0375671,19.2732283 16.2611807,20.1448819 17.5008945,21.5976378 C18.7406082,23.0665354 21.1878354,29.7169291 21.2200358,30.6692913 C21.236136,31.2181102 20.9785331,31.6862205 20.3828265,32.0090551 C20.9946333,32.1704724 21.2522361,33.1228346 21.5742397,33.8976378 C22.0089445,34.8984252 22.862254,40.1444882 22.7817531,41.3712598 C22.7495528,42.0169291 22.6529517,42.5011811 22.3148479,42.807874 C22.862254,43.3082677 23.2647585,44.9870079 23.490161,45.7295276 C23.7477639,46.5850394 23.490161,50.9271654 23.490161,52.5897638 C23.490161,53.5098425 23.2003578,54.026378 22.6690519,54.2685039 C23.1037567,54.3492126 23.3935599,54.6074803 23.5223614,55.1401575 C23.7799642,56.2055118 23.3452594,60.8704724 23.5062612,62.3070866 C23.6028623,63.1141732 23.2969589,63.5661417 22.7334526,63.7598425 C23.1198569,63.8566929 23.3935599,64.1472441 23.5223614,64.696063 C23.7799642,65.8582677 23.3452594,70.9429134 23.5062612,72.4925197 C23.667263,74.0582677 22.5724508,74.3972441 21.0429338,74.1066929 C21.686941,73.8484252 21.686941,70.4425197 21.686941,68.9574803 C21.686941,67.4724409 21.686941,64.8897638 20.9624329,64.0181102 C21.1556351,63.9535433 21.332737,63.8889764 21.4937388,63.8405512 C21.3488372,63.8244094 21.1878354,63.8082677 21.0268336,63.7759843 C21.6708408,63.5338583 21.6708408,60.0311024 21.6708408,58.6751969 C21.6708408,57.3192913 21.6708408,55.3177165 20.9463327,54.5267717 C21.0429338,54.4944882 21.1395349,54.4622047 21.236136,54.4299213 C21.1395349,54.4299213 21.0429338,54.4137795 20.9463327,54.3976378 C22.3309481,53.4614173 21.686941,48.8125984 21.5742397,47.4082677 C21.4615385,46.003937 20.9785331,43.5826772 20.0930233,43.4374016 C20.0930233,43.4374016 20.3506261,43.2598425 20.6887299,43.0661417 C21.3488372,42.0976378 20.7370304,39.1437008 20.3184258,37.0775591 C19.8837209,34.9468504 19.6261181,32.9775591 18.2576029,32.7515748 C18.2576029,32.7515748 18.450805,32.6870079 19.1109123,32.380315 C18.9177102,32.4125984 18.7084079,32.4287402 18.4830054,32.4448819 C19.1914132,31.7669291 18.1288014,28.6677165 17.2593918,26.3755906 C16.3899821,24.0834646 15.3595707,22.5822835 13.7334526,22.6307087 C13.7334526,22.6307087 13.7334526,22.6307087 13.7334526,22.6145669 C13.4919499,22.969685 13.2021467,23.3570866 12.7996422,23.7606299 C13.4919499,22.2271654 13.0411449,21.0811024 11.8658318,19.6444882 C10.6905188,18.207874 7.11627907,16.7228346 2.25402504,16.0933071 L3.75134168,15.6251969 C3.10733453,15.7704724 2.35062612,15.915748 1.4490161,16.0933071 C2.83363148,15.3830709 4.63685152,13.1555118 5.42576029,8.58740157 Z"></path>
                </g>
                <g transform="translate(27.048301, 13.074803)">
                    <g>
                        <g transform="translate(1.449016, 23.244094)" fill="#000000" id="Shape">
                            <path d="M1.83542039,22.1948819 L0.450805009,22.1948819 C0.257602862,22.1948819 0.0966010733,22.0334646 0.0966010733,21.8397638 C0.0966010733,21.646063 0.257602862,21.4846457 0.450805009,21.4846457 L1.83542039,21.4846457 C2.02862254,21.4846457 2.18962433,21.646063 2.18962433,21.8397638 C2.18962433,22.0334646 2.02862254,22.1948819 1.83542039,22.1948819 Z"></path>
                            <path d="M1.83542039,20.8712598 L0.450805009,20.8712598 C0.257602862,20.8712598 0.0966010733,20.7098425 0.0966010733,20.5161417 C0.0966010733,20.3224409 0.257602862,20.1610236 0.450805009,20.1610236 L1.83542039,20.1610236 C2.02862254,20.1610236 2.18962433,20.3224409 2.18962433,20.5161417 C2.18962433,20.7098425 2.02862254,20.8712598 1.83542039,20.8712598 Z"></path>
                            <path d="M1.83542039,19.5314961 L0.450805009,19.5314961 C0.257602862,19.5314961 0.0966010733,19.3700787 0.0966010733,19.176378 C0.0966010733,18.9826772 0.257602862,18.8212598 0.450805009,18.8212598 L1.83542039,18.8212598 C2.02862254,18.8212598 2.18962433,18.9826772 2.18962433,19.176378 C2.18962433,19.3700787 2.02862254,19.5314961 1.83542039,19.5314961 Z"></path>
                            <path d="M1.83542039,18.1917323 L0.450805009,18.1917323 C0.257602862,18.1917323 0.0966010733,18.030315 0.0966010733,17.8366142 C0.0966010733,17.6429134 0.257602862,17.4814961 0.450805009,17.4814961 L1.83542039,17.4814961 C2.02862254,17.4814961 2.18962433,17.6429134 2.18962433,17.8366142 C2.18962433,18.030315 2.02862254,18.1917323 1.83542039,18.1917323 Z"></path>
                            <path d="M1.83542039,16.8519685 L0.450805009,16.8519685 C0.257602862,16.8519685 0.0966010733,16.6905512 0.0966010733,16.4968504 C0.0966010733,16.3031496 0.257602862,16.1417323 0.450805009,16.1417323 L1.83542039,16.1417323 C2.02862254,16.1417323 2.18962433,16.3031496 2.18962433,16.4968504 C2.18962433,16.6905512 2.02862254,16.8519685 1.83542039,16.8519685 Z"></path>
                            <path d="M1.83542039,15.5283465 L0.450805009,15.5283465 C0.257602862,15.5283465 0.0966010733,15.3669291 0.0966010733,15.1732283 C0.0966010733,14.9795276 0.257602862,14.8181102 0.450805009,14.8181102 L1.83542039,14.8181102 C2.02862254,14.8181102 2.18962433,14.9795276 2.18962433,15.1732283 C2.18962433,15.3669291 2.02862254,15.5283465 1.83542039,15.5283465 Z"></path>
                            <path d="M1.83542039,14.1885827 L0.450805009,14.1885827 C0.257602862,14.1885827 0.0966010733,14.0271654 0.0966010733,13.8334646 C0.0966010733,13.6397638 0.257602862,13.4783465 0.450805009,13.4783465 L1.83542039,13.4783465 C2.02862254,13.4783465 2.18962433,13.6397638 2.18962433,13.8334646 C2.18962433,14.0271654 2.02862254,14.1885827 1.83542039,14.1885827 Z"></path>
                            <path d="M1.83542039,12.8326772 L0.450805009,12.8326772 C0.257602862,12.8326772 0.0966010733,12.6712598 0.0966010733,12.4775591 C0.0966010733,12.2838583 0.257602862,12.1224409 0.450805009,12.1224409 L1.83542039,12.1224409 C2.02862254,12.1224409 2.18962433,12.2838583 2.18962433,12.4775591 C2.18962433,12.6712598 2.02862254,12.8326772 1.83542039,12.8326772 Z"></path>
                            <path d="M1.83542039,11.5090551 L0.450805009,11.5090551 C0.257602862,11.5090551 0.0966010733,11.3476378 0.0966010733,11.153937 C0.0966010733,10.9602362 0.257602862,10.7988189 0.450805009,10.7988189 L1.83542039,10.7988189 C2.02862254,10.7988189 2.18962433,10.9602362 2.18962433,11.153937 C2.18962433,11.3476378 2.02862254,11.5090551 1.83542039,11.5090551 Z"></path>
                            <path d="M1.83542039,10.1692913 L0.450805009,10.1692913 C0.257602862,10.1692913 0.0966010733,10.007874 0.0966010733,9.81417323 C0.0966010733,9.62047244 0.257602862,9.45905512 0.450805009,9.45905512 L1.83542039,9.45905512 C2.02862254,9.45905512 2.18962433,9.62047244 2.18962433,9.81417323 C2.18962433,10.007874 2.02862254,10.1692913 1.83542039,10.1692913 Z"></path>
                            <path d="M1.83542039,8.84566929 L0.450805009,8.84566929 C0.257602862,8.84566929 0.0966010733,8.68425197 0.0966010733,8.49055118 C0.0966010733,8.29685039 0.257602862,8.13543307 0.450805009,8.13543307 L1.83542039,8.13543307 C2.02862254,8.13543307 2.18962433,8.29685039 2.18962433,8.49055118 C2.18962433,8.68425197 2.02862254,8.84566929 1.83542039,8.84566929 Z"></path>
                            <path d="M1.83542039,7.48976378 L0.450805009,7.48976378 C0.257602862,7.48976378 0.0966010733,7.32834646 0.0966010733,7.13464567 C0.0966010733,6.94094488 0.257602862,6.77952756 0.450805009,6.77952756 L1.83542039,6.77952756 C2.02862254,6.77952756 2.18962433,6.94094488 2.18962433,7.13464567 C2.18962433,7.32834646 2.02862254,7.48976378 1.83542039,7.48976378 Z"></path>
                            <path d="M1.83542039,6.16614173 L0.450805009,6.16614173 C0.257602862,6.16614173 0.0966010733,6.00472441 0.0966010733,5.81102362 C0.0966010733,5.61732283 0.257602862,5.45590551 0.450805009,5.45590551 L1.83542039,5.45590551 C2.02862254,5.45590551 2.18962433,5.61732283 2.18962433,5.81102362 C2.18962433,6.00472441 2.02862254,6.16614173 1.83542039,6.16614173 Z"></path>
                            <path d="M1.83542039,4.82637795 L0.450805009,4.82637795 C0.257602862,4.82637795 0.0966010733,4.66496063 0.0966010733,4.47125984 C0.0966010733,4.27755906 0.257602862,4.11614173 0.450805009,4.11614173 L1.83542039,4.11614173 C2.02862254,4.11614173 2.18962433,4.27755906 2.18962433,4.47125984 C2.18962433,4.66496063 2.02862254,4.82637795 1.83542039,4.82637795 Z"></path>
                            <path d="M1.83542039,3.50275591 L0.450805009,3.50275591 C0.257602862,3.50275591 0.0966010733,3.34133858 0.0966010733,3.1476378 C0.0966010733,2.95393701 0.257602862,2.79251969 0.450805009,2.79251969 L1.83542039,2.79251969 C2.02862254,2.79251969 2.18962433,2.95393701 2.18962433,3.1476378 C2.18962433,3.34133858 2.02862254,3.50275591 1.83542039,3.50275591 Z"></path>
                            <path d="M1.83542039,2.14685039 L0.450805009,2.14685039 C0.257602862,2.14685039 0.0966010733,1.98543307 0.0966010733,1.79173228 C0.0966010733,1.5980315 0.257602862,1.43661417 0.450805009,1.43661417 L1.83542039,1.43661417 C2.02862254,1.43661417 2.18962433,1.5980315 2.18962433,1.79173228 C2.18962433,1.98543307 2.02862254,2.14685039 1.83542039,2.14685039 Z"></path>
                            <path d="M1.83542039,0.807086614 L0.450805009,0.807086614 C0.257602862,0.807086614 0.0966010733,0.645669291 0.0966010733,0.451968504 C0.0966010733,0.258267717 0.257602862,0.0968503937 0.450805009,0.0968503937 L1.83542039,0.0968503937 C2.02862254,0.0968503937 2.18962433,0.258267717 2.18962433,0.451968504 C2.18962433,0.645669291 2.02862254,0.807086614 1.83542039,0.807086614 Z"></path>
                        </g>
                        <path d="M3.28443649,22.7275591 L1.89982111,22.7275591 C1.70661896,22.7275591 1.54561717,22.5661417 1.54561717,22.3724409 C1.54561717,22.1787402 1.70661896,22.0173228 1.89982111,22.0173228 L3.28443649,22.0173228 C3.47763864,22.0173228 3.63864043,22.1787402 3.63864043,22.3724409 C3.63864043,22.5661417 3.47763864,22.7275591 3.28443649,22.7275591 Z" id="Shape" fill="#000000"></path>
                        <path d="M3.28443649,21.3877953 L1.89982111,21.3877953 C1.70661896,21.3877953 1.54561717,21.226378 1.54561717,21.0326772 C1.54561717,20.8389764 1.70661896,20.6775591 1.89982111,20.6775591 L3.28443649,20.6775591 C3.47763864,20.6775591 3.63864043,20.8389764 3.63864043,21.0326772 C3.63864043,21.226378 3.47763864,21.3877953 3.28443649,21.3877953 Z" id="Shape" fill="#000000"></path>
                        <path d="M3.28443649,20.0480315 L1.89982111,20.0480315 C1.70661896,20.0480315 1.54561717,19.8866142 1.54561717,19.6929134 C1.54561717,19.4992126 1.70661896,19.3377953 1.89982111,19.3377953 L3.28443649,19.3377953 C3.47763864,19.3377953 3.63864043,19.4992126 3.63864043,19.6929134 C3.63864043,19.8866142 3.47763864,20.0480315 3.28443649,20.0480315 Z" id="Shape" fill="#000000"></path>
                        <path d="M3.28443649,18.7082677 L1.89982111,18.7082677 C1.70661896,18.7082677 1.54561717,18.5468504 1.54561717,18.3531496 C1.54561717,18.1594488 1.70661896,17.9980315 1.89982111,17.9980315 L3.28443649,17.9980315 C3.47763864,17.9980315 3.63864043,18.1594488 3.63864043,18.3531496 C3.63864043,18.5468504 3.47763864,18.7082677 3.28443649,18.7082677 Z" id="Shape" fill="#000000"></path>
                        <path d="M3.28443649,17.3846457 L1.89982111,17.3846457 C1.70661896,17.3846457 1.54561717,17.2232283 1.54561717,17.0295276 C1.54561717,16.8358268 1.70661896,16.6744094 1.89982111,16.6744094 L3.28443649,16.6744094 C3.47763864,16.6744094 3.63864043,16.8358268 3.63864043,17.0295276 C3.63864043,17.2232283 3.47763864,17.3846457 3.28443649,17.3846457 Z" id="Shape" fill="#000000"></path>
                        <path d="M3.28443649,16.0448819 L1.89982111,16.0448819 C1.70661896,16.0448819 1.54561717,15.8834646 1.54561717,15.6897638 C1.54561717,15.496063 1.70661896,15.3346457 1.89982111,15.3346457 L3.28443649,15.3346457 C3.47763864,15.3346457 3.63864043,15.496063 3.63864043,15.6897638 C3.63864043,15.8834646 3.47763864,16.0448819 3.28443649,16.0448819 Z" id="Shape" fill="#000000"></path>
                        <path d="M3.28443649,14.7051181 L1.89982111,14.7051181 C1.70661896,14.7051181 1.54561717,14.5437008 1.54561717,14.35 C1.54561717,14.1562992 1.70661896,13.9948819 1.89982111,13.9948819 L3.28443649,13.9948819 C3.47763864,13.9948819 3.63864043,14.1562992 3.63864043,14.35 C3.63864043,14.5437008 3.47763864,14.7051181 3.28443649,14.7051181 Z" id="Shape" fill="#000000"></path>
                        <path d="M3.28443649,13.3653543 L1.89982111,13.3653543 C1.70661896,13.3653543 1.54561717,13.203937 1.54561717,13.0102362 C1.54561717,12.8165354 1.70661896,12.6551181 1.89982111,12.6551181 L3.28443649,12.6551181 C3.47763864,12.6551181 3.63864043,12.8165354 3.63864043,13.0102362 C3.63864043,13.203937 3.47763864,13.3653543 3.28443649,13.3653543 Z" id="Shape" fill="#000000"></path>
                        <g fill="#000000" id="Shape">
                            <path d="M4.83005367,0.839370079 L3.44543828,0.839370079 C3.25223614,0.839370079 3.09123435,0.677952756 3.09123435,0.484251969 C3.09123435,0.290551181 3.25223614,0.129133858 3.44543828,0.129133858 L4.83005367,0.129133858 C5.02325581,0.129133858 5.1842576,0.290551181 5.1842576,0.484251969 C5.1842576,0.677952756 5.02325581,0.839370079 4.83005367,0.839370079 Z"></path>
                            <path d="M1.80322004,0.839370079 L0.418604651,0.839370079 C0.225402504,0.839370079 0.0644007156,0.677952756 0.0644007156,0.484251969 C0.0644007156,0.290551181 0.225402504,0.129133858 0.418604651,0.129133858 L1.80322004,0.129133858 C1.99642218,0.129133858 2.15742397,0.290551181 2.15742397,0.484251969 C2.15742397,0.677952756 1.99642218,0.839370079 1.80322004,0.839370079 Z"></path>
                            <path d="M4.83005367,2.25984252 L3.44543828,2.25984252 C3.25223614,2.25984252 3.09123435,2.0984252 3.09123435,1.90472441 C3.09123435,1.71102362 3.25223614,1.5496063 3.44543828,1.5496063 L4.83005367,1.5496063 C5.02325581,1.5496063 5.1842576,1.71102362 5.1842576,1.90472441 C5.1842576,2.0984252 5.02325581,2.25984252 4.83005367,2.25984252 Z"></path>
                            <path d="M1.80322004,2.25984252 L0.418604651,2.25984252 C0.225402504,2.25984252 0.0644007156,2.0984252 0.0644007156,1.90472441 C0.0644007156,1.71102362 0.225402504,1.5496063 0.418604651,1.5496063 L1.80322004,1.5496063 C1.99642218,1.5496063 2.15742397,1.71102362 2.15742397,1.90472441 C2.15742397,2.0984252 1.99642218,2.25984252 1.80322004,2.25984252 Z"></path>
                            <path d="M4.83005367,3.69645669 L3.44543828,3.69645669 C3.25223614,3.69645669 3.09123435,3.53503937 3.09123435,3.34133858 C3.09123435,3.1476378 3.25223614,2.98622047 3.44543828,2.98622047 L4.83005367,2.98622047 C5.02325581,2.98622047 5.1842576,3.1476378 5.1842576,3.34133858 C5.1842576,3.53503937 5.02325581,3.69645669 4.83005367,3.69645669 Z"></path>
                            <path d="M1.80322004,3.69645669 L0.418604651,3.69645669 C0.225402504,3.69645669 0.0644007156,3.53503937 0.0644007156,3.34133858 C0.0644007156,3.1476378 0.225402504,2.98622047 0.418604651,2.98622047 L1.80322004,2.98622047 C1.99642218,2.98622047 2.15742397,3.1476378 2.15742397,3.34133858 C2.15742397,3.53503937 1.99642218,3.69645669 1.80322004,3.69645669 Z"></path>
                        </g>
                        <g transform="translate(0.000000, 4.196850)" fill="#000000" id="Shape">
                            <path d="M4.83005367,0.807086614 L3.44543828,0.807086614 C3.25223614,0.807086614 3.09123435,0.645669291 3.09123435,0.451968504 C3.09123435,0.258267717 3.25223614,0.0968503937 3.44543828,0.0968503937 L4.83005367,0.0968503937 C5.02325581,0.0968503937 5.1842576,0.258267717 5.1842576,0.451968504 C5.1842576,0.645669291 5.02325581,0.807086614 4.83005367,0.807086614 Z"></path>
                            <path d="M1.80322004,0.807086614 L0.418604651,0.807086614 C0.225402504,0.807086614 0.0644007156,0.645669291 0.0644007156,0.451968504 C0.0644007156,0.258267717 0.225402504,0.0968503937 0.418604651,0.0968503937 L1.80322004,0.0968503937 C1.99642218,0.0968503937 2.15742397,0.258267717 2.15742397,0.451968504 C2.15742397,0.645669291 1.99642218,0.807086614 1.80322004,0.807086614 Z"></path>
                            <path d="M4.83005367,2.24370079 L3.44543828,2.24370079 C3.25223614,2.24370079 3.09123435,2.08228346 3.09123435,1.88858268 C3.09123435,1.69488189 3.25223614,1.53346457 3.44543828,1.53346457 L4.83005367,1.53346457 C5.02325581,1.53346457 5.1842576,1.69488189 5.1842576,1.88858268 C5.1842576,2.08228346 5.02325581,2.24370079 4.83005367,2.24370079 Z"></path>
                            <path d="M1.80322004,2.24370079 L0.418604651,2.24370079 C0.225402504,2.24370079 0.0644007156,2.08228346 0.0644007156,1.88858268 C0.0644007156,1.69488189 0.225402504,1.53346457 0.418604651,1.53346457 L1.80322004,1.53346457 C1.99642218,1.53346457 2.15742397,1.69488189 2.15742397,1.88858268 C2.15742397,2.08228346 1.99642218,2.24370079 1.80322004,2.24370079 Z"></path>
                            <path d="M4.83005367,3.66417323 L3.44543828,3.66417323 C3.25223614,3.66417323 3.09123435,3.50275591 3.09123435,3.30905512 C3.09123435,3.11535433 3.25223614,2.95393701 3.44543828,2.95393701 L4.83005367,2.95393701 C5.02325581,2.95393701 5.1842576,3.11535433 5.1842576,3.30905512 C5.1842576,3.50275591 5.02325581,3.66417323 4.83005367,3.66417323 Z"></path>
                            <path d="M1.80322004,3.66417323 L0.418604651,3.66417323 C0.225402504,3.66417323 0.0644007156,3.50275591 0.0644007156,3.30905512 C0.0644007156,3.11535433 0.225402504,2.95393701 0.418604651,2.95393701 L1.80322004,2.95393701 C1.99642218,2.95393701 2.15742397,3.11535433 2.15742397,3.30905512 C2.15742397,3.50275591 1.99642218,3.66417323 1.80322004,3.66417323 Z"></path>
                        </g>
                        <path d="M4.83005367,9.1523622 L3.44543828,9.1523622 C3.25223614,9.1523622 3.09123435,8.99094488 3.09123435,8.79724409 C3.09123435,8.60354331 3.25223614,8.44212598 3.44543828,8.44212598 L4.83005367,8.44212598 C5.02325581,8.44212598 5.1842576,8.60354331 5.1842576,8.79724409 C5.1842576,8.99094488 5.02325581,9.1523622 4.83005367,9.1523622 Z" id="Shape" fill="#000000"></path>
                        <path d="M1.80322004,9.1523622 L0.418604651,9.1523622 C0.225402504,9.1523622 0.0644007156,8.99094488 0.0644007156,8.79724409 C0.0644007156,8.60354331 0.225402504,8.44212598 0.418604651,8.44212598 L1.80322004,8.44212598 C1.99642218,8.44212598 2.15742397,8.60354331 2.15742397,8.79724409 C2.15742397,8.99094488 1.99642218,9.1523622 1.80322004,9.1523622 Z" id="Shape" fill="#000000"></path>
                        <path d="M4.83005367,10.5889764 L3.44543828,10.5889764 C3.25223614,10.5889764 3.09123435,10.4275591 3.09123435,10.2338583 C3.09123435,10.0401575 3.25223614,9.87874016 3.44543828,9.87874016 L4.83005367,9.87874016 C5.02325581,9.87874016 5.1842576,10.0401575 5.1842576,10.2338583 C5.1842576,10.4275591 5.02325581,10.5889764 4.83005367,10.5889764 Z" id="Shape" fill="#000000"></path>
                        <path d="M1.80322004,10.5889764 L0.418604651,10.5889764 C0.225402504,10.5889764 0.0644007156,10.4275591 0.0644007156,10.2338583 C0.0644007156,10.0401575 0.225402504,9.87874016 0.418604651,9.87874016 L1.80322004,9.87874016 C1.99642218,9.87874016 2.15742397,10.0401575 2.15742397,10.2338583 C2.15742397,10.4275591 1.99642218,10.5889764 1.80322004,10.5889764 Z" id="Shape" fill="#000000"></path>
                        <path d="M4.83005367,12.0094488 L3.44543828,12.0094488 C3.25223614,12.0094488 3.09123435,11.8480315 3.09123435,11.6543307 C3.09123435,11.4606299 3.25223614,11.2992126 3.44543828,11.2992126 L4.83005367,11.2992126 C5.02325581,11.2992126 5.1842576,11.4606299 5.1842576,11.6543307 C5.1842576,11.8480315 5.02325581,12.0094488 4.83005367,12.0094488 Z" id="Shape" fill="#000000"></path>
                        <path d="M1.80322004,12.0094488 L0.418604651,12.0094488 C0.225402504,12.0094488 0.0644007156,11.8480315 0.0644007156,11.6543307 C0.0644007156,11.4606299 0.225402504,11.2992126 0.418604651,11.2992126 L1.80322004,11.2992126 C1.99642218,11.2992126 2.15742397,11.4606299 2.15742397,11.6543307 C2.15742397,11.8480315 1.99642218,12.0094488 1.80322004,12.0094488 Z" id="Shape" fill="#000000"></path>
                        <rect id="Rectangle-path" fill="#000000" x="1.52951699" y="9.81417323" width="2.23792487" height="3.08307087"></rect>
                        <polygon id="Shape" fill="#000000" points="2.23792487 11.3637795 0.595706619 14.8181102 4.62075134 14.8181102 2.94633274 11.3637795"></polygon>
                        <ellipse id="Oval" fill="#5F7C8E" cx="2.65652952" cy="13.6074803" rx="1" ry="1"></ellipse>
                    </g>
                    <g transform="translate(1.449016, 46.003937)" fill="#000000" id="Shape">
                        <g transform="translate(0.000000, 9.362205)">
                            <path d="M1.83542039,6.11771654 L0.450805009,6.11771654 C0.257602862,6.11771654 0.0966010733,5.95629921 0.0966010733,5.76259843 C0.0966010733,5.56889764 0.257602862,5.40748031 0.450805009,5.40748031 L1.83542039,5.40748031 C2.02862254,5.40748031 2.18962433,5.56889764 2.18962433,5.76259843 C2.18962433,5.95629921 2.02862254,6.11771654 1.83542039,6.11771654 Z"></path>
                            <path d="M1.83542039,4.77795276 L0.450805009,4.77795276 C0.257602862,4.77795276 0.0966010733,4.61653543 0.0966010733,4.42283465 C0.0966010733,4.22913386 0.257602862,4.06771654 0.450805009,4.06771654 L1.83542039,4.06771654 C2.02862254,4.06771654 2.18962433,4.22913386 2.18962433,4.42283465 C2.18962433,4.61653543 2.02862254,4.77795276 1.83542039,4.77795276 Z"></path>
                            <path d="M1.83542039,3.45433071 L0.450805009,3.45433071 C0.257602862,3.45433071 0.0966010733,3.29291339 0.0966010733,3.0992126 C0.0966010733,2.90551181 0.257602862,2.74409449 0.450805009,2.74409449 L1.83542039,2.74409449 C2.02862254,2.74409449 2.18962433,2.90551181 2.18962433,3.0992126 C2.18962433,3.29291339 2.02862254,3.45433071 1.83542039,3.45433071 Z"></path>
                            <path d="M1.83542039,2.0984252 L0.450805009,2.0984252 C0.257602862,2.0984252 0.0966010733,1.93700787 0.0966010733,1.74330709 C0.0966010733,1.5496063 0.257602862,1.38818898 0.450805009,1.38818898 L1.83542039,1.38818898 C2.02862254,1.38818898 2.18962433,1.5496063 2.18962433,1.74330709 C2.18962433,1.93700787 2.02862254,2.0984252 1.83542039,2.0984252 Z"></path>
                            <path d="M1.83542039,0.77480315 L0.450805009,0.77480315 C0.257602862,0.77480315 0.0966010733,0.613385827 0.0966010733,0.419685039 C0.0966010733,0.225984252 0.257602862,0.0645669291 0.450805009,0.0645669291 L1.83542039,0.0645669291 C2.02862254,0.0645669291 2.18962433,0.225984252 2.18962433,0.419685039 C2.18962433,0.613385827 2.02862254,0.77480315 1.83542039,0.77480315 Z"></path>
                        </g>
                        <path d="M1.83542039,8.79724409 L0.450805009,8.79724409 C0.257602862,8.79724409 0.0966010733,8.63582677 0.0966010733,8.44212598 C0.0966010733,8.2484252 0.257602862,8.08700787 0.450805009,8.08700787 L1.83542039,8.08700787 C2.02862254,8.08700787 2.18962433,8.2484252 2.18962433,8.44212598 C2.18962433,8.63582677 2.02862254,8.79724409 1.83542039,8.79724409 Z"></path>
                        <path d="M1.83542039,7.47362205 L0.450805009,7.47362205 C0.257602862,7.47362205 0.0966010733,7.31220472 0.0966010733,7.11850394 C0.0966010733,6.92480315 0.257602862,6.76338583 0.450805009,6.76338583 L1.83542039,6.76338583 C2.02862254,6.76338583 2.18962433,6.92480315 2.18962433,7.11850394 C2.18962433,7.31220472 2.02862254,7.47362205 1.83542039,7.47362205 Z"></path>
                        <path d="M1.83542039,6.11771654 L0.450805009,6.11771654 C0.257602862,6.11771654 0.0966010733,5.95629921 0.0966010733,5.76259843 C0.0966010733,5.56889764 0.257602862,5.40748031 0.450805009,5.40748031 L1.83542039,5.40748031 C2.02862254,5.40748031 2.18962433,5.56889764 2.18962433,5.76259843 C2.18962433,5.95629921 2.02862254,6.11771654 1.83542039,6.11771654 Z"></path>
                        <path d="M1.83542039,4.77795276 L0.450805009,4.77795276 C0.257602862,4.77795276 0.0966010733,4.61653543 0.0966010733,4.42283465 C0.0966010733,4.22913386 0.257602862,4.06771654 0.450805009,4.06771654 L1.83542039,4.06771654 C2.02862254,4.06771654 2.18962433,4.22913386 2.18962433,4.42283465 C2.18962433,4.61653543 2.02862254,4.77795276 1.83542039,4.77795276 Z"></path>
                        <path d="M1.83542039,3.45433071 L0.450805009,3.45433071 C0.257602862,3.45433071 0.0966010733,3.29291339 0.0966010733,3.0992126 C0.0966010733,2.90551181 0.257602862,2.74409449 0.450805009,2.74409449 L1.83542039,2.74409449 C2.02862254,2.74409449 2.18962433,2.90551181 2.18962433,3.0992126 C2.18962433,3.29291339 2.02862254,3.45433071 1.83542039,3.45433071 Z"></path>
                        <path d="M1.83542039,2.11456693 L0.450805009,2.11456693 C0.257602862,2.11456693 0.0966010733,1.95314961 0.0966010733,1.75944882 C0.0966010733,1.56574803 0.257602862,1.40433071 0.450805009,1.40433071 L1.83542039,1.40433071 C2.02862254,1.40433071 2.18962433,1.56574803 2.18962433,1.75944882 C2.18962433,1.95314961 2.02862254,2.11456693 1.83542039,2.11456693 Z"></path>
                        <path d="M1.83542039,0.77480315 L0.450805009,0.77480315 C0.257602862,0.77480315 0.0966010733,0.613385827 0.0966010733,0.419685039 C0.0966010733,0.225984252 0.257602862,0.0645669291 0.450805009,0.0645669291 L1.83542039,0.0645669291 C2.02862254,0.0645669291 2.18962433,0.225984252 2.18962433,0.419685039 C2.18962433,0.613385827 2.02862254,0.77480315 1.83542039,0.77480315 Z"></path>
                    </g>
                </g>
                <g transform="translate(28.497317, 73.767717)" fill="#000000" id="Shape">
                    <path d="M1.86762075,0.790944882 L0.483005367,0.790944882 C0.28980322,0.790944882 0.128801431,0.629527559 0.128801431,0.435826772 C0.128801431,0.242125984 0.28980322,0.0807086614 0.483005367,0.0807086614 L1.86762075,0.0807086614 C2.0608229,0.0807086614 2.22182469,0.242125984 2.22182469,0.435826772 C2.22182469,0.629527559 2.0608229,0.790944882 1.86762075,0.790944882 Z"></path>
                    <path d="M1.86762075,2.11456693 L0.483005367,2.11456693 C0.28980322,2.11456693 0.128801431,1.95314961 0.128801431,1.75944882 C0.128801431,1.56574803 0.28980322,1.40433071 0.483005367,1.40433071 L1.86762075,1.40433071 C2.0608229,1.40433071 2.22182469,1.56574803 2.22182469,1.75944882 C2.22182469,1.95314961 2.0608229,2.11456693 1.86762075,2.11456693 Z"></path>
                    <path d="M1.86762075,3.45433071 L0.483005367,3.45433071 C0.28980322,3.45433071 0.128801431,3.29291339 0.128801431,3.0992126 C0.128801431,2.90551181 0.28980322,2.74409449 0.483005367,2.74409449 L1.86762075,2.74409449 C2.0608229,2.74409449 2.22182469,2.90551181 2.22182469,3.0992126 C2.22182469,3.29291339 2.0608229,3.45433071 1.86762075,3.45433071 Z"></path>
                    <path d="M1.86762075,4.81023622 L0.483005367,4.81023622 C0.28980322,4.81023622 0.128801431,4.6488189 0.128801431,4.45511811 C0.128801431,4.26141732 0.28980322,4.1 0.483005367,4.1 L1.86762075,4.1 C2.0608229,4.1 2.22182469,4.26141732 2.22182469,4.45511811 C2.22182469,4.6488189 2.0608229,4.81023622 1.86762075,4.81023622 Z"></path>
                </g>
                <path d="M44.4364937,48.7964567 L31.1538462,48.7964567 C30.8640429,48.7964567 30.6386404,48.5704724 30.6386404,48.2799213 C30.6386404,47.9893701 30.8640429,47.7633858 31.1538462,47.7633858 L44.4364937,47.7633858 C44.9677996,47.7633858 45.4025045,47.2307087 45.4025045,46.5850394 L45.4025045,39.8377953 C45.4025045,39.192126 44.9677996,38.6594488 44.4364937,38.6594488 L31.1538462,38.6594488 C30.8640429,38.6594488 30.6386404,38.4334646 30.6386404,38.1429134 C30.6386404,37.8523622 30.8640429,37.626378 31.1538462,37.626378 L44.4364937,37.626378 C45.5313059,37.626378 46.4329159,38.6110236 46.4329159,39.8216535 L46.4329159,46.5688976 C46.4329159,47.811811 45.5313059,48.7964567 44.4364937,48.7964567 Z" id="Shape" fill="#000000"></path>
                <path d="M44.2271914,38.6594488 L31.1538462,38.6594488 C30.8640429,38.6594488 30.6386404,38.4334646 30.6386404,38.1429134 C30.6386404,37.8523622 30.8640429,37.626378 31.1538462,37.626378 L44.2271914,37.626378 C44.5813953,37.626378 44.9516995,37.5295276 45.2093023,36.3511811 L46.4168157,29.7976378 C46.4973166,29.4102362 46.3846154,29.2165354 46.3041145,29.1035433 C45.9821109,28.7 45.1288014,28.5224409 44.4364937,28.5224409 L31.1538462,28.5224409 C30.8640429,28.5224409 30.6386404,28.2964567 30.6386404,28.0059055 C30.6386404,27.7153543 30.8640429,27.4893701 31.1538462,27.4893701 L44.4364937,27.4893701 C44.8711986,27.4893701 46.3846154,27.553937 47.1091234,28.457874 C47.3506261,28.7484252 47.5921288,29.2488189 47.431127,29.9913386 L46.2236136,36.5448819 C46.0143113,37.4649606 45.6118068,38.6594488 44.2271914,38.6594488 Z" id="Shape" fill="#000000"></path>
                <path d="M45.6762075,28.5385827 L31.1538462,28.5385827 C30.8801431,28.5385827 30.6064401,28.4740157 30.3488372,28.3610236 C30.0912343,28.2318898 29.9785331,27.9251969 30.1073345,27.6669291 C30.236136,27.4086614 30.5420394,27.2956693 30.7996422,27.4248031 C30.9123435,27.4732283 31.0250447,27.5055118 31.1538462,27.5055118 L45.6762075,27.5055118 C46.4168157,27.5055118 47.0286225,27.0374016 47.5116279,26.1173228 L49.6529517,20.9358268 C49.6690519,20.7744094 49.1538462,20.0641732 46.7227191,18.9503937 C45.0322004,18.1755906 42.8747764,17.4169291 41.1681574,17.0133858 L32.313059,18.8212598 C32.039356,18.8858268 31.765653,18.692126 31.7012522,18.4177165 C31.6368515,18.1433071 31.8300537,17.8688976 32.1037567,17.8043307 L41.1842576,15.9480315 L41.2969589,15.980315 C44.1466905,16.642126 49.6690519,18.6759843 50.5223614,20.3708661 C50.7316637,20.7744094 50.667263,21.1133858 50.5867621,21.3232283 L48.4293381,26.5692913 C47.5921288,28.1996063 46.4812165,28.5385827 45.6762075,28.5385827 Z" id="Shape" fill="#000000"></path>
                <path d="M44.4364937,58.9334646 L31.1538462,58.9334646 C30.8640429,58.9334646 30.6386404,58.7074803 30.6386404,58.4169291 C30.6386404,58.126378 30.8640429,57.9003937 31.1538462,57.9003937 L44.4364937,57.9003937 C44.9677996,57.9003937 45.4025045,57.3677165 45.4025045,56.7220472 L45.4025045,49.9748031 C45.4025045,49.3291339 44.9677996,48.7964567 44.4364937,48.7964567 L31.1538462,48.7964567 C30.8640429,48.7964567 30.6386404,48.5704724 30.6386404,48.2799213 C30.6386404,47.9893701 30.8640429,47.7633858 31.1538462,47.7633858 L44.4364937,47.7633858 C45.5313059,47.7633858 46.4329159,48.7480315 46.4329159,49.9586614 L46.4329159,56.7059055 C46.4329159,57.9326772 45.5313059,58.9334646 44.4364937,58.9334646 Z" id="Shape" fill="#000000"></path>
                <path d="M44.4364937,69.0543307 L31.1538462,69.0543307 C30.8640429,69.0543307 30.6386404,68.8283465 30.6386404,68.5377953 C30.6386404,68.2472441 30.8640429,68.0212598 31.1538462,68.0212598 L44.4364937,68.0212598 C44.9677996,68.0212598 45.4025045,67.4885827 45.4025045,66.8429134 L45.4025045,60.0956693 C45.4025045,59.45 44.9677996,58.9173228 44.4364937,58.9173228 L31.1538462,58.9173228 C30.8640429,58.9173228 30.6386404,58.6913386 30.6386404,58.4007874 C30.6386404,58.1102362 30.8640429,57.884252 31.1538462,57.884252 L44.4364937,57.884252 C45.5313059,57.884252 46.4329159,58.8688976 46.4329159,60.0795276 L46.4329159,66.8267717 C46.4329159,68.069685 45.5313059,69.0543307 44.4364937,69.0543307 Z" id="Shape" fill="#000000"></path>
                <path d="M44.4364937,79.1913386 L31.1538462,79.1913386 C30.8640429,79.1913386 30.6386404,78.9653543 30.6386404,78.6748031 C30.6386404,78.384252 30.8640429,78.1582677 31.1538462,78.1582677 L44.4364937,78.1582677 C44.9677996,78.1582677 45.4025045,77.6255906 45.4025045,76.9799213 L45.4025045,70.2326772 C45.4025045,69.5870079 44.9677996,69.0543307 44.4364937,69.0543307 L31.1538462,69.0543307 C30.8640429,69.0543307 30.6386404,68.8283465 30.6386404,68.5377953 C30.6386404,68.2472441 30.8640429,68.0212598 31.1538462,68.0212598 L44.4364937,68.0212598 C45.5313059,68.0212598 46.4329159,69.0059055 46.4329159,70.2165354 L46.4329159,76.9637795 C46.4329159,78.2066929 45.5313059,79.1913386 44.4364937,79.1913386 Z" id="Shape" fill="#000000"></path>
                <path d="M46.7388193,35.6248031 C46.4168157,35.6248031 46.1270125,35.6086614 45.8694097,35.5925197 C45.5796064,35.5602362 45.3864043,35.3181102 45.4025045,35.0275591 C45.4186047,34.7370079 45.6762075,34.5433071 45.9660107,34.5594488 C48.4132379,34.7854331 53.5813953,33.8814961 55.3041145,32.6708661 C55.5617174,32.4933071 55.6744186,32.1866142 55.5939177,31.896063 C54.6923077,28.1511811 52.9534884,23.2602362 49.8783542,21.1779528 C49.6368515,21.0165354 49.588551,20.6937008 49.7334526,20.4677165 C49.8944544,20.2255906 50.216458,20.1771654 50.4418605,20.3224409 C53.7906977,22.5984252 55.6261181,27.7314961 56.5921288,31.653937 C56.7692308,32.3641732 56.4955277,33.1066929 55.8837209,33.526378 C54.0483005,34.8015748 49.411449,35.6248031 46.7388193,35.6248031 Z" id="Shape" fill="#000000"></path>
                <path d="M47.9302326,46.6818898 C47.2218247,46.6818898 46.6100179,46.1814961 46.4490161,45.4874016 C46.0948122,43.8570866 45.4347048,41.9362205 45.4347048,41.9200787 C45.3381038,41.6456693 45.4830054,41.3551181 45.7567084,41.2582677 C46.0304114,41.1614173 46.3202147,41.3066929 46.4168157,41.5811024 C46.4490161,41.661811 47.0930233,43.5665354 47.4633274,45.2614173 C47.5116279,45.5035433 47.7370304,45.6649606 47.9785331,45.6488189 C50.7960644,45.4228346 55.5939177,44.3090551 57.3166369,43.5019685 C57.4937388,43.4212598 57.6064401,43.2437008 57.5903399,43.05 C57.4776386,40.1283465 56.3667263,34.0913386 55.4812165,33.3003937 C55.2719141,33.1066929 55.255814,32.7838583 55.4490161,32.5740157 C55.6422182,32.3641732 55.9642218,32.3480315 56.1735242,32.5417323 C57.5420394,33.7846457 58.5241503,40.8062992 58.6207513,43.0177165 C58.6529517,43.6311024 58.2987478,44.196063 57.7513417,44.4543307 C55.9159213,45.3259843 51.0214669,46.4559055 48.059034,46.6980315 C48.0107335,46.6818898 47.9624329,46.6818898 47.9302326,46.6818898 Z" id="Shape" fill="#000000"></path>
                <path d="M49.9910555,56.9641732 C49.9105546,56.9641732 49.8300537,56.9641732 49.7495528,56.9641732 C48.8640429,56.9480315 48.1395349,56.2700787 48.0751342,55.3822835 C47.8014311,51.8311024 47.2379249,47.3759843 46.7710197,46.0846457 C46.6744186,45.8102362 46.8193202,45.519685 47.0769231,45.4228346 C47.3506261,45.3259843 47.6404293,45.4712598 47.7370304,45.7295276 C48.3166369,47.3275591 48.8801431,52.4444882 49.1055456,55.2854331 C49.137746,55.6405512 49.4275492,55.8988189 49.7817531,55.9149606 C51.9552773,55.9472441 55.8676208,55.4307087 57.6708408,54.9787402 C57.9767442,54.8980315 58.2021467,54.6074803 58.1860465,54.3007874 C58.0733453,51.25 57.7030411,45.826378 57.4293381,43.3566929 C57.3971377,43.0661417 57.6064401,42.8240157 57.8801431,42.7917323 C58.1699463,42.7594488 58.411449,42.9692913 58.4436494,43.2437008 C58.7173524,45.7295276 59.0876565,51.1854331 59.2003578,54.2523622 C59.2325581,55.0594488 58.6851521,55.769685 57.9123435,55.9795276 C56.0769231,56.4476378 52.3094812,56.9641732 49.9910555,56.9641732 Z" id="Shape" fill="#000000"></path>
                <path d="M57.7513417,65.7129921 L50.0876565,65.7129921 C49.2826476,65.7129921 48.6386404,65.0673228 48.6386404,64.2602362 L48.332737,56.011811 C48.3166369,55.7212598 48.5420394,55.4952756 48.8318426,55.4791339 C49.1216458,55.4629921 49.3470483,55.6889764 49.3631485,55.9795276 L49.6690519,64.2602362 C49.6690519,64.5023622 49.862254,64.6799213 50.0876565,64.6799213 L57.7513417,64.6799213 C57.9928444,64.6799213 58.1699463,64.4862205 58.1699463,64.2602362 L58.1699463,54.9141732 C58.1699463,54.623622 58.3953488,54.3976378 58.6851521,54.3976378 C58.9749553,54.3976378 59.2003578,54.623622 59.2003578,54.9141732 L59.2003578,64.2602362 C59.2003578,65.0673228 58.5563506,65.7129921 57.7513417,65.7129921 Z" id="Shape" fill="#000000"></path>
                <path d="M57.7513417,76.0114173 L50.0876565,76.0114173 C49.2826476,76.0114173 48.6386404,75.365748 48.6386404,74.5586614 L48.783542,64.7444882 C48.783542,64.4700787 49.0089445,64.2440945 49.2987478,64.2440945 C49.2987478,64.2440945 49.2987478,64.2440945 49.2987478,64.2440945 C49.588551,64.2440945 49.8139535,64.4862205 49.7978533,64.7606299 L49.6529517,74.5586614 C49.6529517,74.7846457 49.8461538,74.9783465 50.0715564,74.9783465 L57.7352415,74.9783465 C57.9767442,74.9783465 58.1538462,74.7846457 58.1538462,74.5586614 L57.8801431,64.938189 C57.8801431,64.6476378 58.0894454,64.4216535 58.3792487,64.4055118 C58.3792487,64.4055118 58.3953488,64.4055118 58.3953488,64.4055118 C58.6690519,64.4055118 58.8944544,64.6314961 58.9105546,64.9059055 L59.1842576,74.5425197 C59.2003578,75.3496063 58.5563506,76.0114173 57.7513417,76.0114173 Z" id="Shape" fill="#000000"></path>
                <path d="M58.2826476,80.0952756 L49.588551,80.0952756 L49.588551,74.9783465 L58.2826476,74.9783465 L58.2826476,80.0952756 Z M50.6028623,79.0622047 L57.2522361,79.0622047 L57.2522361,76.0114173 L50.6028623,76.0114173 L50.6028623,79.0622047 Z" id="Shape" fill="#000000"></path>
                <path d="M28.1914132,48.7964567 L14.9087657,48.7964567 C13.8139535,48.7964567 12.9123435,47.811811 12.9123435,46.6011811 L12.9123435,39.853937 C12.9123435,38.6433071 13.8139535,37.6586614 14.9087657,37.6586614 L28.1914132,37.6586614 C28.4812165,37.6586614 28.706619,37.8846457 28.706619,38.1751969 C28.706619,38.465748 28.4812165,38.6917323 28.1914132,38.6917323 L14.9087657,38.6917323 C14.3774597,38.6917323 13.9427549,39.2244094 13.9427549,39.8700787 L13.9427549,46.6173228 C13.9427549,47.2629921 14.3774597,47.7956693 14.9087657,47.7956693 L28.1914132,47.7956693 C28.4812165,47.7956693 28.706619,48.0216535 28.706619,48.3122047 C28.706619,48.6027559 28.4812165,48.7964567 28.1914132,48.7964567 Z" id="Shape" fill="#000000"></path>
                <path d="M28.1914132,38.6594488 L15.118068,38.6594488 C13.7334526,38.6594488 13.3309481,37.4649606 13.137746,36.5610236 L11.9141324,29.9913386 C11.7531306,29.2649606 12.0107335,28.7645669 12.236136,28.4740157 C12.960644,27.5700787 14.4579606,27.5055118 14.9087657,27.5055118 L28.1914132,27.5055118 C28.4812165,27.5055118 28.706619,27.7314961 28.706619,28.0220472 C28.706619,28.3125984 28.4812165,28.5385827 28.1914132,28.5385827 L14.9087657,28.5385827 C14.216458,28.5385827 13.3631485,28.7161417 13.0411449,29.119685 C12.960644,29.2326772 12.8479428,29.426378 12.9284436,29.7976378 L14.1520572,36.3673228 C14.3935599,37.5295276 14.763864,37.6425197 15.1341682,37.6425197 L28.2075134,37.6425197 C28.4973166,37.6425197 28.7227191,37.8685039 28.7227191,38.1590551 C28.7227191,38.4496063 28.4812165,38.6594488 28.1914132,38.6594488 Z" id="Shape" fill="#000000"></path>
                <path d="M28.1914132,28.5385827 L13.6690519,28.5385827 C12.8801431,28.5385827 11.7531306,28.1996063 10.9159213,26.5692913 L10.8998211,26.5370079 L8.75849732,21.3232283 C8.67799642,21.1133858 8.61359571,20.7905512 8.82289803,20.3708661 C9.69230769,18.6759843 15.2146691,16.642126 18.0483005,15.980315 L18.1610018,15.9480315 L27.2415027,17.8043307 C27.5152057,17.8688976 27.6923077,18.1271654 27.6440072,18.4177165 C27.5796064,18.692126 27.3220036,18.869685 27.0322004,18.8212598 L18.177102,17.0133858 C16.4865832,17.4169291 14.313059,18.1755906 12.6225403,18.9503937 C10.2075134,20.0641732 9.69230769,20.7744094 9.69230769,20.9358268 L11.8336315,26.1173228 C12.3166369,27.0374016 12.9284436,27.5055118 13.6690519,27.5055118 L28.1914132,27.5055118 C28.3041145,27.5055118 28.4007156,27.4893701 28.4973166,27.4409449 C28.7549195,27.3279528 29.0608229,27.4570866 29.1735242,27.7153543 C29.2862254,27.973622 29.157424,28.280315 28.8998211,28.3933071 C28.6744186,28.4901575 28.4329159,28.5385827 28.1914132,28.5385827 Z" id="Shape" fill="#000000"></path>
                <path d="M28.1914132,58.9334646 L14.9087657,58.9334646 C13.8139535,58.9334646 12.9123435,57.9488189 12.9123435,56.738189 L12.9123435,49.9909449 C12.9123435,48.780315 13.8139535,47.7956693 14.9087657,47.7956693 L28.1914132,47.7956693 C28.4812165,47.7956693 28.706619,48.0216535 28.706619,48.3122047 C28.706619,48.6027559 28.4812165,48.8287402 28.1914132,48.8287402 L14.9087657,48.8287402 C14.3774597,48.8287402 13.9427549,49.3614173 13.9427549,50.0070866 L13.9427549,56.7543307 C13.9427549,57.4 14.3774597,57.9326772 14.9087657,57.9326772 L28.1914132,57.9326772 C28.4812165,57.9326772 28.706619,58.1586614 28.706619,58.4492126 C28.706619,58.7397638 28.4812165,58.9334646 28.1914132,58.9334646 Z" id="Shape" fill="#000000"></path>
                <path d="M28.1914132,69.0543307 L14.9087657,69.0543307 C13.8139535,69.0543307 12.9123435,68.069685 12.9123435,66.8590551 L12.9123435,60.111811 C12.9123435,58.9011811 13.8139535,57.9165354 14.9087657,57.9165354 L28.1914132,57.9165354 C28.4812165,57.9165354 28.706619,58.1425197 28.706619,58.4330709 C28.706619,58.723622 28.4812165,58.9496063 28.1914132,58.9496063 L14.9087657,58.9496063 C14.3774597,58.9496063 13.9427549,59.4822835 13.9427549,60.1279528 L13.9427549,66.8751969 C13.9427549,67.5208661 14.3774597,68.0535433 14.9087657,68.0535433 L28.1914132,68.0535433 C28.4812165,68.0535433 28.706619,68.2795276 28.706619,68.5700787 C28.706619,68.8606299 28.4812165,69.0543307 28.1914132,69.0543307 Z" id="Shape" fill="#000000"></path>
                <path d="M28.1914132,79.1913386 L14.9087657,79.1913386 C13.8139535,79.1913386 12.9123435,78.2066929 12.9123435,76.996063 L12.9123435,70.2488189 C12.9123435,69.038189 13.8139535,68.0535433 14.9087657,68.0535433 L28.1914132,68.0535433 C28.4812165,68.0535433 28.706619,68.2795276 28.706619,68.5700787 C28.706619,68.8606299 28.4812165,69.0866142 28.1914132,69.0866142 L14.9087657,69.0866142 C14.3774597,69.0866142 13.9427549,69.6192913 13.9427549,70.2649606 L13.9427549,77.0122047 C13.9427549,77.657874 14.3774597,78.1905512 14.9087657,78.1905512 L28.1914132,78.1905512 C28.4812165,78.1905512 28.706619,78.4165354 28.706619,78.7070866 C28.706619,78.9976378 28.4812165,79.1913386 28.1914132,79.1913386 Z" id="Shape" fill="#000000"></path>
                <path d="M12.6225403,35.6248031 C9.94991055,35.6248031 5.31305903,34.8015748 3.47763864,33.526378 C2.88193202,33.1066929 2.5921288,32.3641732 2.76923077,31.653937 C3.71914132,27.7314961 5.55456172,22.5984252 8.91949911,20.3224409 C9.16100179,20.1610236 9.46690519,20.2255906 9.62790698,20.4677165 C9.78890877,20.7098425 9.72450805,21.0165354 9.48300537,21.1779528 C6.4078712,23.2602362 4.66905188,28.1511811 3.76744186,31.896063 C3.68694097,32.2027559 3.8157424,32.5094488 4.05724508,32.6708661 C5.77996422,33.8814961 10.9481216,34.7854331 13.3953488,34.5594488 C13.6690519,34.5433071 13.9266547,34.7370079 13.9588551,35.0275591 C13.9910555,35.3181102 13.7817531,35.5602362 13.4919499,35.5925197 C13.2182469,35.6086614 12.9284436,35.6248031 12.6225403,35.6248031 Z" id="Shape" fill="#000000"></path>
                <path d="M11.4150268,46.6818898 C11.3667263,46.6818898 11.3345259,46.6818898 11.2862254,46.6818898 C8.32379249,46.4397638 3.4293381,45.2937008 1.59391771,44.438189 C1.04651163,44.1799213 0.708407871,43.6149606 0.72450805,43.0015748 C0.821109123,40.7901575 1.80322004,33.7685039 3.17173524,32.5255906 C3.38103757,32.3318898 3.70304114,32.3480315 3.89624329,32.557874 C4.08944544,32.7677165 4.07334526,33.0905512 3.86404293,33.284252 C2.97853309,34.0751969 1.86762075,40.1122047 1.7549195,43.0338583 C1.7549195,43.2275591 1.85152057,43.4051181 2.02862254,43.4858268 C3.75134168,44.2929134 8.54919499,45.4066929 11.3667263,45.6326772 C11.608229,45.6488189 11.8336315,45.4874016 11.881932,45.2452756 C12.2522361,43.5503937 12.8962433,41.6456693 12.9284436,41.5649606 C13.0250447,41.2905512 13.3148479,41.1452756 13.588551,41.242126 C13.862254,41.3389764 14.0071556,41.6295276 13.9105546,41.903937 C13.9105546,41.9200787 13.2504472,43.8409449 12.8962433,45.4712598 C12.7513417,46.1976378 12.1234347,46.6818898 11.4150268,46.6818898 Z" id="Shape" fill="#000000"></path>
                <path d="M9.35420394,56.9641732 C7.05187835,56.9641732 3.26833631,56.4476378 1.43291592,55.9956693 C0.660107335,55.8019685 0.112701252,55.0755906 0.14490161,54.2685039 C0.257602862,51.2015748 0.627906977,45.7456693 0.901610018,43.2598425 C0.933810376,42.9692913 1.17531306,42.7755906 1.46511628,42.807874 C1.7549195,42.8401575 1.94812165,43.0984252 1.91592129,43.3728346 C1.65831843,45.8425197 1.27191413,51.2661417 1.15921288,54.3169291 C1.1431127,54.6397638 1.36851521,54.930315 1.6744186,54.9948819 C3.47763864,55.4468504 7.38998211,55.9795276 9.56350626,55.9311024 C9.9177102,55.9311024 10.2075134,55.6566929 10.2397138,55.3015748 C10.4651163,52.4444882 11.0286225,47.3275591 11.608229,45.7456693 C11.7048301,45.4712598 11.9946333,45.342126 12.2683363,45.4389764 C12.5420394,45.5358268 12.6708408,45.826378 12.5742397,46.1007874 C12.1073345,47.392126 11.5438283,51.8311024 11.2701252,55.3984252 C11.2057245,56.2862205 10.4812165,56.9641732 9.59570662,56.980315 C9.51520572,56.9641732 9.43470483,56.9641732 9.35420394,56.9641732 Z" id="Shape" fill="#000000"></path>
                <path d="M9.25760286,65.7129921 L1.59391771,65.7129921 C0.788908766,65.7129921 0.14490161,65.0673228 0.14490161,64.2602362 L0.14490161,54.9141732 C0.14490161,54.623622 0.370304114,54.3976378 0.660107335,54.3976378 C0.949910555,54.3976378 1.17531306,54.623622 1.17531306,54.9141732 L1.17531306,64.2602362 C1.17531306,64.5023622 1.36851521,64.6799213 1.59391771,64.6799213 L9.25760286,64.6799213 C9.49910555,64.6799213 9.67620751,64.4862205 9.67620751,64.2602362 L9.67620751,64.2440945 L9.98211091,55.9795276 C9.99821109,55.6889764 10.2236136,55.4629921 10.5134168,55.4791339 C10.80322,55.4952756 11.0125224,55.7212598 11.0125224,56.011811 L10.706619,64.2602362 C10.706619,65.0673228 10.0465116,65.7129921 9.25760286,65.7129921 Z" id="Shape" fill="#000000"></path>
                <path d="M9.25760286,76.0114173 L1.59391771,76.0114173 C0.788908766,76.0114173 0.14490161,75.365748 0.14490161,74.5586614 L0.418604651,64.9059055 C0.418604651,64.6314961 0.660107335,64.4055118 0.933810376,64.4055118 C0.933810376,64.4055118 0.949910555,64.4055118 0.949910555,64.4055118 C1.23971377,64.4055118 1.4490161,64.6476378 1.4490161,64.938189 L1.17531306,74.5748031 C1.17531306,74.8007874 1.36851521,74.9944882 1.59391771,74.9944882 L9.25760286,74.9944882 C9.49910555,74.9944882 9.67620751,74.8007874 9.67620751,74.5748031 L9.5313059,64.7767717 C9.5313059,64.4862205 9.75670841,64.2602362 10.0304114,64.2602362 C10.3041145,64.2602362 10.5456172,64.4862205 10.5456172,64.7606299 L10.6905188,74.5586614 C10.706619,75.3496063 10.0465116,76.0114173 9.25760286,76.0114173 Z" id="Shape" fill="#000000"></path>
                <path d="M9.77280859,80.0952756 L1.07871199,80.0952756 L1.07871199,74.9783465 L9.77280859,74.9783465 L9.77280859,80.0952756 Z M2.09302326,79.0622047 L8.74239714,79.0622047 L8.74239714,76.0114173 L2.09302326,76.0114173 L2.09302326,79.0622047 Z" id="Shape" fill="#000000"></path>
                <g transform="translate(15.939177, 0.000000)" fill="#000000" id="Shape">
                    <path d="M2.22182469,17.0779528 C2.02862254,17.0779528 1.83542039,16.9811024 1.72271914,16.8035433 C0.0644007156,14.2370079 -0.788908766,9.71732283 1.32021467,5.84330709 C2.75313059,3.17992126 6.02146691,0.0161417323 13.4275492,0.0161417323 C13.7495528,0.0161417323 14.0232558,0.290551181 14.0232558,0.613385827 C14.0232558,0.936220472 13.7495528,1.21062992 13.4275492,1.21062992 C6.60107335,1.21062992 3.65474061,4.03543307 2.3667263,6.40826772 C0.499105546,9.86259843 1.23971377,13.8818898 2.72093023,16.1417323 C2.8980322,16.4161417 2.81753131,16.7874016 2.54382826,16.9649606 C2.44722719,17.0456693 2.33452594,17.0779528 2.22182469,17.0779528 Z"></path>
                    <path d="M12.236136,13.4137795 C12.2200358,13.4137795 12.1878354,13.4137795 12.1717352,13.4137795 C7.96958855,12.9779528 4.8783542,11.1862205 3.92844365,8.61968504 C3.55813953,7.61889764 3.70304114,6.6019685 4.3470483,5.66574803 C5.76386404,3.63188976 9.32200358,2.30826772 13.4275492,2.30826772 C13.7495528,2.30826772 14.0232558,2.58267717 14.0232558,2.90551181 C14.0232558,3.22834646 13.7495528,3.50275591 13.4275492,3.50275591 C9.75670841,3.50275591 6.50447227,4.6488189 5.32915921,6.34370079 C4.91055456,6.95708661 4.81395349,7.57047244 5.03935599,8.2 C5.81216458,10.3145669 8.59749553,11.8480315 12.2844365,12.2192913 C12.6064401,12.2515748 12.8479428,12.542126 12.8157424,12.8811024 C12.7996422,13.1877953 12.5420394,13.4137795 12.236136,13.4137795 Z"></path>
                    <path d="M25.2450805,17.0779528 C25.1162791,17.0779528 25.0035778,17.0456693 24.8908766,16.9649606 C24.6332737,16.7712598 24.568873,16.4 24.7620751,16.1255906 C26.2432916,14.1240157 26.8550984,10.3307087 25.1645796,6.94094488 C23.313059,3.24448819 19.255814,1.21062992 13.7334526,1.21062992 C13.411449,1.21062992 13.137746,0.936220472 13.137746,0.613385827 C13.137746,0.290551181 13.411449,0.0161417323 13.7334526,0.0161417323 C21.8157424,0.0161417323 25.0357782,4.01929134 26.2271914,6.40826772 C27.9177102,9.78188976 27.6923077,14.1562992 25.7119857,16.8358268 C25.5992844,16.9972441 25.4221825,17.0779528 25.2450805,17.0779528 Z"></path>
                    <path d="M15.2468694,13.3814961 C14.9570662,13.3814961 14.6994633,13.1555118 14.6511628,12.8488189 C14.6189624,12.5259843 14.8443649,12.2192913 15.1663685,12.1870079 C18.6923077,11.7511811 21.3488372,10.2338583 22.1055456,8.2 C22.3309481,7.57047244 22.234347,6.94094488 21.8157424,6.34370079 C20.6404293,4.6488189 17.3881932,3.50275591 13.7173524,3.50275591 C13.3953488,3.50275591 13.1216458,3.22834646 13.1216458,2.90551181 C13.1216458,2.58267717 13.3953488,2.30826772 13.7173524,2.30826772 C17.822898,2.30826772 21.3810376,3.63188976 22.7978533,5.66574803 C23.4418605,6.6019685 23.5867621,7.61889764 23.216458,8.61968504 C22.2987478,11.1055118 19.3363148,12.8972441 15.3112701,13.3814961 C15.2951699,13.3814961 15.2790698,13.3814961 15.2468694,13.3814961 Z"></path>
                </g>
            </g>
            <path d="M23.4096601,81.3543307 L23.039356,79.95 C28.4973166,78.5295276 31.8300537,75.5917323 34.7763864,73.0090551 C38.5116279,69.7161417 41.7316637,66.8751969 47.8175313,68.0051181 C51.1824687,68.6346457 54.8211091,70.3133858 58.3309481,71.9437008 C61.9695886,73.6385827 65.7370304,75.3818898 69.2307692,75.9791339 C73.0948122,76.6409449 76.0894454,75.8338583 78.6654741,73.4610236 L79.647585,74.526378 C76.7495528,77.2059055 73.2719141,78.142126 68.9892665,77.415748 C65.3023256,76.7862205 61.4382826,74.9944882 57.7191413,73.2673228 C54.1288014,71.6047244 50.7477639,70.0228346 47.5599284,69.4417323 C42.1824687,68.4409449 39.332737,70.9429134 35.7423971,74.1066929 C32.667263,76.7862205 29.1896243,79.8531496 23.4096601,81.3543307 Z" id="Shape" fill="#CD2027"></path>
            <g id="Group" transform="translate(0.000000, 20.177165)">
                <g transform="translate(9.821109, 0.000000)" id="Shape">
                    <path d="M7.18067979,0.56496063 C8.24329159,0.56496063 9.3059034,0.823228346 10.255814,1.32362205 C11.8014311,2.13070866 12.9284436,3.51889764 13.4275492,5.1976378 C13.9266547,6.87637795 13.7817531,8.63582677 12.9445438,10.1854331 C11.9141324,12.1385827 9.94991055,13.4299213 7.72808587,13.623622 C7.56708408,13.6397638 7.40608229,13.7366142 7.3255814,13.8980315 C7.22898032,14.0594488 7.22898032,14.2208661 7.3255814,14.3822835 L7.43828265,14.592126 L32.7316637,47.1984252 L30.8962433,47.7472441 L19.6583184,41.7425197 L2.51162791,12.1062992 C2.33452594,11.880315 -0.772808587,8.07086614 1.38461538,3.98700787 C2.55992844,1.88858268 4.76565295,0.56496063 7.18067979,0.56496063 Z M7.19677996,10.6212598 C8.50089445,10.6212598 9.67620751,9.91102362 10.2880143,8.7488189 C10.7388193,7.90944882 10.8193202,6.95708661 10.5456172,6.06929134 C10.2719141,5.16535433 9.66010733,4.43897638 8.83899821,3.98700787 C8.32379249,3.71259843 7.74418605,3.58346457 7.18067979,3.58346457 C5.8765653,3.58346457 4.70125224,4.29370079 4.08944544,5.45590551 C3.63864043,6.29527559 3.55813953,7.2476378 3.83184258,8.13543307 C4.10554562,9.03937008 4.71735242,9.76574803 5.53846154,10.2177165 C6.03756708,10.492126 6.6332737,10.6212598 7.19677996,10.6212598 Z" fill="#FCFAE3"></path>
                    <path d="M30.9767442,47.2145669 L20.0608229,41.3874016 L2.96243292,11.880315 C2.94633274,11.8318898 2.8980322,11.7834646 2.86583184,11.7511811 C2.84973166,11.7027559 -0.177101968,8.08700787 1.85152057,4.27755906 C2.91413238,2.30826772 4.94275492,1.06535433 7.16457961,1.06535433 C8.1627907,1.06535433 9.12880143,1.30748031 10.0143113,1.77559055 C12.960644,3.32519685 14.0715564,7.00551181 12.509839,9.95944882 C11.5438283,11.7834646 9.75670841,12.961811 7.69588551,13.1555118 C7.35778175,13.1716535 7.06797853,13.3814961 6.90697674,13.6720472 C6.74597496,13.9625984 6.74597496,14.3338583 6.90697674,14.6244094 L7.019678,14.834252 C7.03577818,14.8826772 7.08407871,14.9311024 7.11627907,14.9633858 L31.9105546,46.9401575 L30.9767442,47.2145669 Z M7.16457961,3.08307087 C5.66726297,3.08307087 4.31484794,3.90629921 3.62254025,5.22992126 C3.1234347,6.18228346 3.01073345,7.27992126 3.33273703,8.29685039 C3.65474061,9.31377953 4.33094812,10.1692913 5.28085868,10.669685 C5.8765653,10.9925197 6.52057245,11.1377953 7.18067979,11.1377953 C8.67799642,11.1377953 10.0304114,10.3145669 10.7227191,8.99094488 C11.7531306,7.03779528 11.0286225,4.58425197 9.06440072,3.53503937 C8.50089445,3.22834646 7.8568873,3.06692913 7.16457961,3.08307087 Z M30.8801431,48.296063 L33.5849732,47.4728346 L7.90518784,14.35 L7.79248658,14.1401575 C10.078712,13.930315 12.2522361,12.6389764 13.3953488,10.4275591 C15.2146691,7.00551181 13.9105546,2.71181102 10.4973166,0.887795276 C9.43470483,0.322834646 8.30769231,0.0484251969 7.16457961,0.0645669291 C4.6529517,0.0645669291 2.23792487,1.43661417 0.982110912,3.79330709 C-1.38461538,8.2484252 2.10912343,12.3807087 2.10912343,12.3807087 L19.3363148,42.1299213 L30.8801431,48.296063 Z M7.18067979,4.06771654 C7.66368515,4.06771654 8.14669052,4.18070866 8.61359571,4.42283465 C10.078712,5.21377953 10.6261181,7.05393701 9.86940966,8.50669291 C9.32200358,9.52362205 8.29159213,10.1047244 7.19677996,10.1047244 C6.7137746,10.1047244 6.23076923,9.99173228 5.76386404,9.7496063 C4.29874776,8.95866142 3.75134168,7.11850394 4.50805009,5.66574803 C5.07155635,4.66496063 6.11806798,4.08385827 7.18067979,4.06771654 Z" fill="#402312"></path>
                </g>
                <g transform="translate(0.000000, 16.303150)" id="Shape">
                    <path d="M53.9838998,6.53740157 L54.5313059,8.37755906 L13.5080501,5.56889764 L13.1860465,5.58503937 C13.0250447,5.6011811 12.8640429,5.6980315 12.783542,5.85944882 C12.7191413,6.02086614 12.7191413,6.1984252 12.783542,6.34370079 C13.8461538,8.29685039 13.8783542,10.6212598 12.8479428,12.6066929 C11.7209302,14.7374016 9.51520572,16.0610236 7.08407871,16.0771654 C6.02146691,16.0771654 4.9588551,15.8188976 4.00894454,15.3185039 C2.46332737,14.5114173 1.33631485,13.1232283 0.837209302,11.4444882 C0.338103757,9.76574803 0.483005367,8.00629921 1.32021467,6.45669291 C3.05903399,3.21220472 6.53667263,2.84094488 7.95348837,2.82480315 C8.30769231,2.82480315 8.54919499,2.84094488 8.56529517,2.84094488 L42.7298748,0.56496063 L53.9838998,6.53740157 Z M7.08407871,13.0102362 C8.3881932,13.0102362 9.56350626,12.3 10.1753131,11.1377953 C10.6261181,10.2984252 10.706619,9.34606299 10.4329159,8.45826772 C10.1592129,7.55433071 9.54740608,6.82795276 8.72629696,6.37598425 C8.21109123,6.1015748 7.63148479,5.97244094 7.06797853,5.97244094 C5.76386404,5.97244094 4.58855098,6.68267717 3.97674419,7.84488189 C3.07513417,9.57204724 3.71914132,11.7027559 5.44186047,12.6228346 C5.95706619,12.8811024 6.52057245,13.0102362 7.08407871,13.0102362 Z" fill="#FCFAE3"></path>
                    <path d="M7.10017889,15.5283465 C6.1019678,15.5283465 5.13595707,15.2862205 4.25044723,14.8181102 C1.30411449,13.2685039 0.193202147,9.58818898 1.7549195,6.63425197 C3.34883721,3.61574803 6.6332737,3.29291339 7.96958855,3.27677165 C8.30769231,3.27677165 8.51699463,3.29291339 8.51699463,3.29291339 C8.56529517,3.29291339 8.58139535,3.29291339 8.62969589,3.29291339 C8.64579606,3.29291339 8.67799642,3.29291339 8.6940966,3.29291339 L42.6332737,1.0492126 L53.549195,6.87637795 L53.822898,7.81259843 L13.5241503,5.0523622 C13.5080501,5.0523622 13.4758497,5.0523622 13.4597496,5.0523622 C13.4436494,5.0523622 13.3953488,5.0523622 13.3631485,5.0523622 L13.137746,5.06850394 C12.7996422,5.08464567 12.509839,5.29448819 12.3488372,5.58503937 C12.1878354,5.87559055 12.1878354,6.24685039 12.3488372,6.53740157 C13.3470483,8.34527559 13.3470483,10.5082677 12.4132379,12.3161417 C11.3667263,14.3015748 9.33810376,15.5283465 7.10017889,15.5283465 Z M7.08407871,5.45590551 C5.58676208,5.45590551 4.23434705,6.27913386 3.54203936,7.60275591 C2.51162791,9.55590551 3.23613596,12.0094488 5.20035778,13.0586614 C5.7960644,13.3814961 6.44007156,13.5267717 7.10017889,13.5267717 C8.59749553,13.5267717 9.94991055,12.7035433 10.6422182,11.3799213 C11.6726297,9.42677165 10.9481216,6.97322835 8.98389982,5.92401575 C8.40429338,5.61732283 7.74418605,5.45590551 7.08407871,5.45590551 Z M7.10017889,16.5452756 C9.6118068,16.5452756 12.0268336,15.1732283 13.2826476,12.8165354 C14.4579606,10.6374016 14.3291592,8.10314961 13.2182469,6.08543307 L13.4436494,6.06929134 L55.2075134,8.94251969 L54.3864043,6.23070866 L42.8586762,0.0484251969 L8.61359571,2.32440945 C8.61359571,2.32440945 8.37209302,2.30826772 7.95348837,2.30826772 C6.44007156,2.30826772 2.73703041,2.67952756 0.86940966,6.18228346 C-0.949910555,9.60433071 0.354203936,13.8980315 3.76744186,15.7220472 C4.83005367,16.2870079 5.98926655,16.5614173 7.10017889,16.5452756 Z M7.10017889,6.45669291 C7.58318426,6.45669291 8.06618962,6.56968504 8.53309481,6.81181102 C9.99821109,7.60275591 10.5456172,9.44291339 9.78890877,10.8956693 C9.24150268,11.9125984 8.21109123,12.4937008 7.11627907,12.4937008 C6.6332737,12.4937008 6.15026834,12.3807087 5.68336315,12.1385827 C4.21824687,11.3476378 3.67084079,9.50748031 4.42754919,8.05472441 C4.97495528,7.05393701 6.00536673,6.45669291 7.10017889,6.45669291 Z" fill="#402312"></path>
                </g>
                <g transform="translate(19.159213, 19.047244)">
                    <ellipse id="Oval" fill="#CCCBCB" cx="1.11091234" cy="1.21062992" rx="1" ry="1.0007874"></ellipse>
                    <path d="M1.11091234,0.145275591 C1.69051878,0.145275591 2.17352415,0.613385827 2.17352415,1.21062992 C2.17352415,1.79173228 1.70661896,2.27598425 1.11091234,2.27598425 C0.515205725,2.27598425 0.0483005367,1.80787402 0.0483005367,1.21062992 C0.0483005367,0.629527559 0.531305903,0.145275591 1.11091234,0.145275591 Z M1.11091234,2.14685039 C1.62611807,2.14685039 2.04472272,1.72716535 2.04472272,1.21062992 C2.04472272,0.694094488 1.62611807,0.274409449 1.11091234,0.274409449 C0.595706619,0.274409449 0.177101968,0.694094488 0.177101968,1.21062992 C0.193202147,1.72716535 0.611806798,2.14685039 1.11091234,2.14685039 Z" id="Shape" fill="#402312"></path>
                </g>
            </g>
            <g id="Group" transform="translate(46.046512, 41.000000)">
                <path d="M40.8139535,0.694094488 C41.9892665,0.936220472 42.8103757,1.51732283 43.1323792,2.35669291 C43.5187835,3.32519685 43.1484794,4.51968504 42.1019678,5.6496063 C41.1520572,6.68267717 39.7191413,7.63503937 38.0769231,8.26456693 C37.4490161,8.50669291 36.8050089,8.7003937 36.177102,8.84566929 L1.52951699,19.2570866 C1.40071556,19.2732283 1.27191413,19.3055118 1.15921288,19.2732283 C0.853309481,19.2086614 0.627906977,18.9503937 0.595706619,18.6275591 C0.563506261,18.3047244 0.72450805,18.030315 1.01431127,17.8688976 L33.6976744,2.21141732 C34.2128801,1.90472441 34.8246869,1.61417323 35.4686941,1.35590551 C37.352415,0.645669291 39.3005367,0.387401575 40.8139535,0.694094488 Z M32.667263,6.39212598 C33.6010733,6.34370079 35.4203936,5.89173228 36.9660107,5.31062992 C38.8014311,4.6003937 39.1395349,4.08385827 39.2200358,3.95472441 C39.2200358,3.84173228 39.1073345,3.80944882 39.059034,3.79330709 C38.8014311,3.74488189 38.1252236,3.74488189 36.5957066,4.32598425 C34.8246869,4.98779528 33.2951699,5.89173228 32.667263,6.39212598 Z" id="Shape" fill="#FCFAE3"></path>
                <path d="M1.28801431,18.7566929 C1.09481216,18.7244094 1.04651163,18.4338583 1.23971377,18.3692913 L33.9230769,2.71181102 C34.4382826,2.40511811 35.0339893,2.11456693 35.6618962,1.88858268 C37.5456172,1.16220472 39.3971377,0.952362205 40.7334526,1.22677165 C41.6994633,1.42047244 42.4078712,1.88858268 42.6815742,2.56653543 C43.3094812,4.19685039 41.1842576,6.53740157 37.9320215,7.78031496 C37.3041145,8.02244094 36.6923077,8.2 36.1127013,8.32913386 L1.43291592,18.7728346 C1.35241503,18.7728346 1.30411449,18.7566929 1.28801431,18.7566929 Z M39.1556351,3.26062992 C38.6243292,3.1476378 37.706619,3.30905512 36.3864043,3.82559055 C34.3416816,4.61653543 31.6368515,6.11771654 31.8783542,6.6988189 C31.9105546,6.79566929 32.0232558,6.84409449 32.1842576,6.87637795 C33.0375671,7.05393701 35.4525939,6.42440945 37.1592129,5.77874016 C39.2039356,4.98779528 39.960644,4.24527559 39.7030411,3.66417323 C39.6225403,3.48661417 39.4293381,3.32519685 39.1556351,3.26062992 Z M1.07871199,19.8059055 C1.28801431,19.8543307 1.49731664,19.838189 1.70661896,19.773622 L36.3542039,9.36220472 C37.0143113,9.23307087 37.6583184,9.02322835 38.3023256,8.76496063 C42.1985689,7.23149606 44.5169946,4.42283465 43.6314848,2.19527559 C43.2611807,1.19448819 42.2951699,0.500393701 40.9266547,0.20984252 C39.332737,-0.112992126 37.2719141,0.145275591 35.2593918,0.92007874 C34.6314848,1.17834646 33.9874776,1.45275591 33.4239714,1.80787402 L0.772808587,17.4492126 C0.28980322,17.6913386 -2.08583151e-14,18.1917323 0.0483005367,18.7244094 C0.128801431,19.2409449 0.531305903,19.6929134 1.07871199,19.8059055 Z" id="Shape" fill="#402312"></path>
            </g>
            <path d="M83.9141324,52.6543307 C83.3828265,50.3137795 82.5134168,48.2476378 81.2898032,46.5043307 L82.4812165,45.6649606 C83.8014311,47.569685 84.7674419,49.8133858 85.3309481,52.3314961 L83.9141324,52.6543307 Z" id="Shape" fill="#CD2027"></path>
        </g>
    </g>
</svg>