<?xml version="1.0" encoding="iso-8859-1"?>
<!-- Generator: Adobe Illustrator 21.1.0, SVG Export Plug-In . SVG Version: 6.00 Build 0)  -->
<svg version="1.1" id="platie_x5F_001" xmlns="http://www.w3.org/2000/svg" xmlns:xlink="http://www.w3.org/1999/xlink" x="0px"
	 y="0px" viewBox="0 0 90 90" style="enable-background:new 0 0 90 90;" xml:space="preserve">
<rect style="fill:none;" width="90" height="90"/>
<g>
	<g>
		<path style="fill:#C5B9A1;" d="M83.986,35.451c-0.504,0-0.76-0.438-0.76-1.304c0-6.71-18.386-13.055-37.832-13.055
			c-13.06,0-24.778,2.862-32.996,8.059c-0.081,0.052-0.174,0.078-0.267,0.078c-0.081,0-0.162-0.02-0.236-0.059
			c-0.159-0.085-0.259-0.25-0.264-0.43l-0.13-5.728c-0.004-0.171,0.08-0.333,0.223-0.427c9.705-6.47,22.67-7.828,31.837-7.828
			c22.164,0,43.917,7.666,43.917,15.476c0,0.089-0.024,0.177-0.069,0.253c-0.223,0.378-0.491,0.88-0.776,1.414
			C85.185,34.608,84.631,35.451,83.986,35.451z"/>
		<path style="fill:#42210B;" d="M43.56,15.256c21.74-0.001,43.417,7.651,43.417,14.976c-0.857,1.458-2.383,4.718-2.991,4.718
			c-0.163,0-0.26-0.235-0.26-0.804c0-7.004-18.449-13.555-38.331-13.555c-11.76,0-24.021,2.292-33.263,8.137L12,23
			C20.348,17.435,31.965,15.257,43.56,15.256 M43.565,14.256v1l-0.001-1c-9.241,0-22.311,1.373-32.118,7.912
			c-0.285,0.19-0.453,0.512-0.445,0.855l0.131,5.728c0.008,0.36,0.21,0.688,0.527,0.859c0.148,0.079,0.31,0.119,0.472,0.119
			c0.186,0,0.372-0.052,0.535-0.155c8.139-5.147,19.762-7.982,32.729-7.982c20.679,0,37.331,6.869,37.331,12.555
			c0,1.628,0.881,1.804,1.26,1.804c0.962,0,1.576-0.989,3.087-3.815c0.282-0.527,0.546-1.023,0.766-1.397
			c0.09-0.154,0.138-0.328,0.138-0.507c0-5.424-8.913-9.332-14.226-11.179C64.982,16.005,53.98,14.256,43.565,14.256L43.565,14.256z
			"/>
	</g>
</g>
<path style="fill:none;stroke:#CE171F;stroke-width:2;stroke-linejoin:round;stroke-miterlimit:10;" d="M61,55c6,1,21,1,22-9
	c3.284-32.836-68,0-68-36"/>
<g>
	<g>
		<path style="fill:#C5B9A1;" d="M45,72.5c-17.814,0-34.586-5.993-34.586-10.638c0-1.545,0.577-2.309,1.086-2.983
			c0.515-0.681,1-1.324,1-2.879c0-0.276,0.224-0.5,0.5-0.5s0.5,0.224,0.5,0.5c0,6.237,15.847,9.5,31.5,9.5
			c16.572,0,26.678-4.899,26.778-4.948C71.848,60.518,71.924,60.5,72,60.5c0.061,0,0.121,0.011,0.179,0.033
			c0.13,0.05,0.234,0.152,0.286,0.281l2,5c0.096,0.24-0.007,0.514-0.238,0.631C74.107,66.506,62.104,72.5,45,72.5z"/>
		<path style="fill:#42210B;" d="M13,56c0,7,17,10,32,10c16.901,0,27-5,27-5l2,5c0,0-11.818,6-29,6c-18,0-34.086-6-34.086-10.138
			C10.913,59,13,59.321,13,56 M13,55c-0.552,0-1,0.448-1,1c0,1.387-0.397,1.912-0.899,2.578c-0.529,0.7-1.187,1.571-1.187,3.284
			C9.913,67.275,27.948,73,45,73c17.223,0,28.962-5.859,29.453-6.108c0.462-0.234,0.668-0.782,0.476-1.263l-2-5
			c-0.103-0.259-0.311-0.462-0.571-0.562C72.242,60.022,72.121,60,72,60c-0.152,0-0.304,0.035-0.443,0.103
			C71.458,60.152,61.436,65,45,65c-15.028,0-31-3.154-31-9C14,55.448,13.552,55,13,55L13,55z"/>
	</g>
</g>
<g>
	<g>
		<path style="fill:#AA8396;" d="M35,22.5c-0.276,0-0.5-0.224-0.5-0.5V1c0-0.173,0.09-0.334,0.237-0.425
			C34.817,0.525,34.909,0.5,35,0.5c0.076,0,0.153,0.018,0.223,0.053C35.262,0.572,39.202,2.5,45,2.5
			c5.802,0,9.771-1.889,9.811-1.908c0.069-0.034,0.144-0.05,0.218-0.05c0.092,0,0.185,0.026,0.266,0.077
			c0.146,0.092,0.234,0.252,0.234,0.424L55.5,22c0,0.276-0.224,0.5-0.5,0.5H35z"/>
		<path style="fill:#42210B;" d="M35,1c0,0,4,2,10,2s10.029-1.959,10.029-1.959L55,22H35V1 M35,0c-0.183,0-0.365,0.05-0.526,0.149
			C34.179,0.332,34,0.653,34,1v21c0,0.552,0.448,1,1,1h20c0.552,0,0.999-0.447,1-0.999l0.029-20.959
			c0-0.345-0.177-0.666-0.469-0.849c-0.162-0.101-0.346-0.153-0.531-0.153c-0.149,0-0.299,0.033-0.437,0.101
			C54.555,0.16,50.672,2,45,2c-5.698,0-9.515-1.875-9.553-1.894C35.306,0.035,35.153,0,35,0L35,0z"/>
	</g>
	<path style="fill:#E4AEC6;" d="M65,55c-3-14-7-18-7-22c0-7,2-10,2-21c0-1,2-9,2-9s-3-2-7-2c0,0-1,9-10,9S35,1,35,1c-4,0-7,2-7,2
		s2,8,2,9c0,11,2,14,2,21c0,4-4,8-7,22s-6,23-9,28c0,0,1,2,3,2c3,0,1,2,5,2c3,0,2,1,6,1c1.965,0,2,1,4,1s3-1,5-1s1,1,6,1s4-1,6-1
		s3,1,5,1s2.035-1,4-1c4,0,3-1,6-1c4,0,2-2,5-2c2,0,3-2,3-2C71,78,68,69,65,55z"/>
	<g>
		<path style="fill:#F6D3D7;" d="M49,11c6,0,9-7,9-7c3,1,3,1,4-1c-1.258-0.519-4.922-2-7-2c0,0-1,9-10,9
			c-0.235,0-0.443-0.03-0.667-0.042C45.583,10.587,47.106,11,49,11z"/>
		<path style="fill:#F6D3D7;" d="M34,13c0-1-2-9-2-9s1.307-0.866,3.339-1.458C35.074,1.627,35,1,35,1c-4,0-7,2-7,2s2,8,2,9
			c0,11,2,14,2,21c0,4-4,8-7,22s-6,23-9,28c0,0,1,2,3,2h0c0.241-0.407,0.597-0.738,1.052-0.906C20.018,84.036,20,84,20,84
			c3-5,6-14,9-28s7-18,7-22C36,27,34,24,34,13z"/>
	</g>
	<g>
		<path style="fill:#42210B;" d="M55,1c4,0,7,2,7,2s-2,8-2,9c0,11-2,14-2,21c0,4,4,8,7,22s6,23,9,28c0,0-1,2-3,2c-3,0-1,2-5,2
			c-3,0-2,1-6,1c-1.965,0-2,1-4,1s-3-1-5-1s-2,1-6,1s-4-1-6-1s-3,1-5,1s-2.035-1-4-1c-4,0-3-1-6-1c-4,0-2-2-5-2c-2,0-3-2-3-2
			c3-5,6-14,9-28s7-18,7-22c0-7-2-10-2-21c0-1-2-9-2-9s3-2,7-2c0,0,1,9,10,9S55,1,55,1 M55,0c-0.509,0-0.936,0.382-0.994,0.887l0,0
			C53.968,1.219,52.975,9,45,9c-8.013,0-8.969-7.779-9.006-8.11C35.938,0.383,35.51,0,35,0c-4.254,0-7.422,2.079-7.555,2.168
			c-0.352,0.234-0.518,0.665-0.415,1.075c0.957,3.826,1.955,8.149,1.97,8.761c0,6.2,0.628,9.898,1.182,13.16
			C30.621,27.747,31,29.978,31,33c0,1.514-0.692,3.124-1.74,5.561c-1.48,3.441-3.507,8.155-5.237,16.229
			c-2.852,13.311-5.84,22.629-8.88,27.695c-0.176,0.293-0.19,0.656-0.037,0.962C15.158,83.551,16.412,86,19,86
			c0.885,0,0.989,0.141,1.239,0.483C20.824,87.283,21.552,88,24,88c1.197,0,1.603,0.165,2.116,0.373C26.84,88.667,27.661,89,30,89
			c0.744,0,1.076,0.165,1.536,0.393C32.082,89.663,32.761,90,34,90c1.162,0,2.041-0.293,2.816-0.551C37.539,89.208,38.162,89,39,89
			c0.657,0,1.012,0.125,1.549,0.315C41.412,89.62,42.485,90,45,90s3.588-0.38,4.451-0.685C49.988,89.125,50.343,89,51,89
			c0.838,0,1.461,0.208,2.184,0.449C53.959,89.707,54.838,90,56,90c1.239,0,1.918-0.337,2.464-0.607C58.924,89.165,59.256,89,60,89
			c2.339,0,3.16-0.333,3.884-0.627C64.397,88.165,64.803,88,66,88c2.448,0,3.176-0.717,3.761-1.517C70.011,86.141,70.115,86,71,86
			c2.588,0,3.842-2.449,3.894-2.553c0.153-0.306,0.139-0.669-0.037-0.962c-3.04-5.066-6.027-14.384-8.88-27.695
			c-1.73-8.075-3.757-12.788-5.237-16.229C59.692,36.124,59,34.514,59,33c0-3.022,0.379-5.253,0.818-7.837
			C60.372,21.901,61,18.203,61,12c0.015-0.608,1.014-4.931,1.97-8.757c0.102-0.41-0.064-0.84-0.415-1.075
			C62.422,2.079,59.254,0,55,0L55,0z"/>
	</g>
	<g>
		<path style="fill:#FCEAAE;" d="M31,35.5c-0.276,0-0.5-0.224-0.5-0.5v-4c0-0.276,0.224-0.5,0.5-0.5h28c0.276,0,0.5,0.224,0.5,0.5v4
			c0,0.276-0.224,0.5-0.5,0.5H31z"/>
		<path style="fill:#42210B;" d="M59,31v4H31v-4H59 M59,30H31c-0.552,0-1,0.448-1,1v4c0,0.552,0.448,1,1,1h28c0.552,0,1-0.448,1-1
			v-4C60,30.448,59.552,30,59,30L59,30z"/>
	</g>
	<path style="fill:none;stroke:#42210B;stroke-linecap:round;stroke-linejoin:round;stroke-miterlimit:10;" d="M50.5,87.5
		c-0.595-4.762-0.836-15.55-0.934-23.5"/>
	<path style="fill:none;stroke:#42210B;stroke-linecap:round;stroke-linejoin:round;stroke-miterlimit:10;" d="M31.5,87.5
		c0.767-3.45,1.386-7.194,1.859-10.5"/>
	<path style="fill:none;stroke:#42210B;stroke-linecap:round;stroke-linejoin:round;stroke-miterlimit:10;" d="M37.5,87.5
		c1-6,1-15,1-15"/>
	<g>
		<path style="fill:#FCEAAE;" d="M43,37.5c-1.378,0-2.5-1.122-2.5-2.5v-4c0-1.378,1.122-2.5,2.5-2.5h4c1.378,0,2.5,1.122,2.5,2.5v4
			c0,1.378-1.122,2.5-2.5,2.5H43z"/>
		<path style="fill:#42210B;" d="M47,29c1.105,0,2,0.895,2,2v4c0,1.105-0.895,2-2,2h-4c-1.105,0-2-0.895-2-2v-4c0-1.105,0.895-2,2-2
			H47 M47,28h-4c-1.654,0-3,1.346-3,3v4c0,1.654,1.346,3,3,3h4c1.654,0,3-1.346,3-3v-4C50,29.346,48.654,28,47,28L47,28z"/>
	</g>
</g>
<g>
	<g>
		<path style="fill:#FFFFFF;" d="M10.914,62.362c-0.276,0-0.5-0.223-0.5-0.499c-0.003-2.177,0.032-3.324,0.058-4.161
			c0.015-0.5,0.028-0.905,0.028-1.375c0-5.96,19.739-11.943,37.455-13.584c18.701-1.732,34.617-8.008,38.639-12.83
			c0.097-0.116,0.238-0.18,0.384-0.18c0.057,0,0.114,0.01,0.17,0.03c0.198,0.071,0.33,0.259,0.33,0.469
			c0.004,2.452-0.151,3.561-0.265,4.37C87.144,35.087,87.09,35.472,87.09,36c0,5.688-20.186,11.592-39.039,13.537
			c-15.562,1.605-26.505,6.069-30.488,7.913c-2.74,1.269-6.149,2.848-6.149,4.412C11.414,62.138,11.19,62.362,10.914,62.362
			L10.914,62.362z"/>
		<path style="fill:#42210B;" d="M86.977,30.233C86.984,34.13,86.59,34.518,86.59,36c0,5-19.072,11.026-38.59,13.04
			c-12.942,1.335-23.913,4.838-30.647,7.957c-3.152,1.46-6.44,3.003-6.44,4.865C10.908,58.406,11,57.604,11,56.326
			C11,51.216,29,45,48,43.24C67.504,41.433,83,35,86.977,30.233 M86.977,29.233c-0.291,0-0.574,0.127-0.768,0.359
			c-3.958,4.745-19.728,10.931-38.301,12.652C29.601,43.94,10,50.003,10,56.326c0,0.466-0.013,0.867-0.028,1.361
			c-0.026,0.84-0.062,1.991-0.058,4.176c0.001,0.552,0.448,0.999,1,0.999c0,0,0,0,0.001,0c0.552,0,0.999-0.448,0.999-1
			c0-1.244,3.526-2.877,5.86-3.958c3.96-1.834,14.843-6.272,30.329-7.87C64.027,48.391,87.59,42.795,87.59,36
			c0-0.493,0.049-0.844,0.117-1.329c0.116-0.824,0.274-1.953,0.27-4.44c-0.001-0.421-0.265-0.796-0.66-0.939
			C87.206,29.252,87.091,29.233,86.977,29.233L86.977,29.233z"/>
	</g>
	
		<line style="fill:none;stroke:#42210B;stroke-linecap:round;stroke-linejoin:round;stroke-miterlimit:10;" x1="20.5" y1="55.5" x2="20.5" y2="52.5"/>
	
		<line style="fill:none;stroke:#42210B;stroke-linecap:round;stroke-linejoin:round;stroke-miterlimit:10;" x1="26.5" y1="53.5" x2="26.5" y2="50.5"/>
	
		<line style="fill:none;stroke:#42210B;stroke-linecap:round;stroke-linejoin:round;stroke-miterlimit:10;" x1="38.5" y1="50.5" x2="38.5" y2="47.5"/>
	
		<line style="fill:none;stroke:#42210B;stroke-linecap:round;stroke-linejoin:round;stroke-miterlimit:10;" x1="44.5" y1="49.5" x2="44.5" y2="46.5"/>
	
		<line style="fill:none;stroke:#42210B;stroke-linecap:round;stroke-linejoin:round;stroke-miterlimit:10;" x1="50.5" y1="48.5" x2="50.5" y2="45.5"/>
	
		<line style="fill:none;stroke:#42210B;stroke-linecap:round;stroke-linejoin:round;stroke-miterlimit:10;" x1="56.5" y1="47.5" x2="56.5" y2="44.5"/>
	
		<line style="fill:none;stroke:#42210B;stroke-linecap:round;stroke-linejoin:round;stroke-miterlimit:10;" x1="62.5" y1="46.5" x2="62.5" y2="43.5"/>
	
		<line style="fill:none;stroke:#42210B;stroke-linecap:round;stroke-linejoin:round;stroke-miterlimit:10;" x1="68.5" y1="45.5" x2="68.5" y2="42.5"/>
	
		<line style="fill:none;stroke:#42210B;stroke-linecap:round;stroke-linejoin:round;stroke-miterlimit:10;" x1="74.5" y1="43.5" x2="74.5" y2="40.5"/>
	
		<line style="fill:none;stroke:#42210B;stroke-linecap:round;stroke-linejoin:round;stroke-miterlimit:10;" x1="80.5" y1="40.5" x2="80.5" y2="37.5"/>
	
		<line style="fill:none;stroke:#42210B;stroke-linecap:round;stroke-linejoin:round;stroke-miterlimit:10;" x1="83.5" y1="38.5" x2="83.5" y2="37"/>
	
		<line style="fill:none;stroke:#42210B;stroke-linecap:round;stroke-linejoin:round;stroke-miterlimit:10;" x1="77.5" y1="42.5" x2="77.5" y2="41"/>
	
		<line style="fill:none;stroke:#42210B;stroke-linecap:round;stroke-linejoin:round;stroke-miterlimit:10;" x1="71.5" y1="44.5" x2="71.5" y2="43"/>
	
		<line style="fill:none;stroke:#42210B;stroke-linecap:round;stroke-linejoin:round;stroke-miterlimit:10;" x1="65.5" y1="45.5" x2="65.5" y2="44"/>
	
		<line style="fill:none;stroke:#42210B;stroke-linecap:round;stroke-linejoin:round;stroke-miterlimit:10;" x1="59.5" y1="46.5" x2="59.5" y2="45.5"/>
	
		<line style="fill:none;stroke:#42210B;stroke-linecap:round;stroke-linejoin:round;stroke-miterlimit:10;" x1="53.5" y1="47.5" x2="53.5" y2="46"/>
	
		<line style="fill:none;stroke:#42210B;stroke-linecap:round;stroke-linejoin:round;stroke-miterlimit:10;" x1="47.5" y1="48.5" x2="47.5" y2="47"/>
	
		<line style="fill:none;stroke:#42210B;stroke-linecap:round;stroke-linejoin:round;stroke-miterlimit:10;" x1="41.5" y1="49.5" x2="41.5" y2="48"/>
	
		<line style="fill:none;stroke:#42210B;stroke-linecap:round;stroke-linejoin:round;stroke-miterlimit:10;" x1="35.5" y1="50.5" x2="35.5" y2="49"/>
	
		<line style="fill:none;stroke:#42210B;stroke-linecap:round;stroke-linejoin:round;stroke-miterlimit:10;" x1="29.5" y1="52.5" x2="29.5" y2="51"/>
	
		<line style="fill:none;stroke:#42210B;stroke-linecap:round;stroke-linejoin:round;stroke-miterlimit:10;" x1="23.5" y1="54.5" x2="23.5" y2="53"/>
	
		<line style="fill:none;stroke:#42210B;stroke-linecap:round;stroke-linejoin:round;stroke-miterlimit:10;" x1="32.5" y1="51.5" x2="32.5" y2="48.5"/>
	
		<line style="fill:none;stroke:#42210B;stroke-linecap:round;stroke-linejoin:round;stroke-miterlimit:10;" x1="14.5" y1="58.5" x2="14.5" y2="55.5"/>
	
		<line style="fill:none;stroke:#42210B;stroke-linecap:round;stroke-linejoin:round;stroke-miterlimit:10;" x1="17.5" y1="57" x2="17.5" y2="55.5"/>
</g>
<g>
	<path style="fill:#CCCCCC;" d="M34.846,69.353c-0.166,0-0.329-0.062-0.458-0.174L8.19,46.743c-0.47-0.34-0.956-0.755-1.41-1.21
		c-1.187-1.187-2.075-2.542-2.5-3.816c-0.464-1.391-0.33-2.547,0.378-3.254c0.424-0.424,1.028-0.648,1.747-0.648
		c1.576,0,3.616,1.061,5.325,2.769c0.456,0.456,0.871,0.941,1.234,1.441l22.414,26.17c0.18,0.208,0.223,0.493,0.109,0.742
		C35.372,69.189,35.12,69.353,34.846,69.353L34.846,69.353z M7.557,41.272c-0.052,0-0.064,0.012-0.07,0.018
		c-0.058,0.058-0.046,0.661,1.414,2.122c1.264,1.264,2.62,2.255,3.314,2.607c-0.352-0.695-1.343-2.051-2.607-3.314
		C8.279,41.375,7.702,41.272,7.557,41.272z"/>
	<path style="fill:#42210B;" d="M6.405,38.314c1.392,0,3.309,0.961,4.971,2.623c0.447,0.447,0.843,0.913,1.183,1.382l22.439,26.201
		c0.126,0.146-0.001,0.334-0.152,0.334c-0.043,0-0.088-0.015-0.13-0.052L8.515,46.363c-0.469-0.341-0.935-0.736-1.382-1.183
		c-2.343-2.343-3.293-5.192-2.121-6.364C5.352,38.475,5.835,38.314,6.405,38.314 M12.603,46.657c0.08,0,0.144-0.02,0.187-0.064
		c0.424-0.424-1.361-2.776-2.828-4.243c-1.094-1.094-1.893-1.579-2.405-1.579c-0.175,0-0.316,0.056-0.424,0.164
		c-0.424,0.424-0.053,1.361,1.414,2.828C9.865,45.083,11.896,46.657,12.603,46.657 M6.405,37.314c-0.854,0-1.58,0.275-2.1,0.795
		c-0.848,0.848-1.026,2.186-0.499,3.766c0.449,1.346,1.379,2.771,2.62,4.012c0.463,0.463,0.956,0.887,1.468,1.261l26.171,22.413
		c0.216,0.187,0.494,0.292,0.781,0.292c0.469,0,0.899-0.278,1.096-0.709c0.196-0.43,0.124-0.92-0.188-1.28L13.344,41.698
		c-0.374-0.512-0.799-1.005-1.261-1.468C10.284,38.431,8.109,37.314,6.405,37.314L6.405,37.314z"/>
</g>
<g>
	<g>
		<path style="fill:#CCCCCC;" d="M82.006,65.681c-2.266,0-4.333-1.148-5.527-3.07c-1.165-1.874-1.298-4.189-0.358-6.195
			c0.071-0.152,0.062-0.331-0.026-0.474c-0.088-0.143-0.242-0.233-0.411-0.238l-0.233-0.007l-40.612,5.527l0.431-1.846L46.014,52.7
			l33.989-0.021c0.091-0.008,0.56-0.089,1.269-0.089c1.601,0,4.54,0.411,6.248,3.159c1.892,3.044,0.955,7.06-2.089,8.952
			C84.398,65.342,83.214,65.681,82.006,65.681z M81.996,55.679c-0.651,0-1.289,0.183-1.844,0.528
			c-1.639,1.019-2.144,3.182-1.125,4.82c0.643,1.035,1.755,1.653,2.976,1.653l0,0c0.651,0,1.289-0.183,1.844-0.528
			c0.794-0.494,1.349-1.267,1.561-2.177c0.213-0.911,0.058-1.85-0.436-2.644C84.329,56.297,83.216,55.679,81.996,55.679z"/>
		<path style="fill:#42210B;" d="M81.272,53.09L81.272,53.09c1.496,0,4.243,0.38,5.823,2.922c1.746,2.81,0.881,6.517-1.929,8.263
			c-0.953,0.592-2.046,0.905-3.161,0.905c-2.092,0-4-1.059-5.103-2.834c-1.075-1.73-1.198-3.868-0.33-5.719
			c0.143-0.305,0.123-0.661-0.053-0.947s-0.484-0.466-0.82-0.477l-0.234-0.007c-0.011,0-0.021-0.001-0.032-0.001
			c-0.045,0-0.09,0.003-0.135,0.009L35.49,60.63l0.219-0.937l10.447-6.493l33.847-0.02c0.056,0,0.116-0.005,0.171-0.015
			C80.179,53.163,80.613,53.09,81.272,53.09 M82.002,63.18c0.745,0,1.474-0.209,2.109-0.603c1.873-1.164,2.45-3.636,1.286-5.509
			c-0.735-1.183-2.006-1.889-3.4-1.889c-0.745,0-1.474,0.209-2.109,0.603c-0.907,0.564-1.541,1.448-1.784,2.488
			c-0.243,1.04-0.066,2.113,0.498,3.021C79.337,62.474,80.608,63.18,82.002,63.18 M81.272,52.09c-0.769,0-1.269,0.089-1.269,0.089
			L45.87,52.2l-11.041,6.862l-0.643,2.754l41.248-5.621l0.234,0.007c-0.973,2.074-0.914,4.581,0.386,6.672
			c1.326,2.133,3.612,3.306,5.952,3.306c1.261,0,2.538-0.341,3.688-1.056c3.283-2.041,4.291-6.357,2.25-9.64
			C86.115,52.542,83.007,52.09,81.272,52.09L81.272,52.09z M82.002,62.18c-1.003,0-1.983-0.503-2.551-1.417
			c-0.875-1.407-0.443-3.257,0.964-4.132c0.493-0.306,1.04-0.452,1.581-0.452c1.003,0,1.983,0.503,2.551,1.417
			c0.875,1.407,0.443,3.257-0.964,4.132C83.09,62.034,82.543,62.18,82.002,62.18L82.002,62.18z"/>
	</g>
	<g>
		<path style="fill:#E6E6E6;" d="M48.204,82.728l22.894-33.896l0.137-0.286c0.07-0.153,0.058-0.331-0.032-0.473
			c-0.089-0.142-0.245-0.23-0.413-0.233c-2.215-0.044-4.233-1.189-5.397-3.063c-1.892-3.044-0.955-7.06,2.09-8.952
			c1.032-0.642,2.216-0.98,3.424-0.98c2.266,0,4.333,1.147,5.527,3.07c2.424,3.901-0.408,7.858-0.53,8.025L60.794,76.48
			L50.05,83.158L48.204,82.728z M70.911,37.844c-0.651,0-1.289,0.183-1.844,0.528c-0.794,0.494-1.349,1.267-1.561,2.177
			c-0.212,0.91-0.058,1.849,0.436,2.643c0.644,1.035,1.756,1.653,2.976,1.653c0.651,0,1.289-0.183,1.845-0.528
			c0.794-0.494,1.348-1.267,1.561-2.177c0.213-0.91,0.058-1.849-0.436-2.643C73.243,38.462,72.131,37.844,70.911,37.844z"/>
		<path style="fill:#42210B;" d="M70.907,35.343c2.092,0,4,1.059,5.103,2.834c2.24,3.604-0.396,7.311-0.508,7.464
			c-0.035,0.047-0.065,0.097-0.091,0.149L60.409,76.131l-10.447,6.493l-0.937-0.219l22.487-33.294
			c0.031-0.046,0.059-0.095,0.082-0.146l0.097-0.213c0.139-0.306,0.115-0.662-0.064-0.947c-0.179-0.285-0.49-0.46-0.826-0.467
			c-2.045-0.041-3.908-1.098-4.983-2.828c-0.846-1.361-1.111-2.97-0.747-4.531c0.364-1.561,1.314-2.886,2.676-3.732
			C68.699,35.656,69.792,35.343,70.907,35.343 M70.916,45.345c0.745,0,1.474-0.209,2.109-0.603c0.907-0.564,1.541-1.448,1.784-2.488
			s0.066-2.113-0.498-3.021c-0.735-1.183-2.006-1.889-3.4-1.889c-0.745,0-1.474,0.209-2.109,0.603
			c-0.907,0.564-1.541,1.448-1.784,2.488c-0.243,1.04-0.066,2.113,0.498,3.021C68.251,44.639,69.523,45.345,70.916,45.345
			 M70.907,34.343c-1.262,0-2.538,0.341-3.688,1.056c-3.283,2.041-4.291,6.357-2.25,9.64c1.299,2.091,3.522,3.254,5.812,3.299
			l-0.097,0.213l-23.3,34.498l2.754,0.643l11.041-6.862l15.129-30.596c0,0,3.191-4.338,0.551-8.585
			C75.533,35.516,73.246,34.343,70.907,34.343L70.907,34.343z M70.916,44.345c-1.003,0-1.983-0.503-2.551-1.417
			c-0.875-1.407-0.443-3.257,0.964-4.132c0.493-0.306,1.04-0.452,1.581-0.452c1.003,0,1.983,0.503,2.551,1.417
			c0.875,1.407,0.443,3.257-0.964,4.132C72.004,44.199,71.457,44.345,70.916,44.345L70.916,44.345z"/>
	</g>
	
		<ellipse transform="matrix(0.8493 -0.5279 0.5279 0.8493 -18.8559 44.8171)" style="fill:#CCCCCC;stroke:#42210B;stroke-linecap:round;stroke-linejoin:round;stroke-miterlimit:10;" cx="69.076" cy="55.438" rx="1" ry="1"/>
</g>
<path style="fill:none;stroke:#CE171F;stroke-width:2;stroke-linejoin:round;stroke-miterlimit:10;" d="M10,43
	c3-3,3.095-10.151,10-9c6,1,4,7,8,8"/>
<path style="fill:none;stroke:#CE171F;stroke-width:2;stroke-linejoin:round;stroke-miterlimit:10;" d="M6,47c-1.5,1.5-4,5-4,10
	c0,6,3,12,9,12"/>
</svg>
