<?xml version="1.0" encoding="iso-8859-1"?>
<!-- Generator: Adobe Illustrator 21.1.0, SVG Export Plug-In . SVG Version: 6.00 Build 0)  -->
<svg version="1.1" xmlns="http://www.w3.org/2000/svg" xmlns:xlink="http://www.w3.org/1999/xlink" x="0px" y="0px"
	 viewBox="0 0 90 90" style="enable-background:new 0 0 90 90;" xml:space="preserve">
<pattern  y="-678" width="30" height="30" patternUnits="userSpaceOnUse" id="Bird_Feet" viewBox="2.147 -32.37 30 30" style="overflow:visible;">
	<g>
		<rect x="2.147" y="-32.37" style="fill:none;" width="30" height="30"/>
		<g>
			
				<line style="fill:none;stroke:#231F20;stroke-width:0.3;stroke-linecap:square;" x1="12.731" y1="-2.541" x2="14.442" y2="-0.21"/>
		</g>
		<g>
			
				<line style="fill:none;stroke:#231F20;stroke-width:0.3;stroke-linecap:square;" x1="14.905" y1="-21.161" x2="13.61" y2="-18.679"/>
			
				<line style="fill:none;stroke:#231F20;stroke-width:0.3;stroke-linecap:square;" x1="20.48" y1="-12.999" x2="23.511" y2="-12.179"/>
			
				<line style="fill:none;stroke:#231F20;stroke-width:0.3;stroke-linecap:square;" x1="20.91" y1="-14.179" x2="24.011" y2="-13.679"/>
			
				<line style="fill:none;stroke:#231F20;stroke-width:0.3;stroke-linecap:square;" x1="17.91" y1="-6.079" x2="19.01" y2="-8.179"/>
			
				<line style="fill:none;stroke:#231F20;stroke-width:0.3;stroke-linecap:square;" x1="16.51" y1="-6.279" x2="17.72" y2="-8.593"/>
			
				<line style="fill:none;stroke:#231F20;stroke-width:0.3;stroke-linecap:square;" x1="24.311" y1="-8.179" x2="22.411" y2="-6.779"/>
			
				<line style="fill:none;stroke:#231F20;stroke-width:0.3;stroke-linecap:square;" x1="24.811" y1="-7.179" x2="23.311" y2="-5.579"/>
			
				<line style="fill:none;stroke:#231F20;stroke-width:0.3;stroke-linecap:square;" x1="25.863" y1="-11.857" x2="26.223" y2="-9.079"/>
			
				<line style="fill:none;stroke:#231F20;stroke-width:0.3;stroke-linecap:square;" x1="24.304" y1="-11.497" x2="24.923" y2="-8.879"/>
			
				<line style="fill:none;stroke:#231F20;stroke-width:0.3;stroke-linecap:square;" x1="11.599" y1="-5.309" x2="13.31" y2="-2.979"/>
			
				<line style="fill:none;stroke:#231F20;stroke-width:0.3;stroke-linecap:square;" x1="12.731" y1="-6.441" x2="14.442" y2="-4.109"/>
			
				<line style="fill:none;stroke:#231F20;stroke-width:0.3;stroke-linecap:square;" x1="14.121" y1="-10.922" x2="15.496" y2="-8.483"/>
			
				<line style="fill:none;stroke:#231F20;stroke-width:0.3;stroke-linecap:square;" x1="15.603" y1="-11.526" x2="16.66" y2="-8.934"/>
			
				<line style="fill:none;stroke:#231F20;stroke-width:0.3;stroke-linecap:square;" x1="19.11" y1="-12.579" x2="17.01" y2="-11.379"/>
			
				<line style="fill:none;stroke:#231F20;stroke-width:0.3;stroke-linecap:square;" x1="20.11" y1="-11.279" x2="17.81" y2="-10.479"/>
			
				<line style="fill:none;stroke:#231F20;stroke-width:0.3;stroke-linecap:square;" x1="24.786" y1="-5.368" x2="23.311" y2="-3.179"/>
			
				<line style="fill:none;stroke:#231F20;stroke-width:0.3;stroke-linecap:square;" x1="25.883" y1="-4.203" x2="23.843" y2="-2.285"/>
			
				<line style="fill:none;stroke:#231F20;stroke-width:0.3;stroke-linecap:square;" x1="27.164" y1="-4.59" x2="28.111" y2="-2.279"/>
			
				<line style="fill:none;stroke:#231F20;stroke-width:0.3;stroke-linecap:square;" x1="17.11" y1="-4.879" x2="14.833" y2="-3.125"/>
			
				<line style="fill:none;stroke:#231F20;stroke-width:0.3;stroke-linecap:square;" x1="18.71" y1="-4.479" x2="16.029" y2="-2.062"/>
			
				<line style="fill:none;stroke:#231F20;stroke-width:0.3;stroke-linecap:square;" x1="14.51" y1="-7.079" x2="14.71" y2="-6.579"/>
			
				<line style="fill:none;stroke:#231F20;stroke-width:0.3;stroke-linecap:square;" x1="21.01" y1="-6.279" x2="21.411" y2="-5.879"/>
			
				<line style="fill:none;stroke:#231F20;stroke-width:0.3;stroke-linecap:square;" x1="21.411" y1="-5.279" x2="21.611" y2="-2.679"/>
			
				<line style="fill:none;stroke:#231F20;stroke-width:0.3;stroke-linecap:square;" x1="20.31" y1="-5.579" x2="19.71" y2="-2.879"/>
			
				<line style="fill:none;stroke:#231F20;stroke-width:0.3;stroke-linecap:square;" x1="27.223" y1="-10.379" x2="27.723" y2="-10.579"/>
			
				<line style="fill:none;stroke:#231F20;stroke-width:0.3;stroke-linecap:square;" x1="18.91" y1="-10.179" x2="19.01" y2="-9.579"/>
			
				<line style="fill:none;stroke:#231F20;stroke-width:0.3;stroke-linecap:square;" x1="26.111" y1="-5.579" x2="26.611" y2="-5.579"/>
			
				<line style="fill:none;stroke:#231F20;stroke-width:0.3;stroke-linecap:square;" x1="19.41" y1="-6.379" x2="19.01" y2="-5.679"/>
			
				<line style="fill:none;stroke:#231F20;stroke-width:0.3;stroke-linecap:square;" x1="21.11" y1="-11.479" x2="21.611" y2="-11.679"/>
			
				<line style="fill:none;stroke:#231F20;stroke-width:0.3;stroke-linecap:square;" x1="22.005" y1="-8.191" x2="20.235" y2="-9.279"/>
			
				<line style="fill:none;stroke:#231F20;stroke-width:0.3;stroke-linecap:square;" x1="23.1" y1="-9.15" x2="20.557" y2="-10.322"/>
			
				<line style="fill:none;stroke:#231F20;stroke-width:0.3;stroke-linecap:square;" x1="20.11" y1="-8.079" x2="20.61" y2="-7.979"/>
			
				<line style="fill:none;stroke:#231F20;stroke-width:0.3;stroke-linecap:square;" x1="22.823" y1="-10.779" x2="23.323" y2="-10.679"/>
			
				<line style="fill:none;stroke:#231F20;stroke-width:0.3;stroke-linecap:square;" x1="13.36" y1="-8.679" x2="14.01" y2="-8.879"/>
			
				<line style="fill:none;stroke:#231F20;stroke-width:0.3;stroke-linecap:square;" x1="16.707" y1="-26.998" x2="16.76" y2="-24.198"/>
			
				<line style="fill:none;stroke:#231F20;stroke-width:0.3;stroke-linecap:square;" x1="18.307" y1="-27.028" x2="18.01" y2="-24.379"/>
			
				<line style="fill:none;stroke:#231F20;stroke-width:0.3;stroke-linecap:square;" x1="23.368" y1="-19.285" x2="25.961" y2="-18.229"/>
			
				<line style="fill:none;stroke:#231F20;stroke-width:0.3;stroke-linecap:square;" x1="23.971" y1="-20.767" x2="26.564" y2="-19.71"/>
			
				<line style="fill:none;stroke:#231F20;stroke-width:0.3;stroke-linecap:square;" x1="16.76" y1="-20.946" x2="18.668" y2="-22.403"/>
			
				<line style="fill:none;stroke:#231F20;stroke-width:0.3;stroke-linecap:square;" x1="15.546" y1="-21.75" x2="17.909" y2="-23.251"/>
			
				<line style="fill:none;stroke:#231F20;stroke-width:0.3;stroke-linecap:square;" x1="13.309" y1="-13.827" x2="10.599" y2="-13.125"/>
			
				<line style="fill:none;stroke:#231F20;stroke-width:0.3;stroke-linecap:square;" x1="13.61" y1="-12.379" x2="10.9" y2="-11.676"/>
			
				<line style="fill:none;stroke:#231F20;stroke-width:0.3;stroke-linecap:square;" x1="13.787" y1="-21.901" x2="12.492" y2="-19.419"/>
			
				<line style="fill:none;stroke:#231F20;stroke-width:0.3;stroke-linecap:square;" x1="9.405" y1="-26.421" x2="9.94" y2="-23.673"/>
			
				<line style="fill:none;stroke:#231F20;stroke-width:0.3;stroke-linecap:square;" x1="10.975" y1="-26.727" x2="11.51" y2="-23.979"/>
			
				<line style="fill:none;stroke:#231F20;stroke-width:0.3;stroke-linecap:square;" x1="6.137" y1="-27.591" x2="8.61" y2="-26.279"/>
			
				<line style="fill:none;stroke:#231F20;stroke-width:0.3;stroke-linecap:square;" x1="7.31" y1="-23.779" x2="6.839" y2="-21.381"/>
			
				<line style="fill:none;stroke:#231F20;stroke-width:0.3;stroke-linecap:square;" x1="8.939" y1="-23.828" x2="8.41" y2="-21.079"/>
			
				<line style="fill:none;stroke:#231F20;stroke-width:0.3;stroke-linecap:square;" x1="28.457" y1="-12.698" x2="29.423" y2="-9.679"/>
			
				<line style="fill:none;stroke:#231F20;stroke-width:0.3;stroke-linecap:square;" x1="30.123" y1="-12.679" x2="30.421" y2="-10.08"/>
			
				<line style="fill:none;stroke:#231F20;stroke-width:0.3;stroke-linecap:square;" x1="27.122" y1="-15.795" x2="25.52" y2="-13.498"/>
			
				<line style="fill:none;stroke:#231F20;stroke-width:0.3;stroke-linecap:square;" x1="28.22" y1="-15.262" x2="27.523" y2="-13.079"/>
			
				<line style="fill:none;stroke:#231F20;stroke-width:0.3;stroke-linecap:square;" x1="16.689" y1="-19.26" x2="17.01" y2="-16.479"/>
			
				<line style="fill:none;stroke:#231F20;stroke-width:0.3;stroke-linecap:square;" x1="17.883" y1="-19.583" x2="18.563" y2="-16.867"/>
			
				<line style="fill:none;stroke:#231F20;stroke-width:0.3;stroke-linecap:square;" x1="27.034" y1="-28.428" x2="24.496" y2="-27.244"/>
			
				<line style="fill:none;stroke:#231F20;stroke-width:0.3;stroke-linecap:square;" x1="27.611" y1="-27.279" x2="25.174" y2="-25.795"/>
			
				<line style="fill:none;stroke:#231F20;stroke-width:0.3;stroke-linecap:square;" x1="12.97" y1="-25.389" x2="13.61" y2="-22.779"/>
			
				<line style="fill:none;stroke:#231F20;stroke-width:0.3;stroke-linecap:square;" x1="13.803" y1="-26.298" x2="15.044" y2="-23.788"/>
			
				<line style="fill:none;stroke:#231F20;stroke-width:0.3;stroke-linecap:square;" x1="20.91" y1="-24.679" x2="19.51" y2="-22.179"/>
			
				<line style="fill:none;stroke:#231F20;stroke-width:0.3;stroke-linecap:square;" x1="21.964" y1="-24.21" x2="20.385" y2="-21.899"/>
			
				<line style="fill:none;stroke:#231F20;stroke-width:0.3;stroke-linecap:square;" x1="25.911" y1="-24.079" x2="23.411" y2="-23.079"/>
			
				<line style="fill:none;stroke:#231F20;stroke-width:0.3;stroke-linecap:square;" x1="26.111" y1="-22.279" x2="23.611" y2="-22.179"/>
			
				<line style="fill:none;stroke:#231F20;stroke-width:0.3;stroke-linecap:square;" x1="28.4" y1="-23.41" x2="27.723" y2="-20.879"/>
			
				<line style="fill:none;stroke:#231F20;stroke-width:0.3;stroke-linecap:square;" x1="29.489" y1="-22.416" x2="28.1" y2="-19.985"/>
			
				<line style="fill:none;stroke:#231F20;stroke-width:0.3;stroke-linecap:square;" x1="28.767" y1="-9.116" x2="26.232" y2="-7.927"/>
			
				<line style="fill:none;stroke:#231F20;stroke-width:0.3;stroke-linecap:square;" x1="29.446" y1="-7.667" x2="26.911" y2="-6.479"/>
			
				<line style="fill:none;stroke:#231F20;stroke-width:0.3;stroke-linecap:square;" x1="24.811" y1="-15.579" x2="23.111" y2="-17.479"/>
			
				<line style="fill:none;stroke:#231F20;stroke-width:0.3;stroke-linecap:square;" x1="23.711" y1="-15.279" x2="21.784" y2="-17.042"/>
			
				<line style="fill:none;stroke:#231F20;stroke-width:0.3;stroke-linecap:square;" x1="18.123" y1="-14.679" x2="19.71" y2="-16.679"/>
			
				<line style="fill:none;stroke:#231F20;stroke-width:0.3;stroke-linecap:square;" x1="19.083" y1="-13.399" x2="20.81" y2="-15.779"/>
			
				<line style="fill:none;stroke:#231F20;stroke-width:0.3;stroke-linecap:square;" x1="14.881" y1="-17.77" x2="12.097" y2="-18.068"/>
			
				<line style="fill:none;stroke:#231F20;stroke-width:0.3;stroke-linecap:square;" x1="14.51" y1="-16.479" x2="11.773" y2="-17.065"/>
			
				<line style="fill:none;stroke:#231F20;stroke-width:0.3;stroke-linecap:square;" x1="8.611" y1="-15.679" x2="10.851" y2="-13.999"/>
			
				<line style="fill:none;stroke:#231F20;stroke-width:0.3;stroke-linecap:square;" x1="9.571" y1="-16.959" x2="11.81" y2="-15.279"/>
			
				<line style="fill:none;stroke:#231F20;stroke-width:0.3;stroke-linecap:square;" x1="11.507" y1="-10.583" x2="11.279" y2="-7.792"/>
			
				<line style="fill:none;stroke:#231F20;stroke-width:0.3;stroke-linecap:square;" x1="13.01" y1="-10.379" x2="12.633" y2="-7.41"/>
			
				<line style="fill:none;stroke:#231F20;stroke-width:0.3;stroke-linecap:square;" x1="13.979" y1="-14.247" x2="15.959" y2="-12.267"/>
			
				<line style="fill:none;stroke:#231F20;stroke-width:0.3;stroke-linecap:square;" x1="15.11" y1="-15.379" x2="17.09" y2="-13.399"/>
			
				<line style="fill:none;stroke:#231F20;stroke-width:0.3;stroke-linecap:square;" x1="9.31" y1="-11.879" x2="7.483" y2="-10.197"/>
			
				<line style="fill:none;stroke:#231F20;stroke-width:0.3;stroke-linecap:square;" x1="10.221" y1="-10.898" x2="8.01" y2="-9.179"/>
			
				<line style="fill:none;stroke:#231F20;stroke-width:0.3;stroke-linecap:square;" x1="28.359" y1="-24.543" x2="31.149" y2="-24.785"/>
			
				<line style="fill:none;stroke:#231F20;stroke-width:0.3;stroke-linecap:square;" x1="28.411" y1="-25.879" x2="31.011" y2="-26.379"/>
			
				<line style="fill:none;stroke:#231F20;stroke-width:0.3;stroke-linecap:square;" x1="20.41" y1="-21.079" x2="20.71" y2="-18.279"/>
			
				<line style="fill:none;stroke:#231F20;stroke-width:0.3;stroke-linecap:square;" x1="22.011" y1="-21.079" x2="21.811" y2="-18.879"/>
			
				<line style="fill:none;stroke:#231F20;stroke-width:0.3;stroke-linecap:square;" x1="10.696" y1="-29.935" x2="9.549" y2="-27.947"/>
			
				<line style="fill:none;stroke:#231F20;stroke-width:0.3;stroke-linecap:square;" x1="8.495" y1="-17.488" x2="10.796" y2="-19.084"/>
			
				<line style="fill:none;stroke:#231F20;stroke-width:0.3;stroke-linecap:square;" x1="7.583" y1="-18.803" x2="9.885" y2="-20.399"/>
			<line style="fill:none;stroke:#231F20;stroke-width:0.3;stroke-linecap:square;" x1="7.565" y1="-7.085" x2="9.31" y2="-5.379"/>
			
				<line style="fill:none;stroke:#231F20;stroke-width:0.3;stroke-linecap:square;" x1="8.537" y1="-7.754" x2="10.11" y2="-6.379"/>
			
				<line style="fill:none;stroke:#231F20;stroke-width:0.3;stroke-linecap:square;" x1="30.211" y1="-21.479" x2="31.938" y2="-19.275"/>
			
				<line style="fill:none;stroke:#231F20;stroke-width:0.3;stroke-linecap:square;" x1="31.27" y1="-22.366" x2="32.997" y2="-20.162"/>
			
				<line style="fill:none;stroke:#231F20;stroke-width:0.3;stroke-linecap:square;" x1="29.309" y1="-18.928" x2="26.599" y2="-18.225"/>
			
				<line style="fill:none;stroke:#231F20;stroke-width:0.3;stroke-linecap:square;" x1="29.711" y1="-17.379" x2="27" y2="-16.676"/>
			
				<line style="fill:none;stroke:#231F20;stroke-width:0.3;stroke-linecap:square;" x1="12.21" y1="-22.579" x2="9.447" y2="-22.751"/>
			
				<line style="fill:none;stroke:#231F20;stroke-width:0.3;stroke-linecap:square;" x1="12.41" y1="-21.479" x2="9.628" y2="-21.161"/>
			
				<line style="fill:none;stroke:#231F20;stroke-width:0.3;stroke-linecap:square;" x1="30.015" y1="-8.097" x2="31.586" y2="-5.78"/>
			
				<line style="fill:none;stroke:#231F20;stroke-width:0.3;stroke-linecap:square;" x1="31.338" y1="-8.995" x2="32.911" y2="-6.679"/>
			
				<line style="fill:none;stroke:#231F20;stroke-width:0.3;stroke-linecap:square;" x1="31.411" y1="-18.079" x2="29.926" y2="-16.343"/>
			
				<line style="fill:none;stroke:#231F20;stroke-width:0.3;stroke-linecap:square;" x1="32.764" y1="-17.876" x2="31.286" y2="-15.499"/>
			
				<line style="fill:none;stroke:#231F20;stroke-width:0.3;stroke-linecap:square;" x1="32.929" y1="-5.741" x2="30.718" y2="-4.023"/>
			
				<line style="fill:none;stroke:#231F20;stroke-width:0.3;stroke-linecap:square;" x1="28.411" y1="-5.079" x2="29.511" y2="-2.379"/>
			
				<line style="fill:none;stroke:#231F20;stroke-width:0.3;stroke-linecap:square;" x1="31.488" y1="-26.178" x2="33.961" y2="-24.865"/>
			
				<line style="fill:none;stroke:#231F20;stroke-width:0.3;stroke-linecap:square;" x1="12.542" y1="-26.591" x2="14.31" y2="-27.679"/>
			
				<line style="fill:none;stroke:#231F20;stroke-width:0.3;stroke-linecap:square;" x1="11.446" y1="-27.55" x2="13.989" y2="-28.723"/>
			
				<line style="fill:none;stroke:#231F20;stroke-width:0.3;stroke-linecap:square;" x1="20.36" y1="-27.129" x2="22.261" y2="-25.229"/>
			
				<line style="fill:none;stroke:#231F20;stroke-width:0.3;stroke-linecap:square;" x1="21.62" y1="-28.116" x2="23.347" y2="-25.912"/>
			
				<line style="fill:none;stroke:#231F20;stroke-width:0.3;stroke-linecap:square;" x1="33.002" y1="-14.585" x2="30.911" y2="-13.579"/>
			
				<line style="fill:none;stroke:#231F20;stroke-width:0.3;stroke-linecap:square;" x1="34.136" y1="-13.548" x2="31.691" y2="-12.182"/>
			
				<line style="fill:none;stroke:#231F20;stroke-width:0.3;stroke-linecap:square;" x1="17.91" y1="-28.879" x2="18.41" y2="-28.779"/>
			
				<line style="fill:none;stroke:#231F20;stroke-width:0.3;stroke-linecap:square;" x1="17.61" y1="-27.679" x2="17.51" y2="-27.979"/>
			
				<line style="fill:none;stroke:#231F20;stroke-width:0.3;stroke-linecap:square;" x1="19.51" y1="-25.479" x2="19.81" y2="-25.679"/>
			
				<line style="fill:none;stroke:#231F20;stroke-width:0.3;stroke-linecap:square;" x1="23.911" y1="-26.379" x2="24.411" y2="-26.379"/>
			
				<line style="fill:none;stroke:#231F20;stroke-width:0.3;stroke-linecap:square;" x1="26.611" y1="-24.579" x2="26.911" y2="-24.279"/>
			
				<line style="fill:none;stroke:#231F20;stroke-width:0.3;stroke-linecap:square;" x1="30.211" y1="-23.179" x2="30.511" y2="-23.479"/>
			
				<line style="fill:none;stroke:#231F20;stroke-width:0.3;stroke-linecap:square;" x1="30.811" y1="-28.079" x2="30.611" y2="-27.679"/>
			
				<line style="fill:none;stroke:#231F20;stroke-width:0.3;stroke-linecap:square;" x1="8.31" y1="-24.979" x2="8.61" y2="-24.779"/>
			
				<line style="fill:none;stroke:#231F20;stroke-width:0.3;stroke-linecap:square;" x1="10.81" y1="-18.079" x2="10.81" y2="-17.779"/>
			
				<line style="fill:none;stroke:#231F20;stroke-width:0.3;stroke-linecap:square;" x1="8.11" y1="-16.479" x2="7.51" y2="-16.479"/>
			<line style="fill:none;stroke:#231F20;stroke-width:0.3;stroke-linecap:square;" x1="9.81" y1="-8.579" x2="10.01" y2="-9.079"/>
			
				<line style="fill:none;stroke:#231F20;stroke-width:0.3;stroke-linecap:square;" x1="13.21" y1="-15.279" x2="12.91" y2="-15.679"/>
			
				<line style="fill:none;stroke:#231F20;stroke-width:0.3;stroke-linecap:square;" x1="25.611" y1="-16.679" x2="25.911" y2="-16.979"/>
			
				<line style="fill:none;stroke:#231F20;stroke-width:0.3;stroke-linecap:square;" x1="21.623" y1="-15.579" x2="21.823" y2="-15.179"/>
			
				<line style="fill:none;stroke:#231F20;stroke-width:0.3;stroke-linecap:square;" x1="16.11" y1="-22.879" x2="16.41" y2="-23.179"/>
			
				<line style="fill:none;stroke:#231F20;stroke-width:0.3;stroke-linecap:square;" x1="15.21" y1="-19.279" x2="15.71" y2="-18.979"/>
			<line style="fill:none;stroke:#231F20;stroke-width:0.3;stroke-linecap:square;" x1="9.61" y1="-4.579" x2="9.51" y2="-3.979"/>
			
				<line style="fill:none;stroke:#231F20;stroke-width:0.3;stroke-linecap:square;" x1="21.211" y1="-16.879" x2="21.01" y2="-17.379"/>
			
				<line style="fill:none;stroke:#231F20;stroke-width:0.3;stroke-linecap:square;" x1="32.929" y1="-31.842" x2="30.718" y2="-30.123"/>
			
				<line style="fill:none;stroke:#231F20;stroke-width:0.3;stroke-linecap:square;" x1="33.911" y1="-30.579" x2="31.7" y2="-28.86"/>
			
				<line style="fill:none;stroke:#231F20;stroke-width:0.3;stroke-linecap:square;" x1="24.786" y1="-31.468" x2="23.311" y2="-29.279"/>
			
				<line style="fill:none;stroke:#231F20;stroke-width:0.3;stroke-linecap:square;" x1="25.883" y1="-30.303" x2="23.843" y2="-28.385"/>
			
				<line style="fill:none;stroke:#231F20;stroke-width:0.3;stroke-linecap:square;" x1="27.164" y1="-30.69" x2="28.111" y2="-28.379"/>
			
				<line style="fill:none;stroke:#231F20;stroke-width:0.3;stroke-linecap:square;" x1="28.411" y1="-31.179" x2="29.511" y2="-28.479"/>
			
				<line style="fill:none;stroke:#231F20;stroke-width:0.3;stroke-linecap:square;" x1="17.11" y1="-30.979" x2="14.833" y2="-29.226"/>
			
				<line style="fill:none;stroke:#231F20;stroke-width:0.3;stroke-linecap:square;" x1="18.71" y1="-30.579" x2="16.029" y2="-28.162"/>
			
				<line style="fill:none;stroke:#231F20;stroke-width:0.3;stroke-linecap:square;" x1="9.61" y1="-30.679" x2="9.51" y2="-30.079"/>
			
				<line style="fill:none;stroke:#231F20;stroke-width:0.3;stroke-linecap:square;" x1="11.599" y1="-31.41" x2="13.31" y2="-29.079"/>
			
				<line style="fill:none;stroke:#231F20;stroke-width:0.3;stroke-linecap:square;" x1="12.731" y1="-32.541" x2="14.442" y2="-30.21"/>
			
				<line style="fill:none;stroke:#231F20;stroke-width:0.3;stroke-linecap:square;" x1="29.323" y1="-6.579" x2="29.523" y2="-6.079"/>
			
				<line style="fill:none;stroke:#231F20;stroke-width:0.3;stroke-linecap:square;" x1="21.411" y1="-31.379" x2="21.611" y2="-28.779"/>
			
				<line style="fill:none;stroke:#231F20;stroke-width:0.3;stroke-linecap:square;" x1="20.31" y1="-31.679" x2="19.71" y2="-28.979"/>
			
				<line style="fill:none;stroke:#231F20;stroke-width:0.3;stroke-linecap:square;" x1="24.211" y1="-24.879" x2="24.511" y2="-24.579"/>
			
				<line style="fill:none;stroke:#231F20;stroke-width:0.3;stroke-linecap:square;" x1="19.01" y1="-20.179" x2="19.51" y2="-20.079"/>
			
				<line style="fill:none;stroke:#231F20;stroke-width:0.3;stroke-linecap:square;" x1="31.311" y1="-9.979" x2="31.611" y2="-10.279"/>
			
				<line style="fill:none;stroke:#231F20;stroke-width:0.3;stroke-linecap:square;" x1="9.21" y1="-29.679" x2="7.849" y2="-27.947"/>
			
				<line style="fill:none;stroke:#231F20;stroke-width:0.3;stroke-linecap:square;" x1="30.511" y1="-15.079" x2="31.011" y2="-14.979"/>
			
				<line style="fill:none;stroke:#231F20;stroke-width:0.3;stroke-linecap:square;" x1="15.21" y1="-26.379" x2="15.61" y2="-26.079"/>
			
				<line style="fill:none;stroke:#231F20;stroke-width:0.3;stroke-linecap:square;" x1="20.41" y1="-28.579" x2="20.51" y2="-28.079"/>
			
				<line style="fill:none;stroke:#231F20;stroke-width:0.3;stroke-linecap:square;" x1="10.31" y1="-26.979" x2="10.51" y2="-27.579"/>
			
				<line style="fill:none;stroke:#231F20;stroke-width:0.75;stroke-linecap:round;" x1="7.21" y1="-28.879" x2="7.21" y2="-28.879"/>
			
				<line style="fill:none;stroke:#231F20;stroke-width:0.75;stroke-linecap:round;" x1="8.41" y1="-27.579" x2="8.41" y2="-27.579"/>
			
				<line style="fill:none;stroke:#231F20;stroke-width:0.75;stroke-linecap:round;" x1="11.11" y1="-29.779" x2="11.11" y2="-29.779"/>
			
				<line style="fill:none;stroke:#231F20;stroke-width:0.75;stroke-linecap:round;" x1="15.21" y1="-26.979" x2="15.21" y2="-26.979"/>
			
				<line style="fill:none;stroke:#231F20;stroke-width:0.75;stroke-linecap:round;" x1="12.71" y1="-24.279" x2="12.71" y2="-24.279"/>
			
				<line style="fill:none;stroke:#231F20;stroke-width:0.75;stroke-linecap:round;" x1="11.71" y1="-20.379" x2="11.71" y2="-20.379"/>
			
				<line style="fill:none;stroke:#231F20;stroke-width:0.75;stroke-linecap:round;" x1="7.41" y1="-20.779" x2="7.41" y2="-20.779"/>
			
				<line style="fill:none;stroke:#231F20;stroke-width:0.75;stroke-linecap:round;" x1="14.11" y1="-15.979" x2="14.11" y2="-15.979"/>
			
				<line style="fill:none;stroke:#231F20;stroke-width:0.75;stroke-linecap:round;" x1="16.21" y1="-17.679" x2="16.21" y2="-17.679"/>
			
				<line style="fill:none;stroke:#231F20;stroke-width:0.75;stroke-linecap:round;" x1="19.31" y1="-21.079" x2="19.31" y2="-21.079"/>
			
				<line style="fill:none;stroke:#231F20;stroke-width:0.75;stroke-linecap:round;" x1="17.11" y1="-14.279" x2="17.11" y2="-14.279"/>
			
				<line style="fill:none;stroke:#231F20;stroke-width:0.75;stroke-linecap:round;" x1="19.01" y1="-13.179" x2="19.01" y2="-13.179"/>
			
				<line style="fill:none;stroke:#231F20;stroke-width:0.75;stroke-linecap:round;" x1="13.41" y1="-11.479" x2="13.41" y2="-11.479"/>
			
				<line style="fill:none;stroke:#231F20;stroke-width:0.75;stroke-linecap:round;" x1="22.711" y1="-20.479" x2="22.711" y2="-20.479"/>
			
				<line style="fill:none;stroke:#231F20;stroke-width:0.75;stroke-linecap:round;" x1="22.611" y1="-23.879" x2="22.611" y2="-23.879"/>
			
				<line style="fill:none;stroke:#231F20;stroke-width:0.75;stroke-linecap:round;" x1="29.211" y1="-27.379" x2="29.211" y2="-27.379"/>
			
				<line style="fill:none;stroke:#231F20;stroke-width:0.75;stroke-linecap:round;" x1="26.011" y1="-28.779" x2="26.011" y2="-28.779"/>
			
				<line style="fill:none;stroke:#231F20;stroke-width:0.75;stroke-linecap:round;" x1="30.311" y1="-19.479" x2="30.311" y2="-19.479"/>
			
				<line style="fill:none;stroke:#231F20;stroke-width:0.75;stroke-linecap:round;" x1="29.711" y1="-15.079" x2="29.711" y2="-15.079"/>
			
				<line style="fill:none;stroke:#231F20;stroke-width:0.75;stroke-linecap:round;" x1="27.511" y1="-12.379" x2="27.511" y2="-12.379"/>
			
				<line style="fill:none;stroke:#231F20;stroke-width:0.75;stroke-linecap:round;" x1="28.911" y1="-8.379" x2="28.911" y2="-8.379"/>
			
				<line style="fill:none;stroke:#231F20;stroke-width:0.75;stroke-linecap:round;" x1="25.911" y1="-6.479" x2="25.911" y2="-6.479"/>
			
				<line style="fill:none;stroke:#231F20;stroke-width:0.75;stroke-linecap:round;" x1="17.31" y1="-5.979" x2="17.31" y2="-5.979"/>
			
				<line style="fill:none;stroke:#231F20;stroke-width:0.75;stroke-linecap:round;" x1="21.711" y1="-4.979" x2="21.711" y2="-4.979"/>
			
				<line style="fill:none;stroke:#231F20;stroke-width:0.75;stroke-linecap:round;" x1="16.01" y1="-24.079" x2="16.01" y2="-24.079"/>
			
				<line style="fill:none;stroke:#231F20;stroke-width:0.75;stroke-linecap:round;" x1="10.21" y1="-5.279" x2="10.21" y2="-5.279"/>
			<line style="fill:none;stroke:#231F20;stroke-width:0.75;stroke-linecap:round;" x1="6.21" y1="-9.779" x2="6.21" y2="-9.779"/>
			
				<line style="fill:none;stroke:#231F20;stroke-width:0.75;stroke-linecap:round;" x1="7.41" y1="-12.679" x2="7.41" y2="-12.679"/>
			
				<line style="fill:none;stroke:#231F20;stroke-width:0.75;stroke-linecap:round;" x1="9.51" y1="-14.179" x2="9.51" y2="-14.179"/>
			
				<line style="fill:none;stroke:#231F20;stroke-width:0.75;stroke-linecap:round;" x1="9.81" y1="-12.679" x2="9.81" y2="-12.679"/>
			
				<line style="fill:none;stroke:#231F20;stroke-width:0.75;stroke-linecap:round;" x1="26.211" y1="-21.379" x2="26.211" y2="-21.379"/>
			
				<line style="fill:none;stroke:#231F20;stroke-width:0.75;stroke-linecap:round;" x1="25.111" y1="-17.479" x2="25.111" y2="-17.479"/>
			
				<line style="fill:none;stroke:#231F20;stroke-width:0.75;stroke-linecap:round;" x1="24.411" y1="-14.179" x2="24.411" y2="-14.179"/>
			
				<line style="fill:none;stroke:#231F20;stroke-width:0.75;stroke-linecap:round;" x1="17.01" y1="-20.479" x2="17.01" y2="-20.479"/>
			
				<line style="fill:none;stroke:#231F20;stroke-width:0.75;stroke-linecap:round;" x1="15.61" y1="-8.179" x2="15.61" y2="-8.179"/>
			
				<line style="fill:none;stroke:#231F20;stroke-width:0.75;stroke-linecap:round;" x1="15.61" y1="-4.979" x2="15.61" y2="-4.979"/>
			
				<line style="fill:none;stroke:#231F20;stroke-width:0.75;stroke-linecap:round;" x1="13.46" y1="-6.579" x2="13.46" y2="-6.579"/>
			
				<line style="fill:none;stroke:#231F20;stroke-width:0.75;stroke-linecap:round;" x1="16.56" y1="-15.579" x2="16.56" y2="-15.579"/>
			
				<line style="fill:none;stroke:#231F20;stroke-width:0.75;stroke-linecap:round;" x1="30.311" y1="-5.579" x2="30.311" y2="-5.579"/>
			<line style="fill:none;stroke:#231F20;stroke-width:0.75;stroke-linecap:round;" x1="7.71" y1="-7.979" x2="7.71" y2="-7.979"/>
			
				<line style="fill:none;stroke:#231F20;stroke-width:0.75;stroke-linecap:round;" x1="19.41" y1="-18.479" x2="19.41" y2="-18.479"/>
			
				<line style="fill:none;stroke:#231F20;stroke-width:0.75;stroke-linecap:round;" x1="19.21" y1="-24.479" x2="19.21" y2="-24.479"/>
			
				<line style="fill:none;stroke:#231F20;stroke-width:0.75;stroke-linecap:round;" x1="19.71" y1="-27.179" x2="19.71" y2="-27.179"/>
			
				<line style="fill:none;stroke:#231F20;stroke-width:0.75;stroke-linecap:round;" x1="25.811" y1="-8.079" x2="25.811" y2="-8.079"/>
			
				<line style="fill:none;stroke:#231F20;stroke-width:0.75;stroke-linecap:round;" x1="25.511" y1="-12.479" x2="25.511" y2="-12.479"/>
			
				<line style="fill:none;stroke:#231F20;stroke-width:0.75;stroke-linecap:round;" x1="31.011" y1="-11.479" x2="31.011" y2="-11.479"/>
			
				<line style="fill:none;stroke:#231F20;stroke-width:0.75;stroke-linecap:round;" x1="26.811" y1="-23.379" x2="26.811" y2="-23.379"/>
			
				<line style="fill:none;stroke:#231F20;stroke-width:0.75;stroke-linecap:round;" x1="27.111" y1="-22.679" x2="27.111" y2="-22.679"/>
			
				<line style="fill:none;stroke:#231F20;stroke-width:0.75;stroke-linecap:round;" x1="27.211" y1="-26.179" x2="27.211" y2="-26.179"/>
			
				<line style="fill:none;stroke:#231F20;stroke-width:0.75;stroke-linecap:round;" x1="21.911" y1="-22.479" x2="21.911" y2="-22.479"/>
			
				<line style="fill:none;stroke:#231F20;stroke-width:0.75;stroke-linecap:round;" x1="25.511" y1="-19.479" x2="25.511" y2="-19.479"/>
			
				<line style="fill:none;stroke:#231F20;stroke-width:0.75;stroke-linecap:round;" x1="29.711" y1="-20.779" x2="29.711" y2="-20.779"/>
			
				<line style="fill:none;stroke:#231F20;stroke-width:0.75;stroke-linecap:round;" x1="30.311" y1="-17.879" x2="30.311" y2="-17.879"/>
			
				<line style="fill:none;stroke:#231F20;stroke-width:0.75;stroke-linecap:round;" x1="6.31" y1="-23.879" x2="6.31" y2="-23.879"/>
		</g>
		<g>
			
				<line style="fill:none;stroke:#231F20;stroke-width:0.3;stroke-linecap:square;" x1="0.211" y1="-21.479" x2="1.938" y2="-19.275"/>
			
				<line style="fill:none;stroke:#231F20;stroke-width:0.3;stroke-linecap:square;" x1="1.27" y1="-22.366" x2="2.997" y2="-20.162"/>
			
				<line style="fill:none;stroke:#231F20;stroke-width:0.3;stroke-linecap:square;" x1="1.338" y1="-8.995" x2="2.911" y2="-6.679"/>
			
				<line style="fill:none;stroke:#231F20;stroke-width:0.3;stroke-linecap:square;" x1="2.764" y1="-17.876" x2="1.286" y2="-15.499"/>
			
				<line style="fill:none;stroke:#231F20;stroke-width:0.3;stroke-linecap:square;" x1="2.929" y1="-5.741" x2="0.718" y2="-4.023"/>
			
				<line style="fill:none;stroke:#231F20;stroke-width:0.3;stroke-linecap:square;" x1="1.488" y1="-26.178" x2="3.961" y2="-24.865"/>
			
				<line style="fill:none;stroke:#231F20;stroke-width:0.3;stroke-linecap:square;" x1="3.002" y1="-14.585" x2="0.911" y2="-13.579"/>
			
				<line style="fill:none;stroke:#231F20;stroke-width:0.3;stroke-linecap:square;" x1="4.136" y1="-13.548" x2="1.691" y2="-12.182"/>
			
				<line style="fill:none;stroke:#231F20;stroke-width:0.3;stroke-linecap:square;" x1="2.929" y1="-31.842" x2="0.718" y2="-30.123"/>
			<line style="fill:none;stroke:#231F20;stroke-width:0.3;stroke-linecap:square;" x1="3.911" y1="-30.579" x2="1.7" y2="-28.86"/>
		</g>
		<g>
			
				<line style="fill:none;stroke:#231F20;stroke-width:0.3;stroke-linecap:square;" x1="25.883" y1="-34.203" x2="23.843" y2="-32.285"/>
			
				<line style="fill:none;stroke:#231F20;stroke-width:0.3;stroke-linecap:square;" x1="27.164" y1="-34.59" x2="28.111" y2="-32.279"/>
			
				<line style="fill:none;stroke:#231F20;stroke-width:0.3;stroke-linecap:square;" x1="18.71" y1="-34.479" x2="16.029" y2="-32.062"/>
			
				<line style="fill:none;stroke:#231F20;stroke-width:0.3;stroke-linecap:square;" x1="28.411" y1="-35.079" x2="29.511" y2="-32.379"/>
		</g>
	</g>
</pattern>
<g id="icon_x5F_003">
	<rect style="display:none;fill:#F2F2F2;" width="90" height="90"/>
	<g>
		<path style="fill:#B1BB86;" d="M68.325,13.831c-0.194-1.694-1.442-3.079-3.106-3.449L57,9l-3.801-4.561
			C52.439,3.527,51.314,3,50.126,3H47h-7.126c-1.187,0-2.313,0.527-3.073,1.439L33,9l-8.219,1.382
			c-1.665,0.37-2.912,1.755-3.106,3.449L15,71c0,0,1,2,4,2s6,0,6,0l-1,10c0,0,7,4,23,4s19-4,19-4l-1-10c0,0,3,0,6,0s4-2,4-2
			L68.325,13.831z"/>
		<path style="fill:#848D65;stroke:#42210B;stroke-width:2;stroke-linecap:round;stroke-linejoin:round;stroke-miterlimit:10;" d="
			M55,6.6l-1.801-2.161C52.439,3.527,51.314,3,50.127,3H47h-7.127c-1.187,0-2.313,0.527-3.073,1.439L35,6.6V24h20V6.6z"/>
		<g>
			<path style="fill:#C4DBA0;" d="M29.875,9.695l-5.093,0.687c-1.665,0.37-2.912,1.755-3.106,3.449L15,71
				c0,0,0.842,1.634,3.241,1.937l6.434-55.106c0.177-1.542,3.23-2.818,4.672-3.316C28.899,12.922,29.073,11.128,29.875,9.695z"/>
			<path style="fill:#C4DBA0;" d="M68.325,13.831c-0.194-1.694-1.442-3.079-3.106-3.449l-4.491-0.554
				c0.477,1.062,0.637,2.275,0.488,3.442l7.003,1.112c0.061,0.014,0.117,0.038,0.177,0.054L68.325,13.831z"/>
			<path style="fill:#C4DBA0;" d="M32,56c0,0,0-6.898,0-12c0-16-2.639-21.833-3-24l0.16,24L27,62l-3,21c0,0,2.69,0.914,5.152,1.868
				L32,56z"/>
		</g>
		<path style="fill:none;stroke:#42210B;stroke-width:2;stroke-linecap:round;stroke-linejoin:round;stroke-miterlimit:10;" d="
			M25,73c2-18,4-24,4-33c0-7-1-21-1-21"/>
		<path style="fill:none;stroke:#42210B;stroke-width:2;stroke-linecap:round;stroke-linejoin:round;stroke-miterlimit:10;" d="
			M68.325,13.831c-0.194-1.694-1.442-3.079-3.106-3.449L57,9l-3.801-4.561C52.439,3.527,51.314,3,50.126,3H47h-7.126
			c-1.187,0-2.313,0.527-3.073,1.439L33,9l-8.219,1.382c-1.665,0.37-2.912,1.755-3.106,3.449c0,0-0.454,1.277-0.675,3.169
			c-0.094,0.805,0.009,2.54-0.045,3c-0.086,0.736-0.827,1.907-0.955,3c-0.089,0.762,0.431,1.487,0.371,2
			c-0.06,0.513,0.718,1.238,0.629,2c-0.128,1.093-1.127,2.264-1.213,3c-0.146,1.25-1.641,3.75-1.787,5
			c-0.089,0.764,0.986,1.861,0.853,3c-0.172,1.472-0.738,3.013-0.853,4c-0.097,0.827,0.097,3.173,0,4
			c-0.107,0.914-0.292,1.633-0.459,3c-0.139,1.135-0.265,2.238-0.323,3c-0.05,0.657-1.18,1.799-1.218,2.999
			c-0.049,1.532,1,3.159,1,4.001c0,2-0.946,3.49-1.183,5.001C15.545,65.741,15,71,15,71s1,2,4,2s6,0,6,0l-1,10c0,0,7,4,23,4
			s19-4,19-4l-1-10c0,0,3,0,6,0s4-2,4-2L68.325,13.831z"/>
		<path style="fill:none;stroke:#42210B;stroke-width:2;stroke-linecap:round;stroke-linejoin:round;stroke-miterlimit:10;" d="
			M65,73c-2-18-4-24-4-33c0-7,1-21,1-21"/>
		<path style="fill:#C4DBA0;stroke:#42210B;stroke-width:2;stroke-linecap:round;stroke-linejoin:round;stroke-miterlimit:10;" d="
			M40,3c0,0-2,1-2,4s16,34,16,34S36,31,31,21l3.939-3.939c0.673-0.673,0.114-1.817-0.831-1.699L29,16v-6l4-1l2.813-4.219
			C36.554,3.668,37.803,3,39.141,3H40z"/>
		<path style="fill:#B1BB86;" d="M55.892,15.362L61,16v-6l-4-1l-2.813-4.219C53.446,3.668,52.197,3,50.859,3H50c0,0,2,1,2,4
			c0,1.333-2.368,8.19-5,15.401c1.196,3.278,2.444,6.621,3.552,9.559C53.827,28.684,57.078,24.843,59,21l-3.939-3.939
			C54.388,16.388,54.947,15.243,55.892,15.362z"/>
		<g>
			<path style="fill:#C4DBA0;" d="M52.562,6.405c-0.211,0-0.415-0.012-0.614-0.03C51.969,6.58,52,6.773,52,7
				c0,1.333-3.368,9.789-6,17c0.39,1.069,2.709,5.825,3,6c2.58-7.081,5-17.689,5-19c0-1.727-0.662-3.45-1.224-4.605
				C52.704,6.397,52.636,6.405,52.562,6.405z"/>
			<path style="fill:#C4DBA0;" d="M56.914,8.871c-0.23-0.064-0.451-0.138-0.66-0.227C56.56,9.233,56.82,9.73,57,10l4,4v-4l-4-1
				L56.914,8.871z"/>
		</g>
		<path style="fill:none;stroke:#42210B;stroke-width:2;stroke-linecap:round;stroke-linejoin:round;stroke-miterlimit:10;" d="
			M55.892,15.362L61,16v-6l-4-1l-2.813-4.219C53.446,3.668,52.197,3,50.859,3H50c0,0,2,1,2,4c0,1.333-3.368,10.789-6,18
			c1.196,3.278,2.892,5.062,4,8c3.275-3.276,7.078-8.157,9-12l-3.939-3.939C54.388,16.388,54.947,15.243,55.892,15.362z"/>
		<path style="fill:none;stroke:#42210B;stroke-width:2;stroke-linecap:round;stroke-linejoin:round;stroke-miterlimit:10;" d="
			M54,41c3,27,2,32.74,2,45"/>
		
			<polygon style="fill:#C4DBA0;stroke:#42210B;stroke-width:2;stroke-linecap:round;stroke-linejoin:round;stroke-miterlimit:10;" points="
			29,50 32,51 32,55 28,54 		"/>
		
			<polygon style="fill:none;stroke:#42210B;stroke-width:2;stroke-linecap:round;stroke-linejoin:round;stroke-miterlimit:10;" points="
			61,50 58,51 58,55 62,54 		"/>
		<g>
			<circle style="fill:#C4DBA0;" cx="38.5" cy="63.5" r="0.5"/>
			<path style="fill:#42210B;" d="M38.5,62c-0.828,0-1.5,0.672-1.5,1.5s0.672,1.5,1.5,1.5s1.5-0.672,1.5-1.5S39.328,62,38.5,62
				L38.5,62z"/>
		</g>
		<g>
			<path style="fill:#42210B;" d="M51.5,62c-0.828,0-1.5,0.672-1.5,1.5s0.672,1.5,1.5,1.5s1.5-0.672,1.5-1.5S52.328,62,51.5,62
				L51.5,62z"/>
		</g>
		<g>
			<path style="fill:#42210B;" d="M40.735,53.045h0.005H40.735 M38.996,52.084c-0.086,0-0.524,1.441-0.996,1.916
				c0,0-0.424-0.035-0.695-0.035c-0.133,0-0.229,0.008-0.22,0.033C37.29,54.582,37.846,55,38.5,55c0.828,0,1.5-0.672,1.5-1.5
				c0-0.654-0.418-1.21-1.002-1.415C38.998,52.085,38.997,52.084,38.996,52.084L38.996,52.084z"/>
		</g>
		<g>
			<path style="fill:#42210B;" d="M51.5,52c-0.828,0-1.5,0.672-1.5,1.5s0.672,1.5,1.5,1.5s1.5-0.672,1.5-1.5S52.328,52,51.5,52
				L51.5,52z"/>
		</g>
		<g>
			<path style="fill:#42210B;" d="M38.5,42c-0.828,0-1.5,0.672-1.5,1.5s0.672,1.5,1.5,1.5s1.5-0.672,1.5-1.5S39.328,42,38.5,42
				L38.5,42z"/>
		</g>
		<g>
			<path style="fill:#42210B;" d="M51.5,42c-0.828,0-1.5,0.672-1.5,1.5s0.672,1.5,1.5,1.5s1.5-0.672,1.5-1.5S52.328,42,51.5,42
				L51.5,42z"/>
		</g>
		<path style="fill:none;stroke:#42210B;stroke-linecap:round;stroke-linejoin:round;stroke-miterlimit:10;" d="M23.5,11.5
			c2,2,4.5,8.5,4.5,8.5"/>
		<path style="fill:none;stroke:#42210B;stroke-linecap:round;stroke-linejoin:round;stroke-miterlimit:10;" d="M66.5,11.5
			c-2,2-4.5,8.5-4.5,8.5"/>
	</g>
	<g>
		<polygon style="fill:#848D65;stroke:#42210B;stroke-linecap:round;stroke-linejoin:round;stroke-miterlimit:10;" points="
			37.5,75.5 36.005,76.752 33.5,76.5 33.5,70.5 36.005,71.752 37.5,71.5 		"/>
		<path style="fill:#C4DBA0;stroke:#42210B;stroke-linecap:round;stroke-linejoin:round;stroke-miterlimit:10;" d="M33.5,75.5
			c0,0-1,3-1,6c1-1,1.5-1.5,1.5-1.5l0.5,0.5l1-0.5l1,0.5v-4L33.5,75.5"/>
		
			<line style="fill:none;stroke:#42210B;stroke-linecap:round;stroke-linejoin:round;stroke-miterlimit:10;" x1="41.5" y1="75.5" x2="39.5" y2="81.5"/>
		
			<line style="fill:none;stroke:#42210B;stroke-linecap:round;stroke-linejoin:round;stroke-miterlimit:10;" x1="42.5" y1="77.5" x2="41.5" y2="81.5"/>
		
			<line style="fill:none;stroke:#42210B;stroke-linecap:round;stroke-linejoin:round;stroke-miterlimit:10;" x1="35.5" y1="32.5" x2="32.5" y2="38.5"/>
		
			<line style="fill:none;stroke:#42210B;stroke-linecap:round;stroke-linejoin:round;stroke-miterlimit:10;" x1="36.5" y1="35.5" x2="34.5" y2="39.5"/>
		
			<line style="fill:none;stroke:#42210B;stroke-linecap:round;stroke-linejoin:round;stroke-miterlimit:10;" x1="32.5" y1="33.5" x2="37.5" y2="37.5"/>
		
			<line style="fill:none;stroke:#42210B;stroke-linecap:round;stroke-linejoin:round;stroke-miterlimit:10;" x1="31.5" y1="35.5" x2="35.5" y2="38.5"/>
		
			<line style="fill:none;stroke:#42210B;stroke-linecap:round;stroke-linejoin:round;stroke-miterlimit:10;" x1="21.5" y1="60.5" x2="20.5" y2="67.5"/>
		
			<line style="fill:none;stroke:#42210B;stroke-linecap:round;stroke-linejoin:round;stroke-miterlimit:10;" x1="23.5" y1="61.5" x2="22.5" y2="64.5"/>
		
			<line style="fill:none;stroke:#42210B;stroke-linecap:round;stroke-linejoin:round;stroke-miterlimit:10;" x1="24.5" y1="42.5" x2="23.5" y2="46.5"/>
		
			<line style="fill:none;stroke:#42210B;stroke-linecap:round;stroke-linejoin:round;stroke-miterlimit:10;" x1="25.5" y1="30.5" x2="24.5" y2="33.5"/>
		
			<line style="fill:none;stroke:#42210B;stroke-linecap:round;stroke-linejoin:round;stroke-miterlimit:10;" x1="30.5" y1="60.5" x2="34.5" y2="63.5"/>
		
			<line style="fill:none;stroke:#42210B;stroke-linecap:round;stroke-linejoin:round;stroke-miterlimit:10;" x1="30.5" y1="63.5" x2="33.5" y2="65.5"/>
		<pattern  id="SVGID_1_" xlink:href="#Bird_Feet" patternTransform="matrix(1 0 0 1 6 18)">
		</pattern>
		<path style="fill:url(#SVGID_1_);" d="M33.884,14.382L30,14.867v-4.086l1.303-0.326C31.751,12.011,33.043,13.76,33.884,14.382z
			 M37.647,12.538c0.155,0.227,0.262,0.502,0.281,0.837c0.045,0.788,0.924,3.887,1.31,4.432c0.502,0.588,1.309,1.462,1.323,2.225
			c0.934,1.028,0.927,1.855,0.658,2.868c0.017,0.117,0.027,0.173,0.018,0.286c0.006,0.015,0.004,0.014,0.008,0.025
			c0.408,0.39,1.106,1.079,1.329,1.598c0.449-0.036,0.933-0.069,1.345,0.095c-0.004-0.422,0.105-0.803,0.296-1.131
			C36.61,8.192,36.439,6.955,37.476,4.504c-0.686,0.458-0.945,1.003-1.637,2.041c0.028,1.813-0.105,2.683,1.152,4.027
			C37.568,11.189,37.741,11.888,37.647,12.538z M45,26c-0.082-0.083-3.968-3.966-4-4c-2.461-0.431-7.361-1.297-6.059-3.527
			l-2.712,2.712c2.483,4.46,7.578,8.924,12.269,12.401C44.526,32.53,44.992,26.227,45,26z"/>
	</g>
	
		<line style="fill:none;stroke:#CE171F;stroke-width:2;stroke-linecap:round;stroke-linejoin:round;stroke-miterlimit:10;" x1="45" y1="1" x2="45" y2="89"/>
	
		<line style="fill:none;stroke:#A67C52;stroke-width:2;stroke-linecap:round;stroke-linejoin:round;stroke-miterlimit:10;" x1="1" y1="20" x2="11" y2="30"/>
	
		<line style="fill:none;stroke:#A67C52;stroke-width:2;stroke-linecap:round;stroke-linejoin:round;stroke-miterlimit:10;" x1="11" y1="20" x2="1" y2="30"/>
	
		<polyline style="fill:none;stroke:#8CC63F;stroke-width:2;stroke-linecap:round;stroke-linejoin:round;stroke-miterlimit:10;" points="
		77,25 81,29 89,21 	"/>
</g>
<g id="Layer_1">
</g>
</svg>
