<?xml version="1.0" encoding="utf-8"?>
<!-- Generator: Adobe Illustrator 22.0.1, SVG Export Plug-In . SVG Version: 6.00 Build 0)  -->
<svg version="1.1" id="Слой_1" xmlns="http://www.w3.org/2000/svg" xmlns:xlink="http://www.w3.org/1999/xlink" x="0px" y="0px"
	 viewBox="0 0 90 90" style="enable-background:new 0 0 90 90;" xml:space="preserve">
<style type="text/css">
	.st0{fill:none;stroke:#AA9748;stroke-width:1.688;stroke-miterlimit:10;}
	.st1{fill:none;stroke:#AA9748;stroke-width:0.9646;stroke-miterlimit:10;}
	.st2{fill:#AA8396;}
	.st3{fill:#42210B;}
	.st4{fill:#E4AEC6;}
	.st5{fill:#F6D3D7;}
	.st6{fill:#FCEAAE;}
	.st7{fill:none;stroke:#42210B;stroke-width:0.8222;stroke-linecap:round;stroke-linejoin:round;stroke-miterlimit:10;}
	.st8{fill:#FFFFFF;}
	.st9{fill:none;stroke:#C1C1C1;stroke-width:0.8971;stroke-miterlimit:10;}
	.st10{fill:none;stroke:#5B5B5B;stroke-width:0.8971;stroke-miterlimit:10;}
	.st11{fill:#CAE5FF;}
	.st12{fill:#DCEFFF;}
	.st13{fill:#A3C6D1;}
	.st14{fill:none;stroke:#000000;stroke-width:0.4707;stroke-miterlimit:10;}
	.st15{fill:none;stroke:#000000;stroke-width:0.5883;stroke-miterlimit:10;}
	.st16{fill:#CD2027;}
	.st17{opacity:0.8;fill:#ABCAD8;}
	.st18{opacity:0.8;fill:#A3C6D1;}
	.st19{fill:none;stroke:#000000;stroke-width:0.6594;stroke-miterlimit:10;}
	.st20{fill:#F2C768;stroke:#000000;stroke-width:0.538;stroke-miterlimit:10;}
	.st21{fill:#F7D694;}
	.st22{fill:none;stroke:#000000;stroke-width:0.538;stroke-miterlimit:10;}
	.st23{fill:#BED8E7;}
	.st24{fill:#7EA2BC;}
	.st25{fill:none;stroke:#000000;stroke-width:0.5547;stroke-linecap:round;stroke-linejoin:round;stroke-miterlimit:10;}
	.st26{fill:#C8C9C2;}
	.st27{opacity:0.5;fill:url(#);}
	.st28{fill:#837F7B;}
	.st29{fill:none;stroke:#000000;stroke-width:0.5999;stroke-linecap:round;stroke-linejoin:round;stroke-miterlimit:10;}
	.st30{fill:#C9CAC3;}
	.st31{opacity:0.15;}
	.st32{fill:#847F7B;}
	.st33{fill:none;stroke:#000000;stroke-width:0.5597;stroke-linecap:round;stroke-linejoin:round;stroke-miterlimit:10;}
	.st34{opacity:0.1;}
	.st35{fill:none;stroke:#000000;stroke-width:0.5092;stroke-linecap:round;stroke-linejoin:round;stroke-miterlimit:10;}
	.st36{fill:none;stroke:#000000;stroke-width:0.3879;stroke-linecap:round;stroke-linejoin:round;stroke-miterlimit:10;}
	.st37{fill:#D8BF48;}
	.st38{fill:none;stroke:#000000;stroke-width:0.5749;stroke-miterlimit:10;}
	.st39{fill:#FCE34F;}
	.st40{fill:#E5CB4C;}
	.st41{fill:#55D89C;}
	.st42{fill:none;stroke:#266635;stroke-width:0.7685;stroke-miterlimit:10;}
	.st43{fill:none;stroke:#266635;stroke-width:0.7872;stroke-miterlimit:10;}
	.st44{fill:#C66D6D;}
	.st45{fill:none;stroke:#560000;stroke-width:0.9048;stroke-miterlimit:10;}
	.st46{fill:#E88787;}
	.st47{fill:#FFB6B6;}
	.st48{fill:#FFD2D2;}
	.st49{fill:#D0B18A;}
	.st50{fill:#DFC6A9;}
	.st51{fill:none;stroke:#000000;stroke-width:0.7604;stroke-linecap:round;stroke-linejoin:round;stroke-miterlimit:10;}
	.st52{fill:#EA5353;}
	.st53{fill:#AF3C3C;}
	.st54{fill:#CC3E3E;}
	.st55{fill:none;stroke:#000000;stroke-width:0.6963;stroke-linecap:round;stroke-linejoin:round;stroke-miterlimit:10;}
	.st56{fill:none;stroke:#000000;stroke-width:0.8055;stroke-linecap:round;stroke-linejoin:round;stroke-miterlimit:10;}
	.st57{fill:#466375;}
	.st58{fill:#5A7D9C;}
	.st59{fill:#688BA9;}
	.st60{fill:#C4C3C3;}
	.st61{fill:none;stroke:#000000;stroke-width:0.3587;stroke-linecap:round;stroke-linejoin:round;stroke-miterlimit:10;}
	.st62{fill:#CB9D5C;}
	.st63{fill:#4F372A;}
	.st64{fill:#926044;}
	.st65{opacity:0.2;fill:#FFFFFF;}
	.st66{fill:none;stroke:#000000;stroke-width:0.5272;stroke-linecap:round;stroke-linejoin:round;stroke-miterlimit:10;}
	.st67{fill:none;stroke:#000000;stroke-width:0.6063;stroke-linecap:round;stroke-linejoin:round;stroke-miterlimit:10;}
	.st68{fill:#54A6C3;}
	.st69{fill:none;stroke:#000000;stroke-width:0.7785;stroke-linecap:round;stroke-miterlimit:10;}
	.st70{fill:#CEE7CC;}
	.st71{fill:none;stroke:#94BB93;stroke-width:0.5403;stroke-miterlimit:10;}
	.st72{fill:#92BB98;}
	.st73{fill:none;stroke:#000000;stroke-width:0.6577;stroke-linecap:round;stroke-linejoin:round;stroke-miterlimit:10;}
</style>
<g>
	<path class="st0" d="M77.9,20.2c-7.7-9.7-19.6-15.9-33-15.9C21.6,4.4,2.7,23.3,2.7,46.6c0,4.3,0.6,8.5,1.8,12.4"/>
	<path class="st0" d="M11.7,72.6c7.7,9.9,19.7,16.2,33.2,16.2c23.3,0,42.2-18.9,42.2-42.2c0-4.1-0.6-8.1-1.7-11.8"/>
	<path class="st1" d="M12.3,25.3C8.3,31.4,6,38.7,6,46.6c0,1.9,0.1,3.8,0.4,5.7"/>
	<path class="st1" d="M30.4,10.5c-4.9,2-9.2,4.9-12.9,8.5"/>
	<path class="st1" d="M68.6,77.4c7.7-5.9,13.1-14.6,14.7-24.6c0.3-2,0.5-4.1,0.5-6.2"/>
	<path class="st1" d="M35.8,84.4c2.9,0.7,6,1.1,9.1,1.1c5.3,0,10.3-1,14.8-2.9"/>
	<path class="st1" d="M44.9,1.4c-15.6,0-29.3,7.9-37.5,19.9"/>
	<polyline class="st0" points="11.7,84.6 11.7,72.6 23.4,72.6 	"/>
	<polyline class="st0" points="77.9,7.7 77.9,19.8 66.5,19.8 	"/>
</g>
<g>
	<path class="st52" d="M72.1,70.1l-0.4-8.6l-0.5-8.8l-0.7-7.9l-1.1-8.4L68,28.1L66.3,20c0,0-0.1-2.3-1.8-2.8
		c-1.7-0.5-12-4.5-14.1-4.8c-2.2-0.3-5.5-0.5-5.5-0.5l0,0h0h0l0,0c0,0-3.3,0.2-5.5,0.5c-2.2,0.3-12.5,4.3-14.1,4.8
		c-1.7,0.5-1.8,2.8-1.8,2.8l-1.7,8.1l-1.4,8.3l-1.1,8.4l-0.7,7.9l-0.5,8.8l-0.4,8.6l-0.2,3.1l6.5,0.1c0,0,1.9-13.5,2.4-18.6
		c0.5-5,2-15.2,2.3-18.7c1.5,0.8,2.5,8.1,2.9,10c0.4,1.9,0.1,6.8-0.9,10.5c-1,3.7-4,8.6-4.4,11.5c-0.4,2.9,0.8,2.9,6.1,4.9
		c0,0,5.4,1.5,9.3,2.5c0.6,0.1,4-9.1,5-11.7c1,2.6,3.1,9.9,3.6,11.4c3.9-1,7.1-2.1,7.1-2.1c5.3-2,7-2.4,6.3-5.1
		c-0.7-2.9-3.4-7.8-4.4-11.5c-1-3.7-1.3-8.6-0.9-10.5c0.4-1.9,1.4-9.2,2.9-10c0.6,2.7,1.2,13.7,1.4,15.1c0.4,2.6,3.3,22.2,3.3,22.2
		l6.5-0.1L72.1,70.1z"/>
	<polygon class="st52" points="24,73.3 16.9,73.3 17.9,78.1 23.5,77.9 24.8,73.5 	"/>
	<path class="st53" d="M37.7,16.3c-2,0.4-11,3.1-12.3,3.6c-1.3,6.1-3.2,18.2-3.6,22.6s-1.5,19.2-1.7,23.8c-0.2,4.6-0.4,7.4-0.4,7.4
		h-0.9l0.3,4.4l-1.6-0.2l-0.8-4.2l0.9-0.6l0.5-12.3l1.3-16.9l1.9-13l2.5-12l0.9-1.4l3.4-1.1l3.3-1c0,0,6.2-2.6,6.9-2.6
		C37.7,15.3,37.7,15.7,37.7,16.3z"/>
	<polygon class="st52" points="72.3,73.6 65.2,73.6 66.2,78.3 71.8,78.2 73.1,73.8 	"/>
	<path class="st53" d="M39.7,23.6c-1.3-3.6-2.7-7.6-1.5-11c5-1.3,11.8-0.2,13.2,0.1c0.5,2.3,1.4,5,0.3,8.4s-3.1,13.4-5.5,17.3
		C45.5,38.1,41,27,39.7,23.6z"/>
	<path class="st54" d="M27.8,28.7c0.5,3.2,6.2,13.5,6.8,19.3c0.5,5.7-0.4,12.3-6.5,23.2c-1.7-0.4-2.5-1.9-1.6-4.2s3.6-8.5,3.8-9.2
		c0.2-0.7,2-8,1.7-10.7c-0.4-2.7-2.6-10.1-3.5-12.2C28.4,32.3,27.8,28.7,27.8,28.7z"/>
	<path class="st53" d="M52,16.3c2,0.4,11,3.1,12.3,3.6c1.3,6.1,3.2,18.2,3.6,22.6s1.5,19.2,1.7,23.8c0.2,4.6,0.4,7.4,0.4,7.4h0.9
		L70.5,78l1.6-0.2l0.8-4.2L72,73l-0.5-12.3l-1.3-16.9l-1.9-13l-2.5-12L65,17.4l-3.4-1.1l-3.3-1c0,0-6.2-2.6-6.9-2.6
		C51.9,15.3,52,15.7,52,16.3z"/>
	<path class="st54" d="M61.8,28.7c-0.5,3.2-6.2,13.5-6.8,19.3c-0.5,5.7,0.4,12.3,6.5,23.2c1.7-0.4,2.5-1.9,1.6-4.2
		c-0.9-2.3-3.6-8.5-3.8-9.2c-0.2-0.7-2-8-1.7-10.7c0.4-2.7,2.6-10.1,3.5-12.2C61.3,32.3,61.8,28.7,61.8,28.7z"/>
	<polygon class="st53" points="48.1,68.6 47.7,69.3 44.6,69.3 44.5,68.6 46.2,62.6 	"/>
	<g>
		<path class="st55" d="M47.5,54.7c1.7-13.1-6.4-26.2-8.2-32.2c-2.2-7.4-2-7.7-0.8-9.9c-0.9,0-2.7,1.1-5.9,2.3"/>
		<path class="st55" d="M45.8,39.2c1.9-4.8,9-22.1,5.4-26.6c0.9,0,3.3,1.4,5.8,2.3"/>
		<path class="st55" d="M47.5,54.7c-1.1,9.5-5.6,20.8-5.6,20.8l-4.5-1"/>
		<path class="st55" d="M32.6,14.9l-8.6,2.7c-2.1,7.7-4.6,21.7-5.4,34.3s-1.1,21.4-1.1,21.4l6.4,0.1c1.9-14.7,4.2-30.9,4.7-37.7
			c4,9.2,4.1,13.5,1.9,21.1s-4.6,8.5-4.4,12.7c1.8,2.3,9.5,4.4,11.2,4.9"/>
		<path class="st55" d="M57,14.9l8.6,2.7c2.1,7.7,4.6,21.7,5.4,34.3s1,21.5,1,21.5l-6.4,0.1c-1.4-14.9-4-26.5-4.7-37.7
			c-4,9.2-4.1,13.5-1.9,21.1s4.6,8.5,4.4,12.7c-1.8,2.3-10.3,5.1-13.4,5.6l-4-13.2"/>
		<path class="st55" d="M60.9,35.8c0.2-5.1,2.3-16.3,4.6-18.2"/>
		<path class="st55" d="M24,17.6c2.4,1.9,4.5,13.1,4.6,18.2"/>
		<path class="st55" d="M38.6,12.6c3.5-1,9.4-1,12.6,0"/>
		<line class="st56" x1="44.6" y1="69.3" x2="48.3" y2="69.3"/>
		<path class="st56" d="M17.6,78.1c0-0.1-0.8-4.7-0.8-4.7l7.8,0.1l-0.8,4.6H17.6z"/>
		<path class="st56" d="M72.1,78.1c0-0.1,0.8-4.7,0.8-4.7l-7.8,0.1l0.8,4.6H72.1z"/>
	</g>
	<path class="st55" d="M37.7,15.6c3-0.7,12.1-0.7,14.4-0.2"/>
	<circle class="st55" cx="44.9" cy="50.9" r="1.4"/>
</g>
</svg>
