<?xml version="1.0" encoding="iso-8859-1"?>
<!-- Generator: Adobe Illustrator 21.1.0, SVG Export Plug-In . SVG Version: 6.00 Build 0)  -->
<svg version="1.1" id="platie_x5F_006" xmlns="http://www.w3.org/2000/svg" xmlns:xlink="http://www.w3.org/1999/xlink" x="0px"
	 y="0px" viewBox="0 0 90 90" style="enable-background:new 0 0 90 90;" xml:space="preserve">
<rect style="fill:none;" width="90" height="90"/>
<g>
	<g>
		<path style="fill:#CCCCCC;" d="M24,22.5c-0.276,0-0.5-0.224-0.5-0.5V1c0-0.173,0.09-0.334,0.237-0.425
			C23.817,0.525,23.909,0.5,24,0.5c0.076,0,0.153,0.018,0.223,0.053C24.262,0.572,28.202,2.5,34,2.5
			c5.802,0,9.771-1.889,9.811-1.908c0.069-0.034,0.144-0.05,0.218-0.05c0.092,0,0.185,0.026,0.266,0.077
			c0.146,0.092,0.234,0.252,0.234,0.424L44.5,22c0,0.276-0.224,0.5-0.5,0.5H24z"/>
		<path style="fill:#B3B3B3;" d="M24,1c0,0,4,2,10,2s10.029-1.959,10.029-1.959L44,22H24V1 M24,0c-0.183,0-0.365,0.05-0.526,0.149
			C23.179,0.332,23,0.653,23,1v21c0,0.552,0.448,1,1,1h20c0.552,0,0.999-0.447,1-0.999l0.029-20.959
			c0-0.345-0.177-0.666-0.469-0.849c-0.162-0.101-0.346-0.153-0.531-0.153c-0.149,0-0.299,0.033-0.437,0.101
			C43.555,0.16,39.672,2,34,2c-5.698,0-9.515-1.875-9.553-1.894C24.306,0.035,24.153,0,24,0L24,0z"/>
	</g>
	<path style="fill:#E6E6E6;" d="M54,55c-3-14-7-18-7-22c0-7,2-10,2-21c0-1,2-9,2-9s-3-2-7-2c0,0-1,9-10,9S24,1,24,1c-4,0-7,2-7,2
		s2,8,2,9c0,11,2,14,2,21c0,4-4,8-7,22S8,78,5,83c0,0,1,2,3,2c3,0,1,2,5,2c3,0,2,1,6,1c1.965,0,2,1,4,1s3-1,5-1s1,1,6,1s4-1,6-1
		s3,1,5,1s2.035-1,4-1c4,0,3-1,6-1c4,0,2-2,5-2c2,0,3-2,3-2C60,78,57,69,54,55z"/>
	<g>
		<path style="fill:#F2F2F2;" d="M38,11c6,0,9-7,9-7c3,1,3,1,4-1c-1.258-0.519-4.922-2-7-2c0,0-1,9-10,9
			c-0.235,0-0.443-0.03-0.667-0.042C34.583,10.587,36.106,11,38,11z"/>
		<path style="fill:#F2F2F2;" d="M23,13c0-1-2-9-2-9s1.307-0.866,3.339-1.458C24.074,1.627,24,1,24,1c-4,0-7,2-7,2s2,8,2,9
			c0,11,2,14,2,21c0,4-4,8-7,22S8,78,5,83c0,0,1,2,3,2h0c0.241-0.407,0.597-0.738,1.052-0.906C9.018,84.036,9,84,9,84c3-5,6-14,9-28
			s7-18,7-22C25,27,23,24,23,13z"/>
	</g>
	<g>
		<g>
			<path style="fill:#B3B3B3;" d="M44,1c4,0,7,2,7,2s-2,8-2,9c0,11-2,14-2,21c0,4,4,8,7,22s6,23,9,28c0,0-1,2-3,2c-3,0-1,2-5,2
				c-3,0-2,1-6,1c-1.965,0-2,1-4,1s-3-1-5-1s-2,1-6,1s-4-1-6-1s-3,1-5,1s-2.035-1-4-1c-4,0-3-1-6-1c-4,0-2-2-5-2c-2,0-3-2-3-2
				c3-5,6-14,9-28s7-18,7-22c0-7-2-10-2-21c0-1-2-9-2-9s3-2,7-2c0,0,1,9,10,9S44,1,44,1 M44,0c-0.509,0-0.936,0.382-0.994,0.887l0,0
				C42.968,1.219,41.975,9,34,9c-8.013,0-8.969-7.779-9.006-8.11C24.938,0.383,24.51,0,24,0c-4.254,0-7.422,2.079-7.555,2.168
				c-0.352,0.234-0.518,0.665-0.415,1.075c0.957,3.826,1.955,8.149,1.97,8.761c0,6.2,0.628,9.898,1.182,13.16
				C19.621,27.747,20,29.978,20,33c0,1.514-0.692,3.124-1.74,5.561c-1.48,3.441-3.507,8.155-5.237,16.229
				c-2.852,13.311-5.84,22.629-8.88,27.695c-0.176,0.293-0.19,0.656-0.037,0.962C4.158,83.551,5.412,86,8,86
				c0.885,0,0.989,0.141,1.239,0.483C9.824,87.283,10.552,88,13,88c1.197,0,1.603,0.165,2.116,0.373C15.84,88.667,16.661,89,19,89
				c0.744,0,1.076,0.165,1.536,0.393C21.082,89.663,21.761,90,23,90c1.162,0,2.041-0.293,2.816-0.551C26.539,89.208,27.162,89,28,89
				c0.657,0,1.012,0.125,1.549,0.315C30.412,89.62,31.485,90,34,90s3.588-0.38,4.451-0.685C38.988,89.125,39.343,89,40,89
				c0.838,0,1.461,0.208,2.184,0.449C42.959,89.707,43.838,90,45,90c1.239,0,1.918-0.337,2.464-0.607C47.924,89.165,48.256,89,49,89
				c2.339,0,3.16-0.333,3.884-0.627C53.397,88.165,53.803,88,55,88c2.448,0,3.176-0.717,3.761-1.517C59.011,86.141,59.115,86,60,86
				c2.588,0,3.842-2.449,3.894-2.553c0.153-0.306,0.139-0.669-0.037-0.962c-3.04-5.066-6.027-14.384-8.88-27.695
				c-1.73-8.075-3.757-12.788-5.237-16.229C48.692,36.124,48,34.514,48,33c0-3.022,0.379-5.253,0.818-7.837
				C49.372,21.901,50,18.203,50,12c0.015-0.608,1.014-4.931,1.97-8.757c0.102-0.41-0.064-0.84-0.415-1.075
				C51.422,2.079,48.254,0,44,0L44,0z"/>
		</g>
	</g>
	<g>
		<path style="fill:#F2F2F2;" d="M20,35.5c-0.276,0-0.5-0.224-0.5-0.5v-4c0-0.276,0.224-0.5,0.5-0.5h28c0.276,0,0.5,0.224,0.5,0.5v4
			c0,0.276-0.224,0.5-0.5,0.5H20z"/>
		<g>
			<path style="fill:#B3B3B3;" d="M48,31v4H20v-4H48 M48,30H20c-0.552,0-1,0.448-1,1v4c0,0.552,0.448,1,1,1h28c0.552,0,1-0.448,1-1
				v-4C49,30.448,48.552,30,48,30L48,30z"/>
		</g>
	</g>
	<g>
		<path style="fill:#F2F2F2;" d="M32,37.5c-1.378,0-2.5-1.122-2.5-2.5v-4c0-1.378,1.122-2.5,2.5-2.5h4c1.378,0,2.5,1.122,2.5,2.5v4
			c0,1.378-1.122,2.5-2.5,2.5H32z"/>
		<g>
			<path style="fill:#B3B3B3;" d="M36,29c1.105,0,2,0.895,2,2v4c0,1.105-0.895,2-2,2h-4c-1.105,0-2-0.895-2-2v-4
				c0-1.105,0.895-2,2-2H36 M36,28h-4c-1.654,0-3,1.346-3,3v4c0,1.654,1.346,3,3,3h4c1.654,0,3-1.346,3-3v-4
				C39,29.346,37.654,28,36,28L36,28z"/>
		</g>
	</g>
</g>
<g>
	<g>
		<path style="fill:none;stroke:#CE171F;stroke-linejoin:round;" d="M68,37h2c0.134,0.627,0.283,1.278,0.444,1.95"/>
		<path style="fill:none;stroke:#CE171F;stroke-linejoin:round;stroke-dasharray:3.9476,2.9607;" d="M71.172,41.82
			c3.298,12.368,9.755,29.763,12.677,37.903"/>
		<path style="fill:none;stroke:#CE171F;stroke-linejoin:round;" d="M84.346,81.114C84.613,81.868,84.834,82.503,85,83
			c0,0-0.544,0.408-1.72,1.011"/>
		<path style="fill:none;stroke:#CE171F;stroke-linejoin:round;stroke-dasharray:3.79,2.8425;" d="M80.688,85.172
			C76.335,86.89,68.454,89,56,89c-13.822,0-22.012-2.599-25.996-4.376"/>
		<path style="fill:none;stroke:#CE171F;stroke-linejoin:round;" d="M28.72,84.011C27.544,83.408,27,83,27,83
			c0.18-0.45,0.425-1.079,0.724-1.861"/>
		<path style="fill:none;stroke:#CE171F;stroke-linejoin:round;stroke-dasharray:3.9481,2.961;" d="M28.768,78.371
			c3.27-8.77,9.477-26.242,12.436-37.98"/>
		<path style="fill:none;stroke:#CE171F;stroke-linejoin:round;" d="M41.558,38.95C41.718,38.276,41.866,37.625,42,37h2"/>
		<line style="fill:none;stroke:#CE171F;stroke-linejoin:round;stroke-dasharray:4,3;" x1="47" y1="37" x2="66.5" y2="37"/>
	</g>
</g>
<g>
	<g>
		<path style="fill:#AA8396;" d="M46,22.5c-0.276,0-0.5-0.224-0.5-0.5V1c0-0.173,0.09-0.334,0.237-0.425
			C45.817,0.525,45.909,0.5,46,0.5c0.076,0,0.153,0.018,0.223,0.053C46.262,0.572,50.202,2.5,56,2.5
			c5.802,0,9.771-1.889,9.811-1.908c0.069-0.034,0.144-0.05,0.218-0.05c0.092,0,0.185,0.026,0.266,0.077
			c0.146,0.092,0.234,0.252,0.234,0.424L66.5,22c0,0.276-0.224,0.5-0.5,0.5H46z"/>
		<path style="fill:#42210B;" d="M46,1c0,0,4,2,10,2s10.029-1.959,10.029-1.959L66,22H46V1 M46,0c-0.183,0-0.365,0.05-0.526,0.149
			C45.179,0.332,45,0.653,45,1v21c0,0.552,0.448,1,1,1h20c0.552,0,0.999-0.447,1-0.999l0.029-20.959
			c0-0.345-0.177-0.666-0.469-0.849c-0.162-0.101-0.346-0.153-0.531-0.153c-0.149,0-0.299,0.033-0.437,0.101
			C65.555,0.16,61.672,2,56,2c-5.698,0-9.515-1.875-9.553-1.894C46.306,0.035,46.153,0,46,0L46,0z"/>
	</g>
	<path style="fill:#E4AEC6;" d="M35.075,62.962C35.075,62.962,44,65,56,65s21-2,21-2c0-5-8-26-8-30c0-7,2-10,2-21c0-1,2-9,2-9
		s-3-2-7-2c0,0-1,9-10,9S46,1,46,1c-4,0-7,2-7,2s2,8,2,9c0,11,2,14,2,21C43,37,35.075,58,35.075,62.962z"/>
	<g>
		<path style="fill:#F6D3D7;" d="M60,11c7,0,10-8,10-8c1.054,0,2.036,0.141,2.914,0.345C72.969,3.125,73,3,73,3s-3-2-7-2
			c0,0-1,9-10,9c-0.93,0-1.754-0.115-2.521-0.287C54.957,11.02,57.039,11,60,11z"/>
		<path style="fill:#F6D3D7;" d="M39.187,63.709C40.135,57.174,47,38.724,47,35c0-7-2-10-2-21c0-1-2-9-2-9s1.436-0.956,3.644-1.546
			C46.127,2.065,46,1,46,1c-4,0-7,2-7,2s2,8,2,9c0,11,2,14,2,21c0,4-7.925,25-7.925,29.962
			C35.075,62.962,36.592,63.306,39.187,63.709z"/>
	</g>
	<g>
		<path style="fill:#42210B;" d="M66,1c4,0,7,2,7,2s-2,8-2,9c0,11-2,14-2,21c0,4,8,25,8,30c0,0-9,2-21,2s-20.925-2.038-20.925-2.038
			C35.075,58,43,37,43,33c0-7-2-10-2-21c0-1-2-9-2-9s3-2,7-2c0,0,1,9,10,9S66,1,66,1 M66,0c-0.51,0-0.938,0.383-0.994,0.89
			C64.964,1.253,63.958,9,56,9c-8.013,0-8.969-7.779-9.006-8.11C46.938,0.383,46.51,0,46,0c-4.254,0-7.422,2.079-7.555,2.168
			c-0.352,0.234-0.518,0.665-0.415,1.075c0.957,3.826,1.955,8.149,1.97,8.761c0,6.2,0.628,9.898,1.182,13.16
			C41.621,27.747,42,29.978,42,33c0,1.74-1.829,7.615-3.597,13.296c-2.127,6.834-4.327,13.9-4.327,16.667
			c0,0.467,0.323,0.871,0.777,0.975C34.943,63.958,44.026,66,56,66c11.971,0,21.126-2.004,21.217-2.024
			C77.674,63.875,78,63.469,78,63c0-2.793-2.227-9.882-4.38-16.739C71.84,40.595,70,34.735,70,33c0-3.022,0.379-5.253,0.818-7.837
			C71.372,21.901,72,18.203,72,12c0.015-0.608,1.014-4.931,1.97-8.757c0.102-0.41-0.064-0.84-0.415-1.075
			C73.422,2.079,70.254,0,66,0L66,0z"/>
	</g>
	<g>
		<path style="fill:#FCEAAE;" d="M42,35.5c-0.276,0-0.5-0.224-0.5-0.5v-4c0-0.276,0.224-0.5,0.5-0.5h28c0.276,0,0.5,0.224,0.5,0.5v4
			c0,0.276-0.224,0.5-0.5,0.5H42z"/>
		<path style="fill:#42210B;" d="M70,31v4H42v-4H70 M70,30H42c-0.552,0-1,0.448-1,1v4c0,0.552,0.448,1,1,1h28c0.552,0,1-0.448,1-1
			v-4C71,30.448,70.552,30,70,30L70,30z"/>
	</g>
	<g>
		<path style="fill:#FCEAAE;" d="M54,37.5c-1.378,0-2.5-1.122-2.5-2.5v-4c0-1.378,1.122-2.5,2.5-2.5h4c1.378,0,2.5,1.122,2.5,2.5v4
			c0,1.378-1.122,2.5-2.5,2.5H54z"/>
		<path style="fill:#42210B;" d="M58,29c1.105,0,2,0.895,2,2v4c0,1.105-0.895,2-2,2h-4c-1.105,0-2-0.895-2-2v-4c0-1.105,0.895-2,2-2
			H58 M58,28h-4c-1.654,0-3,1.346-3,3v4c0,1.654,1.346,3,3,3h4c1.654,0,3-1.346,3-3v-4C61,29.346,59.654,28,58,28L58,28z"/>
	</g>
</g>
<path style="fill:none;stroke:#CE171F;stroke-linejoin:round;stroke-miterlimit:10;stroke-dasharray:2,2;" d="M34.5,63.5
	c0,0,8,2,22,2c13,0,21-2,21-2"/>
</svg>
