<?xml version="1.0" encoding="iso-8859-1"?>
<!-- Generator: Adobe Illustrator 21.1.0, SVG Export Plug-In . SVG Version: 6.00 Build 0)  -->
<svg version="1.1" xmlns="http://www.w3.org/2000/svg" xmlns:xlink="http://www.w3.org/1999/xlink" x="0px" y="0px"
	 viewBox="0 0 90 90" style="enable-background:new 0 0 90 90;" xml:space="preserve">
<g id="icon_x5F_008">
	<rect style="display:none;fill:#F2F2F2;" width="90" height="90"/>
	<g>
		<g>
			<g>
				<line style="fill:none;stroke:#CE171F;stroke-width:2;stroke-linejoin:round;" x1="0" y1="73" x2="1.5" y2="73"/>
				
					<line style="fill:none;stroke:#CE171F;stroke-width:2;stroke-linejoin:round;stroke-dasharray:3,2;" x1="3.5" y1="73" x2="87.5" y2="73"/>
				<line style="fill:none;stroke:#CE171F;stroke-width:2;stroke-linejoin:round;" x1="88.5" y1="73" x2="90" y2="73"/>
			</g>
		</g>
		<g>
			<g>
				<path style="fill:none;stroke:#CE171F;stroke-width:2;stroke-linecap:round;stroke-linejoin:round;" d="M24,78
					c-0.035,0.488-0.058,0.987-0.073,1.496"/>
				
					<path style="fill:none;stroke:#CE171F;stroke-width:2;stroke-linecap:round;stroke-linejoin:round;stroke-dasharray:1.9095,2.546;" d="
					M23.913,82.041c0.011,1.017,0.037,2.076,0.057,3.18"/>
				<path style="fill:none;stroke:#CE171F;stroke-width:2;stroke-linecap:round;stroke-linejoin:round;" d="M23.99,86.497
					C23.996,86.989,24,87.49,24,88c0,0,0.485,0.162,1.455,0.355"/>
				
					<path style="fill:none;stroke:#CE171F;stroke-width:2;stroke-linecap:round;stroke-linejoin:round;stroke-dasharray:3.48,4.6399;" d="
					M30.059,88.915C30.943,88.968,31.923,89,33,89c2.955,0,6.639-1.698,9.616-4.736"/>
				<path style="fill:none;stroke:#CE171F;stroke-width:2;stroke-linecap:round;stroke-linejoin:round;" d="M44.136,82.508
					c0.301-0.394,0.59-0.804,0.864-1.229"/>
			</g>
		</g>
		<g>
			<g>
				
					<line style="fill:none;stroke:#CE171F;stroke-width:2;stroke-linecap:round;stroke-linejoin:round;" x1="9" y1="73" x2="9" y2="74.5"/>
				
					<line style="fill:none;stroke:#CE171F;stroke-width:2;stroke-linecap:round;stroke-linejoin:round;stroke-dasharray:1.9091,2.5455;" x1="9" y1="77.045" x2="9" y2="80.227"/>
				<path style="fill:none;stroke:#CE171F;stroke-width:2;stroke-linecap:round;stroke-linejoin:round;" d="M9,81.5V83
					c0,0,0.598,0.199,1.438,0.42"/>
				
					<path style="fill:none;stroke:#CE171F;stroke-width:2;stroke-linecap:round;stroke-linejoin:round;stroke-dasharray:2.2377,2.9836;" d="
					M13.37,83.972C13.587,83.99,13.799,84,14,84c0.825,0,1.991-0.17,3.076-0.37"/>
				<path style="fill:none;stroke:#CE171F;stroke-width:2;stroke-linecap:round;stroke-linejoin:round;" d="M18.54,83.336
					C19.396,83.151,20,83,20,83v-1.5"/>
				
					<line style="fill:none;stroke:#CE171F;stroke-width:2;stroke-linecap:round;stroke-linejoin:round;stroke-dasharray:1.9091,2.5454;" x1="20" y1="78.955" x2="20" y2="75.773"/>
				
					<line style="fill:none;stroke:#CE171F;stroke-width:2;stroke-linecap:round;stroke-linejoin:round;" x1="20" y1="74.5" x2="20" y2="73"/>
			</g>
		</g>
		<g>
			<g>
				<path style="fill:none;stroke:#CE171F;stroke-width:2;stroke-linecap:round;stroke-linejoin:round;" d="M66,78
					c0.035,0.488,0.058,0.987,0.073,1.496"/>
				
					<path style="fill:none;stroke:#CE171F;stroke-width:2;stroke-linecap:round;stroke-linejoin:round;stroke-dasharray:1.9094,2.5459;" d="
					M66.087,82.041c-0.011,1.017-0.037,2.076-0.057,3.18"/>
				<path style="fill:none;stroke:#CE171F;stroke-width:2;stroke-linecap:round;stroke-linejoin:round;" d="M66.01,86.497
					C66.004,86.989,66,87.49,66,88c0,0-0.485,0.162-1.455,0.355"/>
				
					<path style="fill:none;stroke:#CE171F;stroke-width:2;stroke-linecap:round;stroke-linejoin:round;stroke-dasharray:2.9753,3.9671;" d="
					M60.613,88.87C59.563,88.949,58.358,89,57,89c-5.342,0-13.063-5.549-14.691-14.531"/>
				<path style="fill:none;stroke:#CE171F;stroke-width:2;stroke-linecap:round;stroke-linejoin:round;" d="M42.056,72.499
					C42.019,72.008,42,71.508,42,71"/>
			</g>
		</g>
		<g>
			<g>
				
					<line style="fill:none;stroke:#CE171F;stroke-width:2;stroke-linecap:round;stroke-linejoin:round;" x1="81" y1="73" x2="81" y2="74.5"/>
				
					<line style="fill:none;stroke:#CE171F;stroke-width:2;stroke-linecap:round;stroke-linejoin:round;stroke-dasharray:1.9091,2.5455;" x1="81" y1="77.045" x2="81" y2="80.227"/>
				<path style="fill:none;stroke:#CE171F;stroke-width:2;stroke-linecap:round;stroke-linejoin:round;" d="M81,81.5V83
					c0,0-0.598,0.199-1.438,0.42"/>
				
					<path style="fill:none;stroke:#CE171F;stroke-width:2;stroke-linecap:round;stroke-linejoin:round;stroke-dasharray:2.2377,2.9836;" d="
					M76.63,83.972C76.413,83.99,76.201,84,76,84c-0.825,0-1.991-0.17-3.076-0.37"/>
				<path style="fill:none;stroke:#CE171F;stroke-width:2;stroke-linecap:round;stroke-linejoin:round;" d="M71.46,83.336
					C70.604,83.151,70,83,70,83v-1.5"/>
				
					<line style="fill:none;stroke:#CE171F;stroke-width:2;stroke-linecap:round;stroke-linejoin:round;stroke-dasharray:1.9091,2.5455;" x1="70" y1="78.955" x2="70" y2="75.773"/>
				
					<line style="fill:none;stroke:#CE171F;stroke-width:2;stroke-linecap:round;stroke-linejoin:round;" x1="70" y1="74.5" x2="70" y2="73"/>
			</g>
		</g>
		<path style="fill:none;stroke:#CE171F;stroke-linecap:round;stroke-linejoin:round;stroke-miterlimit:10;stroke-dasharray:2;" d="
			M25,85c5.5,1.5,10.5,1.5,15.5-2.5"/>
		<path style="fill:none;stroke:#CE171F;stroke-linecap:round;stroke-linejoin:round;stroke-miterlimit:10;stroke-dasharray:2;" d="
			M65,85c-5.5,1.5-10.5,1.5-15.5-2.5"/>
		<path style="fill:none;stroke:#CE171F;stroke-linecap:round;stroke-linejoin:round;stroke-miterlimit:10;stroke-dasharray:2;" d="
			M10,80c0,0,1.5,0.5,4.5,0.5S20,80,20,80"/>
		<path style="fill:none;stroke:#CE171F;stroke-linecap:round;stroke-linejoin:round;stroke-miterlimit:10;stroke-dasharray:2;" d="
			M71,80c0,0,1.5,0.5,4.5,0.5S81,80,81,80"/>
	</g>
	<g>
		
			<polygon style="fill:#666666;stroke:#42210B;stroke-width:2;stroke-linecap:round;stroke-linejoin:round;stroke-miterlimit:10;" points="
			37,1 30,40 37,78 53,78 60,40 53,1 		"/>
		<path style="fill:#B3B3B3;stroke:#42210B;stroke-width:2;stroke-linecap:round;stroke-linejoin:round;stroke-miterlimit:10;" d="
			M37,1L21.582,6.525c-2.262,0.932-3.974,2.847-4.646,5.2l-7.243,25.35C8.57,41.006,8,43.074,8,47.162L9,73c0,0,3,1,5,1s6-1,6-1V47
			l5-13c0,0,2,5,2,12s-3,14-3,32c0,0,3,1,9,1s15-7,15-18c0-7,0-16,0-16L36,11L37,1z"/>
		<path style="fill:#B3B3B3;stroke:#42210B;stroke-width:2;stroke-linecap:round;stroke-linejoin:round;stroke-miterlimit:10;" d="
			M53,1l15.418,5.525c2.262,0.932,3.974,2.847,4.646,5.2l7.243,25.35C81.43,41.006,82,43.074,82,47.162L81,73c0,0-3,1-5,1s-6-1-6-1
			V47l-5-13c0,0-2,5-2,12s3,14,3,32c0,0-3,1-9,1s-15-7-15-18c0-7,0-16,0-16l12-34L53,1z"/>
		<path style="fill:#CCCCCC;" d="M61.086,6.94l10.806,4.449c-0.69-1.784-2.063-3.202-3.854-3.94L61.21,4.638
			C61.294,5.406,61.253,6.188,61.086,6.94z"/>
		<path style="fill:#CCCCCC;" d="M28.834,4.62L21.963,7.45c-1.992,0.82-3.474,2.479-4.066,4.55l-7.243,25.35
			C9.557,41.192,9,43.167,9,47.129l0.976,25.125c0.923,0.27,2.624,0.711,3.891,0.741L13,51.129c0-3.962,0.557-5.937,1.655-9.779
			L19,13c0,0,4.971-0.73,6.963-1.55l5.097-2.099C29.625,8.22,28.885,6.434,28.834,4.62z"/>
		<path style="fill:#CCCCCC;" d="M75,72.933V50.827L67,30c0,0-0.772,3.393-1,4l5,12.827v25.382
			C71.964,72.429,73.659,72.788,75,72.933z"/>
		<path style="fill:#CCCCCC;" d="M31.005,58.788C31.561,54.297,32,50.75,32,48c0-8-6-14-6-14c0.278,1.624,2,7,2,12
			c0,2.75-0.439,4.297-0.995,8.788c-0.873,7.044-1.953,11.771-2.003,22.445c0.747,0.175,2.106,0.437,4.056,0.605
			C29.289,68.695,30.227,65.067,31.005,58.788z"/>
		<path style="fill:#CCCCCC;stroke:#42210B;stroke-width:2;stroke-linecap:round;stroke-linejoin:round;stroke-miterlimit:10;" d="
			M53,1l8,2l1,4l-4,1l4,4c0,0-4,16-20,33l12-34L53,1z"/>
		<path style="fill:#CCCCCC;stroke:#42210B;stroke-width:2;stroke-linecap:round;stroke-linejoin:round;stroke-miterlimit:10;" d="
			M43.521,39.828L45,34.8L36,11l1-10l-8,2l-1,4l4,1l-4,4C28,12,31.619,24.893,43.521,39.828z"/>
		
			<polygon style="fill:#B3B3B3;stroke:#42210B;stroke-width:2;stroke-linecap:round;stroke-linejoin:round;stroke-miterlimit:10;" points="
			65,56 59,57 60,61 66,60 		"/>
		
			<polygon style="fill:#CCCCCC;stroke:#42210B;stroke-width:2;stroke-linecap:round;stroke-linejoin:round;stroke-miterlimit:10;" points="
			25,56 31,57 30,61 24,60 		"/>
		<circle style="fill:#42210B;" cx="45.5" cy="46.5" r="1.5"/>
		<circle style="fill:#42210B;" cx="45.5" cy="59.5" r="1.5"/>
		<path style="fill:none;stroke:#42210B;stroke-width:2;stroke-linecap:round;stroke-linejoin:round;stroke-miterlimit:10;" d="
			M25,34c0,0-1-6-2-10s-5-14-5-14"/>
		<path style="fill:none;stroke:#42210B;stroke-width:2;stroke-linecap:round;stroke-linejoin:round;stroke-miterlimit:10;" d="
			M65,34c0,0,1-6,2-10s5-14,5-14"/>
		<path style="fill:none;stroke:#42210B;stroke-linecap:round;stroke-linejoin:round;stroke-miterlimit:10;" d="M25,75
			c5.5,1.5,10.5,1.5,15.5-2.5"/>
		<path style="fill:none;stroke:#42210B;stroke-linecap:round;stroke-linejoin:round;stroke-miterlimit:10;" d="M65,75
			c-5.5,1.5-10.5,1.5-15.5-2.5"/>
		<path style="fill:none;stroke:#42210B;stroke-linecap:round;stroke-linejoin:round;stroke-miterlimit:10;" d="M10,70
			c0,0,1.5,0.5,4.5,0.5S20,70,20,70"/>
		<path style="fill:none;stroke:#42210B;stroke-linecap:round;stroke-linejoin:round;stroke-miterlimit:10;" d="M71,70
			c0,0,1.5,0.5,4.5,0.5S81,70,81,70"/>
	</g>
</g>
<g id="Layer_1">
</g>
</svg>
