<?xml version="1.0" encoding="iso-8859-1"?>
<!-- Generator: Adobe Illustrator 21.1.0, SVG Export Plug-In . SVG Version: 6.00 Build 0)  -->
<svg version="1.1" id="platie_x5F_002" xmlns="http://www.w3.org/2000/svg" xmlns:xlink="http://www.w3.org/1999/xlink" x="0px"
	 y="0px" viewBox="0 0 90 90" style="enable-background:new 0 0 90 90;" xml:space="preserve">
<rect style="fill:none;" width="90" height="90"/>
<g>
	<g>
		<path style="fill:#AA8396;" d="M35,22.5c-0.276,0-0.5-0.224-0.5-0.5V1c0-0.173,0.09-0.334,0.237-0.425
			C34.817,0.525,34.909,0.5,35,0.5c0.076,0,0.153,0.018,0.223,0.053C35.262,0.572,39.202,2.5,45,2.5
			c5.802,0,9.771-1.889,9.811-1.908c0.069-0.034,0.144-0.05,0.218-0.05c0.092,0,0.185,0.026,0.266,0.077
			c0.146,0.092,0.234,0.252,0.234,0.424L55.5,22c0,0.276-0.224,0.5-0.5,0.5H35z"/>
		<path style="fill:#42210B;" d="M35,1c0,0,4,2,10,2s10.029-1.959,10.029-1.959L55,22H35V1 M35,0c-0.183,0-0.365,0.05-0.526,0.149
			C34.179,0.332,34,0.653,34,1v21c0,0.552,0.448,1,1,1h20c0.552,0,0.999-0.447,1-0.999l0.029-20.959
			c0-0.345-0.177-0.666-0.469-0.849c-0.162-0.101-0.346-0.153-0.531-0.153c-0.149,0-0.299,0.033-0.437,0.101
			C54.555,0.16,50.672,2,45,2c-5.698,0-9.515-1.875-9.553-1.894C35.306,0.035,35.153,0,35,0L35,0z"/>
	</g>
	<path style="fill:#E4AEC6;" d="M63,55c-3-14-7-18-7-22c0-7,4-10,4-21c0-1,2-9,2-9s-3-2-7-2c0,0-1,9-10,9S35,1,35,1c-4,0-7,2-7,2
		s2,8,2,9c0,11,4,14,4,21c0,4-4,8-7,22s-8,23-11,28c0,0,1,2,3,2c3,0,1,2,5,2c3,0,2,1,6,1c1.965,0,2,1,4,1s3-1,5-1s1,1,6,1s4-1,6-1
		s3,1,5,1s2.035-1,4-1c4,0,3-1,6-1c4,0,2-2,5-2c2,0,3-2,3-2C71,78,66,69,63,55z"/>
	<g>
		<path style="fill:#F6D3D7;" d="M49,11c6,0,9-7,9-7c3,1,3,1,4-1c-1.258-0.519-4.922-2-7-2c0,0-1,9-10,9
			c-0.235,0-0.443-0.03-0.667-0.042C45.583,10.587,47.106,11,49,11z"/>
		<path style="fill:#F6D3D7;" d="M34,13c0-1-2-9-2-9s1.307-0.866,3.339-1.458C35.074,1.627,35,1,35,1c-4,0-7,2-7,2s2,8,2,9
			c0,11,4,14,4,21c0,4-4,8-7,22s-8,23-11,28c0,0,1,2,3,2h0c0.241-0.407,0.597-0.738,1.052-0.906C20.018,84.036,20,84,20,84
			c3-5,7-14,10-28s6-18,6-22C36,27,34,24,34,13z"/>
	</g>
	<g>
		<path style="fill:#42210B;" d="M55,1c4,0,7,2,7,2s-2,8-2,9c0,9-4,11-4,21c0,4,4,8,7,22s8,23,11,28c0,0-1,2-3,2c-3,0-1,2-5,2
			c-3,0-2,1-6,1c-1.965,0-2,1-4,1s-3-1-5-1s-2,1-6,1s-4-1-6-1s-3,1-5,1s-2.035-1-4-1c-4,0-3-1-6-1c-4,0-2-2-5-2c-2,0-3-2-3-2
			c3-5,8-14,11-28s7-18,7-22c0-10-4-13-4-21c0-1-2-9-2-9s3-2,7-2c0,0,1,9,10,9S55,1,55,1 M55,0c-0.509,0-0.936,0.382-0.994,0.887
			l0,0C53.968,1.219,52.975,9,45,9c-8.013,0-8.969-7.779-9.006-8.11C35.938,0.383,35.51,0,35,0c-4.254,0-7.422,2.079-7.555,2.168
			c-0.352,0.234-0.518,0.665-0.415,1.075c0.957,3.826,1.955,8.149,1.97,8.761c0,3.937,0.915,6.671,1.885,9.565
			C31.925,24.673,33,27.884,33,33c0,1.514-0.692,3.124-1.74,5.561c-1.48,3.441-3.507,8.155-5.237,16.229
			c-2.857,13.333-7.578,22.191-10.88,27.695c-0.176,0.293-0.19,0.656-0.037,0.962C15.158,83.551,16.412,86,19,86
			c0.885,0,0.989,0.141,1.239,0.483C20.824,87.283,21.552,88,24,88c1.197,0,1.603,0.165,2.116,0.373C26.84,88.667,27.661,89,30,89
			c0.744,0,1.076,0.165,1.536,0.393C32.082,89.663,32.761,90,34,90c1.162,0,2.041-0.293,2.816-0.551C37.539,89.208,38.162,89,39,89
			c0.657,0,1.012,0.125,1.549,0.315C41.412,89.62,42.485,90,45,90s3.588-0.38,4.451-0.685C49.988,89.125,50.343,89,51,89
			c0.838,0,1.461,0.208,2.184,0.449C53.959,89.707,54.838,90,56,90c1.239,0,1.918-0.337,2.464-0.607C58.924,89.165,59.256,89,60,89
			c2.339,0,3.16-0.333,3.884-0.627C64.397,88.165,64.803,88,66,88c2.448,0,3.176-0.717,3.761-1.517C70.011,86.141,70.115,86,71,86
			c2.588,0,3.842-2.449,3.894-2.553c0.153-0.306,0.139-0.669-0.037-0.962c-3.302-5.504-8.023-14.362-10.88-27.695
			c-1.73-8.075-3.757-12.788-5.237-16.229C57.692,36.124,57,34.514,57,33c0-4.963,1.029-7.916,2.023-10.773
			C59.995,19.436,61,16.551,61,12c0.015-0.608,1.014-4.931,1.97-8.757c0.102-0.41-0.064-0.84-0.415-1.075
			C62.422,2.079,59.254,0,55,0L55,0z"/>
	</g>
	<path style="fill:none;stroke:#42210B;stroke-linecap:round;stroke-linejoin:round;stroke-miterlimit:10;" d="M50.5,87.5
		c-1-8-1-33-1-33"/>
	<path style="fill:none;stroke:#42210B;stroke-linecap:round;stroke-linejoin:round;stroke-miterlimit:10;" d="M57.5,88.5
		c-1-7-2-19-2-19"/>
	<path style="fill:none;stroke:#42210B;stroke-linecap:round;stroke-linejoin:round;stroke-miterlimit:10;" d="M31.5,87.5
		c2-9,3-25,3-25"/>
	<path style="fill:none;stroke:#42210B;stroke-linecap:round;stroke-linejoin:round;stroke-miterlimit:10;" d="M37.5,87.5
		c1-6,1-15,1-15"/>
	<path style="fill:none;stroke:#42210B;stroke-linecap:round;stroke-linejoin:round;stroke-miterlimit:10;" d="M60.5,58.5
		c0,0,4,23,7,28"/>
	<path style="fill:none;stroke:#42210B;stroke-linecap:round;stroke-linejoin:round;stroke-miterlimit:10;" d="M26.5,72.5
		c0,0-2,10-4,14"/>
	<g>
		<path style="fill:#FCEAAE;" d="M33,35.5c-0.276,0-0.5-0.224-0.5-0.5v-4c0-0.276,0.224-0.5,0.5-0.5h24c0.276,0,0.5,0.224,0.5,0.5v4
			c0,0.276-0.224,0.5-0.5,0.5H33z"/>
		<path style="fill:#42210B;" d="M57,31v4H33v-4H57 M57,30H33c-0.552,0-1,0.448-1,1v4c0,0.552,0.448,1,1,1h24c0.552,0,1-0.448,1-1
			v-4C58,30.448,57.552,30,57,30L57,30z"/>
	</g>
	<g>
		<path style="fill:#FCEAAE;" d="M43,37.5c-1.378,0-2.5-1.122-2.5-2.5v-4c0-1.378,1.122-2.5,2.5-2.5h4c1.378,0,2.5,1.122,2.5,2.5v4
			c0,1.378-1.122,2.5-2.5,2.5H43z"/>
		<path style="fill:#42210B;" d="M47,29c1.105,0,2,0.895,2,2v4c0,1.105-0.895,2-2,2h-4c-1.105,0-2-0.895-2-2v-4c0-1.105,0.895-2,2-2
			H47 M47,28h-4c-1.654,0-3,1.346-3,3v4c0,1.654,1.346,3,3,3h4c1.654,0,3-1.346,3-3v-4C50,29.346,48.654,28,47,28L47,28z"/>
	</g>
</g>
<g>
	<g>
		<path style="fill:none;stroke:#CE171F;stroke-linejoin:round;" d="M34,1c-0.654,0-1.326,0.025-2.003,0.071"/>
		<path style="fill:none;stroke:#CE171F;stroke-linejoin:round;stroke-dasharray:3.6732,2.7549;" d="M29.256,1.347
			c-1.826,0.24-3.569,0.568-4.98,0.869"/>
		<path style="fill:none;stroke:#CE171F;stroke-linejoin:round;" d="M22.938,2.515C21.741,2.794,21,3,21,3s0.157,0.724,0.416,1.954"
			/>
		<path style="fill:none;stroke:#CE171F;stroke-linejoin:round;stroke-dasharray:4.1028,3.0771;" d="M22.041,7.965
			C23.506,15.131,26,28.056,26,33C21.353,40.435,5.478,63.417,3.258,79.47"/>
		<path style="fill:none;stroke:#CE171F;stroke-linejoin:round;" d="M3.087,81.004C3.03,81.685,3,82.351,3,83
			c0,0,0.578,0.385,1.751,0.961"/>
		<path style="fill:none;stroke:#CE171F;stroke-linejoin:round;stroke-dasharray:4.1554,3.1166;" d="M7.607,85.199
			c3.965,1.525,10.526,3.348,19.829,3.729"/>
		<path style="fill:none;stroke:#CE171F;stroke-linejoin:round;" d="M28.999,88.978C29.654,88.992,30.32,89,31,89"/>
	</g>
</g>
<g>
	<g>
		<path style="fill:none;stroke:#CE171F;stroke-linejoin:round;" d="M56,1c0.654,0,1.326,0.025,2.003,0.071"/>
		<path style="fill:none;stroke:#CE171F;stroke-linejoin:round;stroke-dasharray:3.6732,2.7549;" d="M60.744,1.347
			c1.826,0.24,3.569,0.568,4.98,0.869"/>
		<path style="fill:none;stroke:#CE171F;stroke-linejoin:round;" d="M67.062,2.515C68.259,2.794,69,3,69,3s-0.157,0.724-0.416,1.954
			"/>
		<path style="fill:none;stroke:#CE171F;stroke-linejoin:round;stroke-dasharray:4.1028,3.0771;" d="M67.959,7.965
			C66.494,15.131,64,28.056,64,33c4.647,7.435,20.522,30.417,22.742,46.47"/>
		<path style="fill:none;stroke:#CE171F;stroke-linejoin:round;" d="M86.913,81.004C86.97,81.685,87,82.351,87,83
			c0,0-0.578,0.385-1.751,0.961"/>
		<path style="fill:none;stroke:#CE171F;stroke-linejoin:round;stroke-dasharray:4.1554,3.1166;" d="M82.393,85.199
			c-3.965,1.525-10.526,3.348-19.829,3.729"/>
		<path style="fill:none;stroke:#CE171F;stroke-linejoin:round;" d="M61.001,88.978C60.346,88.992,59.68,89,59,89"/>
	</g>
</g>
<g>
	<path style="fill:#FCEAAE;" d="M13.007,35.088c-0.831,0-1.507-0.674-1.507-1.502V32c0-0.276-0.224-0.5-0.5-0.5H4
		c-0.827,0-1.5-0.673-1.5-1.5s0.673-1.5,1.5-1.5h7c0.276,0,0.5-0.224,0.5-0.5v-1.586c0-0.828,0.676-1.502,1.507-1.502
		c0.395,0,0.769,0.157,1.053,0.441l4.293,4.293c0.195,0.195,0.195,0.512,0,0.707l-4.293,4.293
		C13.776,34.931,13.402,35.088,13.007,35.088L13.007,35.088z"/>
	<path style="fill:#CE171F;" d="M13.007,25.412c0.246,0,0.496,0.091,0.7,0.295L18,30l-4.293,4.293
		c-0.204,0.204-0.454,0.295-0.7,0.295c-0.514,0-1.007-0.399-1.007-1.002V32c0-0.552-0.448-1-1-1H4c-0.552,0-1-0.448-1-1s0.448-1,1-1
		h7c0.552,0,1-0.448,1-1v-1.586C12,25.811,12.493,25.412,13.007,25.412 M13.007,24.412C11.9,24.412,11,25.31,11,26.414V28H4
		c-1.103,0-2,0.897-2,2s0.897,2,2,2h7v1.586c0,1.104,0.9,2.002,2.007,2.002c0.528,0,1.028-0.209,1.407-0.588l4.293-4.293
		c0.391-0.391,0.391-1.024,0-1.414L14.414,25C14.035,24.621,13.535,24.412,13.007,24.412L13.007,24.412z"/>
</g>
<g>
	<path style="fill:#FCEAAE;" d="M76.993,35.088c-0.395,0-0.769-0.157-1.053-0.441l-4.293-4.293c-0.195-0.195-0.195-0.512,0-0.707
		l4.293-4.293c0.285-0.285,0.659-0.441,1.053-0.441c0.831,0,1.507,0.674,1.507,1.502V28c0,0.276,0.224,0.5,0.5,0.5h7
		c0.827,0,1.5,0.673,1.5,1.5s-0.673,1.5-1.5,1.5h-7c-0.276,0-0.5,0.224-0.5,0.5v1.586C78.5,34.414,77.824,35.088,76.993,35.088z"/>
	<path style="fill:#CE171F;" d="M76.993,25.412c0.514,0,1.007,0.399,1.007,1.002V28c0,0.552,0.448,1,1,1h7c0.552,0,1,0.448,1,1
		s-0.448,1-1,1h-7c-0.552,0-1,0.448-1,1v1.586c0,0.603-0.493,1.002-1.007,1.002c-0.246,0-0.496-0.091-0.7-0.295L72,30l4.293-4.293
		C76.497,25.503,76.747,25.412,76.993,25.412 M76.993,24.412c-0.528,0-1.028,0.209-1.407,0.588l-4.293,4.293
		c-0.391,0.391-0.391,1.024,0,1.414L75.586,35c0.379,0.379,0.879,0.588,1.407,0.588C78.1,35.588,79,34.69,79,33.586V32h7
		c1.103,0,2-0.897,2-2s-0.897-2-2-2h-7v-1.586C79,25.31,78.1,24.412,76.993,24.412L76.993,24.412z"/>
</g>
</svg>
