<?xml version="1.0" encoding="utf-8"?>
<!-- Generator: Adobe Illustrator 17.1.0, SVG Export Plug-In . SVG Version: 6.00 Build 0)  -->
<!DOCTYPE svg PUBLIC "-//W3C//DTD SVG 1.1//EN" "http://www.w3.org/Graphics/SVG/1.1/DTD/svg11.dtd">
<svg version="1.1" id="Layer_1" xmlns="http://www.w3.org/2000/svg" xmlns:xlink="http://www.w3.org/1999/xlink" x="0px" y="0px"
	 viewBox="0 0 890.5 722" enable-background="new 0 0 890.5 722" xml:space="preserve">
<g>
	<g>
		<g>
			<path fill="#CE2128" d="M300.4,519c-0.1,0-0.1,0-0.2,0l-8.6-0.6c-1.3-0.1-2.3-1.2-2.2-2.6c0.1-1.3,1.2-2.3,2.6-2.2l8.6,0.6
				c1.3,0.1,2.3,1.2,2.2,2.6C302.7,518,301.6,519,300.4,519z"/>
		</g>
		<g>
			<path fill="#CE2128" d="M275.6,517.2c-0.1,0-0.1,0-0.2,0l-16.1-1.2c-1.3-0.1-2.3-1.2-2.2-2.6s1.2-2.3,2.6-2.2l16.1,1.2
				c1.3,0.1,2.3,1.2,2.2,2.6C277.9,516.3,276.9,517.2,275.6,517.2z M243.3,514.9c-0.1,0-0.1,0-0.2,0l-16.1-1.2
				c-1.3-0.1-2.3-1.2-2.2-2.6s1.2-2.3,2.6-2.2l16.1,1.2c1.3,0.1,2.3,1.2,2.2,2.6C245.6,513.9,244.6,514.9,243.3,514.9z"/>
		</g>
		<g>
			<path fill="#CE2128" d="M211.1,512.6c-0.1,0-0.1,0-0.2,0l-8.6-0.6c-1.3-0.1-2.3-1.2-2.2-2.5l0.4-8.6c0.1-1.3,1.2-2.4,2.5-2.3
				c1.3,0.1,2.3,1.2,2.3,2.5l-0.3,6.3l6.3,0.5c1.3,0.1,2.3,1.2,2.2,2.6C213.3,511.6,212.3,512.6,211.1,512.6z"/>
		</g>
		<g>
			<path fill="#CE2128" d="M203.8,486.3c0,0-0.1,0-0.1,0c-1.3-0.1-2.3-1.2-2.3-2.5l0.9-17.1c0.1-1.3,1.2-2.3,2.5-2.3
				c1.3,0.1,2.3,1.2,2.3,2.5l-0.9,17.1C206.1,485.3,205,486.3,203.8,486.3z M205.6,452c0,0-0.1,0-0.1,0c-1.3-0.1-2.3-1.2-2.3-2.5
				c0.3-5.5,0.6-11.3,0.9-17.1c0.1-1.3,1.2-2.3,2.5-2.3c1.3,0.1,2.3,1.2,2.3,2.5c-0.3,5.8-0.6,11.6-0.9,17.1
				C207.9,451,206.9,452,205.6,452z M207.5,417.8c0,0-0.1,0-0.1,0c-1.3-0.1-2.3-1.2-2.3-2.5c0.3-5.7,0.6-11.4,0.9-17.1
				c0.1-1.3,1.2-2.3,2.5-2.3c1.3,0.1,2.3,1.2,2.3,2.5c-0.3,5.7-0.6,11.4-0.9,17.1C209.8,416.8,208.7,417.8,207.5,417.8z
				 M209.4,383.6c0,0-0.1,0-0.1,0c-1.3-0.1-2.3-1.2-2.3-2.5c0.3-5.9,0.7-11.6,1-17.1c0.1-1.3,1.2-2.3,2.5-2.2
				c1.3,0.1,2.3,1.2,2.2,2.5c-0.3,5.5-0.6,11.2-1,17.1C211.7,382.6,210.6,383.6,209.4,383.6z M211.4,349.4c0,0-0.1,0-0.1,0
				c-1.3-0.1-2.3-1.2-2.2-2.5c0.4-6.3,0.7-12,1.1-17.1c0.1-1.3,1.2-2.3,2.5-2.2c1.3,0.1,2.3,1.2,2.2,2.5c-0.3,5.1-0.7,10.8-1.1,17.1
				C213.7,348.4,212.6,349.4,211.4,349.4z M213.6,315.2c-0.1,0-0.1,0-0.2,0c-1.3-0.1-2.3-1.3-2.2-2.6c0.1-1,0.2-1.8,0.2-2.5
				c0.4-4.2,1-9.1,1.7-14.6c0.2-1.3,1.4-2.2,2.7-2.1c1.3,0.2,2.2,1.4,2.1,2.7c-0.7,5.4-1.3,10.3-1.7,14.5c-0.1,0.7-0.1,1.5-0.2,2.4
				C215.9,314.2,214.9,315.2,213.6,315.2z M218,281.2c-0.1,0-0.2,0-0.4,0c-1.3-0.2-2.2-1.4-2-2.7c0.8-5.4,1.8-11,2.8-16.9
				c0.2-1.3,1.5-2.2,2.8-1.9c1.3,0.2,2.2,1.5,1.9,2.8c-1,5.8-1.9,11.5-2.8,16.8C220.2,280.4,219.2,281.2,218,281.2z M223.8,247.5
				c-0.1,0-0.3,0-0.4,0c-1.3-0.2-2.2-1.5-1.9-2.8c1-5.5,2.1-11.1,3.2-16.8c0.3-1.3,1.5-2.1,2.8-1.9c1.3,0.3,2.1,1.5,1.9,2.8
				c-1.1,5.7-2.2,11.3-3.2,16.8C226,246.7,225,247.5,223.8,247.5z M230.4,213.9c-0.2,0-0.3,0-0.5-0.1c-1.3-0.3-2.1-1.5-1.9-2.8
				c1.1-5.5,2.3-11.1,3.6-16.8c0.3-1.3,1.6-2.1,2.8-1.8c1.3,0.3,2.1,1.6,1.8,2.8c-1.2,5.6-2.4,11.2-3.6,16.7
				C232.6,213.1,231.6,213.9,230.4,213.9z M237.7,180.5c-0.2,0-0.4,0-0.5-0.1c-1.3-0.3-2.1-1.6-1.8-2.9c0.7-3.3,1.5-6.6,2.3-9.9
				c0.5-2.3,1.1-4.6,1.8-6.9c0.4-1.3,1.7-2,3-1.6c1.3,0.4,2,1.7,1.6,3c-0.6,2.1-1.2,4.4-1.7,6.6c-0.8,3.3-1.5,6.6-2.3,9.9
				C239.8,179.7,238.8,180.5,237.7,180.5z M247.8,147.9c-0.3,0-0.7-0.1-1-0.2c-1.2-0.6-1.7-2-1.1-3.2c2.5-5.3,5.4-10.4,8.7-15.1
				c0.8-1.1,2.2-1.4,3.3-0.6c1.1,0.8,1.4,2.2,0.6,3.3c-3.1,4.5-6,9.4-8.3,14.4C249.6,147.4,248.7,147.9,247.8,147.9z M267.2,119.9
				c-0.6,0-1.2-0.2-1.7-0.7c-0.9-0.9-1-2.4,0-3.4c3.9-4.1,8.3-7.9,13.1-11.6c1.1-0.8,2.6-0.6,3.4,0.4c0.8,1,0.6,2.6-0.4,3.4
				c-4.5,3.5-8.8,7.2-12.5,11.1C268.4,119.7,267.8,119.9,267.2,119.9z M294.2,99.1c-0.8,0-1.6-0.4-2.1-1.2c-0.7-1.1-0.3-2.6,0.9-3.3
				c4.7-2.8,9.8-5.4,15.3-8c1.2-0.6,2.6,0,3.2,1.1c0.6,1.2,0,2.6-1.1,3.2c-5.4,2.6-10.3,5.1-15,7.8C295,99,294.6,99.1,294.2,99.1z
				 M325.1,84.3c-0.9,0-1.8-0.6-2.2-1.5c-0.5-1.2,0.1-2.6,1.3-3.1c3.5-1.4,6.8-2.7,10.1-4c2-0.8,4-1.5,5.9-2.3
				c1.2-0.5,2.6,0.1,3.1,1.3c0.5,1.2-0.1,2.6-1.3,3.1c-1.9,0.7-3.9,1.5-5.9,2.3c-3.2,1.3-6.6,2.5-10,3.9
				C325.7,84.3,325.4,84.3,325.1,84.3z M356.1,70c-0.8,0-1.6-0.4-2.1-1.2c-0.7-1.1-0.3-2.6,0.8-3.3l14.7-8.8
				c1.1-0.7,2.6-0.3,3.3,0.8c0.7,1.1,0.3,2.6-0.8,3.3l-14.7,8.8C356.9,69.9,356.5,70,356.1,70z"/>
		</g>
		<g>
			<path fill="#CE2128" d="M385.2,52.5c-0.8,0-1.6-0.4-2.1-1.2c-0.7-1.1-0.3-2.6,0.8-3.3l7.4-4.5c1.1-0.7,2.6-0.3,3.3,0.8
				c0.7,1.1,0.3,2.6-0.8,3.3l-7.4,4.5C386.1,52.4,385.6,52.5,385.2,52.5z"/>
		</g>
	</g>
	<g>
		<path fill="#CE2128" d="M420.5,516.4C420.5,516.4,420.5,516.4,420.5,516.4l-4.3-0.2c-3.8-0.1-8.2-0.3-13.2-0.5
			c-1.3-0.1-2.3-1.2-2.3-2.5c0.1-1.3,1.2-2.3,2.5-2.3c4.9,0.2,9.4,0.4,13.1,0.5l4.2,0.2c1.3,0.1,2.3,1.2,2.3,2.5
			C422.9,515.4,421.8,516.4,420.5,516.4z M385.9,514.9c0,0-0.1,0-0.1,0c-6.1-0.4-11.9-0.8-17.3-1.2c-1.3-0.1-2.3-1.3-2.2-2.6
			c0.1-1.3,1.3-2.3,2.6-2.2c5.4,0.4,11.2,0.8,17.2,1.2c1.3,0.1,2.3,1.2,2.2,2.5C388.2,513.9,387.2,514.9,385.9,514.9z M351.4,512
			c-0.1,0-0.2,0-0.3,0c-6.3-0.7-12.1-1.5-17.3-2.4c-1.3-0.2-2.2-1.5-2-2.8c0.2-1.3,1.5-2.2,2.8-2c5.1,0.9,10.8,1.7,17,2.4
			c1.3,0.2,2.3,1.3,2.1,2.7C353.6,511.1,352.6,512,351.4,512z M317.3,505.8c-0.2,0-0.4,0-0.7-0.1c-7.7-2.2-13.1-4.7-16.5-7.6
			c-1-0.9-1.1-2.4-0.3-3.4c0.9-1,2.4-1.1,3.4-0.3c2.8,2.4,7.8,4.7,14.7,6.7c1.3,0.4,2,1.7,1.6,3
			C319.3,505.1,318.4,505.8,317.3,505.8z"/>
	</g>
	<g>
		<g>
			<path fill="#CE2128" d="M583.9,519c-1.2,0-2.3-1-2.4-2.2c-0.1-1.3,0.9-2.5,2.2-2.6l8.6-0.6c1.3-0.1,2.5,0.9,2.6,2.2
				c0.1,1.3-0.9,2.5-2.2,2.6l-8.6,0.6C584,519,584,519,583.9,519z"/>
		</g>
		<g>
			<path fill="#CE2128" d="M608.7,517.2c-1.2,0-2.3-1-2.4-2.2c-0.1-1.3,0.9-2.5,2.2-2.6l16.1-1.2c1.3-0.1,2.5,0.9,2.6,2.2
				c0.1,1.3-0.9,2.5-2.2,2.6l-16.1,1.2C608.8,517.2,608.7,517.2,608.7,517.2z M641,514.9c-1.2,0-2.3-1-2.4-2.2
				c-0.1-1.3,0.9-2.5,2.2-2.6l16.1-1.2c1.3-0.1,2.5,0.9,2.6,2.2s-0.9,2.5-2.2,2.6l-16.1,1.2C641.1,514.9,641,514.9,641,514.9z"/>
		</g>
		<g>
			<path fill="#CE2128" d="M673.3,512.6c-1.2,0-2.3-1-2.4-2.2c-0.1-1.3,0.9-2.5,2.2-2.6l6.3-0.5l-0.3-6.3c-0.1-1.3,0.9-2.4,2.3-2.5
				c1.3-0.1,2.4,0.9,2.5,2.3l0.4,8.6c0.1,1.3-0.9,2.4-2.2,2.5l-8.6,0.6C673.4,512.6,673.3,512.6,673.3,512.6z"/>
		</g>
		<g>
			<path fill="#CE2128" d="M680.5,486.3c-1.3,0-2.3-1-2.4-2.3l-0.9-17.1c-0.1-1.3,0.9-2.4,2.3-2.5c1.3-0.1,2.4,0.9,2.5,2.3l0.9,17.1
				c0.1,1.3-0.9,2.4-2.3,2.5C680.6,486.3,680.6,486.3,680.5,486.3z M678.7,452c-1.3,0-2.3-1-2.4-2.3c-0.3-5.5-0.6-11.3-0.9-17.1
				c-0.1-1.3,0.9-2.4,2.3-2.5c1.3-0.1,2.4,0.9,2.5,2.3c0.3,5.8,0.6,11.6,0.9,17.1c0.1,1.3-0.9,2.4-2.3,2.5
				C678.8,452,678.7,452,678.7,452z M676.8,417.8c-1.3,0-2.3-1-2.4-2.3c-0.3-5.7-0.6-11.4-0.9-17.1c-0.1-1.3,0.9-2.4,2.3-2.5
				c1.3-0.1,2.4,0.9,2.5,2.3c0.3,5.7,0.6,11.4,0.9,17.1c0.1,1.3-0.9,2.4-2.3,2.5C676.9,417.8,676.9,417.8,676.8,417.8z M674.9,383.6
				c-1.3,0-2.3-1-2.4-2.3c-0.3-5.9-0.7-11.6-1-17.1c-0.1-1.3,0.9-2.4,2.2-2.5c1.3-0.1,2.4,0.9,2.5,2.2c0.3,5.5,0.6,11.2,1,17.1
				c0.1,1.3-0.9,2.4-2.3,2.5C675,383.6,675,383.6,674.9,383.6z M672.9,349.4c-1.3,0-2.3-1-2.4-2.2c-0.4-6.3-0.7-12-1.1-17.1
				c-0.1-1.3,0.9-2.5,2.2-2.5c1.3-0.1,2.5,0.9,2.5,2.2c0.3,5.1,0.7,10.8,1.1,17.1c0.1,1.3-0.9,2.5-2.2,2.5
				C673,349.4,673,349.4,672.9,349.4z M670.7,315.2c-1.2,0-2.3-0.9-2.4-2.2c-0.1-0.9-0.1-1.7-0.2-2.4c-0.4-4.2-1-9-1.7-14.5
				c-0.2-1.3,0.7-2.5,2.1-2.7c1.3-0.2,2.5,0.7,2.7,2.1c0.7,5.5,1.3,10.4,1.7,14.6c0.1,0.7,0.1,1.6,0.2,2.5c0.1,1.3-0.9,2.5-2.2,2.6
				C670.8,315.2,670.7,315.2,670.7,315.2z M666.3,281.2c-1.2,0-2.2-0.8-2.4-2c-0.8-5.3-1.8-11-2.8-16.8c-0.2-1.3,0.6-2.5,1.9-2.8
				c1.3-0.2,2.5,0.6,2.8,1.9c1,5.9,2,11.6,2.8,16.9c0.2,1.3-0.7,2.5-2,2.7C666.5,281.2,666.4,281.2,666.3,281.2z M660.5,247.5
				c-1.1,0-2.1-0.8-2.3-2c-1-5.5-2.1-11.1-3.2-16.8c-0.3-1.3,0.6-2.6,1.9-2.8c1.3-0.3,2.6,0.6,2.8,1.9c1.1,5.7,2.2,11.4,3.2,16.8
				c0.2,1.3-0.6,2.5-1.9,2.8C660.8,247.5,660.6,247.5,660.5,247.5z M653.9,213.9c-1.1,0-2.1-0.8-2.3-1.9c-1.1-5.5-2.3-11.1-3.6-16.7
				c-0.3-1.3,0.5-2.6,1.8-2.8c1.3-0.3,2.6,0.5,2.8,1.8c1.2,5.6,2.4,11.3,3.6,16.8c0.3,1.3-0.6,2.6-1.9,2.8
				C654.2,213.9,654,213.9,653.9,213.9z M646.6,180.5c-1.1,0-2.1-0.8-2.3-1.9c-0.7-3.3-1.5-6.5-2.3-9.9c-0.5-2.2-1.1-4.4-1.7-6.6
				c-0.4-1.3,0.4-2.6,1.6-3c1.3-0.4,2.6,0.4,3,1.6c0.7,2.2,1.3,4.5,1.8,6.9c0.8,3.3,1.5,6.6,2.3,9.9c0.3,1.3-0.5,2.6-1.8,2.9
				C646.9,180.4,646.8,180.5,646.6,180.5z M636.5,147.9c-0.9,0-1.8-0.5-2.2-1.4c-2.4-5.1-5.2-9.9-8.3-14.4c-0.8-1.1-0.5-2.6,0.6-3.3
				c1.1-0.8,2.6-0.5,3.3,0.6c3.3,4.8,6.2,9.8,8.7,15.1c0.6,1.2,0.1,2.6-1.1,3.2C637.2,147.8,636.9,147.9,636.5,147.9z M617.1,119.9
				c-0.6,0-1.2-0.2-1.7-0.7c-3.8-3.9-8-7.6-12.5-11.1c-1-0.8-1.3-2.3-0.4-3.4c0.8-1,2.3-1.3,3.4-0.4c4.7,3.6,9.1,7.5,13.1,11.6
				c0.9,0.9,0.9,2.5,0,3.4C618.3,119.7,617.7,119.9,617.1,119.9z M590.1,99.1c-0.4,0-0.8-0.1-1.2-0.3c-4.6-2.7-9.5-5.3-15-7.8
				c-1.2-0.6-1.7-2-1.1-3.2c0.6-1.2,2-1.7,3.2-1.1c5.6,2.6,10.6,5.3,15.4,8c1.1,0.7,1.5,2.1,0.9,3.3
				C591.7,98.6,590.9,99.1,590.1,99.1z M559.2,84.3c-0.3,0-0.6-0.1-0.9-0.2c-3.5-1.4-6.8-2.7-10-3.9c-2-0.8-4-1.6-5.9-2.3
				c-1.2-0.5-1.8-1.9-1.3-3.1c0.5-1.2,1.9-1.8,3.1-1.3c1.9,0.7,3.9,1.5,5.9,2.3c3.2,1.3,6.6,2.6,10.1,4c1.2,0.5,1.8,1.9,1.3,3.1
				C561.1,83.8,560.2,84.3,559.2,84.3z M528.2,70c-0.4,0-0.8-0.1-1.2-0.3l-14.7-8.8c-1.1-0.7-1.5-2.1-0.8-3.3
				c0.7-1.1,2.1-1.5,3.3-0.8l14.7,8.8c1.1,0.7,1.5,2.1,0.8,3.3C529.8,69.6,529,70,528.2,70z"/>
		</g>
		<g>
			<path fill="#CE2128" d="M499.1,52.5c-0.4,0-0.8-0.1-1.2-0.3l-7.4-4.5c-1.1-0.7-1.5-2.1-0.8-3.3c0.7-1.1,2.1-1.5,3.3-0.8l7.4,4.5
				c1.1,0.7,1.5,2.1,0.8,3.3C500.7,52.1,499.9,52.5,499.1,52.5z"/>
		</g>
	</g>
	<g>
		<path fill="#CE2128" d="M463.8,516.4c-1.3,0-2.3-1-2.4-2.3c-0.1-1.3,1-2.4,2.3-2.5l4.2-0.2c3.8-0.1,8.2-0.3,13.1-0.5
			c1.3-0.1,2.4,1,2.5,2.3c0.1,1.3-1,2.4-2.3,2.5c-4.9,0.2-9.4,0.4-13.2,0.5L463.8,516.4C463.9,516.4,463.8,516.4,463.8,516.4z
			 M498.4,514.9c-1.3,0-2.3-1-2.4-2.3c-0.1-1.3,0.9-2.5,2.2-2.5c6-0.4,11.8-0.8,17.2-1.2c1.3-0.1,2.5,0.9,2.6,2.2
			c0.1,1.3-0.9,2.5-2.2,2.6c-5.4,0.4-11.2,0.9-17.3,1.2C498.5,514.9,498.4,514.9,498.4,514.9z M532.9,512c-1.2,0-2.2-0.9-2.4-2.1
			c-0.2-1.3,0.8-2.5,2.1-2.7c6.2-0.7,11.9-1.5,17-2.4c1.3-0.2,2.5,0.7,2.8,2c0.2,1.3-0.7,2.5-2,2.8c-5.2,0.9-11,1.7-17.3,2.4
			C533.1,512,533,512,532.9,512z M567,505.8c-1,0-2-0.7-2.3-1.7c-0.4-1.3,0.4-2.6,1.6-3c6.9-2,11.9-4.2,14.7-6.7
			c1-0.9,2.5-0.7,3.4,0.3c0.9,1,0.7,2.5-0.3,3.4c-3.4,2.9-8.8,5.4-16.5,7.6C567.4,505.8,567.2,505.8,567,505.8z"/>
	</g>
	<g>
		<g>
			<path fill="#CC9E5D" d="M370.3,81.2c-38.8,7.9-78.6,38.9-81.9,57.7c-3.3,18.8-13.6,58.3-19.1,91.7c-5.5,33.4-14.2,69.2-14.7,91.1
				c-0.5,21.9-8.2,124.5-10.4,192.5l56.2,2.4c1.6-38.3,9.3-161.5,13.1-179.8c3.8-18.2,10.4-53.4,21.8-96l-1.6,257.2
				c31.1,11.5,65.2,16.4,105,16.4l0.4-9.8l9.4,0.8v9c39.8,0,72.7-4.9,103.8-16.4l-1.6-257.2c11.5,42.5,18,77.7,21.8,96
				c3.8,18.2,11.5,141.5,13.1,179.8l56.2-2.4c-2.2-68-9.8-170.7-10.4-192.5c-0.5-21.9-9.3-57.7-14.7-91.1
				c-5.5-33.4-15.8-72.9-19.1-91.7c-3.3-18.8-43.1-49.8-81.9-57.7c0,0-21.8-32.4-24.5-35.9c-2.8-3.5-18.6-7.5-36.6-7.5
				c-18,0-47.9-1.1-59.9,7.7S370.3,81.2,370.3,81.2z"/>
		</g>
		<g>
			<path fill="#50382B" d="M439.3,70.7c0-0.2,0-0.5,0-0.7c-41.3,2.1-41-0.9-39.3,13.4c1.7,14.3,25,97,32,120
				c7.1,23,10.5,24.2,10.5,24.2s0-0.1,0-0.2c0.3,0.2,0.6,0.2,0.6,0.2s3.5-1.2,10.5-24.2c7.1-23,29.9-105.8,32-120
				C488.4,65.5,478.6,72.6,439.3,70.7z"/>
		</g>
		<g>
			<path fill="#936145" d="M399.7,41.1c-5.1,4.3-5.2,31.3,0.2,32.4c5.3,1.1,33.2-3.5,45.2-3.3c8,0.1,31,4.5,41.1,0
				c5-2.2,2-10.3,2-14.9c0.3-10.9,2.1-14.9-7.5-15.6C471.1,38.9,414.9,36.4,399.7,41.1z"/>
		</g>
		<g>
			<path fill="#936145" d="M397.6,41.7C385,56.9,355,109.1,350.1,120c16.4,0,39.3,0,39.3,0l-15.6,20l65.5,86.5
				c0,0-29.2-92.6-34.1-114.5S395.9,59.3,397.6,41.7z"/>
		</g>
		<g opacity="0.2">
			<path fill="#FFFFFF" d="M399.4,81.2c-24.4,23.6-38.6,32-49.4,37.9c-10.8,5.9-32.9,1.5-42.2,44.7S278.8,282.7,277,317.1
				c-1.8,34.4-8.8,182.4-10.1,198.1c-7.5-0.3-22.7-1-22.7-1l4.3-88c0,0,6.1-110.5,7.4-119.5s32.6-167.9,32.6-167.9
				s9.5-17.7,15.7-23.1c6.2-5.4,42.3-31.7,69.1-37c4.2-11.1,22.8-35,22.8-35L399.4,81.2z"/>
		</g>
		<g>
			<path fill="#936145" d="M488.4,41.7c12.6,15.2,42.6,67.4,47.5,78.3c-16.4,0-39.3,0-39.3,0l15.6,20l-65.7,87.5
				c0,0,29.4-93.5,34.3-115.4C485.7,90.3,490,59.3,488.4,41.7z"/>
		</g>
		<g>
			<polygon fill="#936145" points="246.1,481.7 301.7,484 300.4,516.6 244.2,514.2 			"/>
		</g>
		<g>
			<polygon fill="#936145" points="639.1,481.7 583.4,484 584.7,516.6 641,514.2 			"/>
		</g>
		<g>
			<g>
				<polygon fill="#936145" points="507.1,395.8 537.2,465.9 527.8,479.1 493.3,404.3 				"/>
			</g>
			<g>
				<polygon fill="#936145" points="378.8,395.8 348.7,465.9 358.1,479.1 392.7,404.3 				"/>
			</g>
		</g>
		<g>
			<g>
				<g>
					<g>
						<path fill="#010101" d="M446.4,447.9h-7.1c-1.1,0-2-0.9-2-2s0.9-2,2-2h7.1c1.1,0,2,0.9,2,2S447.5,447.9,446.4,447.9z"/>
					</g>
					<g>
						<path fill="#010101" d="M446.4,439.5h-7.1c-1.1,0-2-0.9-2-2s0.9-2,2-2h7.1c1.1,0,2,0.9,2,2S447.5,439.5,446.4,439.5z"/>
					</g>
					<g>
						<path fill="#010101" d="M446.4,431.1h-7.1c-1.1,0-2-0.9-2-2s0.9-2,2-2h7.1c1.1,0,2,0.9,2,2S447.5,431.1,446.4,431.1z"/>
					</g>
					<g>
						<path fill="#010101" d="M446.4,422.6h-7.1c-1.1,0-2-0.9-2-2s0.9-2,2-2h7.1c1.1,0,2,0.9,2,2S447.5,422.6,446.4,422.6z"/>
					</g>
					<g>
						<path fill="#010101" d="M446.4,414.2h-7.1c-1.1,0-2-0.9-2-2s0.9-2,2-2h7.1c1.1,0,2,0.9,2,2S447.5,414.2,446.4,414.2z"/>
					</g>
					<g>
						<path fill="#010101" d="M446.4,405.8h-7.1c-1.1,0-2-0.9-2-2s0.9-2,2-2h7.1c1.1,0,2,0.9,2,2S447.5,405.8,446.4,405.8z"/>
					</g>
					<g>
						<path fill="#010101" d="M446.4,397.4h-7.1c-1.1,0-2-0.9-2-2s0.9-2,2-2h7.1c1.1,0,2,0.9,2,2S447.5,397.4,446.4,397.4z"/>
					</g>
					<g>
						<path fill="#010101" d="M446.4,388.9h-7.1c-1.1,0-2-0.9-2-2s0.9-2,2-2h7.1c1.1,0,2,0.9,2,2S447.5,388.9,446.4,388.9z"/>
					</g>
					<g>
						<path fill="#010101" d="M446.4,380.6h-7.1c-1.1,0-2-0.9-2-2s0.9-2,2-2h7.1c1.1,0,2,0.9,2,2S447.5,380.6,446.4,380.6z"/>
					</g>
					<g>
						<path fill="#010101" d="M446.4,372.2h-7.1c-1.1,0-2-0.9-2-2s0.9-2,2-2h7.1c1.1,0,2,0.9,2,2S447.5,372.2,446.4,372.2z"/>
					</g>
					<g>
						<path fill="#010101" d="M446.4,363.8h-7.1c-1.1,0-2-0.9-2-2s0.9-2,2-2h7.1c1.1,0,2,0.9,2,2S447.5,363.8,446.4,363.8z"/>
					</g>
					<g>
						<path fill="#010101" d="M446.4,355.3h-7.1c-1.1,0-2-0.9-2-2s0.9-2,2-2h7.1c1.1,0,2,0.9,2,2S447.5,355.3,446.4,355.3z"/>
					</g>
					<g>
						<path fill="#010101" d="M446.4,346.9h-7.1c-1.1,0-2-0.9-2-2s0.9-2,2-2h7.1c1.1,0,2,0.9,2,2S447.5,346.9,446.4,346.9z"/>
					</g>
					<g>
						<path fill="#010101" d="M446.4,338.5h-7.1c-1.1,0-2-0.9-2-2s0.9-2,2-2h7.1c1.1,0,2,0.9,2,2S447.5,338.5,446.4,338.5z"/>
					</g>
					<g>
						<path fill="#010101" d="M446.4,330.1h-7.1c-1.1,0-2-0.9-2-2s0.9-2,2-2h7.1c1.1,0,2,0.9,2,2S447.5,330.1,446.4,330.1z"/>
					</g>
					<g>
						<path fill="#010101" d="M446.4,321.6h-7.1c-1.1,0-2-0.9-2-2s0.9-2,2-2h7.1c1.1,0,2,0.9,2,2S447.5,321.6,446.4,321.6z"/>
					</g>
					<g>
						<path fill="#010101" d="M446.4,313.2h-7.1c-1.1,0-2-0.9-2-2s0.9-2,2-2h7.1c1.1,0,2,0.9,2,2S447.5,313.2,446.4,313.2z"/>
					</g>
				</g>
				<g>
					<path fill="#010101" d="M446.4,304.8h-7.1c-1.1,0-2-0.9-2-2s0.9-2,2-2h7.1c1.1,0,2,0.9,2,2S447.5,304.8,446.4,304.8z"/>
				</g>
				<g>
					<path fill="#010101" d="M446.4,296.4h-7.1c-1.1,0-2-0.9-2-2s0.9-2,2-2h7.1c1.1,0,2,0.9,2,2S447.5,296.4,446.4,296.4z"/>
				</g>
				<g>
					<path fill="#010101" d="M446.4,287.9h-7.1c-1.1,0-2-0.9-2-2s0.9-2,2-2h7.1c1.1,0,2,0.9,2,2S447.5,287.9,446.4,287.9z"/>
				</g>
				<g>
					<path fill="#010101" d="M446.4,279.6h-7.1c-1.1,0-2-0.9-2-2s0.9-2,2-2h7.1c1.1,0,2,0.9,2,2S447.5,279.6,446.4,279.6z"/>
				</g>
				<g>
					<path fill="#010101" d="M446.4,271.2h-7.1c-1.1,0-2-0.9-2-2s0.9-2,2-2h7.1c1.1,0,2,0.9,2,2S447.5,271.2,446.4,271.2z"/>
				</g>
				<g>
					<path fill="#010101" d="M446.4,262.8h-7.1c-1.1,0-2-0.9-2-2s0.9-2,2-2h7.1c1.1,0,2,0.9,2,2S447.5,262.8,446.4,262.8z"/>
				</g>
				<g>
					<path fill="#010101" d="M446.4,254.3h-7.1c-1.1,0-2-0.9-2-2s0.9-2,2-2h7.1c1.1,0,2,0.9,2,2S447.5,254.3,446.4,254.3z"/>
				</g>
				<g>
					<path fill="#010101" d="M446.4,245.9h-7.1c-1.1,0-2-0.9-2-2s0.9-2,2-2h7.1c1.1,0,2,0.9,2,2S447.5,245.9,446.4,245.9z"/>
				</g>
				<g>
					<rect x="437.4" y="223.8" fill="#010101" width="11.6" height="19.4"/>
				</g>
				<g>
					<polygon fill="#010101" points="441,233.5 432.5,255.3 453.3,255.3 444.7,233.5 					"/>
				</g>
				<g>
					<ellipse fill="#CC9E5D" cx="443.1" cy="247.7" rx="4.2" ry="5.1"/>
				</g>
			</g>
			<g>
				<g>
					<path fill="#010101" d="M446.4,456.3h-7.1c-1.1,0-2-0.9-2-2s0.9-2,2-2h7.1c1.1,0,2,0.9,2,2S447.5,456.3,446.4,456.3z"/>
				</g>
			</g>
		</g>
		<g>
			<g>
				<g>
					<g>
						<path fill="#010101" d="M446.6,464.7h-7.1c-1.1,0-2-0.9-2-2s0.9-2,2-2h7.1c1.1,0,2,0.9,2,2S447.7,464.7,446.6,464.7z"/>
					</g>
					<g>
						<path fill="#010101" d="M446.6,473h-7.1c-1.1,0-2-0.9-2-2s0.9-2,2-2h7.1c1.1,0,2,0.9,2,2S447.7,473,446.6,473z"/>
					</g>
					<g>
						<path fill="#010101" d="M446.6,481.4h-7.1c-1.1,0-2-0.9-2-2s0.9-2,2-2h7.1c1.1,0,2,0.9,2,2S447.7,481.4,446.6,481.4z"/>
					</g>
					<g>
						<path fill="#010101" d="M446.6,489.9h-7.1c-1.1,0-2-0.9-2-2s0.9-2,2-2h7.1c1.1,0,2,0.9,2,2S447.7,489.9,446.6,489.9z"/>
					</g>
					<g>
						<path fill="#010101" d="M446.6,498.3h-7.1c-1.1,0-2-0.9-2-2s0.9-2,2-2h7.1c1.1,0,2,0.9,2,2S447.7,498.3,446.6,498.3z"/>
					</g>
					<g>
						<path fill="#010101" d="M439.1,516.5c-1.1,0-2-0.9-2-2v-9.8c0-1.1,0.9-2,2-2h9.4c1.1,0,2,0.9,2,2s-0.9,2-2,2h-7.4v7.8
							C441.1,515.6,440.2,516.5,439.1,516.5z"/>
					</g>
				</g>
			</g>
			<g>
				<g>
					<path fill="#010101" d="M446.6,456.3h-7.1c-1.1,0-2-0.9-2-2s0.9-2,2-2h7.1c1.1,0,2,0.9,2,2S447.7,456.3,446.6,456.3z"/>
				</g>
			</g>
		</g>
		<g>
			<path fill="#010101" d="M439.3,228.9c-0.7,0-1.4-0.3-1.9-0.9l-65.5-86.5c-0.6-0.8-0.6-2,0-2.8l12.6-16.3h-34.5
				c-0.8,0-1.5-0.4-2-1.1c-0.4-0.7-0.5-1.5-0.2-2.2c5-11.2,35.1-63.5,47.8-78.9c0.7-0.8,1.7-1.1,2.7-0.7c0.9,0.4,1.5,1.4,1.4,2.4
				c-1.6,17.5,2.8,48.4,7.6,69.7c4.8,21.5,33.7,113.4,34,114.3c0.3,1.1-0.1,2.3-1.2,2.8C440,228.9,439.6,228.9,439.3,228.9z
				 M376.8,140.1l56.3,74.4c-8.2-26.3-26.3-84.8-30.1-101.8c-4.2-18.9-8.2-45.2-8-63.5c-12.6,17.8-34.1,54.9-41.1,68.6h35.6
				c0.9,0,1.7,0.5,2.1,1.3c0.4,0.8,0.3,1.8-0.3,2.5L376.8,140.1z"/>
		</g>
		<g>
			<path fill="#010101" d="M300.4,518.9c0,0-0.1,0-0.1,0l-56.2-2.4c-1.3-0.1-2.3-1.1-2.2-2.4c1.3-41.7,4.8-97.2,7.3-137.6
				c1.6-26,2.9-46.5,3.1-54.9c0.4-14.7,4.4-35.4,8.6-57.4c2.1-11.2,4.4-22.7,6.2-34c3.3-19.9,8.1-41.4,12.4-60.4
				c2.9-12.7,5.4-23.7,6.7-31.3c3.4-19.4,43.5-51.4,83.7-59.6c1.3-0.3,2.5,0.6,2.8,1.8c0.3,1.3-0.6,2.5-1.8,2.8
				c-37.6,7.7-76.9,37.9-80.1,55.8c-1.3,7.7-3.8,18.7-6.7,31.5c-4.3,18.9-9.1,40.4-12.4,60.2c-1.8,11.3-4.1,22.9-6.2,34.1
				c-4.2,21.8-8.1,42.4-8.5,56.7c-0.2,8.5-1.5,29-3.1,55.1c-2.5,39.7-5.8,93.8-7.2,135.2l51.6,2.2c1.7-38.5,9.1-159.1,13-177.8
				c0.7-3.2,1.4-6.8,2.2-10.9c4-19.9,10.1-49.9,19.6-85.1c0.3-1.1,1.4-1.9,2.6-1.7c1.2,0.2,2,1.2,2,2.3L336,496.4
				c29.5,10.7,62.2,15.7,102.6,15.7c1.3,0,2.3,1,2.3,2.3s-1,2.3-2.3,2.3c-41.7,0-75.3-5.3-105.8-16.5c-0.9-0.3-1.5-1.2-1.5-2.2
				l1.5-238.4c-6.8,27.2-11.5,50.4-14.8,66.7c-0.8,4.1-1.6,7.8-2.2,11c-3.7,17.6-11.3,139.1-13.1,179.4c0,0.6-0.3,1.2-0.8,1.6
				C301.5,518.7,301,518.9,300.4,518.9z"/>
		</g>
		<g>
			<path fill="#010101" d="M446.4,229.9c-0.4,0-0.7-0.1-1.1-0.3c-1-0.5-1.5-1.7-1.2-2.8c0.3-0.9,29.4-93.7,34.3-115.2
				c4.8-21.3,9.2-52.3,7.6-69.7c-0.1-1,0.5-2,1.4-2.4c0.9-0.4,2-0.1,2.7,0.7c12.7,15.4,42.8,67.7,47.8,78.9c0.3,0.7,0.3,1.6-0.2,2.2
				c-0.4,0.7-1.2,1.1-2,1.1h-34.5l12.6,16.3c0.6,0.8,0.7,2,0,2.8l-65.7,87.5C447.8,229.5,447.1,229.9,446.4,229.9z M491.1,49.1
				c0.1,18.4-3.8,44.7-8,63.5c-3.8,17-22.1,76.1-30.3,102.6l56.5-75.2l-14.5-18.6c-0.5-0.7-0.6-1.7-0.3-2.5s1.2-1.3,2.1-1.3h35.6
				C525.2,104,503.7,66.9,491.1,49.1z"/>
		</g>
		<g>
			<path fill="#010101" d="M585.6,518.9c-0.6,0-1.1-0.2-1.6-0.6c-0.5-0.4-0.7-1-0.8-1.6c-1.7-40.3-9.4-161.8-13.1-179.4
				c-0.7-3.2-1.4-6.8-2.2-11c-3.3-16.3-8-39.5-14.8-66.7l1.5,238.4c0,1-0.6,1.9-1.5,2.2c-30.4,11.3-63.7,16.5-104.6,16.5
				c-1.3,0-2.3-1-2.3-2.3v-9c0-1.3,1-2.3,2.3-2.3s2.3,1,2.3,2.3v6.7c38.6-0.2,70.2-5.2,99.1-15.7l-1.6-255.6c0-1.2,0.9-2.2,2-2.3
				c1.2-0.2,2.3,0.6,2.6,1.7c9.5,35.2,15.6,65.3,19.6,85.1c0.8,4.1,1.6,7.8,2.2,10.9c3.9,18.7,11.3,139.3,13,177.8l51.6-2.2
				c-1.4-41.4-4.7-95.5-7.2-135.2c-1.6-26-2.9-46.5-3.1-55.1c-0.4-14.3-4.3-34.9-8.5-56.7c-2.1-11.2-4.4-22.8-6.2-34.1
				c-3.2-19.8-8.1-41.2-12.4-60.2c-2.9-12.8-5.4-23.8-6.7-31.5c-3.1-17.9-42.5-48.2-80.1-55.8c-1.3-0.3-2.1-1.5-1.8-2.8
				c0.3-1.3,1.5-2.1,2.8-1.8c40.2,8.2,80.3,40.2,83.7,59.6c1.3,7.6,3.8,18.6,6.7,31.3c4.3,19,9.2,40.6,12.4,60.4
				c1.8,11.2,4.1,22.8,6.2,34c4.2,22,8.2,42.8,8.6,57.4c0.2,8.4,1.5,28.9,3.1,54.9c2.5,40.5,5.9,95.9,7.3,137.6c0,1.3-1,2.4-2.2,2.4
				l-56.2,2.4C585.6,518.9,585.6,518.9,585.6,518.9z"/>
		</g>
		<g>
			<path fill="#010101" d="M397.6,44c-1,0-1.9-0.6-2.2-1.6c-0.4-1.2,0.3-2.5,1.5-2.9c18.4-5.7,75.4-4.9,92.2,0
				c1.2,0.4,2,1.7,1.6,2.9c-0.4,1.2-1.7,2-2.9,1.6c-15.9-4.7-72.1-5.4-89.5,0C398,44,397.8,44,397.6,44z"/>
		</g>
		<g>
			<path fill="#010101" d="M399.1,76c-1,0-2-0.7-2.3-1.8c-0.3-1.3,0.4-2.5,1.7-2.9c22-5.7,70.4-4.2,88.3-1.2
				c1.3,0.2,2.1,1.4,1.9,2.7s-1.4,2.1-2.7,1.9c-17.1-2.8-65.3-4.3-86.4,1.2C399.5,76,399.3,76,399.1,76z"/>
		</g>
		<g>
			<g>
				<path fill="#010101" d="M527.8,481.5c-0.1,0-0.1,0-0.2,0c-0.8-0.1-1.6-0.6-1.9-1.4l-34.5-74.9c-0.5-1.1-0.1-2.4,0.9-3l13.8-8.5
					c0.6-0.4,1.3-0.4,1.9-0.2c0.6,0.2,1.2,0.7,1.4,1.3l30.1,70.1c0.3,0.8,0.2,1.6-0.2,2.3l-9.4,13.2
					C529.3,481.1,528.6,481.5,527.8,481.5z M496.3,405.2l32,69.3l6.3-8.9l-28.5-66.4L496.3,405.2z"/>
			</g>
			<g>
				<path fill="#010101" d="M358.1,481.5c-0.8,0-1.5-0.4-1.9-1l-9.4-13.2c-0.5-0.7-0.6-1.5-0.2-2.3l30.1-70.1
					c0.3-0.6,0.8-1.1,1.4-1.3c0.6-0.2,1.4-0.1,1.9,0.2l13.8,8.5c1,0.6,1.4,1.9,0.9,3l-34.5,74.9c-0.3,0.8-1.1,1.3-1.9,1.4
					C358.3,481.5,358.2,481.5,358.1,481.5z M351.4,465.6l6.3,8.9l32-69.3l-9.8-6L351.4,465.6z"/>
			</g>
		</g>
		<g>
			<path fill="#010101" d="M583.9,486.3c-1.2,0-2.3-1-2.3-2.2c-0.1-1.3,1-2.4,2.2-2.4l56.6-2.3c1.3-0.1,2.4,1,2.4,2.2
				c0.1,1.3-1,2.4-2.2,2.4L583.9,486.3C583.9,486.3,583.9,486.3,583.9,486.3z"/>
		</g>
		<g>
			<path fill="#010101" d="M300.4,518.9c0,0-0.1,0-0.1,0l-56.2-2.4c-0.6,0-1.2-0.3-1.6-0.8c-0.4-0.5-0.6-1.1-0.6-1.7l1.9-32.5
				c0.1-1.3,1.1-2.3,2.4-2.2l55.7,2.3c1.3,0.1,2.3,1.1,2.2,2.4l-1.3,32.6c0,0.6-0.3,1.2-0.8,1.6C301.5,518.7,301,518.9,300.4,518.9z
				 M246.6,511.9l51.5,2.2l1.1-27.9l-51-2.1L246.6,511.9z"/>
		</g>
		<g opacity="0.1">
			<path fill="#010101" d="M335.3,240.9c13.2,26.1,31.9,164.6,32.1,268.7c-15.4-7.2-33.7-11.5-33.7-11.5L335.3,240.9z"/>
		</g>
		<g opacity="0.2">
			<path fill="#FFFFFF" d="M486.1,81.2c24.4,23.6,38.6,32,49.4,37.9c10.8,5.9,32.9,1.5,42.2,44.7s29.2,118.9,30.9,153.3
				s8.8,182.4,10.1,198.1c7.5-0.3,22.7-1,22.7-1l-4.3-88c0,0-6.1-110.5-7.4-119.5c-1.3-8.9-32.6-167.9-32.6-167.9
				s-9.5-17.7-15.7-23.1c-6.2-5.4-42.3-31.7-69.1-37c-4.2-11.1-22.8-35-22.8-35L486.1,81.2z"/>
		</g>
		<g opacity="0.1">
			<path fill="#010101" d="M550.2,240.9c-13.2,26.1-29.8,163.4-30,267.5c15.4-7.2,31.6-10.3,31.6-10.3L550.2,240.9z"/>
		</g>
	</g>
</g>
<g>
	<g>
		<g>
			<path fill="#FCEAAE" d="M149.3,349.5c-1.7,0-3.2-1.6-3.2-3.5v-24.3h-22.1c-1.7,0-3.2-1.6-3.2-3.5v-13.9c0-1.9,1.4-3.5,3.2-3.5
				h22.1v-24.3c0-1.9,1.4-3.5,3.2-3.5h6.3c0.8,0,1.6,0.4,2.2,1l31.5,34.8c1.2,1.4,1.2,3.6,0,4.9l-31.5,34.8c-0.6,0.7-1.4,1-2.2,1
				H149.3z"/>
		</g>
		<g>
			<path fill="#CE2027" d="M155.6,276.4l31.5,34.8L155.6,346h-6.3v-27.8h-25.2v-13.9h25.2v-27.8H155.6 M155.6,269.4h-6.3
				c-3.5,0-6.3,3.1-6.3,7v20.9h-18.9c-3.5,0-6.3,3.1-6.3,7v13.9c0,3.8,2.8,7,6.3,7H143V346c0,3.8,2.8,7,6.3,7h6.3
				c1.7,0,3.3-0.7,4.5-2l31.5-34.8c2.5-2.7,2.5-7.1,0-9.8l-31.5-34.8C158.9,270.2,157.3,269.4,155.6,269.4L155.6,269.4z"/>
		</g>
	</g>
	<g>
		<g>
			<path fill="#FCEAAE" d="M728.7,349.5c-0.8,0-1.6-0.4-2.2-1l-31.5-34.8c-1.2-1.4-1.2-3.6,0-4.9l31.5-34.8c0.6-0.6,1.4-1,2.2-1h6.3
				c1.7,0,3.2,1.6,3.2,3.5v24.3h22.1c1.7,0,3.2,1.6,3.2,3.5v13.9c0,1.9-1.4,3.5-3.2,3.5h-22.1V346c0,1.9-1.4,3.5-3.2,3.5H728.7z"/>
		</g>
		<g>
			<path fill="#CE2027" d="M728.7,276.4h6.3v27.8h25.2v13.9H735V346h-6.3l-31.5-34.8L728.7,276.4 M728.7,269.4c-1.7,0-3.3,0.7-4.5,2
				l-31.5,34.8c-2.5,2.7-2.5,7.1,0,9.8l31.5,34.8c1.2,1.3,2.8,2,4.5,2h6.3c3.5,0,6.3-3.1,6.3-7v-20.9h18.9c3.5,0,6.3-3.1,6.3-7
				v-13.9c0-3.8-2.8-7-6.3-7h-18.9v-20.9c0-3.8-2.8-7-6.3-7H728.7L728.7,269.4z"/>
		</g>
	</g>
</g>
<g>
	<g>
		<g>
			<polygon fill="#55A7C5" points="431.2,532.6 459.7,532.6 572.5,304.5 612,304.5 612,286.2 503.8,286.2 503.8,304.5 544.7,304.5 
				454.7,485.4 433.1,442.4 486.8,338.1 518.4,338.1 518.4,319.8 403.8,319.8 403.8,338.1 436.6,338.1 408.8,393.9 363.9,304.5 
				396.7,304.5 396.7,286.2 282.1,286.2 282.1,304.5 313.7,304.5 384.6,442.2 328.5,554.6 300.5,554.6 300.5,573 563.9,573 
				596.8,501 541.7,554.6 375.2,554.6 408.9,489.3 			"/>
		</g>
		<g>
			<path fill="#010101" d="M565.8,576H297.5v-24.4h29.2l54.6-109.4l-69.4-134.7h-32.7v-24.4h120.6v24.4h-30.9l40,79.6l23-46h-30.9
				v-24.4h120.6v24.4h-32.7l-52.2,101.2l18.2,36.3l85.2-171.1h-39.1v-24.4H615v24.4h-40.7l-112.8,228h-32.2l-20.5-39.7l-28.7,55.7
				h160.3l65.7-63.9L565.8,576z M303.5,570h258.5l25.4-55.6L543,557.6H370.3l38.6-74.9l24.1,46.8h24.8l112.8-228H609v-12.4H506.8
				v12.4h42.8l-94.9,190.6l-25-49.7L485,335.1h30.4v-12.4H406.8v12.4h34.6l-32.7,65.5L359,301.5h34.6v-12.4H285.1v12.4h30.4
				L388,442.2l-57.6,115.4h-26.9V570z"/>
		</g>
	</g>
</g>
</svg>
