<?xml version="1.0" encoding="iso-8859-1"?>
<!-- Generator: Adobe Illustrator 21.1.0, SVG Export Plug-In . SVG Version: 6.00 Build 0)  -->
<svg version="1.1" xmlns="http://www.w3.org/2000/svg" xmlns:xlink="http://www.w3.org/1999/xlink" x="0px" y="0px"
	 viewBox="0 0 90 90" style="enable-background:new 0 0 90 90;" xml:space="preserve">
<g id="icon_x5F_005">
	<rect style="display:none;fill:#F2F2F2;" width="90" height="90"/>
	<g>
		<path style="fill:#AEAA97;" d="M83,85H7c-2.209,0-4-1.791-4-4V9c0-2.209,1.791-4,4-4h76c2.209,0,4,1.791,4,4v72
			C87,83.209,85.209,85,83,85z"/>
		<path style="fill:#C5B9A1;" d="M6,14c0-2.209,1.791-4,4-4h76c0.347,0,0.679,0.058,1,0.141V9c0-2.209-1.791-4-4-4H7
			C4.791,5,3,6.791,3,9v72c0,1.862,1.278,3.412,3,3.859V14z"/>
		<path style="fill:none;stroke:#42210B;stroke-width:2;stroke-linecap:round;stroke-linejoin:round;" d="M83,85H7
			c-2.209,0-4-1.791-4-4V9c0-2.209,1.791-4,4-4h76c2.209,0,4,1.791,4,4v72C87,83.209,85.209,85,83,85z"/>
	</g>
	<g>
		<polygon style="fill:#94A7AE;stroke:#42210B;stroke-width:2;stroke-linecap:round;stroke-linejoin:round;" points="45,27 40,28 
			38,29 36,27 34,28 30,27 26,29 23,27 19,28 16,27 17,31 16,36 17,52 16,57 23,56 31,57 37,56 45,57 		"/>
		<path style="fill:#C5B9A1;" d="M45,57l-8-1l-6,1l-8-1l-7,1c0,0-2,4-2,10s1,11,1,11s3-1,4-1s3,1,4,1s2-2,3-2s3,1,4,1s3-2,4-2
			s1,2,2,2s3-2,4-2s3,3,5,3V57z"/>
		<path style="fill:#AEAA97;" d="M18.57,75.563c0.044,0.531,0.026,1.023-0.04,1.482C18.712,77.017,18.873,77,19,77c1,0,3,1,4,1
			s2-2,3-2s3,1,4,1s3-2,4-2s1,2,2,2s3-2,4-2s3,3,5,3V59.198C32.821,58.916,17.463,62.305,18.57,75.563z"/>
		<path style="fill:none;stroke:#42210B;stroke-width:2;stroke-linecap:round;stroke-linejoin:round;" d="M45,57l-8-1l-6,1l-8-1
			l-7,1c0,0-2,4-2,10s1,11,1,11s3-1,4-1s3,1,4,1s2-2,3-2s3,1,4,1s3-2,4-2s1,2,2,2s3-2,4-2s3,3,5,3V57z"/>
		<path style="fill:none;stroke:#42210B;stroke-linecap:round;stroke-linejoin:round;" d="M23,63c-1,2-1,6,0,9"/>
		<path style="fill:none;stroke:#42210B;stroke-linecap:round;stroke-linejoin:round;" d="M36,63c0,3-1,7-1,7"/>
		<line style="fill:none;stroke:#42210B;stroke-linecap:round;stroke-linejoin:round;" x1="31" y1="63" x2="31" y2="66"/>
		<g>
			<line style="fill:none;stroke:#42210B;stroke-linecap:round;stroke-linejoin:round;" x1="43.5" y1="27.5" x2="36.5" y2="34.5"/>
			<line style="fill:none;stroke:#42210B;stroke-linecap:round;stroke-linejoin:round;" x1="34.5" y1="31.5" x2="37" y2="29"/>
			<line style="fill:none;stroke:#42210B;stroke-linecap:round;stroke-linejoin:round;" x1="24.5" y1="27.5" x2="16.5" y2="35.5"/>
			<line style="fill:none;stroke:#42210B;stroke-linecap:round;stroke-linejoin:round;" x1="16.5" y1="40.5" x2="23" y2="34"/>
			<line style="fill:none;stroke:#42210B;stroke-linecap:round;stroke-linejoin:round;" x1="31.5" y1="27.5" x2="27" y2="32"/>
			<line style="fill:none;stroke:#42210B;stroke-linecap:round;stroke-linejoin:round;" x1="16.5" y1="53.5" x2="21.5" y2="48.5"/>
			<line style="fill:none;stroke:#42210B;stroke-linecap:round;stroke-linejoin:round;" x1="18.5" y1="55.5" x2="28" y2="46"/>
			<line style="fill:none;stroke:#42210B;stroke-linecap:round;stroke-linejoin:round;" x1="24" y1="56" x2="27.5" y2="52.5"/>
			<line style="fill:none;stroke:#42210B;stroke-linecap:round;stroke-linejoin:round;" x1="32" y1="57" x2="38" y2="51"/>
			<line style="fill:none;stroke:#42210B;stroke-linecap:round;stroke-linejoin:round;" x1="38.5" y1="55.5" x2="41" y2="53"/>
			<line style="fill:none;stroke:#42210B;stroke-linecap:round;stroke-linejoin:round;" x1="37.5" y1="55.5" x2="32.5" y2="50.5"/>
			<line style="fill:none;stroke:#42210B;stroke-linecap:round;stroke-linejoin:round;" x1="16.5" y1="32.5" x2="22" y2="38"/>
			<line style="fill:none;stroke:#42210B;stroke-linecap:round;stroke-linejoin:round;" x1="18.5" y1="46.5" x2="21.5" y2="49.5"/>
			<line style="fill:none;stroke:#42210B;stroke-linecap:round;stroke-linejoin:round;" x1="20.5" y1="51.5" x2="23.5" y2="54.5"/>
			<line style="fill:none;stroke:#42210B;stroke-linecap:round;stroke-linejoin:round;" x1="41.5" y1="47.5" x2="44.5" y2="50.5"/>
			<line style="fill:none;stroke:#42210B;stroke-linecap:round;stroke-linejoin:round;" x1="38.5" y1="28.5" x2="42.5" y2="32.5"/>
		</g>
	</g>
	<g>
		
			<line style="fill:none;stroke:#9B9680;stroke-width:2;stroke-linecap:round;stroke-linejoin:round;" x1="74" y1="29" x2="78" y2="25"/>
		
			<line style="fill:none;stroke:#9B9680;stroke-width:2;stroke-linecap:round;stroke-linejoin:round;" x1="74" y1="53" x2="78" y2="49"/>
		
			<line style="fill:none;stroke:#9B9680;stroke-width:2;stroke-linecap:round;stroke-linejoin:round;" x1="74" y1="57" x2="78" y2="53"/>
		
			<line style="fill:none;stroke:#9B9680;stroke-width:2;stroke-linecap:round;stroke-linejoin:round;" x1="74" y1="45" x2="78" y2="41"/>
		
			<line style="fill:none;stroke:#9B9680;stroke-width:2;stroke-linecap:round;stroke-linejoin:round;" x1="74" y1="37" x2="78" y2="33"/>
		
			<line style="fill:none;stroke:#9B9680;stroke-width:2;stroke-linecap:round;stroke-linejoin:round;" x1="74" y1="33" x2="78" y2="29"/>
		
			<line style="fill:none;stroke:#9B9680;stroke-width:2;stroke-linecap:round;stroke-linejoin:round;" x1="74" y1="61" x2="78" y2="57"/>
		
			<line style="fill:none;stroke:#9B9680;stroke-width:2;stroke-linecap:round;stroke-linejoin:round;" x1="70" y1="61" x2="74" y2="57"/>
		
			<line style="fill:none;stroke:#9B9680;stroke-width:2;stroke-linecap:round;stroke-linejoin:round;" x1="66" y1="61" x2="70" y2="57"/>
		
			<line style="fill:none;stroke:#9B9680;stroke-width:2;stroke-linecap:round;stroke-linejoin:round;" x1="62" y1="61" x2="66" y2="57"/>
		
			<line style="fill:none;stroke:#9B9680;stroke-width:2;stroke-linecap:round;stroke-linejoin:round;" x1="58" y1="61" x2="62" y2="57"/>
		
			<line style="fill:none;stroke:#9B9680;stroke-width:2;stroke-linecap:round;stroke-linejoin:round;" x1="54" y1="61" x2="58" y2="57"/>
		
			<line style="fill:none;stroke:#9B9680;stroke-width:2;stroke-linecap:round;stroke-linejoin:round;" x1="50" y1="61" x2="54" y2="57"/>
		
			<line style="fill:none;stroke:#9B9680;stroke-width:2;stroke-linecap:round;stroke-linejoin:round;" x1="46" y1="61" x2="50" y2="57"/>
		
			<line style="fill:none;stroke:#9B9680;stroke-width:2;stroke-linecap:round;stroke-linejoin:round;" x1="45" y1="58" x2="46" y2="57"/>
		
			<line style="fill:none;stroke:#9B9680;stroke-width:2;stroke-linecap:round;stroke-linejoin:round;" x1="70" y1="29" x2="74" y2="25"/>
		
			<line style="fill:none;stroke:#9B9680;stroke-width:2;stroke-linecap:round;stroke-linejoin:round;" x1="66" y1="29" x2="70" y2="25"/>
		
			<line style="fill:none;stroke:#9B9680;stroke-width:2;stroke-linecap:round;stroke-linejoin:round;" x1="62" y1="29" x2="66" y2="25"/>
		
			<line style="fill:none;stroke:#9B9680;stroke-width:2;stroke-linecap:round;stroke-linejoin:round;" x1="58" y1="29" x2="62" y2="25"/>
		
			<line style="fill:none;stroke:#9B9680;stroke-width:2;stroke-linecap:round;stroke-linejoin:round;" x1="54" y1="29" x2="58" y2="25"/>
		
			<line style="fill:none;stroke:#9B9680;stroke-width:2;stroke-linecap:round;stroke-linejoin:round;" x1="50" y1="29" x2="54" y2="25"/>
		
			<line style="fill:none;stroke:#9B9680;stroke-width:2;stroke-linecap:round;stroke-linejoin:round;" x1="46" y1="29" x2="50" y2="25"/>
		
			<line style="fill:none;stroke:#9B9680;stroke-width:2;stroke-linecap:round;stroke-linejoin:round;" x1="45" y1="26" x2="46" y2="25"/>
		
			<line style="fill:none;stroke:#9B9680;stroke-width:2;stroke-linecap:round;stroke-linejoin:round;" x1="74" y1="49" x2="78" y2="45"/>
		
			<line style="fill:none;stroke:#9B9680;stroke-width:2;stroke-linecap:round;stroke-linejoin:round;" x1="74" y1="41" x2="78" y2="37"/>
	</g>
	
		<line style="fill:none;stroke:#CE171F;stroke-width:2;stroke-linecap:round;stroke-linejoin:round;" x1="45" y1="1" x2="45" y2="89"/>
</g>
<g id="Layer_1">
</g>
</svg>
